  0
SECTION
  2
HEADER
  9
$ACADVER
  1
AC1024
  9
$ACADMAINTVER
 70
6
  9
$DWGCODEPAGE
  3
ANSI_1252
  9
$LASTSAVEDBY
  1
ezdxf
  9
$INSBASE
 10
0.0
 20
0.0
 30
0.0
  9
$EXTMIN
 10
0.0
 20
0.0
 30
0.0
  9
$EXTMAX
 10
210.0
 20
297.0
 30
0.0
  9
$LIMMIN
 10
0.0
 20
0.0
  9
$LIMMAX
 10
420.0
 20
297.0
  9
$ORTHOMODE
 70
0
  9
$REGENMODE
 70
1
  9
$FILLMODE
 70
1
  9
$QTEXTMODE
 70
0
  9
$MIRRTEXT
 70
1
  9
$LTSCALE
 40
1.0
  9
$ATTMODE
 70
1
  9
$TEXTSIZE
 40
2.5
  9
$TRACEWID
 40
1.0
  9
$TEXTSTYLE
  7
Standard
  9
$CLAYER
  8
0
  9
$CELTYPE
  6
ByLayer
  9
$CECOLOR
 62
256
  9
$CELTSCALE
 40
1.0
  9
$DISPSILH
 70
0
  9
$DIMSCALE
 40
1.0
  9
$DIMASZ
 40
2.5
  9
$DIMEXO
 40
0.625
  9
$DIMDLI
 40
3.75
  9
$DIMRND
 40
0.0
  9
$DIMDLE
 40
0.0
  9
$DIMEXE
 40
1.25
  9
$DIMTP
 40
0.0
  9
$DIMTM
 40
0.0
  9
$DIMTXT
 40
2.5
  9
$DIMCEN
 40
2.5
  9
$DIMTSZ
 40
0.0
  9
$DIMTOL
 70
0
  9
$DIMLIM
 70
0
  9
$DIMTIH
 70
0
  9
$DIMTOH
 70
0
  9
$DIMSE1
 70
0
  9
$DIMSE2
 70
0
  9
$DIMTAD
 70
1
  9
$DIMZIN
 70
8
  9
$DIMBLK
  1

  9
$DIMASO
 70
1
  9
$DIMSHO
 70
1
  9
$DIMPOST
  1

  9
$DIMAPOST
  1

  9
$DIMALT
 70
0
  9
$DIMALTD
 70
3
  9
$DIMALTF
 40
0.03937007874
  9
$DIMLFAC
 40
1.0
  9
$DIMTOFL
 70
1
  9
$DIMTVP
 40
0.0
  9
$DIMTIX
 70
0
  9
$DIMSOXD
 70
0
  9
$DIMSAH
 70
0
  9
$DIMBLK1
  1

  9
$DIMBLK2
  1

  9
$DIMSTYLE
  2
ISO-25
  9
$DIMCLRD
 70
0
  9
$DIMCLRE
 70
0
  9
$DIMCLRT
 70
0
  9
$DIMTFAC
 40
1.0
  9
$DIMGAP
 40
0.625
  9
$DIMJUST
 70
0
  9
$DIMSD1
 70
0
  9
$DIMSD2
 70
0
  9
$DIMTOLJ
 70
0
  9
$DIMTZIN
 70
8
  9
$DIMALTZ
 70
0
  9
$DIMALTTZ
 70
0
  9
$DIMUPT
 70
0
  9
$DIMDEC
 70
2
  9
$DIMTDEC
 70
2
  9
$DIMALTU
 70
2
  9
$DIMALTTD
 70
3
  9
$DIMTXSTY
  7
Standard
  9
$DIMAUNIT
 70
0
  9
$DIMADEC
 70
0
  9
$DIMALTRND
 40
0.0
  9
$DIMAZIN
 70
0
  9
$DIMDSEP
 70
44
  9
$DIMATFIT
 70
3
  9
$DIMFRAC
 70
0
  9
$DIMLDRBLK
  1

  9
$DIMLUNIT
 70
2
  9
$DIMLWD
 70
-2
  9
$DIMLWE
 70
-2
  9
$DIMTMOVE
 70
0
  9
$DIMFXL
 40
1.0
  9
$DIMFXLON
 70
0
  9
$DIMJOGANG
 40
0.785398163397
  9
$DIMTFILL
 70
0
  9
$DIMTFILLCLR
 70
0
  9
$DIMARCSYM
 70
0
  9
$DIMLTYPE
  6

  9
$DIMLTEX1
  6

  9
$DIMLTEX2
  6

  9
$DIMTXTDIRECTION
 70
0
  9
$LUNITS
 70
2
  9
$LUPREC
 70
4
  9
$SKETCHINC
 40
1.0
  9
$FILLETRAD
 40
10.0
  9
$AUNITS
 70
0
  9
$AUPREC
 70
2
  9
$MENU
  1
.
  9
$ELEVATION
 40
0.0
  9
$PELEVATION
 40
0.0
  9
$THICKNESS
 40
0.0
  9
$LIMCHECK
 70
0
  9
$CHAMFERA
 40
0.0
  9
$CHAMFERB
 40
0.0
  9
$CHAMFERC
 40
0.0
  9
$CHAMFERD
 40
0.0
  9
$SKPOLY
 70
0
  9
$TDCREATE
 40
2461238.3354282407
  9
$TDUCREATE
 40
2458532.153996898
  9
$TDUPDATE
 40
2461238.3354282407
  9
$TDUUPDATE
 40
2458532.1544311
  9
$TDINDWG
 40
0.0
  9
$TDUSRTIMER
 40
0.0
  9
$USRTIMER
 70
1
  9
$ANGBASE
 50
0.0
  9
$ANGDIR
 70
0
  9
$PDMODE
 70
0
  9
$PDSIZE
 40
0.0
  9
$PLINEWID
 40
0.0
  9
$SPLFRAME
 70
0
  9
$SPLINETYPE
 70
6
  9
$SPLINESEGS
 70
8
  9
$HANDSEED
  5
A6
  9
$SURFTAB1
 70
6
  9
$SURFTAB2
 70
6
  9
$SURFTYPE
 70
6
  9
$SURFU
 70
6
  9
$SURFV
 70
6
  9
$UCSBASE
  2

  9
$UCSNAME
  2

  9
$UCSORG
 10
0.0
 20
0.0
 30
0.0
  9
$UCSXDIR
 10
1.0
 20
0.0
 30
0.0
  9
$UCSYDIR
 10
0.0
 20
1.0
 30
0.0
  9
$UCSORTHOREF
  2

  9
$UCSORTHOVIEW
 70
0
  9
$UCSORGTOP
 10
0.0
 20
0.0
 30
0.0
  9
$UCSORGBOTTOM
 10
0.0
 20
0.0
 30
0.0
  9
$UCSORGLEFT
 10
0.0
 20
0.0
 30
0.0
  9
$UCSORGRIGHT
 10
0.0
 20
0.0
 30
0.0
  9
$UCSORGFRONT
 10
0.0
 20
0.0
 30
0.0
  9
$UCSORGBACK
 10
0.0
 20
0.0
 30
0.0
  9
$PUCSBASE
  2

  9
$PUCSNAME
  2

  9
$PUCSORG
 10
0.0
 20
0.0
 30
0.0
  9
$PUCSXDIR
 10
1.0
 20
0.0
 30
0.0
  9
$PUCSYDIR
 10
0.0
 20
1.0
 30
0.0
  9
$PUCSORTHOREF
  2

  9
$PUCSORTHOVIEW
 70
0
  9
$PUCSORGTOP
 10
0.0
 20
0.0
 30
0.0
  9
$PUCSORGBOTTOM
 10
0.0
 20
0.0
 30
0.0
  9
$PUCSORGLEFT
 10
0.0
 20
0.0
 30
0.0
  9
$PUCSORGRIGHT
 10
0.0
 20
0.0
 30
0.0
  9
$PUCSORGFRONT
 10
0.0
 20
0.0
 30
0.0
  9
$PUCSORGBACK
 10
0.0
 20
0.0
 30
0.0
  9
$USERI1
 70
0
  9
$USERI2
 70
0
  9
$USERI3
 70
0
  9
$USERI4
 70
0
  9
$USERI5
 70
0
  9
$USERR1
 40
0.0
  9
$USERR2
 40
0.0
  9
$USERR3
 40
0.0
  9
$USERR4
 40
0.0
  9
$USERR5
 40
0.0
  9
$WORLDVIEW
 70
1
  9
$SHADEDGE
 70
3
  9
$SHADEDIF
 70
70
  9
$TILEMODE
 70
1
  9
$MAXACTVP
 70
64
  9
$PINSBASE
 10
0.0
 20
0.0
 30
0.0
  9
$PLIMCHECK
 70
0
  9
$PEXTMIN
 10
1e+20
 20
1e+20
 30
1e+20
  9
$PEXTMAX
 10
-1e+20
 20
-1e+20
 30
-1e+20
  9
$PLIMMIN
 10
0.0
 20
0.0
  9
$PLIMMAX
 10
420.0
 20
297.0
  9
$UNITMODE
 70
0
  9
$VISRETAIN
 70
1
  9
$PLINEGEN
 70
0
  9
$PSLTSCALE
 70
1
  9
$TREEDEPTH
 70
3020
  9
$CMLSTYLE
  2
Standard
  9
$CMLJUST
 70
0
  9
$CMLSCALE
 40
20.0
  9
$PROXYGRAPHICS
 70
1
  9
$MEASUREMENT
 70
1
  9
$CELWEIGHT
370
-1
  9
$ENDCAPS
280
0
  9
$JOINSTYLE
280
0
  9
$LWDISPLAY
290
0
  9
$INSUNITS
 70
4
  9
$HYPERLINKBASE
  1

  9
$STYLESHEET
  1

  9
$XEDIT
290
1
  9
$CEPSNTYPE
380
0
  9
$PSTYLEMODE
290
1
  9
$FINGERPRINTGUID
  2
{31F3F6DD-F76C-4F43-B9C5-508254053348}
  9
$VERSIONGUID
  2
{BDBD448A-99BA-423B-8B28-215C8E03300C}
  9
$EXTNAMES
290
1
  9
$PSVPSCALE
 40
0.0
  9
$OLESTARTUP
290
0
  9
$SORTENTS
280
127
  9
$INDEXCTL
280
0
  9
$HIDETEXT
280
1
  9
$XCLIPFRAME
280
1
  9
$HALOGAP
280
0
  9
$OBSCOLOR
 70
257
  9
$OBSLTYPE
280
0
  9
$INTERSECTIONDISPLAY
280
0
  9
$INTERSECTIONCOLOR
 70
257
  9
$DIMASSOC
280
2
  9
$PROJECTNAME
  1

  9
$CAMERADISPLAY
290
0
  9
$LENSLENGTH
 40
50.0
  9
$CAMERAHEIGHT
 40
0.0
  9
$STEPSPERSEC
 40
24.0
  9
$STEPSIZE
 40
100.0
  9
$3DDWFPREC
 40
2.0
  9
$PSOLWIDTH
 40
0.005
  9
$PSOLHEIGHT
 40
0.08
  9
$LOFTANG1
 40
1.570796326795
  9
$LOFTANG2
 40
1.570796326795
  9
$LOFTMAG1
 40
0.0
  9
$LOFTMAG2
 40
0.0
  9
$LOFTPARAM
 70
7
  9
$LOFTNORMALS
280
1
  9
$LATITUDE
 40
37.795
  9
$LONGITUDE
 40
-122.394
  9
$NORTHDIRECTION
 40
0.0
  9
$TIMEZONE
 70
-8000
  9
$LIGHTGLYPHDISPLAY
280
1
  9
$TILEMODELIGHTSYNCH
280
1
  9
$CMATERIAL
347
20
  9
$SOLIDHIST
280
0
  9
$SHOWHIST
280
1
  9
$DWFFRAME
280
2
  9
$DGNFRAME
280
2
  9
$REALWORLDSCALE
290
1
  9
$INTERFERECOLOR
 62
256
  9
$CSHADOW
280
0
  9
$SHADOWPLANELOCATION
 40
0.0
  0
ENDSEC
  0
SECTION
  2
CLASSES
  0
CLASS
  1
ACDBDICTIONARYWDFLT
  2
AcDbDictionaryWithDefault
  3
ObjectDBX Classes
 90
0
 91
0
280
0
281
0
  0
CLASS
  1
SUN
  2
AcDbSun
  3
SCENEOE
 90
1153
 91
0
280
0
281
0
  0
CLASS
  1
VISUALSTYLE
  2
AcDbVisualStyle
  3
ObjectDBX Classes
 90
4095
 91
0
280
0
281
0
  0
CLASS
  1
MATERIAL
  2
AcDbMaterial
  3
ObjectDBX Classes
 90
1153
 91
0
280
0
281
0
  0
CLASS
  1
SCALE
  2
AcDbScale
  3
ObjectDBX Classes
 90
1153
 91
0
280
0
281
0
  0
CLASS
  1
TABLESTYLE
  2
AcDbTableStyle
  3
ObjectDBX Classes
 90
4095
 91
0
280
0
281
0
  0
CLASS
  1
MLEADERSTYLE
  2
AcDbMLeaderStyle
  3
ACDB_MLEADERSTYLE_CLASS
 90
4095
 91
0
280
0
281
0
  0
CLASS
  1
DICTIONARYVAR
  2
AcDbDictionaryVar
  3
ObjectDBX Classes
 90
0
 91
0
280
0
281
0
  0
CLASS
  1
CELLSTYLEMAP
  2
AcDbCellStyleMap
  3
ObjectDBX Classes
 90
1152
 91
0
280
0
281
0
  0
CLASS
  1
MENTALRAYRENDERSETTINGS
  2
AcDbMentalRayRenderSettings
  3
SCENEOE
 90
1024
 91
0
280
0
281
0
  0
CLASS
  1
ACDBDETAILVIEWSTYLE
  2
AcDbDetailViewStyle
  3
ObjectDBX Classes
 90
1025
 91
0
280
0
281
0
  0
CLASS
  1
ACDBSECTIONVIEWSTYLE
  2
AcDbSectionViewStyle
  3
ObjectDBX Classes
 90
1025
 91
0
280
0
281
0
  0
CLASS
  1
RASTERVARIABLES
  2
AcDbRasterVariables
  3
ISM
 90
0
 91
0
280
0
281
0
  0
CLASS
  1
ACDBPLACEHOLDER
  2
AcDbPlaceHolder
  3
ObjectDBX Classes
 90
0
 91
0
280
0
281
0
  0
CLASS
  1
LAYOUT
  2
AcDbLayout
  3
ObjectDBX Classes
 90
0
 91
0
280
0
281
0
  0
ENDSEC
  0
SECTION
  2
TABLES
  0
TABLE
  2
VPORT
  5
8
330
0
100
AcDbSymbolTable
 70
1
  0
VPORT
  5
23
330
8
100
AcDbSymbolTableRecord
100
AcDbViewportTableRecord
  2
*Active
 70
0
 10
0.0
 20
0.0
 11
1.0
 21
1.0
 12
0.0
 22
0.0
 13
0.0
 23
0.0
 14
0.5
 24
0.5
 15
0.5
 25
0.5
 16
0.0
 26
0.0
 36
1.0
 17
0.0
 27
0.0
 37
0.0
 40
1000.0
 41
1.34
 42
50.0
 43
0.0
 44
0.0
 50
0.0
 51
0.0
 71
0
 72
1000
 73
1
 74
3
 75
0
 76
0
 77
0
 78
0
281
0
 65
0
146
0.0
  0
ENDTAB
  0
TABLE
  2
LTYPE
  5
2
330
0
100
AcDbSymbolTable
 70
4
  0
LTYPE
  5
24
330
2
100
AcDbSymbolTableRecord
100
AcDbLinetypeTableRecord
  2
ByBlock
 70
0
  3

 72
65
 73
0
 40
0.0
  0
LTYPE
  5
25
330
2
100
AcDbSymbolTableRecord
100
AcDbLinetypeTableRecord
  2
ByLayer
 70
0
  3

 72
65
 73
0
 40
0.0
  0
LTYPE
  5
26
330
2
100
AcDbSymbolTableRecord
100
AcDbLinetypeTableRecord
  2
Continuous
 70
0
  3

 72
65
 73
0
 40
0.0
  0
LTYPE
  5
36
330
2
100
AcDbSymbolTableRecord
100
AcDbLinetypeTableRecord
  2
OPTICAL
 70
0
  3

 72
65
 73
5
 40
8.0
 49
-2.0
 74
0
 49
1.0
 74
0
 49
-2.0
 74
0
 49
1.0
 74
0
 49
-2.0
 74
0
  0
ENDTAB
  0
TABLE
  2
LAYER
  5
1
330
0
100
AcDbSymbolTable
 70
9
  0
LAYER
  5
27
330
1
100
AcDbSymbolTableRecord
100
AcDbLayerTableRecord
  2
0
 70
0
 62
7
  6
Continuous
370
-3
390
13
347
21
  0
LAYER
  5
28
330
1
100
AcDbSymbolTableRecord
100
AcDbLayerTableRecord
  2
Defpoints
 70
0
 62
7
  6
Continuous
290
0
370
-3
390
13
347
21
  0
LAYER
  5
2F
330
1
100
AcDbSymbolTableRecord
100
AcDbLayerTableRecord
  2
BORDER
 70
0
 62
7
  6
Continuous
370
25
390
13
347
21
  0
LAYER
  5
30
330
1
100
AcDbSymbolTableRecord
100
AcDbLayerTableRecord
  2
OUTLINE
 70
0
 62
7
  6
Continuous
370
50
390
13
347
21
  0
LAYER
  5
31
330
1
100
AcDbSymbolTableRecord
100
AcDbLayerTableRecord
  2
AXIS
 70
0
 62
8
  6
OPTICAL
370
13
390
13
347
21
  0
LAYER
  5
32
330
1
100
AcDbSymbolTableRecord
100
AcDbLayerTableRecord
  2
CEMENT
 70
0
 62
7
  6
Continuous
370
13
390
13
347
21
  0
LAYER
  5
33
330
1
100
AcDbSymbolTableRecord
100
AcDbLayerTableRecord
  2
DIMS
 70
0
 62
7
  6
Continuous
370
13
390
13
347
21
  0
LAYER
  5
34
330
1
100
AcDbSymbolTableRecord
100
AcDbLayerTableRecord
  2
CALLOUT
 70
0
 62
7
  6
Continuous
370
13
390
13
347
21
  0
LAYER
  5
35
330
1
100
AcDbSymbolTableRecord
100
AcDbLayerTableRecord
  2
TABLE
 70
0
 62
7
  6
Continuous
370
13
390
13
347
21
  0
ENDTAB
  0
TABLE
  2
STYLE
  5
5
330
0
100
AcDbSymbolTable
 70
1
  0
STYLE
  5
29
330
5
100
AcDbSymbolTableRecord
100
AcDbTextStyleTableRecord
  2
Standard
 70
0
 40
0.0
 41
1.0
 50
0.0
 71
0
 42
2.5
  3
txt
  4

  0
ENDTAB
  0
TABLE
  2
VIEW
  5
7
330
0
100
AcDbSymbolTable
 70
0
  0
ENDTAB
  0
TABLE
  2
UCS
  5
6
330
0
100
AcDbSymbolTable
 70
0
  0
ENDTAB
  0
TABLE
  2
APPID
  5
3
330
0
100
AcDbSymbolTable
 70
3
  0
APPID
  5
2A
330
3
100
AcDbSymbolTableRecord
100
AcDbRegAppTableRecord
  2
ACAD
 70
0
  0
APPID
  5
A3
330
3
100
AcDbSymbolTableRecord
100
AcDbRegAppTableRecord
  2
HATCHBACKGROUNDCOLOR
 70
0
  0
APPID
  5
A4
330
3
100
AcDbSymbolTableRecord
100
AcDbRegAppTableRecord
  2
EZDXF
 70
0
  0
ENDTAB
  0
TABLE
  2
DIMSTYLE
  5
4
330
0
100
AcDbSymbolTable
 70
1
100
AcDbDimStyleTable
  0
DIMSTYLE
105
2B
330
4
100
AcDbSymbolTableRecord
100
AcDbDimStyleTableRecord
  2
Standard
 70
0
 40
1.0
 41
2.5
 42
0.625
 43
3.75
 44
1.25
 45
0.0
 46
0.0
 47
0.0
 48
0.0
 49
2.5
140
2.5
141
2.5
142
0.0
143
0.03937007874
144
1.0
145
0.0
146
1.0
147
0.625
148
0.0
 69
0
 70
0
 71
0
 72
0
 73
0
 74
0
 75
0
 76
0
 77
1
 78
8
 79
3
170
0
171
3
172
1
173
0
174
0
175
0
176
0
177
0
178
0
179
2
271
2
272
2
273
2
274
3
275
0
276
0
277
2
278
44
279
0
280
0
281
0
282
0
283
0
284
8
285
0
286
0
288
0
289
3
290
0
371
-2
372
-2
  0
ENDTAB
  0
TABLE
  2
BLOCK_RECORD
  5
9
330
0
100
AcDbSymbolTable
 70
2
  0
BLOCK_RECORD
  5
17
330
9
100
AcDbSymbolTableRecord
100
AcDbBlockTableRecord
  2
*Model_Space
340
1A
 70
0
280
1
281
0
  0
BLOCK_RECORD
  5
1B
330
9
100
AcDbSymbolTableRecord
100
AcDbBlockTableRecord
  2
*Paper_Space
340
1E
 70
0
280
1
281
0
  0
ENDTAB
  0
ENDSEC
  0
SECTION
  2
BLOCKS
  0
BLOCK
  5
18
330
17
100
AcDbEntity
  8
0
100
AcDbBlockBegin
  2
*Model_Space
 70
0
 10
0.0
 20
0.0
 30
0.0
  3
*Model_Space
  1

  0
ENDBLK
  5
19
330
17
100
AcDbEntity
  8
0
100
AcDbBlockEnd
  0
BLOCK
  5
1C
330
1B
100
AcDbEntity
  8
0
100
AcDbBlockBegin
  2
*Paper_Space
 70
0
 10
0.0
 20
0.0
 30
0.0
  3
*Paper_Space
  1

  0
ENDBLK
  5
1D
330
1B
100
AcDbEntity
  8
0
100
AcDbBlockEnd
  0
ENDSEC
  0
SECTION
  2
ENTITIES
  0
LWPOLYLINE
  5
37
330
17
100
AcDbEntity
  8
BORDER
100
AcDbPolyline
 90
4
 70
1
 10
0.0
 20
0.0
 10
210.0
 20
0.0
 10
210.0
 20
297.0
 10
0.0
 20
297.0
  0
LWPOLYLINE
  5
38
330
17
100
AcDbEntity
  8
BORDER
370
50
100
AcDbPolyline
 90
4
 70
1
 10
10.0
 20
10.0
 10
200.0
 20
10.0
 10
200.0
 20
287.0
 10
10.0
 20
287.0
  0
TEXT
  5
39
330
17
100
AcDbEntity
  8
BORDER
100
AcDbText
 10
12.0
 20
113.0
 30
0.0
 40
1.8
  1
Ang. nach ISO 10110; λ = 546.07 nm
100
AcDbText
 73
1
  0
TEXT
  5
3A
330
17
100
AcDbEntity
  8
BORDER
100
AcDbText
 10
12.0
 20
282.0
 30
0.0
 40
2.5
  1
f′ = 18.85 mm
100
AcDbText
 73
3
  0
LWPOLYLINE
  5
3B
330
17
100
AcDbEntity
  8
BORDER
100
AcDbPolyline
 90
4
 70
1
 10
10.0
 20
10.0
 10
200.0
 20
10.0
 10
200.0
 20
38.0
 10
10.0
 20
38.0
  0
LINE
  5
3C
330
17
100
AcDbEntity
  8
BORDER
100
AcDbLine
 10
10.0
 20
23.0
 30
0.0
 11
200.0
 21
23.0
 31
0.0
  0
LINE
  5
3D
330
17
100
AcDbEntity
  8
BORDER
100
AcDbLine
 10
74.60000000000001
 20
23.0
 30
0.0
 11
74.60000000000001
 21
38.0
 31
0.0
  0
LINE
  5
3E
330
17
100
AcDbEntity
  8
BORDER
100
AcDbLine
 10
101.20000000000002
 20
23.0
 30
0.0
 11
101.20000000000002
 21
38.0
 31
0.0
  0
LINE
  5
3F
330
17
100
AcDbEntity
  8
BORDER
100
AcDbLine
 10
127.80000000000001
 20
23.0
 30
0.0
 11
127.80000000000001
 21
38.0
 31
0.0
  0
LINE
  5
40
330
17
100
AcDbEntity
  8
BORDER
100
AcDbLine
 10
154.4
 20
23.0
 30
0.0
 11
154.4
 21
38.0
 31
0.0
  0
LINE
  5
41
330
17
100
AcDbEntity
  8
BORDER
100
AcDbLine
 10
177.20000000000002
 20
23.0
 30
0.0
 11
177.20000000000002
 21
38.0
 31
0.0
  0
LINE
  5
42
330
17
100
AcDbEntity
  8
BORDER
100
AcDbLine
 10
188.60000000000002
 20
23.0
 30
0.0
 11
188.60000000000002
 21
38.0
 31
0.0
  0
TEXT
  5
43
330
17
100
AcDbEntity
  8
BORDER
100
AcDbText
 10
42.300000000000004
 20
26.75
 30
0.0
 40
1.8
  1
ORGANISATION / PROJECT / PART NO.
 72
4
 11
42.300000000000004
 21
26.75
 31
0.0
100
AcDbText
 73
2
  0
TEXT
  5
44
330
17
100
AcDbEntity
  8
BORDER
100
AcDbText
 10
42.300000000000004
 20
33.5
 30
0.0
 40
2.5
  1
5-Element Photographic Objective   OPT-002
 72
4
 11
42.300000000000004
 21
33.5
 31
0.0
100
AcDbText
 73
2
  0
TEXT
  5
45
330
17
100
AcDbEntity
  8
BORDER
100
AcDbText
 10
87.9
 20
26.75
 30
0.0
 40
1.8
  1
DRAWN BY
 72
4
 11
87.9
 21
26.75
 31
0.0
100
AcDbText
 73
2
  0
TEXT
  5
46
330
17
100
AcDbEntity
  8
BORDER
100
AcDbText
 10
87.9
 20
33.5
 30
0.0
 40
2.5
  1
B. Lutzer
 72
4
 11
87.9
 21
33.5
 31
0.0
100
AcDbText
 73
2
  0
TEXT
  5
47
330
17
100
AcDbEntity
  8
BORDER
100
AcDbText
 10
114.50000000000001
 20
26.75
 30
0.0
 40
1.8
  1
APPROVED
 72
4
 11
114.50000000000001
 21
26.75
 31
0.0
100
AcDbText
 73
2
  0
TEXT
  5
48
330
17
100
AcDbEntity
  8
BORDER
100
AcDbText
 10
114.50000000000001
 20
33.5
 30
0.0
 40
2.5
  1
K. Harrison
 72
4
 11
114.50000000000001
 21
33.5
 31
0.0
100
AcDbText
 73
2
  0
TEXT
  5
49
330
17
100
AcDbEntity
  8
BORDER
100
AcDbText
 10
141.10000000000002
 20
26.75
 30
0.0
 40
1.8
  1
DATE
 72
4
 11
141.10000000000002
 21
26.75
 31
0.0
100
AcDbText
 73
2
  0
TEXT
  5
4A
330
17
100
AcDbEntity
  8
BORDER
100
AcDbText
 10
141.10000000000002
 20
33.5
 30
0.0
 40
2.5
  1
2026-07-16
 72
4
 11
141.10000000000002
 21
33.5
 31
0.0
100
AcDbText
 73
2
  0
TEXT
  5
4B
330
17
100
AcDbEntity
  8
BORDER
100
AcDbText
 10
165.8
 20
26.75
 30
0.0
 40
1.8
  1
SCALE
 72
4
 11
165.8
 21
26.75
 31
0.0
100
AcDbText
 73
2
  0
TEXT
  5
4C
330
17
100
AcDbEntity
  8
BORDER
100
AcDbText
 10
165.8
 20
33.5
 30
0.0
 40
2.5
  1
10:1
 72
4
 11
165.8
 21
33.5
 31
0.0
100
AcDbText
 73
2
  0
TEXT
  5
4D
330
17
100
AcDbEntity
  8
BORDER
100
AcDbText
 10
182.90000000000003
 20
26.75
 30
0.0
 40
1.8
  1
SHEET
 72
4
 11
182.90000000000003
 21
26.75
 31
0.0
100
AcDbText
 73
2
  0
TEXT
  5
4E
330
17
100
AcDbEntity
  8
BORDER
100
AcDbText
 10
182.90000000000003
 20
33.5
 30
0.0
 40
2.5
  1
2 / 5
 72
4
 11
182.90000000000003
 21
33.5
 31
0.0
100
AcDbText
 73
2
  0
TEXT
  5
4F
330
17
100
AcDbEntity
  8
BORDER
100
AcDbText
 10
194.3
 20
26.75
 30
0.0
 40
1.8
  1
REV
 72
4
 11
194.3
 21
26.75
 31
0.0
100
AcDbText
 73
2
  0
TEXT
  5
50
330
17
100
AcDbEntity
  8
BORDER
100
AcDbText
 10
194.3
 20
33.5
 30
0.0
 40
2.5
  1
A
 72
4
 11
194.3
 21
33.5
 31
0.0
100
AcDbText
 73
2
  0
LINE
  5
51
330
17
100
AcDbEntity
  8
BORDER
100
AcDbLine
 10
124.0
 20
10.0
 30
0.0
 11
124.0
 21
23.0
 31
0.0
  0
TEXT
  5
52
330
17
100
AcDbEntity
  8
BORDER
100
AcDbText
 10
12.0
 20
21.5
 30
0.0
 40
1.8
  1
NOTES
100
AcDbText
 73
3
  0
TEXT
  5
53
330
17
100
AcDbEntity
  8
BORDER
100
AcDbText
 10
146.8
 20
21.5
 30
0.0
 40
1.8
  1
DIM. IN mm
 72
4
 11
146.8
 21
21.5
 31
0.0
100
AcDbText
 73
3
  0
TEXT
  5
54
330
17
100
AcDbEntity
  8
BORDER
100
AcDbText
 10
146.8
 20
17.7
 30
0.0
 40
1.8
  1
GENERAL TOL. PER ISO 10110-11
 72
4
 11
146.8
 21
17.7
 31
0.0
100
AcDbText
 73
1
  0
TEXT
  5
55
330
17
100
AcDbEntity
  8
BORDER
100
AcDbText
 10
146.8
 20
15.3
 30
0.0
 40
1.8
  1
Ø±0.10  CT±0.15  3/ 5  4/ 3′  5/ 2×0.063
 72
4
 11
146.8
 21
15.3
 31
0.0
100
AcDbText
 73
3
  0
CIRCLE
  5
56
330
17
100
AcDbEntity
  8
BORDER
100
AcDbCircle
 10
180.61400000000003
 20
16.5
 30
0.0
 40
3.6400000000000006
  0
CIRCLE
  5
57
330
17
100
AcDbEntity
  8
BORDER
100
AcDbCircle
 10
180.61400000000003
 20
16.5
 30
0.0
 40
2.184
  0
LWPOLYLINE
  5
58
330
17
100
AcDbEntity
  8
BORDER
100
AcDbPolyline
 90
4
 70
1
 10
186.074
 20
20.14
 10
192.626
 20
18.684
 10
192.626
 20
14.315999999999999
 10
186.074
 20
12.86
  0
LINE
  5
59
330
17
100
AcDbEntity
  8
AXIS
100
AcDbLine
 10
175.88200000000003
 20
16.5
 30
0.0
 11
194.446
 21
16.5
 31
0.0
  0
LWPOLYLINE
  5
5A
330
17
100
AcDbEntity
  8
TABLE
100
AcDbPolyline
 90
4
 70
1
 10
10.0
 20
38.0
 10
200.0
 20
38.0
 10
200.0
 20
110.0
 10
10.0
 20
110.0
  0
LINE
  5
5B
330
17
100
AcDbEntity
  8
TABLE
100
AcDbLine
 10
73.33333333333334
 20
38.0
 30
0.0
 11
73.33333333333334
 21
110.0
 31
0.0
  0
LINE
  5
5C
330
17
100
AcDbEntity
  8
TABLE
100
AcDbLine
 10
136.66666666666669
 20
38.0
 30
0.0
 11
136.66666666666669
 21
110.0
 31
0.0
  0
LINE
  5
5D
330
17
100
AcDbEntity
  8
TABLE
100
AcDbLine
 10
10.0
 20
103.0
 30
0.0
 11
200.0
 21
103.0
 31
0.0
  0
TEXT
  5
5E
330
17
100
AcDbEntity
  8
TABLE
100
AcDbText
 10
41.66666666666667
 20
106.5
 30
0.0
 40
2.0
  1
SURFACE 1 (FRONT)
 72
4
 11
41.66666666666667
 21
106.5
 31
0.0
100
AcDbText
 73
2
  0
TEXT
  5
5F
330
17
100
AcDbEntity
  8
TABLE
100
AcDbText
 10
12.0
 20
101.0
 30
0.0
 40
2.0
  1
R -28.000 CC
100
AcDbText
 73
3
  0
TEXT
  5
60
330
17
100
AcDbEntity
  8
TABLE
100
AcDbText
 10
12.0
 20
94.5
 30
0.0
 40
2.0
  1
Øₑ 11.70
100
AcDbText
 73
3
  0
TEXT
  5
61
330
17
100
AcDbEntity
  8
TABLE
100
AcDbText
 10
12.0
 20
88.0
 30
0.0
 40
2.0
  1
3/ (0.5); λ=546.1 nm
100
AcDbText
 73
3
  0
TEXT
  5
62
330
17
100
AcDbEntity
  8
TABLE
100
AcDbText
 10
12.0
 20
81.5
 30
0.0
 40
2.0
  1
4/ 1′
100
AcDbText
 73
3
  0
TEXT
  5
63
330
17
100
AcDbEntity
  8
TABLE
100
AcDbText
 10
12.0
 20
75.0
 30
0.0
 40
2.0
  1
5/ 2×0.04
100
AcDbText
 73
3
  0
TEXT
  5
64
330
17
100
AcDbEntity
  8
TABLE
100
AcDbText
 10
12.0
 20
68.5
 30
0.0
 40
2.0
  1
6/ —
100
AcDbText
 73
3
  0
TEXT
  5
65
330
17
100
AcDbEntity
  8
TABLE
100
AcDbText
 10
12.0
 20
62.0
 30
0.0
 40
2.0
  1

100
AcDbText
 73
3
  0
TEXT
  5
66
330
17
100
AcDbEntity
  8
TABLE
100
AcDbText
 10
12.0
 20
55.5
 30
0.0
 40
2.0
  1
13/ —
100
AcDbText
 73
3
  0
CIRCLE
  5
67
330
17
100
AcDbEntity
  8
TABLE
100
AcDbCircle
 10
13.5
 20
60.5
 30
0.0
 40
1.5
  0
TEXT
  5
68
330
17
100
AcDbEntity
  8
TABLE
100
AcDbText
 10
13.5
 20
60.5
 30
0.0
 40
2.0999999999999996
  1
λ
 72
4
 11
13.5
 21
60.5
 31
0.0
100
AcDbText
 73
2
  0
TEXT
  5
69
330
17
100
AcDbEntity
  8
TABLE
100
AcDbText
 10
16.0
 20
60.5
 30
0.0
 40
2.0
  1
7/ AR 400-700 nm, R<0.5%
100
AcDbText
 73
2
  0
TEXT
  5
6A
330
17
100
AcDbEntity
  8
TABLE
100
AcDbText
 10
168.33333333333334
 20
106.5
 30
0.0
 40
2.0
  1
SURFACE 2 (REAR)
 72
4
 11
168.33333333333334
 21
106.5
 31
0.0
100
AcDbText
 73
2
  0
TEXT
  5
6B
330
17
100
AcDbEntity
  8
TABLE
100
AcDbText
 10
138.66666666666669
 20
101.0
 30
0.0
 40
2.0
  1
R +26.000 CC
100
AcDbText
 73
3
  0
TEXT
  5
6C
330
17
100
AcDbEntity
  8
TABLE
100
AcDbText
 10
138.66666666666669
 20
94.5
 30
0.0
 40
2.0
  1
Øₑ 11.55
100
AcDbText
 73
3
  0
TEXT
  5
6D
330
17
100
AcDbEntity
  8
TABLE
100
AcDbText
 10
138.66666666666669
 20
88.0
 30
0.0
 40
2.0
  1
3/ (0.5); λ=546.1 nm
100
AcDbText
 73
3
  0
TEXT
  5
6E
330
17
100
AcDbEntity
  8
TABLE
100
AcDbText
 10
138.66666666666669
 20
81.5
 30
0.0
 40
2.0
  1
4/ 1′
100
AcDbText
 73
3
  0
TEXT
  5
6F
330
17
100
AcDbEntity
  8
TABLE
100
AcDbText
 10
138.66666666666669
 20
75.0
 30
0.0
 40
2.0
  1
5/ 2×0.04
100
AcDbText
 73
3
  0
TEXT
  5
70
330
17
100
AcDbEntity
  8
TABLE
100
AcDbText
 10
138.66666666666669
 20
68.5
 30
0.0
 40
2.0
  1
6/ —
100
AcDbText
 73
3
  0
TEXT
  5
71
330
17
100
AcDbEntity
  8
TABLE
100
AcDbText
 10
138.66666666666669
 20
62.0
 30
0.0
 40
2.0
  1

100
AcDbText
 73
3
  0
TEXT
  5
72
330
17
100
AcDbEntity
  8
TABLE
100
AcDbText
 10
138.66666666666669
 20
55.5
 30
0.0
 40
2.0
  1
13/ —
100
AcDbText
 73
3
  0
CIRCLE
  5
73
330
17
100
AcDbEntity
  8
TABLE
100
AcDbCircle
 10
140.16666666666669
 20
60.5
 30
0.0
 40
1.5
  0
TEXT
  5
74
330
17
100
AcDbEntity
  8
TABLE
100
AcDbText
 10
140.16666666666669
 20
60.5
 30
0.0
 40
2.0999999999999996
  1
λ
 72
4
 11
140.16666666666669
 21
60.5
 31
0.0
100
AcDbText
 73
2
  0
TEXT
  5
75
330
17
100
AcDbEntity
  8
TABLE
100
AcDbText
 10
142.66666666666669
 20
60.5
 30
0.0
 40
2.0
  1
7/ AR 400-700 nm, R<0.5%
100
AcDbText
 73
2
  0
TEXT
  5
76
330
17
100
AcDbEntity
  8
TABLE
100
AcDbText
 10
105.0
 20
106.5
 30
0.0
 40
2.0
  1
MATERIAL
 72
4
 11
105.0
 21
106.5
 31
0.0
100
AcDbText
 73
2
  0
TEXT
  5
77
330
17
100
AcDbEntity
  8
TABLE
100
AcDbText
 10
75.33333333333334
 20
101.0
 30
0.0
 40
2.0
  1
N-SF2
100
AcDbText
 73
3
  0
TEXT
  5
78
330
17
100
AcDbEntity
  8
TABLE
100
AcDbText
 10
75.33333333333334
 20
94.5
 30
0.0
 40
2.0
  1
nd = 1.6477  (587.6 nm)
100
AcDbText
 73
3
  0
TEXT
  5
79
330
17
100
AcDbEntity
  8
TABLE
100
AcDbText
 10
75.33333333333334
 20
88.0
 30
0.0
 40
2.0
  1
νd = 33.82  (587.6 nm)
100
AcDbText
 73
3
  0
TEXT
  5
7A
330
17
100
AcDbEntity
  8
TABLE
100
AcDbText
 10
75.33333333333334
 20
81.5
 30
0.0
 40
2.0
  1
0/ 10 nm/cm
100
AcDbText
 73
3
  0
TEXT
  5
7B
330
17
100
AcDbEntity
  8
TABLE
100
AcDbText
 10
75.33333333333334
 20
75.0
 30
0.0
 40
2.0
  1
1/ 1×0.16
100
AcDbText
 73
3
  0
TEXT
  5
7C
330
17
100
AcDbEntity
  8
TABLE
100
AcDbText
 10
75.33333333333334
 20
68.5
 30
0.0
 40
2.0
  1
2/ NH010; B
100
AcDbText
 73
3
  0
LINE
  5
7D
330
17
100
AcDbEntity
  8
AXIS
100
AcDbLine
 10
73.66086282586805
 20
198.5
 30
0.0
 11
136.33913717413193
 21
198.5
 31
0.0
  0
TEXT
  5
7E
330
17
100
AcDbEntity
  8
AXIS
100
AcDbText
 10
72.66086282586805
 20
198.5
 30
0.0
 40
2.0
  1
opt./rot. axis
 72
2
 11
72.66086282586805
 21
198.5
 31
0.0
100
AcDbText
 73
2
  0
LWPOLYLINE
  5
7F
330
17
100
AcDbEntity
  8
OUTLINE
370
50
100
AcDbPolyline
 90
402
 70
1
 10
88.66086282586805
 20
139.97902166036482
 10
88.78590425984697
 20
140.56717219644156
 10
88.90962646068658
 20
141.1553227325183
 10
89.03203121422897
 20
141.74347326859504
 10
89.15312028412913
 20
142.33162380467175
 10
89.27289541198917
 20
142.9197743407485
 10
89.39135831749023
 20
143.50792487682523
 10
89.50851069852257
 20
144.09607541290197
 10
89.62435423131355
 20
144.6842259489787
 10
89.73889057055366
 20
145.27237648505542
 10
89.85212134952059
 20
145.86052702113216
 10
89.96404818020129
 20
146.4486775572089
 10
90.0746726534123
 20
147.03682809328564
 10
90.183996338918
 20
147.62497862936237
 10
90.29202078554704
 20
148.2131291654391
 10
90.398747521307
 20
148.80127970151585
 10
90.50417805349714
 20
149.3894302375926
 10
90.60831386881934
 20
149.97758077366933
 10
90.71115643348732
 20
150.56573130974607
 10
90.812707193334
 20
151.15388184582278
 10
90.9129675739172
 20
151.74203238189952
 10
91.01193898062351
 20
152.33018291797626
 10
91.10962279877056
 20
152.918333454053
 10
91.20602039370748
 20
153.50648399012974
 10
91.30113311091377
 20
154.09463452620648
 10
91.39496227609646
 20
154.68278506228322
 10
91.48750919528565
 20
155.27093559835993
 10
91.57877515492842
 20
155.85908613443667
 10
91.6687614219811
 20
156.4472366705134
 10
91.75746924399998
 20
157.03538720659014
 10
91.84489984923044
 20
157.62353774266688
 10
91.9310544466945
 20
158.21168827874362
 10
92.01593422627681
 20
158.79983881482036
 10
92.09954035880915
 20
159.3879893508971
 10
92.18187399615331
 20
159.97613988697384
 10
92.26293627128268
 20
160.56429042305055
 10
92.342728298362
 20
161.1524409591273
 10
92.42125117282603
 20
161.74059149520403
 10
92.49850597145642
 20
162.32874203128077
 10
92.57449375245733
 20
162.9168925673575
 10
92.64921555552954
 20
163.50504310343425
 10
92.72267240194307
 20
164.09319363951096
 10
92.79486529460857
 20
164.6813441755877
 10
92.8657952181471
 20
165.26949471166444
 10
92.93546313895862
 20
165.85764524774117
 10
93.0038700052891
 20
166.4457957838179
 10
93.07101674729623
 20
167.03394631989465
 10
93.13690427711381
 20
167.6220968559714
 10
93.20153348891472
 20
168.21024739204813
 10
93.26490525897268
 20
168.79839792812484
 10
93.32702044572244
 20
169.38654846420158
 10
93.38787988981906
 20
169.97469900027832
 10
93.44748441419539
 20
170.56284953635506
 10
93.50583482411866
 20
171.1510000724318
 10
93.56293190724551
 20
171.73915060850854
 10
93.61877643367592
 20
172.32730114458528
 10
93.67336915600573
 20
172.91545168066202
 10
93.72671080937803
 20
173.50360221673873
 10
93.77880211153315
 20
174.09175275281547
 10
93.82964376285747
 20
174.6799032888922
 10
93.8792364464311
 20
175.26805382496894
 10
93.92758082807407
 20
175.85620436104568
 10
93.9746775563916
 20
176.44435489712242
 10
94.02052726281786
 20
177.03250543319916
 10
94.06513056165876
 20
177.6206559692759
 10
94.10848805013342
 20
178.2088065053526
 10
94.15060030841435
 20
178.79695704142935
 10
94.19146789966675
 20
179.3851075775061
 10
94.23109137008622
 20
179.97325811358283
 10
94.26947124893562
 20
180.56140864965957
 10
94.30660804858059
 20
181.1495591857363
 10
94.3425022645239
 20
181.73770972181305
 10
94.37715437543883
 20
182.32586025788976
 10
94.41056484320106
 20
182.9140107939665
 10
94.4427341129197
 20
183.50216133004324
 10
94.47366261296702
 20
184.09031186611998
 10
94.50335075500716
 20
184.67846240219671
 10
94.53179893402356
 20
185.26661293827345
 10
94.55900752834535
 20
185.8547634743502
 10
94.58497689967254
 20
186.44291401042693
 10
94.6097073931002
 20
187.03106454650367
 10
94.63319933714142
 20
187.61921508258038
 10
94.65545304374919
 20
188.20736561865712
 10
94.6764688083371
 20
188.79551615473386
 10
94.69624690979909
 20
189.3836666908106
 10
94.71478761052788
 20
189.97181722688734
 10
94.73209115643246
 20
190.55996776296408
 10
94.74815777695443
 20
191.14811829904082
 10
94.7629876850832
 20
191.73626883511756
 10
94.77658107737012
 20
192.32441937119427
 10
94.78893813394157
 20
192.912569907271
 10
94.80005901851082
 20
193.50072044334775
 10
94.80994387838889
 20
194.08887097942448
 10
94.81859284449442
 20
194.67702151550122
 10
94.82600603136225
 20
195.26517205157796
 10
94.83218353715098
 20
195.8533225876547
 10
94.83712544364953
 20
196.4414731237314
 10
94.84083181628256
 20
197.02962365980815
 10
94.84330270411476
 20
197.6177741958849
 10
94.84453813985414
 20
198.20592473196163
 10
94.84453813985414
 20
198.79407526803837
 10
94.84330270411476
 20
199.3822258041151
 10
94.84083181628256
 20
199.97037634019185
 10
94.83712544364953
 20
200.55852687626856
 10
94.83218353715098
 20
201.1466774123453
 10
94.82600603136225
 20
201.73482794842204
 10
94.81859284449442
 20
202.32297848449878
 10
94.80994387838889
 20
202.91112902057552
 10
94.80005901851082
 20
203.49927955665225
 10
94.78893813394157
 20
204.087430092729
 10
94.77658107737012
 20
204.6755806288057
 10
94.7629876850832
 20
205.26373116488244
 10
94.74815777695443
 20
205.85188170095918
 10
94.73209115643246
 20
206.44003223703592
 10
94.71478761052788
 20
207.02818277311266
 10
94.69624690979909
 20
207.6163333091894
 10
94.6764688083371
 20
208.20448384526614
 10
94.65545304374919
 20
208.79263438134288
 10
94.63319933714142
 20
209.3807849174196
 10
94.6097073931002
 20
209.96893545349633
 10
94.58497689967254
 20
210.55708598957307
 10
94.55900752834535
 20
211.1452365256498
 10
94.53179893402356
 20
211.73338706172655
 10
94.50335075500716
 20
212.32153759780329
 10
94.47366261296702
 20
212.90968813388002
 10
94.4427341129197
 20
213.49783866995676
 10
94.41056484320106
 20
214.0859892060335
 10
94.37715437543883
 20
214.6741397421102
 10
94.3425022645239
 20
215.26229027818695
 10
94.30660804858059
 20
215.8504408142637
 10
94.26947124893562
 20
216.43859135034043
 10
94.23109137008622
 20
217.02674188641717
 10
94.19146789966675
 20
217.6148924224939
 10
94.15060030841435
 20
218.20304295857065
 10
94.10848805013342
 20
218.7911934946474
 10
94.06513056165876
 20
219.3793440307241
 10
94.02052726281786
 20
219.96749456680084
 10
93.9746775563916
 20
220.55564510287758
 10
93.92758082807408
 20
221.14379563895432
 10
93.8792364464311
 20
221.73194617503106
 10
93.82964376285747
 20
222.3200967111078
 10
93.77880211153315
 20
222.90824724718453
 10
93.72671080937803
 20
223.49639778326127
 10
93.67336915600573
 20
224.08454831933798
 10
93.61877643367592
 20
224.67269885541472
 10
93.56293190724551
 20
225.26084939149146
 10
93.50583482411866
 20
225.8489999275682
 10
93.44748441419539
 20
226.43715046364494
 10
93.38787988981906
 20
227.02530099972165
 10
93.32702044572244
 20
227.6134515357984
 10
93.26490525897268
 20
228.20160207187513
 10
93.20153348891472
 20
228.78975260795187
 10
93.13690427711381
 20
229.3779031440286
 10
93.07101674729623
 20
229.96605368010535
 10
93.0038700052891
 20
230.5542042161821
 10
92.93546313895862
 20
231.14235475225883
 10
92.8657952181471
 20
231.73050528833556
 10
92.79486529460857
 20
232.31865582441228
 10
92.72267240194307
 20
232.906806360489
 10
92.64921555552954
 20
233.49495689656575
 10
92.57449375245733
 20
234.0831074326425
 10
92.49850597145642
 20
234.67125796871923
 10
92.42125117282603
 20
235.25940850479594
 10
92.342728298362
 20
235.84755904087268
 10
92.26293627128268
 20
236.43570957694942
 10
92.18187399615331
 20
237.02386011302616
 10
92.09954035880915
 20
237.6120106491029
 10
92.01593422627681
 20
238.20016118517964
 10
91.93105444669452
 20
238.78831172125638
 10
91.84489984923044
 20
239.37646225733312
 10
91.75746924399998
 20
239.96461279340986
 10
91.6687614219811
 20
240.5527633294866
 10
91.57877515492842
 20
241.1409138655633
 10
91.48750919528565
 20
241.72906440164004
 10
91.39496227609646
 20
242.31721493771678
 10
91.30113311091377
 20
242.90536547379352
 10
91.20602039370748
 20
243.49351600987026
 10
91.10962279877056
 20
244.081666545947
 10
91.01193898062353
 20
244.66981708202374
 10
90.9129675739172
 20
245.25796761810048
 10
90.812707193334
 20
245.84611815417722
 10
90.71115643348732
 20
246.43426869025396
 10
90.60831386881934
 20
247.02241922633067
 10
90.50417805349714
 20
247.6105697624074
 10
90.398747521307
 20
248.19872029848415
 10
90.29202078554704
 20
248.7868708345609
 10
90.183996338918
 20
249.37502137063763
 10
90.0746726534123
 20
249.96317190671436
 10
89.96404818020129
 20
250.5513224427911
 10
89.85212134952059
 20
251.13947297886784
 10
89.73889057055366
 20
251.72762351494458
 10
89.62435423131355
 20
252.3157740510213
 10
89.50851069852257
 20
252.90392458709803
 10
89.39135831749023
 20
253.49207512317477
 10
89.27289541198917
 20
254.0802256592515
 10
89.15312028412913
 20
254.66837619532825
 10
89.03203121422897
 20
255.25652673140496
 10
88.90962646068658
 20
255.8446772674817
 10
88.78590425984697
 20
256.43282780355844
 10
88.66086282586805
 20
257.0209783396352
 10
121.51625931642722
 20
257.0209783396352
 10
121.51625931642722
 20
257.0209783396352
 10
121.38111044581899
 20
256.43282780355844
 10
121.24739765219756
 20
255.8446772674817
 10
121.115118665171
 20
255.25652673140496
 10
120.98427124339946
 20
254.66837619532825
 10
120.85485317439345
 20
254.0802256592515
 10
120.72686227431473
 20
253.49207512317477
 10
120.60029638778084
 20
252.90392458709803
 10
120.47515338767266
 20
252.3157740510213
 10
120.35143117494513
 20
251.72762351494458
 10
120.22912767844099
 20
251.13947297886784
 10
120.10824085470757
 20
250.5513224427911
 10
119.98876868781684
 20
249.96317190671436
 10
119.87070918918802
 20
249.37502137063763
 10
119.75406039741343
 20
248.7868708345609
 10
119.63882037808716
 20
248.19872029848415
 10
119.52498722363653
 20
247.6105697624074
 10
119.41255905315641
 20
247.02241922633067
 10
119.30153401224646
 20
246.43426869025396
 10
119.19191027285083
 20
245.84611815417722
 10
119.08368603310089
 20
245.25796761810048
 10
118.97685951716042
 20
244.66981708202374
 10
118.87142897507368
 20
244.081666545947
 10
118.76739268261578
 20
243.49351600987026
 10
118.66474894114602
 20
242.90536547379352
 10
118.56349607746347
 20
242.31721493771678
 10
118.46363244366526
 20
241.72906440164004
 10
118.36515641700741
 20
241.1409138655633
 10
118.26806639976793
 20
240.5527633294866
 10
118.17236081911257
 20
239.96461279340986
 10
118.07803812696287
 20
239.37646225733312
 10
117.98509679986665
 20
238.78831172125638
 10
117.893535338871
 20
238.20016118517964
 10
117.80335226939724
 20
237.6120106491029
 10
117.7145461411186
 20
237.02386011302616
 10
117.62711552783996
 20
236.43570957694942
 10
117.54105902737999
 20
235.84755904087268
 10
117.45637526145532
 20
235.25940850479594
 10
117.37306287556729
 20
234.67125796871923
 10
117.29112053889048
 20
234.0831074326425
 10
117.2105469441638
 20
233.49495689656575
 10
117.13134080758346
 20
232.906806360489
 10
117.05350086869818
 20
232.31865582441228
 10
116.97702589030659
 20
231.73050528833556
 10
116.90191465835656
 20
231.14235475225883
 10
116.82816598184678
 20
230.5542042161821
 10
116.75577869273025
 20
229.96605368010535
 10
116.68475164581987
 20
229.3779031440286
 10
116.61508371869611
 20
228.78975260795187
 10
116.54677381161656
 20
228.20160207187513
 10
116.4798208474275
 20
227.6134515357984
 10
116.41422377147765
 20
227.02530099972165
 10
116.34998155153339
 20
226.43715046364494
 10
116.2870931776965
 20
225.8489999275682
 10
116.22555766232333
 20
225.26084939149146
 10
116.16537403994616
 20
224.67269885541472
 10
116.10654136719637
 20
224.08454831933798
 10
116.04905872272948
 20
223.49639778326127
 10
115.99292520715204
 20
222.90824724718453
 10
115.93813994295033
 20
222.3200967111078
 10
115.88470207442104
 20
221.73194617503106
 10
115.83261076760363
 20
221.14379563895432
 10
115.78186521021453
 20
220.55564510287758
 10
115.73246461158315
 20
219.96749456680084
 10
115.6844082025897
 20
219.3793440307241
 10
115.63769523560475
 20
218.7911934946474
 10
115.59232498443055
 20
218.20304295857065
 10
115.5482967442441
 20
217.6148924224939
 10
115.50560983154199
 20
217.02674188641717
 10
115.46426358408698
 20
216.43859135034043
 10
115.42425736085616
 20
215.8504408142637
 10
115.38559054199108
 20
215.26229027818695
 10
115.34826252874932
 20
214.6741397421102
 10
115.3122727434579
 20
214.0859892060335
 10
115.27762062946837
 20
213.49783866995676
 10
115.24430565111354
 20
212.90968813388002
 10
115.21232729366582
 20
212.32153759780329
 10
115.18168506329738
 20
211.73338706172655
 10
115.1523784870418
 20
211.1452365256498
 10
115.12440711275748
 20
210.55708598957307
 10
115.09777050909263
 20
209.96893545349633
 10
115.07246826545187
 20
209.3807849174196
 10
115.0484999919646
 20
208.79263438134288
 10
115.02586531945474
 20
208.20448384526614
 10
115.0045638994124
 20
207.6163333091894
 10
114.98459540396686
 20
207.02818277311266
 10
114.96595952586138
 20
206.44003223703592
 10
114.94865597842946
 20
205.85188170095918
 10
114.93268449557281
 20
205.26373116488244
 10
114.91804483174087
 20
204.6755806288057
 10
114.90473676191183
 20
204.087430092729
 10
114.89276008157546
 20
203.49927955665225
 10
114.88211460671727
 20
202.91112902057552
 10
114.87280017380442
 20
202.32297848449878
 10
114.86481663977312
 20
201.73482794842204
 10
114.85816388201769
 20
201.1466774123453
 10
114.85284179838109
 20
200.55852687626856
 10
114.8488503071471
 20
199.97037634019185
 10
114.84618934703404
 20
199.3822258041151
 10
114.84485887719008
 20
198.79407526803837
 10
114.84485887719008
 20
198.20592473196163
 10
114.84618934703404
 20
197.6177741958849
 10
114.8488503071471
 20
197.02962365980815
 10
114.85284179838109
 20
196.4414731237314
 10
114.85816388201769
 20
195.8533225876547
 10
114.86481663977312
 20
195.26517205157796
 10
114.87280017380442
 20
194.67702151550122
 10
114.88211460671727
 20
194.08887097942448
 10
114.89276008157546
 20
193.50072044334775
 10
114.90473676191183
 20
192.912569907271
 10
114.91804483174087
 20
192.32441937119427
 10
114.93268449557281
 20
191.73626883511756
 10
114.94865597842946
 20
191.14811829904082
 10
114.96595952586138
 20
190.55996776296408
 10
114.98459540396686
 20
189.97181722688734
 10
115.0045638994124
 20
189.3836666908106
 10
115.02586531945474
 20
188.79551615473386
 10
115.0484999919646
 20
188.20736561865712
 10
115.07246826545187
 20
187.61921508258038
 10
115.09777050909263
 20
187.03106454650367
 10
115.12440711275748
 20
186.44291401042693
 10
115.1523784870418
 20
185.8547634743502
 10
115.18168506329738
 20
185.26661293827345
 10
115.21232729366582
 20
184.67846240219671
 10
115.24430565111354
 20
184.09031186611998
 10
115.27762062946837
 20
183.50216133004324
 10
115.3122727434579
 20
182.9140107939665
 10
115.34826252874932
 20
182.32586025788976
 10
115.38559054199108
 20
181.73770972181305
 10
115.42425736085616
 20
181.1495591857363
 10
115.46426358408698
 20
180.56140864965957
 10
115.50560983154199
 20
179.97325811358283
 10
115.5482967442441
 20
179.3851075775061
 10
115.59232498443055
 20
178.79695704142935
 10
115.63769523560475
 20
178.2088065053526
 10
115.6844082025897
 20
177.6206559692759
 10
115.73246461158315
 20
177.03250543319916
 10
115.78186521021453
 20
176.44435489712242
 10
115.83261076760363
 20
175.85620436104568
 10
115.88470207442104
 20
175.26805382496894
 10
115.93813994295033
 20
174.6799032888922
 10
115.99292520715204
 20
174.09175275281547
 10
116.04905872272948
 20
173.50360221673873
 10
116.10654136719637
 20
172.91545168066202
 10
116.16537403994616
 20
172.32730114458528
 10
116.22555766232333
 20
171.73915060850854
 10
116.2870931776965
 20
171.1510000724318
 10
116.34998155153339
 20
170.56284953635506
 10
116.41422377147765
 20
169.97469900027832
 10
116.4798208474275
 20
169.38654846420158
 10
116.54677381161656
 20
168.79839792812484
 10
116.61508371869611
 20
168.21024739204813
 10
116.68475164581987
 20
167.6220968559714
 10
116.75577869273025
 20
167.03394631989465
 10
116.82816598184678
 20
166.4457957838179
 10
116.90191465835656
 20
165.85764524774117
 10
116.97702589030659
 20
165.26949471166444
 10
117.05350086869818
 20
164.6813441755877
 10
117.13134080758346
 20
164.09319363951096
 10
117.2105469441638
 20
163.50504310343425
 10
117.29112053889048
 20
162.9168925673575
 10
117.37306287556729
 20
162.32874203128077
 10
117.45637526145532
 20
161.74059149520403
 10
117.54105902737999
 20
161.1524409591273
 10
117.62711552783996
 20
160.56429042305055
 10
117.7145461411186
 20
159.97613988697384
 10
117.80335226939724
 20
159.3879893508971
 10
117.893535338871
 20
158.79983881482036
 10
117.98509679986665
 20
158.21168827874362
 10
118.07803812696287
 20
157.62353774266688
 10
118.17236081911257
 20
157.03538720659014
 10
118.26806639976793
 20
156.4472366705134
 10
118.36515641700741
 20
155.85908613443667
 10
118.46363244366528
 20
155.27093559835993
 10
118.56349607746347
 20
154.68278506228322
 10
118.66474894114602
 20
154.09463452620648
 10
118.76739268261578
 20
153.50648399012974
 10
118.87142897507368
 20
152.918333454053
 10
118.97685951716042
 20
152.33018291797626
 10
119.08368603310089
 20
151.74203238189952
 10
119.19191027285083
 20
151.15388184582278
 10
119.30153401224646
 20
150.56573130974607
 10
119.41255905315641
 20
149.97758077366933
 10
119.52498722363653
 20
149.3894302375926
 10
119.63882037808716
 20
148.80127970151585
 10
119.75406039741343
 20
148.2131291654391
 10
119.87070918918802
 20
147.62497862936237
 10
119.98876868781684
 20
147.03682809328564
 10
120.10824085470757
 20
146.4486775572089
 10
120.22912767844099
 20
145.86052702113216
 10
120.35143117494513
 20
145.27237648505542
 10
120.47515338767266
 20
144.6842259489787
 10
120.60029638778084
 20
144.09607541290197
 10
120.72686227431473
 20
143.50792487682523
 10
120.85485317439345
 20
142.9197743407485
 10
120.98427124339946
 20
142.33162380467175
 10
121.115118665171
 20
141.74347326859504
 10
121.24739765219756
 20
141.1553227325183
 10
121.38111044581899
 20
140.56717219644156
 10
121.51625931642722
 20
139.97902166036482
 10
88.66086282586805
 20
139.97902166036482
  0
HATCH
  5
80
330
17
100
AcDbEntity
  8
OUTLINE
 62
7
100
AcDbHatch
 10
0.0
 20
0.0
 30
0.0
210
0.0
220
0.0
230
1.0
  2
ANSI31
 70
0
 71
0
 91
1
 92
3
 72
0
 73
1
 93
402
 10
88.66086282586805
 20
139.97902166036482
 10
88.78590425984697
 20
140.56717219644156
 10
88.90962646068658
 20
141.1553227325183
 10
89.03203121422897
 20
141.74347326859504
 10
89.15312028412913
 20
142.33162380467175
 10
89.27289541198917
 20
142.9197743407485
 10
89.39135831749023
 20
143.50792487682523
 10
89.50851069852257
 20
144.09607541290197
 10
89.62435423131355
 20
144.6842259489787
 10
89.73889057055366
 20
145.27237648505542
 10
89.85212134952059
 20
145.86052702113216
 10
89.96404818020129
 20
146.4486775572089
 10
90.0746726534123
 20
147.03682809328564
 10
90.183996338918
 20
147.62497862936237
 10
90.29202078554704
 20
148.2131291654391
 10
90.398747521307
 20
148.80127970151585
 10
90.50417805349714
 20
149.3894302375926
 10
90.60831386881934
 20
149.97758077366933
 10
90.71115643348732
 20
150.56573130974607
 10
90.812707193334
 20
151.15388184582278
 10
90.9129675739172
 20
151.74203238189952
 10
91.01193898062351
 20
152.33018291797626
 10
91.10962279877056
 20
152.918333454053
 10
91.20602039370748
 20
153.50648399012974
 10
91.30113311091377
 20
154.09463452620648
 10
91.39496227609646
 20
154.68278506228322
 10
91.48750919528565
 20
155.27093559835993
 10
91.57877515492842
 20
155.85908613443667
 10
91.6687614219811
 20
156.4472366705134
 10
91.75746924399998
 20
157.03538720659014
 10
91.84489984923044
 20
157.62353774266688
 10
91.9310544466945
 20
158.21168827874362
 10
92.01593422627681
 20
158.79983881482036
 10
92.09954035880915
 20
159.3879893508971
 10
92.18187399615331
 20
159.97613988697384
 10
92.26293627128268
 20
160.56429042305055
 10
92.342728298362
 20
161.1524409591273
 10
92.42125117282603
 20
161.74059149520403
 10
92.49850597145642
 20
162.32874203128077
 10
92.57449375245733
 20
162.9168925673575
 10
92.64921555552954
 20
163.50504310343425
 10
92.72267240194307
 20
164.09319363951096
 10
92.79486529460857
 20
164.6813441755877
 10
92.8657952181471
 20
165.26949471166444
 10
92.93546313895862
 20
165.85764524774117
 10
93.0038700052891
 20
166.4457957838179
 10
93.07101674729623
 20
167.03394631989465
 10
93.13690427711381
 20
167.6220968559714
 10
93.20153348891472
 20
168.21024739204813
 10
93.26490525897268
 20
168.79839792812484
 10
93.32702044572244
 20
169.38654846420158
 10
93.38787988981906
 20
169.97469900027832
 10
93.44748441419539
 20
170.56284953635506
 10
93.50583482411866
 20
171.1510000724318
 10
93.56293190724551
 20
171.73915060850854
 10
93.61877643367592
 20
172.32730114458528
 10
93.67336915600573
 20
172.91545168066202
 10
93.72671080937803
 20
173.50360221673873
 10
93.77880211153315
 20
174.09175275281547
 10
93.82964376285747
 20
174.6799032888922
 10
93.8792364464311
 20
175.26805382496894
 10
93.92758082807407
 20
175.85620436104568
 10
93.9746775563916
 20
176.44435489712242
 10
94.02052726281786
 20
177.03250543319916
 10
94.06513056165876
 20
177.6206559692759
 10
94.10848805013342
 20
178.2088065053526
 10
94.15060030841435
 20
178.79695704142935
 10
94.19146789966675
 20
179.3851075775061
 10
94.23109137008622
 20
179.97325811358283
 10
94.26947124893562
 20
180.56140864965957
 10
94.30660804858059
 20
181.1495591857363
 10
94.3425022645239
 20
181.73770972181305
 10
94.37715437543883
 20
182.32586025788976
 10
94.41056484320106
 20
182.9140107939665
 10
94.4427341129197
 20
183.50216133004324
 10
94.47366261296702
 20
184.09031186611998
 10
94.50335075500716
 20
184.67846240219671
 10
94.53179893402356
 20
185.26661293827345
 10
94.55900752834535
 20
185.8547634743502
 10
94.58497689967254
 20
186.44291401042693
 10
94.6097073931002
 20
187.03106454650367
 10
94.63319933714142
 20
187.61921508258038
 10
94.65545304374919
 20
188.20736561865712
 10
94.6764688083371
 20
188.79551615473386
 10
94.69624690979909
 20
189.3836666908106
 10
94.71478761052788
 20
189.97181722688734
 10
94.73209115643246
 20
190.55996776296408
 10
94.74815777695443
 20
191.14811829904082
 10
94.7629876850832
 20
191.73626883511756
 10
94.77658107737012
 20
192.32441937119427
 10
94.78893813394157
 20
192.912569907271
 10
94.80005901851082
 20
193.50072044334775
 10
94.80994387838889
 20
194.08887097942448
 10
94.81859284449442
 20
194.67702151550122
 10
94.82600603136225
 20
195.26517205157796
 10
94.83218353715098
 20
195.8533225876547
 10
94.83712544364953
 20
196.4414731237314
 10
94.84083181628256
 20
197.02962365980815
 10
94.84330270411476
 20
197.6177741958849
 10
94.84453813985414
 20
198.20592473196163
 10
94.84453813985414
 20
198.79407526803837
 10
94.84330270411476
 20
199.3822258041151
 10
94.84083181628256
 20
199.97037634019185
 10
94.83712544364953
 20
200.55852687626856
 10
94.83218353715098
 20
201.1466774123453
 10
94.82600603136225
 20
201.73482794842204
 10
94.81859284449442
 20
202.32297848449878
 10
94.80994387838889
 20
202.91112902057552
 10
94.80005901851082
 20
203.49927955665225
 10
94.78893813394157
 20
204.087430092729
 10
94.77658107737012
 20
204.6755806288057
 10
94.7629876850832
 20
205.26373116488244
 10
94.74815777695443
 20
205.85188170095918
 10
94.73209115643246
 20
206.44003223703592
 10
94.71478761052788
 20
207.02818277311266
 10
94.69624690979909
 20
207.6163333091894
 10
94.6764688083371
 20
208.20448384526614
 10
94.65545304374919
 20
208.79263438134288
 10
94.63319933714142
 20
209.3807849174196
 10
94.6097073931002
 20
209.96893545349633
 10
94.58497689967254
 20
210.55708598957307
 10
94.55900752834535
 20
211.1452365256498
 10
94.53179893402356
 20
211.73338706172655
 10
94.50335075500716
 20
212.32153759780329
 10
94.47366261296702
 20
212.90968813388002
 10
94.4427341129197
 20
213.49783866995676
 10
94.41056484320106
 20
214.0859892060335
 10
94.37715437543883
 20
214.6741397421102
 10
94.3425022645239
 20
215.26229027818695
 10
94.30660804858059
 20
215.8504408142637
 10
94.26947124893562
 20
216.43859135034043
 10
94.23109137008622
 20
217.02674188641717
 10
94.19146789966675
 20
217.6148924224939
 10
94.15060030841435
 20
218.20304295857065
 10
94.10848805013342
 20
218.7911934946474
 10
94.06513056165876
 20
219.3793440307241
 10
94.02052726281786
 20
219.96749456680084
 10
93.9746775563916
 20
220.55564510287758
 10
93.92758082807408
 20
221.14379563895432
 10
93.8792364464311
 20
221.73194617503106
 10
93.82964376285747
 20
222.3200967111078
 10
93.77880211153315
 20
222.90824724718453
 10
93.72671080937803
 20
223.49639778326127
 10
93.67336915600573
 20
224.08454831933798
 10
93.61877643367592
 20
224.67269885541472
 10
93.56293190724551
 20
225.26084939149146
 10
93.50583482411866
 20
225.8489999275682
 10
93.44748441419539
 20
226.43715046364494
 10
93.38787988981906
 20
227.02530099972165
 10
93.32702044572244
 20
227.6134515357984
 10
93.26490525897268
 20
228.20160207187513
 10
93.20153348891472
 20
228.78975260795187
 10
93.13690427711381
 20
229.3779031440286
 10
93.07101674729623
 20
229.96605368010535
 10
93.0038700052891
 20
230.5542042161821
 10
92.93546313895862
 20
231.14235475225883
 10
92.8657952181471
 20
231.73050528833556
 10
92.79486529460857
 20
232.31865582441228
 10
92.72267240194307
 20
232.906806360489
 10
92.64921555552954
 20
233.49495689656575
 10
92.57449375245733
 20
234.0831074326425
 10
92.49850597145642
 20
234.67125796871923
 10
92.42125117282603
 20
235.25940850479594
 10
92.342728298362
 20
235.84755904087268
 10
92.26293627128268
 20
236.43570957694942
 10
92.18187399615331
 20
237.02386011302616
 10
92.09954035880915
 20
237.6120106491029
 10
92.01593422627681
 20
238.20016118517964
 10
91.93105444669452
 20
238.78831172125638
 10
91.84489984923044
 20
239.37646225733312
 10
91.75746924399998
 20
239.96461279340986
 10
91.6687614219811
 20
240.5527633294866
 10
91.57877515492842
 20
241.1409138655633
 10
91.48750919528565
 20
241.72906440164004
 10
91.39496227609646
 20
242.31721493771678
 10
91.30113311091377
 20
242.90536547379352
 10
91.20602039370748
 20
243.49351600987026
 10
91.10962279877056
 20
244.081666545947
 10
91.01193898062353
 20
244.66981708202374
 10
90.9129675739172
 20
245.25796761810048
 10
90.812707193334
 20
245.84611815417722
 10
90.71115643348732
 20
246.43426869025396
 10
90.60831386881934
 20
247.02241922633067
 10
90.50417805349714
 20
247.6105697624074
 10
90.398747521307
 20
248.19872029848415
 10
90.29202078554704
 20
248.7868708345609
 10
90.183996338918
 20
249.37502137063763
 10
90.0746726534123
 20
249.96317190671436
 10
89.96404818020129
 20
250.5513224427911
 10
89.85212134952059
 20
251.13947297886784
 10
89.73889057055366
 20
251.72762351494458
 10
89.62435423131355
 20
252.3157740510213
 10
89.50851069852257
 20
252.90392458709803
 10
89.39135831749023
 20
253.49207512317477
 10
89.27289541198917
 20
254.0802256592515
 10
89.15312028412913
 20
254.66837619532825
 10
89.03203121422897
 20
255.25652673140496
 10
88.90962646068658
 20
255.8446772674817
 10
88.78590425984697
 20
256.43282780355844
 10
88.66086282586805
 20
257.0209783396352
 10
121.51625931642722
 20
257.0209783396352
 10
121.51625931642722
 20
257.0209783396352
 10
121.38111044581899
 20
256.43282780355844
 10
121.24739765219756
 20
255.8446772674817
 10
121.115118665171
 20
255.25652673140496
 10
120.98427124339946
 20
254.66837619532825
 10
120.85485317439345
 20
254.0802256592515
 10
120.72686227431473
 20
253.49207512317477
 10
120.60029638778084
 20
252.90392458709803
 10
120.47515338767266
 20
252.3157740510213
 10
120.35143117494513
 20
251.72762351494458
 10
120.22912767844099
 20
251.13947297886784
 10
120.10824085470757
 20
250.5513224427911
 10
119.98876868781684
 20
249.96317190671436
 10
119.87070918918802
 20
249.37502137063763
 10
119.75406039741343
 20
248.7868708345609
 10
119.63882037808716
 20
248.19872029848415
 10
119.52498722363653
 20
247.6105697624074
 10
119.41255905315641
 20
247.02241922633067
 10
119.30153401224646
 20
246.43426869025396
 10
119.19191027285083
 20
245.84611815417722
 10
119.08368603310089
 20
245.25796761810048
 10
118.97685951716042
 20
244.66981708202374
 10
118.87142897507368
 20
244.081666545947
 10
118.76739268261578
 20
243.49351600987026
 10
118.66474894114602
 20
242.90536547379352
 10
118.56349607746347
 20
242.31721493771678
 10
118.46363244366526
 20
241.72906440164004
 10
118.36515641700741
 20
241.1409138655633
 10
118.26806639976793
 20
240.5527633294866
 10
118.17236081911257
 20
239.96461279340986
 10
118.07803812696287
 20
239.37646225733312
 10
117.98509679986665
 20
238.78831172125638
 10
117.893535338871
 20
238.20016118517964
 10
117.80335226939724
 20
237.6120106491029
 10
117.7145461411186
 20
237.02386011302616
 10
117.62711552783996
 20
236.43570957694942
 10
117.54105902737999
 20
235.84755904087268
 10
117.45637526145532
 20
235.25940850479594
 10
117.37306287556729
 20
234.67125796871923
 10
117.29112053889048
 20
234.0831074326425
 10
117.2105469441638
 20
233.49495689656575
 10
117.13134080758346
 20
232.906806360489
 10
117.05350086869818
 20
232.31865582441228
 10
116.97702589030659
 20
231.73050528833556
 10
116.90191465835656
 20
231.14235475225883
 10
116.82816598184678
 20
230.5542042161821
 10
116.75577869273025
 20
229.96605368010535
 10
116.68475164581987
 20
229.3779031440286
 10
116.61508371869611
 20
228.78975260795187
 10
116.54677381161656
 20
228.20160207187513
 10
116.4798208474275
 20
227.6134515357984
 10
116.41422377147765
 20
227.02530099972165
 10
116.34998155153339
 20
226.43715046364494
 10
116.2870931776965
 20
225.8489999275682
 10
116.22555766232333
 20
225.26084939149146
 10
116.16537403994616
 20
224.67269885541472
 10
116.10654136719637
 20
224.08454831933798
 10
116.04905872272948
 20
223.49639778326127
 10
115.99292520715204
 20
222.90824724718453
 10
115.93813994295033
 20
222.3200967111078
 10
115.88470207442104
 20
221.73194617503106
 10
115.83261076760363
 20
221.14379563895432
 10
115.78186521021453
 20
220.55564510287758
 10
115.73246461158315
 20
219.96749456680084
 10
115.6844082025897
 20
219.3793440307241
 10
115.63769523560475
 20
218.7911934946474
 10
115.59232498443055
 20
218.20304295857065
 10
115.5482967442441
 20
217.6148924224939
 10
115.50560983154199
 20
217.02674188641717
 10
115.46426358408698
 20
216.43859135034043
 10
115.42425736085616
 20
215.8504408142637
 10
115.38559054199108
 20
215.26229027818695
 10
115.34826252874932
 20
214.6741397421102
 10
115.3122727434579
 20
214.0859892060335
 10
115.27762062946837
 20
213.49783866995676
 10
115.24430565111354
 20
212.90968813388002
 10
115.21232729366582
 20
212.32153759780329
 10
115.18168506329738
 20
211.73338706172655
 10
115.1523784870418
 20
211.1452365256498
 10
115.12440711275748
 20
210.55708598957307
 10
115.09777050909263
 20
209.96893545349633
 10
115.07246826545187
 20
209.3807849174196
 10
115.0484999919646
 20
208.79263438134288
 10
115.02586531945474
 20
208.20448384526614
 10
115.0045638994124
 20
207.6163333091894
 10
114.98459540396686
 20
207.02818277311266
 10
114.96595952586138
 20
206.44003223703592
 10
114.94865597842946
 20
205.85188170095918
 10
114.93268449557281
 20
205.26373116488244
 10
114.91804483174087
 20
204.6755806288057
 10
114.90473676191183
 20
204.087430092729
 10
114.89276008157546
 20
203.49927955665225
 10
114.88211460671727
 20
202.91112902057552
 10
114.87280017380442
 20
202.32297848449878
 10
114.86481663977312
 20
201.73482794842204
 10
114.85816388201769
 20
201.1466774123453
 10
114.85284179838109
 20
200.55852687626856
 10
114.8488503071471
 20
199.97037634019185
 10
114.84618934703404
 20
199.3822258041151
 10
114.84485887719008
 20
198.79407526803837
 10
114.84485887719008
 20
198.20592473196163
 10
114.84618934703404
 20
197.6177741958849
 10
114.8488503071471
 20
197.02962365980815
 10
114.85284179838109
 20
196.4414731237314
 10
114.85816388201769
 20
195.8533225876547
 10
114.86481663977312
 20
195.26517205157796
 10
114.87280017380442
 20
194.67702151550122
 10
114.88211460671727
 20
194.08887097942448
 10
114.89276008157546
 20
193.50072044334775
 10
114.90473676191183
 20
192.912569907271
 10
114.91804483174087
 20
192.32441937119427
 10
114.93268449557281
 20
191.73626883511756
 10
114.94865597842946
 20
191.14811829904082
 10
114.96595952586138
 20
190.55996776296408
 10
114.98459540396686
 20
189.97181722688734
 10
115.0045638994124
 20
189.3836666908106
 10
115.02586531945474
 20
188.79551615473386
 10
115.0484999919646
 20
188.20736561865712
 10
115.07246826545187
 20
187.61921508258038
 10
115.09777050909263
 20
187.03106454650367
 10
115.12440711275748
 20
186.44291401042693
 10
115.1523784870418
 20
185.8547634743502
 10
115.18168506329738
 20
185.26661293827345
 10
115.21232729366582
 20
184.67846240219671
 10
115.24430565111354
 20
184.09031186611998
 10
115.27762062946837
 20
183.50216133004324
 10
115.3122727434579
 20
182.9140107939665
 10
115.34826252874932
 20
182.32586025788976
 10
115.38559054199108
 20
181.73770972181305
 10
115.42425736085616
 20
181.1495591857363
 10
115.46426358408698
 20
180.56140864965957
 10
115.50560983154199
 20
179.97325811358283
 10
115.5482967442441
 20
179.3851075775061
 10
115.59232498443055
 20
178.79695704142935
 10
115.63769523560475
 20
178.2088065053526
 10
115.6844082025897
 20
177.6206559692759
 10
115.73246461158315
 20
177.03250543319916
 10
115.78186521021453
 20
176.44435489712242
 10
115.83261076760363
 20
175.85620436104568
 10
115.88470207442104
 20
175.26805382496894
 10
115.93813994295033
 20
174.6799032888922
 10
115.99292520715204
 20
174.09175275281547
 10
116.04905872272948
 20
173.50360221673873
 10
116.10654136719637
 20
172.91545168066202
 10
116.16537403994616
 20
172.32730114458528
 10
116.22555766232333
 20
171.73915060850854
 10
116.2870931776965
 20
171.1510000724318
 10
116.34998155153339
 20
170.56284953635506
 10
116.41422377147765
 20
169.97469900027832
 10
116.4798208474275
 20
169.38654846420158
 10
116.54677381161656
 20
168.79839792812484
 10
116.61508371869611
 20
168.21024739204813
 10
116.68475164581987
 20
167.6220968559714
 10
116.75577869273025
 20
167.03394631989465
 10
116.82816598184678
 20
166.4457957838179
 10
116.90191465835656
 20
165.85764524774117
 10
116.97702589030659
 20
165.26949471166444
 10
117.05350086869818
 20
164.6813441755877
 10
117.13134080758346
 20
164.09319363951096
 10
117.2105469441638
 20
163.50504310343425
 10
117.29112053889048
 20
162.9168925673575
 10
117.37306287556729
 20
162.32874203128077
 10
117.45637526145532
 20
161.74059149520403
 10
117.54105902737999
 20
161.1524409591273
 10
117.62711552783996
 20
160.56429042305055
 10
117.7145461411186
 20
159.97613988697384
 10
117.80335226939724
 20
159.3879893508971
 10
117.893535338871
 20
158.79983881482036
 10
117.98509679986665
 20
158.21168827874362
 10
118.07803812696287
 20
157.62353774266688
 10
118.17236081911257
 20
157.03538720659014
 10
118.26806639976793
 20
156.4472366705134
 10
118.36515641700741
 20
155.85908613443667
 10
118.46363244366528
 20
155.27093559835993
 10
118.56349607746347
 20
154.68278506228322
 10
118.66474894114602
 20
154.09463452620648
 10
118.76739268261578
 20
153.50648399012974
 10
118.87142897507368
 20
152.918333454053
 10
118.97685951716042
 20
152.33018291797626
 10
119.08368603310089
 20
151.74203238189952
 10
119.19191027285083
 20
151.15388184582278
 10
119.30153401224646
 20
150.56573130974607
 10
119.41255905315641
 20
149.97758077366933
 10
119.52498722363653
 20
149.3894302375926
 10
119.63882037808716
 20
148.80127970151585
 10
119.75406039741343
 20
148.2131291654391
 10
119.87070918918802
 20
147.62497862936237
 10
119.98876868781684
 20
147.03682809328564
 10
120.10824085470757
 20
146.4486775572089
 10
120.22912767844099
 20
145.86052702113216
 10
120.35143117494513
 20
145.27237648505542
 10
120.47515338767266
 20
144.6842259489787
 10
120.60029638778084
 20
144.09607541290197
 10
120.72686227431473
 20
143.50792487682523
 10
120.85485317439345
 20
142.9197743407485
 10
120.98427124339946
 20
142.33162380467175
 10
121.115118665171
 20
141.74347326859504
 10
121.24739765219756
 20
141.1553227325183
 10
121.38111044581899
 20
140.56717219644156
 10
121.51625931642722
 20
139.97902166036482
 10
88.66086282586805
 20
139.97902166036482
 97
0
 75
1
 76
1
 52
0.0
 41
1.0
 77
0
 78
1
 53
45.0
 43
0.0
 44
0.0
 45
-2.2450640303
 46
2.2450640303
 79
0
 98
0
  0
LINE
  5
81
330
17
100
AcDbEntity
  8
DIMS
100
AcDbLine
 10
94.84469256893829
 20
138.47902166036482
 30
0.0
 11
94.84469256893829
 21
131.97902166036482
 31
0.0
  0
LINE
  5
82
330
17
100
AcDbEntity
  8
DIMS
100
AcDbLine
 10
114.84469256893829
 20
138.47902166036482
 30
0.0
 11
114.84469256893829
 21
131.97902166036482
 31
0.0
  0
LINE
  5
83
330
17
100
AcDbEntity
  8
DIMS
100
AcDbLine
 10
94.84469256893829
 20
131.97902166036482
 30
0.0
 11
114.84469256893829
 21
131.97902166036482
 31
0.0
  0
SOLID
  5
84
330
17
100
AcDbEntity
  8
DIMS
100
AcDbTrace
 10
94.84469256893829
 20
131.97902166036482
 30
0.0
 11
97.34469256893829
 21
131.1790216603648
 31
0.0
 12
97.34469256893829
 22
132.77902166036483
 32
0.0
 13
97.34469256893829
 23
132.77902166036483
 33
0.0
  0
SOLID
  5
85
330
17
100
AcDbEntity
  8
DIMS
100
AcDbTrace
 10
114.84469256893829
 20
131.97902166036482
 30
0.0
 11
112.34469256893829
 21
132.77902166036483
 31
0.0
 12
112.34469256893829
 22
131.1790216603648
 32
0.0
 13
112.34469256893829
 23
131.1790216603648
 33
0.0
  0
TEXT
  5
86
330
17
100
AcDbEntity
  8
DIMS
100
AcDbText
 10
104.84469256893829
 20
127.97902166036482
 30
0.0
 40
2.5
  1
2.00
 72
4
 11
104.84469256893829
 21
127.97902166036482
 31
0.0
100
AcDbText
 73
3
  0
LINE
  5
87
330
17
100
AcDbEntity
  8
DIMS
100
AcDbLine
 10
121.51625931642722
 20
257.0209783396352
 30
0.0
 11
133.33913717413193
 21
257.0209783396352
 31
0.0
  0
LINE
  5
88
330
17
100
AcDbEntity
  8
DIMS
100
AcDbLine
 10
88.66086282586805
 20
139.97902166036482
 30
0.0
 11
133.33913717413193
 21
139.97902166036482
 31
0.0
  0
LINE
  5
89
330
17
100
AcDbEntity
  8
DIMS
100
AcDbLine
 10
131.33913717413193
 20
257.0209783396352
 30
0.0
 11
131.33913717413193
 21
139.97902166036482
 31
0.0
  0
SOLID
  5
8A
330
17
100
AcDbEntity
  8
DIMS
100
AcDbTrace
 10
131.33913717413193
 20
257.0209783396352
 30
0.0
 11
130.53913717413192
 21
254.52097833963518
 31
0.0
 12
132.13913717413195
 22
254.52097833963518
 32
0.0
 13
132.13913717413195
 23
254.52097833963518
 33
0.0
  0
SOLID
  5
8B
330
17
100
AcDbEntity
  8
DIMS
100
AcDbTrace
 10
131.33913717413193
 20
139.97902166036482
 30
0.0
 11
132.13913717413195
 21
142.47902166036482
 31
0.0
 12
130.53913717413192
 22
142.47902166036482
 32
0.0
 13
130.53913717413192
 23
142.47902166036482
 33
0.0
  0
TEXT
  5
8C
330
17
100
AcDbEntity
  8
DIMS
100
AcDbText
 10
134.33913717413193
 20
198.5
 30
0.0
 40
2.5
  1
Ø 11.70
100
AcDbText
 73
2
  0
LINE
  5
8D
330
17
100
AcDbEntity
  8
DIMS
100
AcDbLine
 10
88.66086282586805
 20
258.5209783396352
 30
0.0
 11
88.66086282586805
 21
265.0209783396352
 31
0.0
  0
LINE
  5
8E
330
17
100
AcDbEntity
  8
DIMS
100
AcDbLine
 10
121.51625931642722
 20
258.5209783396352
 30
0.0
 11
121.51625931642722
 21
265.0209783396352
 31
0.0
  0
LINE
  5
8F
330
17
100
AcDbEntity
  8
DIMS
100
AcDbLine
 10
88.66086282586805
 20
265.0209783396352
 30
0.0
 11
121.51625931642722
 21
265.0209783396352
 31
0.0
  0
SOLID
  5
90
330
17
100
AcDbEntity
  8
DIMS
100
AcDbTrace
 10
88.66086282586805
 20
265.0209783396352
 30
0.0
 11
91.16086282586805
 21
264.22097833963517
 31
0.0
 12
91.16086282586805
 22
265.8209783396352
 32
0.0
 13
91.16086282586805
 23
265.8209783396352
 33
0.0
  0
SOLID
  5
91
330
17
100
AcDbEntity
  8
DIMS
100
AcDbTrace
 10
121.51625931642722
 20
265.0209783396352
 30
0.0
 11
119.01625931642722
 21
265.8209783396352
 31
0.0
 12
119.01625931642722
 22
264.22097833963517
 32
0.0
 13
119.01625931642722
 23
264.22097833963517
 33
0.0
  0
TEXT
  5
92
330
17
100
AcDbEntity
  8
DIMS
100
AcDbText
 10
105.08856107114764
 20
267.0209783396352
 30
0.0
 40
2.5
  1
(3.29)
 72
4
 11
105.08856107114764
 21
267.0209783396352
 31
0.0
100
AcDbText
 73
1
  0
LINE
  5
93
330
17
100
AcDbEntity
  8
DIMS
100
AcDbLine
 10
88.66086282586805
 20
257.0209783396352
 30
0.0
 11
85.66086282586805
 21
257.0209783396352
 31
0.0
  0
LINE
  5
94
330
17
100
AcDbEntity
  8
DIMS
100
AcDbLine
 10
88.66086282586805
 20
139.97902166036482
 30
0.0
 11
85.66086282586805
 21
139.97902166036482
 31
0.0
  0
LINE
  5
95
330
17
100
AcDbEntity
  8
DIMS
100
AcDbLine
 10
85.66086282586805
 20
139.97902166036482
 30
0.0
 11
85.66086282586805
 21
257.0209783396352
 31
0.0
  0
TEXT
  5
96
330
17
100
AcDbEntity
  8
DIMS
100
AcDbText
 10
84.66086282586805
 20
198.5
 30
0.0
 40
2.0
  1
Øₑ 11.70
 72
2
 11
84.66086282586805
 21
198.5
 31
0.0
100
AcDbText
 73
2
  0
LINE
  5
97
330
17
100
AcDbEntity
  8
DIMS
100
AcDbLine
 10
121.33913717413193
 20
256.2488821014811
 30
0.0
 11
124.33913717413193
 21
256.2488821014811
 31
0.0
  0
LINE
  5
98
330
17
100
AcDbEntity
  8
DIMS
100
AcDbLine
 10
121.33913717413193
 20
140.75111789851886
 30
0.0
 11
124.33913717413193
 21
140.75111789851886
 31
0.0
  0
LINE
  5
99
330
17
100
AcDbEntity
  8
DIMS
100
AcDbLine
 10
124.33913717413193
 20
140.75111789851886
 30
0.0
 11
124.33913717413193
 21
256.2488821014811
 31
0.0
  0
TEXT
  5
9A
330
17
100
AcDbEntity
  8
DIMS
100
AcDbText
 10
125.33913717413193
 20
198.5
 30
0.0
 40
2.0
  1
Øₑ 11.55
 11
125.33913717413193
 21
198.5
 31
0.0
100
AcDbText
 73
2
  0
LWPOLYLINE
  5
9B
330
17
100
AcDbEntity
  8
CALLOUT
100
AcDbPolyline
 90
3
 70
1
 10
90.39078799679811
 20
248.2428315886899
 10
87.00978227838391
 20
245.38231248016262
 10
86.22300290459815
 20
249.7406084895747
  0
LINE
  5
9C
330
17
100
AcDbEntity
  8
CALLOUT
100
AcDbLine
 10
90.39078799679811
 20
248.2428315886899
 30
0.0
 11
82.01065354734232
 21
251.24037348057414
 31
0.0
  0
LINE
  5
9D
330
17
100
AcDbEntity
  8
CALLOUT
100
AcDbLine
 10
82.04850447811134
 20
251.1946791501728
 30
0.0
 11
81.5641078860649
 21
253.87795200204042
 31
0.0
  0
TEXT
  5
9E
330
17
100
AcDbEntity
  8
CALLOUT
100
AcDbText
 10
81.29762843112549
 20
255.3540917989754
 30
0.0
 40
2.0
  1
S1
 72
4
 11
81.29762843112549
 21
255.3540917989754
 31
0.0
100
AcDbText
 73
2
  0
LWPOLYLINE
  5
9F
330
17
100
AcDbEntity
  8
CALLOUT
100
AcDbPolyline
 90
3
 70
1
 10
117.64231665205908
 20
236.53863592076289
 10
121.76041978423336
 20
238.16805171514306
 10
121.11248382935096
 20
233.78696225165996
  0
LINE
  5
A0
330
17
100
AcDbEntity
  8
CALLOUT
100
AcDbLine
 10
117.64231665205908
 20
236.53863592076289
 30
0.0
 11
124.62424061052042
 21
231.01915690342616
 31
0.0
  0
LINE
  5
A1
330
17
100
AcDbEntity
  8
CALLOUT
100
AcDbLine
 10
124.60298559219572
 20
231.0745544574058
 30
0.0
 11
124.2040707516869
 21
228.3772483557596
 31
0.0
  0
TEXT
  5
A2
330
17
100
AcDbEntity
  8
CALLOUT
100
AcDbText
 10
123.98461708291326
 20
226.89338849470067
 30
0.0
 40
2.0
  1
S2
 72
4
 11
123.98461708291326
 21
226.89338849470067
 31
0.0
100
AcDbText
 73
2
  0
ENDSEC
  0
SECTION
  2
OBJECTS
  0
DICTIONARY
  5
A
330
0
100
AcDbDictionary
281
1
  3
ACAD_COLOR
350
B
  3
ACAD_GROUP
350
C
  3
ACAD_LAYOUT
350
D
  3
ACAD_MATERIAL
350
E
  3
ACAD_MLEADERSTYLE
350
F
  3
ACAD_MLINESTYLE
350
10
  3
ACAD_PLOTSETTINGS
350
11
  3
ACAD_PLOTSTYLENAME
350
12
  3
ACAD_SCALELIST
350
14
  3
ACAD_TABLESTYLE
350
15
  3
ACAD_VISUALSTYLE
350
16
  3
EZDXF_META
350
2D
  0
DICTIONARY
  5
B
330
A
100
AcDbDictionary
281
1
  0
DICTIONARY
  5
C
330
A
100
AcDbDictionary
281
1
  0
DICTIONARY
  5
D
330
A
100
AcDbDictionary
281
1
  3
Model
350
1A
  3
Layout1
350
1E
  0
DICTIONARY
  5
E
330
A
100
AcDbDictionary
281
1
  3
ByBlock
350
1F
  3
ByLayer
350
20
  3
Global
350
21
  0
DICTIONARY
  5
F
330
A
100
AcDbDictionary
281
1
  3
Standard
350
2C
  0
DICTIONARY
  5
10
330
A
100
AcDbDictionary
281
1
  3
Standard
350
22
  0
DICTIONARY
  5
11
330
A
100
AcDbDictionary
281
1
  0
ACDBDICTIONARYWDFLT
  5
12
330
A
100
AcDbDictionary
281
1
  3
Normal
350
13
100
AcDbDictionaryWithDefault
340
13
  0
ACDBPLACEHOLDER
  5
13
330
12
  0
DICTIONARY
  5
14
330
A
100
AcDbDictionary
281
1
  0
DICTIONARY
  5
15
330
A
100
AcDbDictionary
281
1
  0
DICTIONARY
  5
16
330
A
100
AcDbDictionary
281
1
  0
LAYOUT
  5
1A
330
D
100
AcDbPlotSettings
  1

  4
A3
  6

 40
7.5
 41
20.0
 42
7.5
 43
20.0
 44
420.0
 45
297.0
 46
0.0
 47
0.0
 48
0.0
 49
0.0
140
0.0
141
0.0
142
1.0
143
1.0
 70
1024
 72
1
 73
0
 74
5
  7

 75
16
 76
0
 77
2
 78
300
147
1.0
148
0.0
149
0.0
100
AcDbLayout
  1
Model
 70
1
 71
0
 10
0.0
 20
0.0
 11
420.0
 21
297.0
 12
0.0
 22
0.0
 32
0.0
 14
1e+20
 24
1e+20
 34
1e+20
 15
-1e+20
 25
-1e+20
 35
-1e+20
146
0.0
 13
0.0
 23
0.0
 33
0.0
 16
1.0
 26
0.0
 36
0.0
 17
0.0
 27
1.0
 37
0.0
 76
1
330
17
  0
LAYOUT
  5
1E
330
D
100
AcDbPlotSettings
  1

  4
A3
  6

 40
7.5
 41
20.0
 42
7.5
 43
20.0
 44
420.0
 45
297.0
 46
0.0
 47
0.0
 48
0.0
 49
0.0
140
0.0
141
0.0
142
1.0
143
1.0
 70
0
 72
1
 73
0
 74
5
  7

 75
16
 76
0
 77
2
 78
300
147
1.0
148
0.0
149
0.0
100
AcDbLayout
  1
Layout1
 70
1
 71
1
 10
0.0
 20
0.0
 11
420.0
 21
297.0
 12
0.0
 22
0.0
 32
0.0
 14
1e+20
 24
1e+20
 34
1e+20
 15
-1e+20
 25
-1e+20
 35
-1e+20
146
0.0
 13
0.0
 23
0.0
 33
0.0
 16
1.0
 26
0.0
 36
0.0
 17
0.0
 27
1.0
 37
0.0
 76
1
330
1B
  0
MATERIAL
  5
1F
102
{ACAD_REACTORS
330
E
102
}
330
E
100
AcDbMaterial
  1
ByBlock
  2

 70
0
 40
1.0
 71
1
 41
1.0
 91
-1023410177
 42
1.0
 72
1
  3

 73
1
 74
1
 75
1
 44
0.5
 73
0
 45
1.0
 46
1.0
 77
1
  4

 78
1
 79
1
170
1
 48
1.0
171
1
  6

172
1
173
1
174
1
140
1.0
141
1.0
175
1
  7

176
1
177
1
178
1
143
1.0
179
1
  8

270
1
271
1
272
1
145
1.0
146
1.0
273
1
  9

274
1
275
1
276
1
 42
1.0
 72
1
  3

 73
1
 74
1
 75
1
 94
63
  0
MATERIAL
  5
20
102
{ACAD_REACTORS
330
E
102
}
330
E
100
AcDbMaterial
  1
ByLayer
  2

 70
0
 40
1.0
 71
1
 41
1.0
 91
-1023410177
 42
1.0
 72
1
  3

 73
1
 74
1
 75
1
 44
0.5
 73
0
 45
1.0
 46
1.0
 77
1
  4

 78
1
 79
1
170
1
 48
1.0
171
1
  6

172
1
173
1
174
1
140
1.0
141
1.0
175
1
  7

176
1
177
1
178
1
143
1.0
179
1
  8

270
1
271
1
272
1
145
1.0
146
1.0
273
1
  9

274
1
275
1
276
1
 42
1.0
 72
1
  3

 73
1
 74
1
 75
1
 94
63
  0
MATERIAL
  5
21
102
{ACAD_REACTORS
330
E
102
}
330
E
100
AcDbMaterial
  1
Global
  2

 70
0
 40
1.0
 71
1
 41
1.0
 91
-1023410177
 42
1.0
 72
1
  3

 73
1
 74
1
 75
1
 44
0.5
 73
0
 45
1.0
 46
1.0
 77
1
  4

 78
1
 79
1
170
1
 48
1.0
171
1
  6

172
1
173
1
174
1
140
1.0
141
1.0
175
1
  7

176
1
177
1
178
1
143
1.0
179
1
  8

270
1
271
1
272
1
145
1.0
146
1.0
273
1
  9

274
1
275
1
276
1
 42
1.0
 72
1
  3

 73
1
 74
1
 75
1
 94
63
  0
MLINESTYLE
  5
22
102
{ACAD_REACTORS
330
10
102
}
330
10
100
AcDbMlineStyle
  2
Standard
 70
0
  3

 62
256
 51
90.0
 52
90.0
 71
2
 49
0.5
 62
256
  6
BYLAYER
 49
-0.5
 62
256
  6
BYLAYER
  0
MLEADERSTYLE
  5
2C
102
{ACAD_REACTORS
330
F
102
}
330
F
100
AcDbMLeaderStyle
179
2
170
2
171
1
172
0
 90
2
 40
0.0
 41
0.0
173
1
 91
-1056964608
 92
-2
290
1
 42
2.0
291
1
 43
8.0
  3
Standard
 44
4.0
300

342
29
174
1
175
1
176
0
178
1
 93
-1056964608
 45
4.0
292
0
297
0
 46
4.0
 94
-1056964608
 47
1.0
 49
1.0
140
1.0
294
1
141
0.0
177
0
142
1.0
295
0
296
0
143
3.75
271
0
272
9
273
9
  0
DICTIONARY
  5
2D
330
A
100
AcDbDictionary
280
1
281
1
  3
CREATED_BY_EZDXF
350
2E
  3
WRITTEN_BY_EZDXF
350
A5
  0
DICTIONARYVAR
  5
2E
330
2D
100
DictionaryVariables
280
0
  1
1.4.3 @ 2026-07-16T08:03:01.278039+00:00
  0
DICTIONARYVAR
  5
A5
330
2D
100
DictionaryVariables
280
0
  1
1.4.3 @ 2026-07-16T08:03:01.319404+00:00
  0
ENDSEC
  0
EOF
