  0
SECTION
  2
HEADER
  9
$ACADVER
  1
AC1024
  9
$ACADMAINTVER
 70
6
  9
$DWGCODEPAGE
  3
ANSI_1252
  9
$LASTSAVEDBY
  1
ezdxf
  9
$INSBASE
 10
0.0
 20
0.0
 30
0.0
  9
$EXTMIN
 10
0.0
 20
0.0
 30
0.0
  9
$EXTMAX
 10
210.0
 20
297.0
 30
0.0
  9
$LIMMIN
 10
0.0
 20
0.0
  9
$LIMMAX
 10
420.0
 20
297.0
  9
$ORTHOMODE
 70
0
  9
$REGENMODE
 70
1
  9
$FILLMODE
 70
1
  9
$QTEXTMODE
 70
0
  9
$MIRRTEXT
 70
1
  9
$LTSCALE
 40
1.0
  9
$ATTMODE
 70
1
  9
$TEXTSIZE
 40
2.5
  9
$TRACEWID
 40
1.0
  9
$TEXTSTYLE
  7
Standard
  9
$CLAYER
  8
0
  9
$CELTYPE
  6
ByLayer
  9
$CECOLOR
 62
256
  9
$CELTSCALE
 40
1.0
  9
$DISPSILH
 70
0
  9
$DIMSCALE
 40
1.0
  9
$DIMASZ
 40
2.5
  9
$DIMEXO
 40
0.625
  9
$DIMDLI
 40
3.75
  9
$DIMRND
 40
0.0
  9
$DIMDLE
 40
0.0
  9
$DIMEXE
 40
1.25
  9
$DIMTP
 40
0.0
  9
$DIMTM
 40
0.0
  9
$DIMTXT
 40
2.5
  9
$DIMCEN
 40
2.5
  9
$DIMTSZ
 40
0.0
  9
$DIMTOL
 70
0
  9
$DIMLIM
 70
0
  9
$DIMTIH
 70
0
  9
$DIMTOH
 70
0
  9
$DIMSE1
 70
0
  9
$DIMSE2
 70
0
  9
$DIMTAD
 70
1
  9
$DIMZIN
 70
8
  9
$DIMBLK
  1

  9
$DIMASO
 70
1
  9
$DIMSHO
 70
1
  9
$DIMPOST
  1

  9
$DIMAPOST
  1

  9
$DIMALT
 70
0
  9
$DIMALTD
 70
3
  9
$DIMALTF
 40
0.03937007874
  9
$DIMLFAC
 40
1.0
  9
$DIMTOFL
 70
1
  9
$DIMTVP
 40
0.0
  9
$DIMTIX
 70
0
  9
$DIMSOXD
 70
0
  9
$DIMSAH
 70
0
  9
$DIMBLK1
  1

  9
$DIMBLK2
  1

  9
$DIMSTYLE
  2
ISO-25
  9
$DIMCLRD
 70
0
  9
$DIMCLRE
 70
0
  9
$DIMCLRT
 70
0
  9
$DIMTFAC
 40
1.0
  9
$DIMGAP
 40
0.625
  9
$DIMJUST
 70
0
  9
$DIMSD1
 70
0
  9
$DIMSD2
 70
0
  9
$DIMTOLJ
 70
0
  9
$DIMTZIN
 70
8
  9
$DIMALTZ
 70
0
  9
$DIMALTTZ
 70
0
  9
$DIMUPT
 70
0
  9
$DIMDEC
 70
2
  9
$DIMTDEC
 70
2
  9
$DIMALTU
 70
2
  9
$DIMALTTD
 70
3
  9
$DIMTXSTY
  7
Standard
  9
$DIMAUNIT
 70
0
  9
$DIMADEC
 70
0
  9
$DIMALTRND
 40
0.0
  9
$DIMAZIN
 70
0
  9
$DIMDSEP
 70
44
  9
$DIMATFIT
 70
3
  9
$DIMFRAC
 70
0
  9
$DIMLDRBLK
  1

  9
$DIMLUNIT
 70
2
  9
$DIMLWD
 70
-2
  9
$DIMLWE
 70
-2
  9
$DIMTMOVE
 70
0
  9
$DIMFXL
 40
1.0
  9
$DIMFXLON
 70
0
  9
$DIMJOGANG
 40
0.785398163397
  9
$DIMTFILL
 70
0
  9
$DIMTFILLCLR
 70
0
  9
$DIMARCSYM
 70
0
  9
$DIMLTYPE
  6

  9
$DIMLTEX1
  6

  9
$DIMLTEX2
  6

  9
$DIMTXTDIRECTION
 70
0
  9
$LUNITS
 70
2
  9
$LUPREC
 70
4
  9
$SKETCHINC
 40
1.0
  9
$FILLETRAD
 40
10.0
  9
$AUNITS
 70
0
  9
$AUPREC
 70
2
  9
$MENU
  1
.
  9
$ELEVATION
 40
0.0
  9
$PELEVATION
 40
0.0
  9
$THICKNESS
 40
0.0
  9
$LIMCHECK
 70
0
  9
$CHAMFERA
 40
0.0
  9
$CHAMFERB
 40
0.0
  9
$CHAMFERC
 40
0.0
  9
$CHAMFERD
 40
0.0
  9
$SKPOLY
 70
0
  9
$TDCREATE
 40
2461238.3354282407
  9
$TDUCREATE
 40
2458532.153996898
  9
$TDUPDATE
 40
2461238.3354282407
  9
$TDUUPDATE
 40
2458532.1544311
  9
$TDINDWG
 40
0.0
  9
$TDUSRTIMER
 40
0.0
  9
$USRTIMER
 70
1
  9
$ANGBASE
 50
0.0
  9
$ANGDIR
 70
0
  9
$PDMODE
 70
0
  9
$PDSIZE
 40
0.0
  9
$PLINEWID
 40
0.0
  9
$SPLFRAME
 70
0
  9
$SPLINETYPE
 70
6
  9
$SPLINESEGS
 70
8
  9
$HANDSEED
  5
A6
  9
$SURFTAB1
 70
6
  9
$SURFTAB2
 70
6
  9
$SURFTYPE
 70
6
  9
$SURFU
 70
6
  9
$SURFV
 70
6
  9
$UCSBASE
  2

  9
$UCSNAME
  2

  9
$UCSORG
 10
0.0
 20
0.0
 30
0.0
  9
$UCSXDIR
 10
1.0
 20
0.0
 30
0.0
  9
$UCSYDIR
 10
0.0
 20
1.0
 30
0.0
  9
$UCSORTHOREF
  2

  9
$UCSORTHOVIEW
 70
0
  9
$UCSORGTOP
 10
0.0
 20
0.0
 30
0.0
  9
$UCSORGBOTTOM
 10
0.0
 20
0.0
 30
0.0
  9
$UCSORGLEFT
 10
0.0
 20
0.0
 30
0.0
  9
$UCSORGRIGHT
 10
0.0
 20
0.0
 30
0.0
  9
$UCSORGFRONT
 10
0.0
 20
0.0
 30
0.0
  9
$UCSORGBACK
 10
0.0
 20
0.0
 30
0.0
  9
$PUCSBASE
  2

  9
$PUCSNAME
  2

  9
$PUCSORG
 10
0.0
 20
0.0
 30
0.0
  9
$PUCSXDIR
 10
1.0
 20
0.0
 30
0.0
  9
$PUCSYDIR
 10
0.0
 20
1.0
 30
0.0
  9
$PUCSORTHOREF
  2

  9
$PUCSORTHOVIEW
 70
0
  9
$PUCSORGTOP
 10
0.0
 20
0.0
 30
0.0
  9
$PUCSORGBOTTOM
 10
0.0
 20
0.0
 30
0.0
  9
$PUCSORGLEFT
 10
0.0
 20
0.0
 30
0.0
  9
$PUCSORGRIGHT
 10
0.0
 20
0.0
 30
0.0
  9
$PUCSORGFRONT
 10
0.0
 20
0.0
 30
0.0
  9
$PUCSORGBACK
 10
0.0
 20
0.0
 30
0.0
  9
$USERI1
 70
0
  9
$USERI2
 70
0
  9
$USERI3
 70
0
  9
$USERI4
 70
0
  9
$USERI5
 70
0
  9
$USERR1
 40
0.0
  9
$USERR2
 40
0.0
  9
$USERR3
 40
0.0
  9
$USERR4
 40
0.0
  9
$USERR5
 40
0.0
  9
$WORLDVIEW
 70
1
  9
$SHADEDGE
 70
3
  9
$SHADEDIF
 70
70
  9
$TILEMODE
 70
1
  9
$MAXACTVP
 70
64
  9
$PINSBASE
 10
0.0
 20
0.0
 30
0.0
  9
$PLIMCHECK
 70
0
  9
$PEXTMIN
 10
1e+20
 20
1e+20
 30
1e+20
  9
$PEXTMAX
 10
-1e+20
 20
-1e+20
 30
-1e+20
  9
$PLIMMIN
 10
0.0
 20
0.0
  9
$PLIMMAX
 10
420.0
 20
297.0
  9
$UNITMODE
 70
0
  9
$VISRETAIN
 70
1
  9
$PLINEGEN
 70
0
  9
$PSLTSCALE
 70
1
  9
$TREEDEPTH
 70
3020
  9
$CMLSTYLE
  2
Standard
  9
$CMLJUST
 70
0
  9
$CMLSCALE
 40
20.0
  9
$PROXYGRAPHICS
 70
1
  9
$MEASUREMENT
 70
1
  9
$CELWEIGHT
370
-1
  9
$ENDCAPS
280
0
  9
$JOINSTYLE
280
0
  9
$LWDISPLAY
290
0
  9
$INSUNITS
 70
4
  9
$HYPERLINKBASE
  1

  9
$STYLESHEET
  1

  9
$XEDIT
290
1
  9
$CEPSNTYPE
380
0
  9
$PSTYLEMODE
290
1
  9
$FINGERPRINTGUID
  2
{DF182E8C-A24E-47D2-8DAE-0DDC7B21B2A9}
  9
$VERSIONGUID
  2
{770FBCAB-E472-4853-BD09-39C6A71979F2}
  9
$EXTNAMES
290
1
  9
$PSVPSCALE
 40
0.0
  9
$OLESTARTUP
290
0
  9
$SORTENTS
280
127
  9
$INDEXCTL
280
0
  9
$HIDETEXT
280
1
  9
$XCLIPFRAME
280
1
  9
$HALOGAP
280
0
  9
$OBSCOLOR
 70
257
  9
$OBSLTYPE
280
0
  9
$INTERSECTIONDISPLAY
280
0
  9
$INTERSECTIONCOLOR
 70
257
  9
$DIMASSOC
280
2
  9
$PROJECTNAME
  1

  9
$CAMERADISPLAY
290
0
  9
$LENSLENGTH
 40
50.0
  9
$CAMERAHEIGHT
 40
0.0
  9
$STEPSPERSEC
 40
24.0
  9
$STEPSIZE
 40
100.0
  9
$3DDWFPREC
 40
2.0
  9
$PSOLWIDTH
 40
0.005
  9
$PSOLHEIGHT
 40
0.08
  9
$LOFTANG1
 40
1.570796326795
  9
$LOFTANG2
 40
1.570796326795
  9
$LOFTMAG1
 40
0.0
  9
$LOFTMAG2
 40
0.0
  9
$LOFTPARAM
 70
7
  9
$LOFTNORMALS
280
1
  9
$LATITUDE
 40
37.795
  9
$LONGITUDE
 40
-122.394
  9
$NORTHDIRECTION
 40
0.0
  9
$TIMEZONE
 70
-8000
  9
$LIGHTGLYPHDISPLAY
280
1
  9
$TILEMODELIGHTSYNCH
280
1
  9
$CMATERIAL
347
20
  9
$SOLIDHIST
280
0
  9
$SHOWHIST
280
1
  9
$DWFFRAME
280
2
  9
$DGNFRAME
280
2
  9
$REALWORLDSCALE
290
1
  9
$INTERFERECOLOR
 62
256
  9
$CSHADOW
280
0
  9
$SHADOWPLANELOCATION
 40
0.0
  0
ENDSEC
  0
SECTION
  2
CLASSES
  0
CLASS
  1
ACDBDICTIONARYWDFLT
  2
AcDbDictionaryWithDefault
  3
ObjectDBX Classes
 90
0
 91
0
280
0
281
0
  0
CLASS
  1
SUN
  2
AcDbSun
  3
SCENEOE
 90
1153
 91
0
280
0
281
0
  0
CLASS
  1
VISUALSTYLE
  2
AcDbVisualStyle
  3
ObjectDBX Classes
 90
4095
 91
0
280
0
281
0
  0
CLASS
  1
MATERIAL
  2
AcDbMaterial
  3
ObjectDBX Classes
 90
1153
 91
0
280
0
281
0
  0
CLASS
  1
SCALE
  2
AcDbScale
  3
ObjectDBX Classes
 90
1153
 91
0
280
0
281
0
  0
CLASS
  1
TABLESTYLE
  2
AcDbTableStyle
  3
ObjectDBX Classes
 90
4095
 91
0
280
0
281
0
  0
CLASS
  1
MLEADERSTYLE
  2
AcDbMLeaderStyle
  3
ACDB_MLEADERSTYLE_CLASS
 90
4095
 91
0
280
0
281
0
  0
CLASS
  1
DICTIONARYVAR
  2
AcDbDictionaryVar
  3
ObjectDBX Classes
 90
0
 91
0
280
0
281
0
  0
CLASS
  1
CELLSTYLEMAP
  2
AcDbCellStyleMap
  3
ObjectDBX Classes
 90
1152
 91
0
280
0
281
0
  0
CLASS
  1
MENTALRAYRENDERSETTINGS
  2
AcDbMentalRayRenderSettings
  3
SCENEOE
 90
1024
 91
0
280
0
281
0
  0
CLASS
  1
ACDBDETAILVIEWSTYLE
  2
AcDbDetailViewStyle
  3
ObjectDBX Classes
 90
1025
 91
0
280
0
281
0
  0
CLASS
  1
ACDBSECTIONVIEWSTYLE
  2
AcDbSectionViewStyle
  3
ObjectDBX Classes
 90
1025
 91
0
280
0
281
0
  0
CLASS
  1
RASTERVARIABLES
  2
AcDbRasterVariables
  3
ISM
 90
0
 91
0
280
0
281
0
  0
CLASS
  1
ACDBPLACEHOLDER
  2
AcDbPlaceHolder
  3
ObjectDBX Classes
 90
0
 91
0
280
0
281
0
  0
CLASS
  1
LAYOUT
  2
AcDbLayout
  3
ObjectDBX Classes
 90
0
 91
0
280
0
281
0
  0
ENDSEC
  0
SECTION
  2
TABLES
  0
TABLE
  2
VPORT
  5
8
330
0
100
AcDbSymbolTable
 70
1
  0
VPORT
  5
23
330
8
100
AcDbSymbolTableRecord
100
AcDbViewportTableRecord
  2
*Active
 70
0
 10
0.0
 20
0.0
 11
1.0
 21
1.0
 12
0.0
 22
0.0
 13
0.0
 23
0.0
 14
0.5
 24
0.5
 15
0.5
 25
0.5
 16
0.0
 26
0.0
 36
1.0
 17
0.0
 27
0.0
 37
0.0
 40
1000.0
 41
1.34
 42
50.0
 43
0.0
 44
0.0
 50
0.0
 51
0.0
 71
0
 72
1000
 73
1
 74
3
 75
0
 76
0
 77
0
 78
0
281
0
 65
0
146
0.0
  0
ENDTAB
  0
TABLE
  2
LTYPE
  5
2
330
0
100
AcDbSymbolTable
 70
4
  0
LTYPE
  5
24
330
2
100
AcDbSymbolTableRecord
100
AcDbLinetypeTableRecord
  2
ByBlock
 70
0
  3

 72
65
 73
0
 40
0.0
  0
LTYPE
  5
25
330
2
100
AcDbSymbolTableRecord
100
AcDbLinetypeTableRecord
  2
ByLayer
 70
0
  3

 72
65
 73
0
 40
0.0
  0
LTYPE
  5
26
330
2
100
AcDbSymbolTableRecord
100
AcDbLinetypeTableRecord
  2
Continuous
 70
0
  3

 72
65
 73
0
 40
0.0
  0
LTYPE
  5
36
330
2
100
AcDbSymbolTableRecord
100
AcDbLinetypeTableRecord
  2
OPTICAL
 70
0
  3

 72
65
 73
5
 40
8.0
 49
-2.0
 74
0
 49
1.0
 74
0
 49
-2.0
 74
0
 49
1.0
 74
0
 49
-2.0
 74
0
  0
ENDTAB
  0
TABLE
  2
LAYER
  5
1
330
0
100
AcDbSymbolTable
 70
9
  0
LAYER
  5
27
330
1
100
AcDbSymbolTableRecord
100
AcDbLayerTableRecord
  2
0
 70
0
 62
7
  6
Continuous
370
-3
390
13
347
21
  0
LAYER
  5
28
330
1
100
AcDbSymbolTableRecord
100
AcDbLayerTableRecord
  2
Defpoints
 70
0
 62
7
  6
Continuous
290
0
370
-3
390
13
347
21
  0
LAYER
  5
2F
330
1
100
AcDbSymbolTableRecord
100
AcDbLayerTableRecord
  2
BORDER
 70
0
 62
7
  6
Continuous
370
25
390
13
347
21
  0
LAYER
  5
30
330
1
100
AcDbSymbolTableRecord
100
AcDbLayerTableRecord
  2
OUTLINE
 70
0
 62
7
  6
Continuous
370
50
390
13
347
21
  0
LAYER
  5
31
330
1
100
AcDbSymbolTableRecord
100
AcDbLayerTableRecord
  2
AXIS
 70
0
 62
8
  6
OPTICAL
370
13
390
13
347
21
  0
LAYER
  5
32
330
1
100
AcDbSymbolTableRecord
100
AcDbLayerTableRecord
  2
CEMENT
 70
0
 62
7
  6
Continuous
370
13
390
13
347
21
  0
LAYER
  5
33
330
1
100
AcDbSymbolTableRecord
100
AcDbLayerTableRecord
  2
DIMS
 70
0
 62
7
  6
Continuous
370
13
390
13
347
21
  0
LAYER
  5
34
330
1
100
AcDbSymbolTableRecord
100
AcDbLayerTableRecord
  2
CALLOUT
 70
0
 62
7
  6
Continuous
370
13
390
13
347
21
  0
LAYER
  5
35
330
1
100
AcDbSymbolTableRecord
100
AcDbLayerTableRecord
  2
TABLE
 70
0
 62
7
  6
Continuous
370
13
390
13
347
21
  0
ENDTAB
  0
TABLE
  2
STYLE
  5
5
330
0
100
AcDbSymbolTable
 70
1
  0
STYLE
  5
29
330
5
100
AcDbSymbolTableRecord
100
AcDbTextStyleTableRecord
  2
Standard
 70
0
 40
0.0
 41
1.0
 50
0.0
 71
0
 42
2.5
  3
txt
  4

  0
ENDTAB
  0
TABLE
  2
VIEW
  5
7
330
0
100
AcDbSymbolTable
 70
0
  0
ENDTAB
  0
TABLE
  2
UCS
  5
6
330
0
100
AcDbSymbolTable
 70
0
  0
ENDTAB
  0
TABLE
  2
APPID
  5
3
330
0
100
AcDbSymbolTable
 70
3
  0
APPID
  5
2A
330
3
100
AcDbSymbolTableRecord
100
AcDbRegAppTableRecord
  2
ACAD
 70
0
  0
APPID
  5
A3
330
3
100
AcDbSymbolTableRecord
100
AcDbRegAppTableRecord
  2
HATCHBACKGROUNDCOLOR
 70
0
  0
APPID
  5
A4
330
3
100
AcDbSymbolTableRecord
100
AcDbRegAppTableRecord
  2
EZDXF
 70
0
  0
ENDTAB
  0
TABLE
  2
DIMSTYLE
  5
4
330
0
100
AcDbSymbolTable
 70
1
100
AcDbDimStyleTable
  0
DIMSTYLE
105
2B
330
4
100
AcDbSymbolTableRecord
100
AcDbDimStyleTableRecord
  2
Standard
 70
0
 40
1.0
 41
2.5
 42
0.625
 43
3.75
 44
1.25
 45
0.0
 46
0.0
 47
0.0
 48
0.0
 49
2.5
140
2.5
141
2.5
142
0.0
143
0.03937007874
144
1.0
145
0.0
146
1.0
147
0.625
148
0.0
 69
0
 70
0
 71
0
 72
0
 73
0
 74
0
 75
0
 76
0
 77
1
 78
8
 79
3
170
0
171
3
172
1
173
0
174
0
175
0
176
0
177
0
178
0
179
2
271
2
272
2
273
2
274
3
275
0
276
0
277
2
278
44
279
0
280
0
281
0
282
0
283
0
284
8
285
0
286
0
288
0
289
3
290
0
371
-2
372
-2
  0
ENDTAB
  0
TABLE
  2
BLOCK_RECORD
  5
9
330
0
100
AcDbSymbolTable
 70
2
  0
BLOCK_RECORD
  5
17
330
9
100
AcDbSymbolTableRecord
100
AcDbBlockTableRecord
  2
*Model_Space
340
1A
 70
0
280
1
281
0
  0
BLOCK_RECORD
  5
1B
330
9
100
AcDbSymbolTableRecord
100
AcDbBlockTableRecord
  2
*Paper_Space
340
1E
 70
0
280
1
281
0
  0
ENDTAB
  0
ENDSEC
  0
SECTION
  2
BLOCKS
  0
BLOCK
  5
18
330
17
100
AcDbEntity
  8
0
100
AcDbBlockBegin
  2
*Model_Space
 70
0
 10
0.0
 20
0.0
 30
0.0
  3
*Model_Space
  1

  0
ENDBLK
  5
19
330
17
100
AcDbEntity
  8
0
100
AcDbBlockEnd
  0
BLOCK
  5
1C
330
1B
100
AcDbEntity
  8
0
100
AcDbBlockBegin
  2
*Paper_Space
 70
0
 10
0.0
 20
0.0
 30
0.0
  3
*Paper_Space
  1

  0
ENDBLK
  5
1D
330
1B
100
AcDbEntity
  8
0
100
AcDbBlockEnd
  0
ENDSEC
  0
SECTION
  2
ENTITIES
  0
LWPOLYLINE
  5
37
330
17
100
AcDbEntity
  8
BORDER
100
AcDbPolyline
 90
4
 70
1
 10
0.0
 20
0.0
 10
210.0
 20
0.0
 10
210.0
 20
297.0
 10
0.0
 20
297.0
  0
LWPOLYLINE
  5
38
330
17
100
AcDbEntity
  8
BORDER
370
50
100
AcDbPolyline
 90
4
 70
1
 10
10.0
 20
10.0
 10
200.0
 20
10.0
 10
200.0
 20
287.0
 10
10.0
 20
287.0
  0
TEXT
  5
39
330
17
100
AcDbEntity
  8
BORDER
100
AcDbText
 10
12.0
 20
113.0
 30
0.0
 40
1.8
  1
Ang. nach ISO 10110; λ = 546.07 nm
100
AcDbText
 73
1
  0
TEXT
  5
3A
330
17
100
AcDbEntity
  8
BORDER
100
AcDbText
 10
12.0
 20
282.0
 30
0.0
 40
2.5
  1
f′ = 18.85 mm
100
AcDbText
 73
3
  0
LWPOLYLINE
  5
3B
330
17
100
AcDbEntity
  8
BORDER
100
AcDbPolyline
 90
4
 70
1
 10
10.0
 20
10.0
 10
200.0
 20
10.0
 10
200.0
 20
38.0
 10
10.0
 20
38.0
  0
LINE
  5
3C
330
17
100
AcDbEntity
  8
BORDER
100
AcDbLine
 10
10.0
 20
23.0
 30
0.0
 11
200.0
 21
23.0
 31
0.0
  0
LINE
  5
3D
330
17
100
AcDbEntity
  8
BORDER
100
AcDbLine
 10
74.60000000000001
 20
23.0
 30
0.0
 11
74.60000000000001
 21
38.0
 31
0.0
  0
LINE
  5
3E
330
17
100
AcDbEntity
  8
BORDER
100
AcDbLine
 10
101.20000000000002
 20
23.0
 30
0.0
 11
101.20000000000002
 21
38.0
 31
0.0
  0
LINE
  5
3F
330
17
100
AcDbEntity
  8
BORDER
100
AcDbLine
 10
127.80000000000001
 20
23.0
 30
0.0
 11
127.80000000000001
 21
38.0
 31
0.0
  0
LINE
  5
40
330
17
100
AcDbEntity
  8
BORDER
100
AcDbLine
 10
154.4
 20
23.0
 30
0.0
 11
154.4
 21
38.0
 31
0.0
  0
LINE
  5
41
330
17
100
AcDbEntity
  8
BORDER
100
AcDbLine
 10
177.20000000000002
 20
23.0
 30
0.0
 11
177.20000000000002
 21
38.0
 31
0.0
  0
LINE
  5
42
330
17
100
AcDbEntity
  8
BORDER
100
AcDbLine
 10
188.60000000000002
 20
23.0
 30
0.0
 11
188.60000000000002
 21
38.0
 31
0.0
  0
TEXT
  5
43
330
17
100
AcDbEntity
  8
BORDER
100
AcDbText
 10
42.300000000000004
 20
26.75
 30
0.0
 40
1.8
  1
ORGANISATION / PROJECT / PART NO.
 72
4
 11
42.300000000000004
 21
26.75
 31
0.0
100
AcDbText
 73
2
  0
TEXT
  5
44
330
17
100
AcDbEntity
  8
BORDER
100
AcDbText
 10
42.300000000000004
 20
33.5
 30
0.0
 40
2.5
  1
5-Element Photographic Objective   OPT-005
 72
4
 11
42.300000000000004
 21
33.5
 31
0.0
100
AcDbText
 73
2
  0
TEXT
  5
45
330
17
100
AcDbEntity
  8
BORDER
100
AcDbText
 10
87.9
 20
26.75
 30
0.0
 40
1.8
  1
DRAWN BY
 72
4
 11
87.9
 21
26.75
 31
0.0
100
AcDbText
 73
2
  0
TEXT
  5
46
330
17
100
AcDbEntity
  8
BORDER
100
AcDbText
 10
87.9
 20
33.5
 30
0.0
 40
2.5
  1
B. Lutzer
 72
4
 11
87.9
 21
33.5
 31
0.0
100
AcDbText
 73
2
  0
TEXT
  5
47
330
17
100
AcDbEntity
  8
BORDER
100
AcDbText
 10
114.50000000000001
 20
26.75
 30
0.0
 40
1.8
  1
APPROVED
 72
4
 11
114.50000000000001
 21
26.75
 31
0.0
100
AcDbText
 73
2
  0
TEXT
  5
48
330
17
100
AcDbEntity
  8
BORDER
100
AcDbText
 10
114.50000000000001
 20
33.5
 30
0.0
 40
2.5
  1
—
 72
4
 11
114.50000000000001
 21
33.5
 31
0.0
100
AcDbText
 73
2
  0
TEXT
  5
49
330
17
100
AcDbEntity
  8
BORDER
100
AcDbText
 10
141.10000000000002
 20
26.75
 30
0.0
 40
1.8
  1
DATE
 72
4
 11
141.10000000000002
 21
26.75
 31
0.0
100
AcDbText
 73
2
  0
TEXT
  5
4A
330
17
100
AcDbEntity
  8
BORDER
100
AcDbText
 10
141.10000000000002
 20
33.5
 30
0.0
 40
2.5
  1
2026-07-16
 72
4
 11
141.10000000000002
 21
33.5
 31
0.0
100
AcDbText
 73
2
  0
TEXT
  5
4B
330
17
100
AcDbEntity
  8
BORDER
100
AcDbText
 10
165.8
 20
26.75
 30
0.0
 40
1.8
  1
SCALE
 72
4
 11
165.8
 21
26.75
 31
0.0
100
AcDbText
 73
2
  0
TEXT
  5
4C
330
17
100
AcDbEntity
  8
BORDER
100
AcDbText
 10
165.8
 20
33.5
 30
0.0
 40
2.5
  1
10:1
 72
4
 11
165.8
 21
33.5
 31
0.0
100
AcDbText
 73
2
  0
TEXT
  5
4D
330
17
100
AcDbEntity
  8
BORDER
100
AcDbText
 10
182.90000000000003
 20
26.75
 30
0.0
 40
1.8
  1
SHEET
 72
4
 11
182.90000000000003
 21
26.75
 31
0.0
100
AcDbText
 73
2
  0
TEXT
  5
4E
330
17
100
AcDbEntity
  8
BORDER
100
AcDbText
 10
182.90000000000003
 20
33.5
 30
0.0
 40
2.5
  1
5 / 5
 72
4
 11
182.90000000000003
 21
33.5
 31
0.0
100
AcDbText
 73
2
  0
TEXT
  5
4F
330
17
100
AcDbEntity
  8
BORDER
100
AcDbText
 10
194.3
 20
26.75
 30
0.0
 40
1.8
  1
REV
 72
4
 11
194.3
 21
26.75
 31
0.0
100
AcDbText
 73
2
  0
TEXT
  5
50
330
17
100
AcDbEntity
  8
BORDER
100
AcDbText
 10
194.3
 20
33.5
 30
0.0
 40
2.5
  1
A
 72
4
 11
194.3
 21
33.5
 31
0.0
100
AcDbText
 73
2
  0
LINE
  5
51
330
17
100
AcDbEntity
  8
BORDER
100
AcDbLine
 10
124.0
 20
10.0
 30
0.0
 11
124.0
 21
23.0
 31
0.0
  0
TEXT
  5
52
330
17
100
AcDbEntity
  8
BORDER
100
AcDbText
 10
12.0
 20
21.5
 30
0.0
 40
1.8
  1
NOTES
100
AcDbText
 73
3
  0
TEXT
  5
53
330
17
100
AcDbEntity
  8
BORDER
100
AcDbText
 10
146.8
 20
21.5
 30
0.0
 40
1.8
  1
DIM. IN mm
 72
4
 11
146.8
 21
21.5
 31
0.0
100
AcDbText
 73
3
  0
TEXT
  5
54
330
17
100
AcDbEntity
  8
BORDER
100
AcDbText
 10
146.8
 20
17.7
 30
0.0
 40
1.8
  1
GENERAL TOL. PER ISO 10110-11
 72
4
 11
146.8
 21
17.7
 31
0.0
100
AcDbText
 73
1
  0
TEXT
  5
55
330
17
100
AcDbEntity
  8
BORDER
100
AcDbText
 10
146.8
 20
15.3
 30
0.0
 40
1.8
  1
Ø±0.10  CT±0.15  3/ 5  4/ 3′  5/ 2×0.063
 72
4
 11
146.8
 21
15.3
 31
0.0
100
AcDbText
 73
3
  0
CIRCLE
  5
56
330
17
100
AcDbEntity
  8
BORDER
100
AcDbCircle
 10
180.61400000000003
 20
16.5
 30
0.0
 40
3.6400000000000006
  0
CIRCLE
  5
57
330
17
100
AcDbEntity
  8
BORDER
100
AcDbCircle
 10
180.61400000000003
 20
16.5
 30
0.0
 40
2.184
  0
LWPOLYLINE
  5
58
330
17
100
AcDbEntity
  8
BORDER
100
AcDbPolyline
 90
4
 70
1
 10
186.074
 20
20.14
 10
192.626
 20
18.684
 10
192.626
 20
14.315999999999999
 10
186.074
 20
12.86
  0
LINE
  5
59
330
17
100
AcDbEntity
  8
AXIS
100
AcDbLine
 10
175.88200000000003
 20
16.5
 30
0.0
 11
194.446
 21
16.5
 31
0.0
  0
LWPOLYLINE
  5
5A
330
17
100
AcDbEntity
  8
TABLE
100
AcDbPolyline
 90
4
 70
1
 10
10.0
 20
38.0
 10
200.0
 20
38.0
 10
200.0
 20
110.0
 10
10.0
 20
110.0
  0
LINE
  5
5B
330
17
100
AcDbEntity
  8
TABLE
100
AcDbLine
 10
73.33333333333334
 20
38.0
 30
0.0
 11
73.33333333333334
 21
110.0
 31
0.0
  0
LINE
  5
5C
330
17
100
AcDbEntity
  8
TABLE
100
AcDbLine
 10
136.66666666666669
 20
38.0
 30
0.0
 11
136.66666666666669
 21
110.0
 31
0.0
  0
LINE
  5
5D
330
17
100
AcDbEntity
  8
TABLE
100
AcDbLine
 10
10.0
 20
103.0
 30
0.0
 11
200.0
 21
103.0
 31
0.0
  0
TEXT
  5
5E
330
17
100
AcDbEntity
  8
TABLE
100
AcDbText
 10
41.66666666666667
 20
106.5
 30
0.0
 40
2.0
  1
SURFACE 1 (FRONT)
 72
4
 11
41.66666666666667
 21
106.5
 31
0.0
100
AcDbText
 73
2
  0
TEXT
  5
5F
330
17
100
AcDbEntity
  8
TABLE
100
AcDbText
 10
12.0
 20
101.0
 30
0.0
 40
2.0
  1
R +40.000 CX
100
AcDbText
 73
3
  0
TEXT
  5
60
330
17
100
AcDbEntity
  8
TABLE
100
AcDbText
 10
12.0
 20
94.5
 30
0.0
 40
2.0
  1
Øₑ 11.59
100
AcDbText
 73
3
  0
TEXT
  5
61
330
17
100
AcDbEntity
  8
TABLE
100
AcDbText
 10
12.0
 20
88.0
 30
0.0
 40
2.0
  1
3/ (0.5); λ=546.1 nm
100
AcDbText
 73
3
  0
TEXT
  5
62
330
17
100
AcDbEntity
  8
TABLE
100
AcDbText
 10
12.0
 20
81.5
 30
0.0
 40
2.0
  1
4/ 0.5′
100
AcDbText
 73
3
  0
TEXT
  5
63
330
17
100
AcDbEntity
  8
TABLE
100
AcDbText
 10
12.0
 20
75.0
 30
0.0
 40
2.0
  1
5/ 2×0.04
100
AcDbText
 73
3
  0
TEXT
  5
64
330
17
100
AcDbEntity
  8
TABLE
100
AcDbText
 10
12.0
 20
68.5
 30
0.0
 40
2.0
  1
6/ —
100
AcDbText
 73
3
  0
TEXT
  5
65
330
17
100
AcDbEntity
  8
TABLE
100
AcDbText
 10
12.0
 20
62.0
 30
0.0
 40
2.0
  1

100
AcDbText
 73
3
  0
TEXT
  5
66
330
17
100
AcDbEntity
  8
TABLE
100
AcDbText
 10
12.0
 20
55.5
 30
0.0
 40
2.0
  1
13/ —
100
AcDbText
 73
3
  0
CIRCLE
  5
67
330
17
100
AcDbEntity
  8
TABLE
100
AcDbCircle
 10
13.5
 20
60.5
 30
0.0
 40
1.5
  0
TEXT
  5
68
330
17
100
AcDbEntity
  8
TABLE
100
AcDbText
 10
13.5
 20
60.5
 30
0.0
 40
2.0999999999999996
  1
λ
 72
4
 11
13.5
 21
60.5
 31
0.0
100
AcDbText
 73
2
  0
TEXT
  5
69
330
17
100
AcDbEntity
  8
TABLE
100
AcDbText
 10
16.0
 20
60.5
 30
0.0
 40
2.0
  1
7/ AR 400-700 nm, R<0.3%
100
AcDbText
 73
2
  0
TEXT
  5
6A
330
17
100
AcDbEntity
  8
TABLE
100
AcDbText
 10
168.33333333333334
 20
106.5
 30
0.0
 40
2.0
  1
SURFACE 2 (REAR)
 72
4
 11
168.33333333333334
 21
106.5
 31
0.0
100
AcDbText
 73
2
  0
TEXT
  5
6B
330
17
100
AcDbEntity
  8
TABLE
100
AcDbText
 10
138.66666666666669
 20
101.0
 30
0.0
 40
2.0
  1
R -48.000 CX
100
AcDbText
 73
3
  0
TEXT
  5
6C
330
17
100
AcDbEntity
  8
TABLE
100
AcDbText
 10
138.66666666666669
 20
94.5
 30
0.0
 40
2.0
  1
Øₑ 9.94
100
AcDbText
 73
3
  0
TEXT
  5
6D
330
17
100
AcDbEntity
  8
TABLE
100
AcDbText
 10
138.66666666666669
 20
88.0
 30
0.0
 40
2.0
  1
3/ (0.5); λ=546.1 nm
100
AcDbText
 73
3
  0
TEXT
  5
6E
330
17
100
AcDbEntity
  8
TABLE
100
AcDbText
 10
138.66666666666669
 20
81.5
 30
0.0
 40
2.0
  1
4/ 0.5′
100
AcDbText
 73
3
  0
TEXT
  5
6F
330
17
100
AcDbEntity
  8
TABLE
100
AcDbText
 10
138.66666666666669
 20
75.0
 30
0.0
 40
2.0
  1
5/ 2×0.04
100
AcDbText
 73
3
  0
TEXT
  5
70
330
17
100
AcDbEntity
  8
TABLE
100
AcDbText
 10
138.66666666666669
 20
68.5
 30
0.0
 40
2.0
  1
6/ —
100
AcDbText
 73
3
  0
TEXT
  5
71
330
17
100
AcDbEntity
  8
TABLE
100
AcDbText
 10
138.66666666666669
 20
62.0
 30
0.0
 40
2.0
  1

100
AcDbText
 73
3
  0
TEXT
  5
72
330
17
100
AcDbEntity
  8
TABLE
100
AcDbText
 10
138.66666666666669
 20
55.5
 30
0.0
 40
2.0
  1
13/ —
100
AcDbText
 73
3
  0
CIRCLE
  5
73
330
17
100
AcDbEntity
  8
TABLE
100
AcDbCircle
 10
140.16666666666669
 20
60.5
 30
0.0
 40
1.5
  0
TEXT
  5
74
330
17
100
AcDbEntity
  8
TABLE
100
AcDbText
 10
140.16666666666669
 20
60.5
 30
0.0
 40
2.0999999999999996
  1
λ
 72
4
 11
140.16666666666669
 21
60.5
 31
0.0
100
AcDbText
 73
2
  0
TEXT
  5
75
330
17
100
AcDbEntity
  8
TABLE
100
AcDbText
 10
142.66666666666669
 20
60.5
 30
0.0
 40
2.0
  1
7/ AR 400-700 nm, R<0.3%
100
AcDbText
 73
2
  0
TEXT
  5
76
330
17
100
AcDbEntity
  8
TABLE
100
AcDbText
 10
105.0
 20
106.5
 30
0.0
 40
2.0
  1
MATERIAL
 72
4
 11
105.0
 21
106.5
 31
0.0
100
AcDbText
 73
2
  0
TEXT
  5
77
330
17
100
AcDbEntity
  8
TABLE
100
AcDbText
 10
75.33333333333334
 20
101.0
 30
0.0
 40
2.0
  1
N-LAK22
100
AcDbText
 73
3
  0
TEXT
  5
78
330
17
100
AcDbEntity
  8
TABLE
100
AcDbText
 10
75.33333333333334
 20
94.5
 30
0.0
 40
2.0
  1
nd = 1.6511  (587.6 nm)
100
AcDbText
 73
3
  0
TEXT
  5
79
330
17
100
AcDbEntity
  8
TABLE
100
AcDbText
 10
75.33333333333334
 20
88.0
 30
0.0
 40
2.0
  1
νd = 55.89  (587.6 nm)
100
AcDbText
 73
3
  0
TEXT
  5
7A
330
17
100
AcDbEntity
  8
TABLE
100
AcDbText
 10
75.33333333333334
 20
81.5
 30
0.0
 40
2.0
  1
0/ 10 nm/cm
100
AcDbText
 73
3
  0
TEXT
  5
7B
330
17
100
AcDbEntity
  8
TABLE
100
AcDbText
 10
75.33333333333334
 20
75.0
 30
0.0
 40
2.0
  1
1/ 1×0.16
100
AcDbText
 73
3
  0
TEXT
  5
7C
330
17
100
AcDbEntity
  8
TABLE
100
AcDbText
 10
75.33333333333334
 20
68.5
 30
0.0
 40
2.0
  1
2/ NH010; A
100
AcDbText
 73
3
  0
LINE
  5
7D
330
17
100
AcDbEntity
  8
AXIS
100
AcDbLine
 10
67.50008548050448
 20
198.5
 30
0.0
 11
142.49991451949552
 21
198.5
 31
0.0
  0
TEXT
  5
7E
330
17
100
AcDbEntity
  8
AXIS
100
AcDbText
 10
66.50008548050448
 20
198.5
 30
0.0
 40
2.0
  1
opt./rot. axis
 72
2
 11
66.50008548050448
 21
198.5
 31
0.0
100
AcDbText
 73
2
  0
LWPOLYLINE
  5
7F
330
17
100
AcDbEntity
  8
OUTLINE
370
50
100
AcDbPolyline
 90
402
 70
1
 10
86.72161903018701
 20
140.53889724680732
 10
86.63674717327581
 20
141.12142089256804
 10
86.55275052553822
 20
141.70394453832878
 10
86.46962853008768
 20
142.28646818408953
 10
86.38738063630171
 20
142.86899182985024
 10
86.30600629980296
 20
143.45151547561096
 10
86.22550498244038
 20
144.0340391213717
 10
86.14587615227174
 20
144.61656276713245
 10
86.06711928354491
 20
145.19908641289317
 10
85.98923385668024
 20
145.78161005865388
 10
85.91221935825342
 20
146.36413370441463
 10
85.83607528097764
 20
146.94665735017537
 10
85.76080112368669
 20
147.5291809959361
 10
85.68639639131811
 20
148.11170464169683
 10
85.61286059489686
 20
148.69422828745755
 10
85.54019325151825
 20
149.2767519332183
 10
85.46839388433216
 20
149.859275578979
 10
85.39746202252724
 20
150.44179922473975
 10
85.32739720131474
 20
151.02432287050047
 10
85.25819896191342
 20
151.60684651626121
 10
85.18986685153362
 20
152.18937016202193
 10
85.1224004233631
 20
152.77189380778265
 10
85.05579923655125
 20
153.3544174535434
 10
84.99006285619487
 20
153.93694109930414
 10
84.92519085332401
 20
154.51946474506485
 10
84.86118280488688
 20
155.10198839082557
 10
84.79803829373674
 20
155.6845120365863
 10
84.73575690861759
 20
156.26703568234706
 10
84.67433824415076
 20
156.84955932810777
 10
84.61378190082132
 20
157.4320829738685
 10
84.55408748496507
 20
158.01460661962923
 10
84.49525460875554
 20
158.59713026538998
 10
84.43728289019123
 20
159.1796539111507
 10
84.38017195308294
 20
159.76217755691144
 10
84.3239214270414
 20
160.34470120267216
 10
84.26853094746536
 20
160.9272248484329
 10
84.21400015552928
 20
161.50974849419362
 10
84.1603286981719
 20
162.09227213995433
 10
84.10751622808425
 20
162.67479578571508
 10
84.05556240369873
 20
163.25731943147582
 10
84.0044668891777
 20
163.83984307723654
 10
83.95422935440268
 20
164.42236672299728
 10
83.90484947496327
 20
165.004890368758
 10
83.856326932147
 20
165.58741401451874
 10
83.80866141292853
 20
166.16993766027946
 10
83.76185260995965
 20
166.75246130604017
 10
83.71590022155942
 20
167.33498495180092
 10
83.67080395170422
 20
167.91750859756166
 10
83.62656351001795
 20
168.50003224332238
 10
83.58317861176295
 20
169.08255588908312
 10
83.54064897783059
 20
169.66507953484384
 10
83.49897433473222
 20
170.24760318060459
 10
83.45815441459041
 20
170.8301268263653
 10
83.41818895513018
 20
171.41265047212605
 10
83.37907769967057
 20
171.99517411788676
 10
83.34082039711626
 20
172.5776977636475
 10
83.30341680194971
 20
173.16022140940822
 10
83.2668666742228
 20
173.74274505516897
 10
83.23116977954965
 20
174.32526870092968
 10
83.19632588909843
 20
174.90779234669043
 10
83.16233477958463
 20
175.49031599245114
 10
83.12919623326349
 20
176.0728396382119
 10
83.09691003792295
 20
176.6553632839726
 10
83.06547598687712
 20
177.23788692973335
 10
83.03489387895922
 20
177.82041057549407
 10
83.0051635185157
 20
178.40293422125478
 10
82.9762847153994
 20
178.98545786701553
 10
82.94825728496369
 20
179.56798151277627
 10
82.92108104805646
 20
180.150505158537
 10
82.89475583101466
 20
180.73302880429773
 10
82.86928146565839
 20
181.31555245005845
 10
82.84465778928552
 20
181.8980760958192
 10
82.82088464466693
 20
182.4805997415799
 10
82.79796188004087
 20
183.06312338734065
 10
82.77588934910841
 20
183.64564703310137
 10
82.75466691102889
 20
184.2281706788621
 10
82.73429443041516
 20
184.81069432462283
 10
82.71477177732936
 20
185.39321797038357
 10
82.69609882727877
 20
185.9757416161443
 10
82.67827546121191
 20
186.55826526190504
 10
82.66130156551458
 20
187.14078890766575
 10
82.64517703200636
 20
187.72331255342647
 10
82.62990175793715
 20
188.3058361991872
 10
82.61547564598368
 20
188.88835984494796
 10
82.60189860424691
 20
189.47088349070867
 10
82.58917054624851
 20
190.05340713646942
 10
82.57729139092834
 20
190.63593078223013
 10
82.56626106264224
 20
191.21845442799088
 10
82.55607949115887
 20
191.8009780737516
 10
82.5467466116582
 20
192.38350171951234
 10
82.53826236472884
 20
192.96602536527305
 10
82.53062669636671
 20
193.5485490110338
 10
82.52383955797296
 20
194.13107265679452
 10
82.51790090635234
 20
194.71359630255526
 10
82.51281070371226
 20
195.29611994831598
 10
82.50856891766108
 20
195.87864359407672
 10
82.50517552120755
 20
196.46116723983744
 10
82.50263049275952
 20
197.04369088559818
 10
82.50093381612362
 20
197.6262145313589
 10
82.50008548050448
 20
198.20873817711964
 10
82.50008548050448
 20
198.79126182288036
 10
82.50093381612362
 20
199.3737854686411
 10
82.50263049275952
 20
199.95630911440182
 10
82.50517552120755
 20
200.53883276016256
 10
82.50856891766108
 20
201.12135640592328
 10
82.51281070371226
 20
201.70388005168402
 10
82.51790090635234
 20
202.28640369744474
 10
82.52383955797296
 20
202.86892734320548
 10
82.53062669636671
 20
203.4514509889662
 10
82.53826236472884
 20
204.03397463472695
 10
82.5467466116582
 20
204.61649828048766
 10
82.55607949115887
 20
205.1990219262484
 10
82.56626106264224
 20
205.78154557200912
 10
82.57729139092834
 20
206.36406921776987
 10
82.58917054624851
 20
206.94659286353058
 10
82.60189860424691
 20
207.52911650929133
 10
82.61547564598368
 20
208.11164015505204
 10
82.62990175793715
 20
208.6941638008128
 10
82.64517703200636
 20
209.2766874465735
 10
82.66130156551458
 20
209.85921109233425
 10
82.67827546121191
 20
210.44173473809496
 10
82.69609882727877
 20
211.0242583838557
 10
82.71477177732936
 20
211.60678202961643
 10
82.73429443041516
 20
212.18930567537717
 10
82.75466691102889
 20
212.7718293211379
 10
82.77588934910841
 20
213.35435296689863
 10
82.79796188004087
 20
213.93687661265935
 10
82.82088464466693
 20
214.5194002584201
 10
82.84465778928552
 20
215.1019239041808
 10
82.86928146565839
 20
215.68444754994155
 10
82.89475583101466
 20
216.26697119570227
 10
82.92108104805646
 20
216.849494841463
 10
82.94825728496369
 20
217.43201848722373
 10
82.9762847153994
 20
218.01454213298447
 10
83.0051635185157
 20
218.5970657787452
 10
83.03489387895922
 20
219.17958942450593
 10
83.06547598687712
 20
219.76211307026665
 10
83.09691003792295
 20
220.3446367160274
 10
83.12919623326349
 20
220.9271603617881
 10
83.16233477958463
 20
221.50968400754886
 10
83.19632588909843
 20
222.09220765330957
 10
83.23116977954965
 20
222.67473129907032
 10
83.2668666742228
 20
223.25725494483103
 10
83.30341680194971
 20
223.83977859059178
 10
83.34082039711626
 20
224.4223022363525
 10
83.37907769967057
 20
225.0048258821132
 10
83.41818895513018
 20
225.58734952787395
 10
83.45815441459041
 20
226.1698731736347
 10
83.49897433473222
 20
226.75239681939541
 10
83.54064897783059
 20
227.33492046515616
 10
83.58317861176295
 20
227.91744411091688
 10
83.62656351001795
 20
228.49996775667762
 10
83.67080395170422
 20
229.08249140243834
 10
83.71590022155942
 20
229.66501504819908
 10
83.76185260995965
 20
230.24753869395983
 10
83.80866141292853
 20
230.83006233972054
 10
83.856326932147
 20
231.41258598548126
 10
83.90484947496327
 20
231.99510963124197
 10
83.95422935440263
 20
232.57763327700272
 10
84.0044668891777
 20
233.16015692276346
 10
84.05556240369873
 20
233.74268056852418
 10
84.10751622808425
 20
234.32520421428492
 10
84.1603286981719
 20
234.90772786004564
 10
84.21400015552928
 20
235.49025150580638
 10
84.26853094746536
 20
236.0727751515671
 10
84.3239214270414
 20
236.65529879732782
 10
84.38017195308294
 20
237.23782244308856
 10
84.43728289019123
 20
237.8203460888493
 10
84.49525460875554
 20
238.40286973461002
 10
84.55408748496507
 20
238.98539338037077
 10
84.61378190082132
 20
239.56791702613148
 10
84.67433824415076
 20
240.15044067189223
 10
84.73575690861759
 20
240.73296431765294
 10
84.79803829373674
 20
241.3154879634137
 10
84.86118280488688
 20
241.89801160917443
 10
84.92519085332401
 20
242.48053525493515
 10
84.99006285619487
 20
243.06305890069586
 10
85.05579923655125
 20
243.64558254645658
 10
85.1224004233631
 20
244.22810619221733
 10
85.18986685153362
 20
244.81062983797807
 10
85.25819896191342
 20
245.39315348373879
 10
85.32739720131474
 20
245.97567712949953
 10
85.39746202252724
 20
246.55820077526025
 10
85.46839388433216
 20
247.140724421021
 10
85.54019325151825
 20
247.7232480667817
 10
85.61286059489686
 20
248.30577171254242
 10
85.68639639131811
 20
248.88829535830317
 10
85.76080112368663
 20
249.4708190040639
 10
85.83607528097764
 20
250.05334264982463
 10
85.91221935825342
 20
250.63586629558537
 10
85.98923385668024
 20
251.2183899413461
 10
86.06711928354491
 20
251.80091358710683
 10
86.14587615227174
 20
252.38343723286755
 10
86.22550498244038
 20
252.9659608786283
 10
86.30600629980296
 20
253.54848452438904
 10
86.38738063630171
 20
254.13100817014976
 10
86.46962853008768
 20
254.71353181591047
 10
86.55275052553822
 20
255.29605546167122
 10
86.63674717327581
 20
255.87857910743193
 10
86.72161903018701
 20
256.4611027531927
 10
123.9876608824215
 20
256.4611027531927
 10
123.9876608824215
 20
256.4611027531927
 10
124.05815916032827
 20
255.87857910743193
 10
124.12793506444206
 20
255.29605546167122
 10
124.19698891197243
 20
254.71353181591047
 10
124.26532101666356
 20
254.13100817014976
 10
124.33293168880158
 20
253.54848452438904
 10
124.39982123522151
 20
252.9659608786283
 10
124.46598995931475
 20
252.38343723286755
 10
124.53143816103551
 20
251.80091358710683
 10
124.59616613690838
 20
251.2183899413461
 10
124.66017418003463
 20
250.63586629558537
 10
124.72346258009918
 20
250.05334264982463
 10
124.78603162337731
 20
249.4708190040639
 10
124.84788159274103
 20
248.88829535830317
 10
124.9090127676659
 20
248.30577171254242
 10
124.96942542423699
 20
247.7232480667817
 10
125.0291198351556
 20
247.140724421021
 10
125.08809626974539
 20
246.55820077526025
 10
125.14635499395848
 20
245.97567712949953
 10
125.20389627038145
 20
245.39315348373879
 10
125.26072035824154
 20
244.81062983797807
 10
125.31682751341236
 20
244.22810619221733
 10
125.37221798842006
 20
243.64558254645658
 10
125.42689203244856
 20
243.06305890069586
 10
125.48084989134577
 20
242.48053525493515
 10
125.53409180762856
 20
241.89801160917443
 10
125.58661802048914
 20
241.3154879634137
 10
125.63842876579957
 20
240.73296431765294
 10
125.68952427611765
 20
240.15044067189223
 10
125.7399047806922
 20
239.56791702613148
 10
125.78957050546796
 20
238.98539338037077
 10
125.83852167309101
 20
238.40286973461002
 10
125.8867585029135
 20
237.8203460888493
 10
125.93428121099896
 20
237.23782244308856
 10
125.98109001012699
 20
236.65529879732782
 10
126.02718510979793
 20
236.0727751515671
 10
126.07256671623799
 20
235.49025150580638
 10
126.1172350324033
 20
234.90772786004564
 10
126.16119025798525
 20
234.32520421428492
 10
126.2044325894143
 20
233.74268056852418
 10
126.24696221986477
 20
233.16015692276346
 10
126.28877933925912
 20
232.57763327700272
 10
126.32988413427199
 20
231.99510963124197
 10
126.37027678833493
 20
231.41258598548126
 10
126.40995748163999
 20
230.83006233972054
 10
126.44892639114397
 20
230.24753869395983
 10
126.48718369057246
 20
229.66501504819908
 10
126.52472955042356
 20
229.08249140243834
 10
126.56156413797203
 20
228.49996775667762
 10
126.59768761727247
 20
227.91744411091688
 10
126.63310014916351
 20
227.33492046515616
 10
126.66780189127127
 20
226.75239681939541
 10
126.70179299801288
 20
226.1698731736347
 10
126.73507362059968
 20
225.58734952787395
 10
126.76764390704102
 20
225.0048258821132
 10
126.79950400214733
 20
224.4223022363525
 10
126.8306540475333
 20
223.83977859059178
 10
126.86109418162118
 20
223.25725494483103
 10
126.89082453964392
 20
222.67473129907032
 10
126.91984525364785
 20
222.09220765330957
 10
126.94815645249594
 20
221.50968400754886
 10
126.97575826187062
 20
220.9271603617881
 10
127.00265080427664
 20
220.3446367160274
 10
127.02883419904356
 20
219.76211307026665
 10
127.0543085623284
 20
219.17958942450593
 10
127.0790740071186
 20
218.5970657787452
 10
127.1031306432343
 20
218.01454213298447
 10
127.12647857733066
 20
217.43201848722373
 10
127.1491179129003
 20
216.849494841463
 10
127.17104875027576
 20
216.26697119570227
 10
127.19227118663161
 20
215.68444754994155
 10
127.2127853159866
 20
215.1019239041808
 10
127.23259122920564
 20
214.5194002584201
 10
127.25168901400207
 20
213.93687661265935
 10
127.27007875493939
 20
213.35435296689863
 10
127.28776053343336
 20
212.7718293211379
 10
127.30473442775337
 20
212.18930567537717
 10
127.32100051302473
 20
211.60678202961643
 10
127.33655886122995
 20
211.0242583838557
 10
127.35140954121039
 20
210.44173473809496
 10
127.365552618668
 20
209.85921109233425
 10
127.37898815616649
 20
209.2766874465735
 10
127.3917162131329
 20
208.6941638008128
 10
127.40373684585893
 20
208.11164015505204
 10
127.41505010750183
 20
207.52911650929133
 10
127.42565604808624
 20
206.94659286353058
 10
127.43555471450463
 20
206.36406921776987
 10
127.44474615051882
 20
205.78154557200912
 10
127.45323039676055
 20
205.1990219262484
 10
127.46100749073281
 20
204.61649828048766
 10
127.46807746681026
 20
204.03397463472695
 10
127.47444035624017
 20
203.4514509889662
 10
127.4800961871432
 20
202.86892734320548
 10
127.48504498451405
 20
202.28640369744474
 10
127.4892867702215
 20
201.70388005168402
 10
127.49282156300973
 20
201.12135640592328
 10
127.495649378498
 20
200.53883276016256
 10
127.49777022918141
 20
199.95630911440182
 10
127.49918412443088
 20
199.3737854686411
 10
127.4998910704939
 20
198.79126182288036
 10
127.4998910704939
 20
198.20873817711964
 10
127.49918412443088
 20
197.6262145313589
 10
127.49777022918141
 20
197.04369088559818
 10
127.495649378498
 20
196.46116723983744
 10
127.49282156300973
 20
195.87864359407672
 10
127.4892867702215
 20
195.29611994831598
 10
127.48504498451405
 20
194.71359630255526
 10
127.4800961871432
 20
194.13107265679452
 10
127.47444035624017
 20
193.5485490110338
 10
127.46807746681026
 20
192.96602536527305
 10
127.46100749073281
 20
192.38350171951234
 10
127.45323039676055
 20
191.8009780737516
 10
127.44474615051882
 20
191.21845442799088
 10
127.43555471450463
 20
190.63593078223013
 10
127.42565604808624
 20
190.05340713646942
 10
127.41505010750183
 20
189.47088349070867
 10
127.40373684585893
 20
188.88835984494796
 10
127.3917162131329
 20
188.3058361991872
 10
127.37898815616649
 20
187.72331255342647
 10
127.365552618668
 20
187.14078890766575
 10
127.35140954121039
 20
186.55826526190504
 10
127.33655886122995
 20
185.9757416161443
 10
127.32100051302473
 20
185.39321797038357
 10
127.30473442775337
 20
184.81069432462283
 10
127.28776053343336
 20
184.2281706788621
 10
127.27007875493939
 20
183.64564703310137
 10
127.25168901400207
 20
183.06312338734065
 10
127.23259122920564
 20
182.4805997415799
 10
127.2127853159866
 20
181.8980760958192
 10
127.19227118663161
 20
181.31555245005845
 10
127.17104875027576
 20
180.73302880429773
 10
127.1491179129003
 20
180.150505158537
 10
127.12647857733066
 20
179.56798151277627
 10
127.1031306432343
 20
178.98545786701553
 10
127.0790740071186
 20
178.40293422125478
 10
127.0543085623284
 20
177.82041057549407
 10
127.02883419904356
 20
177.23788692973335
 10
127.00265080427664
 20
176.6553632839726
 10
126.97575826187062
 20
176.0728396382119
 10
126.94815645249594
 20
175.49031599245114
 10
126.91984525364785
 20
174.90779234669043
 10
126.89082453964392
 20
174.32526870092968
 10
126.86109418162118
 20
173.74274505516897
 10
126.8306540475333
 20
173.16022140940822
 10
126.79950400214733
 20
172.5776977636475
 10
126.76764390704102
 20
171.99517411788676
 10
126.73507362059968
 20
171.41265047212605
 10
126.70179299801288
 20
170.8301268263653
 10
126.66780189127127
 20
170.24760318060459
 10
126.63310014916351
 20
169.66507953484384
 10
126.59768761727247
 20
169.08255588908312
 10
126.56156413797203
 20
168.50003224332238
 10
126.52472955042356
 20
167.91750859756166
 10
126.48718369057246
 20
167.33498495180092
 10
126.44892639114397
 20
166.75246130604017
 10
126.40995748163999
 20
166.16993766027946
 10
126.37027678833493
 20
165.58741401451874
 10
126.32988413427199
 20
165.004890368758
 10
126.28877933925912
 20
164.42236672299728
 10
126.24696221986477
 20
163.83984307723654
 10
126.2044325894143
 20
163.25731943147582
 10
126.16119025798525
 20
162.67479578571508
 10
126.1172350324033
 20
162.09227213995433
 10
126.07256671623799
 20
161.50974849419362
 10
126.02718510979793
 20
160.9272248484329
 10
125.98109001012699
 20
160.34470120267216
 10
125.93428121099896
 20
159.76217755691144
 10
125.8867585029135
 20
159.1796539111507
 10
125.83852167309101
 20
158.59713026538998
 10
125.78957050546796
 20
158.01460661962923
 10
125.7399047806922
 20
157.4320829738685
 10
125.68952427611765
 20
156.84955932810777
 10
125.63842876579957
 20
156.26703568234706
 10
125.58661802048914
 20
155.6845120365863
 10
125.53409180762856
 20
155.10198839082557
 10
125.48084989134577
 20
154.51946474506485
 10
125.42689203244856
 20
153.93694109930414
 10
125.37221798842006
 20
153.3544174535434
 10
125.31682751341236
 20
152.77189380778265
 10
125.26072035824154
 20
152.18937016202193
 10
125.20389627038145
 20
151.60684651626121
 10
125.14635499395848
 20
151.02432287050047
 10
125.08809626974539
 20
150.44179922473975
 10
125.0291198351556
 20
149.859275578979
 10
124.96942542423699
 20
149.2767519332183
 10
124.9090127676659
 20
148.69422828745755
 10
124.84788159274103
 20
148.11170464169683
 10
124.78603162337731
 20
147.5291809959361
 10
124.72346258009918
 20
146.94665735017537
 10
124.66017418003463
 20
146.36413370441463
 10
124.59616613690838
 20
145.78161005865388
 10
124.53143816103551
 20
145.19908641289317
 10
124.46598995931475
 20
144.61656276713245
 10
124.39982123522151
 20
144.0340391213717
 10
124.33293168880158
 20
143.45151547561096
 10
124.26532101666356
 20
142.86899182985024
 10
124.19698891197243
 20
142.28646818408953
 10
124.12793506444206
 20
141.70394453832878
 10
124.05815916032827
 20
141.12142089256804
 10
123.9876608824215
 20
140.53889724680732
 10
86.72161903018701
 20
140.53889724680732
  0
HATCH
  5
80
330
17
100
AcDbEntity
  8
OUTLINE
 62
7
100
AcDbHatch
 10
0.0
 20
0.0
 30
0.0
210
0.0
220
0.0
230
1.0
  2
ANSI31
 70
0
 71
0
 91
1
 92
3
 72
0
 73
1
 93
402
 10
86.72161903018701
 20
140.53889724680732
 10
86.63674717327581
 20
141.12142089256804
 10
86.55275052553822
 20
141.70394453832878
 10
86.46962853008768
 20
142.28646818408953
 10
86.38738063630171
 20
142.86899182985024
 10
86.30600629980296
 20
143.45151547561096
 10
86.22550498244038
 20
144.0340391213717
 10
86.14587615227174
 20
144.61656276713245
 10
86.06711928354491
 20
145.19908641289317
 10
85.98923385668024
 20
145.78161005865388
 10
85.91221935825342
 20
146.36413370441463
 10
85.83607528097764
 20
146.94665735017537
 10
85.76080112368669
 20
147.5291809959361
 10
85.68639639131811
 20
148.11170464169683
 10
85.61286059489686
 20
148.69422828745755
 10
85.54019325151825
 20
149.2767519332183
 10
85.46839388433216
 20
149.859275578979
 10
85.39746202252724
 20
150.44179922473975
 10
85.32739720131474
 20
151.02432287050047
 10
85.25819896191342
 20
151.60684651626121
 10
85.18986685153362
 20
152.18937016202193
 10
85.1224004233631
 20
152.77189380778265
 10
85.05579923655125
 20
153.3544174535434
 10
84.99006285619487
 20
153.93694109930414
 10
84.92519085332401
 20
154.51946474506485
 10
84.86118280488688
 20
155.10198839082557
 10
84.79803829373674
 20
155.6845120365863
 10
84.73575690861759
 20
156.26703568234706
 10
84.67433824415076
 20
156.84955932810777
 10
84.61378190082132
 20
157.4320829738685
 10
84.55408748496507
 20
158.01460661962923
 10
84.49525460875554
 20
158.59713026538998
 10
84.43728289019123
 20
159.1796539111507
 10
84.38017195308294
 20
159.76217755691144
 10
84.3239214270414
 20
160.34470120267216
 10
84.26853094746536
 20
160.9272248484329
 10
84.21400015552928
 20
161.50974849419362
 10
84.1603286981719
 20
162.09227213995433
 10
84.10751622808425
 20
162.67479578571508
 10
84.05556240369873
 20
163.25731943147582
 10
84.0044668891777
 20
163.83984307723654
 10
83.95422935440268
 20
164.42236672299728
 10
83.90484947496327
 20
165.004890368758
 10
83.856326932147
 20
165.58741401451874
 10
83.80866141292853
 20
166.16993766027946
 10
83.76185260995965
 20
166.75246130604017
 10
83.71590022155942
 20
167.33498495180092
 10
83.67080395170422
 20
167.91750859756166
 10
83.62656351001795
 20
168.50003224332238
 10
83.58317861176295
 20
169.08255588908312
 10
83.54064897783059
 20
169.66507953484384
 10
83.49897433473222
 20
170.24760318060459
 10
83.45815441459041
 20
170.8301268263653
 10
83.41818895513018
 20
171.41265047212605
 10
83.37907769967057
 20
171.99517411788676
 10
83.34082039711626
 20
172.5776977636475
 10
83.30341680194971
 20
173.16022140940822
 10
83.2668666742228
 20
173.74274505516897
 10
83.23116977954965
 20
174.32526870092968
 10
83.19632588909843
 20
174.90779234669043
 10
83.16233477958463
 20
175.49031599245114
 10
83.12919623326349
 20
176.0728396382119
 10
83.09691003792295
 20
176.6553632839726
 10
83.06547598687712
 20
177.23788692973335
 10
83.03489387895922
 20
177.82041057549407
 10
83.0051635185157
 20
178.40293422125478
 10
82.9762847153994
 20
178.98545786701553
 10
82.94825728496369
 20
179.56798151277627
 10
82.92108104805646
 20
180.150505158537
 10
82.89475583101466
 20
180.73302880429773
 10
82.86928146565839
 20
181.31555245005845
 10
82.84465778928552
 20
181.8980760958192
 10
82.82088464466693
 20
182.4805997415799
 10
82.79796188004087
 20
183.06312338734065
 10
82.77588934910841
 20
183.64564703310137
 10
82.75466691102889
 20
184.2281706788621
 10
82.73429443041516
 20
184.81069432462283
 10
82.71477177732936
 20
185.39321797038357
 10
82.69609882727877
 20
185.9757416161443
 10
82.67827546121191
 20
186.55826526190504
 10
82.66130156551458
 20
187.14078890766575
 10
82.64517703200636
 20
187.72331255342647
 10
82.62990175793715
 20
188.3058361991872
 10
82.61547564598368
 20
188.88835984494796
 10
82.60189860424691
 20
189.47088349070867
 10
82.58917054624851
 20
190.05340713646942
 10
82.57729139092834
 20
190.63593078223013
 10
82.56626106264224
 20
191.21845442799088
 10
82.55607949115887
 20
191.8009780737516
 10
82.5467466116582
 20
192.38350171951234
 10
82.53826236472884
 20
192.96602536527305
 10
82.53062669636671
 20
193.5485490110338
 10
82.52383955797296
 20
194.13107265679452
 10
82.51790090635234
 20
194.71359630255526
 10
82.51281070371226
 20
195.29611994831598
 10
82.50856891766108
 20
195.87864359407672
 10
82.50517552120755
 20
196.46116723983744
 10
82.50263049275952
 20
197.04369088559818
 10
82.50093381612362
 20
197.6262145313589
 10
82.50008548050448
 20
198.20873817711964
 10
82.50008548050448
 20
198.79126182288036
 10
82.50093381612362
 20
199.3737854686411
 10
82.50263049275952
 20
199.95630911440182
 10
82.50517552120755
 20
200.53883276016256
 10
82.50856891766108
 20
201.12135640592328
 10
82.51281070371226
 20
201.70388005168402
 10
82.51790090635234
 20
202.28640369744474
 10
82.52383955797296
 20
202.86892734320548
 10
82.53062669636671
 20
203.4514509889662
 10
82.53826236472884
 20
204.03397463472695
 10
82.5467466116582
 20
204.61649828048766
 10
82.55607949115887
 20
205.1990219262484
 10
82.56626106264224
 20
205.78154557200912
 10
82.57729139092834
 20
206.36406921776987
 10
82.58917054624851
 20
206.94659286353058
 10
82.60189860424691
 20
207.52911650929133
 10
82.61547564598368
 20
208.11164015505204
 10
82.62990175793715
 20
208.6941638008128
 10
82.64517703200636
 20
209.2766874465735
 10
82.66130156551458
 20
209.85921109233425
 10
82.67827546121191
 20
210.44173473809496
 10
82.69609882727877
 20
211.0242583838557
 10
82.71477177732936
 20
211.60678202961643
 10
82.73429443041516
 20
212.18930567537717
 10
82.75466691102889
 20
212.7718293211379
 10
82.77588934910841
 20
213.35435296689863
 10
82.79796188004087
 20
213.93687661265935
 10
82.82088464466693
 20
214.5194002584201
 10
82.84465778928552
 20
215.1019239041808
 10
82.86928146565839
 20
215.68444754994155
 10
82.89475583101466
 20
216.26697119570227
 10
82.92108104805646
 20
216.849494841463
 10
82.94825728496369
 20
217.43201848722373
 10
82.9762847153994
 20
218.01454213298447
 10
83.0051635185157
 20
218.5970657787452
 10
83.03489387895922
 20
219.17958942450593
 10
83.06547598687712
 20
219.76211307026665
 10
83.09691003792295
 20
220.3446367160274
 10
83.12919623326349
 20
220.9271603617881
 10
83.16233477958463
 20
221.50968400754886
 10
83.19632588909843
 20
222.09220765330957
 10
83.23116977954965
 20
222.67473129907032
 10
83.2668666742228
 20
223.25725494483103
 10
83.30341680194971
 20
223.83977859059178
 10
83.34082039711626
 20
224.4223022363525
 10
83.37907769967057
 20
225.0048258821132
 10
83.41818895513018
 20
225.58734952787395
 10
83.45815441459041
 20
226.1698731736347
 10
83.49897433473222
 20
226.75239681939541
 10
83.54064897783059
 20
227.33492046515616
 10
83.58317861176295
 20
227.91744411091688
 10
83.62656351001795
 20
228.49996775667762
 10
83.67080395170422
 20
229.08249140243834
 10
83.71590022155942
 20
229.66501504819908
 10
83.76185260995965
 20
230.24753869395983
 10
83.80866141292853
 20
230.83006233972054
 10
83.856326932147
 20
231.41258598548126
 10
83.90484947496327
 20
231.99510963124197
 10
83.95422935440263
 20
232.57763327700272
 10
84.0044668891777
 20
233.16015692276346
 10
84.05556240369873
 20
233.74268056852418
 10
84.10751622808425
 20
234.32520421428492
 10
84.1603286981719
 20
234.90772786004564
 10
84.21400015552928
 20
235.49025150580638
 10
84.26853094746536
 20
236.0727751515671
 10
84.3239214270414
 20
236.65529879732782
 10
84.38017195308294
 20
237.23782244308856
 10
84.43728289019123
 20
237.8203460888493
 10
84.49525460875554
 20
238.40286973461002
 10
84.55408748496507
 20
238.98539338037077
 10
84.61378190082132
 20
239.56791702613148
 10
84.67433824415076
 20
240.15044067189223
 10
84.73575690861759
 20
240.73296431765294
 10
84.79803829373674
 20
241.3154879634137
 10
84.86118280488688
 20
241.89801160917443
 10
84.92519085332401
 20
242.48053525493515
 10
84.99006285619487
 20
243.06305890069586
 10
85.05579923655125
 20
243.64558254645658
 10
85.1224004233631
 20
244.22810619221733
 10
85.18986685153362
 20
244.81062983797807
 10
85.25819896191342
 20
245.39315348373879
 10
85.32739720131474
 20
245.97567712949953
 10
85.39746202252724
 20
246.55820077526025
 10
85.46839388433216
 20
247.140724421021
 10
85.54019325151825
 20
247.7232480667817
 10
85.61286059489686
 20
248.30577171254242
 10
85.68639639131811
 20
248.88829535830317
 10
85.76080112368663
 20
249.4708190040639
 10
85.83607528097764
 20
250.05334264982463
 10
85.91221935825342
 20
250.63586629558537
 10
85.98923385668024
 20
251.2183899413461
 10
86.06711928354491
 20
251.80091358710683
 10
86.14587615227174
 20
252.38343723286755
 10
86.22550498244038
 20
252.9659608786283
 10
86.30600629980296
 20
253.54848452438904
 10
86.38738063630171
 20
254.13100817014976
 10
86.46962853008768
 20
254.71353181591047
 10
86.55275052553822
 20
255.29605546167122
 10
86.63674717327581
 20
255.87857910743193
 10
86.72161903018701
 20
256.4611027531927
 10
123.9876608824215
 20
256.4611027531927
 10
123.9876608824215
 20
256.4611027531927
 10
124.05815916032827
 20
255.87857910743193
 10
124.12793506444206
 20
255.29605546167122
 10
124.19698891197243
 20
254.71353181591047
 10
124.26532101666356
 20
254.13100817014976
 10
124.33293168880158
 20
253.54848452438904
 10
124.39982123522151
 20
252.9659608786283
 10
124.46598995931475
 20
252.38343723286755
 10
124.53143816103551
 20
251.80091358710683
 10
124.59616613690838
 20
251.2183899413461
 10
124.66017418003463
 20
250.63586629558537
 10
124.72346258009918
 20
250.05334264982463
 10
124.78603162337731
 20
249.4708190040639
 10
124.84788159274103
 20
248.88829535830317
 10
124.9090127676659
 20
248.30577171254242
 10
124.96942542423699
 20
247.7232480667817
 10
125.0291198351556
 20
247.140724421021
 10
125.08809626974539
 20
246.55820077526025
 10
125.14635499395848
 20
245.97567712949953
 10
125.20389627038145
 20
245.39315348373879
 10
125.26072035824154
 20
244.81062983797807
 10
125.31682751341236
 20
244.22810619221733
 10
125.37221798842006
 20
243.64558254645658
 10
125.42689203244856
 20
243.06305890069586
 10
125.48084989134577
 20
242.48053525493515
 10
125.53409180762856
 20
241.89801160917443
 10
125.58661802048914
 20
241.3154879634137
 10
125.63842876579957
 20
240.73296431765294
 10
125.68952427611765
 20
240.15044067189223
 10
125.7399047806922
 20
239.56791702613148
 10
125.78957050546796
 20
238.98539338037077
 10
125.83852167309101
 20
238.40286973461002
 10
125.8867585029135
 20
237.8203460888493
 10
125.93428121099896
 20
237.23782244308856
 10
125.98109001012699
 20
236.65529879732782
 10
126.02718510979793
 20
236.0727751515671
 10
126.07256671623799
 20
235.49025150580638
 10
126.1172350324033
 20
234.90772786004564
 10
126.16119025798525
 20
234.32520421428492
 10
126.2044325894143
 20
233.74268056852418
 10
126.24696221986477
 20
233.16015692276346
 10
126.28877933925912
 20
232.57763327700272
 10
126.32988413427199
 20
231.99510963124197
 10
126.37027678833493
 20
231.41258598548126
 10
126.40995748163999
 20
230.83006233972054
 10
126.44892639114397
 20
230.24753869395983
 10
126.48718369057246
 20
229.66501504819908
 10
126.52472955042356
 20
229.08249140243834
 10
126.56156413797203
 20
228.49996775667762
 10
126.59768761727247
 20
227.91744411091688
 10
126.63310014916351
 20
227.33492046515616
 10
126.66780189127127
 20
226.75239681939541
 10
126.70179299801288
 20
226.1698731736347
 10
126.73507362059968
 20
225.58734952787395
 10
126.76764390704102
 20
225.0048258821132
 10
126.79950400214733
 20
224.4223022363525
 10
126.8306540475333
 20
223.83977859059178
 10
126.86109418162118
 20
223.25725494483103
 10
126.89082453964392
 20
222.67473129907032
 10
126.91984525364785
 20
222.09220765330957
 10
126.94815645249594
 20
221.50968400754886
 10
126.97575826187062
 20
220.9271603617881
 10
127.00265080427664
 20
220.3446367160274
 10
127.02883419904356
 20
219.76211307026665
 10
127.0543085623284
 20
219.17958942450593
 10
127.0790740071186
 20
218.5970657787452
 10
127.1031306432343
 20
218.01454213298447
 10
127.12647857733066
 20
217.43201848722373
 10
127.1491179129003
 20
216.849494841463
 10
127.17104875027576
 20
216.26697119570227
 10
127.19227118663161
 20
215.68444754994155
 10
127.2127853159866
 20
215.1019239041808
 10
127.23259122920564
 20
214.5194002584201
 10
127.25168901400207
 20
213.93687661265935
 10
127.27007875493939
 20
213.35435296689863
 10
127.28776053343336
 20
212.7718293211379
 10
127.30473442775337
 20
212.18930567537717
 10
127.32100051302473
 20
211.60678202961643
 10
127.33655886122995
 20
211.0242583838557
 10
127.35140954121039
 20
210.44173473809496
 10
127.365552618668
 20
209.85921109233425
 10
127.37898815616649
 20
209.2766874465735
 10
127.3917162131329
 20
208.6941638008128
 10
127.40373684585893
 20
208.11164015505204
 10
127.41505010750183
 20
207.52911650929133
 10
127.42565604808624
 20
206.94659286353058
 10
127.43555471450463
 20
206.36406921776987
 10
127.44474615051882
 20
205.78154557200912
 10
127.45323039676055
 20
205.1990219262484
 10
127.46100749073281
 20
204.61649828048766
 10
127.46807746681026
 20
204.03397463472695
 10
127.47444035624017
 20
203.4514509889662
 10
127.4800961871432
 20
202.86892734320548
 10
127.48504498451405
 20
202.28640369744474
 10
127.4892867702215
 20
201.70388005168402
 10
127.49282156300973
 20
201.12135640592328
 10
127.495649378498
 20
200.53883276016256
 10
127.49777022918141
 20
199.95630911440182
 10
127.49918412443088
 20
199.3737854686411
 10
127.4998910704939
 20
198.79126182288036
 10
127.4998910704939
 20
198.20873817711964
 10
127.49918412443088
 20
197.6262145313589
 10
127.49777022918141
 20
197.04369088559818
 10
127.495649378498
 20
196.46116723983744
 10
127.49282156300973
 20
195.87864359407672
 10
127.4892867702215
 20
195.29611994831598
 10
127.48504498451405
 20
194.71359630255526
 10
127.4800961871432
 20
194.13107265679452
 10
127.47444035624017
 20
193.5485490110338
 10
127.46807746681026
 20
192.96602536527305
 10
127.46100749073281
 20
192.38350171951234
 10
127.45323039676055
 20
191.8009780737516
 10
127.44474615051882
 20
191.21845442799088
 10
127.43555471450463
 20
190.63593078223013
 10
127.42565604808624
 20
190.05340713646942
 10
127.41505010750183
 20
189.47088349070867
 10
127.40373684585893
 20
188.88835984494796
 10
127.3917162131329
 20
188.3058361991872
 10
127.37898815616649
 20
187.72331255342647
 10
127.365552618668
 20
187.14078890766575
 10
127.35140954121039
 20
186.55826526190504
 10
127.33655886122995
 20
185.9757416161443
 10
127.32100051302473
 20
185.39321797038357
 10
127.30473442775337
 20
184.81069432462283
 10
127.28776053343336
 20
184.2281706788621
 10
127.27007875493939
 20
183.64564703310137
 10
127.25168901400207
 20
183.06312338734065
 10
127.23259122920564
 20
182.4805997415799
 10
127.2127853159866
 20
181.8980760958192
 10
127.19227118663161
 20
181.31555245005845
 10
127.17104875027576
 20
180.73302880429773
 10
127.1491179129003
 20
180.150505158537
 10
127.12647857733066
 20
179.56798151277627
 10
127.1031306432343
 20
178.98545786701553
 10
127.0790740071186
 20
178.40293422125478
 10
127.0543085623284
 20
177.82041057549407
 10
127.02883419904356
 20
177.23788692973335
 10
127.00265080427664
 20
176.6553632839726
 10
126.97575826187062
 20
176.0728396382119
 10
126.94815645249594
 20
175.49031599245114
 10
126.91984525364785
 20
174.90779234669043
 10
126.89082453964392
 20
174.32526870092968
 10
126.86109418162118
 20
173.74274505516897
 10
126.8306540475333
 20
173.16022140940822
 10
126.79950400214733
 20
172.5776977636475
 10
126.76764390704102
 20
171.99517411788676
 10
126.73507362059968
 20
171.41265047212605
 10
126.70179299801288
 20
170.8301268263653
 10
126.66780189127127
 20
170.24760318060459
 10
126.63310014916351
 20
169.66507953484384
 10
126.59768761727247
 20
169.08255588908312
 10
126.56156413797203
 20
168.50003224332238
 10
126.52472955042356
 20
167.91750859756166
 10
126.48718369057246
 20
167.33498495180092
 10
126.44892639114397
 20
166.75246130604017
 10
126.40995748163999
 20
166.16993766027946
 10
126.37027678833493
 20
165.58741401451874
 10
126.32988413427199
 20
165.004890368758
 10
126.28877933925912
 20
164.42236672299728
 10
126.24696221986477
 20
163.83984307723654
 10
126.2044325894143
 20
163.25731943147582
 10
126.16119025798525
 20
162.67479578571508
 10
126.1172350324033
 20
162.09227213995433
 10
126.07256671623799
 20
161.50974849419362
 10
126.02718510979793
 20
160.9272248484329
 10
125.98109001012699
 20
160.34470120267216
 10
125.93428121099896
 20
159.76217755691144
 10
125.8867585029135
 20
159.1796539111507
 10
125.83852167309101
 20
158.59713026538998
 10
125.78957050546796
 20
158.01460661962923
 10
125.7399047806922
 20
157.4320829738685
 10
125.68952427611765
 20
156.84955932810777
 10
125.63842876579957
 20
156.26703568234706
 10
125.58661802048914
 20
155.6845120365863
 10
125.53409180762856
 20
155.10198839082557
 10
125.48084989134577
 20
154.51946474506485
 10
125.42689203244856
 20
153.93694109930414
 10
125.37221798842006
 20
153.3544174535434
 10
125.31682751341236
 20
152.77189380778265
 10
125.26072035824154
 20
152.18937016202193
 10
125.20389627038145
 20
151.60684651626121
 10
125.14635499395848
 20
151.02432287050047
 10
125.08809626974539
 20
150.44179922473975
 10
125.0291198351556
 20
149.859275578979
 10
124.96942542423699
 20
149.2767519332183
 10
124.9090127676659
 20
148.69422828745755
 10
124.84788159274103
 20
148.11170464169683
 10
124.78603162337731
 20
147.5291809959361
 10
124.72346258009918
 20
146.94665735017537
 10
124.66017418003463
 20
146.36413370441463
 10
124.59616613690838
 20
145.78161005865388
 10
124.53143816103551
 20
145.19908641289317
 10
124.46598995931475
 20
144.61656276713245
 10
124.39982123522151
 20
144.0340391213717
 10
124.33293168880158
 20
143.45151547561096
 10
124.26532101666356
 20
142.86899182985024
 10
124.19698891197243
 20
142.28646818408953
 10
124.12793506444206
 20
141.70394453832878
 10
124.05815916032827
 20
141.12142089256804
 10
123.9876608824215
 20
140.53889724680732
 10
86.72161903018701
 20
140.53889724680732
 97
0
 75
1
 76
1
 52
0.0
 41
1.0
 77
0
 78
1
 53
45.0
 43
0.0
 44
0.0
 45
-2.2450640303
 46
2.2450640303
 79
0
 98
0
  0
LINE
  5
81
330
17
100
AcDbEntity
  8
DIMS
100
AcDbLine
 10
82.49997943867857
 20
139.03889724680732
 30
0.0
 11
82.49997943867857
 21
132.53889724680732
 31
0.0
  0
LINE
  5
82
330
17
100
AcDbEntity
  8
DIMS
100
AcDbLine
 10
127.49997943867857
 20
139.03889724680732
 30
0.0
 11
127.49997943867857
 21
132.53889724680732
 31
0.0
  0
LINE
  5
83
330
17
100
AcDbEntity
  8
DIMS
100
AcDbLine
 10
82.49997943867857
 20
132.53889724680732
 30
0.0
 11
127.49997943867857
 21
132.53889724680732
 31
0.0
  0
SOLID
  5
84
330
17
100
AcDbEntity
  8
DIMS
100
AcDbTrace
 10
82.49997943867857
 20
132.53889724680732
 30
0.0
 11
84.99997943867857
 21
131.7388972468073
 31
0.0
 12
84.99997943867857
 22
133.33889724680733
 32
0.0
 13
84.99997943867857
 23
133.33889724680733
 33
0.0
  0
SOLID
  5
85
330
17
100
AcDbEntity
  8
DIMS
100
AcDbTrace
 10
127.49997943867857
 20
132.53889724680732
 30
0.0
 11
124.99997943867857
 21
133.33889724680733
 31
0.0
 12
124.99997943867857
 22
131.7388972468073
 32
0.0
 13
124.99997943867857
 23
131.7388972468073
 33
0.0
  0
TEXT
  5
86
330
17
100
AcDbEntity
  8
DIMS
100
AcDbText
 10
104.99997943867857
 20
128.53889724680732
 30
0.0
 40
2.5
  1
4.50
 72
4
 11
104.99997943867857
 21
128.53889724680732
 31
0.0
100
AcDbText
 73
3
  0
LINE
  5
87
330
17
100
AcDbEntity
  8
DIMS
100
AcDbLine
 10
123.9876608824215
 20
256.4611027531927
 30
0.0
 11
139.49991451949552
 21
256.4611027531927
 31
0.0
  0
LINE
  5
88
330
17
100
AcDbEntity
  8
DIMS
100
AcDbLine
 10
86.72161903018701
 20
140.53889724680732
 30
0.0
 11
139.49991451949552
 21
140.53889724680732
 31
0.0
  0
LINE
  5
89
330
17
100
AcDbEntity
  8
DIMS
100
AcDbLine
 10
137.49991451949552
 20
256.4611027531927
 30
0.0
 11
137.49991451949552
 21
140.53889724680732
 31
0.0
  0
SOLID
  5
8A
330
17
100
AcDbEntity
  8
DIMS
100
AcDbTrace
 10
137.49991451949552
 20
256.4611027531927
 30
0.0
 11
136.6999145194955
 21
253.96110275319268
 31
0.0
 12
138.29991451949553
 22
253.96110275319268
 32
0.0
 13
138.29991451949553
 23
253.96110275319268
 33
0.0
  0
SOLID
  5
8B
330
17
100
AcDbEntity
  8
DIMS
100
AcDbTrace
 10
137.49991451949552
 20
140.53889724680732
 30
0.0
 11
138.29991451949553
 21
143.03889724680732
 31
0.0
 12
136.6999145194955
 22
143.03889724680732
 32
0.0
 13
136.6999145194955
 23
143.03889724680732
 33
0.0
  0
TEXT
  5
8C
330
17
100
AcDbEntity
  8
DIMS
100
AcDbText
 10
140.49991451949552
 20
198.5
 30
0.0
 40
2.5
  1
Ø 11.59
100
AcDbText
 73
2
  0
LINE
  5
8D
330
17
100
AcDbEntity
  8
DIMS
100
AcDbLine
 10
86.72161903018701
 20
257.9611027531927
 30
0.0
 11
86.72161903018701
 21
264.4611027531927
 31
0.0
  0
LINE
  5
8E
330
17
100
AcDbEntity
  8
DIMS
100
AcDbLine
 10
123.9876608824215
 20
257.9611027531927
 30
0.0
 11
123.9876608824215
 21
264.4611027531927
 31
0.0
  0
LINE
  5
8F
330
17
100
AcDbEntity
  8
DIMS
100
AcDbLine
 10
86.72161903018701
 20
264.4611027531927
 30
0.0
 11
123.9876608824215
 21
264.4611027531927
 31
0.0
  0
SOLID
  5
90
330
17
100
AcDbEntity
  8
DIMS
100
AcDbTrace
 10
86.72161903018701
 20
264.4611027531927
 30
0.0
 11
89.22161903018701
 21
263.66110275319267
 31
0.0
 12
89.22161903018701
 22
265.2611027531927
 32
0.0
 13
89.22161903018701
 23
265.2611027531927
 33
0.0
  0
SOLID
  5
91
330
17
100
AcDbEntity
  8
DIMS
100
AcDbTrace
 10
123.9876608824215
 20
264.4611027531927
 30
0.0
 11
121.4876608824215
 21
265.2611027531927
 31
0.0
 12
121.4876608824215
 22
263.66110275319267
 32
0.0
 13
121.4876608824215
 23
263.66110275319267
 33
0.0
  0
TEXT
  5
92
330
17
100
AcDbEntity
  8
DIMS
100
AcDbText
 10
105.35463995630425
 20
266.4611027531927
 30
0.0
 40
2.5
  1
(3.73)
 72
4
 11
105.35463995630425
 21
266.4611027531927
 31
0.0
100
AcDbText
 73
1
  0
LINE
  5
93
330
17
100
AcDbEntity
  8
DIMS
100
AcDbLine
 10
86.72161903018701
 20
256.4611027531927
 30
0.0
 11
83.72161903018701
 21
256.4611027531927
 31
0.0
  0
LINE
  5
94
330
17
100
AcDbEntity
  8
DIMS
100
AcDbLine
 10
86.72161903018701
 20
140.53889724680732
 30
0.0
 11
83.72161903018701
 21
140.53889724680732
 31
0.0
  0
LINE
  5
95
330
17
100
AcDbEntity
  8
DIMS
100
AcDbLine
 10
83.72161903018701
 20
140.53889724680732
 30
0.0
 11
83.72161903018701
 21
256.4611027531927
 31
0.0
  0
TEXT
  5
96
330
17
100
AcDbEntity
  8
DIMS
100
AcDbText
 10
82.72161903018701
 20
198.5
 30
0.0
 40
2.0
  1
Øₑ 11.59
 72
2
 11
82.72161903018701
 21
198.5
 31
0.0
100
AcDbText
 73
2
  0
LINE
  5
97
330
17
100
AcDbEntity
  8
DIMS
100
AcDbLine
 10
124.92219318757162
 20
248.17926951059434
 30
0.0
 11
127.92219318757162
 21
248.17926951059434
 31
0.0
  0
LINE
  5
98
330
17
100
AcDbEntity
  8
DIMS
100
AcDbLine
 10
124.92219318757162
 20
148.82073048940566
 30
0.0
 11
127.92219318757162
 21
148.82073048940566
 31
0.0
  0
LINE
  5
99
330
17
100
AcDbEntity
  8
DIMS
100
AcDbLine
 10
127.92219318757162
 20
148.82073048940566
 30
0.0
 11
127.92219318757162
 21
248.17926951059434
 31
0.0
  0
TEXT
  5
9A
330
17
100
AcDbEntity
  8
DIMS
100
AcDbText
 10
128.92219318757162
 20
198.5
 30
0.0
 40
2.0
  1
Øₑ 9.94
 11
128.92219318757162
 21
198.5
 31
0.0
100
AcDbText
 73
2
  0
LWPOLYLINE
  5
9B
330
17
100
AcDbEntity
  8
CALLOUT
100
AcDbPolyline
 90
3
 70
1
 10
85.54561318845646
 20
247.76693734021376
 10
81.46667355826287
 20
246.04182263926327
 10
82.01215008643025
 20
250.43684496524645
  0
LINE
  5
9C
330
17
100
AcDbEntity
  8
CALLOUT
100
AcDbLine
 10
85.54561318845646
 20
247.76693734021376
 30
0.0
 11
78.43673209919984
 21
253.1219089034778
 31
0.0
  0
LINE
  5
9D
330
17
100
AcDbEntity
  8
CALLOUT
100
AcDbLine
 10
78.45927465955971
 20
253.06702267785306
 30
0.0
 11
78.79510828724393
 21
255.7729068273451
 31
0.0
  0
TEXT
  5
9E
330
17
100
AcDbEntity
  8
CALLOUT
100
AcDbText
 10
78.97985930226973
 20
257.26148570078345
 30
0.0
 40
2.0
  1
S1
 72
4
 11
78.97985930226973
 21
257.26148570078345
 31
0.0
100
AcDbText
 73
2
  0
LWPOLYLINE
  5
9F
330
17
100
AcDbEntity
  8
CALLOUT
100
AcDbPolyline
 90
3
 70
1
 10
126.0191699784366
 20
236.17471678957526
 10
129.66893832036658
 20
238.68329413309985
 10
130.01654591184578
 20
234.26821374300297
  0
LINE
  5
A0
330
17
100
AcDbEntity
  8
CALLOUT
100
AcDbLine
 10
126.0191699784366
 20
236.17471678957526
 30
0.0
 11
134.0580647964767
 21
232.35528216007256
 31
0.0
  0
LINE
  5
A1
330
17
100
AcDbEntity
  8
CALLOUT
100
AcDbLine
 10
134.02496631839585
 20
232.40452802832198
 30
0.0
 11
134.23897794388088
 21
229.68629472705564
 31
0.0
  0
TEXT
  5
A2
330
17
100
AcDbEntity
  8
CALLOUT
100
AcDbText
 10
134.35671143384832
 20
228.1909222566189
 30
0.0
 40
2.0
  1
S2
 72
4
 11
134.35671143384832
 21
228.1909222566189
 31
0.0
100
AcDbText
 73
2
  0
ENDSEC
  0
SECTION
  2
OBJECTS
  0
DICTIONARY
  5
A
330
0
100
AcDbDictionary
281
1
  3
ACAD_COLOR
350
B
  3
ACAD_GROUP
350
C
  3
ACAD_LAYOUT
350
D
  3
ACAD_MATERIAL
350
E
  3
ACAD_MLEADERSTYLE
350
F
  3
ACAD_MLINESTYLE
350
10
  3
ACAD_PLOTSETTINGS
350
11
  3
ACAD_PLOTSTYLENAME
350
12
  3
ACAD_SCALELIST
350
14
  3
ACAD_TABLESTYLE
350
15
  3
ACAD_VISUALSTYLE
350
16
  3
EZDXF_META
350
2D
  0
DICTIONARY
  5
B
330
A
100
AcDbDictionary
281
1
  0
DICTIONARY
  5
C
330
A
100
AcDbDictionary
281
1
  0
DICTIONARY
  5
D
330
A
100
AcDbDictionary
281
1
  3
Model
350
1A
  3
Layout1
350
1E
  0
DICTIONARY
  5
E
330
A
100
AcDbDictionary
281
1
  3
ByBlock
350
1F
  3
ByLayer
350
20
  3
Global
350
21
  0
DICTIONARY
  5
F
330
A
100
AcDbDictionary
281
1
  3
Standard
350
2C
  0
DICTIONARY
  5
10
330
A
100
AcDbDictionary
281
1
  3
Standard
350
22
  0
DICTIONARY
  5
11
330
A
100
AcDbDictionary
281
1
  0
ACDBDICTIONARYWDFLT
  5
12
330
A
100
AcDbDictionary
281
1
  3
Normal
350
13
100
AcDbDictionaryWithDefault
340
13
  0
ACDBPLACEHOLDER
  5
13
330
12
  0
DICTIONARY
  5
14
330
A
100
AcDbDictionary
281
1
  0
DICTIONARY
  5
15
330
A
100
AcDbDictionary
281
1
  0
DICTIONARY
  5
16
330
A
100
AcDbDictionary
281
1
  0
LAYOUT
  5
1A
330
D
100
AcDbPlotSettings
  1

  4
A3
  6

 40
7.5
 41
20.0
 42
7.5
 43
20.0
 44
420.0
 45
297.0
 46
0.0
 47
0.0
 48
0.0
 49
0.0
140
0.0
141
0.0
142
1.0
143
1.0
 70
1024
 72
1
 73
0
 74
5
  7

 75
16
 76
0
 77
2
 78
300
147
1.0
148
0.0
149
0.0
100
AcDbLayout
  1
Model
 70
1
 71
0
 10
0.0
 20
0.0
 11
420.0
 21
297.0
 12
0.0
 22
0.0
 32
0.0
 14
1e+20
 24
1e+20
 34
1e+20
 15
-1e+20
 25
-1e+20
 35
-1e+20
146
0.0
 13
0.0
 23
0.0
 33
0.0
 16
1.0
 26
0.0
 36
0.0
 17
0.0
 27
1.0
 37
0.0
 76
1
330
17
  0
LAYOUT
  5
1E
330
D
100
AcDbPlotSettings
  1

  4
A3
  6

 40
7.5
 41
20.0
 42
7.5
 43
20.0
 44
420.0
 45
297.0
 46
0.0
 47
0.0
 48
0.0
 49
0.0
140
0.0
141
0.0
142
1.0
143
1.0
 70
0
 72
1
 73
0
 74
5
  7

 75
16
 76
0
 77
2
 78
300
147
1.0
148
0.0
149
0.0
100
AcDbLayout
  1
Layout1
 70
1
 71
1
 10
0.0
 20
0.0
 11
420.0
 21
297.0
 12
0.0
 22
0.0
 32
0.0
 14
1e+20
 24
1e+20
 34
1e+20
 15
-1e+20
 25
-1e+20
 35
-1e+20
146
0.0
 13
0.0
 23
0.0
 33
0.0
 16
1.0
 26
0.0
 36
0.0
 17
0.0
 27
1.0
 37
0.0
 76
1
330
1B
  0
MATERIAL
  5
1F
102
{ACAD_REACTORS
330
E
102
}
330
E
100
AcDbMaterial
  1
ByBlock
  2

 70
0
 40
1.0
 71
1
 41
1.0
 91
-1023410177
 42
1.0
 72
1
  3

 73
1
 74
1
 75
1
 44
0.5
 73
0
 45
1.0
 46
1.0
 77
1
  4

 78
1
 79
1
170
1
 48
1.0
171
1
  6

172
1
173
1
174
1
140
1.0
141
1.0
175
1
  7

176
1
177
1
178
1
143
1.0
179
1
  8

270
1
271
1
272
1
145
1.0
146
1.0
273
1
  9

274
1
275
1
276
1
 42
1.0
 72
1
  3

 73
1
 74
1
 75
1
 94
63
  0
MATERIAL
  5
20
102
{ACAD_REACTORS
330
E
102
}
330
E
100
AcDbMaterial
  1
ByLayer
  2

 70
0
 40
1.0
 71
1
 41
1.0
 91
-1023410177
 42
1.0
 72
1
  3

 73
1
 74
1
 75
1
 44
0.5
 73
0
 45
1.0
 46
1.0
 77
1
  4

 78
1
 79
1
170
1
 48
1.0
171
1
  6

172
1
173
1
174
1
140
1.0
141
1.0
175
1
  7

176
1
177
1
178
1
143
1.0
179
1
  8

270
1
271
1
272
1
145
1.0
146
1.0
273
1
  9

274
1
275
1
276
1
 42
1.0
 72
1
  3

 73
1
 74
1
 75
1
 94
63
  0
MATERIAL
  5
21
102
{ACAD_REACTORS
330
E
102
}
330
E
100
AcDbMaterial
  1
Global
  2

 70
0
 40
1.0
 71
1
 41
1.0
 91
-1023410177
 42
1.0
 72
1
  3

 73
1
 74
1
 75
1
 44
0.5
 73
0
 45
1.0
 46
1.0
 77
1
  4

 78
1
 79
1
170
1
 48
1.0
171
1
  6

172
1
173
1
174
1
140
1.0
141
1.0
175
1
  7

176
1
177
1
178
1
143
1.0
179
1
  8

270
1
271
1
272
1
145
1.0
146
1.0
273
1
  9

274
1
275
1
276
1
 42
1.0
 72
1
  3

 73
1
 74
1
 75
1
 94
63
  0
MLINESTYLE
  5
22
102
{ACAD_REACTORS
330
10
102
}
330
10
100
AcDbMlineStyle
  2
Standard
 70
0
  3

 62
256
 51
90.0
 52
90.0
 71
2
 49
0.5
 62
256
  6
BYLAYER
 49
-0.5
 62
256
  6
BYLAYER
  0
MLEADERSTYLE
  5
2C
102
{ACAD_REACTORS
330
F
102
}
330
F
100
AcDbMLeaderStyle
179
2
170
2
171
1
172
0
 90
2
 40
0.0
 41
0.0
173
1
 91
-1056964608
 92
-2
290
1
 42
2.0
291
1
 43
8.0
  3
Standard
 44
4.0
300

342
29
174
1
175
1
176
0
178
1
 93
-1056964608
 45
4.0
292
0
297
0
 46
4.0
 94
-1056964608
 47
1.0
 49
1.0
140
1.0
294
1
141
0.0
177
0
142
1.0
295
0
296
0
143
3.75
271
0
272
9
273
9
  0
DICTIONARY
  5
2D
330
A
100
AcDbDictionary
280
1
281
1
  3
CREATED_BY_EZDXF
350
2E
  3
WRITTEN_BY_EZDXF
350
A5
  0
DICTIONARYVAR
  5
2E
330
2D
100
DictionaryVariables
280
0
  1
1.4.3 @ 2026-07-16T08:03:01.303170+00:00
  0
DICTIONARYVAR
  5
A5
330
2D
100
DictionaryVariables
280
0
  1
1.4.3 @ 2026-07-16T08:03:01.351095+00:00
  0
ENDSEC
  0
EOF
