  0
SECTION
  2
HEADER
  9
$ACADVER
  1
AC1024
  9
$ACADMAINTVER
 70
6
  9
$DWGCODEPAGE
  3
ANSI_1252
  9
$LASTSAVEDBY
  1
ezdxf
  9
$INSBASE
 10
0.0
 20
0.0
 30
0.0
  9
$EXTMIN
 10
0.0
 20
0.0
 30
0.0
  9
$EXTMAX
 10
210.0
 20
297.0
 30
0.0
  9
$LIMMIN
 10
0.0
 20
0.0
  9
$LIMMAX
 10
420.0
 20
297.0
  9
$ORTHOMODE
 70
0
  9
$REGENMODE
 70
1
  9
$FILLMODE
 70
1
  9
$QTEXTMODE
 70
0
  9
$MIRRTEXT
 70
1
  9
$LTSCALE
 40
1.0
  9
$ATTMODE
 70
1
  9
$TEXTSIZE
 40
2.5
  9
$TRACEWID
 40
1.0
  9
$TEXTSTYLE
  7
Standard
  9
$CLAYER
  8
0
  9
$CELTYPE
  6
ByLayer
  9
$CECOLOR
 62
256
  9
$CELTSCALE
 40
1.0
  9
$DISPSILH
 70
0
  9
$DIMSCALE
 40
1.0
  9
$DIMASZ
 40
2.5
  9
$DIMEXO
 40
0.625
  9
$DIMDLI
 40
3.75
  9
$DIMRND
 40
0.0
  9
$DIMDLE
 40
0.0
  9
$DIMEXE
 40
1.25
  9
$DIMTP
 40
0.0
  9
$DIMTM
 40
0.0
  9
$DIMTXT
 40
2.5
  9
$DIMCEN
 40
2.5
  9
$DIMTSZ
 40
0.0
  9
$DIMTOL
 70
0
  9
$DIMLIM
 70
0
  9
$DIMTIH
 70
0
  9
$DIMTOH
 70
0
  9
$DIMSE1
 70
0
  9
$DIMSE2
 70
0
  9
$DIMTAD
 70
1
  9
$DIMZIN
 70
8
  9
$DIMBLK
  1

  9
$DIMASO
 70
1
  9
$DIMSHO
 70
1
  9
$DIMPOST
  1

  9
$DIMAPOST
  1

  9
$DIMALT
 70
0
  9
$DIMALTD
 70
3
  9
$DIMALTF
 40
0.03937007874
  9
$DIMLFAC
 40
1.0
  9
$DIMTOFL
 70
1
  9
$DIMTVP
 40
0.0
  9
$DIMTIX
 70
0
  9
$DIMSOXD
 70
0
  9
$DIMSAH
 70
0
  9
$DIMBLK1
  1

  9
$DIMBLK2
  1

  9
$DIMSTYLE
  2
ISO-25
  9
$DIMCLRD
 70
0
  9
$DIMCLRE
 70
0
  9
$DIMCLRT
 70
0
  9
$DIMTFAC
 40
1.0
  9
$DIMGAP
 40
0.625
  9
$DIMJUST
 70
0
  9
$DIMSD1
 70
0
  9
$DIMSD2
 70
0
  9
$DIMTOLJ
 70
0
  9
$DIMTZIN
 70
8
  9
$DIMALTZ
 70
0
  9
$DIMALTTZ
 70
0
  9
$DIMUPT
 70
0
  9
$DIMDEC
 70
2
  9
$DIMTDEC
 70
2
  9
$DIMALTU
 70
2
  9
$DIMALTTD
 70
3
  9
$DIMTXSTY
  7
Standard
  9
$DIMAUNIT
 70
0
  9
$DIMADEC
 70
0
  9
$DIMALTRND
 40
0.0
  9
$DIMAZIN
 70
0
  9
$DIMDSEP
 70
44
  9
$DIMATFIT
 70
3
  9
$DIMFRAC
 70
0
  9
$DIMLDRBLK
  1

  9
$DIMLUNIT
 70
2
  9
$DIMLWD
 70
-2
  9
$DIMLWE
 70
-2
  9
$DIMTMOVE
 70
0
  9
$DIMFXL
 40
1.0
  9
$DIMFXLON
 70
0
  9
$DIMJOGANG
 40
0.785398163397
  9
$DIMTFILL
 70
0
  9
$DIMTFILLCLR
 70
0
  9
$DIMARCSYM
 70
0
  9
$DIMLTYPE
  6

  9
$DIMLTEX1
  6

  9
$DIMLTEX2
  6

  9
$DIMTXTDIRECTION
 70
0
  9
$LUNITS
 70
2
  9
$LUPREC
 70
4
  9
$SKETCHINC
 40
1.0
  9
$FILLETRAD
 40
10.0
  9
$AUNITS
 70
0
  9
$AUPREC
 70
2
  9
$MENU
  1
.
  9
$ELEVATION
 40
0.0
  9
$PELEVATION
 40
0.0
  9
$THICKNESS
 40
0.0
  9
$LIMCHECK
 70
0
  9
$CHAMFERA
 40
0.0
  9
$CHAMFERB
 40
0.0
  9
$CHAMFERC
 40
0.0
  9
$CHAMFERD
 40
0.0
  9
$SKPOLY
 70
0
  9
$TDCREATE
 40
2461238.3354282407
  9
$TDUCREATE
 40
2458532.153996898
  9
$TDUPDATE
 40
2461238.3354282407
  9
$TDUUPDATE
 40
2458532.1544311
  9
$TDINDWG
 40
0.0
  9
$TDUSRTIMER
 40
0.0
  9
$USRTIMER
 70
1
  9
$ANGBASE
 50
0.0
  9
$ANGDIR
 70
0
  9
$PDMODE
 70
0
  9
$PDSIZE
 40
0.0
  9
$PLINEWID
 40
0.0
  9
$SPLFRAME
 70
0
  9
$SPLINETYPE
 70
6
  9
$SPLINESEGS
 70
8
  9
$HANDSEED
  5
A6
  9
$SURFTAB1
 70
6
  9
$SURFTAB2
 70
6
  9
$SURFTYPE
 70
6
  9
$SURFU
 70
6
  9
$SURFV
 70
6
  9
$UCSBASE
  2

  9
$UCSNAME
  2

  9
$UCSORG
 10
0.0
 20
0.0
 30
0.0
  9
$UCSXDIR
 10
1.0
 20
0.0
 30
0.0
  9
$UCSYDIR
 10
0.0
 20
1.0
 30
0.0
  9
$UCSORTHOREF
  2

  9
$UCSORTHOVIEW
 70
0
  9
$UCSORGTOP
 10
0.0
 20
0.0
 30
0.0
  9
$UCSORGBOTTOM
 10
0.0
 20
0.0
 30
0.0
  9
$UCSORGLEFT
 10
0.0
 20
0.0
 30
0.0
  9
$UCSORGRIGHT
 10
0.0
 20
0.0
 30
0.0
  9
$UCSORGFRONT
 10
0.0
 20
0.0
 30
0.0
  9
$UCSORGBACK
 10
0.0
 20
0.0
 30
0.0
  9
$PUCSBASE
  2

  9
$PUCSNAME
  2

  9
$PUCSORG
 10
0.0
 20
0.0
 30
0.0
  9
$PUCSXDIR
 10
1.0
 20
0.0
 30
0.0
  9
$PUCSYDIR
 10
0.0
 20
1.0
 30
0.0
  9
$PUCSORTHOREF
  2

  9
$PUCSORTHOVIEW
 70
0
  9
$PUCSORGTOP
 10
0.0
 20
0.0
 30
0.0
  9
$PUCSORGBOTTOM
 10
0.0
 20
0.0
 30
0.0
  9
$PUCSORGLEFT
 10
0.0
 20
0.0
 30
0.0
  9
$PUCSORGRIGHT
 10
0.0
 20
0.0
 30
0.0
  9
$PUCSORGFRONT
 10
0.0
 20
0.0
 30
0.0
  9
$PUCSORGBACK
 10
0.0
 20
0.0
 30
0.0
  9
$USERI1
 70
0
  9
$USERI2
 70
0
  9
$USERI3
 70
0
  9
$USERI4
 70
0
  9
$USERI5
 70
0
  9
$USERR1
 40
0.0
  9
$USERR2
 40
0.0
  9
$USERR3
 40
0.0
  9
$USERR4
 40
0.0
  9
$USERR5
 40
0.0
  9
$WORLDVIEW
 70
1
  9
$SHADEDGE
 70
3
  9
$SHADEDIF
 70
70
  9
$TILEMODE
 70
1
  9
$MAXACTVP
 70
64
  9
$PINSBASE
 10
0.0
 20
0.0
 30
0.0
  9
$PLIMCHECK
 70
0
  9
$PEXTMIN
 10
1e+20
 20
1e+20
 30
1e+20
  9
$PEXTMAX
 10
-1e+20
 20
-1e+20
 30
-1e+20
  9
$PLIMMIN
 10
0.0
 20
0.0
  9
$PLIMMAX
 10
420.0
 20
297.0
  9
$UNITMODE
 70
0
  9
$VISRETAIN
 70
1
  9
$PLINEGEN
 70
0
  9
$PSLTSCALE
 70
1
  9
$TREEDEPTH
 70
3020
  9
$CMLSTYLE
  2
Standard
  9
$CMLJUST
 70
0
  9
$CMLSCALE
 40
20.0
  9
$PROXYGRAPHICS
 70
1
  9
$MEASUREMENT
 70
1
  9
$CELWEIGHT
370
-1
  9
$ENDCAPS
280
0
  9
$JOINSTYLE
280
0
  9
$LWDISPLAY
290
0
  9
$INSUNITS
 70
4
  9
$HYPERLINKBASE
  1

  9
$STYLESHEET
  1

  9
$XEDIT
290
1
  9
$CEPSNTYPE
380
0
  9
$PSTYLEMODE
290
1
  9
$FINGERPRINTGUID
  2
{58BBFE03-639C-4C93-91D9-E6872A6F6E50}
  9
$VERSIONGUID
  2
{5EA12B18-98C2-4402-8453-5CBB668DDA1F}
  9
$EXTNAMES
290
1
  9
$PSVPSCALE
 40
0.0
  9
$OLESTARTUP
290
0
  9
$SORTENTS
280
127
  9
$INDEXCTL
280
0
  9
$HIDETEXT
280
1
  9
$XCLIPFRAME
280
1
  9
$HALOGAP
280
0
  9
$OBSCOLOR
 70
257
  9
$OBSLTYPE
280
0
  9
$INTERSECTIONDISPLAY
280
0
  9
$INTERSECTIONCOLOR
 70
257
  9
$DIMASSOC
280
2
  9
$PROJECTNAME
  1

  9
$CAMERADISPLAY
290
0
  9
$LENSLENGTH
 40
50.0
  9
$CAMERAHEIGHT
 40
0.0
  9
$STEPSPERSEC
 40
24.0
  9
$STEPSIZE
 40
100.0
  9
$3DDWFPREC
 40
2.0
  9
$PSOLWIDTH
 40
0.005
  9
$PSOLHEIGHT
 40
0.08
  9
$LOFTANG1
 40
1.570796326795
  9
$LOFTANG2
 40
1.570796326795
  9
$LOFTMAG1
 40
0.0
  9
$LOFTMAG2
 40
0.0
  9
$LOFTPARAM
 70
7
  9
$LOFTNORMALS
280
1
  9
$LATITUDE
 40
37.795
  9
$LONGITUDE
 40
-122.394
  9
$NORTHDIRECTION
 40
0.0
  9
$TIMEZONE
 70
-8000
  9
$LIGHTGLYPHDISPLAY
280
1
  9
$TILEMODELIGHTSYNCH
280
1
  9
$CMATERIAL
347
20
  9
$SOLIDHIST
280
0
  9
$SHOWHIST
280
1
  9
$DWFFRAME
280
2
  9
$DGNFRAME
280
2
  9
$REALWORLDSCALE
290
1
  9
$INTERFERECOLOR
 62
256
  9
$CSHADOW
280
0
  9
$SHADOWPLANELOCATION
 40
0.0
  0
ENDSEC
  0
SECTION
  2
CLASSES
  0
CLASS
  1
ACDBDICTIONARYWDFLT
  2
AcDbDictionaryWithDefault
  3
ObjectDBX Classes
 90
0
 91
0
280
0
281
0
  0
CLASS
  1
SUN
  2
AcDbSun
  3
SCENEOE
 90
1153
 91
0
280
0
281
0
  0
CLASS
  1
VISUALSTYLE
  2
AcDbVisualStyle
  3
ObjectDBX Classes
 90
4095
 91
0
280
0
281
0
  0
CLASS
  1
MATERIAL
  2
AcDbMaterial
  3
ObjectDBX Classes
 90
1153
 91
0
280
0
281
0
  0
CLASS
  1
SCALE
  2
AcDbScale
  3
ObjectDBX Classes
 90
1153
 91
0
280
0
281
0
  0
CLASS
  1
TABLESTYLE
  2
AcDbTableStyle
  3
ObjectDBX Classes
 90
4095
 91
0
280
0
281
0
  0
CLASS
  1
MLEADERSTYLE
  2
AcDbMLeaderStyle
  3
ACDB_MLEADERSTYLE_CLASS
 90
4095
 91
0
280
0
281
0
  0
CLASS
  1
DICTIONARYVAR
  2
AcDbDictionaryVar
  3
ObjectDBX Classes
 90
0
 91
0
280
0
281
0
  0
CLASS
  1
CELLSTYLEMAP
  2
AcDbCellStyleMap
  3
ObjectDBX Classes
 90
1152
 91
0
280
0
281
0
  0
CLASS
  1
MENTALRAYRENDERSETTINGS
  2
AcDbMentalRayRenderSettings
  3
SCENEOE
 90
1024
 91
0
280
0
281
0
  0
CLASS
  1
ACDBDETAILVIEWSTYLE
  2
AcDbDetailViewStyle
  3
ObjectDBX Classes
 90
1025
 91
0
280
0
281
0
  0
CLASS
  1
ACDBSECTIONVIEWSTYLE
  2
AcDbSectionViewStyle
  3
ObjectDBX Classes
 90
1025
 91
0
280
0
281
0
  0
CLASS
  1
RASTERVARIABLES
  2
AcDbRasterVariables
  3
ISM
 90
0
 91
0
280
0
281
0
  0
CLASS
  1
ACDBPLACEHOLDER
  2
AcDbPlaceHolder
  3
ObjectDBX Classes
 90
0
 91
0
280
0
281
0
  0
CLASS
  1
LAYOUT
  2
AcDbLayout
  3
ObjectDBX Classes
 90
0
 91
0
280
0
281
0
  0
ENDSEC
  0
SECTION
  2
TABLES
  0
TABLE
  2
VPORT
  5
8
330
0
100
AcDbSymbolTable
 70
1
  0
VPORT
  5
23
330
8
100
AcDbSymbolTableRecord
100
AcDbViewportTableRecord
  2
*Active
 70
0
 10
0.0
 20
0.0
 11
1.0
 21
1.0
 12
0.0
 22
0.0
 13
0.0
 23
0.0
 14
0.5
 24
0.5
 15
0.5
 25
0.5
 16
0.0
 26
0.0
 36
1.0
 17
0.0
 27
0.0
 37
0.0
 40
1000.0
 41
1.34
 42
50.0
 43
0.0
 44
0.0
 50
0.0
 51
0.0
 71
0
 72
1000
 73
1
 74
3
 75
0
 76
0
 77
0
 78
0
281
0
 65
0
146
0.0
  0
ENDTAB
  0
TABLE
  2
LTYPE
  5
2
330
0
100
AcDbSymbolTable
 70
4
  0
LTYPE
  5
24
330
2
100
AcDbSymbolTableRecord
100
AcDbLinetypeTableRecord
  2
ByBlock
 70
0
  3

 72
65
 73
0
 40
0.0
  0
LTYPE
  5
25
330
2
100
AcDbSymbolTableRecord
100
AcDbLinetypeTableRecord
  2
ByLayer
 70
0
  3

 72
65
 73
0
 40
0.0
  0
LTYPE
  5
26
330
2
100
AcDbSymbolTableRecord
100
AcDbLinetypeTableRecord
  2
Continuous
 70
0
  3

 72
65
 73
0
 40
0.0
  0
LTYPE
  5
36
330
2
100
AcDbSymbolTableRecord
100
AcDbLinetypeTableRecord
  2
OPTICAL
 70
0
  3

 72
65
 73
5
 40
8.0
 49
-2.0
 74
0
 49
1.0
 74
0
 49
-2.0
 74
0
 49
1.0
 74
0
 49
-2.0
 74
0
  0
ENDTAB
  0
TABLE
  2
LAYER
  5
1
330
0
100
AcDbSymbolTable
 70
9
  0
LAYER
  5
27
330
1
100
AcDbSymbolTableRecord
100
AcDbLayerTableRecord
  2
0
 70
0
 62
7
  6
Continuous
370
-3
390
13
347
21
  0
LAYER
  5
28
330
1
100
AcDbSymbolTableRecord
100
AcDbLayerTableRecord
  2
Defpoints
 70
0
 62
7
  6
Continuous
290
0
370
-3
390
13
347
21
  0
LAYER
  5
2F
330
1
100
AcDbSymbolTableRecord
100
AcDbLayerTableRecord
  2
BORDER
 70
0
 62
7
  6
Continuous
370
25
390
13
347
21
  0
LAYER
  5
30
330
1
100
AcDbSymbolTableRecord
100
AcDbLayerTableRecord
  2
OUTLINE
 70
0
 62
7
  6
Continuous
370
50
390
13
347
21
  0
LAYER
  5
31
330
1
100
AcDbSymbolTableRecord
100
AcDbLayerTableRecord
  2
AXIS
 70
0
 62
8
  6
OPTICAL
370
13
390
13
347
21
  0
LAYER
  5
32
330
1
100
AcDbSymbolTableRecord
100
AcDbLayerTableRecord
  2
CEMENT
 70
0
 62
7
  6
Continuous
370
13
390
13
347
21
  0
LAYER
  5
33
330
1
100
AcDbSymbolTableRecord
100
AcDbLayerTableRecord
  2
DIMS
 70
0
 62
7
  6
Continuous
370
13
390
13
347
21
  0
LAYER
  5
34
330
1
100
AcDbSymbolTableRecord
100
AcDbLayerTableRecord
  2
CALLOUT
 70
0
 62
7
  6
Continuous
370
13
390
13
347
21
  0
LAYER
  5
35
330
1
100
AcDbSymbolTableRecord
100
AcDbLayerTableRecord
  2
TABLE
 70
0
 62
7
  6
Continuous
370
13
390
13
347
21
  0
ENDTAB
  0
TABLE
  2
STYLE
  5
5
330
0
100
AcDbSymbolTable
 70
1
  0
STYLE
  5
29
330
5
100
AcDbSymbolTableRecord
100
AcDbTextStyleTableRecord
  2
Standard
 70
0
 40
0.0
 41
1.0
 50
0.0
 71
0
 42
2.5
  3
txt
  4

  0
ENDTAB
  0
TABLE
  2
VIEW
  5
7
330
0
100
AcDbSymbolTable
 70
0
  0
ENDTAB
  0
TABLE
  2
UCS
  5
6
330
0
100
AcDbSymbolTable
 70
0
  0
ENDTAB
  0
TABLE
  2
APPID
  5
3
330
0
100
AcDbSymbolTable
 70
3
  0
APPID
  5
2A
330
3
100
AcDbSymbolTableRecord
100
AcDbRegAppTableRecord
  2
ACAD
 70
0
  0
APPID
  5
A3
330
3
100
AcDbSymbolTableRecord
100
AcDbRegAppTableRecord
  2
HATCHBACKGROUNDCOLOR
 70
0
  0
APPID
  5
A4
330
3
100
AcDbSymbolTableRecord
100
AcDbRegAppTableRecord
  2
EZDXF
 70
0
  0
ENDTAB
  0
TABLE
  2
DIMSTYLE
  5
4
330
0
100
AcDbSymbolTable
 70
1
100
AcDbDimStyleTable
  0
DIMSTYLE
105
2B
330
4
100
AcDbSymbolTableRecord
100
AcDbDimStyleTableRecord
  2
Standard
 70
0
 40
1.0
 41
2.5
 42
0.625
 43
3.75
 44
1.25
 45
0.0
 46
0.0
 47
0.0
 48
0.0
 49
2.5
140
2.5
141
2.5
142
0.0
143
0.03937007874
144
1.0
145
0.0
146
1.0
147
0.625
148
0.0
 69
0
 70
0
 71
0
 72
0
 73
0
 74
0
 75
0
 76
0
 77
1
 78
8
 79
3
170
0
171
3
172
1
173
0
174
0
175
0
176
0
177
0
178
0
179
2
271
2
272
2
273
2
274
3
275
0
276
0
277
2
278
44
279
0
280
0
281
0
282
0
283
0
284
8
285
0
286
0
288
0
289
3
290
0
371
-2
372
-2
  0
ENDTAB
  0
TABLE
  2
BLOCK_RECORD
  5
9
330
0
100
AcDbSymbolTable
 70
2
  0
BLOCK_RECORD
  5
17
330
9
100
AcDbSymbolTableRecord
100
AcDbBlockTableRecord
  2
*Model_Space
340
1A
 70
0
280
1
281
0
  0
BLOCK_RECORD
  5
1B
330
9
100
AcDbSymbolTableRecord
100
AcDbBlockTableRecord
  2
*Paper_Space
340
1E
 70
0
280
1
281
0
  0
ENDTAB
  0
ENDSEC
  0
SECTION
  2
BLOCKS
  0
BLOCK
  5
18
330
17
100
AcDbEntity
  8
0
100
AcDbBlockBegin
  2
*Model_Space
 70
0
 10
0.0
 20
0.0
 30
0.0
  3
*Model_Space
  1

  0
ENDBLK
  5
19
330
17
100
AcDbEntity
  8
0
100
AcDbBlockEnd
  0
BLOCK
  5
1C
330
1B
100
AcDbEntity
  8
0
100
AcDbBlockBegin
  2
*Paper_Space
 70
0
 10
0.0
 20
0.0
 30
0.0
  3
*Paper_Space
  1

  0
ENDBLK
  5
1D
330
1B
100
AcDbEntity
  8
0
100
AcDbBlockEnd
  0
ENDSEC
  0
SECTION
  2
ENTITIES
  0
LWPOLYLINE
  5
37
330
17
100
AcDbEntity
  8
BORDER
100
AcDbPolyline
 90
4
 70
1
 10
0.0
 20
0.0
 10
210.0
 20
0.0
 10
210.0
 20
297.0
 10
0.0
 20
297.0
  0
LWPOLYLINE
  5
38
330
17
100
AcDbEntity
  8
BORDER
370
50
100
AcDbPolyline
 90
4
 70
1
 10
10.0
 20
10.0
 10
200.0
 20
10.0
 10
200.0
 20
287.0
 10
10.0
 20
287.0
  0
TEXT
  5
39
330
17
100
AcDbEntity
  8
BORDER
100
AcDbText
 10
12.0
 20
113.0
 30
0.0
 40
1.8
  1
Ang. nach ISO 10110; λ = 546.07 nm
100
AcDbText
 73
1
  0
TEXT
  5
3A
330
17
100
AcDbEntity
  8
BORDER
100
AcDbText
 10
12.0
 20
282.0
 30
0.0
 40
2.5
  1
f′ = 18.85 mm
100
AcDbText
 73
3
  0
LWPOLYLINE
  5
3B
330
17
100
AcDbEntity
  8
BORDER
100
AcDbPolyline
 90
4
 70
1
 10
10.0
 20
10.0
 10
200.0
 20
10.0
 10
200.0
 20
38.0
 10
10.0
 20
38.0
  0
LINE
  5
3C
330
17
100
AcDbEntity
  8
BORDER
100
AcDbLine
 10
10.0
 20
23.0
 30
0.0
 11
200.0
 21
23.0
 31
0.0
  0
LINE
  5
3D
330
17
100
AcDbEntity
  8
BORDER
100
AcDbLine
 10
74.60000000000001
 20
23.0
 30
0.0
 11
74.60000000000001
 21
38.0
 31
0.0
  0
LINE
  5
3E
330
17
100
AcDbEntity
  8
BORDER
100
AcDbLine
 10
101.20000000000002
 20
23.0
 30
0.0
 11
101.20000000000002
 21
38.0
 31
0.0
  0
LINE
  5
3F
330
17
100
AcDbEntity
  8
BORDER
100
AcDbLine
 10
127.80000000000001
 20
23.0
 30
0.0
 11
127.80000000000001
 21
38.0
 31
0.0
  0
LINE
  5
40
330
17
100
AcDbEntity
  8
BORDER
100
AcDbLine
 10
154.4
 20
23.0
 30
0.0
 11
154.4
 21
38.0
 31
0.0
  0
LINE
  5
41
330
17
100
AcDbEntity
  8
BORDER
100
AcDbLine
 10
177.20000000000002
 20
23.0
 30
0.0
 11
177.20000000000002
 21
38.0
 31
0.0
  0
LINE
  5
42
330
17
100
AcDbEntity
  8
BORDER
100
AcDbLine
 10
188.60000000000002
 20
23.0
 30
0.0
 11
188.60000000000002
 21
38.0
 31
0.0
  0
TEXT
  5
43
330
17
100
AcDbEntity
  8
BORDER
100
AcDbText
 10
42.300000000000004
 20
26.75
 30
0.0
 40
1.8
  1
ORGANISATION / PROJECT / PART NO.
 72
4
 11
42.300000000000004
 21
26.75
 31
0.0
100
AcDbText
 73
2
  0
TEXT
  5
44
330
17
100
AcDbEntity
  8
BORDER
100
AcDbText
 10
42.300000000000004
 20
33.5
 30
0.0
 40
2.5
  1
5-Element Photographic Objective   OPT-001
 72
4
 11
42.300000000000004
 21
33.5
 31
0.0
100
AcDbText
 73
2
  0
TEXT
  5
45
330
17
100
AcDbEntity
  8
BORDER
100
AcDbText
 10
87.9
 20
26.75
 30
0.0
 40
1.8
  1
DRAWN BY
 72
4
 11
87.9
 21
26.75
 31
0.0
100
AcDbText
 73
2
  0
TEXT
  5
46
330
17
100
AcDbEntity
  8
BORDER
100
AcDbText
 10
87.9
 20
33.5
 30
0.0
 40
2.5
  1
B. Lutzer
 72
4
 11
87.9
 21
33.5
 31
0.0
100
AcDbText
 73
2
  0
TEXT
  5
47
330
17
100
AcDbEntity
  8
BORDER
100
AcDbText
 10
114.50000000000001
 20
26.75
 30
0.0
 40
1.8
  1
APPROVED
 72
4
 11
114.50000000000001
 21
26.75
 31
0.0
100
AcDbText
 73
2
  0
TEXT
  5
48
330
17
100
AcDbEntity
  8
BORDER
100
AcDbText
 10
114.50000000000001
 20
33.5
 30
0.0
 40
2.5
  1
K. Harrison
 72
4
 11
114.50000000000001
 21
33.5
 31
0.0
100
AcDbText
 73
2
  0
TEXT
  5
49
330
17
100
AcDbEntity
  8
BORDER
100
AcDbText
 10
141.10000000000002
 20
26.75
 30
0.0
 40
1.8
  1
DATE
 72
4
 11
141.10000000000002
 21
26.75
 31
0.0
100
AcDbText
 73
2
  0
TEXT
  5
4A
330
17
100
AcDbEntity
  8
BORDER
100
AcDbText
 10
141.10000000000002
 20
33.5
 30
0.0
 40
2.5
  1
2026-07-16
 72
4
 11
141.10000000000002
 21
33.5
 31
0.0
100
AcDbText
 73
2
  0
TEXT
  5
4B
330
17
100
AcDbEntity
  8
BORDER
100
AcDbText
 10
165.8
 20
26.75
 30
0.0
 40
1.8
  1
SCALE
 72
4
 11
165.8
 21
26.75
 31
0.0
100
AcDbText
 73
2
  0
TEXT
  5
4C
330
17
100
AcDbEntity
  8
BORDER
100
AcDbText
 10
165.8
 20
33.5
 30
0.0
 40
2.5
  1
10:1
 72
4
 11
165.8
 21
33.5
 31
0.0
100
AcDbText
 73
2
  0
TEXT
  5
4D
330
17
100
AcDbEntity
  8
BORDER
100
AcDbText
 10
182.90000000000003
 20
26.75
 30
0.0
 40
1.8
  1
SHEET
 72
4
 11
182.90000000000003
 21
26.75
 31
0.0
100
AcDbText
 73
2
  0
TEXT
  5
4E
330
17
100
AcDbEntity
  8
BORDER
100
AcDbText
 10
182.90000000000003
 20
33.5
 30
0.0
 40
2.5
  1
1 / 5
 72
4
 11
182.90000000000003
 21
33.5
 31
0.0
100
AcDbText
 73
2
  0
TEXT
  5
4F
330
17
100
AcDbEntity
  8
BORDER
100
AcDbText
 10
194.3
 20
26.75
 30
0.0
 40
1.8
  1
REV
 72
4
 11
194.3
 21
26.75
 31
0.0
100
AcDbText
 73
2
  0
TEXT
  5
50
330
17
100
AcDbEntity
  8
BORDER
100
AcDbText
 10
194.3
 20
33.5
 30
0.0
 40
2.5
  1
A
 72
4
 11
194.3
 21
33.5
 31
0.0
100
AcDbText
 73
2
  0
LINE
  5
51
330
17
100
AcDbEntity
  8
BORDER
100
AcDbLine
 10
124.0
 20
10.0
 30
0.0
 11
124.0
 21
23.0
 31
0.0
  0
TEXT
  5
52
330
17
100
AcDbEntity
  8
BORDER
100
AcDbText
 10
12.0
 20
21.5
 30
0.0
 40
1.8
  1
NOTES
100
AcDbText
 73
3
  0
TEXT
  5
53
330
17
100
AcDbEntity
  8
BORDER
100
AcDbText
 10
146.8
 20
21.5
 30
0.0
 40
1.8
  1
DIM. IN mm
 72
4
 11
146.8
 21
21.5
 31
0.0
100
AcDbText
 73
3
  0
TEXT
  5
54
330
17
100
AcDbEntity
  8
BORDER
100
AcDbText
 10
146.8
 20
17.7
 30
0.0
 40
1.8
  1
GENERAL TOL. PER ISO 10110-11
 72
4
 11
146.8
 21
17.7
 31
0.0
100
AcDbText
 73
1
  0
TEXT
  5
55
330
17
100
AcDbEntity
  8
BORDER
100
AcDbText
 10
146.8
 20
15.3
 30
0.0
 40
1.8
  1
Ø±0.10  CT±0.15  3/ 5  4/ 3′  5/ 2×0.063
 72
4
 11
146.8
 21
15.3
 31
0.0
100
AcDbText
 73
3
  0
CIRCLE
  5
56
330
17
100
AcDbEntity
  8
BORDER
100
AcDbCircle
 10
180.61400000000003
 20
16.5
 30
0.0
 40
3.6400000000000006
  0
CIRCLE
  5
57
330
17
100
AcDbEntity
  8
BORDER
100
AcDbCircle
 10
180.61400000000003
 20
16.5
 30
0.0
 40
2.184
  0
LWPOLYLINE
  5
58
330
17
100
AcDbEntity
  8
BORDER
100
AcDbPolyline
 90
4
 70
1
 10
186.074
 20
20.14
 10
192.626
 20
18.684
 10
192.626
 20
14.315999999999999
 10
186.074
 20
12.86
  0
LINE
  5
59
330
17
100
AcDbEntity
  8
AXIS
100
AcDbLine
 10
175.88200000000003
 20
16.5
 30
0.0
 11
194.446
 21
16.5
 31
0.0
  0
LWPOLYLINE
  5
5A
330
17
100
AcDbEntity
  8
TABLE
100
AcDbPolyline
 90
4
 70
1
 10
10.0
 20
38.0
 10
200.0
 20
38.0
 10
200.0
 20
110.0
 10
10.0
 20
110.0
  0
LINE
  5
5B
330
17
100
AcDbEntity
  8
TABLE
100
AcDbLine
 10
73.33333333333334
 20
38.0
 30
0.0
 11
73.33333333333334
 21
110.0
 31
0.0
  0
LINE
  5
5C
330
17
100
AcDbEntity
  8
TABLE
100
AcDbLine
 10
136.66666666666669
 20
38.0
 30
0.0
 11
136.66666666666669
 21
110.0
 31
0.0
  0
LINE
  5
5D
330
17
100
AcDbEntity
  8
TABLE
100
AcDbLine
 10
10.0
 20
103.0
 30
0.0
 11
200.0
 21
103.0
 31
0.0
  0
TEXT
  5
5E
330
17
100
AcDbEntity
  8
TABLE
100
AcDbText
 10
41.66666666666667
 20
106.5
 30
0.0
 40
2.0
  1
SURFACE 1 (FRONT)
 72
4
 11
41.66666666666667
 21
106.5
 31
0.0
100
AcDbText
 73
2
  0
TEXT
  5
5F
330
17
100
AcDbEntity
  8
TABLE
100
AcDbText
 10
12.0
 20
101.0
 30
0.0
 40
2.0
  1
R +22.000 CX
100
AcDbText
 73
3
  0
TEXT
  5
60
330
17
100
AcDbEntity
  8
TABLE
100
AcDbText
 10
12.0
 20
94.5
 30
0.0
 40
2.0
  1
Øₑ 14.00
100
AcDbText
 73
3
  0
TEXT
  5
61
330
17
100
AcDbEntity
  8
TABLE
100
AcDbText
 10
12.0
 20
88.0
 30
0.0
 40
2.0
  1
3/ (0.5/0.25); λ=546.1 nm
100
AcDbText
 73
3
  0
TEXT
  5
62
330
17
100
AcDbEntity
  8
TABLE
100
AcDbText
 10
12.0
 20
81.5
 30
0.0
 40
2.0
  1
4/ 0.5′
100
AcDbText
 73
3
  0
TEXT
  5
63
330
17
100
AcDbEntity
  8
TABLE
100
AcDbText
 10
12.0
 20
75.0
 30
0.0
 40
2.0
  1
5/ 2×0.04
100
AcDbText
 73
3
  0
TEXT
  5
64
330
17
100
AcDbEntity
  8
TABLE
100
AcDbText
 10
12.0
 20
68.5
 30
0.0
 40
2.0
  1
6/ —
100
AcDbText
 73
3
  0
TEXT
  5
65
330
17
100
AcDbEntity
  8
TABLE
100
AcDbText
 10
12.0
 20
62.0
 30
0.0
 40
2.0
  1

100
AcDbText
 73
3
  0
TEXT
  5
66
330
17
100
AcDbEntity
  8
TABLE
100
AcDbText
 10
12.0
 20
55.5
 30
0.0
 40
2.0
  1
13/ —
100
AcDbText
 73
3
  0
CIRCLE
  5
67
330
17
100
AcDbEntity
  8
TABLE
100
AcDbCircle
 10
13.5
 20
60.5
 30
0.0
 40
1.5
  0
TEXT
  5
68
330
17
100
AcDbEntity
  8
TABLE
100
AcDbText
 10
13.5
 20
60.5
 30
0.0
 40
2.0999999999999996
  1
λ
 72
4
 11
13.5
 21
60.5
 31
0.0
100
AcDbText
 73
2
  0
TEXT
  5
69
330
17
100
AcDbEntity
  8
TABLE
100
AcDbText
 10
16.0
 20
60.5
 30
0.0
 40
2.0
  1
7/ AR 400-700 nm, R<0.5%
100
AcDbText
 73
2
  0
TEXT
  5
6A
330
17
100
AcDbEntity
  8
TABLE
100
AcDbText
 10
168.33333333333334
 20
106.5
 30
0.0
 40
2.0
  1
SURFACE 2 (REAR)
 72
4
 11
168.33333333333334
 21
106.5
 31
0.0
100
AcDbText
 73
2
  0
TEXT
  5
6B
330
17
100
AcDbEntity
  8
TABLE
100
AcDbText
 10
138.66666666666669
 20
101.0
 30
0.0
 40
2.0
  1
R -95.000 CX
100
AcDbText
 73
3
  0
TEXT
  5
6C
330
17
100
AcDbEntity
  8
TABLE
100
AcDbText
 10
138.66666666666669
 20
94.5
 30
0.0
 40
2.0
  1
Øₑ 12.70
100
AcDbText
 73
3
  0
TEXT
  5
6D
330
17
100
AcDbEntity
  8
TABLE
100
AcDbText
 10
138.66666666666669
 20
88.0
 30
0.0
 40
2.0
  1
3/ (1); λ=546.1 nm
100
AcDbText
 73
3
  0
TEXT
  5
6E
330
17
100
AcDbEntity
  8
TABLE
100
AcDbText
 10
138.66666666666669
 20
81.5
 30
0.0
 40
2.0
  1
4/ 0.5′
100
AcDbText
 73
3
  0
TEXT
  5
6F
330
17
100
AcDbEntity
  8
TABLE
100
AcDbText
 10
138.66666666666669
 20
75.0
 30
0.0
 40
2.0
  1
5/ 2×0.063
100
AcDbText
 73
3
  0
TEXT
  5
70
330
17
100
AcDbEntity
  8
TABLE
100
AcDbText
 10
138.66666666666669
 20
68.5
 30
0.0
 40
2.0
  1
6/ —
100
AcDbText
 73
3
  0
TEXT
  5
71
330
17
100
AcDbEntity
  8
TABLE
100
AcDbText
 10
138.66666666666669
 20
62.0
 30
0.0
 40
2.0
  1

100
AcDbText
 73
3
  0
TEXT
  5
72
330
17
100
AcDbEntity
  8
TABLE
100
AcDbText
 10
138.66666666666669
 20
55.5
 30
0.0
 40
2.0
  1
13/ —
100
AcDbText
 73
3
  0
CIRCLE
  5
73
330
17
100
AcDbEntity
  8
TABLE
100
AcDbCircle
 10
140.16666666666669
 20
60.5
 30
0.0
 40
1.5
  0
TEXT
  5
74
330
17
100
AcDbEntity
  8
TABLE
100
AcDbText
 10
140.16666666666669
 20
60.5
 30
0.0
 40
2.0999999999999996
  1
λ
 72
4
 11
140.16666666666669
 21
60.5
 31
0.0
100
AcDbText
 73
2
  0
TEXT
  5
75
330
17
100
AcDbEntity
  8
TABLE
100
AcDbText
 10
142.66666666666669
 20
60.5
 30
0.0
 40
2.0
  1
7/ AR 400-700 nm, R<0.5%
100
AcDbText
 73
2
  0
TEXT
  5
76
330
17
100
AcDbEntity
  8
TABLE
100
AcDbText
 10
105.0
 20
106.5
 30
0.0
 40
2.0
  1
MATERIAL
 72
4
 11
105.0
 21
106.5
 31
0.0
100
AcDbText
 73
2
  0
TEXT
  5
77
330
17
100
AcDbEntity
  8
TABLE
100
AcDbText
 10
75.33333333333334
 20
101.0
 30
0.0
 40
2.0
  1
N-BK7 (SCHOTT)
100
AcDbText
 73
3
  0
TEXT
  5
78
330
17
100
AcDbEntity
  8
TABLE
100
AcDbText
 10
75.33333333333334
 20
94.5
 30
0.0
 40
2.0
  1
nd = 1.5168  (587.6 nm)
100
AcDbText
 73
3
  0
TEXT
  5
79
330
17
100
AcDbEntity
  8
TABLE
100
AcDbText
 10
75.33333333333334
 20
88.0
 30
0.0
 40
2.0
  1
νd = 64.17  (587.6 nm)
100
AcDbText
 73
3
  0
TEXT
  5
7A
330
17
100
AcDbEntity
  8
TABLE
100
AcDbText
 10
75.33333333333334
 20
81.5
 30
0.0
 40
2.0
  1
0/ 10 nm/cm
100
AcDbText
 73
3
  0
TEXT
  5
7B
330
17
100
AcDbEntity
  8
TABLE
100
AcDbText
 10
75.33333333333334
 20
75.0
 30
0.0
 40
2.0
  1
1/ 1×0.16
100
AcDbText
 73
3
  0
TEXT
  5
7C
330
17
100
AcDbEntity
  8
TABLE
100
AcDbText
 10
75.33333333333334
 20
68.5
 30
0.0
 40
2.0
  1
2/ NH010; A
100
AcDbText
 73
3
  0
LINE
  5
7D
330
17
100
AcDbEntity
  8
AXIS
100
AcDbLine
 10
60.0001673985614
 20
198.5
 30
0.0
 11
149.99983260143858
 21
198.5
 31
0.0
  0
TEXT
  5
7E
330
17
100
AcDbEntity
  8
AXIS
100
AcDbText
 10
59.0001673985614
 20
198.5
 30
0.0
 40
2.0
  1
opt./rot. axis
 72
2
 11
59.0001673985614
 21
198.5
 31
0.0
100
AcDbText
 73
2
  0
LWPOLYLINE
  5
7F
330
17
100
AcDbEntity
  8
OUTLINE
370
50
100
AcDbPolyline
 90
402
 70
1
 10
86.43335003803699
 20
128.5
 10
86.1985511182485
 20
129.2035175879397
 10
85.96638366212653
 20
129.9070351758794
 10
85.73683891121738
 20
130.6105527638191
 10
85.50990824417934
 20
131.3140703517588
 10
85.2855831749559
 20
132.0175879396985
 10
85.0638553509896
 20
132.7211055276382
 10
84.8447165514755
 20
133.4246231155779
 10
84.62815868565359
 20
134.1281407035176
 10
84.4141737911389
 20
134.8316582914573
 10
84.20275403228872
 20
135.535175879397
 10
83.99389169860592
 20
136.2386934673367
 10
83.78757920317747
 20
136.94221105527637
 10
83.5838090811477
 20
137.64572864321607
 10
83.38257398822506
 20
138.34924623115577
 10
83.18386669922192
 20
139.05276381909547
 10
82.98768010662667
 20
139.75628140703517
 10
82.79400721920724
 20
140.45979899497488
 10
82.60284116064558
 20
141.16331658291458
 10
82.4141751682021
 20
141.86683417085428
 10
82.22800259140982
 20
142.57035175879398
 10
82.04431689079725
 20
143.27386934673368
 10
81.86311163663962
 20
143.97738693467338
 10
81.68438050773767
 20
144.68090452261305
 10
81.50811729022368
 20
145.38442211055275
 10
81.3343158763938
 20
146.08793969849245
 10
81.16297026356652
 20
146.79145728643215
 10
80.99407455296651
 20
147.49497487437185
 10
80.8276229486334
 20
148.19849246231155
 10
80.663609756355
 20
148.90201005025125
 10
80.50202938262433
 20
149.60552763819095
 10
80.34287633362032
 20
150.30904522613065
 10
80.18614521421138
 20
151.01256281407035
 10
80.03183072698143
 20
151.71608040201005
 10
79.8799276712783
 20
152.41959798994975
 10
79.73043094228366
 20
153.12311557788945
 10
79.58333553010422
 20
153.82663316582915
 10
79.43863651888395
 20
154.53015075376885
 10
79.29632908593668
 20
155.23366834170855
 10
79.15640850089892
 20
155.93718592964825
 10
79.01887012490242
 20
156.64070351758795
 10
78.88370940976615
 20
157.34422110552765
 10
78.7509218972073
 20
158.04773869346735
 10
78.62050321807112
 20
158.75125628140705
 10
78.49244909157908
 20
159.45477386934675
 10
78.36675532459519
 20
160.15829145728642
 10
78.24341781091006
 20
160.86180904522612
 10
78.12243253054254
 20
161.56532663316582
 10
78.00379554905847
 20
162.26884422110552
 10
77.88750301690645
 20
162.97236180904522
 10
77.7735511687702
 20
163.67587939698493
 10
77.66193632293735
 20
164.37939698492463
 10
77.55265488068441
 20
165.08291457286433
 10
77.44570332567756
 20
165.78643216080403
 10
77.34107822338912
 20
166.48994974874373
 10
77.23877622052949
 20
167.19346733668343
 10
77.13879404449423
 20
167.89698492462313
 10
77.04112850282613
 20
168.6005025125628
 10
76.94577648269207
 20
169.30402010050253
 10
76.85273495037438
 20
170.0075376884422
 10
76.76200095077674
 20
170.7110552763819
 10
76.67357160694391
 20
171.4145728643216
 10
76.58744411959584
 20
172.1180904522613
 10
76.50361576667532
 20
172.821608040201
 10
76.42208390290935
 20
173.5251256281407
 10
76.34284595938395
 20
174.2286432160804
 10
76.2658994431323
 20
174.9321608040201
 10
76.191241936736
 20
175.6356783919598
 10
76.11887109793938
 20
176.3391959798995
 10
76.04878465927648
 20
177.0427135678392
 10
75.98098042771103
 20
177.7462311557789
 10
75.9154562842887
 20
178.4497487437186
 10
75.852210183802
 20
179.1532663316583
 10
75.79124015446739
 20
179.856783919598
 10
75.73254429761462
 20
180.5603015075377
 10
75.6761207873882
 20
181.26381909547737
 10
75.62196787046067
 20
181.9673366834171
 10
75.57008386575795
 20
182.67085427135677
 10
75.52046716419636
 20
183.37437185929647
 10
75.4731162284312
 20
184.07788944723617
 10
75.42802959261707
 20
184.78140703517587
 10
75.38520586217963
 20
185.48492462311557
 10
75.34464371359867
 20
186.18844221105527
 10
75.30634189420262
 20
186.89195979899498
 10
75.27029922197423
 20
187.59547738693468
 10
75.23651458536747
 20
188.29899497487438
 10
75.20498694313552
 20
189.00251256281408
 10
75.17571532416981
 20
189.70603015075378
 10
75.1486988273501
 20
190.40954773869348
 10
75.12393662140538
 20
191.11306532663318
 10
75.10142794478574
 20
191.81658291457288
 10
75.08117210554514
 20
192.52010050251255
 10
75.06316848123483
 20
193.22361809045225
 10
75.04741651880761
 20
193.92713567839195
 10
75.03391573453284
 20
194.63065326633165
 10
75.0226657139221
 20
195.33417085427135
 10
75.0136661116655
 20
196.03768844221105
 10
75.00691665157875
 20
196.74120603015075
 10
75.00241712656064
 20
197.44472361809045
 10
75.0001673985614
 20
198.14824120603015
 10
75.0001673985614
 20
198.85175879396985
 10
75.00241712656064
 20
199.55527638190955
 10
75.00691665157875
 20
200.25879396984925
 10
75.0136661116655
 20
200.96231155778895
 10
75.0226657139221
 20
201.66582914572865
 10
75.03391573453284
 20
202.36934673366835
 10
75.04741651880761
 20
203.07286432160805
 10
75.06316848123483
 20
203.77638190954772
 10
75.08117210554514
 20
204.47989949748745
 10
75.10142794478574
 20
205.18341708542712
 10
75.12393662140538
 20
205.88693467336682
 10
75.1486988273501
 20
206.59045226130652
 10
75.17571532416981
 20
207.29396984924622
 10
75.20498694313552
 20
207.99748743718592
 10
75.23651458536747
 20
208.70100502512562
 10
75.27029922197423
 20
209.40452261306532
 10
75.30634189420262
 20
210.10804020100502
 10
75.34464371359867
 20
210.81155778894473
 10
75.38520586217963
 20
211.51507537688443
 10
75.42802959261707
 20
212.21859296482413
 10
75.4731162284312
 20
212.9221105527638
 10
75.52046716419636
 20
213.62562814070353
 10
75.57008386575795
 20
214.32914572864323
 10
75.62196787046067
 20
215.0326633165829
 10
75.6761207873882
 20
215.7361809045226
 10
75.73254429761462
 20
216.4396984924623
 10
75.79124015446739
 20
217.14321608040203
 10
75.852210183802
 20
217.8467336683417
 10
75.9154562842887
 20
218.5502512562814
 10
75.98098042771103
 20
219.2537688442211
 10
76.04878465927648
 20
219.9572864321608
 10
76.11887109793938
 20
220.6608040201005
 10
76.191241936736
 20
221.3643216080402
 10
76.2658994431323
 20
222.0678391959799
 10
76.34284595938395
 20
222.7713567839196
 10
76.42208390290935
 20
223.4748743718593
 10
76.50361576667532
 20
224.178391959799
 10
76.58744411959584
 20
224.8819095477387
 10
76.67357160694391
 20
225.5854271356784
 10
76.76200095077674
 20
226.2889447236181
 10
76.85273495037438
 20
226.99246231155777
 10
76.94577648269207
 20
227.69597989949747
 10
77.04112850282613
 20
228.3994974874372
 10
77.13879404449423
 20
229.1030150753769
 10
77.23877622052949
 20
229.80653266331657
 10
77.34107822338912
 20
230.51005025125627
 10
77.44570332567756
 20
231.213567839196
 10
77.55265488068441
 20
231.91708542713567
 10
77.66193632293735
 20
232.62060301507537
 10
77.7735511687702
 20
233.32412060301507
 10
77.88750301690645
 20
234.02763819095475
 10
78.00379554905847
 20
234.73115577889448
 10
78.12243253054254
 20
235.43467336683418
 10
78.24341781091006
 20
236.13819095477388
 10
78.36675532459518
 20
236.84170854271355
 10
78.49244909157908
 20
237.54522613065325
 10
78.62050321807112
 20
238.24874371859298
 10
78.75092189720729
 20
238.95226130653265
 10
78.88370940976615
 20
239.65577889447235
 10
79.01887012490242
 20
240.35929648241205
 10
79.15640850089892
 20
241.06281407035175
 10
79.29632908593668
 20
241.76633165829145
 10
79.43863651888395
 20
242.46984924623115
 10
79.58333553010422
 20
243.17336683417085
 10
79.73043094228366
 20
243.87688442211055
 10
79.8799276712783
 20
244.58040201005025
 10
80.03183072698143
 20
245.28391959798995
 10
80.18614521421138
 20
245.98743718592965
 10
80.34287633362032
 20
246.69095477386935
 10
80.50202938262433
 20
247.39447236180905
 10
80.663609756355
 20
248.09798994974875
 10
80.8276229486334
 20
248.80150753768845
 10
80.99407455296651
 20
249.50502512562815
 10
81.16297026356652
 20
250.20854271356785
 10
81.3343158763938
 20
250.91206030150752
 10
81.50811729022368
 20
251.61557788944725
 10
81.68438050773767
 20
252.31909547738695
 10
81.8631116366396
 20
253.02261306532662
 10
82.04431689079725
 20
253.72613065326632
 10
82.22800259140982
 20
254.42964824120602
 10
82.4141751682021
 20
255.13316582914575
 10
82.60284116064558
 20
255.83668341708542
 10
82.79400721920724
 20
256.5402010050251
 10
82.98768010662667
 20
257.2437185929648
 10
83.18386669922191
 20
257.9472361809045
 10
83.38257398822506
 20
258.6507537688442
 10
83.5838090811477
 20
259.3542713567839
 10
83.78757920317747
 20
260.0577889447236
 10
83.99389169860592
 20
260.7613065326633
 10
84.20275403228872
 20
261.464824120603
 10
84.41417379113891
 20
262.1683417085427
 10
84.62815868565359
 20
262.8718592964824
 10
84.8447165514755
 20
263.5753768844221
 10
85.0638553509896
 20
264.2788944723618
 10
85.2855831749559
 20
264.9824120603015
 10
85.50990824417934
 20
265.6859296482412
 10
85.73683891121738
 20
266.3894472361809
 10
85.96638366212653
 20
267.0929648241206
 10
86.19855111824849
 20
267.7964824120603
 10
86.43335003803699
 20
268.5
 10
132.41742877034
 20
268.5
 10
132.41742877034
 20
268.5
 10
132.46914559332478
 20
267.7964824120603
 10
132.52033724401608
 20
267.0929648241206
 10
132.57100380752973
 20
266.3894472361809
 10
132.62114536809037
 20
265.6859296482412
 10
132.67076200903227
 20
264.9824120603015
 10
132.71985381279978
 20
264.2788944723618
 10
132.76842086094837
 20
263.5753768844221
 10
132.81646323414495
 20
262.8718592964824
 10
132.86398101216878
 20
262.1683417085427
 10
132.91097427391207
 20
261.464824120603
 10
132.95744309738063
 20
260.7613065326633
 10
133.0033875596945
 20
260.0577889447236
 10
133.04880773708868
 20
259.3542713567839
 10
133.09370370491362
 20
258.6507537688442
 10
133.13807553763604
 20
257.9472361809045
 10
133.18192330883932
 20
257.2437185929648
 10
133.2252470912244
 20
256.5402010050251
 10
133.26804695661002
 20
255.83668341708542
 10
133.31032297593373
 20
255.13316582914575
 10
133.35207521925216
 20
254.42964824120602
 10
133.39330375574173
 20
253.72613065326632
 10
133.4340086536992
 20
253.02261306532662
 10
133.4741899805423
 20
252.31909547738695
 10
133.51384780281023
 20
251.61557788944725
 10
133.55298218616417
 20
250.91206030150752
 10
133.59159319538796
 20
250.20854271356785
 10
133.6296808943885
 20
249.50502512562815
 10
133.66724534619635
 20
248.80150753768845
 10
133.70428661296629
 20
248.09798994974875
 10
133.74080475597776
 20
247.39447236180905
 10
133.77679983563536
 20
246.69095477386935
 10
133.81227191146942
 20
245.98743718592965
 10
133.84722104213654
 20
245.28391959798995
 10
133.88164728541986
 20
244.58040201005025
 10
133.9155506982298
 20
243.87688442211055
 10
133.94893133660435
 20
243.17336683417085
 10
133.9817892557096
 20
242.46984924623115
 10
134.0141245098402
 20
241.76633165829145
 10
134.04593715241987
 20
241.06281407035175
 10
134.07722723600165
 20
240.35929648241205
 10
134.10799481226857
 20
239.65577889447235
 10
134.1382399320339
 20
238.95226130653265
 10
134.16796264524172
 20
238.24874371859298
 10
134.19716300096712
 20
237.54522613065325
 10
134.2258410474169
 20
236.84170854271355
 10
134.25399683192973
 20
236.13819095477388
 10
134.28163040097655
 20
235.43467336683418
 10
134.30874180016116
 20
234.73115577889448
 10
134.33533107422036
 20
234.02763819095475
 10
134.36139826702453
 20
233.32412060301507
 10
134.3869434215777
 20
232.62060301507537
 10
134.41196658001832
 20
231.91708542713567
 10
134.4364677836192
 20
231.213567839196
 10
134.4604470727881
 20
230.51005025125627
 10
134.483904487068
 20
229.80653266331657
 10
134.5068400651374
 20
229.1030150753769
 10
134.52925384481063
 20
228.3994974874372
 10
134.55114586303822
 20
227.69597989949747
 10
134.57251615590718
 20
226.99246231155777
 10
134.59336475864134
 20
226.2889447236181
 10
134.6136917056015
 20
225.5854271356784
 10
134.63349703028584
 20
224.8819095477387
 10
134.65278076533022
 20
224.178391959799
 10
134.6715429425083
 20
223.4748743718593
 10
134.68978359273194
 20
222.7713567839196
 10
134.7075027460515
 20
222.0678391959799
 10
134.72470043165578
 20
221.3643216080402
 10
134.7413766778727
 20
220.6608040201005
 10
134.75753151216918
 20
219.9572864321608
 10
134.77316496115154
 20
219.2537688442211
 10
134.78827705056568
 20
218.5502512562814
 10
134.80286780529732
 20
217.8467336683417
 10
134.81693724937207
 20
217.14321608040203
 10
134.83048540595587
 20
216.4396984924623
 10
134.84351229735495
 20
215.7361809045226
 10
134.85601794501608
 20
215.0326633165829
 10
134.8680023695269
 20
214.32914572864323
 10
134.87946559061584
 20
213.62562814070353
 10
134.89040762715246
 20
212.9221105527638
 10
134.9008284971476
 20
212.21859296482413
 10
134.91072821775333
 20
211.51507537688443
 10
134.9201068052634
 20
210.81155778894473
 10
134.92896427511312
 20
210.10804020100502
 10
134.93730064187963
 20
209.40452261306532
 10
134.94511591928196
 20
208.70100502512562
 10
134.95241012018113
 20
207.99748743718592
 10
134.95918325658027
 20
207.29396984924622
 10
134.96543533962478
 20
206.59045226130652
 10
134.97116637960238
 20
205.88693467336682
 10
134.9763763859431
 20
205.18341708542712
 10
134.98106536721951
 20
204.47989949748745
 10
134.98523333114673
 20
203.77638190954772
 10
134.98888028458242
 20
203.07286432160805
 10
134.992006233527
 20
202.36934673366835
 10
134.99461118312354
 20
201.66582914572865
 10
134.9966951376578
 20
200.96231155778895
 10
134.99825810055853
 20
200.25879396984925
 10
134.99930007439713
 20
199.55527638190955
 10
134.99982106088783
 20
198.85175879396985
 10
134.99982106088783
 20
198.14824120603015
 10
134.99930007439713
 20
197.44472361809045
 10
134.99825810055853
 20
196.74120603015075
 10
134.9966951376578
 20
196.03768844221105
 10
134.99461118312354
 20
195.33417085427135
 10
134.992006233527
 20
194.63065326633165
 10
134.98888028458242
 20
193.92713567839195
 10
134.98523333114673
 20
193.22361809045225
 10
134.98106536721951
 20
192.52010050251255
 10
134.9763763859431
 20
191.81658291457288
 10
134.97116637960238
 20
191.11306532663318
 10
134.96543533962478
 20
190.40954773869348
 10
134.95918325658027
 20
189.70603015075378
 10
134.95241012018113
 20
189.00251256281408
 10
134.94511591928196
 20
188.29899497487438
 10
134.93730064187963
 20
187.59547738693468
 10
134.92896427511312
 20
186.89195979899498
 10
134.9201068052634
 20
186.18844221105527
 10
134.91072821775333
 20
185.48492462311557
 10
134.9008284971476
 20
184.78140703517587
 10
134.89040762715246
 20
184.07788944723617
 10
134.87946559061584
 20
183.37437185929647
 10
134.8680023695269
 20
182.67085427135677
 10
134.85601794501608
 20
181.9673366834171
 10
134.84351229735495
 20
181.26381909547737
 10
134.83048540595587
 20
180.5603015075377
 10
134.81693724937207
 20
179.856783919598
 10
134.80286780529732
 20
179.1532663316583
 10
134.78827705056568
 20
178.4497487437186
 10
134.77316496115154
 20
177.7462311557789
 10
134.75753151216918
 20
177.0427135678392
 10
134.7413766778727
 20
176.3391959798995
 10
134.72470043165578
 20
175.6356783919598
 10
134.7075027460515
 20
174.9321608040201
 10
134.68978359273194
 20
174.2286432160804
 10
134.6715429425083
 20
173.5251256281407
 10
134.65278076533022
 20
172.821608040201
 10
134.63349703028584
 20
172.1180904522613
 10
134.6136917056015
 20
171.4145728643216
 10
134.59336475864134
 20
170.7110552763819
 10
134.57251615590718
 20
170.0075376884422
 10
134.55114586303822
 20
169.30402010050253
 10
134.52925384481063
 20
168.6005025125628
 10
134.5068400651374
 20
167.89698492462313
 10
134.483904487068
 20
167.19346733668343
 10
134.4604470727881
 20
166.48994974874373
 10
134.4364677836192
 20
165.78643216080403
 10
134.41196658001832
 20
165.08291457286433
 10
134.3869434215777
 20
164.37939698492463
 10
134.36139826702453
 20
163.67587939698493
 10
134.33533107422036
 20
162.97236180904522
 10
134.30874180016116
 20
162.26884422110552
 10
134.28163040097655
 20
161.56532663316582
 10
134.25399683192973
 20
160.86180904522612
 10
134.2258410474169
 20
160.15829145728642
 10
134.19716300096712
 20
159.45477386934675
 10
134.16796264524172
 20
158.75125628140705
 10
134.1382399320339
 20
158.04773869346735
 10
134.10799481226857
 20
157.34422110552765
 10
134.07722723600165
 20
156.64070351758795
 10
134.04593715241987
 20
155.93718592964825
 10
134.0141245098402
 20
155.23366834170855
 10
133.9817892557096
 20
154.53015075376885
 10
133.94893133660435
 20
153.82663316582915
 10
133.9155506982298
 20
153.12311557788945
 10
133.88164728541986
 20
152.41959798994975
 10
133.84722104213654
 20
151.71608040201005
 10
133.81227191146942
 20
151.01256281407035
 10
133.77679983563536
 20
150.30904522613065
 10
133.74080475597776
 20
149.60552763819095
 10
133.70428661296629
 20
148.90201005025125
 10
133.66724534619635
 20
148.19849246231155
 10
133.6296808943885
 20
147.49497487437185
 10
133.59159319538796
 20
146.79145728643215
 10
133.55298218616417
 20
146.08793969849245
 10
133.51384780281023
 20
145.38442211055275
 10
133.4741899805423
 20
144.68090452261305
 10
133.4340086536992
 20
143.97738693467338
 10
133.39330375574173
 20
143.27386934673368
 10
133.35207521925216
 20
142.57035175879398
 10
133.31032297593373
 20
141.86683417085428
 10
133.26804695661002
 20
141.16331658291458
 10
133.2252470912244
 20
140.45979899497488
 10
133.18192330883932
 20
139.75628140703517
 10
133.13807553763604
 20
139.05276381909547
 10
133.09370370491362
 20
138.34924623115577
 10
133.04880773708868
 20
137.64572864321607
 10
133.0033875596945
 20
136.94221105527637
 10
132.95744309738063
 20
136.2386934673367
 10
132.91097427391207
 20
135.535175879397
 10
132.86398101216878
 20
134.8316582914573
 10
132.81646323414495
 20
134.1281407035176
 10
132.76842086094837
 20
133.4246231155779
 10
132.71985381279978
 20
132.7211055276382
 10
132.67076200903227
 20
132.0175879396985
 10
132.62114536809037
 20
131.3140703517588
 10
132.57100380752973
 20
130.6105527638191
 10
132.5203372440161
 20
129.9070351758794
 10
132.46914559332478
 20
129.2035175879397
 10
132.41742877034
 20
128.5
 10
86.43335003803699
 20
128.5
  0
HATCH
  5
80
330
17
100
AcDbEntity
  8
OUTLINE
 62
7
100
AcDbHatch
 10
0.0
 20
0.0
 30
0.0
210
0.0
220
0.0
230
1.0
  2
ANSI31
 70
0
 71
0
 91
1
 92
3
 72
0
 73
1
 93
402
 10
86.43335003803699
 20
128.5
 10
86.1985511182485
 20
129.2035175879397
 10
85.96638366212653
 20
129.9070351758794
 10
85.73683891121738
 20
130.6105527638191
 10
85.50990824417934
 20
131.3140703517588
 10
85.2855831749559
 20
132.0175879396985
 10
85.0638553509896
 20
132.7211055276382
 10
84.8447165514755
 20
133.4246231155779
 10
84.62815868565359
 20
134.1281407035176
 10
84.4141737911389
 20
134.8316582914573
 10
84.20275403228872
 20
135.535175879397
 10
83.99389169860592
 20
136.2386934673367
 10
83.78757920317747
 20
136.94221105527637
 10
83.5838090811477
 20
137.64572864321607
 10
83.38257398822506
 20
138.34924623115577
 10
83.18386669922192
 20
139.05276381909547
 10
82.98768010662667
 20
139.75628140703517
 10
82.79400721920724
 20
140.45979899497488
 10
82.60284116064558
 20
141.16331658291458
 10
82.4141751682021
 20
141.86683417085428
 10
82.22800259140982
 20
142.57035175879398
 10
82.04431689079725
 20
143.27386934673368
 10
81.86311163663962
 20
143.97738693467338
 10
81.68438050773767
 20
144.68090452261305
 10
81.50811729022368
 20
145.38442211055275
 10
81.3343158763938
 20
146.08793969849245
 10
81.16297026356652
 20
146.79145728643215
 10
80.99407455296651
 20
147.49497487437185
 10
80.8276229486334
 20
148.19849246231155
 10
80.663609756355
 20
148.90201005025125
 10
80.50202938262433
 20
149.60552763819095
 10
80.34287633362032
 20
150.30904522613065
 10
80.18614521421138
 20
151.01256281407035
 10
80.03183072698143
 20
151.71608040201005
 10
79.8799276712783
 20
152.41959798994975
 10
79.73043094228366
 20
153.12311557788945
 10
79.58333553010422
 20
153.82663316582915
 10
79.43863651888395
 20
154.53015075376885
 10
79.29632908593668
 20
155.23366834170855
 10
79.15640850089892
 20
155.93718592964825
 10
79.01887012490242
 20
156.64070351758795
 10
78.88370940976615
 20
157.34422110552765
 10
78.7509218972073
 20
158.04773869346735
 10
78.62050321807112
 20
158.75125628140705
 10
78.49244909157908
 20
159.45477386934675
 10
78.36675532459519
 20
160.15829145728642
 10
78.24341781091006
 20
160.86180904522612
 10
78.12243253054254
 20
161.56532663316582
 10
78.00379554905847
 20
162.26884422110552
 10
77.88750301690645
 20
162.97236180904522
 10
77.7735511687702
 20
163.67587939698493
 10
77.66193632293735
 20
164.37939698492463
 10
77.55265488068441
 20
165.08291457286433
 10
77.44570332567756
 20
165.78643216080403
 10
77.34107822338912
 20
166.48994974874373
 10
77.23877622052949
 20
167.19346733668343
 10
77.13879404449423
 20
167.89698492462313
 10
77.04112850282613
 20
168.6005025125628
 10
76.94577648269207
 20
169.30402010050253
 10
76.85273495037438
 20
170.0075376884422
 10
76.76200095077674
 20
170.7110552763819
 10
76.67357160694391
 20
171.4145728643216
 10
76.58744411959584
 20
172.1180904522613
 10
76.50361576667532
 20
172.821608040201
 10
76.42208390290935
 20
173.5251256281407
 10
76.34284595938395
 20
174.2286432160804
 10
76.2658994431323
 20
174.9321608040201
 10
76.191241936736
 20
175.6356783919598
 10
76.11887109793938
 20
176.3391959798995
 10
76.04878465927648
 20
177.0427135678392
 10
75.98098042771103
 20
177.7462311557789
 10
75.9154562842887
 20
178.4497487437186
 10
75.852210183802
 20
179.1532663316583
 10
75.79124015446739
 20
179.856783919598
 10
75.73254429761462
 20
180.5603015075377
 10
75.6761207873882
 20
181.26381909547737
 10
75.62196787046067
 20
181.9673366834171
 10
75.57008386575795
 20
182.67085427135677
 10
75.52046716419636
 20
183.37437185929647
 10
75.4731162284312
 20
184.07788944723617
 10
75.42802959261707
 20
184.78140703517587
 10
75.38520586217963
 20
185.48492462311557
 10
75.34464371359867
 20
186.18844221105527
 10
75.30634189420262
 20
186.89195979899498
 10
75.27029922197423
 20
187.59547738693468
 10
75.23651458536747
 20
188.29899497487438
 10
75.20498694313552
 20
189.00251256281408
 10
75.17571532416981
 20
189.70603015075378
 10
75.1486988273501
 20
190.40954773869348
 10
75.12393662140538
 20
191.11306532663318
 10
75.10142794478574
 20
191.81658291457288
 10
75.08117210554514
 20
192.52010050251255
 10
75.06316848123483
 20
193.22361809045225
 10
75.04741651880761
 20
193.92713567839195
 10
75.03391573453284
 20
194.63065326633165
 10
75.0226657139221
 20
195.33417085427135
 10
75.0136661116655
 20
196.03768844221105
 10
75.00691665157875
 20
196.74120603015075
 10
75.00241712656064
 20
197.44472361809045
 10
75.0001673985614
 20
198.14824120603015
 10
75.0001673985614
 20
198.85175879396985
 10
75.00241712656064
 20
199.55527638190955
 10
75.00691665157875
 20
200.25879396984925
 10
75.0136661116655
 20
200.96231155778895
 10
75.0226657139221
 20
201.66582914572865
 10
75.03391573453284
 20
202.36934673366835
 10
75.04741651880761
 20
203.07286432160805
 10
75.06316848123483
 20
203.77638190954772
 10
75.08117210554514
 20
204.47989949748745
 10
75.10142794478574
 20
205.18341708542712
 10
75.12393662140538
 20
205.88693467336682
 10
75.1486988273501
 20
206.59045226130652
 10
75.17571532416981
 20
207.29396984924622
 10
75.20498694313552
 20
207.99748743718592
 10
75.23651458536747
 20
208.70100502512562
 10
75.27029922197423
 20
209.40452261306532
 10
75.30634189420262
 20
210.10804020100502
 10
75.34464371359867
 20
210.81155778894473
 10
75.38520586217963
 20
211.51507537688443
 10
75.42802959261707
 20
212.21859296482413
 10
75.4731162284312
 20
212.9221105527638
 10
75.52046716419636
 20
213.62562814070353
 10
75.57008386575795
 20
214.32914572864323
 10
75.62196787046067
 20
215.0326633165829
 10
75.6761207873882
 20
215.7361809045226
 10
75.73254429761462
 20
216.4396984924623
 10
75.79124015446739
 20
217.14321608040203
 10
75.852210183802
 20
217.8467336683417
 10
75.9154562842887
 20
218.5502512562814
 10
75.98098042771103
 20
219.2537688442211
 10
76.04878465927648
 20
219.9572864321608
 10
76.11887109793938
 20
220.6608040201005
 10
76.191241936736
 20
221.3643216080402
 10
76.2658994431323
 20
222.0678391959799
 10
76.34284595938395
 20
222.7713567839196
 10
76.42208390290935
 20
223.4748743718593
 10
76.50361576667532
 20
224.178391959799
 10
76.58744411959584
 20
224.8819095477387
 10
76.67357160694391
 20
225.5854271356784
 10
76.76200095077674
 20
226.2889447236181
 10
76.85273495037438
 20
226.99246231155777
 10
76.94577648269207
 20
227.69597989949747
 10
77.04112850282613
 20
228.3994974874372
 10
77.13879404449423
 20
229.1030150753769
 10
77.23877622052949
 20
229.80653266331657
 10
77.34107822338912
 20
230.51005025125627
 10
77.44570332567756
 20
231.213567839196
 10
77.55265488068441
 20
231.91708542713567
 10
77.66193632293735
 20
232.62060301507537
 10
77.7735511687702
 20
233.32412060301507
 10
77.88750301690645
 20
234.02763819095475
 10
78.00379554905847
 20
234.73115577889448
 10
78.12243253054254
 20
235.43467336683418
 10
78.24341781091006
 20
236.13819095477388
 10
78.36675532459518
 20
236.84170854271355
 10
78.49244909157908
 20
237.54522613065325
 10
78.62050321807112
 20
238.24874371859298
 10
78.75092189720729
 20
238.95226130653265
 10
78.88370940976615
 20
239.65577889447235
 10
79.01887012490242
 20
240.35929648241205
 10
79.15640850089892
 20
241.06281407035175
 10
79.29632908593668
 20
241.76633165829145
 10
79.43863651888395
 20
242.46984924623115
 10
79.58333553010422
 20
243.17336683417085
 10
79.73043094228366
 20
243.87688442211055
 10
79.8799276712783
 20
244.58040201005025
 10
80.03183072698143
 20
245.28391959798995
 10
80.18614521421138
 20
245.98743718592965
 10
80.34287633362032
 20
246.69095477386935
 10
80.50202938262433
 20
247.39447236180905
 10
80.663609756355
 20
248.09798994974875
 10
80.8276229486334
 20
248.80150753768845
 10
80.99407455296651
 20
249.50502512562815
 10
81.16297026356652
 20
250.20854271356785
 10
81.3343158763938
 20
250.91206030150752
 10
81.50811729022368
 20
251.61557788944725
 10
81.68438050773767
 20
252.31909547738695
 10
81.8631116366396
 20
253.02261306532662
 10
82.04431689079725
 20
253.72613065326632
 10
82.22800259140982
 20
254.42964824120602
 10
82.4141751682021
 20
255.13316582914575
 10
82.60284116064558
 20
255.83668341708542
 10
82.79400721920724
 20
256.5402010050251
 10
82.98768010662667
 20
257.2437185929648
 10
83.18386669922191
 20
257.9472361809045
 10
83.38257398822506
 20
258.6507537688442
 10
83.5838090811477
 20
259.3542713567839
 10
83.78757920317747
 20
260.0577889447236
 10
83.99389169860592
 20
260.7613065326633
 10
84.20275403228872
 20
261.464824120603
 10
84.41417379113891
 20
262.1683417085427
 10
84.62815868565359
 20
262.8718592964824
 10
84.8447165514755
 20
263.5753768844221
 10
85.0638553509896
 20
264.2788944723618
 10
85.2855831749559
 20
264.9824120603015
 10
85.50990824417934
 20
265.6859296482412
 10
85.73683891121738
 20
266.3894472361809
 10
85.96638366212653
 20
267.0929648241206
 10
86.19855111824849
 20
267.7964824120603
 10
86.43335003803699
 20
268.5
 10
132.41742877034
 20
268.5
 10
132.41742877034
 20
268.5
 10
132.46914559332478
 20
267.7964824120603
 10
132.52033724401608
 20
267.0929648241206
 10
132.57100380752973
 20
266.3894472361809
 10
132.62114536809037
 20
265.6859296482412
 10
132.67076200903227
 20
264.9824120603015
 10
132.71985381279978
 20
264.2788944723618
 10
132.76842086094837
 20
263.5753768844221
 10
132.81646323414495
 20
262.8718592964824
 10
132.86398101216878
 20
262.1683417085427
 10
132.91097427391207
 20
261.464824120603
 10
132.95744309738063
 20
260.7613065326633
 10
133.0033875596945
 20
260.0577889447236
 10
133.04880773708868
 20
259.3542713567839
 10
133.09370370491362
 20
258.6507537688442
 10
133.13807553763604
 20
257.9472361809045
 10
133.18192330883932
 20
257.2437185929648
 10
133.2252470912244
 20
256.5402010050251
 10
133.26804695661002
 20
255.83668341708542
 10
133.31032297593373
 20
255.13316582914575
 10
133.35207521925216
 20
254.42964824120602
 10
133.39330375574173
 20
253.72613065326632
 10
133.4340086536992
 20
253.02261306532662
 10
133.4741899805423
 20
252.31909547738695
 10
133.51384780281023
 20
251.61557788944725
 10
133.55298218616417
 20
250.91206030150752
 10
133.59159319538796
 20
250.20854271356785
 10
133.6296808943885
 20
249.50502512562815
 10
133.66724534619635
 20
248.80150753768845
 10
133.70428661296629
 20
248.09798994974875
 10
133.74080475597776
 20
247.39447236180905
 10
133.77679983563536
 20
246.69095477386935
 10
133.81227191146942
 20
245.98743718592965
 10
133.84722104213654
 20
245.28391959798995
 10
133.88164728541986
 20
244.58040201005025
 10
133.9155506982298
 20
243.87688442211055
 10
133.94893133660435
 20
243.17336683417085
 10
133.9817892557096
 20
242.46984924623115
 10
134.0141245098402
 20
241.76633165829145
 10
134.04593715241987
 20
241.06281407035175
 10
134.07722723600165
 20
240.35929648241205
 10
134.10799481226857
 20
239.65577889447235
 10
134.1382399320339
 20
238.95226130653265
 10
134.16796264524172
 20
238.24874371859298
 10
134.19716300096712
 20
237.54522613065325
 10
134.2258410474169
 20
236.84170854271355
 10
134.25399683192973
 20
236.13819095477388
 10
134.28163040097655
 20
235.43467336683418
 10
134.30874180016116
 20
234.73115577889448
 10
134.33533107422036
 20
234.02763819095475
 10
134.36139826702453
 20
233.32412060301507
 10
134.3869434215777
 20
232.62060301507537
 10
134.41196658001832
 20
231.91708542713567
 10
134.4364677836192
 20
231.213567839196
 10
134.4604470727881
 20
230.51005025125627
 10
134.483904487068
 20
229.80653266331657
 10
134.5068400651374
 20
229.1030150753769
 10
134.52925384481063
 20
228.3994974874372
 10
134.55114586303822
 20
227.69597989949747
 10
134.57251615590718
 20
226.99246231155777
 10
134.59336475864134
 20
226.2889447236181
 10
134.6136917056015
 20
225.5854271356784
 10
134.63349703028584
 20
224.8819095477387
 10
134.65278076533022
 20
224.178391959799
 10
134.6715429425083
 20
223.4748743718593
 10
134.68978359273194
 20
222.7713567839196
 10
134.7075027460515
 20
222.0678391959799
 10
134.72470043165578
 20
221.3643216080402
 10
134.7413766778727
 20
220.6608040201005
 10
134.75753151216918
 20
219.9572864321608
 10
134.77316496115154
 20
219.2537688442211
 10
134.78827705056568
 20
218.5502512562814
 10
134.80286780529732
 20
217.8467336683417
 10
134.81693724937207
 20
217.14321608040203
 10
134.83048540595587
 20
216.4396984924623
 10
134.84351229735495
 20
215.7361809045226
 10
134.85601794501608
 20
215.0326633165829
 10
134.8680023695269
 20
214.32914572864323
 10
134.87946559061584
 20
213.62562814070353
 10
134.89040762715246
 20
212.9221105527638
 10
134.9008284971476
 20
212.21859296482413
 10
134.91072821775333
 20
211.51507537688443
 10
134.9201068052634
 20
210.81155778894473
 10
134.92896427511312
 20
210.10804020100502
 10
134.93730064187963
 20
209.40452261306532
 10
134.94511591928196
 20
208.70100502512562
 10
134.95241012018113
 20
207.99748743718592
 10
134.95918325658027
 20
207.29396984924622
 10
134.96543533962478
 20
206.59045226130652
 10
134.97116637960238
 20
205.88693467336682
 10
134.9763763859431
 20
205.18341708542712
 10
134.98106536721951
 20
204.47989949748745
 10
134.98523333114673
 20
203.77638190954772
 10
134.98888028458242
 20
203.07286432160805
 10
134.992006233527
 20
202.36934673366835
 10
134.99461118312354
 20
201.66582914572865
 10
134.9966951376578
 20
200.96231155778895
 10
134.99825810055853
 20
200.25879396984925
 10
134.99930007439713
 20
199.55527638190955
 10
134.99982106088783
 20
198.85175879396985
 10
134.99982106088783
 20
198.14824120603015
 10
134.99930007439713
 20
197.44472361809045
 10
134.99825810055853
 20
196.74120603015075
 10
134.9966951376578
 20
196.03768844221105
 10
134.99461118312354
 20
195.33417085427135
 10
134.992006233527
 20
194.63065326633165
 10
134.98888028458242
 20
193.92713567839195
 10
134.98523333114673
 20
193.22361809045225
 10
134.98106536721951
 20
192.52010050251255
 10
134.9763763859431
 20
191.81658291457288
 10
134.97116637960238
 20
191.11306532663318
 10
134.96543533962478
 20
190.40954773869348
 10
134.95918325658027
 20
189.70603015075378
 10
134.95241012018113
 20
189.00251256281408
 10
134.94511591928196
 20
188.29899497487438
 10
134.93730064187963
 20
187.59547738693468
 10
134.92896427511312
 20
186.89195979899498
 10
134.9201068052634
 20
186.18844221105527
 10
134.91072821775333
 20
185.48492462311557
 10
134.9008284971476
 20
184.78140703517587
 10
134.89040762715246
 20
184.07788944723617
 10
134.87946559061584
 20
183.37437185929647
 10
134.8680023695269
 20
182.67085427135677
 10
134.85601794501608
 20
181.9673366834171
 10
134.84351229735495
 20
181.26381909547737
 10
134.83048540595587
 20
180.5603015075377
 10
134.81693724937207
 20
179.856783919598
 10
134.80286780529732
 20
179.1532663316583
 10
134.78827705056568
 20
178.4497487437186
 10
134.77316496115154
 20
177.7462311557789
 10
134.75753151216918
 20
177.0427135678392
 10
134.7413766778727
 20
176.3391959798995
 10
134.72470043165578
 20
175.6356783919598
 10
134.7075027460515
 20
174.9321608040201
 10
134.68978359273194
 20
174.2286432160804
 10
134.6715429425083
 20
173.5251256281407
 10
134.65278076533022
 20
172.821608040201
 10
134.63349703028584
 20
172.1180904522613
 10
134.6136917056015
 20
171.4145728643216
 10
134.59336475864134
 20
170.7110552763819
 10
134.57251615590718
 20
170.0075376884422
 10
134.55114586303822
 20
169.30402010050253
 10
134.52925384481063
 20
168.6005025125628
 10
134.5068400651374
 20
167.89698492462313
 10
134.483904487068
 20
167.19346733668343
 10
134.4604470727881
 20
166.48994974874373
 10
134.4364677836192
 20
165.78643216080403
 10
134.41196658001832
 20
165.08291457286433
 10
134.3869434215777
 20
164.37939698492463
 10
134.36139826702453
 20
163.67587939698493
 10
134.33533107422036
 20
162.97236180904522
 10
134.30874180016116
 20
162.26884422110552
 10
134.28163040097655
 20
161.56532663316582
 10
134.25399683192973
 20
160.86180904522612
 10
134.2258410474169
 20
160.15829145728642
 10
134.19716300096712
 20
159.45477386934675
 10
134.16796264524172
 20
158.75125628140705
 10
134.1382399320339
 20
158.04773869346735
 10
134.10799481226857
 20
157.34422110552765
 10
134.07722723600165
 20
156.64070351758795
 10
134.04593715241987
 20
155.93718592964825
 10
134.0141245098402
 20
155.23366834170855
 10
133.9817892557096
 20
154.53015075376885
 10
133.94893133660435
 20
153.82663316582915
 10
133.9155506982298
 20
153.12311557788945
 10
133.88164728541986
 20
152.41959798994975
 10
133.84722104213654
 20
151.71608040201005
 10
133.81227191146942
 20
151.01256281407035
 10
133.77679983563536
 20
150.30904522613065
 10
133.74080475597776
 20
149.60552763819095
 10
133.70428661296629
 20
148.90201005025125
 10
133.66724534619635
 20
148.19849246231155
 10
133.6296808943885
 20
147.49497487437185
 10
133.59159319538796
 20
146.79145728643215
 10
133.55298218616417
 20
146.08793969849245
 10
133.51384780281023
 20
145.38442211055275
 10
133.4741899805423
 20
144.68090452261305
 10
133.4340086536992
 20
143.97738693467338
 10
133.39330375574173
 20
143.27386934673368
 10
133.35207521925216
 20
142.57035175879398
 10
133.31032297593373
 20
141.86683417085428
 10
133.26804695661002
 20
141.16331658291458
 10
133.2252470912244
 20
140.45979899497488
 10
133.18192330883932
 20
139.75628140703517
 10
133.13807553763604
 20
139.05276381909547
 10
133.09370370491362
 20
138.34924623115577
 10
133.04880773708868
 20
137.64572864321607
 10
133.0033875596945
 20
136.94221105527637
 10
132.95744309738063
 20
136.2386934673367
 10
132.91097427391207
 20
135.535175879397
 10
132.86398101216878
 20
134.8316582914573
 10
132.81646323414495
 20
134.1281407035176
 10
132.76842086094837
 20
133.4246231155779
 10
132.71985381279978
 20
132.7211055276382
 10
132.67076200903227
 20
132.0175879396985
 10
132.62114536809037
 20
131.3140703517588
 10
132.57100380752973
 20
130.6105527638191
 10
132.5203372440161
 20
129.9070351758794
 10
132.46914559332478
 20
129.2035175879397
 10
132.41742877034
 20
128.5
 10
86.43335003803699
 20
128.5
 97
0
 75
1
 76
1
 52
0.0
 41
1.0
 77
0
 78
1
 53
45.0
 43
0.0
 44
0.0
 45
-2.2450640303
 46
2.2450640303
 79
0
 98
0
  0
LINE
  5
81
330
17
100
AcDbEntity
  8
DIMS
100
AcDbLine
 10
74.99988618417909
 20
127.0
 30
0.0
 11
74.99988618417909
 21
120.5
 31
0.0
  0
LINE
  5
82
330
17
100
AcDbEntity
  8
DIMS
100
AcDbLine
 10
134.9998861841791
 20
127.0
 30
0.0
 11
134.9998861841791
 21
120.5
 31
0.0
  0
LINE
  5
83
330
17
100
AcDbEntity
  8
DIMS
100
AcDbLine
 10
74.99988618417909
 20
120.5
 30
0.0
 11
134.9998861841791
 21
120.5
 31
0.0
  0
SOLID
  5
84
330
17
100
AcDbEntity
  8
DIMS
100
AcDbTrace
 10
74.99988618417909
 20
120.5
 30
0.0
 11
77.49988618417909
 21
119.7
 31
0.0
 12
77.49988618417909
 22
121.3
 32
0.0
 13
77.49988618417909
 23
121.3
 33
0.0
  0
SOLID
  5
85
330
17
100
AcDbEntity
  8
DIMS
100
AcDbTrace
 10
134.9998861841791
 20
120.5
 30
0.0
 11
132.4998861841791
 21
121.3
 31
0.0
 12
132.4998861841791
 22
119.7
 32
0.0
 13
132.4998861841791
 23
119.7
 33
0.0
  0
TEXT
  5
86
330
17
100
AcDbEntity
  8
DIMS
100
AcDbText
 10
104.9998861841791
 20
116.5
 30
0.0
 40
2.5
  1
6.00
 72
4
 11
104.9998861841791
 21
116.5
 31
0.0
100
AcDbText
 73
3
  0
LINE
  5
87
330
17
100
AcDbEntity
  8
DIMS
100
AcDbLine
 10
132.41742877034
 20
268.5
 30
0.0
 11
146.99983260143858
 21
268.5
 31
0.0
  0
LINE
  5
88
330
17
100
AcDbEntity
  8
DIMS
100
AcDbLine
 10
86.43335003803699
 20
128.5
 30
0.0
 11
146.99983260143858
 21
128.5
 31
0.0
  0
LINE
  5
89
330
17
100
AcDbEntity
  8
DIMS
100
AcDbLine
 10
144.99983260143858
 20
268.5
 30
0.0
 11
144.99983260143858
 21
128.5
 31
0.0
  0
SOLID
  5
8A
330
17
100
AcDbEntity
  8
DIMS
100
AcDbTrace
 10
144.99983260143858
 20
268.5
 30
0.0
 11
144.19983260143857
 21
266.0
 31
0.0
 12
145.7998326014386
 22
266.0
 32
0.0
 13
145.7998326014386
 23
266.0
 33
0.0
  0
SOLID
  5
8B
330
17
100
AcDbEntity
  8
DIMS
100
AcDbTrace
 10
144.99983260143858
 20
128.5
 30
0.0
 11
145.7998326014386
 21
131.0
 31
0.0
 12
144.19983260143857
 22
131.0
 32
0.0
 13
144.19983260143857
 23
131.0
 33
0.0
  0
TEXT
  5
8C
330
17
100
AcDbEntity
  8
DIMS
100
AcDbText
 10
147.99983260143858
 20
198.5
 30
0.0
 40
2.5
  1
Ø 14.00
100
AcDbText
 73
2
  0
LINE
  5
8D
330
17
100
AcDbEntity
  8
DIMS
100
AcDbLine
 10
86.43335003803699
 20
270.0
 30
0.0
 11
86.43335003803699
 21
276.5
 31
0.0
  0
LINE
  5
8E
330
17
100
AcDbEntity
  8
DIMS
100
AcDbLine
 10
132.41742877034
 20
270.0
 30
0.0
 11
132.41742877034
 21
276.5
 31
0.0
  0
LINE
  5
8F
330
17
100
AcDbEntity
  8
DIMS
100
AcDbLine
 10
86.43335003803699
 20
276.5
 30
0.0
 11
132.41742877034
 21
276.5
 31
0.0
  0
SOLID
  5
90
330
17
100
AcDbEntity
  8
DIMS
100
AcDbTrace
 10
86.43335003803699
 20
276.5
 30
0.0
 11
88.93335003803699
 21
275.7
 31
0.0
 12
88.93335003803699
 22
277.3
 32
0.0
 13
88.93335003803699
 23
277.3
 33
0.0
  0
SOLID
  5
91
330
17
100
AcDbEntity
  8
DIMS
100
AcDbTrace
 10
132.41742877034
 20
276.5
 30
0.0
 11
129.91742877034
 21
277.3
 31
0.0
 12
129.91742877034
 22
275.7
 32
0.0
 13
129.91742877034
 23
275.7
 33
0.0
  0
TEXT
  5
92
330
17
100
AcDbEntity
  8
DIMS
100
AcDbText
 10
109.4253894041885
 20
278.5
 30
0.0
 40
2.5
  1
(4.60)
 72
4
 11
109.4253894041885
 21
278.5
 31
0.0
100
AcDbText
 73
1
  0
LINE
  5
93
330
17
100
AcDbEntity
  8
DIMS
100
AcDbLine
 10
86.43335003803699
 20
268.5
 30
0.0
 11
83.43335003803699
 21
268.5
 31
0.0
  0
LINE
  5
94
330
17
100
AcDbEntity
  8
DIMS
100
AcDbLine
 10
86.43335003803699
 20
128.5
 30
0.0
 11
83.43335003803699
 21
128.5
 31
0.0
  0
LINE
  5
95
330
17
100
AcDbEntity
  8
DIMS
100
AcDbLine
 10
83.43335003803699
 20
128.5
 30
0.0
 11
83.43335003803699
 21
268.5
 31
0.0
  0
TEXT
  5
96
330
17
100
AcDbEntity
  8
DIMS
100
AcDbText
 10
82.43335003803699
 20
198.5
 30
0.0
 40
2.0
  1
Øₑ 14.00
 72
2
 11
82.43335003803699
 21
198.5
 31
0.0
100
AcDbText
 73
2
  0
LINE
  5
97
330
17
100
AcDbEntity
  8
DIMS
100
AcDbLine
 10
132.87558104754697
 20
261.9954099702295
 30
0.0
 11
135.87558104754697
 21
261.9954099702295
 31
0.0
  0
LINE
  5
98
330
17
100
AcDbEntity
  8
DIMS
100
AcDbLine
 10
132.87558104754697
 20
135.00459002977047
 30
0.0
 11
135.87558104754697
 21
135.00459002977047
 31
0.0
  0
LINE
  5
99
330
17
100
AcDbEntity
  8
DIMS
100
AcDbLine
 10
135.87558104754697
 20
135.00459002977047
 30
0.0
 11
135.87558104754697
 21
261.9954099702295
 31
0.0
  0
TEXT
  5
9A
330
17
100
AcDbEntity
  8
DIMS
100
AcDbText
 10
136.87558104754697
 20
198.5
 30
0.0
 40
2.0
  1
Øₑ 12.70
 11
136.87558104754697
 21
198.5
 31
0.0
100
AcDbText
 73
2
  0
LWPOLYLINE
  5
9B
330
17
100
AcDbEntity
  8
CALLOUT
100
AcDbPolyline
 90
3
 70
1
 10
83.19868222159535
 20
258.0
 10
78.90732588209787
 20
256.9054544296129
 10
80.10509959766605
 20
261.1691504805722
  0
LINE
  5
9C
330
17
100
AcDbEntity
  8
CALLOUT
100
AcDbLine
 10
83.19868222159535
 20
258.0
 30
0.0
 11
76.97230629803211
 21
264.3595718128683
 31
0.0
  0
LINE
  5
9D
330
17
100
AcDbEntity
  8
CALLOUT
100
AcDbLine
 10
76.98637148655833
 20
264.30192777360463
 30
0.0
 11
77.72380503552424
 21
266.9269582528211
 31
0.0
  0
TEXT
  5
9E
330
17
100
AcDbEntity
  8
CALLOUT
100
AcDbText
 10
78.12948685370606
 20
268.37105737074785
 30
0.0
 40
2.0
  1
S1
 72
4
 11
78.12948685370606
 21
268.37105737074785
 31
0.0
100
AcDbText
 73
2
  0
LWPOLYLINE
  5
9F
330
17
100
AcDbEntity
  8
CALLOUT
100
AcDbPolyline
 90
3
 70
1
 10
133.90965534034075
 20
244.0
 10
137.63460148205704
 20
246.39552613834877
 10
137.84671496976756
 20
241.97186546453992
  0
LINE
  5
A0
330
17
100
AcDbEntity
  8
CALLOUT
100
AcDbLine
 10
133.90965534034075
 20
244.0
 30
0.0
 11
141.8276997613836
 21
239.9359523463733
 31
0.0
  0
LINE
  5
A1
330
17
100
AcDbEntity
  8
CALLOUT
100
AcDbLine
 10
141.79612631694113
 20
239.98618960741473
 30
0.0
 11
141.92671826431217
 21
237.26267368140333
 31
0.0
  0
TEXT
  5
A2
330
17
100
AcDbEntity
  8
CALLOUT
100
AcDbText
 10
141.99856036957533
 20
235.76439509852517
 30
0.0
 40
2.0
  1
S2
 72
4
 11
141.99856036957533
 21
235.76439509852517
 31
0.0
100
AcDbText
 73
2
  0
ENDSEC
  0
SECTION
  2
OBJECTS
  0
DICTIONARY
  5
A
330
0
100
AcDbDictionary
281
1
  3
ACAD_COLOR
350
B
  3
ACAD_GROUP
350
C
  3
ACAD_LAYOUT
350
D
  3
ACAD_MATERIAL
350
E
  3
ACAD_MLEADERSTYLE
350
F
  3
ACAD_MLINESTYLE
350
10
  3
ACAD_PLOTSETTINGS
350
11
  3
ACAD_PLOTSTYLENAME
350
12
  3
ACAD_SCALELIST
350
14
  3
ACAD_TABLESTYLE
350
15
  3
ACAD_VISUALSTYLE
350
16
  3
EZDXF_META
350
2D
  0
DICTIONARY
  5
B
330
A
100
AcDbDictionary
281
1
  0
DICTIONARY
  5
C
330
A
100
AcDbDictionary
281
1
  0
DICTIONARY
  5
D
330
A
100
AcDbDictionary
281
1
  3
Model
350
1A
  3
Layout1
350
1E
  0
DICTIONARY
  5
E
330
A
100
AcDbDictionary
281
1
  3
ByBlock
350
1F
  3
ByLayer
350
20
  3
Global
350
21
  0
DICTIONARY
  5
F
330
A
100
AcDbDictionary
281
1
  3
Standard
350
2C
  0
DICTIONARY
  5
10
330
A
100
AcDbDictionary
281
1
  3
Standard
350
22
  0
DICTIONARY
  5
11
330
A
100
AcDbDictionary
281
1
  0
ACDBDICTIONARYWDFLT
  5
12
330
A
100
AcDbDictionary
281
1
  3
Normal
350
13
100
AcDbDictionaryWithDefault
340
13
  0
ACDBPLACEHOLDER
  5
13
330
12
  0
DICTIONARY
  5
14
330
A
100
AcDbDictionary
281
1
  0
DICTIONARY
  5
15
330
A
100
AcDbDictionary
281
1
  0
DICTIONARY
  5
16
330
A
100
AcDbDictionary
281
1
  0
LAYOUT
  5
1A
330
D
100
AcDbPlotSettings
  1

  4
A3
  6

 40
7.5
 41
20.0
 42
7.5
 43
20.0
 44
420.0
 45
297.0
 46
0.0
 47
0.0
 48
0.0
 49
0.0
140
0.0
141
0.0
142
1.0
143
1.0
 70
1024
 72
1
 73
0
 74
5
  7

 75
16
 76
0
 77
2
 78
300
147
1.0
148
0.0
149
0.0
100
AcDbLayout
  1
Model
 70
1
 71
0
 10
0.0
 20
0.0
 11
420.0
 21
297.0
 12
0.0
 22
0.0
 32
0.0
 14
1e+20
 24
1e+20
 34
1e+20
 15
-1e+20
 25
-1e+20
 35
-1e+20
146
0.0
 13
0.0
 23
0.0
 33
0.0
 16
1.0
 26
0.0
 36
0.0
 17
0.0
 27
1.0
 37
0.0
 76
1
330
17
  0
LAYOUT
  5
1E
330
D
100
AcDbPlotSettings
  1

  4
A3
  6

 40
7.5
 41
20.0
 42
7.5
 43
20.0
 44
420.0
 45
297.0
 46
0.0
 47
0.0
 48
0.0
 49
0.0
140
0.0
141
0.0
142
1.0
143
1.0
 70
0
 72
1
 73
0
 74
5
  7

 75
16
 76
0
 77
2
 78
300
147
1.0
148
0.0
149
0.0
100
AcDbLayout
  1
Layout1
 70
1
 71
1
 10
0.0
 20
0.0
 11
420.0
 21
297.0
 12
0.0
 22
0.0
 32
0.0
 14
1e+20
 24
1e+20
 34
1e+20
 15
-1e+20
 25
-1e+20
 35
-1e+20
146
0.0
 13
0.0
 23
0.0
 33
0.0
 16
1.0
 26
0.0
 36
0.0
 17
0.0
 27
1.0
 37
0.0
 76
1
330
1B
  0
MATERIAL
  5
1F
102
{ACAD_REACTORS
330
E
102
}
330
E
100
AcDbMaterial
  1
ByBlock
  2

 70
0
 40
1.0
 71
1
 41
1.0
 91
-1023410177
 42
1.0
 72
1
  3

 73
1
 74
1
 75
1
 44
0.5
 73
0
 45
1.0
 46
1.0
 77
1
  4

 78
1
 79
1
170
1
 48
1.0
171
1
  6

172
1
173
1
174
1
140
1.0
141
1.0
175
1
  7

176
1
177
1
178
1
143
1.0
179
1
  8

270
1
271
1
272
1
145
1.0
146
1.0
273
1
  9

274
1
275
1
276
1
 42
1.0
 72
1
  3

 73
1
 74
1
 75
1
 94
63
  0
MATERIAL
  5
20
102
{ACAD_REACTORS
330
E
102
}
330
E
100
AcDbMaterial
  1
ByLayer
  2

 70
0
 40
1.0
 71
1
 41
1.0
 91
-1023410177
 42
1.0
 72
1
  3

 73
1
 74
1
 75
1
 44
0.5
 73
0
 45
1.0
 46
1.0
 77
1
  4

 78
1
 79
1
170
1
 48
1.0
171
1
  6

172
1
173
1
174
1
140
1.0
141
1.0
175
1
  7

176
1
177
1
178
1
143
1.0
179
1
  8

270
1
271
1
272
1
145
1.0
146
1.0
273
1
  9

274
1
275
1
276
1
 42
1.0
 72
1
  3

 73
1
 74
1
 75
1
 94
63
  0
MATERIAL
  5
21
102
{ACAD_REACTORS
330
E
102
}
330
E
100
AcDbMaterial
  1
Global
  2

 70
0
 40
1.0
 71
1
 41
1.0
 91
-1023410177
 42
1.0
 72
1
  3

 73
1
 74
1
 75
1
 44
0.5
 73
0
 45
1.0
 46
1.0
 77
1
  4

 78
1
 79
1
170
1
 48
1.0
171
1
  6

172
1
173
1
174
1
140
1.0
141
1.0
175
1
  7

176
1
177
1
178
1
143
1.0
179
1
  8

270
1
271
1
272
1
145
1.0
146
1.0
273
1
  9

274
1
275
1
276
1
 42
1.0
 72
1
  3

 73
1
 74
1
 75
1
 94
63
  0
MLINESTYLE
  5
22
102
{ACAD_REACTORS
330
10
102
}
330
10
100
AcDbMlineStyle
  2
Standard
 70
0
  3

 62
256
 51
90.0
 52
90.0
 71
2
 49
0.5
 62
256
  6
BYLAYER
 49
-0.5
 62
256
  6
BYLAYER
  0
MLEADERSTYLE
  5
2C
102
{ACAD_REACTORS
330
F
102
}
330
F
100
AcDbMLeaderStyle
179
2
170
2
171
1
172
0
 90
2
 40
0.0
 41
0.0
173
1
 91
-1056964608
 92
-2
290
1
 42
2.0
291
1
 43
8.0
  3
Standard
 44
4.0
300

342
29
174
1
175
1
176
0
178
1
 93
-1056964608
 45
4.0
292
0
297
0
 46
4.0
 94
-1056964608
 47
1.0
 49
1.0
140
1.0
294
1
141
0.0
177
0
142
1.0
295
0
296
0
143
3.75
271
0
272
9
273
9
  0
DICTIONARY
  5
2D
330
A
100
AcDbDictionary
280
1
281
1
  3
CREATED_BY_EZDXF
350
2E
  3
WRITTEN_BY_EZDXF
350
A5
  0
DICTIONARYVAR
  5
2E
330
2D
100
DictionaryVariables
280
0
  1
1.4.3 @ 2026-07-16T08:03:01.270149+00:00
  0
DICTIONARYVAR
  5
A5
330
2D
100
DictionaryVariables
280
0
  1
1.4.3 @ 2026-07-16T08:03:01.310456+00:00
  0
ENDSEC
  0
EOF
