  0
SECTION
  2
HEADER
  9
$ACADVER
  1
AC1024
  9
$ACADMAINTVER
 70
6
  9
$DWGCODEPAGE
  3
ANSI_1252
  9
$LASTSAVEDBY
  1
ezdxf
  9
$INSBASE
 10
0.0
 20
0.0
 30
0.0
  9
$EXTMIN
 10
0.0
 20
0.0
 30
0.0
  9
$EXTMAX
 10
210.0
 20
297.0
 30
0.0
  9
$LIMMIN
 10
0.0
 20
0.0
  9
$LIMMAX
 10
420.0
 20
297.0
  9
$ORTHOMODE
 70
0
  9
$REGENMODE
 70
1
  9
$FILLMODE
 70
1
  9
$QTEXTMODE
 70
0
  9
$MIRRTEXT
 70
1
  9
$LTSCALE
 40
1.0
  9
$ATTMODE
 70
1
  9
$TEXTSIZE
 40
2.5
  9
$TRACEWID
 40
1.0
  9
$TEXTSTYLE
  7
Standard
  9
$CLAYER
  8
0
  9
$CELTYPE
  6
ByLayer
  9
$CECOLOR
 62
256
  9
$CELTSCALE
 40
1.0
  9
$DISPSILH
 70
0
  9
$DIMSCALE
 40
1.0
  9
$DIMASZ
 40
2.5
  9
$DIMEXO
 40
0.625
  9
$DIMDLI
 40
3.75
  9
$DIMRND
 40
0.0
  9
$DIMDLE
 40
0.0
  9
$DIMEXE
 40
1.25
  9
$DIMTP
 40
0.0
  9
$DIMTM
 40
0.0
  9
$DIMTXT
 40
2.5
  9
$DIMCEN
 40
2.5
  9
$DIMTSZ
 40
0.0
  9
$DIMTOL
 70
0
  9
$DIMLIM
 70
0
  9
$DIMTIH
 70
0
  9
$DIMTOH
 70
0
  9
$DIMSE1
 70
0
  9
$DIMSE2
 70
0
  9
$DIMTAD
 70
1
  9
$DIMZIN
 70
8
  9
$DIMBLK
  1

  9
$DIMASO
 70
1
  9
$DIMSHO
 70
1
  9
$DIMPOST
  1

  9
$DIMAPOST
  1

  9
$DIMALT
 70
0
  9
$DIMALTD
 70
3
  9
$DIMALTF
 40
0.03937007874
  9
$DIMLFAC
 40
1.0
  9
$DIMTOFL
 70
1
  9
$DIMTVP
 40
0.0
  9
$DIMTIX
 70
0
  9
$DIMSOXD
 70
0
  9
$DIMSAH
 70
0
  9
$DIMBLK1
  1

  9
$DIMBLK2
  1

  9
$DIMSTYLE
  2
ISO-25
  9
$DIMCLRD
 70
0
  9
$DIMCLRE
 70
0
  9
$DIMCLRT
 70
0
  9
$DIMTFAC
 40
1.0
  9
$DIMGAP
 40
0.625
  9
$DIMJUST
 70
0
  9
$DIMSD1
 70
0
  9
$DIMSD2
 70
0
  9
$DIMTOLJ
 70
0
  9
$DIMTZIN
 70
8
  9
$DIMALTZ
 70
0
  9
$DIMALTTZ
 70
0
  9
$DIMUPT
 70
0
  9
$DIMDEC
 70
2
  9
$DIMTDEC
 70
2
  9
$DIMALTU
 70
2
  9
$DIMALTTD
 70
3
  9
$DIMTXSTY
  7
Standard
  9
$DIMAUNIT
 70
0
  9
$DIMADEC
 70
0
  9
$DIMALTRND
 40
0.0
  9
$DIMAZIN
 70
0
  9
$DIMDSEP
 70
44
  9
$DIMATFIT
 70
3
  9
$DIMFRAC
 70
0
  9
$DIMLDRBLK
  1

  9
$DIMLUNIT
 70
2
  9
$DIMLWD
 70
-2
  9
$DIMLWE
 70
-2
  9
$DIMTMOVE
 70
0
  9
$DIMFXL
 40
1.0
  9
$DIMFXLON
 70
0
  9
$DIMJOGANG
 40
0.785398163397
  9
$DIMTFILL
 70
0
  9
$DIMTFILLCLR
 70
0
  9
$DIMARCSYM
 70
0
  9
$DIMLTYPE
  6

  9
$DIMLTEX1
  6

  9
$DIMLTEX2
  6

  9
$DIMTXTDIRECTION
 70
0
  9
$LUNITS
 70
2
  9
$LUPREC
 70
4
  9
$SKETCHINC
 40
1.0
  9
$FILLETRAD
 40
10.0
  9
$AUNITS
 70
0
  9
$AUPREC
 70
2
  9
$MENU
  1
.
  9
$ELEVATION
 40
0.0
  9
$PELEVATION
 40
0.0
  9
$THICKNESS
 40
0.0
  9
$LIMCHECK
 70
0
  9
$CHAMFERA
 40
0.0
  9
$CHAMFERB
 40
0.0
  9
$CHAMFERC
 40
0.0
  9
$CHAMFERD
 40
0.0
  9
$SKPOLY
 70
0
  9
$TDCREATE
 40
2461248.513900463
  9
$TDUCREATE
 40
2458532.153996898
  9
$TDUPDATE
 40
2461248.513900463
  9
$TDUUPDATE
 40
2458532.1544311
  9
$TDINDWG
 40
0.0
  9
$TDUSRTIMER
 40
0.0
  9
$USRTIMER
 70
1
  9
$ANGBASE
 50
0.0
  9
$ANGDIR
 70
0
  9
$PDMODE
 70
0
  9
$PDSIZE
 40
0.0
  9
$PLINEWID
 40
0.0
  9
$SPLFRAME
 70
0
  9
$SPLINETYPE
 70
6
  9
$SPLINESEGS
 70
8
  9
$HANDSEED
  5
A6
  9
$SURFTAB1
 70
6
  9
$SURFTAB2
 70
6
  9
$SURFTYPE
 70
6
  9
$SURFU
 70
6
  9
$SURFV
 70
6
  9
$UCSBASE
  2

  9
$UCSNAME
  2

  9
$UCSORG
 10
0.0
 20
0.0
 30
0.0
  9
$UCSXDIR
 10
1.0
 20
0.0
 30
0.0
  9
$UCSYDIR
 10
0.0
 20
1.0
 30
0.0
  9
$UCSORTHOREF
  2

  9
$UCSORTHOVIEW
 70
0
  9
$UCSORGTOP
 10
0.0
 20
0.0
 30
0.0
  9
$UCSORGBOTTOM
 10
0.0
 20
0.0
 30
0.0
  9
$UCSORGLEFT
 10
0.0
 20
0.0
 30
0.0
  9
$UCSORGRIGHT
 10
0.0
 20
0.0
 30
0.0
  9
$UCSORGFRONT
 10
0.0
 20
0.0
 30
0.0
  9
$UCSORGBACK
 10
0.0
 20
0.0
 30
0.0
  9
$PUCSBASE
  2

  9
$PUCSNAME
  2

  9
$PUCSORG
 10
0.0
 20
0.0
 30
0.0
  9
$PUCSXDIR
 10
1.0
 20
0.0
 30
0.0
  9
$PUCSYDIR
 10
0.0
 20
1.0
 30
0.0
  9
$PUCSORTHOREF
  2

  9
$PUCSORTHOVIEW
 70
0
  9
$PUCSORGTOP
 10
0.0
 20
0.0
 30
0.0
  9
$PUCSORGBOTTOM
 10
0.0
 20
0.0
 30
0.0
  9
$PUCSORGLEFT
 10
0.0
 20
0.0
 30
0.0
  9
$PUCSORGRIGHT
 10
0.0
 20
0.0
 30
0.0
  9
$PUCSORGFRONT
 10
0.0
 20
0.0
 30
0.0
  9
$PUCSORGBACK
 10
0.0
 20
0.0
 30
0.0
  9
$USERI1
 70
0
  9
$USERI2
 70
0
  9
$USERI3
 70
0
  9
$USERI4
 70
0
  9
$USERI5
 70
0
  9
$USERR1
 40
0.0
  9
$USERR2
 40
0.0
  9
$USERR3
 40
0.0
  9
$USERR4
 40
0.0
  9
$USERR5
 40
0.0
  9
$WORLDVIEW
 70
1
  9
$SHADEDGE
 70
3
  9
$SHADEDIF
 70
70
  9
$TILEMODE
 70
1
  9
$MAXACTVP
 70
64
  9
$PINSBASE
 10
0.0
 20
0.0
 30
0.0
  9
$PLIMCHECK
 70
0
  9
$PEXTMIN
 10
1e+20
 20
1e+20
 30
1e+20
  9
$PEXTMAX
 10
-1e+20
 20
-1e+20
 30
-1e+20
  9
$PLIMMIN
 10
0.0
 20
0.0
  9
$PLIMMAX
 10
420.0
 20
297.0
  9
$UNITMODE
 70
0
  9
$VISRETAIN
 70
1
  9
$PLINEGEN
 70
0
  9
$PSLTSCALE
 70
1
  9
$TREEDEPTH
 70
3020
  9
$CMLSTYLE
  2
Standard
  9
$CMLJUST
 70
0
  9
$CMLSCALE
 40
20.0
  9
$PROXYGRAPHICS
 70
1
  9
$MEASUREMENT
 70
1
  9
$CELWEIGHT
370
-1
  9
$ENDCAPS
280
0
  9
$JOINSTYLE
280
0
  9
$LWDISPLAY
290
0
  9
$INSUNITS
 70
4
  9
$HYPERLINKBASE
  1

  9
$STYLESHEET
  1

  9
$XEDIT
290
1
  9
$CEPSNTYPE
380
0
  9
$PSTYLEMODE
290
1
  9
$FINGERPRINTGUID
  2
{F49BB373-0927-4D0F-B465-315F0DF15B71}
  9
$VERSIONGUID
  2
{A0AC4B43-D859-4C51-A15D-670686CD1F1D}
  9
$EXTNAMES
290
1
  9
$PSVPSCALE
 40
0.0
  9
$OLESTARTUP
290
0
  9
$SORTENTS
280
127
  9
$INDEXCTL
280
0
  9
$HIDETEXT
280
1
  9
$XCLIPFRAME
280
1
  9
$HALOGAP
280
0
  9
$OBSCOLOR
 70
257
  9
$OBSLTYPE
280
0
  9
$INTERSECTIONDISPLAY
280
0
  9
$INTERSECTIONCOLOR
 70
257
  9
$DIMASSOC
280
2
  9
$PROJECTNAME
  1

  9
$CAMERADISPLAY
290
0
  9
$LENSLENGTH
 40
50.0
  9
$CAMERAHEIGHT
 40
0.0
  9
$STEPSPERSEC
 40
24.0
  9
$STEPSIZE
 40
100.0
  9
$3DDWFPREC
 40
2.0
  9
$PSOLWIDTH
 40
0.005
  9
$PSOLHEIGHT
 40
0.08
  9
$LOFTANG1
 40
1.570796326795
  9
$LOFTANG2
 40
1.570796326795
  9
$LOFTMAG1
 40
0.0
  9
$LOFTMAG2
 40
0.0
  9
$LOFTPARAM
 70
7
  9
$LOFTNORMALS
280
1
  9
$LATITUDE
 40
37.795
  9
$LONGITUDE
 40
-122.394
  9
$NORTHDIRECTION
 40
0.0
  9
$TIMEZONE
 70
-8000
  9
$LIGHTGLYPHDISPLAY
280
1
  9
$TILEMODELIGHTSYNCH
280
1
  9
$CMATERIAL
347
20
  9
$SOLIDHIST
280
0
  9
$SHOWHIST
280
1
  9
$DWFFRAME
280
2
  9
$DGNFRAME
280
2
  9
$REALWORLDSCALE
290
1
  9
$INTERFERECOLOR
 62
256
  9
$CSHADOW
280
0
  9
$SHADOWPLANELOCATION
 40
0.0
  0
ENDSEC
  0
SECTION
  2
CLASSES
  0
CLASS
  1
ACDBDICTIONARYWDFLT
  2
AcDbDictionaryWithDefault
  3
ObjectDBX Classes
 90
0
 91
0
280
0
281
0
  0
CLASS
  1
SUN
  2
AcDbSun
  3
SCENEOE
 90
1153
 91
0
280
0
281
0
  0
CLASS
  1
VISUALSTYLE
  2
AcDbVisualStyle
  3
ObjectDBX Classes
 90
4095
 91
0
280
0
281
0
  0
CLASS
  1
MATERIAL
  2
AcDbMaterial
  3
ObjectDBX Classes
 90
1153
 91
0
280
0
281
0
  0
CLASS
  1
SCALE
  2
AcDbScale
  3
ObjectDBX Classes
 90
1153
 91
0
280
0
281
0
  0
CLASS
  1
TABLESTYLE
  2
AcDbTableStyle
  3
ObjectDBX Classes
 90
4095
 91
0
280
0
281
0
  0
CLASS
  1
MLEADERSTYLE
  2
AcDbMLeaderStyle
  3
ACDB_MLEADERSTYLE_CLASS
 90
4095
 91
0
280
0
281
0
  0
CLASS
  1
DICTIONARYVAR
  2
AcDbDictionaryVar
  3
ObjectDBX Classes
 90
0
 91
0
280
0
281
0
  0
CLASS
  1
CELLSTYLEMAP
  2
AcDbCellStyleMap
  3
ObjectDBX Classes
 90
1152
 91
0
280
0
281
0
  0
CLASS
  1
MENTALRAYRENDERSETTINGS
  2
AcDbMentalRayRenderSettings
  3
SCENEOE
 90
1024
 91
0
280
0
281
0
  0
CLASS
  1
ACDBDETAILVIEWSTYLE
  2
AcDbDetailViewStyle
  3
ObjectDBX Classes
 90
1025
 91
0
280
0
281
0
  0
CLASS
  1
ACDBSECTIONVIEWSTYLE
  2
AcDbSectionViewStyle
  3
ObjectDBX Classes
 90
1025
 91
0
280
0
281
0
  0
CLASS
  1
RASTERVARIABLES
  2
AcDbRasterVariables
  3
ISM
 90
0
 91
0
280
0
281
0
  0
CLASS
  1
ACDBPLACEHOLDER
  2
AcDbPlaceHolder
  3
ObjectDBX Classes
 90
0
 91
0
280
0
281
0
  0
CLASS
  1
LAYOUT
  2
AcDbLayout
  3
ObjectDBX Classes
 90
0
 91
0
280
0
281
0
  0
ENDSEC
  0
SECTION
  2
TABLES
  0
TABLE
  2
VPORT
  5
8
330
0
100
AcDbSymbolTable
 70
1
  0
VPORT
  5
23
330
8
100
AcDbSymbolTableRecord
100
AcDbViewportTableRecord
  2
*Active
 70
0
 10
0.0
 20
0.0
 11
1.0
 21
1.0
 12
0.0
 22
0.0
 13
0.0
 23
0.0
 14
0.5
 24
0.5
 15
0.5
 25
0.5
 16
0.0
 26
0.0
 36
1.0
 17
0.0
 27
0.0
 37
0.0
 40
1000.0
 41
1.34
 42
50.0
 43
0.0
 44
0.0
 50
0.0
 51
0.0
 71
0
 72
1000
 73
1
 74
3
 75
0
 76
0
 77
0
 78
0
281
0
 65
0
146
0.0
  0
ENDTAB
  0
TABLE
  2
LTYPE
  5
2
330
0
100
AcDbSymbolTable
 70
4
  0
LTYPE
  5
24
330
2
100
AcDbSymbolTableRecord
100
AcDbLinetypeTableRecord
  2
ByBlock
 70
0
  3

 72
65
 73
0
 40
0.0
  0
LTYPE
  5
25
330
2
100
AcDbSymbolTableRecord
100
AcDbLinetypeTableRecord
  2
ByLayer
 70
0
  3

 72
65
 73
0
 40
0.0
  0
LTYPE
  5
26
330
2
100
AcDbSymbolTableRecord
100
AcDbLinetypeTableRecord
  2
Continuous
 70
0
  3

 72
65
 73
0
 40
0.0
  0
LTYPE
  5
36
330
2
100
AcDbSymbolTableRecord
100
AcDbLinetypeTableRecord
  2
OPTICAL
 70
0
  3

 72
65
 73
5
 40
8.0
 49
-2.0
 74
0
 49
1.0
 74
0
 49
-2.0
 74
0
 49
1.0
 74
0
 49
-2.0
 74
0
  0
ENDTAB
  0
TABLE
  2
LAYER
  5
1
330
0
100
AcDbSymbolTable
 70
9
  0
LAYER
  5
27
330
1
100
AcDbSymbolTableRecord
100
AcDbLayerTableRecord
  2
0
 70
0
 62
7
  6
Continuous
370
-3
390
13
347
21
  0
LAYER
  5
28
330
1
100
AcDbSymbolTableRecord
100
AcDbLayerTableRecord
  2
Defpoints
 70
0
 62
7
  6
Continuous
290
0
370
-3
390
13
347
21
  0
LAYER
  5
2F
330
1
100
AcDbSymbolTableRecord
100
AcDbLayerTableRecord
  2
BORDER
 70
0
 62
7
  6
Continuous
370
25
390
13
347
21
  0
LAYER
  5
30
330
1
100
AcDbSymbolTableRecord
100
AcDbLayerTableRecord
  2
OUTLINE
 70
0
 62
7
  6
Continuous
370
50
390
13
347
21
  0
LAYER
  5
31
330
1
100
AcDbSymbolTableRecord
100
AcDbLayerTableRecord
  2
AXIS
 70
0
 62
8
  6
OPTICAL
370
13
390
13
347
21
  0
LAYER
  5
32
330
1
100
AcDbSymbolTableRecord
100
AcDbLayerTableRecord
  2
CEMENT
 70
0
 62
7
  6
Continuous
370
13
390
13
347
21
  0
LAYER
  5
33
330
1
100
AcDbSymbolTableRecord
100
AcDbLayerTableRecord
  2
DIMS
 70
0
 62
7
  6
Continuous
370
13
390
13
347
21
  0
LAYER
  5
34
330
1
100
AcDbSymbolTableRecord
100
AcDbLayerTableRecord
  2
CALLOUT
 70
0
 62
7
  6
Continuous
370
13
390
13
347
21
  0
LAYER
  5
35
330
1
100
AcDbSymbolTableRecord
100
AcDbLayerTableRecord
  2
TABLE
 70
0
 62
7
  6
Continuous
370
13
390
13
347
21
  0
ENDTAB
  0
TABLE
  2
STYLE
  5
5
330
0
100
AcDbSymbolTable
 70
1
  0
STYLE
  5
29
330
5
100
AcDbSymbolTableRecord
100
AcDbTextStyleTableRecord
  2
Standard
 70
0
 40
0.0
 41
1.0
 50
0.0
 71
0
 42
2.5
  3
txt
  4

  0
ENDTAB
  0
TABLE
  2
VIEW
  5
7
330
0
100
AcDbSymbolTable
 70
0
  0
ENDTAB
  0
TABLE
  2
UCS
  5
6
330
0
100
AcDbSymbolTable
 70
0
  0
ENDTAB
  0
TABLE
  2
APPID
  5
3
330
0
100
AcDbSymbolTable
 70
3
  0
APPID
  5
2A
330
3
100
AcDbSymbolTableRecord
100
AcDbRegAppTableRecord
  2
ACAD
 70
0
  0
APPID
  5
A3
330
3
100
AcDbSymbolTableRecord
100
AcDbRegAppTableRecord
  2
HATCHBACKGROUNDCOLOR
 70
0
  0
APPID
  5
A4
330
3
100
AcDbSymbolTableRecord
100
AcDbRegAppTableRecord
  2
EZDXF
 70
0
  0
ENDTAB
  0
TABLE
  2
DIMSTYLE
  5
4
330
0
100
AcDbSymbolTable
 70
1
100
AcDbDimStyleTable
  0
DIMSTYLE
105
2B
330
4
100
AcDbSymbolTableRecord
100
AcDbDimStyleTableRecord
  2
Standard
 70
0
 40
1.0
 41
2.5
 42
0.625
 43
3.75
 44
1.25
 45
0.0
 46
0.0
 47
0.0
 48
0.0
 49
2.5
140
2.5
141
2.5
142
0.0
143
0.03937007874
144
1.0
145
0.0
146
1.0
147
0.625
148
0.0
 69
0
 70
0
 71
0
 72
0
 73
0
 74
0
 75
0
 76
0
 77
1
 78
8
 79
3
170
0
171
3
172
1
173
0
174
0
175
0
176
0
177
0
178
0
179
2
271
2
272
2
273
2
274
3
275
0
276
0
277
2
278
44
279
0
280
0
281
0
282
0
283
0
284
8
285
0
286
0
288
0
289
3
290
0
371
-2
372
-2
  0
ENDTAB
  0
TABLE
  2
BLOCK_RECORD
  5
9
330
0
100
AcDbSymbolTable
 70
2
  0
BLOCK_RECORD
  5
17
330
9
100
AcDbSymbolTableRecord
100
AcDbBlockTableRecord
  2
*Model_Space
340
1A
 70
0
280
1
281
0
  0
BLOCK_RECORD
  5
1B
330
9
100
AcDbSymbolTableRecord
100
AcDbBlockTableRecord
  2
*Paper_Space
340
1E
 70
0
280
1
281
0
  0
ENDTAB
  0
ENDSEC
  0
SECTION
  2
BLOCKS
  0
BLOCK
  5
18
330
17
100
AcDbEntity
  8
0
100
AcDbBlockBegin
  2
*Model_Space
 70
0
 10
0.0
 20
0.0
 30
0.0
  3
*Model_Space
  1

  0
ENDBLK
  5
19
330
17
100
AcDbEntity
  8
0
100
AcDbBlockEnd
  0
BLOCK
  5
1C
330
1B
100
AcDbEntity
  8
0
100
AcDbBlockBegin
  2
*Paper_Space
 70
0
 10
0.0
 20
0.0
 30
0.0
  3
*Paper_Space
  1

  0
ENDBLK
  5
1D
330
1B
100
AcDbEntity
  8
0
100
AcDbBlockEnd
  0
ENDSEC
  0
SECTION
  2
ENTITIES
  0
LWPOLYLINE
  5
37
330
17
100
AcDbEntity
  8
BORDER
100
AcDbPolyline
 90
4
 70
1
 10
0.0
 20
0.0
 10
210.0
 20
0.0
 10
210.0
 20
297.0
 10
0.0
 20
297.0
  0
LWPOLYLINE
  5
38
330
17
100
AcDbEntity
  8
BORDER
370
50
100
AcDbPolyline
 90
4
 70
1
 10
10.0
 20
10.0
 10
200.0
 20
10.0
 10
200.0
 20
287.0
 10
10.0
 20
287.0
  0
TEXT
  5
39
330
17
100
AcDbEntity
  8
BORDER
100
AcDbText
 10
12.0
 20
113.0
 30
0.0
 40
1.8
  1
Ang. nach ISO 10110; λ = 546.07 nm
100
AcDbText
 73
1
  0
TEXT
  5
3A
330
17
100
AcDbEntity
  8
BORDER
100
AcDbText
 10
12.0
 20
282.0
 30
0.0
 40
2.5
  1
f′ = 18.85 mm
100
AcDbText
 73
3
  0
LWPOLYLINE
  5
3B
330
17
100
AcDbEntity
  8
BORDER
100
AcDbPolyline
 90
4
 70
1
 10
10.0
 20
10.0
 10
200.0
 20
10.0
 10
200.0
 20
38.0
 10
10.0
 20
38.0
  0
LINE
  5
3C
330
17
100
AcDbEntity
  8
BORDER
100
AcDbLine
 10
10.0
 20
23.0
 30
0.0
 11
200.0
 21
23.0
 31
0.0
  0
LINE
  5
3D
330
17
100
AcDbEntity
  8
BORDER
100
AcDbLine
 10
74.60000000000001
 20
23.0
 30
0.0
 11
74.60000000000001
 21
38.0
 31
0.0
  0
LINE
  5
3E
330
17
100
AcDbEntity
  8
BORDER
100
AcDbLine
 10
101.20000000000002
 20
23.0
 30
0.0
 11
101.20000000000002
 21
38.0
 31
0.0
  0
LINE
  5
3F
330
17
100
AcDbEntity
  8
BORDER
100
AcDbLine
 10
127.80000000000001
 20
23.0
 30
0.0
 11
127.80000000000001
 21
38.0
 31
0.0
  0
LINE
  5
40
330
17
100
AcDbEntity
  8
BORDER
100
AcDbLine
 10
154.4
 20
23.0
 30
0.0
 11
154.4
 21
38.0
 31
0.0
  0
LINE
  5
41
330
17
100
AcDbEntity
  8
BORDER
100
AcDbLine
 10
177.20000000000002
 20
23.0
 30
0.0
 11
177.20000000000002
 21
38.0
 31
0.0
  0
LINE
  5
42
330
17
100
AcDbEntity
  8
BORDER
100
AcDbLine
 10
188.60000000000002
 20
23.0
 30
0.0
 11
188.60000000000002
 21
38.0
 31
0.0
  0
TEXT
  5
43
330
17
100
AcDbEntity
  8
BORDER
100
AcDbText
 10
42.300000000000004
 20
26.75
 30
0.0
 40
1.8
  1
ORGANISATION / PROJECT / PART NO.
 72
4
 11
42.300000000000004
 21
26.75
 31
0.0
100
AcDbText
 73
2
  0
TEXT
  5
44
330
17
100
AcDbEntity
  8
BORDER
100
AcDbText
 10
42.300000000000004
 20
33.5
 30
0.0
 40
2.5
  1
5-Element Photographic Objective   OPT-004
 72
4
 11
42.300000000000004
 21
33.5
 31
0.0
100
AcDbText
 73
2
  0
TEXT
  5
45
330
17
100
AcDbEntity
  8
BORDER
100
AcDbText
 10
87.9
 20
26.75
 30
0.0
 40
1.8
  1
DRAWN BY
 72
4
 11
87.9
 21
26.75
 31
0.0
100
AcDbText
 73
2
  0
TEXT
  5
46
330
17
100
AcDbEntity
  8
BORDER
100
AcDbText
 10
87.9
 20
33.5
 30
0.0
 40
2.5
  1
B. Lutzer
 72
4
 11
87.9
 21
33.5
 31
0.0
100
AcDbText
 73
2
  0
TEXT
  5
47
330
17
100
AcDbEntity
  8
BORDER
100
AcDbText
 10
114.50000000000001
 20
26.75
 30
0.0
 40
1.8
  1
APPROVED
 72
4
 11
114.50000000000001
 21
26.75
 31
0.0
100
AcDbText
 73
2
  0
TEXT
  5
48
330
17
100
AcDbEntity
  8
BORDER
100
AcDbText
 10
114.50000000000001
 20
33.5
 30
0.0
 40
2.5
  1
—
 72
4
 11
114.50000000000001
 21
33.5
 31
0.0
100
AcDbText
 73
2
  0
TEXT
  5
49
330
17
100
AcDbEntity
  8
BORDER
100
AcDbText
 10
141.10000000000002
 20
26.75
 30
0.0
 40
1.8
  1
DATE
 72
4
 11
141.10000000000002
 21
26.75
 31
0.0
100
AcDbText
 73
2
  0
TEXT
  5
4A
330
17
100
AcDbEntity
  8
BORDER
100
AcDbText
 10
141.10000000000002
 20
33.5
 30
0.0
 40
2.5
  1
2026-07-26
 72
4
 11
141.10000000000002
 21
33.5
 31
0.0
100
AcDbText
 73
2
  0
TEXT
  5
4B
330
17
100
AcDbEntity
  8
BORDER
100
AcDbText
 10
165.8
 20
26.75
 30
0.0
 40
1.8
  1
SCALE
 72
4
 11
165.8
 21
26.75
 31
0.0
100
AcDbText
 73
2
  0
TEXT
  5
4C
330
17
100
AcDbEntity
  8
BORDER
100
AcDbText
 10
165.8
 20
33.5
 30
0.0
 40
2.5
  1
6:1
 72
4
 11
165.8
 21
33.5
 31
0.0
100
AcDbText
 73
2
  0
TEXT
  5
4D
330
17
100
AcDbEntity
  8
BORDER
100
AcDbText
 10
182.90000000000003
 20
26.75
 30
0.0
 40
1.8
  1
SHEET
 72
4
 11
182.90000000000003
 21
26.75
 31
0.0
100
AcDbText
 73
2
  0
TEXT
  5
4E
330
17
100
AcDbEntity
  8
BORDER
100
AcDbText
 10
182.90000000000003
 20
33.5
 30
0.0
 40
2.5
  1
4 / 5
 72
4
 11
182.90000000000003
 21
33.5
 31
0.0
100
AcDbText
 73
2
  0
TEXT
  5
4F
330
17
100
AcDbEntity
  8
BORDER
100
AcDbText
 10
194.3
 20
26.75
 30
0.0
 40
1.8
  1
REV
 72
4
 11
194.3
 21
26.75
 31
0.0
100
AcDbText
 73
2
  0
TEXT
  5
50
330
17
100
AcDbEntity
  8
BORDER
100
AcDbText
 10
194.3
 20
33.5
 30
0.0
 40
2.5
  1
A
 72
4
 11
194.3
 21
33.5
 31
0.0
100
AcDbText
 73
2
  0
LINE
  5
51
330
17
100
AcDbEntity
  8
BORDER
100
AcDbLine
 10
124.0
 20
10.0
 30
0.0
 11
124.0
 21
23.0
 31
0.0
  0
TEXT
  5
52
330
17
100
AcDbEntity
  8
BORDER
100
AcDbText
 10
12.0
 20
21.5
 30
0.0
 40
1.8
  1
NOTES
100
AcDbText
 73
3
  0
TEXT
  5
53
330
17
100
AcDbEntity
  8
BORDER
100
AcDbText
 10
146.8
 20
21.5
 30
0.0
 40
1.8
  1
DIM. IN mm
 72
4
 11
146.8
 21
21.5
 31
0.0
100
AcDbText
 73
3
  0
TEXT
  5
54
330
17
100
AcDbEntity
  8
BORDER
100
AcDbText
 10
146.8
 20
17.7
 30
0.0
 40
1.8
  1
GENERAL TOL. PER ISO 10110-11
 72
4
 11
146.8
 21
17.7
 31
0.0
100
AcDbText
 73
1
  0
TEXT
  5
55
330
17
100
AcDbEntity
  8
BORDER
100
AcDbText
 10
146.8
 20
15.3
 30
0.0
 40
1.8
  1
Ø±0.10  CT±0.15  3/ 5  4/ 3′  5/ 2×0.063
 72
4
 11
146.8
 21
15.3
 31
0.0
100
AcDbText
 73
3
  0
CIRCLE
  5
56
330
17
100
AcDbEntity
  8
BORDER
100
AcDbCircle
 10
180.61400000000003
 20
16.5
 30
0.0
 40
3.6400000000000006
  0
CIRCLE
  5
57
330
17
100
AcDbEntity
  8
BORDER
100
AcDbCircle
 10
180.61400000000003
 20
16.5
 30
0.0
 40
2.184
  0
LWPOLYLINE
  5
58
330
17
100
AcDbEntity
  8
BORDER
100
AcDbPolyline
 90
4
 70
1
 10
186.074
 20
20.14
 10
192.626
 20
18.684
 10
192.626
 20
14.315999999999999
 10
186.074
 20
12.86
  0
LINE
  5
59
330
17
100
AcDbEntity
  8
AXIS
100
AcDbLine
 10
175.88200000000003
 20
16.5
 30
0.0
 11
194.446
 21
16.5
 31
0.0
  0
LWPOLYLINE
  5
5A
330
17
100
AcDbEntity
  8
TABLE
100
AcDbPolyline
 90
4
 70
1
 10
10.0
 20
38.0
 10
200.0
 20
38.0
 10
200.0
 20
110.0
 10
10.0
 20
110.0
  0
LINE
  5
5B
330
17
100
AcDbEntity
  8
TABLE
100
AcDbLine
 10
73.33333333333334
 20
38.0
 30
0.0
 11
73.33333333333334
 21
110.0
 31
0.0
  0
LINE
  5
5C
330
17
100
AcDbEntity
  8
TABLE
100
AcDbLine
 10
136.66666666666669
 20
38.0
 30
0.0
 11
136.66666666666669
 21
110.0
 31
0.0
  0
LINE
  5
5D
330
17
100
AcDbEntity
  8
TABLE
100
AcDbLine
 10
10.0
 20
103.0
 30
0.0
 11
200.0
 21
103.0
 31
0.0
  0
TEXT
  5
5E
330
17
100
AcDbEntity
  8
TABLE
100
AcDbText
 10
41.66666666666667
 20
106.5
 30
0.0
 40
2.0
  1
SURFACE 1 (FRONT)
 72
4
 11
41.66666666666667
 21
106.5
 31
0.0
100
AcDbText
 73
2
  0
TEXT
  5
5F
330
17
100
AcDbEntity
  8
TABLE
100
AcDbText
 10
12.0
 20
101.0
 30
0.0
 40
2.0
  1
R +28.000 CX
100
AcDbText
 73
3
  0
TEXT
  5
60
330
17
100
AcDbEntity
  8
TABLE
100
AcDbText
 10
12.0
 20
94.5
 30
0.0
 40
2.0
  1
Øₑ 19.37
100
AcDbText
 73
3
  0
TEXT
  5
61
330
17
100
AcDbEntity
  8
TABLE
100
AcDbText
 10
12.0
 20
88.0
 30
0.0
 40
2.0
  1
3/ (0.5); λ=546.1 nm
100
AcDbText
 73
3
  0
TEXT
  5
62
330
17
100
AcDbEntity
  8
TABLE
100
AcDbText
 10
12.0
 20
81.5
 30
0.0
 40
2.0
  1
4/ 0.5′
100
AcDbText
 73
3
  0
TEXT
  5
63
330
17
100
AcDbEntity
  8
TABLE
100
AcDbText
 10
12.0
 20
75.0
 30
0.0
 40
2.0
  1
5/ 2×0.063
100
AcDbText
 73
3
  0
TEXT
  5
64
330
17
100
AcDbEntity
  8
TABLE
100
AcDbText
 10
12.0
 20
68.5
 30
0.0
 40
2.0
  1
6/ —
100
AcDbText
 73
3
  0
TEXT
  5
65
330
17
100
AcDbEntity
  8
TABLE
100
AcDbText
 10
12.0
 20
62.0
 30
0.0
 40
2.0
  1

100
AcDbText
 73
3
  0
TEXT
  5
66
330
17
100
AcDbEntity
  8
TABLE
100
AcDbText
 10
12.0
 20
55.5
 30
0.0
 40
2.0
  1
13/ —
100
AcDbText
 73
3
  0
CIRCLE
  5
67
330
17
100
AcDbEntity
  8
TABLE
100
AcDbCircle
 10
13.5
 20
60.5
 30
0.0
 40
1.5
  0
TEXT
  5
68
330
17
100
AcDbEntity
  8
TABLE
100
AcDbText
 10
13.5
 20
60.5
 30
0.0
 40
2.0999999999999996
  1
λ
 72
4
 11
13.5
 21
60.5
 31
0.0
100
AcDbText
 73
2
  0
TEXT
  5
69
330
17
100
AcDbEntity
  8
TABLE
100
AcDbText
 10
16.0
 20
60.5
 30
0.0
 40
2.0
  1
7/ —
100
AcDbText
 73
2
  0
TEXT
  5
6A
330
17
100
AcDbEntity
  8
TABLE
100
AcDbText
 10
168.33333333333334
 20
106.5
 30
0.0
 40
2.0
  1
SURFACE 2 (REAR)
 72
4
 11
168.33333333333334
 21
106.5
 31
0.0
100
AcDbText
 73
2
  0
TEXT
  5
6B
330
17
100
AcDbEntity
  8
TABLE
100
AcDbText
 10
138.66666666666669
 20
101.0
 30
0.0
 40
2.0
  1
R -80.000 CX
100
AcDbText
 73
3
  0
TEXT
  5
6C
330
17
100
AcDbEntity
  8
TABLE
100
AcDbText
 10
138.66666666666669
 20
94.5
 30
0.0
 40
2.0
  1
Øₑ 19.09
100
AcDbText
 73
3
  0
TEXT
  5
6D
330
17
100
AcDbEntity
  8
TABLE
100
AcDbText
 10
138.66666666666669
 20
88.0
 30
0.0
 40
2.0
  1
3/ (1); λ=546.1 nm
100
AcDbText
 73
3
  0
TEXT
  5
6E
330
17
100
AcDbEntity
  8
TABLE
100
AcDbText
 10
138.66666666666669
 20
81.5
 30
0.0
 40
2.0
  1
4/ 0.5′
100
AcDbText
 73
3
  0
TEXT
  5
6F
330
17
100
AcDbEntity
  8
TABLE
100
AcDbText
 10
138.66666666666669
 20
75.0
 30
0.0
 40
2.0
  1
5/ 2×0.063
100
AcDbText
 73
3
  0
TEXT
  5
70
330
17
100
AcDbEntity
  8
TABLE
100
AcDbText
 10
138.66666666666669
 20
68.5
 30
0.0
 40
2.0
  1
6/ —
100
AcDbText
 73
3
  0
TEXT
  5
71
330
17
100
AcDbEntity
  8
TABLE
100
AcDbText
 10
138.66666666666669
 20
62.0
 30
0.0
 40
2.0
  1

100
AcDbText
 73
3
  0
TEXT
  5
72
330
17
100
AcDbEntity
  8
TABLE
100
AcDbText
 10
138.66666666666669
 20
55.5
 30
0.0
 40
2.0
  1
13/ —
100
AcDbText
 73
3
  0
CIRCLE
  5
73
330
17
100
AcDbEntity
  8
TABLE
100
AcDbCircle
 10
140.16666666666669
 20
60.5
 30
0.0
 40
1.5
  0
TEXT
  5
74
330
17
100
AcDbEntity
  8
TABLE
100
AcDbText
 10
140.16666666666669
 20
60.5
 30
0.0
 40
2.0999999999999996
  1
λ
 72
4
 11
140.16666666666669
 21
60.5
 31
0.0
100
AcDbText
 73
2
  0
TEXT
  5
75
330
17
100
AcDbEntity
  8
TABLE
100
AcDbText
 10
142.66666666666669
 20
60.5
 30
0.0
 40
2.0
  1
7/ —
100
AcDbText
 73
2
  0
TEXT
  5
76
330
17
100
AcDbEntity
  8
TABLE
100
AcDbText
 10
105.0
 20
106.5
 30
0.0
 40
2.0
  1
MATERIAL
 72
4
 11
105.0
 21
106.5
 31
0.0
100
AcDbText
 73
2
  0
TEXT
  5
77
330
17
100
AcDbEntity
  8
TABLE
100
AcDbText
 10
75.33333333333334
 20
101.0
 30
0.0
 40
2.0
  1
N-SSK5
100
AcDbText
 73
3
  0
TEXT
  5
78
330
17
100
AcDbEntity
  8
TABLE
100
AcDbText
 10
75.33333333333334
 20
94.5
 30
0.0
 40
2.0
  1
nd = 1.6584  (587.6 nm)
100
AcDbText
 73
3
  0
TEXT
  5
79
330
17
100
AcDbEntity
  8
TABLE
100
AcDbText
 10
75.33333333333334
 20
88.0
 30
0.0
 40
2.0
  1
νd = 50.88  (587.6 nm)
100
AcDbText
 73
3
  0
TEXT
  5
7A
330
17
100
AcDbEntity
  8
TABLE
100
AcDbText
 10
75.33333333333334
 20
81.5
 30
0.0
 40
2.0
  1
0/ 10 nm/cm
100
AcDbText
 73
3
  0
TEXT
  5
7B
330
17
100
AcDbEntity
  8
TABLE
100
AcDbText
 10
75.33333333333334
 20
75.0
 30
0.0
 40
2.0
  1
1/ 1×0.16
100
AcDbText
 73
3
  0
TEXT
  5
7C
330
17
100
AcDbEntity
  8
TABLE
100
AcDbText
 10
75.33333333333334
 20
68.5
 30
0.0
 40
2.0
  1
2/ NH004; B
100
AcDbText
 73
3
  0
LINE
  5
7D
330
17
100
AcDbEntity
  8
AXIS
100
AcDbLine
 10
75.00017000687103
 20
198.5
 30
0.0
 11
134.999829993129
 21
198.5
 31
0.0
  0
TEXT
  5
7E
330
17
100
AcDbEntity
  8
AXIS
100
AcDbText
 10
74.00017000687103
 20
198.5
 30
0.0
 40
2.0
  1
opt./rot. axis
 72
2
 11
74.00017000687103
 21
198.5
 31
0.0
100
AcDbText
 73
2
  0
LWPOLYLINE
  5
7F
330
17
100
AcDbEntity
  8
OUTLINE
370
50
100
AcDbPolyline
 90
402
 70
1
 10
100.36911493856331
 20
140.39207903096064
 10
100.15506069113457
 20
140.97607823667963
 10
99.94345412153157
 20
141.5600774423986
 10
99.73428541186678
 20
142.14407664811762
 10
99.52754490889845
 20
142.7280758538366
 10
99.3232231214655
 20
143.31207505955558
 10
99.1213107179849
 20
143.8960742652746
 10
98.92179852401097
 20
144.48007347099355
 10
98.72467751985397
 20
145.06407267671256
 10
98.52993883825704
 20
145.64807188243154
 10
98.33757376212958
 20
146.23207108815052
 10
98.14757372233584
 20
146.81607029386953
 10
97.95993029553699
 20
147.4000694995885
 10
97.7746352020855
 20
147.9840687053075
 10
97.59168030397046
 20
148.56806791102647
 10
97.41105760281243
 20
149.15206711674549
 10
97.23275923790655
 20
149.73606632246447
 10
97.05677748431276
 20
150.32006552818345
 10
96.88310475099217
 20
150.90406473390243
 10
96.71173357898778
 20
151.48806393962144
 10
96.54265663964924
 20
152.07206314534042
 10
96.37586673289991
 20
152.6560623510594
 10
96.21135678554575
 20
153.2400615567784
 10
96.04911984962439
 20
153.82406076249737
 10
95.88914910079433
 20
154.40805996821638
 10
95.73143783676204
 20
154.99205917393536
 10
95.57597947574746
 20
155.57605837965434
 10
95.42276755498594
 20
156.16005758537335
 10
95.27179572926622
 20
156.7440567910923
 10
95.12305776950365
 20
157.32805599681132
 10
94.97654756134784
 20
157.9120552025303
 10
94.83225910382345
 20
158.49605440824928
 10
94.69018650800439
 20
159.0800536139683
 10
94.55032399571971
 20
159.66405281968727
 10
94.4126658982909
 20
160.24805202540625
 10
94.27720665530012
 20
160.83205123112523
 10
94.14394081338818
 20
161.41605043684422
 10
94.01286302508208
 20
162.00004964256323
 10
93.88396804765131
 20
162.5840488482822
 10
93.75725074199215
 20
163.1680480540012
 10
93.63270607153973
 20
163.7520472597202
 10
93.5103291012071
 20
164.33604646543915
 10
93.39011499635063
 20
164.92004567115816
 10
93.27205902176132
 20
165.50404487687715
 10
93.15615654068179
 20
166.08804408259613
 10
93.04240301384783
 20
166.67204328831514
 10
92.93079399855463
 20
167.25604249403412
 10
92.82132514774688
 20
167.8400416997531
 10
92.71399220913236
 20
168.42404090547208
 10
92.6087910243186
 20
169.00804011119106
 10
92.50571752797228
 20
169.59203931691007
 10
92.40476774700068
 20
170.17603852262906
 10
92.30593779975513
 20
170.76003772834804
 10
92.20922389525578
 20
171.34403693406705
 10
92.11462233243748
 20
171.92803613978603
 10
92.02212949941648
 20
172.512035345505
 10
91.9317418727772
 20
173.096034551224
 10
91.84345601687937
 20
173.68003375694298
 10
91.75726858318458
 20
174.264032962662
 10
91.67317630960233
 20
174.84803216838097
 10
91.59117601985506
 20
175.43203137409995
 10
91.5112646228622
 20
176.01603057981893
 10
91.43343911214228
 20
176.60002978553794
 10
91.35769656523371
 20
177.18402899125692
 10
91.28403414313303
 20
177.7680281969759
 10
91.21244908975126
 20
178.3520274026949
 10
91.14293873138755
 20
178.9360266084139
 10
91.07550047621973
 20
179.52002581413288
 10
91.0101318138124
 20
180.10402501985186
 10
90.9468303146412
 20
180.68802422557084
 10
90.88559362963409
 20
181.27202343128985
 10
90.82641948972838
 20
181.85602263700883
 10
90.7693057054446
 20
182.44002184272782
 10
90.71425016647567
 20
183.0240210484468
 10
90.66125084129217
 20
183.6080202541658
 10
90.6103057767632
 20
184.1920194598848
 10
90.56141309779235
 20
184.77601866560377
 10
90.51457100696933
 20
185.36001787132275
 10
90.46977778423641
 20
185.94401707704174
 10
90.42703178656993
 20
186.52801628276075
 10
90.38633144767655
 20
187.11201548847973
 10
90.34767527770438
 20
187.6960146941987
 10
90.31106186296836
 20
188.2800138999177
 10
90.27648986569031
 20
188.8640131056367
 10
90.24395802375332
 20
189.44801231135568
 10
90.21346515047017
 20
190.03201151707466
 10
90.18501013436611
 20
190.61601072279365
 10
90.15859193897535
 20
191.20000992851266
 10
90.13420960265199
 20
191.78400913423164
 10
90.11186223839417
 20
192.36800833995062
 10
90.09154903368267
 20
192.9520075456696
 10
90.07326925033269
 20
193.53600675138858
 10
90.05702222435951
 20
194.1200059571076
 10
90.0428073658579
 20
194.70400516282658
 10
90.03062415889471
 20
195.28800436854556
 10
90.02047216141534
 20
195.87200357426454
 10
90.01235100516334
 20
196.45600277998352
 10
90.00626039561365
 20
197.04000198570253
 10
90.00220011191928
 20
197.6240011914215
 10
90.00017000687103
 20
198.2080003971405
 10
90.00017000687103
 20
198.7919996028595
 10
90.00220011191928
 20
199.3759988085785
 10
90.00626039561365
 20
199.95999801429747
 10
90.01235100516334
 20
200.54399722001648
 10
90.02047216141534
 20
201.12799642573546
 10
90.03062415889471
 20
201.71199563145444
 10
90.0428073658579
 20
202.29599483717342
 10
90.05702222435951
 20
202.8799940428924
 10
90.07326925033269
 20
203.46399324861142
 10
90.09154903368267
 20
204.0479924543304
 10
90.11186223839417
 20
204.63199166004938
 10
90.13420960265199
 20
205.21599086576836
 10
90.15859193897535
 20
205.79999007148734
 10
90.18501013436611
 20
206.38398927720635
 10
90.21346515047017
 20
206.96798848292534
 10
90.24395802375332
 20
207.55198768864432
 10
90.27648986569031
 20
208.1359868943633
 10
90.31106186296836
 20
208.7199861000823
 10
90.34767527770438
 20
209.3039853058013
 10
90.38633144767655
 20
209.88798451152027
 10
90.42703178656993
 20
210.47198371723925
 10
90.46977778423641
 20
211.05598292295826
 10
90.51457100696933
 20
211.63998212867725
 10
90.56141309779235
 20
212.22398133439623
 10
90.6103057767632
 20
212.8079805401152
 10
90.66125084129217
 20
213.3919797458342
 10
90.71425016647567
 20
213.9759789515532
 10
90.7693057054446
 20
214.55997815727218
 10
90.82641948972838
 20
215.14397736299117
 10
90.88559362963409
 20
215.72797656871015
 10
90.9468303146412
 20
216.31197577442916
 10
91.0101318138124
 20
216.89597498014814
 10
91.07550047621973
 20
217.47997418586712
 10
91.14293873138755
 20
218.0639733915861
 10
91.21244908975126
 20
218.6479725973051
 10
91.28403414313303
 20
219.2319718030241
 10
91.35769656523371
 20
219.81597100874308
 10
91.43343911214228
 20
220.3999702144621
 10
91.5112646228622
 20
220.98396942018107
 10
91.59117601985506
 20
221.56796862590005
 10
91.67317630960233
 20
222.15196783161903
 10
91.75726858318458
 20
222.735967037338
 10
91.84345601687937
 20
223.31996624305702
 10
91.9317418727772
 20
223.903965448776
 10
92.02212949941648
 20
224.487964654495
 10
92.11462233243748
 20
225.07196386021397
 10
92.20922389525578
 20
225.65596306593295
 10
92.30593779975513
 20
226.23996227165196
 10
92.40476774700068
 20
226.82396147737094
 10
92.50571752797228
 20
227.40796068308993
 10
92.6087910243186
 20
227.99195988880894
 10
92.71399220913236
 20
228.57595909452792
 10
92.82132514774688
 20
229.1599583002469
 10
92.93079399855463
 20
229.74395750596588
 10
93.04240301384783
 20
230.32795671168486
 10
93.15615654068179
 20
230.91195591740387
 10
93.27205902176132
 20
231.49595512312285
 10
93.39011499635063
 20
232.07995432884184
 10
93.5103291012071
 20
232.66395353456085
 10
93.63270607153973
 20
233.2479527402798
 10
93.75725074199215
 20
233.8319519459988
 10
93.88396804765131
 20
234.4159511517178
 10
94.01286302508208
 20
234.99995035743677
 10
94.14394081338818
 20
235.58394956315578
 10
94.27720665530012
 20
236.16794876887477
 10
94.4126658982909
 20
236.75194797459375
 10
94.55032399571971
 20
237.33594718031276
 10
94.69018650800439
 20
237.9199463860317
 10
94.83225910382345
 20
238.50394559175072
 10
94.97654756134784
 20
239.0879447974697
 10
95.12305776950365
 20
239.67194400318868
 10
95.27179572926622
 20
240.2559432089077
 10
95.42276755498594
 20
240.83994241462668
 10
95.57597947574746
 20
241.42394162034566
 10
95.73143783676204
 20
242.00794082606464
 10
95.88914910079433
 20
242.59194003178362
 10
96.04911984962439
 20
243.17593923750263
 10
96.21135678554575
 20
243.7599384432216
 10
96.37586673289991
 20
244.3439376489406
 10
96.54265663964924
 20
244.92793685465958
 10
96.71173357898778
 20
245.5119360603786
 10
96.88310475099217
 20
246.09593526609757
 10
97.05677748431276
 20
246.67993447181655
 10
97.23275923790655
 20
247.26393367753553
 10
97.41105760281243
 20
247.84793288325451
 10
97.59168030397046
 20
248.43193208897353
 10
97.7746352020855
 20
249.0159312946925
 10
97.95993029553699
 20
249.5999305004115
 10
98.14757372233584
 20
250.18392970613047
 10
98.33757376212958
 20
250.76792891184948
 10
98.52993883825704
 20
251.35192811756846
 10
98.72467751985397
 20
251.93592732328744
 10
98.92179852401097
 20
252.51992652900643
 10
99.1213107179849
 20
253.1039257347254
 10
99.3232231214655
 20
253.68792494044442
 10
99.52754490889845
 20
254.2719241461634
 10
99.73428541186678
 20
254.85592335188238
 10
99.94345412153157
 20
255.4399225576014
 10
100.15506069113457
 20
256.02392176332035
 10
100.36911493856331
 20
256.60792096903936
 10
116.46971541499869
 20
256.60792096903936
 10
116.46971541499869
 20
256.60792096903936
 10
116.54057392848716
 20
256.02392176332035
 10
116.61070632384144
 20
255.4399225576014
 10
116.68011292155583
 20
254.85592335188238
 10
116.74879403862195
 20
254.2719241461634
 10
116.81674998853637
 20
253.68792494044442
 10
116.88398108130798
 20
253.1039257347254
 10
116.95048762346494
 20
252.51992652900643
 10
117.01626991806205
 20
251.93592732328744
 10
117.08132826468761
 20
251.35192811756846
 10
117.14566295947031
 20
250.76792891184948
 10
117.20927429508626
 20
250.18392970613047
 10
117.27216256076565
 20
249.5999305004115
 10
117.33432804229929
 20
249.0159312946925
 10
117.39577102204561
 20
248.43193208897353
 10
117.4564917789366
 20
247.84793288325451
 10
117.51649058848486
 20
247.26393367753553
 10
117.5757677227893
 20
246.67993447181655
 10
117.63432345054201
 20
246.09593526609757
 10
117.69215803703395
 20
245.5119360603786
 10
117.7492717441612
 20
244.92793685465958
 10
117.80566483043123
 20
244.3439376489406
 10
117.86133755096824
 20
243.7599384432216
 10
117.91629015751965
 20
243.17593923750263
 10
117.97052289846147
 20
242.59194003178362
 10
118.024036018804
 20
242.00794082606464
 10
118.07682976019754
 20
241.42394162034566
 10
118.12890436093784
 20
240.83994241462668
 10
118.18026005597167
 20
240.2559432089077
 10
118.23089707690193
 20
239.67194400318868
 10
118.28081565199307
 20
239.0879447974697
 10
118.33001600617644
 20
238.50394559175072
 10
118.378498361055
 20
237.9199463860317
 10
118.42626293490878
 20
237.33594718031276
 10
118.47330994269959
 20
236.75194797459375
 10
118.51963959607602
 20
236.16794876887477
 10
118.5652521033781
 20
235.58394956315578
 10
118.61014766964226
 20
234.99995035743677
 10
118.6543264966057
 20
234.4159511517178
 10
118.69778878271109
 20
233.8319519459988
 10
118.74053472311113
 20
233.2479527402798
 10
118.78256450967291
 20
232.66395353456085
 10
118.82387833098215
 20
232.07995432884184
 10
118.86447637234758
 20
231.49595512312285
 10
118.9043588158051
 20
230.91195591740387
 10
118.94352584012177
 20
230.32795671168486
 10
118.98197762080008
 20
229.74395750596588
 10
119.01971433008177
 20
229.1599583002469
 10
119.05673613695154
 20
228.57595909452792
 10
119.09304320714119
 20
227.99195988880894
 10
119.12863570313311
 20
227.40796068308993
 10
119.16351378416397
 20
226.82396147737094
 10
119.19767760622844
 20
226.23996227165196
 10
119.23112732208256
 20
225.65596306593295
 10
119.26386308124711
 20
225.07196386021397
 10
119.2958850300111
 20
224.487964654495
 10
119.32719331143511
 20
223.903965448776
 10
119.35778806535427
 20
223.31996624305702
 10
119.3876694283816
 20
222.735967037338
 10
119.4168375339109
 20
222.15196783161903
 10
119.44529251211998
 20
221.56796862590005
 10
119.47303448997332
 20
220.98396942018107
 10
119.500063591225
 20
220.3999702144621
 10
119.52637993642162
 20
219.81597100874308
 10
119.55198364290464
 20
219.2319718030241
 10
119.57687482481344
 20
218.6479725973051
 10
119.60105359308761
 20
218.0639733915861
 10
119.62452005546942
 20
217.47997418586712
 10
119.64727431650624
 20
216.89597498014814
 10
119.669316477553
 20
216.31197577442916
 10
119.69064663677437
 20
215.72797656871015
 10
119.71126488914689
 20
215.14397736299117
 10
119.73117132646118
 20
214.55997815727218
 10
119.75036603732394
 20
213.9759789515532
 10
119.76884910715995
 20
213.3919797458342
 10
119.7866206182139
 20
212.8079805401152
 10
119.8036806495524
 20
212.22398133439623
 10
119.82002927706554
 20
211.63998212867725
 10
119.83566657346864
 20
211.05598292295826
 10
119.850592608304
 20
210.47198371723925
 10
119.86480744794216
 20
209.88798451152027
 10
119.87831115558379
 20
209.3039853058013
 10
119.89110379126066
 20
208.7199861000823
 10
119.90318541183723
 20
208.1359868943633
 10
119.91455607101199
 20
207.55198768864432
 10
119.9252158193184
 20
206.96798848292534
 10
119.93516470412612
 20
206.38398927720635
 10
119.94440276964218
 20
205.79999007148734
 10
119.95293005691178
 20
205.21599086576836
 10
119.9607466038193
 20
204.63199166004938
 10
119.96785244508925
 20
204.0479924543304
 10
119.97424761228677
 20
203.46399324861142
 10
119.97993213381852
 20
202.8799940428924
 10
119.98490603493332
 20
202.29599483717342
 10
119.98916933772267
 20
201.71199563145444
 10
119.99272206112116
 20
201.12799642573546
 10
119.995564220907
 20
200.54399722001648
 10
119.99769582970237
 20
199.95999801429747
 10
119.99911689697365
 20
199.3759988085785
 10
119.9998274290316
 20
198.7919996028595
 10
119.9998274290316
 20
198.2080003971405
 10
119.99911689697365
 20
197.6240011914215
 10
119.99769582970237
 20
197.04000198570253
 10
119.995564220907
 20
196.45600277998352
 10
119.99272206112116
 20
195.87200357426454
 10
119.98916933772267
 20
195.28800436854556
 10
119.98490603493332
 20
194.70400516282658
 10
119.97993213381852
 20
194.1200059571076
 10
119.97424761228677
 20
193.53600675138858
 10
119.96785244508925
 20
192.9520075456696
 10
119.9607466038193
 20
192.36800833995062
 10
119.95293005691178
 20
191.78400913423164
 10
119.94440276964218
 20
191.20000992851266
 10
119.93516470412612
 20
190.61601072279365
 10
119.9252158193184
 20
190.03201151707466
 10
119.91455607101199
 20
189.44801231135568
 10
119.90318541183723
 20
188.8640131056367
 10
119.89110379126066
 20
188.2800138999177
 10
119.87831115558379
 20
187.6960146941987
 10
119.86480744794216
 20
187.11201548847973
 10
119.850592608304
 20
186.52801628276075
 10
119.83566657346864
 20
185.94401707704174
 10
119.82002927706554
 20
185.36001787132275
 10
119.8036806495524
 20
184.77601866560377
 10
119.7866206182139
 20
184.1920194598848
 10
119.76884910715995
 20
183.6080202541658
 10
119.75036603732394
 20
183.0240210484468
 10
119.73117132646118
 20
182.44002184272782
 10
119.71126488914689
 20
181.85602263700883
 10
119.69064663677437
 20
181.27202343128985
 10
119.669316477553
 20
180.68802422557084
 10
119.64727431650624
 20
180.10402501985186
 10
119.62452005546942
 20
179.52002581413288
 10
119.60105359308761
 20
178.9360266084139
 10
119.57687482481344
 20
178.3520274026949
 10
119.55198364290464
 20
177.7680281969759
 10
119.52637993642162
 20
177.18402899125692
 10
119.500063591225
 20
176.60002978553794
 10
119.47303448997332
 20
176.01603057981893
 10
119.44529251211998
 20
175.43203137409995
 10
119.4168375339109
 20
174.84803216838097
 10
119.3876694283816
 20
174.264032962662
 10
119.35778806535427
 20
173.68003375694298
 10
119.32719331143511
 20
173.096034551224
 10
119.2958850300111
 20
172.512035345505
 10
119.26386308124711
 20
171.92803613978603
 10
119.23112732208256
 20
171.34403693406705
 10
119.19767760622844
 20
170.76003772834804
 10
119.16351378416397
 20
170.17603852262906
 10
119.12863570313311
 20
169.59203931691007
 10
119.09304320714119
 20
169.00804011119106
 10
119.05673613695154
 20
168.42404090547208
 10
119.01971433008177
 20
167.8400416997531
 10
118.98197762080008
 20
167.25604249403412
 10
118.94352584012177
 20
166.67204328831514
 10
118.9043588158051
 20
166.08804408259613
 10
118.86447637234758
 20
165.50404487687715
 10
118.82387833098215
 20
164.92004567115816
 10
118.78256450967291
 20
164.33604646543915
 10
118.74053472311113
 20
163.7520472597202
 10
118.69778878271109
 20
163.1680480540012
 10
118.6543264966057
 20
162.5840488482822
 10
118.61014766964226
 20
162.00004964256323
 10
118.5652521033781
 20
161.41605043684422
 10
118.51963959607602
 20
160.83205123112523
 10
118.47330994269959
 20
160.24805202540625
 10
118.42626293490878
 20
159.66405281968727
 10
118.378498361055
 20
159.0800536139683
 10
118.33001600617644
 20
158.49605440824928
 10
118.28081565199307
 20
157.9120552025303
 10
118.23089707690193
 20
157.32805599681132
 10
118.18026005597167
 20
156.7440567910923
 10
118.12890436093784
 20
156.16005758537335
 10
118.07682976019754
 20
155.57605837965434
 10
118.024036018804
 20
154.99205917393536
 10
117.97052289846147
 20
154.40805996821638
 10
117.91629015751965
 20
153.82406076249737
 10
117.86133755096824
 20
153.2400615567784
 10
117.80566483043123
 20
152.6560623510594
 10
117.7492717441612
 20
152.07206314534042
 10
117.69215803703395
 20
151.48806393962144
 10
117.63432345054201
 20
150.90406473390243
 10
117.5757677227893
 20
150.32006552818345
 10
117.51649058848486
 20
149.73606632246447
 10
117.4564917789366
 20
149.15206711674549
 10
117.39577102204561
 20
148.56806791102647
 10
117.33432804229929
 20
147.9840687053075
 10
117.27216256076565
 20
147.4000694995885
 10
117.20927429508626
 20
146.81607029386953
 10
117.14566295947031
 20
146.23207108815052
 10
117.08132826468761
 20
145.64807188243154
 10
117.01626991806205
 20
145.06407267671256
 10
116.95048762346494
 20
144.48007347099355
 10
116.88398108130798
 20
143.8960742652746
 10
116.81674998853637
 20
143.31207505955558
 10
116.74879403862195
 20
142.7280758538366
 10
116.68011292155583
 20
142.14407664811762
 10
116.61070632384144
 20
141.5600774423986
 10
116.54057392848716
 20
140.97607823667963
 10
116.46971541499869
 20
140.39207903096064
 10
100.36911493856331
 20
140.39207903096064
  0
HATCH
  5
80
330
17
100
AcDbEntity
  8
OUTLINE
 62
7
100
AcDbHatch
 10
0.0
 20
0.0
 30
0.0
210
0.0
220
0.0
230
1.0
  2
ANSI31
 70
0
 71
0
 91
1
 92
3
 72
0
 73
1
 93
402
 10
100.36911493856331
 20
140.39207903096064
 10
100.15506069113457
 20
140.97607823667963
 10
99.94345412153157
 20
141.5600774423986
 10
99.73428541186678
 20
142.14407664811762
 10
99.52754490889845
 20
142.7280758538366
 10
99.3232231214655
 20
143.31207505955558
 10
99.1213107179849
 20
143.8960742652746
 10
98.92179852401097
 20
144.48007347099355
 10
98.72467751985397
 20
145.06407267671256
 10
98.52993883825704
 20
145.64807188243154
 10
98.33757376212958
 20
146.23207108815052
 10
98.14757372233584
 20
146.81607029386953
 10
97.95993029553699
 20
147.4000694995885
 10
97.7746352020855
 20
147.9840687053075
 10
97.59168030397046
 20
148.56806791102647
 10
97.41105760281243
 20
149.15206711674549
 10
97.23275923790655
 20
149.73606632246447
 10
97.05677748431276
 20
150.32006552818345
 10
96.88310475099217
 20
150.90406473390243
 10
96.71173357898778
 20
151.48806393962144
 10
96.54265663964924
 20
152.07206314534042
 10
96.37586673289991
 20
152.6560623510594
 10
96.21135678554575
 20
153.2400615567784
 10
96.04911984962439
 20
153.82406076249737
 10
95.88914910079433
 20
154.40805996821638
 10
95.73143783676204
 20
154.99205917393536
 10
95.57597947574746
 20
155.57605837965434
 10
95.42276755498594
 20
156.16005758537335
 10
95.27179572926622
 20
156.7440567910923
 10
95.12305776950365
 20
157.32805599681132
 10
94.97654756134784
 20
157.9120552025303
 10
94.83225910382345
 20
158.49605440824928
 10
94.69018650800439
 20
159.0800536139683
 10
94.55032399571971
 20
159.66405281968727
 10
94.4126658982909
 20
160.24805202540625
 10
94.27720665530012
 20
160.83205123112523
 10
94.14394081338818
 20
161.41605043684422
 10
94.01286302508208
 20
162.00004964256323
 10
93.88396804765131
 20
162.5840488482822
 10
93.75725074199215
 20
163.1680480540012
 10
93.63270607153973
 20
163.7520472597202
 10
93.5103291012071
 20
164.33604646543915
 10
93.39011499635063
 20
164.92004567115816
 10
93.27205902176132
 20
165.50404487687715
 10
93.15615654068179
 20
166.08804408259613
 10
93.04240301384783
 20
166.67204328831514
 10
92.93079399855463
 20
167.25604249403412
 10
92.82132514774688
 20
167.8400416997531
 10
92.71399220913236
 20
168.42404090547208
 10
92.6087910243186
 20
169.00804011119106
 10
92.50571752797228
 20
169.59203931691007
 10
92.40476774700068
 20
170.17603852262906
 10
92.30593779975513
 20
170.76003772834804
 10
92.20922389525578
 20
171.34403693406705
 10
92.11462233243748
 20
171.92803613978603
 10
92.02212949941648
 20
172.512035345505
 10
91.9317418727772
 20
173.096034551224
 10
91.84345601687937
 20
173.68003375694298
 10
91.75726858318458
 20
174.264032962662
 10
91.67317630960233
 20
174.84803216838097
 10
91.59117601985506
 20
175.43203137409995
 10
91.5112646228622
 20
176.01603057981893
 10
91.43343911214228
 20
176.60002978553794
 10
91.35769656523371
 20
177.18402899125692
 10
91.28403414313303
 20
177.7680281969759
 10
91.21244908975126
 20
178.3520274026949
 10
91.14293873138755
 20
178.9360266084139
 10
91.07550047621973
 20
179.52002581413288
 10
91.0101318138124
 20
180.10402501985186
 10
90.9468303146412
 20
180.68802422557084
 10
90.88559362963409
 20
181.27202343128985
 10
90.82641948972838
 20
181.85602263700883
 10
90.7693057054446
 20
182.44002184272782
 10
90.71425016647567
 20
183.0240210484468
 10
90.66125084129217
 20
183.6080202541658
 10
90.6103057767632
 20
184.1920194598848
 10
90.56141309779235
 20
184.77601866560377
 10
90.51457100696933
 20
185.36001787132275
 10
90.46977778423641
 20
185.94401707704174
 10
90.42703178656993
 20
186.52801628276075
 10
90.38633144767655
 20
187.11201548847973
 10
90.34767527770438
 20
187.6960146941987
 10
90.31106186296836
 20
188.2800138999177
 10
90.27648986569031
 20
188.8640131056367
 10
90.24395802375332
 20
189.44801231135568
 10
90.21346515047017
 20
190.03201151707466
 10
90.18501013436611
 20
190.61601072279365
 10
90.15859193897535
 20
191.20000992851266
 10
90.13420960265199
 20
191.78400913423164
 10
90.11186223839417
 20
192.36800833995062
 10
90.09154903368267
 20
192.9520075456696
 10
90.07326925033269
 20
193.53600675138858
 10
90.05702222435951
 20
194.1200059571076
 10
90.0428073658579
 20
194.70400516282658
 10
90.03062415889471
 20
195.28800436854556
 10
90.02047216141534
 20
195.87200357426454
 10
90.01235100516334
 20
196.45600277998352
 10
90.00626039561365
 20
197.04000198570253
 10
90.00220011191928
 20
197.6240011914215
 10
90.00017000687103
 20
198.2080003971405
 10
90.00017000687103
 20
198.7919996028595
 10
90.00220011191928
 20
199.3759988085785
 10
90.00626039561365
 20
199.95999801429747
 10
90.01235100516334
 20
200.54399722001648
 10
90.02047216141534
 20
201.12799642573546
 10
90.03062415889471
 20
201.71199563145444
 10
90.0428073658579
 20
202.29599483717342
 10
90.05702222435951
 20
202.8799940428924
 10
90.07326925033269
 20
203.46399324861142
 10
90.09154903368267
 20
204.0479924543304
 10
90.11186223839417
 20
204.63199166004938
 10
90.13420960265199
 20
205.21599086576836
 10
90.15859193897535
 20
205.79999007148734
 10
90.18501013436611
 20
206.38398927720635
 10
90.21346515047017
 20
206.96798848292534
 10
90.24395802375332
 20
207.55198768864432
 10
90.27648986569031
 20
208.1359868943633
 10
90.31106186296836
 20
208.7199861000823
 10
90.34767527770438
 20
209.3039853058013
 10
90.38633144767655
 20
209.88798451152027
 10
90.42703178656993
 20
210.47198371723925
 10
90.46977778423641
 20
211.05598292295826
 10
90.51457100696933
 20
211.63998212867725
 10
90.56141309779235
 20
212.22398133439623
 10
90.6103057767632
 20
212.8079805401152
 10
90.66125084129217
 20
213.3919797458342
 10
90.71425016647567
 20
213.9759789515532
 10
90.7693057054446
 20
214.55997815727218
 10
90.82641948972838
 20
215.14397736299117
 10
90.88559362963409
 20
215.72797656871015
 10
90.9468303146412
 20
216.31197577442916
 10
91.0101318138124
 20
216.89597498014814
 10
91.07550047621973
 20
217.47997418586712
 10
91.14293873138755
 20
218.0639733915861
 10
91.21244908975126
 20
218.6479725973051
 10
91.28403414313303
 20
219.2319718030241
 10
91.35769656523371
 20
219.81597100874308
 10
91.43343911214228
 20
220.3999702144621
 10
91.5112646228622
 20
220.98396942018107
 10
91.59117601985506
 20
221.56796862590005
 10
91.67317630960233
 20
222.15196783161903
 10
91.75726858318458
 20
222.735967037338
 10
91.84345601687937
 20
223.31996624305702
 10
91.9317418727772
 20
223.903965448776
 10
92.02212949941648
 20
224.487964654495
 10
92.11462233243748
 20
225.07196386021397
 10
92.20922389525578
 20
225.65596306593295
 10
92.30593779975513
 20
226.23996227165196
 10
92.40476774700068
 20
226.82396147737094
 10
92.50571752797228
 20
227.40796068308993
 10
92.6087910243186
 20
227.99195988880894
 10
92.71399220913236
 20
228.57595909452792
 10
92.82132514774688
 20
229.1599583002469
 10
92.93079399855463
 20
229.74395750596588
 10
93.04240301384783
 20
230.32795671168486
 10
93.15615654068179
 20
230.91195591740387
 10
93.27205902176132
 20
231.49595512312285
 10
93.39011499635063
 20
232.07995432884184
 10
93.5103291012071
 20
232.66395353456085
 10
93.63270607153973
 20
233.2479527402798
 10
93.75725074199215
 20
233.8319519459988
 10
93.88396804765131
 20
234.4159511517178
 10
94.01286302508208
 20
234.99995035743677
 10
94.14394081338818
 20
235.58394956315578
 10
94.27720665530012
 20
236.16794876887477
 10
94.4126658982909
 20
236.75194797459375
 10
94.55032399571971
 20
237.33594718031276
 10
94.69018650800439
 20
237.9199463860317
 10
94.83225910382345
 20
238.50394559175072
 10
94.97654756134784
 20
239.0879447974697
 10
95.12305776950365
 20
239.67194400318868
 10
95.27179572926622
 20
240.2559432089077
 10
95.42276755498594
 20
240.83994241462668
 10
95.57597947574746
 20
241.42394162034566
 10
95.73143783676204
 20
242.00794082606464
 10
95.88914910079433
 20
242.59194003178362
 10
96.04911984962439
 20
243.17593923750263
 10
96.21135678554575
 20
243.7599384432216
 10
96.37586673289991
 20
244.3439376489406
 10
96.54265663964924
 20
244.92793685465958
 10
96.71173357898778
 20
245.5119360603786
 10
96.88310475099217
 20
246.09593526609757
 10
97.05677748431276
 20
246.67993447181655
 10
97.23275923790655
 20
247.26393367753553
 10
97.41105760281243
 20
247.84793288325451
 10
97.59168030397046
 20
248.43193208897353
 10
97.7746352020855
 20
249.0159312946925
 10
97.95993029553699
 20
249.5999305004115
 10
98.14757372233584
 20
250.18392970613047
 10
98.33757376212958
 20
250.76792891184948
 10
98.52993883825704
 20
251.35192811756846
 10
98.72467751985397
 20
251.93592732328744
 10
98.92179852401097
 20
252.51992652900643
 10
99.1213107179849
 20
253.1039257347254
 10
99.3232231214655
 20
253.68792494044442
 10
99.52754490889845
 20
254.2719241461634
 10
99.73428541186678
 20
254.85592335188238
 10
99.94345412153157
 20
255.4399225576014
 10
100.15506069113457
 20
256.02392176332035
 10
100.36911493856331
 20
256.60792096903936
 10
116.46971541499869
 20
256.60792096903936
 10
116.46971541499869
 20
256.60792096903936
 10
116.54057392848716
 20
256.02392176332035
 10
116.61070632384144
 20
255.4399225576014
 10
116.68011292155583
 20
254.85592335188238
 10
116.74879403862195
 20
254.2719241461634
 10
116.81674998853637
 20
253.68792494044442
 10
116.88398108130798
 20
253.1039257347254
 10
116.95048762346494
 20
252.51992652900643
 10
117.01626991806205
 20
251.93592732328744
 10
117.08132826468761
 20
251.35192811756846
 10
117.14566295947031
 20
250.76792891184948
 10
117.20927429508626
 20
250.18392970613047
 10
117.27216256076565
 20
249.5999305004115
 10
117.33432804229929
 20
249.0159312946925
 10
117.39577102204561
 20
248.43193208897353
 10
117.4564917789366
 20
247.84793288325451
 10
117.51649058848486
 20
247.26393367753553
 10
117.5757677227893
 20
246.67993447181655
 10
117.63432345054201
 20
246.09593526609757
 10
117.69215803703395
 20
245.5119360603786
 10
117.7492717441612
 20
244.92793685465958
 10
117.80566483043123
 20
244.3439376489406
 10
117.86133755096824
 20
243.7599384432216
 10
117.91629015751965
 20
243.17593923750263
 10
117.97052289846147
 20
242.59194003178362
 10
118.024036018804
 20
242.00794082606464
 10
118.07682976019754
 20
241.42394162034566
 10
118.12890436093784
 20
240.83994241462668
 10
118.18026005597167
 20
240.2559432089077
 10
118.23089707690193
 20
239.67194400318868
 10
118.28081565199307
 20
239.0879447974697
 10
118.33001600617644
 20
238.50394559175072
 10
118.378498361055
 20
237.9199463860317
 10
118.42626293490878
 20
237.33594718031276
 10
118.47330994269959
 20
236.75194797459375
 10
118.51963959607602
 20
236.16794876887477
 10
118.5652521033781
 20
235.58394956315578
 10
118.61014766964226
 20
234.99995035743677
 10
118.6543264966057
 20
234.4159511517178
 10
118.69778878271109
 20
233.8319519459988
 10
118.74053472311113
 20
233.2479527402798
 10
118.78256450967291
 20
232.66395353456085
 10
118.82387833098215
 20
232.07995432884184
 10
118.86447637234758
 20
231.49595512312285
 10
118.9043588158051
 20
230.91195591740387
 10
118.94352584012177
 20
230.32795671168486
 10
118.98197762080008
 20
229.74395750596588
 10
119.01971433008177
 20
229.1599583002469
 10
119.05673613695154
 20
228.57595909452792
 10
119.09304320714119
 20
227.99195988880894
 10
119.12863570313311
 20
227.40796068308993
 10
119.16351378416397
 20
226.82396147737094
 10
119.19767760622844
 20
226.23996227165196
 10
119.23112732208256
 20
225.65596306593295
 10
119.26386308124711
 20
225.07196386021397
 10
119.2958850300111
 20
224.487964654495
 10
119.32719331143511
 20
223.903965448776
 10
119.35778806535427
 20
223.31996624305702
 10
119.3876694283816
 20
222.735967037338
 10
119.4168375339109
 20
222.15196783161903
 10
119.44529251211998
 20
221.56796862590005
 10
119.47303448997332
 20
220.98396942018107
 10
119.500063591225
 20
220.3999702144621
 10
119.52637993642162
 20
219.81597100874308
 10
119.55198364290464
 20
219.2319718030241
 10
119.57687482481344
 20
218.6479725973051
 10
119.60105359308761
 20
218.0639733915861
 10
119.62452005546942
 20
217.47997418586712
 10
119.64727431650624
 20
216.89597498014814
 10
119.669316477553
 20
216.31197577442916
 10
119.69064663677437
 20
215.72797656871015
 10
119.71126488914689
 20
215.14397736299117
 10
119.73117132646118
 20
214.55997815727218
 10
119.75036603732394
 20
213.9759789515532
 10
119.76884910715995
 20
213.3919797458342
 10
119.7866206182139
 20
212.8079805401152
 10
119.8036806495524
 20
212.22398133439623
 10
119.82002927706554
 20
211.63998212867725
 10
119.83566657346864
 20
211.05598292295826
 10
119.850592608304
 20
210.47198371723925
 10
119.86480744794216
 20
209.88798451152027
 10
119.87831115558379
 20
209.3039853058013
 10
119.89110379126066
 20
208.7199861000823
 10
119.90318541183723
 20
208.1359868943633
 10
119.91455607101199
 20
207.55198768864432
 10
119.9252158193184
 20
206.96798848292534
 10
119.93516470412612
 20
206.38398927720635
 10
119.94440276964218
 20
205.79999007148734
 10
119.95293005691178
 20
205.21599086576836
 10
119.9607466038193
 20
204.63199166004938
 10
119.96785244508925
 20
204.0479924543304
 10
119.97424761228677
 20
203.46399324861142
 10
119.97993213381852
 20
202.8799940428924
 10
119.98490603493332
 20
202.29599483717342
 10
119.98916933772267
 20
201.71199563145444
 10
119.99272206112116
 20
201.12799642573546
 10
119.995564220907
 20
200.54399722001648
 10
119.99769582970237
 20
199.95999801429747
 10
119.99911689697365
 20
199.3759988085785
 10
119.9998274290316
 20
198.7919996028595
 10
119.9998274290316
 20
198.2080003971405
 10
119.99911689697365
 20
197.6240011914215
 10
119.99769582970237
 20
197.04000198570253
 10
119.995564220907
 20
196.45600277998352
 10
119.99272206112116
 20
195.87200357426454
 10
119.98916933772267
 20
195.28800436854556
 10
119.98490603493332
 20
194.70400516282658
 10
119.97993213381852
 20
194.1200059571076
 10
119.97424761228677
 20
193.53600675138858
 10
119.96785244508925
 20
192.9520075456696
 10
119.9607466038193
 20
192.36800833995062
 10
119.95293005691178
 20
191.78400913423164
 10
119.94440276964218
 20
191.20000992851266
 10
119.93516470412612
 20
190.61601072279365
 10
119.9252158193184
 20
190.03201151707466
 10
119.91455607101199
 20
189.44801231135568
 10
119.90318541183723
 20
188.8640131056367
 10
119.89110379126066
 20
188.2800138999177
 10
119.87831115558379
 20
187.6960146941987
 10
119.86480744794216
 20
187.11201548847973
 10
119.850592608304
 20
186.52801628276075
 10
119.83566657346864
 20
185.94401707704174
 10
119.82002927706554
 20
185.36001787132275
 10
119.8036806495524
 20
184.77601866560377
 10
119.7866206182139
 20
184.1920194598848
 10
119.76884910715995
 20
183.6080202541658
 10
119.75036603732394
 20
183.0240210484468
 10
119.73117132646118
 20
182.44002184272782
 10
119.71126488914689
 20
181.85602263700883
 10
119.69064663677437
 20
181.27202343128985
 10
119.669316477553
 20
180.68802422557084
 10
119.64727431650624
 20
180.10402501985186
 10
119.62452005546942
 20
179.52002581413288
 10
119.60105359308761
 20
178.9360266084139
 10
119.57687482481344
 20
178.3520274026949
 10
119.55198364290464
 20
177.7680281969759
 10
119.52637993642162
 20
177.18402899125692
 10
119.500063591225
 20
176.60002978553794
 10
119.47303448997332
 20
176.01603057981893
 10
119.44529251211998
 20
175.43203137409995
 10
119.4168375339109
 20
174.84803216838097
 10
119.3876694283816
 20
174.264032962662
 10
119.35778806535427
 20
173.68003375694298
 10
119.32719331143511
 20
173.096034551224
 10
119.2958850300111
 20
172.512035345505
 10
119.26386308124711
 20
171.92803613978603
 10
119.23112732208256
 20
171.34403693406705
 10
119.19767760622844
 20
170.76003772834804
 10
119.16351378416397
 20
170.17603852262906
 10
119.12863570313311
 20
169.59203931691007
 10
119.09304320714119
 20
169.00804011119106
 10
119.05673613695154
 20
168.42404090547208
 10
119.01971433008177
 20
167.8400416997531
 10
118.98197762080008
 20
167.25604249403412
 10
118.94352584012177
 20
166.67204328831514
 10
118.9043588158051
 20
166.08804408259613
 10
118.86447637234758
 20
165.50404487687715
 10
118.82387833098215
 20
164.92004567115816
 10
118.78256450967291
 20
164.33604646543915
 10
118.74053472311113
 20
163.7520472597202
 10
118.69778878271109
 20
163.1680480540012
 10
118.6543264966057
 20
162.5840488482822
 10
118.61014766964226
 20
162.00004964256323
 10
118.5652521033781
 20
161.41605043684422
 10
118.51963959607602
 20
160.83205123112523
 10
118.47330994269959
 20
160.24805202540625
 10
118.42626293490878
 20
159.66405281968727
 10
118.378498361055
 20
159.0800536139683
 10
118.33001600617644
 20
158.49605440824928
 10
118.28081565199307
 20
157.9120552025303
 10
118.23089707690193
 20
157.32805599681132
 10
118.18026005597167
 20
156.7440567910923
 10
118.12890436093784
 20
156.16005758537335
 10
118.07682976019754
 20
155.57605837965434
 10
118.024036018804
 20
154.99205917393536
 10
117.97052289846147
 20
154.40805996821638
 10
117.91629015751965
 20
153.82406076249737
 10
117.86133755096824
 20
153.2400615567784
 10
117.80566483043123
 20
152.6560623510594
 10
117.7492717441612
 20
152.07206314534042
 10
117.69215803703395
 20
151.48806393962144
 10
117.63432345054201
 20
150.90406473390243
 10
117.5757677227893
 20
150.32006552818345
 10
117.51649058848486
 20
149.73606632246447
 10
117.4564917789366
 20
149.15206711674549
 10
117.39577102204561
 20
148.56806791102647
 10
117.33432804229929
 20
147.9840687053075
 10
117.27216256076565
 20
147.4000694995885
 10
117.20927429508626
 20
146.81607029386953
 10
117.14566295947031
 20
146.23207108815052
 10
117.08132826468761
 20
145.64807188243154
 10
117.01626991806205
 20
145.06407267671256
 10
116.95048762346494
 20
144.48007347099355
 10
116.88398108130798
 20
143.8960742652746
 10
116.81674998853637
 20
143.31207505955558
 10
116.74879403862195
 20
142.7280758538366
 10
116.68011292155583
 20
142.14407664811762
 10
116.61070632384144
 20
141.5600774423986
 10
116.54057392848716
 20
140.97607823667963
 10
116.46971541499869
 20
140.39207903096064
 10
100.36911493856331
 20
140.39207903096064
 97
0
 75
1
 76
1
 52
0.0
 41
1.0
 77
0
 78
1
 53
45.0
 43
0.0
 44
0.0
 45
-2.2450640303
 46
2.2450640303
 79
0
 98
0
  0
LINE
  5
81
330
17
100
AcDbEntity
  8
DIMS
100
AcDbLine
 10
89.99991624546487
 20
138.89207903096064
 30
0.0
 11
89.99991624546487
 21
132.39207903096064
 31
0.0
  0
LINE
  5
82
330
17
100
AcDbEntity
  8
DIMS
100
AcDbLine
 10
119.99991624546487
 20
138.89207903096064
 30
0.0
 11
119.99991624546487
 21
132.39207903096064
 31
0.0
  0
LINE
  5
83
330
17
100
AcDbEntity
  8
DIMS
100
AcDbLine
 10
89.99991624546487
 20
132.39207903096064
 30
0.0
 11
119.99991624546487
 21
132.39207903096064
 31
0.0
  0
SOLID
  5
84
330
17
100
AcDbEntity
  8
DIMS
100
AcDbTrace
 10
89.99991624546487
 20
132.39207903096064
 30
0.0
 11
92.49991624546487
 21
131.59207903096063
 31
0.0
 12
92.49991624546487
 22
133.19207903096066
 32
0.0
 13
92.49991624546487
 23
133.19207903096066
 33
0.0
  0
SOLID
  5
85
330
17
100
AcDbEntity
  8
DIMS
100
AcDbTrace
 10
119.99991624546487
 20
132.39207903096064
 30
0.0
 11
117.49991624546487
 21
133.19207903096066
 31
0.0
 12
117.49991624546487
 22
131.59207903096063
 32
0.0
 13
117.49991624546487
 23
131.59207903096063
 33
0.0
  0
TEXT
  5
86
330
17
100
AcDbEntity
  8
DIMS
100
AcDbText
 10
104.99991624546487
 20
128.39207903096064
 30
0.0
 40
2.5
  1
5.00
 72
4
 11
104.99991624546487
 21
128.39207903096064
 31
0.0
100
AcDbText
 73
3
  0
LINE
  5
87
330
17
100
AcDbEntity
  8
DIMS
100
AcDbLine
 10
116.46971541499869
 20
256.60792096903936
 30
0.0
 11
131.99982999312897
 21
256.60792096903936
 31
0.0
  0
LINE
  5
88
330
17
100
AcDbEntity
  8
DIMS
100
AcDbLine
 10
100.36911493856331
 20
140.39207903096064
 30
0.0
 11
131.99982999312897
 21
140.39207903096064
 31
0.0
  0
LINE
  5
89
330
17
100
AcDbEntity
  8
DIMS
100
AcDbLine
 10
129.99982999312897
 20
256.60792096903936
 30
0.0
 11
129.99982999312897
 21
140.39207903096064
 31
0.0
  0
SOLID
  5
8A
330
17
100
AcDbEntity
  8
DIMS
100
AcDbTrace
 10
129.99982999312897
 20
256.60792096903936
 30
0.0
 11
129.19982999312896
 21
254.10792096903936
 31
0.0
 12
130.79982999312898
 22
254.10792096903936
 32
0.0
 13
130.79982999312898
 23
254.10792096903936
 33
0.0
  0
SOLID
  5
8B
330
17
100
AcDbEntity
  8
DIMS
100
AcDbTrace
 10
129.99982999312897
 20
140.39207903096064
 30
0.0
 11
130.79982999312898
 21
142.89207903096064
 31
0.0
 12
129.19982999312896
 22
142.89207903096064
 32
0.0
 13
129.19982999312896
 23
142.89207903096064
 33
0.0
  0
TEXT
  5
8C
330
17
100
AcDbEntity
  8
DIMS
100
AcDbText
 10
132.99982999312897
 20
198.5
 30
0.0
 40
2.5
  1
Ø 19.37
100
AcDbText
 73
2
  0
LINE
  5
8D
330
17
100
AcDbEntity
  8
DIMS
100
AcDbLine
 10
100.36911493856331
 20
258.10792096903936
 30
0.0
 11
100.36911493856331
 21
264.60792096903936
 31
0.0
  0
LINE
  5
8E
330
17
100
AcDbEntity
  8
DIMS
100
AcDbLine
 10
116.46971541499869
 20
258.10792096903936
 30
0.0
 11
116.46971541499869
 21
264.60792096903936
 31
0.0
  0
LINE
  5
8F
330
17
100
AcDbEntity
  8
DIMS
100
AcDbLine
 10
100.36911493856331
 20
264.60792096903936
 30
0.0
 11
116.46971541499869
 21
264.60792096903936
 31
0.0
  0
SOLID
  5
90
330
17
100
AcDbEntity
  8
DIMS
100
AcDbTrace
 10
100.36911493856331
 20
264.60792096903936
 30
0.0
 11
102.86911493856331
 21
263.80792096903934
 31
0.0
 12
102.86911493856331
 22
265.40792096903937
 32
0.0
 13
102.86911493856331
 23
265.40792096903937
 33
0.0
  0
SOLID
  5
91
330
17
100
AcDbEntity
  8
DIMS
100
AcDbTrace
 10
116.46971541499869
 20
264.60792096903936
 30
0.0
 11
113.96971541499869
 21
265.40792096903937
 31
0.0
 12
113.96971541499869
 22
263.80792096903934
 32
0.0
 13
113.96971541499869
 23
263.80792096903934
 33
0.0
  0
TEXT
  5
92
330
17
100
AcDbEntity
  8
DIMS
100
AcDbText
 10
108.419415176781
 20
266.60792096903936
 30
0.0
 40
2.5
  1
(2.68)
 72
4
 11
108.419415176781
 21
266.60792096903936
 31
0.0
100
AcDbText
 73
1
  0
LINE
  5
93
330
17
100
AcDbEntity
  8
DIMS
100
AcDbLine
 10
100.36911493856331
 20
256.60792096903936
 30
0.0
 11
97.36911493856331
 21
256.60792096903936
 31
0.0
  0
LINE
  5
94
330
17
100
AcDbEntity
  8
DIMS
100
AcDbLine
 10
100.36911493856331
 20
140.39207903096064
 30
0.0
 11
97.36911493856331
 21
140.39207903096064
 31
0.0
  0
LINE
  5
95
330
17
100
AcDbEntity
  8
DIMS
100
AcDbLine
 10
97.36911493856331
 20
140.39207903096064
 30
0.0
 11
97.36911493856331
 21
256.60792096903936
 31
0.0
  0
TEXT
  5
96
330
17
100
AcDbEntity
  8
DIMS
100
AcDbText
 10
96.36911493856331
 20
198.5
 30
0.0
 40
2.0
  1
Øₑ 19.37
 72
2
 11
96.36911493856331
 21
198.5
 31
0.0
100
AcDbText
 73
2
  0
LINE
  5
97
330
17
100
AcDbEntity
  8
DIMS
100
AcDbLine
 10
116.5719975629876
 20
255.76300121967517
 30
0.0
 11
119.5719975629876
 21
255.76300121967517
 31
0.0
  0
LINE
  5
98
330
17
100
AcDbEntity
  8
DIMS
100
AcDbLine
 10
116.5719975629876
 20
141.23699878032483
 30
0.0
 11
119.5719975629876
 21
141.23699878032483
 31
0.0
  0
LINE
  5
99
330
17
100
AcDbEntity
  8
DIMS
100
AcDbLine
 10
119.5719975629876
 20
141.23699878032483
 30
0.0
 11
119.5719975629876
 21
255.76300121967517
 31
0.0
  0
TEXT
  5
9A
330
17
100
AcDbEntity
  8
DIMS
100
AcDbText
 10
120.5719975629876
 20
198.5
 30
0.0
 40
2.0
  1
Øₑ 19.09
 11
120.5719975629876
 21
198.5
 31
0.0
100
AcDbText
 73
2
  0
LWPOLYLINE
  5
9B
330
17
100
AcDbEntity
  8
CALLOUT
100
AcDbPolyline
 90
3
 70
1
 10
97.42452358309623
 20
247.89173282368344
 10
93.10759959702672
 20
246.90282608556456
 10
94.40964303994052
 20
251.13584495646944
  0
LINE
  5
9C
330
17
100
AcDbEntity
  8
CALLOUT
100
AcDbLine
 10
97.42452358309623
 20
247.89173282368344
 30
0.0
 11
91.35608561264108
 21
254.40218375916362
 31
0.0
  0
LINE
  5
9D
330
17
100
AcDbEntity
  8
CALLOUT
100
AcDbLine
 10
91.36873198977351
 20
254.34421192172223
 30
0.0
 11
92.17036129966385
 21
256.95035537623136
 31
0.0
  0
TEXT
  5
9E
330
17
100
AcDbEntity
  8
CALLOUT
100
AcDbText
 10
92.61135891416103
 20
258.3840642392882
 30
0.0
 40
2.0
  1
S1
 72
4
 11
92.61135891416103
 21
258.3840642392882
 31
0.0
100
AcDbText
 73
2
  0
LWPOLYLINE
  5
9F
330
17
100
AcDbEntity
  8
CALLOUT
100
AcDbPolyline
 90
3
 70
1
 10
118.51158368156524
 20
236.27014862987556
 10
122.16085165743127
 20
238.77945380831
 10
122.50933975538761
 20
234.36444283049187
  0
LINE
  5
A0
330
17
100
AcDbEntity
  8
CALLOUT
100
AcDbLine
 10
118.51158368156524
 20
236.27014862987556
 30
0.0
 11
126.55124006161711
 21
232.45231729844565
 31
0.0
  0
LINE
  5
A1
330
17
100
AcDbEntity
  8
CALLOUT
100
AcDbLine
 10
126.51813176293584
 20
232.501556564782
 30
0.0
 11
126.73268548999472
 21
229.78336599858523
 31
0.0
  0
TEXT
  5
A2
330
17
100
AcDbEntity
  8
CALLOUT
100
AcDbText
 10
126.85071720446308
 20
228.28801703784742
 30
0.0
 40
2.0
  1
S2
 72
4
 11
126.85071720446308
 21
228.28801703784742
 31
0.0
100
AcDbText
 73
2
  0
ENDSEC
  0
SECTION
  2
OBJECTS
  0
DICTIONARY
  5
A
330
0
100
AcDbDictionary
281
1
  3
ACAD_COLOR
350
B
  3
ACAD_GROUP
350
C
  3
ACAD_LAYOUT
350
D
  3
ACAD_MATERIAL
350
E
  3
ACAD_MLEADERSTYLE
350
F
  3
ACAD_MLINESTYLE
350
10
  3
ACAD_PLOTSETTINGS
350
11
  3
ACAD_PLOTSTYLENAME
350
12
  3
ACAD_SCALELIST
350
14
  3
ACAD_TABLESTYLE
350
15
  3
ACAD_VISUALSTYLE
350
16
  3
EZDXF_META
350
2D
  0
DICTIONARY
  5
B
330
A
100
AcDbDictionary
281
1
  0
DICTIONARY
  5
C
330
A
100
AcDbDictionary
281
1
  0
DICTIONARY
  5
D
330
A
100
AcDbDictionary
281
1
  3
Model
350
1A
  3
Layout1
350
1E
  0
DICTIONARY
  5
E
330
A
100
AcDbDictionary
281
1
  3
ByBlock
350
1F
  3
ByLayer
350
20
  3
Global
350
21
  0
DICTIONARY
  5
F
330
A
100
AcDbDictionary
281
1
  3
Standard
350
2C
  0
DICTIONARY
  5
10
330
A
100
AcDbDictionary
281
1
  3
Standard
350
22
  0
DICTIONARY
  5
11
330
A
100
AcDbDictionary
281
1
  0
ACDBDICTIONARYWDFLT
  5
12
330
A
100
AcDbDictionary
281
1
  3
Normal
350
13
100
AcDbDictionaryWithDefault
340
13
  0
ACDBPLACEHOLDER
  5
13
330
12
  0
DICTIONARY
  5
14
330
A
100
AcDbDictionary
281
1
  0
DICTIONARY
  5
15
330
A
100
AcDbDictionary
281
1
  0
DICTIONARY
  5
16
330
A
100
AcDbDictionary
281
1
  0
LAYOUT
  5
1A
330
D
100
AcDbPlotSettings
  1

  4
A3
  6

 40
7.5
 41
20.0
 42
7.5
 43
20.0
 44
420.0
 45
297.0
 46
0.0
 47
0.0
 48
0.0
 49
0.0
140
0.0
141
0.0
142
1.0
143
1.0
 70
1024
 72
1
 73
0
 74
5
  7

 75
16
 76
0
 77
2
 78
300
147
1.0
148
0.0
149
0.0
100
AcDbLayout
  1
Model
 70
1
 71
0
 10
0.0
 20
0.0
 11
420.0
 21
297.0
 12
0.0
 22
0.0
 32
0.0
 14
1e+20
 24
1e+20
 34
1e+20
 15
-1e+20
 25
-1e+20
 35
-1e+20
146
0.0
 13
0.0
 23
0.0
 33
0.0
 16
1.0
 26
0.0
 36
0.0
 17
0.0
 27
1.0
 37
0.0
 76
1
330
17
  0
LAYOUT
  5
1E
330
D
100
AcDbPlotSettings
  1

  4
A3
  6

 40
7.5
 41
20.0
 42
7.5
 43
20.0
 44
420.0
 45
297.0
 46
0.0
 47
0.0
 48
0.0
 49
0.0
140
0.0
141
0.0
142
1.0
143
1.0
 70
0
 72
1
 73
0
 74
5
  7

 75
16
 76
0
 77
2
 78
300
147
1.0
148
0.0
149
0.0
100
AcDbLayout
  1
Layout1
 70
1
 71
1
 10
0.0
 20
0.0
 11
420.0
 21
297.0
 12
0.0
 22
0.0
 32
0.0
 14
1e+20
 24
1e+20
 34
1e+20
 15
-1e+20
 25
-1e+20
 35
-1e+20
146
0.0
 13
0.0
 23
0.0
 33
0.0
 16
1.0
 26
0.0
 36
0.0
 17
0.0
 27
1.0
 37
0.0
 76
1
330
1B
  0
MATERIAL
  5
1F
102
{ACAD_REACTORS
330
E
102
}
330
E
100
AcDbMaterial
  1
ByBlock
  2

 70
0
 40
1.0
 71
1
 41
1.0
 91
-1023410177
 42
1.0
 72
1
  3

 73
1
 74
1
 75
1
 44
0.5
 73
0
 45
1.0
 46
1.0
 77
1
  4

 78
1
 79
1
170
1
 48
1.0
171
1
  6

172
1
173
1
174
1
140
1.0
141
1.0
175
1
  7

176
1
177
1
178
1
143
1.0
179
1
  8

270
1
271
1
272
1
145
1.0
146
1.0
273
1
  9

274
1
275
1
276
1
 42
1.0
 72
1
  3

 73
1
 74
1
 75
1
 94
63
  0
MATERIAL
  5
20
102
{ACAD_REACTORS
330
E
102
}
330
E
100
AcDbMaterial
  1
ByLayer
  2

 70
0
 40
1.0
 71
1
 41
1.0
 91
-1023410177
 42
1.0
 72
1
  3

 73
1
 74
1
 75
1
 44
0.5
 73
0
 45
1.0
 46
1.0
 77
1
  4

 78
1
 79
1
170
1
 48
1.0
171
1
  6

172
1
173
1
174
1
140
1.0
141
1.0
175
1
  7

176
1
177
1
178
1
143
1.0
179
1
  8

270
1
271
1
272
1
145
1.0
146
1.0
273
1
  9

274
1
275
1
276
1
 42
1.0
 72
1
  3

 73
1
 74
1
 75
1
 94
63
  0
MATERIAL
  5
21
102
{ACAD_REACTORS
330
E
102
}
330
E
100
AcDbMaterial
  1
Global
  2

 70
0
 40
1.0
 71
1
 41
1.0
 91
-1023410177
 42
1.0
 72
1
  3

 73
1
 74
1
 75
1
 44
0.5
 73
0
 45
1.0
 46
1.0
 77
1
  4

 78
1
 79
1
170
1
 48
1.0
171
1
  6

172
1
173
1
174
1
140
1.0
141
1.0
175
1
  7

176
1
177
1
178
1
143
1.0
179
1
  8

270
1
271
1
272
1
145
1.0
146
1.0
273
1
  9

274
1
275
1
276
1
 42
1.0
 72
1
  3

 73
1
 74
1
 75
1
 94
63
  0
MLINESTYLE
  5
22
102
{ACAD_REACTORS
330
10
102
}
330
10
100
AcDbMlineStyle
  2
Standard
 70
0
  3

 62
256
 51
90.0
 52
90.0
 71
2
 49
0.5
 62
256
  6
BYLAYER
 49
-0.5
 62
256
  6
BYLAYER
  0
MLEADERSTYLE
  5
2C
102
{ACAD_REACTORS
330
F
102
}
330
F
100
AcDbMLeaderStyle
179
2
170
2
171
1
172
0
 90
2
 40
0.0
 41
0.0
173
1
 91
-1056964608
 92
-2
290
1
 42
2.0
291
1
 43
8.0
  3
Standard
 44
4.0
300

342
29
174
1
175
1
176
0
178
1
 93
-1056964608
 45
4.0
292
0
297
0
 46
4.0
 94
-1056964608
 47
1.0
 49
1.0
140
1.0
294
1
141
0.0
177
0
142
1.0
295
0
296
0
143
3.75
271
0
272
9
273
9
  0
DICTIONARY
  5
2D
330
A
100
AcDbDictionary
280
1
281
1
  3
CREATED_BY_EZDXF
350
2E
  3
WRITTEN_BY_EZDXF
350
A5
  0
DICTIONARYVAR
  5
2E
330
2D
100
DictionaryVariables
280
0
  1
1.4.3 @ 2026-07-26T12:20:01.988272+00:00
  0
DICTIONARYVAR
  5
A5
330
2D
100
DictionaryVariables
280
0
  1
1.4.3 @ 2026-07-26T12:20:01.994221+00:00
  0
ENDSEC
  0
EOF
