  0
SECTION
  2
HEADER
  9
$ACADVER
  1
AC1024
  9
$ACADMAINTVER
 70
6
  9
$DWGCODEPAGE
  3
ANSI_1252
  9
$LASTSAVEDBY
  1
ezdxf
  9
$INSBASE
 10
0.0
 20
0.0
 30
0.0
  9
$EXTMIN
 10
0.0
 20
0.0
 30
0.0
  9
$EXTMAX
 10
210.0
 20
297.0
 30
0.0
  9
$LIMMIN
 10
0.0
 20
0.0
  9
$LIMMAX
 10
420.0
 20
297.0
  9
$ORTHOMODE
 70
0
  9
$REGENMODE
 70
1
  9
$FILLMODE
 70
1
  9
$QTEXTMODE
 70
0
  9
$MIRRTEXT
 70
1
  9
$LTSCALE
 40
1.0
  9
$ATTMODE
 70
1
  9
$TEXTSIZE
 40
2.5
  9
$TRACEWID
 40
1.0
  9
$TEXTSTYLE
  7
Standard
  9
$CLAYER
  8
0
  9
$CELTYPE
  6
ByLayer
  9
$CECOLOR
 62
256
  9
$CELTSCALE
 40
1.0
  9
$DISPSILH
 70
0
  9
$DIMSCALE
 40
1.0
  9
$DIMASZ
 40
2.5
  9
$DIMEXO
 40
0.625
  9
$DIMDLI
 40
3.75
  9
$DIMRND
 40
0.0
  9
$DIMDLE
 40
0.0
  9
$DIMEXE
 40
1.25
  9
$DIMTP
 40
0.0
  9
$DIMTM
 40
0.0
  9
$DIMTXT
 40
2.5
  9
$DIMCEN
 40
2.5
  9
$DIMTSZ
 40
0.0
  9
$DIMTOL
 70
0
  9
$DIMLIM
 70
0
  9
$DIMTIH
 70
0
  9
$DIMTOH
 70
0
  9
$DIMSE1
 70
0
  9
$DIMSE2
 70
0
  9
$DIMTAD
 70
1
  9
$DIMZIN
 70
8
  9
$DIMBLK
  1

  9
$DIMASO
 70
1
  9
$DIMSHO
 70
1
  9
$DIMPOST
  1

  9
$DIMAPOST
  1

  9
$DIMALT
 70
0
  9
$DIMALTD
 70
3
  9
$DIMALTF
 40
0.03937007874
  9
$DIMLFAC
 40
1.0
  9
$DIMTOFL
 70
1
  9
$DIMTVP
 40
0.0
  9
$DIMTIX
 70
0
  9
$DIMSOXD
 70
0
  9
$DIMSAH
 70
0
  9
$DIMBLK1
  1

  9
$DIMBLK2
  1

  9
$DIMSTYLE
  2
ISO-25
  9
$DIMCLRD
 70
0
  9
$DIMCLRE
 70
0
  9
$DIMCLRT
 70
0
  9
$DIMTFAC
 40
1.0
  9
$DIMGAP
 40
0.625
  9
$DIMJUST
 70
0
  9
$DIMSD1
 70
0
  9
$DIMSD2
 70
0
  9
$DIMTOLJ
 70
0
  9
$DIMTZIN
 70
8
  9
$DIMALTZ
 70
0
  9
$DIMALTTZ
 70
0
  9
$DIMUPT
 70
0
  9
$DIMDEC
 70
2
  9
$DIMTDEC
 70
2
  9
$DIMALTU
 70
2
  9
$DIMALTTD
 70
3
  9
$DIMTXSTY
  7
Standard
  9
$DIMAUNIT
 70
0
  9
$DIMADEC
 70
0
  9
$DIMALTRND
 40
0.0
  9
$DIMAZIN
 70
0
  9
$DIMDSEP
 70
44
  9
$DIMATFIT
 70
3
  9
$DIMFRAC
 70
0
  9
$DIMLDRBLK
  1

  9
$DIMLUNIT
 70
2
  9
$DIMLWD
 70
-2
  9
$DIMLWE
 70
-2
  9
$DIMTMOVE
 70
0
  9
$DIMFXL
 40
1.0
  9
$DIMFXLON
 70
0
  9
$DIMJOGANG
 40
0.785398163397
  9
$DIMTFILL
 70
0
  9
$DIMTFILLCLR
 70
0
  9
$DIMARCSYM
 70
0
  9
$DIMLTYPE
  6

  9
$DIMLTEX1
  6

  9
$DIMLTEX2
  6

  9
$DIMTXTDIRECTION
 70
0
  9
$LUNITS
 70
2
  9
$LUPREC
 70
4
  9
$SKETCHINC
 40
1.0
  9
$FILLETRAD
 40
10.0
  9
$AUNITS
 70
0
  9
$AUPREC
 70
2
  9
$MENU
  1
.
  9
$ELEVATION
 40
0.0
  9
$PELEVATION
 40
0.0
  9
$THICKNESS
 40
0.0
  9
$LIMCHECK
 70
0
  9
$CHAMFERA
 40
0.0
  9
$CHAMFERB
 40
0.0
  9
$CHAMFERC
 40
0.0
  9
$CHAMFERD
 40
0.0
  9
$SKPOLY
 70
0
  9
$TDCREATE
 40
2461238.3354282407
  9
$TDUCREATE
 40
2458532.153996898
  9
$TDUPDATE
 40
2461238.3354282407
  9
$TDUUPDATE
 40
2458532.1544311
  9
$TDINDWG
 40
0.0
  9
$TDUSRTIMER
 40
0.0
  9
$USRTIMER
 70
1
  9
$ANGBASE
 50
0.0
  9
$ANGDIR
 70
0
  9
$PDMODE
 70
0
  9
$PDSIZE
 40
0.0
  9
$PLINEWID
 40
0.0
  9
$SPLFRAME
 70
0
  9
$SPLINETYPE
 70
6
  9
$SPLINESEGS
 70
8
  9
$HANDSEED
  5
A6
  9
$SURFTAB1
 70
6
  9
$SURFTAB2
 70
6
  9
$SURFTYPE
 70
6
  9
$SURFU
 70
6
  9
$SURFV
 70
6
  9
$UCSBASE
  2

  9
$UCSNAME
  2

  9
$UCSORG
 10
0.0
 20
0.0
 30
0.0
  9
$UCSXDIR
 10
1.0
 20
0.0
 30
0.0
  9
$UCSYDIR
 10
0.0
 20
1.0
 30
0.0
  9
$UCSORTHOREF
  2

  9
$UCSORTHOVIEW
 70
0
  9
$UCSORGTOP
 10
0.0
 20
0.0
 30
0.0
  9
$UCSORGBOTTOM
 10
0.0
 20
0.0
 30
0.0
  9
$UCSORGLEFT
 10
0.0
 20
0.0
 30
0.0
  9
$UCSORGRIGHT
 10
0.0
 20
0.0
 30
0.0
  9
$UCSORGFRONT
 10
0.0
 20
0.0
 30
0.0
  9
$UCSORGBACK
 10
0.0
 20
0.0
 30
0.0
  9
$PUCSBASE
  2

  9
$PUCSNAME
  2

  9
$PUCSORG
 10
0.0
 20
0.0
 30
0.0
  9
$PUCSXDIR
 10
1.0
 20
0.0
 30
0.0
  9
$PUCSYDIR
 10
0.0
 20
1.0
 30
0.0
  9
$PUCSORTHOREF
  2

  9
$PUCSORTHOVIEW
 70
0
  9
$PUCSORGTOP
 10
0.0
 20
0.0
 30
0.0
  9
$PUCSORGBOTTOM
 10
0.0
 20
0.0
 30
0.0
  9
$PUCSORGLEFT
 10
0.0
 20
0.0
 30
0.0
  9
$PUCSORGRIGHT
 10
0.0
 20
0.0
 30
0.0
  9
$PUCSORGFRONT
 10
0.0
 20
0.0
 30
0.0
  9
$PUCSORGBACK
 10
0.0
 20
0.0
 30
0.0
  9
$USERI1
 70
0
  9
$USERI2
 70
0
  9
$USERI3
 70
0
  9
$USERI4
 70
0
  9
$USERI5
 70
0
  9
$USERR1
 40
0.0
  9
$USERR2
 40
0.0
  9
$USERR3
 40
0.0
  9
$USERR4
 40
0.0
  9
$USERR5
 40
0.0
  9
$WORLDVIEW
 70
1
  9
$SHADEDGE
 70
3
  9
$SHADEDIF
 70
70
  9
$TILEMODE
 70
1
  9
$MAXACTVP
 70
64
  9
$PINSBASE
 10
0.0
 20
0.0
 30
0.0
  9
$PLIMCHECK
 70
0
  9
$PEXTMIN
 10
1e+20
 20
1e+20
 30
1e+20
  9
$PEXTMAX
 10
-1e+20
 20
-1e+20
 30
-1e+20
  9
$PLIMMIN
 10
0.0
 20
0.0
  9
$PLIMMAX
 10
420.0
 20
297.0
  9
$UNITMODE
 70
0
  9
$VISRETAIN
 70
1
  9
$PLINEGEN
 70
0
  9
$PSLTSCALE
 70
1
  9
$TREEDEPTH
 70
3020
  9
$CMLSTYLE
  2
Standard
  9
$CMLJUST
 70
0
  9
$CMLSCALE
 40
20.0
  9
$PROXYGRAPHICS
 70
1
  9
$MEASUREMENT
 70
1
  9
$CELWEIGHT
370
-1
  9
$ENDCAPS
280
0
  9
$JOINSTYLE
280
0
  9
$LWDISPLAY
290
0
  9
$INSUNITS
 70
4
  9
$HYPERLINKBASE
  1

  9
$STYLESHEET
  1

  9
$XEDIT
290
1
  9
$CEPSNTYPE
380
0
  9
$PSTYLEMODE
290
1
  9
$FINGERPRINTGUID
  2
{E27B548E-D571-4BE3-91EB-4539DFF74D9D}
  9
$VERSIONGUID
  2
{AF00CB49-A473-43DB-B786-1C6B42E32DDA}
  9
$EXTNAMES
290
1
  9
$PSVPSCALE
 40
0.0
  9
$OLESTARTUP
290
0
  9
$SORTENTS
280
127
  9
$INDEXCTL
280
0
  9
$HIDETEXT
280
1
  9
$XCLIPFRAME
280
1
  9
$HALOGAP
280
0
  9
$OBSCOLOR
 70
257
  9
$OBSLTYPE
280
0
  9
$INTERSECTIONDISPLAY
280
0
  9
$INTERSECTIONCOLOR
 70
257
  9
$DIMASSOC
280
2
  9
$PROJECTNAME
  1

  9
$CAMERADISPLAY
290
0
  9
$LENSLENGTH
 40
50.0
  9
$CAMERAHEIGHT
 40
0.0
  9
$STEPSPERSEC
 40
24.0
  9
$STEPSIZE
 40
100.0
  9
$3DDWFPREC
 40
2.0
  9
$PSOLWIDTH
 40
0.005
  9
$PSOLHEIGHT
 40
0.08
  9
$LOFTANG1
 40
1.570796326795
  9
$LOFTANG2
 40
1.570796326795
  9
$LOFTMAG1
 40
0.0
  9
$LOFTMAG2
 40
0.0
  9
$LOFTPARAM
 70
7
  9
$LOFTNORMALS
280
1
  9
$LATITUDE
 40
37.795
  9
$LONGITUDE
 40
-122.394
  9
$NORTHDIRECTION
 40
0.0
  9
$TIMEZONE
 70
-8000
  9
$LIGHTGLYPHDISPLAY
280
1
  9
$TILEMODELIGHTSYNCH
280
1
  9
$CMATERIAL
347
20
  9
$SOLIDHIST
280
0
  9
$SHOWHIST
280
1
  9
$DWFFRAME
280
2
  9
$DGNFRAME
280
2
  9
$REALWORLDSCALE
290
1
  9
$INTERFERECOLOR
 62
256
  9
$CSHADOW
280
0
  9
$SHADOWPLANELOCATION
 40
0.0
  0
ENDSEC
  0
SECTION
  2
CLASSES
  0
CLASS
  1
ACDBDICTIONARYWDFLT
  2
AcDbDictionaryWithDefault
  3
ObjectDBX Classes
 90
0
 91
0
280
0
281
0
  0
CLASS
  1
SUN
  2
AcDbSun
  3
SCENEOE
 90
1153
 91
0
280
0
281
0
  0
CLASS
  1
VISUALSTYLE
  2
AcDbVisualStyle
  3
ObjectDBX Classes
 90
4095
 91
0
280
0
281
0
  0
CLASS
  1
MATERIAL
  2
AcDbMaterial
  3
ObjectDBX Classes
 90
1153
 91
0
280
0
281
0
  0
CLASS
  1
SCALE
  2
AcDbScale
  3
ObjectDBX Classes
 90
1153
 91
0
280
0
281
0
  0
CLASS
  1
TABLESTYLE
  2
AcDbTableStyle
  3
ObjectDBX Classes
 90
4095
 91
0
280
0
281
0
  0
CLASS
  1
MLEADERSTYLE
  2
AcDbMLeaderStyle
  3
ACDB_MLEADERSTYLE_CLASS
 90
4095
 91
0
280
0
281
0
  0
CLASS
  1
DICTIONARYVAR
  2
AcDbDictionaryVar
  3
ObjectDBX Classes
 90
0
 91
0
280
0
281
0
  0
CLASS
  1
CELLSTYLEMAP
  2
AcDbCellStyleMap
  3
ObjectDBX Classes
 90
1152
 91
0
280
0
281
0
  0
CLASS
  1
MENTALRAYRENDERSETTINGS
  2
AcDbMentalRayRenderSettings
  3
SCENEOE
 90
1024
 91
0
280
0
281
0
  0
CLASS
  1
ACDBDETAILVIEWSTYLE
  2
AcDbDetailViewStyle
  3
ObjectDBX Classes
 90
1025
 91
0
280
0
281
0
  0
CLASS
  1
ACDBSECTIONVIEWSTYLE
  2
AcDbSectionViewStyle
  3
ObjectDBX Classes
 90
1025
 91
0
280
0
281
0
  0
CLASS
  1
RASTERVARIABLES
  2
AcDbRasterVariables
  3
ISM
 90
0
 91
0
280
0
281
0
  0
CLASS
  1
ACDBPLACEHOLDER
  2
AcDbPlaceHolder
  3
ObjectDBX Classes
 90
0
 91
0
280
0
281
0
  0
CLASS
  1
LAYOUT
  2
AcDbLayout
  3
ObjectDBX Classes
 90
0
 91
0
280
0
281
0
  0
ENDSEC
  0
SECTION
  2
TABLES
  0
TABLE
  2
VPORT
  5
8
330
0
100
AcDbSymbolTable
 70
1
  0
VPORT
  5
23
330
8
100
AcDbSymbolTableRecord
100
AcDbViewportTableRecord
  2
*Active
 70
0
 10
0.0
 20
0.0
 11
1.0
 21
1.0
 12
0.0
 22
0.0
 13
0.0
 23
0.0
 14
0.5
 24
0.5
 15
0.5
 25
0.5
 16
0.0
 26
0.0
 36
1.0
 17
0.0
 27
0.0
 37
0.0
 40
1000.0
 41
1.34
 42
50.0
 43
0.0
 44
0.0
 50
0.0
 51
0.0
 71
0
 72
1000
 73
1
 74
3
 75
0
 76
0
 77
0
 78
0
281
0
 65
0
146
0.0
  0
ENDTAB
  0
TABLE
  2
LTYPE
  5
2
330
0
100
AcDbSymbolTable
 70
4
  0
LTYPE
  5
24
330
2
100
AcDbSymbolTableRecord
100
AcDbLinetypeTableRecord
  2
ByBlock
 70
0
  3

 72
65
 73
0
 40
0.0
  0
LTYPE
  5
25
330
2
100
AcDbSymbolTableRecord
100
AcDbLinetypeTableRecord
  2
ByLayer
 70
0
  3

 72
65
 73
0
 40
0.0
  0
LTYPE
  5
26
330
2
100
AcDbSymbolTableRecord
100
AcDbLinetypeTableRecord
  2
Continuous
 70
0
  3

 72
65
 73
0
 40
0.0
  0
LTYPE
  5
36
330
2
100
AcDbSymbolTableRecord
100
AcDbLinetypeTableRecord
  2
OPTICAL
 70
0
  3

 72
65
 73
5
 40
8.0
 49
-2.0
 74
0
 49
1.0
 74
0
 49
-2.0
 74
0
 49
1.0
 74
0
 49
-2.0
 74
0
  0
ENDTAB
  0
TABLE
  2
LAYER
  5
1
330
0
100
AcDbSymbolTable
 70
9
  0
LAYER
  5
27
330
1
100
AcDbSymbolTableRecord
100
AcDbLayerTableRecord
  2
0
 70
0
 62
7
  6
Continuous
370
-3
390
13
347
21
  0
LAYER
  5
28
330
1
100
AcDbSymbolTableRecord
100
AcDbLayerTableRecord
  2
Defpoints
 70
0
 62
7
  6
Continuous
290
0
370
-3
390
13
347
21
  0
LAYER
  5
2F
330
1
100
AcDbSymbolTableRecord
100
AcDbLayerTableRecord
  2
BORDER
 70
0
 62
7
  6
Continuous
370
25
390
13
347
21
  0
LAYER
  5
30
330
1
100
AcDbSymbolTableRecord
100
AcDbLayerTableRecord
  2
OUTLINE
 70
0
 62
7
  6
Continuous
370
50
390
13
347
21
  0
LAYER
  5
31
330
1
100
AcDbSymbolTableRecord
100
AcDbLayerTableRecord
  2
AXIS
 70
0
 62
8
  6
OPTICAL
370
13
390
13
347
21
  0
LAYER
  5
32
330
1
100
AcDbSymbolTableRecord
100
AcDbLayerTableRecord
  2
CEMENT
 70
0
 62
7
  6
Continuous
370
13
390
13
347
21
  0
LAYER
  5
33
330
1
100
AcDbSymbolTableRecord
100
AcDbLayerTableRecord
  2
DIMS
 70
0
 62
7
  6
Continuous
370
13
390
13
347
21
  0
LAYER
  5
34
330
1
100
AcDbSymbolTableRecord
100
AcDbLayerTableRecord
  2
CALLOUT
 70
0
 62
7
  6
Continuous
370
13
390
13
347
21
  0
LAYER
  5
35
330
1
100
AcDbSymbolTableRecord
100
AcDbLayerTableRecord
  2
TABLE
 70
0
 62
7
  6
Continuous
370
13
390
13
347
21
  0
ENDTAB
  0
TABLE
  2
STYLE
  5
5
330
0
100
AcDbSymbolTable
 70
1
  0
STYLE
  5
29
330
5
100
AcDbSymbolTableRecord
100
AcDbTextStyleTableRecord
  2
Standard
 70
0
 40
0.0
 41
1.0
 50
0.0
 71
0
 42
2.5
  3
txt
  4

  0
ENDTAB
  0
TABLE
  2
VIEW
  5
7
330
0
100
AcDbSymbolTable
 70
0
  0
ENDTAB
  0
TABLE
  2
UCS
  5
6
330
0
100
AcDbSymbolTable
 70
0
  0
ENDTAB
  0
TABLE
  2
APPID
  5
3
330
0
100
AcDbSymbolTable
 70
3
  0
APPID
  5
2A
330
3
100
AcDbSymbolTableRecord
100
AcDbRegAppTableRecord
  2
ACAD
 70
0
  0
APPID
  5
A3
330
3
100
AcDbSymbolTableRecord
100
AcDbRegAppTableRecord
  2
HATCHBACKGROUNDCOLOR
 70
0
  0
APPID
  5
A4
330
3
100
AcDbSymbolTableRecord
100
AcDbRegAppTableRecord
  2
EZDXF
 70
0
  0
ENDTAB
  0
TABLE
  2
DIMSTYLE
  5
4
330
0
100
AcDbSymbolTable
 70
1
100
AcDbDimStyleTable
  0
DIMSTYLE
105
2B
330
4
100
AcDbSymbolTableRecord
100
AcDbDimStyleTableRecord
  2
Standard
 70
0
 40
1.0
 41
2.5
 42
0.625
 43
3.75
 44
1.25
 45
0.0
 46
0.0
 47
0.0
 48
0.0
 49
2.5
140
2.5
141
2.5
142
0.0
143
0.03937007874
144
1.0
145
0.0
146
1.0
147
0.625
148
0.0
 69
0
 70
0
 71
0
 72
0
 73
0
 74
0
 75
0
 76
0
 77
1
 78
8
 79
3
170
0
171
3
172
1
173
0
174
0
175
0
176
0
177
0
178
0
179
2
271
2
272
2
273
2
274
3
275
0
276
0
277
2
278
44
279
0
280
0
281
0
282
0
283
0
284
8
285
0
286
0
288
0
289
3
290
0
371
-2
372
-2
  0
ENDTAB
  0
TABLE
  2
BLOCK_RECORD
  5
9
330
0
100
AcDbSymbolTable
 70
2
  0
BLOCK_RECORD
  5
17
330
9
100
AcDbSymbolTableRecord
100
AcDbBlockTableRecord
  2
*Model_Space
340
1A
 70
0
280
1
281
0
  0
BLOCK_RECORD
  5
1B
330
9
100
AcDbSymbolTableRecord
100
AcDbBlockTableRecord
  2
*Paper_Space
340
1E
 70
0
280
1
281
0
  0
ENDTAB
  0
ENDSEC
  0
SECTION
  2
BLOCKS
  0
BLOCK
  5
18
330
17
100
AcDbEntity
  8
0
100
AcDbBlockBegin
  2
*Model_Space
 70
0
 10
0.0
 20
0.0
 30
0.0
  3
*Model_Space
  1

  0
ENDBLK
  5
19
330
17
100
AcDbEntity
  8
0
100
AcDbBlockEnd
  0
BLOCK
  5
1C
330
1B
100
AcDbEntity
  8
0
100
AcDbBlockBegin
  2
*Paper_Space
 70
0
 10
0.0
 20
0.0
 30
0.0
  3
*Paper_Space
  1

  0
ENDBLK
  5
1D
330
1B
100
AcDbEntity
  8
0
100
AcDbBlockEnd
  0
ENDSEC
  0
SECTION
  2
ENTITIES
  0
LWPOLYLINE
  5
37
330
17
100
AcDbEntity
  8
BORDER
100
AcDbPolyline
 90
4
 70
1
 10
0.0
 20
0.0
 10
210.0
 20
0.0
 10
210.0
 20
297.0
 10
0.0
 20
297.0
  0
LWPOLYLINE
  5
38
330
17
100
AcDbEntity
  8
BORDER
370
50
100
AcDbPolyline
 90
4
 70
1
 10
10.0
 20
10.0
 10
200.0
 20
10.0
 10
200.0
 20
287.0
 10
10.0
 20
287.0
  0
TEXT
  5
39
330
17
100
AcDbEntity
  8
BORDER
100
AcDbText
 10
12.0
 20
113.0
 30
0.0
 40
1.8
  1
Ang. nach ISO 10110; λ = 546.07 nm
100
AcDbText
 73
1
  0
TEXT
  5
3A
330
17
100
AcDbEntity
  8
BORDER
100
AcDbText
 10
12.0
 20
282.0
 30
0.0
 40
2.5
  1
f′ = 18.85 mm
100
AcDbText
 73
3
  0
LWPOLYLINE
  5
3B
330
17
100
AcDbEntity
  8
BORDER
100
AcDbPolyline
 90
4
 70
1
 10
10.0
 20
10.0
 10
200.0
 20
10.0
 10
200.0
 20
38.0
 10
10.0
 20
38.0
  0
LINE
  5
3C
330
17
100
AcDbEntity
  8
BORDER
100
AcDbLine
 10
10.0
 20
23.0
 30
0.0
 11
200.0
 21
23.0
 31
0.0
  0
LINE
  5
3D
330
17
100
AcDbEntity
  8
BORDER
100
AcDbLine
 10
74.60000000000001
 20
23.0
 30
0.0
 11
74.60000000000001
 21
38.0
 31
0.0
  0
LINE
  5
3E
330
17
100
AcDbEntity
  8
BORDER
100
AcDbLine
 10
101.20000000000002
 20
23.0
 30
0.0
 11
101.20000000000002
 21
38.0
 31
0.0
  0
LINE
  5
3F
330
17
100
AcDbEntity
  8
BORDER
100
AcDbLine
 10
127.80000000000001
 20
23.0
 30
0.0
 11
127.80000000000001
 21
38.0
 31
0.0
  0
LINE
  5
40
330
17
100
AcDbEntity
  8
BORDER
100
AcDbLine
 10
154.4
 20
23.0
 30
0.0
 11
154.4
 21
38.0
 31
0.0
  0
LINE
  5
41
330
17
100
AcDbEntity
  8
BORDER
100
AcDbLine
 10
177.20000000000002
 20
23.0
 30
0.0
 11
177.20000000000002
 21
38.0
 31
0.0
  0
LINE
  5
42
330
17
100
AcDbEntity
  8
BORDER
100
AcDbLine
 10
188.60000000000002
 20
23.0
 30
0.0
 11
188.60000000000002
 21
38.0
 31
0.0
  0
TEXT
  5
43
330
17
100
AcDbEntity
  8
BORDER
100
AcDbText
 10
42.300000000000004
 20
26.75
 30
0.0
 40
1.8
  1
ORGANISATION / PROJECT / PART NO.
 72
4
 11
42.300000000000004
 21
26.75
 31
0.0
100
AcDbText
 73
2
  0
TEXT
  5
44
330
17
100
AcDbEntity
  8
BORDER
100
AcDbText
 10
42.300000000000004
 20
33.5
 30
0.0
 40
2.5
  1
5-Element Photographic Objective   OPT-004
 72
4
 11
42.300000000000004
 21
33.5
 31
0.0
100
AcDbText
 73
2
  0
TEXT
  5
45
330
17
100
AcDbEntity
  8
BORDER
100
AcDbText
 10
87.9
 20
26.75
 30
0.0
 40
1.8
  1
DRAWN BY
 72
4
 11
87.9
 21
26.75
 31
0.0
100
AcDbText
 73
2
  0
TEXT
  5
46
330
17
100
AcDbEntity
  8
BORDER
100
AcDbText
 10
87.9
 20
33.5
 30
0.0
 40
2.5
  1
B. Lutzer
 72
4
 11
87.9
 21
33.5
 31
0.0
100
AcDbText
 73
2
  0
TEXT
  5
47
330
17
100
AcDbEntity
  8
BORDER
100
AcDbText
 10
114.50000000000001
 20
26.75
 30
0.0
 40
1.8
  1
APPROVED
 72
4
 11
114.50000000000001
 21
26.75
 31
0.0
100
AcDbText
 73
2
  0
TEXT
  5
48
330
17
100
AcDbEntity
  8
BORDER
100
AcDbText
 10
114.50000000000001
 20
33.5
 30
0.0
 40
2.5
  1
—
 72
4
 11
114.50000000000001
 21
33.5
 31
0.0
100
AcDbText
 73
2
  0
TEXT
  5
49
330
17
100
AcDbEntity
  8
BORDER
100
AcDbText
 10
141.10000000000002
 20
26.75
 30
0.0
 40
1.8
  1
DATE
 72
4
 11
141.10000000000002
 21
26.75
 31
0.0
100
AcDbText
 73
2
  0
TEXT
  5
4A
330
17
100
AcDbEntity
  8
BORDER
100
AcDbText
 10
141.10000000000002
 20
33.5
 30
0.0
 40
2.5
  1
2026-07-16
 72
4
 11
141.10000000000002
 21
33.5
 31
0.0
100
AcDbText
 73
2
  0
TEXT
  5
4B
330
17
100
AcDbEntity
  8
BORDER
100
AcDbText
 10
165.8
 20
26.75
 30
0.0
 40
1.8
  1
SCALE
 72
4
 11
165.8
 21
26.75
 31
0.0
100
AcDbText
 73
2
  0
TEXT
  5
4C
330
17
100
AcDbEntity
  8
BORDER
100
AcDbText
 10
165.8
 20
33.5
 30
0.0
 40
2.5
  1
10:1
 72
4
 11
165.8
 21
33.5
 31
0.0
100
AcDbText
 73
2
  0
TEXT
  5
4D
330
17
100
AcDbEntity
  8
BORDER
100
AcDbText
 10
182.90000000000003
 20
26.75
 30
0.0
 40
1.8
  1
SHEET
 72
4
 11
182.90000000000003
 21
26.75
 31
0.0
100
AcDbText
 73
2
  0
TEXT
  5
4E
330
17
100
AcDbEntity
  8
BORDER
100
AcDbText
 10
182.90000000000003
 20
33.5
 30
0.0
 40
2.5
  1
4 / 5
 72
4
 11
182.90000000000003
 21
33.5
 31
0.0
100
AcDbText
 73
2
  0
TEXT
  5
4F
330
17
100
AcDbEntity
  8
BORDER
100
AcDbText
 10
194.3
 20
26.75
 30
0.0
 40
1.8
  1
REV
 72
4
 11
194.3
 21
26.75
 31
0.0
100
AcDbText
 73
2
  0
TEXT
  5
50
330
17
100
AcDbEntity
  8
BORDER
100
AcDbText
 10
194.3
 20
33.5
 30
0.0
 40
2.5
  1
A
 72
4
 11
194.3
 21
33.5
 31
0.0
100
AcDbText
 73
2
  0
LINE
  5
51
330
17
100
AcDbEntity
  8
BORDER
100
AcDbLine
 10
124.0
 20
10.0
 30
0.0
 11
124.0
 21
23.0
 31
0.0
  0
TEXT
  5
52
330
17
100
AcDbEntity
  8
BORDER
100
AcDbText
 10
12.0
 20
21.5
 30
0.0
 40
1.8
  1
NOTES
100
AcDbText
 73
3
  0
TEXT
  5
53
330
17
100
AcDbEntity
  8
BORDER
100
AcDbText
 10
146.8
 20
21.5
 30
0.0
 40
1.8
  1
DIM. IN mm
 72
4
 11
146.8
 21
21.5
 31
0.0
100
AcDbText
 73
3
  0
TEXT
  5
54
330
17
100
AcDbEntity
  8
BORDER
100
AcDbText
 10
146.8
 20
17.7
 30
0.0
 40
1.8
  1
GENERAL TOL. PER ISO 10110-11
 72
4
 11
146.8
 21
17.7
 31
0.0
100
AcDbText
 73
1
  0
TEXT
  5
55
330
17
100
AcDbEntity
  8
BORDER
100
AcDbText
 10
146.8
 20
15.3
 30
0.0
 40
1.8
  1
Ø±0.10  CT±0.15  3/ 5  4/ 3′  5/ 2×0.063
 72
4
 11
146.8
 21
15.3
 31
0.0
100
AcDbText
 73
3
  0
CIRCLE
  5
56
330
17
100
AcDbEntity
  8
BORDER
100
AcDbCircle
 10
180.61400000000003
 20
16.5
 30
0.0
 40
3.6400000000000006
  0
CIRCLE
  5
57
330
17
100
AcDbEntity
  8
BORDER
100
AcDbCircle
 10
180.61400000000003
 20
16.5
 30
0.0
 40
2.184
  0
LWPOLYLINE
  5
58
330
17
100
AcDbEntity
  8
BORDER
100
AcDbPolyline
 90
4
 70
1
 10
186.074
 20
20.14
 10
192.626
 20
18.684
 10
192.626
 20
14.315999999999999
 10
186.074
 20
12.86
  0
LINE
  5
59
330
17
100
AcDbEntity
  8
AXIS
100
AcDbLine
 10
175.88200000000003
 20
16.5
 30
0.0
 11
194.446
 21
16.5
 31
0.0
  0
LWPOLYLINE
  5
5A
330
17
100
AcDbEntity
  8
TABLE
100
AcDbPolyline
 90
4
 70
1
 10
10.0
 20
38.0
 10
200.0
 20
38.0
 10
200.0
 20
110.0
 10
10.0
 20
110.0
  0
LINE
  5
5B
330
17
100
AcDbEntity
  8
TABLE
100
AcDbLine
 10
73.33333333333334
 20
38.0
 30
0.0
 11
73.33333333333334
 21
110.0
 31
0.0
  0
LINE
  5
5C
330
17
100
AcDbEntity
  8
TABLE
100
AcDbLine
 10
136.66666666666669
 20
38.0
 30
0.0
 11
136.66666666666669
 21
110.0
 31
0.0
  0
LINE
  5
5D
330
17
100
AcDbEntity
  8
TABLE
100
AcDbLine
 10
10.0
 20
103.0
 30
0.0
 11
200.0
 21
103.0
 31
0.0
  0
TEXT
  5
5E
330
17
100
AcDbEntity
  8
TABLE
100
AcDbText
 10
41.66666666666667
 20
106.5
 30
0.0
 40
2.0
  1
SURFACE 1 (FRONT)
 72
4
 11
41.66666666666667
 21
106.5
 31
0.0
100
AcDbText
 73
2
  0
TEXT
  5
5F
330
17
100
AcDbEntity
  8
TABLE
100
AcDbText
 10
12.0
 20
101.0
 30
0.0
 40
2.0
  1
R +28.000 CX
100
AcDbText
 73
3
  0
TEXT
  5
60
330
17
100
AcDbEntity
  8
TABLE
100
AcDbText
 10
12.0
 20
94.5
 30
0.0
 40
2.0
  1
Øₑ 13.18
100
AcDbText
 73
3
  0
TEXT
  5
61
330
17
100
AcDbEntity
  8
TABLE
100
AcDbText
 10
12.0
 20
88.0
 30
0.0
 40
2.0
  1
3/ (0.5); λ=546.1 nm
100
AcDbText
 73
3
  0
TEXT
  5
62
330
17
100
AcDbEntity
  8
TABLE
100
AcDbText
 10
12.0
 20
81.5
 30
0.0
 40
2.0
  1
4/ 0.5′
100
AcDbText
 73
3
  0
TEXT
  5
63
330
17
100
AcDbEntity
  8
TABLE
100
AcDbText
 10
12.0
 20
75.0
 30
0.0
 40
2.0
  1
5/ 2×0.063
100
AcDbText
 73
3
  0
TEXT
  5
64
330
17
100
AcDbEntity
  8
TABLE
100
AcDbText
 10
12.0
 20
68.5
 30
0.0
 40
2.0
  1
6/ —
100
AcDbText
 73
3
  0
TEXT
  5
65
330
17
100
AcDbEntity
  8
TABLE
100
AcDbText
 10
12.0
 20
62.0
 30
0.0
 40
2.0
  1

100
AcDbText
 73
3
  0
TEXT
  5
66
330
17
100
AcDbEntity
  8
TABLE
100
AcDbText
 10
12.0
 20
55.5
 30
0.0
 40
2.0
  1
13/ —
100
AcDbText
 73
3
  0
CIRCLE
  5
67
330
17
100
AcDbEntity
  8
TABLE
100
AcDbCircle
 10
13.5
 20
60.5
 30
0.0
 40
1.5
  0
TEXT
  5
68
330
17
100
AcDbEntity
  8
TABLE
100
AcDbText
 10
13.5
 20
60.5
 30
0.0
 40
2.0999999999999996
  1
λ
 72
4
 11
13.5
 21
60.5
 31
0.0
100
AcDbText
 73
2
  0
TEXT
  5
69
330
17
100
AcDbEntity
  8
TABLE
100
AcDbText
 10
16.0
 20
60.5
 30
0.0
 40
2.0
  1
7/ AR 400-700 nm, R<0.5%
100
AcDbText
 73
2
  0
TEXT
  5
6A
330
17
100
AcDbEntity
  8
TABLE
100
AcDbText
 10
168.33333333333334
 20
106.5
 30
0.0
 40
2.0
  1
SURFACE 2 (REAR)
 72
4
 11
168.33333333333334
 21
106.5
 31
0.0
100
AcDbText
 73
2
  0
TEXT
  5
6B
330
17
100
AcDbEntity
  8
TABLE
100
AcDbText
 10
138.66666666666669
 20
101.0
 30
0.0
 40
2.0
  1
R -80.000 CX
100
AcDbText
 73
3
  0
TEXT
  5
6C
330
17
100
AcDbEntity
  8
TABLE
100
AcDbText
 10
138.66666666666669
 20
94.5
 30
0.0
 40
2.0
  1
Øₑ 12.22
100
AcDbText
 73
3
  0
TEXT
  5
6D
330
17
100
AcDbEntity
  8
TABLE
100
AcDbText
 10
138.66666666666669
 20
88.0
 30
0.0
 40
2.0
  1
3/ (1); λ=546.1 nm
100
AcDbText
 73
3
  0
TEXT
  5
6E
330
17
100
AcDbEntity
  8
TABLE
100
AcDbText
 10
138.66666666666669
 20
81.5
 30
0.0
 40
2.0
  1
4/ 0.5′
100
AcDbText
 73
3
  0
TEXT
  5
6F
330
17
100
AcDbEntity
  8
TABLE
100
AcDbText
 10
138.66666666666669
 20
75.0
 30
0.0
 40
2.0
  1
5/ 2×0.063
100
AcDbText
 73
3
  0
TEXT
  5
70
330
17
100
AcDbEntity
  8
TABLE
100
AcDbText
 10
138.66666666666669
 20
68.5
 30
0.0
 40
2.0
  1
6/ —
100
AcDbText
 73
3
  0
TEXT
  5
71
330
17
100
AcDbEntity
  8
TABLE
100
AcDbText
 10
138.66666666666669
 20
62.0
 30
0.0
 40
2.0
  1

100
AcDbText
 73
3
  0
TEXT
  5
72
330
17
100
AcDbEntity
  8
TABLE
100
AcDbText
 10
138.66666666666669
 20
55.5
 30
0.0
 40
2.0
  1
13/ —
100
AcDbText
 73
3
  0
CIRCLE
  5
73
330
17
100
AcDbEntity
  8
TABLE
100
AcDbCircle
 10
140.16666666666669
 20
60.5
 30
0.0
 40
1.5
  0
TEXT
  5
74
330
17
100
AcDbEntity
  8
TABLE
100
AcDbText
 10
140.16666666666669
 20
60.5
 30
0.0
 40
2.0999999999999996
  1
λ
 72
4
 11
140.16666666666669
 21
60.5
 31
0.0
100
AcDbText
 73
2
  0
TEXT
  5
75
330
17
100
AcDbEntity
  8
TABLE
100
AcDbText
 10
142.66666666666669
 20
60.5
 30
0.0
 40
2.0
  1
7/ AR 400-700 nm, R<0.5%
100
AcDbText
 73
2
  0
TEXT
  5
76
330
17
100
AcDbEntity
  8
TABLE
100
AcDbText
 10
105.0
 20
106.5
 30
0.0
 40
2.0
  1
MATERIAL
 72
4
 11
105.0
 21
106.5
 31
0.0
100
AcDbText
 73
2
  0
TEXT
  5
77
330
17
100
AcDbEntity
  8
TABLE
100
AcDbText
 10
75.33333333333334
 20
101.0
 30
0.0
 40
2.0
  1
N-SSK5
100
AcDbText
 73
3
  0
TEXT
  5
78
330
17
100
AcDbEntity
  8
TABLE
100
AcDbText
 10
75.33333333333334
 20
94.5
 30
0.0
 40
2.0
  1
nd = 1.6584  (587.6 nm)
100
AcDbText
 73
3
  0
TEXT
  5
79
330
17
100
AcDbEntity
  8
TABLE
100
AcDbText
 10
75.33333333333334
 20
88.0
 30
0.0
 40
2.0
  1
νd = 50.88  (587.6 nm)
100
AcDbText
 73
3
  0
TEXT
  5
7A
330
17
100
AcDbEntity
  8
TABLE
100
AcDbText
 10
75.33333333333334
 20
81.5
 30
0.0
 40
2.0
  1
0/ 10 nm/cm
100
AcDbText
 73
3
  0
TEXT
  5
7B
330
17
100
AcDbEntity
  8
TABLE
100
AcDbText
 10
75.33333333333334
 20
75.0
 30
0.0
 40
2.0
  1
1/ 1×0.16
100
AcDbText
 73
3
  0
TEXT
  5
7C
330
17
100
AcDbEntity
  8
TABLE
100
AcDbText
 10
75.33333333333334
 20
68.5
 30
0.0
 40
2.0
  1
2/ NH004; B
100
AcDbText
 73
3
  0
LINE
  5
7D
330
17
100
AcDbEntity
  8
AXIS
100
AcDbLine
 10
65.00012739172263
 20
198.5
 30
0.0
 11
144.99987260827737
 21
198.5
 31
0.0
  0
TEXT
  5
7E
330
17
100
AcDbEntity
  8
AXIS
100
AcDbText
 10
64.00012739172263
 20
198.5
 30
0.0
 40
2.0
  1
opt./rot. axis
 72
2
 11
64.00012739172263
 21
198.5
 31
0.0
100
AcDbText
 73
2
  0
LWPOLYLINE
  5
7F
330
17
100
AcDbEntity
  8
OUTLINE
370
50
100
AcDbPolyline
 90
402
 70
1
 10
87.86655509506897
 20
132.59533076201598
 10
87.7069994057382
 20
133.25768924681984
 10
87.54914741981435
 20
133.9200477316237
 10
87.39299617772878
 20
134.58240621642756
 10
87.23854275854097
 20
135.24476470123142
 10
87.08578427964602
 20
135.90712318603528
 10
86.93471789648714
 20
136.56948167083914
 10
86.78534080227308
 20
137.231840155643
 10
86.6376502276998
 20
137.89419864044686
 10
86.4916434406777
 20
138.55655712525072
 10
86.34731774606269
 20
139.21891561005458
 10
86.204670485392
 20
139.88127409485844
 10
86.06369903662477
 20
140.5436325796623
 10
85.9244008138865
 20
141.20599106446616
 10
85.78677326721856
 20
141.86834954927002
 10
85.65081388233114
 20
142.53070803407388
 10
85.51652018036145
 20
143.19306651887774
 10
85.3838897176351
 20
143.8554250036816
 10
85.25292008543221
 20
144.51778348848546
 10
85.12360890975759
 20
145.18014197328932
 10
84.99595385111445
 20
145.84250045809318
 10
84.86995260428284
 20
146.50485894289704
 10
84.74560289810103
 20
147.1672174277009
 10
84.62290249525188
 20
147.82957591250477
 10
84.50184919205196
 20
148.49193439730863
 10
84.38244081824502
 20
149.1542928821125
 10
84.26467523679923
 20
149.81665136691635
 10
84.14855034370771
 20
150.4790098517202
 10
84.03406406779305
 20
151.14136833652404
 10
83.92121437051514
 20
151.8037268213279
 10
83.80999924578265
 20
152.4660853061318
 10
83.70041671976821
 20
153.12844379093562
 10
83.59246485072651
 20
153.79080227573948
 10
83.48614172881656
 20
154.45316076054334
 10
83.3814454759264
 20
155.1155192453472
 10
83.27837424550222
 20
155.77787773015106
 10
83.17692622237985
 20
156.44023621495492
 10
83.07709962262004
 20
157.10259469975878
 10
82.97889269334667
 20
157.76495318456264
 10
82.88230371258851
 20
158.4273116693665
 10
82.78733098912375
 20
159.08967015417036
 10
82.69397286232783
 20
159.75202863897422
 10
82.60222770202449
 20
160.41438712377808
 10
82.51209390833964
 20
161.07674560858194
 10
82.42356991155827
 20
161.7391040933858
 10
82.33665417198472
 20
162.40146257818967
 10
82.2513451798053
 20
163.06382106299353
 10
82.16764145495449
 20
163.7261795477974
 10
82.08554154698362
 20
164.38853803260122
 10
82.00504403493244
 20
165.05089651740508
 10
81.92614752720402
 20
165.71325500220894
 10
81.84885066144176
 20
166.3756134870128
 10
81.77315210440969
 20
167.03797197181666
 10
81.69905055187564
 20
167.70033045662052
 10
81.62654472849658
 20
168.36268894142438
 10
81.55563338770736
 20
169.02504742622824
 10
81.48631531161163
 20
169.6874059110321
 10
81.41858931087592
 20
170.34976439583596
 10
81.35245422462594
 20
171.01212288063982
 10
81.28790892034579
 20
171.67448136544368
 10
81.22495229377961
 20
172.33683985024754
 10
81.16358326883619
 20
172.9991983350514
 10
81.10380079749558
 20
173.66155681985526
 10
81.04560385971882
 20
174.32391530465912
 10
80.98899146335992
 20
174.98627378946298
 10
80.93396264408034
 20
175.64863227426684
 10
80.88051646526617
 20
176.3109907590707
 10
80.8286520179476
 20
176.97334924387457
 10
80.77836842072105
 20
177.63570772867843
 10
80.72966481967359
 20
178.2980662134823
 10
80.68254038830992
 20
178.96042469828615
 10
80.63699432748183
 20
179.62278318309
 10
80.59302586531959
 20
180.28514166789387
 10
80.55063425716673
 20
180.94750015269773
 10
80.50981878551613
 20
181.6098586375016
 10
80.47057875994926
 20
182.27221712230545
 10
80.43291351707722
 20
182.9345756071093
 10
80.39682242048468
 20
183.59693409191317
 10
80.36230486067564
 20
184.25929257671703
 10
80.32936025502198
 20
184.92165106152086
 10
80.29798804771406
 20
185.58400954632475
 10
80.26818770971335
 20
186.2463680311286
 10
80.23995873870831
 20
186.90872651593244
 10
80.21330065907125
 20
187.5710850007363
 10
80.18821302181885
 20
188.23344348554016
 10
80.16469540457365
 20
188.89580197034402
 10
80.14274741152883
 20
189.55816045514788
 10
80.12236867341471
 20
190.22051893995175
 10
80.10355884746764
 20
190.8828774247556
 10
80.08631761740105
 20
191.54523590955947
 10
80.07064469337911
 20
192.20759439436333
 10
80.05653981199202
 20
192.8699528791672
 10
80.04400273623395
 20
193.53231136397105
 10
80.0330332554833
 20
194.1946698487749
 10
80.02363118548476
 20
194.85702833357877
 10
80.01579636833407
 20
195.51938681838263
 10
80.0095286724644
 20
196.1817453031865
 10
80.00482799263563
 20
196.84410378799035
 10
80.00169424992544
 20
197.5064622727942
 10
80.00012739172263
 20
198.16882075759807
 10
80.00012739172263
 20
198.83117924240193
 10
80.00169424992544
 20
199.4935377272058
 10
80.00482799263563
 20
200.15589621200965
 10
80.0095286724644
 20
200.8182546968135
 10
80.01579636833407
 20
201.48061318161737
 10
80.02363118548476
 20
202.14297166642123
 10
80.0330332554833
 20
202.8053301512251
 10
80.04400273623395
 20
203.46768863602895
 10
80.05653981199202
 20
204.13004712083278
 10
80.07064469337911
 20
204.79240560563665
 10
80.08631761740105
 20
205.45476409044053
 10
80.10355884746764
 20
206.11712257524437
 10
80.12236867341471
 20
206.77948106004823
 10
80.14274741152883
 20
207.4418395448521
 10
80.16469540457365
 20
208.10419802965595
 10
80.18821302181885
 20
208.7665565144598
 10
80.21330065907125
 20
209.42891499926367
 10
80.23995873870831
 20
210.09127348406753
 10
80.26818770971335
 20
210.7536319688714
 10
80.29798804771406
 20
211.41599045367525
 10
80.32936025502198
 20
212.0783489384791
 10
80.36230486067564
 20
212.74070742328297
 10
80.39682242048468
 20
213.40306590808683
 10
80.43291351707722
 20
214.0654243928907
 10
80.47057875994926
 20
214.72778287769455
 10
80.50981878551613
 20
215.3901413624984
 10
80.55063425716673
 20
216.05249984730227
 10
80.59302586531959
 20
216.71485833210613
 10
80.63699432748183
 20
217.37721681691
 10
80.68254038830992
 20
218.03957530171385
 10
80.72966481967359
 20
218.7019337865177
 10
80.77836842072105
 20
219.36429227132157
 10
80.8286520179476
 20
220.02665075612543
 10
80.88051646526617
 20
220.6890092409293
 10
80.93396264408034
 20
221.35136772573316
 10
80.98899146335992
 20
222.013726210537
 10
81.04560385971882
 20
222.67608469534088
 10
81.10380079749558
 20
223.33844318014474
 10
81.16358326883619
 20
224.00080166494857
 10
81.22495229377961
 20
224.66316014975246
 10
81.28790892034579
 20
225.3255186345563
 10
81.35245422462594
 20
225.98787711936015
 10
81.41858931087592
 20
226.65023560416404
 10
81.48631531161163
 20
227.31259408896787
 10
81.55563338770736
 20
227.97495257377176
 10
81.62654472849658
 20
228.6373110585756
 10
81.69905055187564
 20
229.29966954337945
 10
81.77315210440969
 20
229.96202802818334
 10
81.84885066144176
 20
230.62438651298717
 10
81.92614752720402
 20
231.28674499779103
 10
82.00504403493244
 20
231.9491034825949
 10
82.08554154698362
 20
232.61146196739875
 10
82.16764145495449
 20
233.2738204522026
 10
82.2513451798053
 20
233.93617893700647
 10
82.33665417198472
 20
234.59853742181033
 10
82.42356991155827
 20
235.2608959066142
 10
82.51209390833964
 20
235.92325439141806
 10
82.60222770202449
 20
236.58561287622192
 10
82.69397286232783
 20
237.24797136102575
 10
82.78733098912375
 20
237.91032984582964
 10
82.88230371258851
 20
238.5726883306335
 10
82.97889269334667
 20
239.23504681543733
 10
83.07709962262004
 20
239.89740530024122
 10
83.17692622237985
 20
240.55976378504505
 10
83.27837424550222
 20
241.2221222698489
 10
83.3814454759264
 20
241.8844807546528
 10
83.48614172881656
 20
242.54683923945663
 10
83.59246485072651
 20
243.2091977242605
 10
83.70041671976821
 20
243.87155620906435
 10
83.80999924578265
 20
244.5339146938682
 10
83.92121437051514
 20
245.19627317867207
 10
84.03406406779305
 20
245.85863166347593
 10
84.14855034370771
 20
246.5209901482798
 10
84.26467523679923
 20
247.18334863308365
 10
84.38244081824502
 20
247.8457071178875
 10
84.50184919205196
 20
248.50806560269137
 10
84.62290249525188
 20
249.17042408749523
 10
84.74560289810103
 20
249.8327825722991
 10
84.86995260428284
 20
250.49514105710296
 10
84.99595385111445
 20
251.15749954190682
 10
85.12360890975754
 20
251.81985802671068
 10
85.25292008543221
 20
252.48221651151454
 10
85.3838897176351
 20
253.1445749963184
 10
85.51652018036145
 20
253.80693348112226
 10
85.65081388233114
 20
254.46929196592612
 10
85.78677326721856
 20
255.13165045072998
 10
85.9244008138865
 20
255.79400893553384
 10
86.06369903662477
 20
256.4563674203377
 10
86.204670485392
 20
257.11872590514156
 10
86.34731774606269
 20
257.7810843899454
 10
86.4916434406777
 20
258.4434428747493
 10
86.6376502276998
 20
259.10580135955314
 10
86.78534080227308
 20
259.768159844357
 10
86.93471789648714
 20
260.43051832916086
 10
87.08578427964602
 20
261.0928768139647
 10
87.23854275854097
 20
261.7552352987686
 10
87.39299617772872
 20
262.41759378357244
 10
87.54914741981435
 20
263.0799522683763
 10
87.7069994057382
 20
263.74231075318016
 10
87.86655509506897
 20
264.404669237984
 10
127.28066915051119
 20
264.404669237984
 10
127.28066915051119
 20
264.404669237984
 10
127.33514390661423
 20
263.74231075318016
 10
127.38906474733312
 20
263.0799522683763
 10
127.44243178503052
 20
262.41759378357244
 10
127.49524513088511
 20
261.7552352987686
 10
127.54750489489277
 20
261.0928768139647
 10
127.59921118586777
 20
260.43051832916086
 10
127.65036411144388
 20
259.768159844357
 10
127.70096377807545
 20
259.10580135955314
 10
127.75101029103865
 20
258.4434428747493
 10
127.8005037544325
 20
257.7810843899454
 10
127.84944427117989
 20
257.11872590514156
 10
127.89783194302873
 20
256.4563674203377
 10
127.94566687055317
 20
255.79400893553384
 10
127.99294915315437
 20
255.13165045072998
 10
128.03967888906175
 20
254.46929196592612
 10
128.0858561753338
 20
253.80693348112226
 10
128.13148110785926
 20
253.1445749963184
 10
128.17655378135828
 20
252.48221651151454
 10
128.22107428938307
 20
251.81985802671068
 10
128.26504272431907
 20
251.15749954190682
 10
128.3084591773857
 20
250.49514105710296
 10
128.35132373863786
 20
249.8327825722991
 10
128.39363649696622
 20
249.17042408749523
 10
128.4353975400985
 20
248.50806560269137
 10
128.47660695460013
 20
247.8457071178875
 10
128.51726482587566
 20
247.18334863308365
 10
128.55737123816914
 20
246.5209901482798
 10
128.59692627456513
 20
245.85863166347593
 10
128.63593001698968
 20
245.19627317867207
 10
128.67438254621118
 20
244.5339146938682
 10
128.7122839418409
 20
243.87155620906435
 10
128.74963428233423
 20
243.2091977242605
 10
128.7864336449914
 20
242.54683923945663
 10
128.82268210595805
 20
241.8844807546528
 10
128.8583797402261
 20
241.2221222698489
 10
128.8935266216348
 20
240.55976378504505
 10
128.92812282287127
 20
239.89740530024122
 10
128.96216841547107
 20
239.23504681543733
 10
128.99566346981942
 20
238.5726883306335
 10
129.02860805515138
 20
237.91032984582964
 10
129.0610022395532
 20
237.24797136102575
 10
129.0928460899624
 20
236.58561287622192
 10
129.12413967216878
 20
235.92325439141806
 10
129.15488305081522
 20
235.2608959066142
 10
129.185076289398
 20
234.59853742181033
 10
129.21471945026775
 20
233.93617893700647
 10
129.2438125946299
 20
233.2738204522026
 10
129.27235578254567
 20
232.61146196739875
 10
129.30034907293208
 20
231.9491034825949
 10
129.32779252356312
 20
231.28674499779103
 10
129.35468619107013
 20
230.62438651298717
 10
129.38103013094235
 20
229.96202802818334
 10
129.4068243975275
 20
229.29966954337945
 10
129.43206904403246
 20
228.6373110585756
 10
129.45676412252368
 20
227.97495257377176
 10
129.4809096839278
 20
227.31259408896787
 10
129.50450577803213
 20
226.65023560416404
 10
129.52755245348516
 20
225.98787711936015
 10
129.55004975779724
 20
225.3255186345563
 10
129.57199773734078
 20
224.66316014975246
 10
129.5933964373508
 20
224.00080166494857
 10
129.61424590192576
 20
223.33844318014474
 10
129.63454617402726
 20
222.67608469534088
 10
129.65429729548146
 20
222.013726210537
 10
129.67349930697856
 20
221.35136772573316
 10
129.69215224807402
 20
220.6890092409293
 10
129.71025615718833
 20
220.02665075612543
 10
129.72781107160768
 20
219.36429227132157
 10
129.7448170274845
 20
218.7019337865177
 10
129.7612740598376
 20
218.03957530171385
 10
129.77718220255264
 20
217.37721681691
 10
129.79254148838237
 20
216.71485833210613
 10
129.80735194894714
 20
216.05249984730227
 10
129.8216136147351
 20
215.3901413624984
 10
129.8353265151024
 20
214.72778287769455
 10
129.84849067827383
 20
214.0654243928907
 10
129.8611061313428
 20
213.40306590808683
 10
129.87317290027187
 20
212.74070742328297
 10
129.88469100989266
 20
212.0783489384791
 10
129.8956604839065
 20
211.41599045367525
 10
129.90608134488457
 20
210.7536319688714
 10
129.91595361426778
 20
210.09127348406753
 10
129.92527731236743
 20
209.42891499926367
 10
129.93405245836544
 20
208.7665565144598
 10
129.94227907031404
 20
208.10419802965595
 10
129.94995716513654
 20
207.4418395448521
 10
129.95708675862716
 20
206.77948106004823
 10
129.96366786545127
 20
206.11712257524437
 10
129.96970049914546
 20
205.45476409044053
 10
129.97518467211808
 20
204.79240560563665
 10
129.98012039564873
 20
204.13004712083278
 10
129.98450767988885
 20
203.46768863602895
 10
129.98834653386172
 20
202.8053301512251
 10
129.99163696546236
 20
202.14297166642123
 10
129.99437898145794
 20
201.48061318161737
 10
129.99657258748766
 20
200.8182546968135
 10
129.99821778806256
 20
200.15589621200965
 10
129.99931458656624
 20
199.4935377272058
 10
129.99986298525425
 20
198.83117924240193
 10
129.99986298525425
 20
198.16882075759807
 10
129.99931458656624
 20
197.5064622727942
 10
129.99821778806256
 20
196.84410378799035
 10
129.99657258748766
 20
196.1817453031865
 10
129.99437898145794
 20
195.51938681838263
 10
129.99163696546236
 20
194.85702833357877
 10
129.98834653386172
 20
194.1946698487749
 10
129.98450767988885
 20
193.53231136397105
 10
129.98012039564873
 20
192.8699528791672
 10
129.97518467211808
 20
192.20759439436333
 10
129.96970049914546
 20
191.54523590955947
 10
129.96366786545127
 20
190.8828774247556
 10
129.95708675862716
 20
190.22051893995175
 10
129.94995716513654
 20
189.55816045514788
 10
129.94227907031404
 20
188.89580197034402
 10
129.93405245836544
 20
188.23344348554016
 10
129.92527731236743
 20
187.5710850007363
 10
129.91595361426778
 20
186.90872651593244
 10
129.90608134488457
 20
186.2463680311286
 10
129.8956604839065
 20
185.58400954632475
 10
129.88469100989266
 20
184.92165106152086
 10
129.87317290027187
 20
184.25929257671703
 10
129.8611061313428
 20
183.59693409191317
 10
129.84849067827383
 20
182.9345756071093
 10
129.8353265151024
 20
182.27221712230545
 10
129.8216136147351
 20
181.6098586375016
 10
129.80735194894714
 20
180.94750015269773
 10
129.79254148838237
 20
180.28514166789387
 10
129.77718220255264
 20
179.62278318309
 10
129.7612740598376
 20
178.96042469828615
 10
129.7448170274845
 20
178.2980662134823
 10
129.72781107160768
 20
177.63570772867843
 10
129.71025615718833
 20
176.97334924387457
 10
129.69215224807402
 20
176.3109907590707
 10
129.67349930697856
 20
175.64863227426684
 10
129.65429729548146
 20
174.98627378946298
 10
129.63454617402726
 20
174.32391530465912
 10
129.61424590192576
 20
173.66155681985526
 10
129.5933964373508
 20
172.9991983350514
 10
129.57199773734078
 20
172.33683985024754
 10
129.55004975779724
 20
171.67448136544368
 10
129.52755245348516
 20
171.01212288063982
 10
129.50450577803213
 20
170.34976439583596
 10
129.4809096839278
 20
169.6874059110321
 10
129.45676412252368
 20
169.02504742622824
 10
129.43206904403246
 20
168.36268894142438
 10
129.4068243975275
 20
167.70033045662052
 10
129.38103013094235
 20
167.03797197181666
 10
129.35468619107013
 20
166.3756134870128
 10
129.32779252356312
 20
165.71325500220894
 10
129.30034907293208
 20
165.05089651740508
 10
129.27235578254567
 20
164.38853803260122
 10
129.2438125946299
 20
163.7261795477974
 10
129.21471945026775
 20
163.06382106299353
 10
129.185076289398
 20
162.40146257818967
 10
129.15488305081522
 20
161.7391040933858
 10
129.12413967216878
 20
161.07674560858194
 10
129.0928460899624
 20
160.41438712377808
 10
129.0610022395532
 20
159.75202863897422
 10
129.02860805515138
 20
159.08967015417036
 10
128.99566346981942
 20
158.4273116693665
 10
128.96216841547107
 20
157.76495318456264
 10
128.92812282287127
 20
157.10259469975878
 10
128.8935266216348
 20
156.44023621495492
 10
128.8583797402261
 20
155.77787773015106
 10
128.82268210595805
 20
155.1155192453472
 10
128.7864336449914
 20
154.45316076054334
 10
128.74963428233423
 20
153.79080227573948
 10
128.7122839418409
 20
153.12844379093562
 10
128.67438254621118
 20
152.4660853061318
 10
128.63593001698968
 20
151.8037268213279
 10
128.59692627456513
 20
151.14136833652404
 10
128.55737123816914
 20
150.4790098517202
 10
128.51726482587566
 20
149.81665136691635
 10
128.47660695460013
 20
149.1542928821125
 10
128.4353975400985
 20
148.49193439730863
 10
128.39363649696622
 20
147.82957591250477
 10
128.35132373863786
 20
147.1672174277009
 10
128.3084591773857
 20
146.50485894289704
 10
128.26504272431907
 20
145.84250045809318
 10
128.22107428938307
 20
145.18014197328932
 10
128.17655378135828
 20
144.51778348848546
 10
128.13148110785926
 20
143.8554250036816
 10
128.0858561753338
 20
143.19306651887774
 10
128.03967888906175
 20
142.53070803407388
 10
127.99294915315437
 20
141.86834954927002
 10
127.94566687055317
 20
141.20599106446616
 10
127.89783194302873
 20
140.5436325796623
 10
127.84944427117989
 20
139.88127409485844
 10
127.8005037544325
 20
139.21891561005458
 10
127.75101029103865
 20
138.55655712525072
 10
127.70096377807545
 20
137.89419864044686
 10
127.65036411144388
 20
137.231840155643
 10
127.59921118586777
 20
136.56948167083914
 10
127.54750489489277
 20
135.90712318603528
 10
127.49524513088511
 20
135.24476470123142
 10
127.44243178503052
 20
134.58240621642756
 10
127.38906474733312
 20
133.9200477316237
 10
127.33514390661423
 20
133.25768924681984
 10
127.28066915051119
 20
132.59533076201598
 10
87.86655509506897
 20
132.59533076201598
  0
HATCH
  5
80
330
17
100
AcDbEntity
  8
OUTLINE
 62
7
100
AcDbHatch
 10
0.0
 20
0.0
 30
0.0
210
0.0
220
0.0
230
1.0
  2
ANSI31
 70
0
 71
0
 91
1
 92
3
 72
0
 73
1
 93
402
 10
87.86655509506897
 20
132.59533076201598
 10
87.7069994057382
 20
133.25768924681984
 10
87.54914741981435
 20
133.9200477316237
 10
87.39299617772878
 20
134.58240621642756
 10
87.23854275854097
 20
135.24476470123142
 10
87.08578427964602
 20
135.90712318603528
 10
86.93471789648714
 20
136.56948167083914
 10
86.78534080227308
 20
137.231840155643
 10
86.6376502276998
 20
137.89419864044686
 10
86.4916434406777
 20
138.55655712525072
 10
86.34731774606269
 20
139.21891561005458
 10
86.204670485392
 20
139.88127409485844
 10
86.06369903662477
 20
140.5436325796623
 10
85.9244008138865
 20
141.20599106446616
 10
85.78677326721856
 20
141.86834954927002
 10
85.65081388233114
 20
142.53070803407388
 10
85.51652018036145
 20
143.19306651887774
 10
85.3838897176351
 20
143.8554250036816
 10
85.25292008543221
 20
144.51778348848546
 10
85.12360890975759
 20
145.18014197328932
 10
84.99595385111445
 20
145.84250045809318
 10
84.86995260428284
 20
146.50485894289704
 10
84.74560289810103
 20
147.1672174277009
 10
84.62290249525188
 20
147.82957591250477
 10
84.50184919205196
 20
148.49193439730863
 10
84.38244081824502
 20
149.1542928821125
 10
84.26467523679923
 20
149.81665136691635
 10
84.14855034370771
 20
150.4790098517202
 10
84.03406406779305
 20
151.14136833652404
 10
83.92121437051514
 20
151.8037268213279
 10
83.80999924578265
 20
152.4660853061318
 10
83.70041671976821
 20
153.12844379093562
 10
83.59246485072651
 20
153.79080227573948
 10
83.48614172881656
 20
154.45316076054334
 10
83.3814454759264
 20
155.1155192453472
 10
83.27837424550222
 20
155.77787773015106
 10
83.17692622237985
 20
156.44023621495492
 10
83.07709962262004
 20
157.10259469975878
 10
82.97889269334667
 20
157.76495318456264
 10
82.88230371258851
 20
158.4273116693665
 10
82.78733098912375
 20
159.08967015417036
 10
82.69397286232783
 20
159.75202863897422
 10
82.60222770202449
 20
160.41438712377808
 10
82.51209390833964
 20
161.07674560858194
 10
82.42356991155827
 20
161.7391040933858
 10
82.33665417198472
 20
162.40146257818967
 10
82.2513451798053
 20
163.06382106299353
 10
82.16764145495449
 20
163.7261795477974
 10
82.08554154698362
 20
164.38853803260122
 10
82.00504403493244
 20
165.05089651740508
 10
81.92614752720402
 20
165.71325500220894
 10
81.84885066144176
 20
166.3756134870128
 10
81.77315210440969
 20
167.03797197181666
 10
81.69905055187564
 20
167.70033045662052
 10
81.62654472849658
 20
168.36268894142438
 10
81.55563338770736
 20
169.02504742622824
 10
81.48631531161163
 20
169.6874059110321
 10
81.41858931087592
 20
170.34976439583596
 10
81.35245422462594
 20
171.01212288063982
 10
81.28790892034579
 20
171.67448136544368
 10
81.22495229377961
 20
172.33683985024754
 10
81.16358326883619
 20
172.9991983350514
 10
81.10380079749558
 20
173.66155681985526
 10
81.04560385971882
 20
174.32391530465912
 10
80.98899146335992
 20
174.98627378946298
 10
80.93396264408034
 20
175.64863227426684
 10
80.88051646526617
 20
176.3109907590707
 10
80.8286520179476
 20
176.97334924387457
 10
80.77836842072105
 20
177.63570772867843
 10
80.72966481967359
 20
178.2980662134823
 10
80.68254038830992
 20
178.96042469828615
 10
80.63699432748183
 20
179.62278318309
 10
80.59302586531959
 20
180.28514166789387
 10
80.55063425716673
 20
180.94750015269773
 10
80.50981878551613
 20
181.6098586375016
 10
80.47057875994926
 20
182.27221712230545
 10
80.43291351707722
 20
182.9345756071093
 10
80.39682242048468
 20
183.59693409191317
 10
80.36230486067564
 20
184.25929257671703
 10
80.32936025502198
 20
184.92165106152086
 10
80.29798804771406
 20
185.58400954632475
 10
80.26818770971335
 20
186.2463680311286
 10
80.23995873870831
 20
186.90872651593244
 10
80.21330065907125
 20
187.5710850007363
 10
80.18821302181885
 20
188.23344348554016
 10
80.16469540457365
 20
188.89580197034402
 10
80.14274741152883
 20
189.55816045514788
 10
80.12236867341471
 20
190.22051893995175
 10
80.10355884746764
 20
190.8828774247556
 10
80.08631761740105
 20
191.54523590955947
 10
80.07064469337911
 20
192.20759439436333
 10
80.05653981199202
 20
192.8699528791672
 10
80.04400273623395
 20
193.53231136397105
 10
80.0330332554833
 20
194.1946698487749
 10
80.02363118548476
 20
194.85702833357877
 10
80.01579636833407
 20
195.51938681838263
 10
80.0095286724644
 20
196.1817453031865
 10
80.00482799263563
 20
196.84410378799035
 10
80.00169424992544
 20
197.5064622727942
 10
80.00012739172263
 20
198.16882075759807
 10
80.00012739172263
 20
198.83117924240193
 10
80.00169424992544
 20
199.4935377272058
 10
80.00482799263563
 20
200.15589621200965
 10
80.0095286724644
 20
200.8182546968135
 10
80.01579636833407
 20
201.48061318161737
 10
80.02363118548476
 20
202.14297166642123
 10
80.0330332554833
 20
202.8053301512251
 10
80.04400273623395
 20
203.46768863602895
 10
80.05653981199202
 20
204.13004712083278
 10
80.07064469337911
 20
204.79240560563665
 10
80.08631761740105
 20
205.45476409044053
 10
80.10355884746764
 20
206.11712257524437
 10
80.12236867341471
 20
206.77948106004823
 10
80.14274741152883
 20
207.4418395448521
 10
80.16469540457365
 20
208.10419802965595
 10
80.18821302181885
 20
208.7665565144598
 10
80.21330065907125
 20
209.42891499926367
 10
80.23995873870831
 20
210.09127348406753
 10
80.26818770971335
 20
210.7536319688714
 10
80.29798804771406
 20
211.41599045367525
 10
80.32936025502198
 20
212.0783489384791
 10
80.36230486067564
 20
212.74070742328297
 10
80.39682242048468
 20
213.40306590808683
 10
80.43291351707722
 20
214.0654243928907
 10
80.47057875994926
 20
214.72778287769455
 10
80.50981878551613
 20
215.3901413624984
 10
80.55063425716673
 20
216.05249984730227
 10
80.59302586531959
 20
216.71485833210613
 10
80.63699432748183
 20
217.37721681691
 10
80.68254038830992
 20
218.03957530171385
 10
80.72966481967359
 20
218.7019337865177
 10
80.77836842072105
 20
219.36429227132157
 10
80.8286520179476
 20
220.02665075612543
 10
80.88051646526617
 20
220.6890092409293
 10
80.93396264408034
 20
221.35136772573316
 10
80.98899146335992
 20
222.013726210537
 10
81.04560385971882
 20
222.67608469534088
 10
81.10380079749558
 20
223.33844318014474
 10
81.16358326883619
 20
224.00080166494857
 10
81.22495229377961
 20
224.66316014975246
 10
81.28790892034579
 20
225.3255186345563
 10
81.35245422462594
 20
225.98787711936015
 10
81.41858931087592
 20
226.65023560416404
 10
81.48631531161163
 20
227.31259408896787
 10
81.55563338770736
 20
227.97495257377176
 10
81.62654472849658
 20
228.6373110585756
 10
81.69905055187564
 20
229.29966954337945
 10
81.77315210440969
 20
229.96202802818334
 10
81.84885066144176
 20
230.62438651298717
 10
81.92614752720402
 20
231.28674499779103
 10
82.00504403493244
 20
231.9491034825949
 10
82.08554154698362
 20
232.61146196739875
 10
82.16764145495449
 20
233.2738204522026
 10
82.2513451798053
 20
233.93617893700647
 10
82.33665417198472
 20
234.59853742181033
 10
82.42356991155827
 20
235.2608959066142
 10
82.51209390833964
 20
235.92325439141806
 10
82.60222770202449
 20
236.58561287622192
 10
82.69397286232783
 20
237.24797136102575
 10
82.78733098912375
 20
237.91032984582964
 10
82.88230371258851
 20
238.5726883306335
 10
82.97889269334667
 20
239.23504681543733
 10
83.07709962262004
 20
239.89740530024122
 10
83.17692622237985
 20
240.55976378504505
 10
83.27837424550222
 20
241.2221222698489
 10
83.3814454759264
 20
241.8844807546528
 10
83.48614172881656
 20
242.54683923945663
 10
83.59246485072651
 20
243.2091977242605
 10
83.70041671976821
 20
243.87155620906435
 10
83.80999924578265
 20
244.5339146938682
 10
83.92121437051514
 20
245.19627317867207
 10
84.03406406779305
 20
245.85863166347593
 10
84.14855034370771
 20
246.5209901482798
 10
84.26467523679923
 20
247.18334863308365
 10
84.38244081824502
 20
247.8457071178875
 10
84.50184919205196
 20
248.50806560269137
 10
84.62290249525188
 20
249.17042408749523
 10
84.74560289810103
 20
249.8327825722991
 10
84.86995260428284
 20
250.49514105710296
 10
84.99595385111445
 20
251.15749954190682
 10
85.12360890975754
 20
251.81985802671068
 10
85.25292008543221
 20
252.48221651151454
 10
85.3838897176351
 20
253.1445749963184
 10
85.51652018036145
 20
253.80693348112226
 10
85.65081388233114
 20
254.46929196592612
 10
85.78677326721856
 20
255.13165045072998
 10
85.9244008138865
 20
255.79400893553384
 10
86.06369903662477
 20
256.4563674203377
 10
86.204670485392
 20
257.11872590514156
 10
86.34731774606269
 20
257.7810843899454
 10
86.4916434406777
 20
258.4434428747493
 10
86.6376502276998
 20
259.10580135955314
 10
86.78534080227308
 20
259.768159844357
 10
86.93471789648714
 20
260.43051832916086
 10
87.08578427964602
 20
261.0928768139647
 10
87.23854275854097
 20
261.7552352987686
 10
87.39299617772872
 20
262.41759378357244
 10
87.54914741981435
 20
263.0799522683763
 10
87.7069994057382
 20
263.74231075318016
 10
87.86655509506897
 20
264.404669237984
 10
127.28066915051119
 20
264.404669237984
 10
127.28066915051119
 20
264.404669237984
 10
127.33514390661423
 20
263.74231075318016
 10
127.38906474733312
 20
263.0799522683763
 10
127.44243178503052
 20
262.41759378357244
 10
127.49524513088511
 20
261.7552352987686
 10
127.54750489489277
 20
261.0928768139647
 10
127.59921118586777
 20
260.43051832916086
 10
127.65036411144388
 20
259.768159844357
 10
127.70096377807545
 20
259.10580135955314
 10
127.75101029103865
 20
258.4434428747493
 10
127.8005037544325
 20
257.7810843899454
 10
127.84944427117989
 20
257.11872590514156
 10
127.89783194302873
 20
256.4563674203377
 10
127.94566687055317
 20
255.79400893553384
 10
127.99294915315437
 20
255.13165045072998
 10
128.03967888906175
 20
254.46929196592612
 10
128.0858561753338
 20
253.80693348112226
 10
128.13148110785926
 20
253.1445749963184
 10
128.17655378135828
 20
252.48221651151454
 10
128.22107428938307
 20
251.81985802671068
 10
128.26504272431907
 20
251.15749954190682
 10
128.3084591773857
 20
250.49514105710296
 10
128.35132373863786
 20
249.8327825722991
 10
128.39363649696622
 20
249.17042408749523
 10
128.4353975400985
 20
248.50806560269137
 10
128.47660695460013
 20
247.8457071178875
 10
128.51726482587566
 20
247.18334863308365
 10
128.55737123816914
 20
246.5209901482798
 10
128.59692627456513
 20
245.85863166347593
 10
128.63593001698968
 20
245.19627317867207
 10
128.67438254621118
 20
244.5339146938682
 10
128.7122839418409
 20
243.87155620906435
 10
128.74963428233423
 20
243.2091977242605
 10
128.7864336449914
 20
242.54683923945663
 10
128.82268210595805
 20
241.8844807546528
 10
128.8583797402261
 20
241.2221222698489
 10
128.8935266216348
 20
240.55976378504505
 10
128.92812282287127
 20
239.89740530024122
 10
128.96216841547107
 20
239.23504681543733
 10
128.99566346981942
 20
238.5726883306335
 10
129.02860805515138
 20
237.91032984582964
 10
129.0610022395532
 20
237.24797136102575
 10
129.0928460899624
 20
236.58561287622192
 10
129.12413967216878
 20
235.92325439141806
 10
129.15488305081522
 20
235.2608959066142
 10
129.185076289398
 20
234.59853742181033
 10
129.21471945026775
 20
233.93617893700647
 10
129.2438125946299
 20
233.2738204522026
 10
129.27235578254567
 20
232.61146196739875
 10
129.30034907293208
 20
231.9491034825949
 10
129.32779252356312
 20
231.28674499779103
 10
129.35468619107013
 20
230.62438651298717
 10
129.38103013094235
 20
229.96202802818334
 10
129.4068243975275
 20
229.29966954337945
 10
129.43206904403246
 20
228.6373110585756
 10
129.45676412252368
 20
227.97495257377176
 10
129.4809096839278
 20
227.31259408896787
 10
129.50450577803213
 20
226.65023560416404
 10
129.52755245348516
 20
225.98787711936015
 10
129.55004975779724
 20
225.3255186345563
 10
129.57199773734078
 20
224.66316014975246
 10
129.5933964373508
 20
224.00080166494857
 10
129.61424590192576
 20
223.33844318014474
 10
129.63454617402726
 20
222.67608469534088
 10
129.65429729548146
 20
222.013726210537
 10
129.67349930697856
 20
221.35136772573316
 10
129.69215224807402
 20
220.6890092409293
 10
129.71025615718833
 20
220.02665075612543
 10
129.72781107160768
 20
219.36429227132157
 10
129.7448170274845
 20
218.7019337865177
 10
129.7612740598376
 20
218.03957530171385
 10
129.77718220255264
 20
217.37721681691
 10
129.79254148838237
 20
216.71485833210613
 10
129.80735194894714
 20
216.05249984730227
 10
129.8216136147351
 20
215.3901413624984
 10
129.8353265151024
 20
214.72778287769455
 10
129.84849067827383
 20
214.0654243928907
 10
129.8611061313428
 20
213.40306590808683
 10
129.87317290027187
 20
212.74070742328297
 10
129.88469100989266
 20
212.0783489384791
 10
129.8956604839065
 20
211.41599045367525
 10
129.90608134488457
 20
210.7536319688714
 10
129.91595361426778
 20
210.09127348406753
 10
129.92527731236743
 20
209.42891499926367
 10
129.93405245836544
 20
208.7665565144598
 10
129.94227907031404
 20
208.10419802965595
 10
129.94995716513654
 20
207.4418395448521
 10
129.95708675862716
 20
206.77948106004823
 10
129.96366786545127
 20
206.11712257524437
 10
129.96970049914546
 20
205.45476409044053
 10
129.97518467211808
 20
204.79240560563665
 10
129.98012039564873
 20
204.13004712083278
 10
129.98450767988885
 20
203.46768863602895
 10
129.98834653386172
 20
202.8053301512251
 10
129.99163696546236
 20
202.14297166642123
 10
129.99437898145794
 20
201.48061318161737
 10
129.99657258748766
 20
200.8182546968135
 10
129.99821778806256
 20
200.15589621200965
 10
129.99931458656624
 20
199.4935377272058
 10
129.99986298525425
 20
198.83117924240193
 10
129.99986298525425
 20
198.16882075759807
 10
129.99931458656624
 20
197.5064622727942
 10
129.99821778806256
 20
196.84410378799035
 10
129.99657258748766
 20
196.1817453031865
 10
129.99437898145794
 20
195.51938681838263
 10
129.99163696546236
 20
194.85702833357877
 10
129.98834653386172
 20
194.1946698487749
 10
129.98450767988885
 20
193.53231136397105
 10
129.98012039564873
 20
192.8699528791672
 10
129.97518467211808
 20
192.20759439436333
 10
129.96970049914546
 20
191.54523590955947
 10
129.96366786545127
 20
190.8828774247556
 10
129.95708675862716
 20
190.22051893995175
 10
129.94995716513654
 20
189.55816045514788
 10
129.94227907031404
 20
188.89580197034402
 10
129.93405245836544
 20
188.23344348554016
 10
129.92527731236743
 20
187.5710850007363
 10
129.91595361426778
 20
186.90872651593244
 10
129.90608134488457
 20
186.2463680311286
 10
129.8956604839065
 20
185.58400954632475
 10
129.88469100989266
 20
184.92165106152086
 10
129.87317290027187
 20
184.25929257671703
 10
129.8611061313428
 20
183.59693409191317
 10
129.84849067827383
 20
182.9345756071093
 10
129.8353265151024
 20
182.27221712230545
 10
129.8216136147351
 20
181.6098586375016
 10
129.80735194894714
 20
180.94750015269773
 10
129.79254148838237
 20
180.28514166789387
 10
129.77718220255264
 20
179.62278318309
 10
129.7612740598376
 20
178.96042469828615
 10
129.7448170274845
 20
178.2980662134823
 10
129.72781107160768
 20
177.63570772867843
 10
129.71025615718833
 20
176.97334924387457
 10
129.69215224807402
 20
176.3109907590707
 10
129.67349930697856
 20
175.64863227426684
 10
129.65429729548146
 20
174.98627378946298
 10
129.63454617402726
 20
174.32391530465912
 10
129.61424590192576
 20
173.66155681985526
 10
129.5933964373508
 20
172.9991983350514
 10
129.57199773734078
 20
172.33683985024754
 10
129.55004975779724
 20
171.67448136544368
 10
129.52755245348516
 20
171.01212288063982
 10
129.50450577803213
 20
170.34976439583596
 10
129.4809096839278
 20
169.6874059110321
 10
129.45676412252368
 20
169.02504742622824
 10
129.43206904403246
 20
168.36268894142438
 10
129.4068243975275
 20
167.70033045662052
 10
129.38103013094235
 20
167.03797197181666
 10
129.35468619107013
 20
166.3756134870128
 10
129.32779252356312
 20
165.71325500220894
 10
129.30034907293208
 20
165.05089651740508
 10
129.27235578254567
 20
164.38853803260122
 10
129.2438125946299
 20
163.7261795477974
 10
129.21471945026775
 20
163.06382106299353
 10
129.185076289398
 20
162.40146257818967
 10
129.15488305081522
 20
161.7391040933858
 10
129.12413967216878
 20
161.07674560858194
 10
129.0928460899624
 20
160.41438712377808
 10
129.0610022395532
 20
159.75202863897422
 10
129.02860805515138
 20
159.08967015417036
 10
128.99566346981942
 20
158.4273116693665
 10
128.96216841547107
 20
157.76495318456264
 10
128.92812282287127
 20
157.10259469975878
 10
128.8935266216348
 20
156.44023621495492
 10
128.8583797402261
 20
155.77787773015106
 10
128.82268210595805
 20
155.1155192453472
 10
128.7864336449914
 20
154.45316076054334
 10
128.74963428233423
 20
153.79080227573948
 10
128.7122839418409
 20
153.12844379093562
 10
128.67438254621118
 20
152.4660853061318
 10
128.63593001698968
 20
151.8037268213279
 10
128.59692627456513
 20
151.14136833652404
 10
128.55737123816914
 20
150.4790098517202
 10
128.51726482587566
 20
149.81665136691635
 10
128.47660695460013
 20
149.1542928821125
 10
128.4353975400985
 20
148.49193439730863
 10
128.39363649696622
 20
147.82957591250477
 10
128.35132373863786
 20
147.1672174277009
 10
128.3084591773857
 20
146.50485894289704
 10
128.26504272431907
 20
145.84250045809318
 10
128.22107428938307
 20
145.18014197328932
 10
128.17655378135828
 20
144.51778348848546
 10
128.13148110785926
 20
143.8554250036816
 10
128.0858561753338
 20
143.19306651887774
 10
128.03967888906175
 20
142.53070803407388
 10
127.99294915315437
 20
141.86834954927002
 10
127.94566687055317
 20
141.20599106446616
 10
127.89783194302873
 20
140.5436325796623
 10
127.84944427117989
 20
139.88127409485844
 10
127.8005037544325
 20
139.21891561005458
 10
127.75101029103865
 20
138.55655712525072
 10
127.70096377807545
 20
137.89419864044686
 10
127.65036411144388
 20
137.231840155643
 10
127.59921118586777
 20
136.56948167083914
 10
127.54750489489277
 20
135.90712318603528
 10
127.49524513088511
 20
135.24476470123142
 10
127.44243178503052
 20
134.58240621642756
 10
127.38906474733312
 20
133.9200477316237
 10
127.33514390661423
 20
133.25768924681984
 10
127.28066915051119
 20
132.59533076201598
 10
87.86655509506897
 20
132.59533076201598
 97
0
 75
1
 76
1
 52
0.0
 41
1.0
 77
0
 78
1
 53
45.0
 43
0.0
 44
0.0
 45
-2.2450640303
 46
2.2450640303
 79
0
 98
0
  0
LINE
  5
81
330
17
100
AcDbEntity
  8
DIMS
100
AcDbLine
 10
79.99993153506375
 20
131.09533076201598
 30
0.0
 11
79.99993153506375
 21
124.59533076201599
 31
0.0
  0
LINE
  5
82
330
17
100
AcDbEntity
  8
DIMS
100
AcDbLine
 10
129.99993153506375
 20
131.09533076201598
 30
0.0
 11
129.99993153506375
 21
124.59533076201599
 31
0.0
  0
LINE
  5
83
330
17
100
AcDbEntity
  8
DIMS
100
AcDbLine
 10
79.99993153506375
 20
124.59533076201599
 30
0.0
 11
129.99993153506375
 21
124.59533076201599
 31
0.0
  0
SOLID
  5
84
330
17
100
AcDbEntity
  8
DIMS
100
AcDbTrace
 10
79.99993153506375
 20
124.59533076201599
 30
0.0
 11
82.49993153506375
 21
123.795330762016
 31
0.0
 12
82.49993153506375
 22
125.39533076201599
 32
0.0
 13
82.49993153506375
 23
125.39533076201599
 33
0.0
  0
SOLID
  5
85
330
17
100
AcDbEntity
  8
DIMS
100
AcDbTrace
 10
129.99993153506375
 20
124.59533076201599
 30
0.0
 11
127.49993153506375
 21
125.39533076201599
 31
0.0
 12
127.49993153506375
 22
123.795330762016
 32
0.0
 13
127.49993153506375
 23
123.795330762016
 33
0.0
  0
TEXT
  5
86
330
17
100
AcDbEntity
  8
DIMS
100
AcDbText
 10
104.99993153506375
 20
120.59533076201599
 30
0.0
 40
2.5
  1
5.00
 72
4
 11
104.99993153506375
 21
120.59533076201599
 31
0.0
100
AcDbText
 73
3
  0
LINE
  5
87
330
17
100
AcDbEntity
  8
DIMS
100
AcDbLine
 10
127.28066915051119
 20
264.404669237984
 30
0.0
 11
141.99987260827737
 21
264.404669237984
 31
0.0
  0
LINE
  5
88
330
17
100
AcDbEntity
  8
DIMS
100
AcDbLine
 10
87.86655509506897
 20
132.59533076201598
 30
0.0
 11
141.99987260827737
 21
132.59533076201598
 31
0.0
  0
LINE
  5
89
330
17
100
AcDbEntity
  8
DIMS
100
AcDbLine
 10
139.99987260827737
 20
264.404669237984
 30
0.0
 11
139.99987260827737
 21
132.59533076201598
 31
0.0
  0
SOLID
  5
8A
330
17
100
AcDbEntity
  8
DIMS
100
AcDbTrace
 10
139.99987260827737
 20
264.404669237984
 30
0.0
 11
139.19987260827736
 21
261.904669237984
 31
0.0
 12
140.79987260827738
 22
261.904669237984
 32
0.0
 13
140.79987260827738
 23
261.904669237984
 33
0.0
  0
SOLID
  5
8B
330
17
100
AcDbEntity
  8
DIMS
100
AcDbTrace
 10
139.99987260827737
 20
132.59533076201598
 30
0.0
 11
140.79987260827738
 21
135.09533076201598
 31
0.0
 12
139.19987260827736
 22
135.09533076201598
 32
0.0
 13
139.19987260827736
 23
135.09533076201598
 33
0.0
  0
TEXT
  5
8C
330
17
100
AcDbEntity
  8
DIMS
100
AcDbText
 10
142.99987260827737
 20
198.5
 30
0.0
 40
2.5
  1
Ø 13.18
100
AcDbText
 73
2
  0
LINE
  5
8D
330
17
100
AcDbEntity
  8
DIMS
100
AcDbLine
 10
87.86655509506897
 20
265.904669237984
 30
0.0
 11
87.86655509506897
 21
272.404669237984
 31
0.0
  0
LINE
  5
8E
330
17
100
AcDbEntity
  8
DIMS
100
AcDbLine
 10
127.28066915051119
 20
265.904669237984
 30
0.0
 11
127.28066915051119
 21
272.404669237984
 31
0.0
  0
LINE
  5
8F
330
17
100
AcDbEntity
  8
DIMS
100
AcDbLine
 10
87.86655509506897
 20
272.404669237984
 30
0.0
 11
127.28066915051119
 21
272.404669237984
 31
0.0
  0
SOLID
  5
90
330
17
100
AcDbEntity
  8
DIMS
100
AcDbTrace
 10
87.86655509506897
 20
272.404669237984
 30
0.0
 11
90.36655509506897
 21
271.604669237984
 31
0.0
 12
90.36655509506897
 22
273.20466923798404
 32
0.0
 13
90.36655509506897
 23
273.20466923798404
 33
0.0
  0
SOLID
  5
91
330
17
100
AcDbEntity
  8
DIMS
100
AcDbTrace
 10
127.28066915051119
 20
272.404669237984
 30
0.0
 11
124.78066915051119
 21
273.20466923798404
 31
0.0
 12
124.78066915051119
 22
271.604669237984
 32
0.0
 13
124.78066915051119
 23
271.604669237984
 33
0.0
  0
TEXT
  5
92
330
17
100
AcDbEntity
  8
DIMS
100
AcDbText
 10
107.57361212279008
 20
274.404669237984
 30
0.0
 40
2.5
  1
(3.94)
 72
4
 11
107.57361212279008
 21
274.404669237984
 31
0.0
100
AcDbText
 73
1
  0
LINE
  5
93
330
17
100
AcDbEntity
  8
DIMS
100
AcDbLine
 10
87.86655509506897
 20
264.404669237984
 30
0.0
 11
84.86655509506897
 21
264.404669237984
 31
0.0
  0
LINE
  5
94
330
17
100
AcDbEntity
  8
DIMS
100
AcDbLine
 10
87.86655509506897
 20
132.59533076201598
 30
0.0
 11
84.86655509506897
 21
132.59533076201598
 31
0.0
  0
LINE
  5
95
330
17
100
AcDbEntity
  8
DIMS
100
AcDbLine
 10
84.86655509506897
 20
132.59533076201598
 30
0.0
 11
84.86655509506897
 21
264.404669237984
 31
0.0
  0
TEXT
  5
96
330
17
100
AcDbEntity
  8
DIMS
100
AcDbText
 10
83.86655509506897
 20
198.5
 30
0.0
 40
2.0
  1
Øₑ 13.18
 72
2
 11
83.86655509506897
 21
198.5
 31
0.0
100
AcDbText
 73
2
  0
LINE
  5
97
330
17
100
AcDbEntity
  8
DIMS
100
AcDbLine
 10
127.66295855289587
 20
259.6039714646215
 30
0.0
 11
130.66295855289587
 21
259.6039714646215
 31
0.0
  0
LINE
  5
98
330
17
100
AcDbEntity
  8
DIMS
100
AcDbLine
 10
127.66295855289587
 20
137.39602853537852
 30
0.0
 11
130.66295855289587
 21
137.39602853537852
 31
0.0
  0
LINE
  5
99
330
17
100
AcDbEntity
  8
DIMS
100
AcDbLine
 10
130.66295855289587
 20
137.39602853537852
 30
0.0
 11
130.66295855289587
 21
259.6039714646215
 31
0.0
  0
TEXT
  5
9A
330
17
100
AcDbEntity
  8
DIMS
100
AcDbText
 10
131.66295855289587
 20
198.5
 30
0.0
 40
2.0
  1
Øₑ 12.22
 11
131.66295855289587
 21
198.5
 31
0.0
100
AcDbText
 73
2
  0
LWPOLYLINE
  5
9B
330
17
100
AcDbEntity
  8
CALLOUT
100
AcDbPolyline
 90
3
 70
1
 10
85.66095302722107
 20
254.5189688522864
 10
81.46006818316667
 20
253.11670790467602
 10
82.34611684236175
 20
257.45591101840677
  0
LINE
  5
9C
330
17
100
AcDbEntity
  8
CALLOUT
100
AcDbLine
 10
85.66095302722107
 20
254.5189688522864
 30
0.0
 11
78.99063333899167
 21
260.41123039106554
 31
0.0
  0
LINE
  5
9D
330
17
100
AcDbEntity
  8
CALLOUT
100
AcDbLine
 10
79.00883361422699
 20
260.35475548715004
 30
0.0
 11
79.55434734425302
 21
263.02627341265776
 31
0.0
  0
TEXT
  5
9E
330
17
100
AcDbEntity
  8
CALLOUT
100
AcDbText
 10
79.85444896310455
 20
264.4959465118069
 30
0.0
 40
2.0
  1
S1
 72
4
 11
79.85444896310455
 21
264.4959465118069
 31
0.0
100
AcDbText
 73
2
  0
LWPOLYLINE
  5
9F
330
17
100
AcDbEntity
  8
CALLOUT
100
AcDbPolyline
 90
3
 70
1
 10
128.85217241377404
 20
241.33803500468963
 10
132.56350004326754
 20
243.75460622539828
 10
132.80064836087564
 20
239.3322169883311
  0
LINE
  5
A0
330
17
100
AcDbEntity
  8
CALLOUT
100
AcDbLine
 10
128.85217241377404
 20
241.33803500468963
 30
0.0
 11
136.7930927938791
 21
237.3188691333441
 31
0.0
  0
LINE
  5
A1
330
17
100
AcDbEntity
  8
CALLOUT
100
AcDbLine
 10
136.76123550879282
 20
237.3689268817737
 30
0.0
 11
136.90724065418215
 21
234.6461937414392
 31
0.0
  0
TEXT
  5
A2
330
17
100
AcDbEntity
  8
CALLOUT
100
AcDbText
 10
136.98756196981594
 20
233.14834578979162
 30
0.0
 40
2.0
  1
S2
 72
4
 11
136.98756196981594
 21
233.14834578979162
 31
0.0
100
AcDbText
 73
2
  0
ENDSEC
  0
SECTION
  2
OBJECTS
  0
DICTIONARY
  5
A
330
0
100
AcDbDictionary
281
1
  3
ACAD_COLOR
350
B
  3
ACAD_GROUP
350
C
  3
ACAD_LAYOUT
350
D
  3
ACAD_MATERIAL
350
E
  3
ACAD_MLEADERSTYLE
350
F
  3
ACAD_MLINESTYLE
350
10
  3
ACAD_PLOTSETTINGS
350
11
  3
ACAD_PLOTSTYLENAME
350
12
  3
ACAD_SCALELIST
350
14
  3
ACAD_TABLESTYLE
350
15
  3
ACAD_VISUALSTYLE
350
16
  3
EZDXF_META
350
2D
  0
DICTIONARY
  5
B
330
A
100
AcDbDictionary
281
1
  0
DICTIONARY
  5
C
330
A
100
AcDbDictionary
281
1
  0
DICTIONARY
  5
D
330
A
100
AcDbDictionary
281
1
  3
Model
350
1A
  3
Layout1
350
1E
  0
DICTIONARY
  5
E
330
A
100
AcDbDictionary
281
1
  3
ByBlock
350
1F
  3
ByLayer
350
20
  3
Global
350
21
  0
DICTIONARY
  5
F
330
A
100
AcDbDictionary
281
1
  3
Standard
350
2C
  0
DICTIONARY
  5
10
330
A
100
AcDbDictionary
281
1
  3
Standard
350
22
  0
DICTIONARY
  5
11
330
A
100
AcDbDictionary
281
1
  0
ACDBDICTIONARYWDFLT
  5
12
330
A
100
AcDbDictionary
281
1
  3
Normal
350
13
100
AcDbDictionaryWithDefault
340
13
  0
ACDBPLACEHOLDER
  5
13
330
12
  0
DICTIONARY
  5
14
330
A
100
AcDbDictionary
281
1
  0
DICTIONARY
  5
15
330
A
100
AcDbDictionary
281
1
  0
DICTIONARY
  5
16
330
A
100
AcDbDictionary
281
1
  0
LAYOUT
  5
1A
330
D
100
AcDbPlotSettings
  1

  4
A3
  6

 40
7.5
 41
20.0
 42
7.5
 43
20.0
 44
420.0
 45
297.0
 46
0.0
 47
0.0
 48
0.0
 49
0.0
140
0.0
141
0.0
142
1.0
143
1.0
 70
1024
 72
1
 73
0
 74
5
  7

 75
16
 76
0
 77
2
 78
300
147
1.0
148
0.0
149
0.0
100
AcDbLayout
  1
Model
 70
1
 71
0
 10
0.0
 20
0.0
 11
420.0
 21
297.0
 12
0.0
 22
0.0
 32
0.0
 14
1e+20
 24
1e+20
 34
1e+20
 15
-1e+20
 25
-1e+20
 35
-1e+20
146
0.0
 13
0.0
 23
0.0
 33
0.0
 16
1.0
 26
0.0
 36
0.0
 17
0.0
 27
1.0
 37
0.0
 76
1
330
17
  0
LAYOUT
  5
1E
330
D
100
AcDbPlotSettings
  1

  4
A3
  6

 40
7.5
 41
20.0
 42
7.5
 43
20.0
 44
420.0
 45
297.0
 46
0.0
 47
0.0
 48
0.0
 49
0.0
140
0.0
141
0.0
142
1.0
143
1.0
 70
0
 72
1
 73
0
 74
5
  7

 75
16
 76
0
 77
2
 78
300
147
1.0
148
0.0
149
0.0
100
AcDbLayout
  1
Layout1
 70
1
 71
1
 10
0.0
 20
0.0
 11
420.0
 21
297.0
 12
0.0
 22
0.0
 32
0.0
 14
1e+20
 24
1e+20
 34
1e+20
 15
-1e+20
 25
-1e+20
 35
-1e+20
146
0.0
 13
0.0
 23
0.0
 33
0.0
 16
1.0
 26
0.0
 36
0.0
 17
0.0
 27
1.0
 37
0.0
 76
1
330
1B
  0
MATERIAL
  5
1F
102
{ACAD_REACTORS
330
E
102
}
330
E
100
AcDbMaterial
  1
ByBlock
  2

 70
0
 40
1.0
 71
1
 41
1.0
 91
-1023410177
 42
1.0
 72
1
  3

 73
1
 74
1
 75
1
 44
0.5
 73
0
 45
1.0
 46
1.0
 77
1
  4

 78
1
 79
1
170
1
 48
1.0
171
1
  6

172
1
173
1
174
1
140
1.0
141
1.0
175
1
  7

176
1
177
1
178
1
143
1.0
179
1
  8

270
1
271
1
272
1
145
1.0
146
1.0
273
1
  9

274
1
275
1
276
1
 42
1.0
 72
1
  3

 73
1
 74
1
 75
1
 94
63
  0
MATERIAL
  5
20
102
{ACAD_REACTORS
330
E
102
}
330
E
100
AcDbMaterial
  1
ByLayer
  2

 70
0
 40
1.0
 71
1
 41
1.0
 91
-1023410177
 42
1.0
 72
1
  3

 73
1
 74
1
 75
1
 44
0.5
 73
0
 45
1.0
 46
1.0
 77
1
  4

 78
1
 79
1
170
1
 48
1.0
171
1
  6

172
1
173
1
174
1
140
1.0
141
1.0
175
1
  7

176
1
177
1
178
1
143
1.0
179
1
  8

270
1
271
1
272
1
145
1.0
146
1.0
273
1
  9

274
1
275
1
276
1
 42
1.0
 72
1
  3

 73
1
 74
1
 75
1
 94
63
  0
MATERIAL
  5
21
102
{ACAD_REACTORS
330
E
102
}
330
E
100
AcDbMaterial
  1
Global
  2

 70
0
 40
1.0
 71
1
 41
1.0
 91
-1023410177
 42
1.0
 72
1
  3

 73
1
 74
1
 75
1
 44
0.5
 73
0
 45
1.0
 46
1.0
 77
1
  4

 78
1
 79
1
170
1
 48
1.0
171
1
  6

172
1
173
1
174
1
140
1.0
141
1.0
175
1
  7

176
1
177
1
178
1
143
1.0
179
1
  8

270
1
271
1
272
1
145
1.0
146
1.0
273
1
  9

274
1
275
1
276
1
 42
1.0
 72
1
  3

 73
1
 74
1
 75
1
 94
63
  0
MLINESTYLE
  5
22
102
{ACAD_REACTORS
330
10
102
}
330
10
100
AcDbMlineStyle
  2
Standard
 70
0
  3

 62
256
 51
90.0
 52
90.0
 71
2
 49
0.5
 62
256
  6
BYLAYER
 49
-0.5
 62
256
  6
BYLAYER
  0
MLEADERSTYLE
  5
2C
102
{ACAD_REACTORS
330
F
102
}
330
F
100
AcDbMLeaderStyle
179
2
170
2
171
1
172
0
 90
2
 40
0.0
 41
0.0
173
1
 91
-1056964608
 92
-2
290
1
 42
2.0
291
1
 43
8.0
  3
Standard
 44
4.0
300

342
29
174
1
175
1
176
0
178
1
 93
-1056964608
 45
4.0
292
0
297
0
 46
4.0
 94
-1056964608
 47
1.0
 49
1.0
140
1.0
294
1
141
0.0
177
0
142
1.0
295
0
296
0
143
3.75
271
0
272
9
273
9
  0
DICTIONARY
  5
2D
330
A
100
AcDbDictionary
280
1
281
1
  3
CREATED_BY_EZDXF
350
2E
  3
WRITTEN_BY_EZDXF
350
A5
  0
DICTIONARYVAR
  5
2E
330
2D
100
DictionaryVariables
280
0
  1
1.4.3 @ 2026-07-16T08:03:01.295244+00:00
  0
DICTIONARYVAR
  5
A5
330
2D
100
DictionaryVariables
280
0
  1
1.4.3 @ 2026-07-16T08:03:01.341792+00:00
  0
ENDSEC
  0
EOF
