  0
SECTION
  2
HEADER
  9
$ACADVER
  1
AC1024
  9
$ACADMAINTVER
 70
6
  9
$DWGCODEPAGE
  3
ANSI_1252
  9
$LASTSAVEDBY
  1
ezdxf
  9
$INSBASE
 10
0.0
 20
0.0
 30
0.0
  9
$EXTMIN
 10
0.0
 20
0.0
 30
0.0
  9
$EXTMAX
 10
210.0
 20
297.0
 30
0.0
  9
$LIMMIN
 10
0.0
 20
0.0
  9
$LIMMAX
 10
420.0
 20
297.0
  9
$ORTHOMODE
 70
0
  9
$REGENMODE
 70
1
  9
$FILLMODE
 70
1
  9
$QTEXTMODE
 70
0
  9
$MIRRTEXT
 70
1
  9
$LTSCALE
 40
1.0
  9
$ATTMODE
 70
1
  9
$TEXTSIZE
 40
2.5
  9
$TRACEWID
 40
1.0
  9
$TEXTSTYLE
  7
Standard
  9
$CLAYER
  8
0
  9
$CELTYPE
  6
ByLayer
  9
$CECOLOR
 62
256
  9
$CELTSCALE
 40
1.0
  9
$DISPSILH
 70
0
  9
$DIMSCALE
 40
1.0
  9
$DIMASZ
 40
2.5
  9
$DIMEXO
 40
0.625
  9
$DIMDLI
 40
3.75
  9
$DIMRND
 40
0.0
  9
$DIMDLE
 40
0.0
  9
$DIMEXE
 40
1.25
  9
$DIMTP
 40
0.0
  9
$DIMTM
 40
0.0
  9
$DIMTXT
 40
2.5
  9
$DIMCEN
 40
2.5
  9
$DIMTSZ
 40
0.0
  9
$DIMTOL
 70
0
  9
$DIMLIM
 70
0
  9
$DIMTIH
 70
0
  9
$DIMTOH
 70
0
  9
$DIMSE1
 70
0
  9
$DIMSE2
 70
0
  9
$DIMTAD
 70
1
  9
$DIMZIN
 70
8
  9
$DIMBLK
  1

  9
$DIMASO
 70
1
  9
$DIMSHO
 70
1
  9
$DIMPOST
  1

  9
$DIMAPOST
  1

  9
$DIMALT
 70
0
  9
$DIMALTD
 70
3
  9
$DIMALTF
 40
0.03937007874
  9
$DIMLFAC
 40
1.0
  9
$DIMTOFL
 70
1
  9
$DIMTVP
 40
0.0
  9
$DIMTIX
 70
0
  9
$DIMSOXD
 70
0
  9
$DIMSAH
 70
0
  9
$DIMBLK1
  1

  9
$DIMBLK2
  1

  9
$DIMSTYLE
  2
ISO-25
  9
$DIMCLRD
 70
0
  9
$DIMCLRE
 70
0
  9
$DIMCLRT
 70
0
  9
$DIMTFAC
 40
1.0
  9
$DIMGAP
 40
0.625
  9
$DIMJUST
 70
0
  9
$DIMSD1
 70
0
  9
$DIMSD2
 70
0
  9
$DIMTOLJ
 70
0
  9
$DIMTZIN
 70
8
  9
$DIMALTZ
 70
0
  9
$DIMALTTZ
 70
0
  9
$DIMUPT
 70
0
  9
$DIMDEC
 70
2
  9
$DIMTDEC
 70
2
  9
$DIMALTU
 70
2
  9
$DIMALTTD
 70
3
  9
$DIMTXSTY
  7
Standard
  9
$DIMAUNIT
 70
0
  9
$DIMADEC
 70
0
  9
$DIMALTRND
 40
0.0
  9
$DIMAZIN
 70
0
  9
$DIMDSEP
 70
44
  9
$DIMATFIT
 70
3
  9
$DIMFRAC
 70
0
  9
$DIMLDRBLK
  1

  9
$DIMLUNIT
 70
2
  9
$DIMLWD
 70
-2
  9
$DIMLWE
 70
-2
  9
$DIMTMOVE
 70
0
  9
$DIMFXL
 40
1.0
  9
$DIMFXLON
 70
0
  9
$DIMJOGANG
 40
0.785398163397
  9
$DIMTFILL
 70
0
  9
$DIMTFILLCLR
 70
0
  9
$DIMARCSYM
 70
0
  9
$DIMLTYPE
  6

  9
$DIMLTEX1
  6

  9
$DIMLTEX2
  6

  9
$DIMTXTDIRECTION
 70
0
  9
$LUNITS
 70
2
  9
$LUPREC
 70
4
  9
$SKETCHINC
 40
1.0
  9
$FILLETRAD
 40
10.0
  9
$AUNITS
 70
0
  9
$AUPREC
 70
2
  9
$MENU
  1
.
  9
$ELEVATION
 40
0.0
  9
$PELEVATION
 40
0.0
  9
$THICKNESS
 40
0.0
  9
$LIMCHECK
 70
0
  9
$CHAMFERA
 40
0.0
  9
$CHAMFERB
 40
0.0
  9
$CHAMFERC
 40
0.0
  9
$CHAMFERD
 40
0.0
  9
$SKPOLY
 70
0
  9
$TDCREATE
 40
2461238.3354282407
  9
$TDUCREATE
 40
2458532.153996898
  9
$TDUPDATE
 40
2461238.3354282407
  9
$TDUUPDATE
 40
2458532.1544311
  9
$TDINDWG
 40
0.0
  9
$TDUSRTIMER
 40
0.0
  9
$USRTIMER
 70
1
  9
$ANGBASE
 50
0.0
  9
$ANGDIR
 70
0
  9
$PDMODE
 70
0
  9
$PDSIZE
 40
0.0
  9
$PLINEWID
 40
0.0
  9
$SPLFRAME
 70
0
  9
$SPLINETYPE
 70
6
  9
$SPLINESEGS
 70
8
  9
$HANDSEED
  5
CC
  9
$SURFTAB1
 70
6
  9
$SURFTAB2
 70
6
  9
$SURFTYPE
 70
6
  9
$SURFU
 70
6
  9
$SURFV
 70
6
  9
$UCSBASE
  2

  9
$UCSNAME
  2

  9
$UCSORG
 10
0.0
 20
0.0
 30
0.0
  9
$UCSXDIR
 10
1.0
 20
0.0
 30
0.0
  9
$UCSYDIR
 10
0.0
 20
1.0
 30
0.0
  9
$UCSORTHOREF
  2

  9
$UCSORTHOVIEW
 70
0
  9
$UCSORGTOP
 10
0.0
 20
0.0
 30
0.0
  9
$UCSORGBOTTOM
 10
0.0
 20
0.0
 30
0.0
  9
$UCSORGLEFT
 10
0.0
 20
0.0
 30
0.0
  9
$UCSORGRIGHT
 10
0.0
 20
0.0
 30
0.0
  9
$UCSORGFRONT
 10
0.0
 20
0.0
 30
0.0
  9
$UCSORGBACK
 10
0.0
 20
0.0
 30
0.0
  9
$PUCSBASE
  2

  9
$PUCSNAME
  2

  9
$PUCSORG
 10
0.0
 20
0.0
 30
0.0
  9
$PUCSXDIR
 10
1.0
 20
0.0
 30
0.0
  9
$PUCSYDIR
 10
0.0
 20
1.0
 30
0.0
  9
$PUCSORTHOREF
  2

  9
$PUCSORTHOVIEW
 70
0
  9
$PUCSORGTOP
 10
0.0
 20
0.0
 30
0.0
  9
$PUCSORGBOTTOM
 10
0.0
 20
0.0
 30
0.0
  9
$PUCSORGLEFT
 10
0.0
 20
0.0
 30
0.0
  9
$PUCSORGRIGHT
 10
0.0
 20
0.0
 30
0.0
  9
$PUCSORGFRONT
 10
0.0
 20
0.0
 30
0.0
  9
$PUCSORGBACK
 10
0.0
 20
0.0
 30
0.0
  9
$USERI1
 70
0
  9
$USERI2
 70
0
  9
$USERI3
 70
0
  9
$USERI4
 70
0
  9
$USERI5
 70
0
  9
$USERR1
 40
0.0
  9
$USERR2
 40
0.0
  9
$USERR3
 40
0.0
  9
$USERR4
 40
0.0
  9
$USERR5
 40
0.0
  9
$WORLDVIEW
 70
1
  9
$SHADEDGE
 70
3
  9
$SHADEDIF
 70
70
  9
$TILEMODE
 70
1
  9
$MAXACTVP
 70
64
  9
$PINSBASE
 10
0.0
 20
0.0
 30
0.0
  9
$PLIMCHECK
 70
0
  9
$PEXTMIN
 10
1e+20
 20
1e+20
 30
1e+20
  9
$PEXTMAX
 10
-1e+20
 20
-1e+20
 30
-1e+20
  9
$PLIMMIN
 10
0.0
 20
0.0
  9
$PLIMMAX
 10
420.0
 20
297.0
  9
$UNITMODE
 70
0
  9
$VISRETAIN
 70
1
  9
$PLINEGEN
 70
0
  9
$PSLTSCALE
 70
1
  9
$TREEDEPTH
 70
3020
  9
$CMLSTYLE
  2
Standard
  9
$CMLJUST
 70
0
  9
$CMLSCALE
 40
20.0
  9
$PROXYGRAPHICS
 70
1
  9
$MEASUREMENT
 70
1
  9
$CELWEIGHT
370
-1
  9
$ENDCAPS
280
0
  9
$JOINSTYLE
280
0
  9
$LWDISPLAY
290
0
  9
$INSUNITS
 70
4
  9
$HYPERLINKBASE
  1

  9
$STYLESHEET
  1

  9
$XEDIT
290
1
  9
$CEPSNTYPE
380
0
  9
$PSTYLEMODE
290
1
  9
$FINGERPRINTGUID
  2
{59094E03-288F-4FF3-8699-C5EB8471175C}
  9
$VERSIONGUID
  2
{50AE1A44-7540-4641-8BEF-B3125D3E4217}
  9
$EXTNAMES
290
1
  9
$PSVPSCALE
 40
0.0
  9
$OLESTARTUP
290
0
  9
$SORTENTS
280
127
  9
$INDEXCTL
280
0
  9
$HIDETEXT
280
1
  9
$XCLIPFRAME
280
1
  9
$HALOGAP
280
0
  9
$OBSCOLOR
 70
257
  9
$OBSLTYPE
280
0
  9
$INTERSECTIONDISPLAY
280
0
  9
$INTERSECTIONCOLOR
 70
257
  9
$DIMASSOC
280
2
  9
$PROJECTNAME
  1

  9
$CAMERADISPLAY
290
0
  9
$LENSLENGTH
 40
50.0
  9
$CAMERAHEIGHT
 40
0.0
  9
$STEPSPERSEC
 40
24.0
  9
$STEPSIZE
 40
100.0
  9
$3DDWFPREC
 40
2.0
  9
$PSOLWIDTH
 40
0.005
  9
$PSOLHEIGHT
 40
0.08
  9
$LOFTANG1
 40
1.570796326795
  9
$LOFTANG2
 40
1.570796326795
  9
$LOFTMAG1
 40
0.0
  9
$LOFTMAG2
 40
0.0
  9
$LOFTPARAM
 70
7
  9
$LOFTNORMALS
280
1
  9
$LATITUDE
 40
37.795
  9
$LONGITUDE
 40
-122.394
  9
$NORTHDIRECTION
 40
0.0
  9
$TIMEZONE
 70
-8000
  9
$LIGHTGLYPHDISPLAY
280
1
  9
$TILEMODELIGHTSYNCH
280
1
  9
$CMATERIAL
347
20
  9
$SOLIDHIST
280
0
  9
$SHOWHIST
280
1
  9
$DWFFRAME
280
2
  9
$DGNFRAME
280
2
  9
$REALWORLDSCALE
290
1
  9
$INTERFERECOLOR
 62
256
  9
$CSHADOW
280
0
  9
$SHADOWPLANELOCATION
 40
0.0
  0
ENDSEC
  0
SECTION
  2
CLASSES
  0
CLASS
  1
ACDBDICTIONARYWDFLT
  2
AcDbDictionaryWithDefault
  3
ObjectDBX Classes
 90
0
 91
0
280
0
281
0
  0
CLASS
  1
SUN
  2
AcDbSun
  3
SCENEOE
 90
1153
 91
0
280
0
281
0
  0
CLASS
  1
VISUALSTYLE
  2
AcDbVisualStyle
  3
ObjectDBX Classes
 90
4095
 91
0
280
0
281
0
  0
CLASS
  1
MATERIAL
  2
AcDbMaterial
  3
ObjectDBX Classes
 90
1153
 91
0
280
0
281
0
  0
CLASS
  1
SCALE
  2
AcDbScale
  3
ObjectDBX Classes
 90
1153
 91
0
280
0
281
0
  0
CLASS
  1
TABLESTYLE
  2
AcDbTableStyle
  3
ObjectDBX Classes
 90
4095
 91
0
280
0
281
0
  0
CLASS
  1
MLEADERSTYLE
  2
AcDbMLeaderStyle
  3
ACDB_MLEADERSTYLE_CLASS
 90
4095
 91
0
280
0
281
0
  0
CLASS
  1
DICTIONARYVAR
  2
AcDbDictionaryVar
  3
ObjectDBX Classes
 90
0
 91
0
280
0
281
0
  0
CLASS
  1
CELLSTYLEMAP
  2
AcDbCellStyleMap
  3
ObjectDBX Classes
 90
1152
 91
0
280
0
281
0
  0
CLASS
  1
MENTALRAYRENDERSETTINGS
  2
AcDbMentalRayRenderSettings
  3
SCENEOE
 90
1024
 91
0
280
0
281
0
  0
CLASS
  1
ACDBDETAILVIEWSTYLE
  2
AcDbDetailViewStyle
  3
ObjectDBX Classes
 90
1025
 91
0
280
0
281
0
  0
CLASS
  1
ACDBSECTIONVIEWSTYLE
  2
AcDbSectionViewStyle
  3
ObjectDBX Classes
 90
1025
 91
0
280
0
281
0
  0
CLASS
  1
RASTERVARIABLES
  2
AcDbRasterVariables
  3
ISM
 90
0
 91
0
280
0
281
0
  0
CLASS
  1
ACDBPLACEHOLDER
  2
AcDbPlaceHolder
  3
ObjectDBX Classes
 90
0
 91
0
280
0
281
0
  0
CLASS
  1
LAYOUT
  2
AcDbLayout
  3
ObjectDBX Classes
 90
0
 91
0
280
0
281
0
  0
ENDSEC
  0
SECTION
  2
TABLES
  0
TABLE
  2
VPORT
  5
8
330
0
100
AcDbSymbolTable
 70
1
  0
VPORT
  5
23
330
8
100
AcDbSymbolTableRecord
100
AcDbViewportTableRecord
  2
*Active
 70
0
 10
0.0
 20
0.0
 11
1.0
 21
1.0
 12
0.0
 22
0.0
 13
0.0
 23
0.0
 14
0.5
 24
0.5
 15
0.5
 25
0.5
 16
0.0
 26
0.0
 36
1.0
 17
0.0
 27
0.0
 37
0.0
 40
1000.0
 41
1.34
 42
50.0
 43
0.0
 44
0.0
 50
0.0
 51
0.0
 71
0
 72
1000
 73
1
 74
3
 75
0
 76
0
 77
0
 78
0
281
0
 65
0
146
0.0
  0
ENDTAB
  0
TABLE
  2
LTYPE
  5
2
330
0
100
AcDbSymbolTable
 70
4
  0
LTYPE
  5
24
330
2
100
AcDbSymbolTableRecord
100
AcDbLinetypeTableRecord
  2
ByBlock
 70
0
  3

 72
65
 73
0
 40
0.0
  0
LTYPE
  5
25
330
2
100
AcDbSymbolTableRecord
100
AcDbLinetypeTableRecord
  2
ByLayer
 70
0
  3

 72
65
 73
0
 40
0.0
  0
LTYPE
  5
26
330
2
100
AcDbSymbolTableRecord
100
AcDbLinetypeTableRecord
  2
Continuous
 70
0
  3

 72
65
 73
0
 40
0.0
  0
LTYPE
  5
36
330
2
100
AcDbSymbolTableRecord
100
AcDbLinetypeTableRecord
  2
OPTICAL
 70
0
  3

 72
65
 73
5
 40
8.0
 49
-2.0
 74
0
 49
1.0
 74
0
 49
-2.0
 74
0
 49
1.0
 74
0
 49
-2.0
 74
0
  0
ENDTAB
  0
TABLE
  2
LAYER
  5
1
330
0
100
AcDbSymbolTable
 70
9
  0
LAYER
  5
27
330
1
100
AcDbSymbolTableRecord
100
AcDbLayerTableRecord
  2
0
 70
0
 62
7
  6
Continuous
370
-3
390
13
347
21
  0
LAYER
  5
28
330
1
100
AcDbSymbolTableRecord
100
AcDbLayerTableRecord
  2
Defpoints
 70
0
 62
7
  6
Continuous
290
0
370
-3
390
13
347
21
  0
LAYER
  5
2F
330
1
100
AcDbSymbolTableRecord
100
AcDbLayerTableRecord
  2
BORDER
 70
0
 62
7
  6
Continuous
370
25
390
13
347
21
  0
LAYER
  5
30
330
1
100
AcDbSymbolTableRecord
100
AcDbLayerTableRecord
  2
OUTLINE
 70
0
 62
7
  6
Continuous
370
50
390
13
347
21
  0
LAYER
  5
31
330
1
100
AcDbSymbolTableRecord
100
AcDbLayerTableRecord
  2
AXIS
 70
0
 62
8
  6
OPTICAL
370
13
390
13
347
21
  0
LAYER
  5
32
330
1
100
AcDbSymbolTableRecord
100
AcDbLayerTableRecord
  2
CEMENT
 70
0
 62
7
  6
Continuous
370
13
390
13
347
21
  0
LAYER
  5
33
330
1
100
AcDbSymbolTableRecord
100
AcDbLayerTableRecord
  2
DIMS
 70
0
 62
7
  6
Continuous
370
13
390
13
347
21
  0
LAYER
  5
34
330
1
100
AcDbSymbolTableRecord
100
AcDbLayerTableRecord
  2
CALLOUT
 70
0
 62
7
  6
Continuous
370
13
390
13
347
21
  0
LAYER
  5
35
330
1
100
AcDbSymbolTableRecord
100
AcDbLayerTableRecord
  2
TABLE
 70
0
 62
7
  6
Continuous
370
13
390
13
347
21
  0
ENDTAB
  0
TABLE
  2
STYLE
  5
5
330
0
100
AcDbSymbolTable
 70
1
  0
STYLE
  5
29
330
5
100
AcDbSymbolTableRecord
100
AcDbTextStyleTableRecord
  2
Standard
 70
0
 40
0.0
 41
1.0
 50
0.0
 71
0
 42
2.5
  3
txt
  4

  0
ENDTAB
  0
TABLE
  2
VIEW
  5
7
330
0
100
AcDbSymbolTable
 70
0
  0
ENDTAB
  0
TABLE
  2
UCS
  5
6
330
0
100
AcDbSymbolTable
 70
0
  0
ENDTAB
  0
TABLE
  2
APPID
  5
3
330
0
100
AcDbSymbolTable
 70
3
  0
APPID
  5
2A
330
3
100
AcDbSymbolTableRecord
100
AcDbRegAppTableRecord
  2
ACAD
 70
0
  0
APPID
  5
C9
330
3
100
AcDbSymbolTableRecord
100
AcDbRegAppTableRecord
  2
HATCHBACKGROUNDCOLOR
 70
0
  0
APPID
  5
CA
330
3
100
AcDbSymbolTableRecord
100
AcDbRegAppTableRecord
  2
EZDXF
 70
0
  0
ENDTAB
  0
TABLE
  2
DIMSTYLE
  5
4
330
0
100
AcDbSymbolTable
 70
1
100
AcDbDimStyleTable
  0
DIMSTYLE
105
2B
330
4
100
AcDbSymbolTableRecord
100
AcDbDimStyleTableRecord
  2
Standard
 70
0
 40
1.0
 41
2.5
 42
0.625
 43
3.75
 44
1.25
 45
0.0
 46
0.0
 47
0.0
 48
0.0
 49
2.5
140
2.5
141
2.5
142
0.0
143
0.03937007874
144
1.0
145
0.0
146
1.0
147
0.625
148
0.0
 69
0
 70
0
 71
0
 72
0
 73
0
 74
0
 75
0
 76
0
 77
1
 78
8
 79
3
170
0
171
3
172
1
173
0
174
0
175
0
176
0
177
0
178
0
179
2
271
2
272
2
273
2
274
3
275
0
276
0
277
2
278
44
279
0
280
0
281
0
282
0
283
0
284
8
285
0
286
0
288
0
289
3
290
0
371
-2
372
-2
  0
ENDTAB
  0
TABLE
  2
BLOCK_RECORD
  5
9
330
0
100
AcDbSymbolTable
 70
2
  0
BLOCK_RECORD
  5
17
330
9
100
AcDbSymbolTableRecord
100
AcDbBlockTableRecord
  2
*Model_Space
340
1A
 70
0
280
1
281
0
  0
BLOCK_RECORD
  5
1B
330
9
100
AcDbSymbolTableRecord
100
AcDbBlockTableRecord
  2
*Paper_Space
340
1E
 70
0
280
1
281
0
  0
ENDTAB
  0
ENDSEC
  0
SECTION
  2
BLOCKS
  0
BLOCK
  5
18
330
17
100
AcDbEntity
  8
0
100
AcDbBlockBegin
  2
*Model_Space
 70
0
 10
0.0
 20
0.0
 30
0.0
  3
*Model_Space
  1

  0
ENDBLK
  5
19
330
17
100
AcDbEntity
  8
0
100
AcDbBlockEnd
  0
BLOCK
  5
1C
330
1B
100
AcDbEntity
  8
0
100
AcDbBlockBegin
  2
*Paper_Space
 70
0
 10
0.0
 20
0.0
 30
0.0
  3
*Paper_Space
  1

  0
ENDBLK
  5
1D
330
1B
100
AcDbEntity
  8
0
100
AcDbBlockEnd
  0
ENDSEC
  0
SECTION
  2
ENTITIES
  0
LWPOLYLINE
  5
37
330
17
100
AcDbEntity
  8
BORDER
100
AcDbPolyline
 90
4
 70
1
 10
0.0
 20
0.0
 10
210.0
 20
0.0
 10
210.0
 20
297.0
 10
0.0
 20
297.0
  0
LWPOLYLINE
  5
38
330
17
100
AcDbEntity
  8
BORDER
370
50
100
AcDbPolyline
 90
4
 70
1
 10
10.0
 20
10.0
 10
200.0
 20
10.0
 10
200.0
 20
287.0
 10
10.0
 20
287.0
  0
TEXT
  5
39
330
17
100
AcDbEntity
  8
BORDER
100
AcDbText
 10
12.0
 20
113.0
 30
0.0
 40
1.8
  1
Ang. nach ISO 10110; λ = 546.07 nm
100
AcDbText
 73
1
  0
TEXT
  5
3A
330
17
100
AcDbEntity
  8
BORDER
100
AcDbText
 10
12.0
 20
282.0
 30
0.0
 40
2.5
  1
f′ = 18.85 mm
100
AcDbText
 73
3
  0
LWPOLYLINE
  5
3B
330
17
100
AcDbEntity
  8
BORDER
100
AcDbPolyline
 90
4
 70
1
 10
10.0
 20
10.0
 10
200.0
 20
10.0
 10
200.0
 20
38.0
 10
10.0
 20
38.0
  0
LINE
  5
3C
330
17
100
AcDbEntity
  8
BORDER
100
AcDbLine
 10
10.0
 20
23.0
 30
0.0
 11
200.0
 21
23.0
 31
0.0
  0
LINE
  5
3D
330
17
100
AcDbEntity
  8
BORDER
100
AcDbLine
 10
74.60000000000001
 20
23.0
 30
0.0
 11
74.60000000000001
 21
38.0
 31
0.0
  0
LINE
  5
3E
330
17
100
AcDbEntity
  8
BORDER
100
AcDbLine
 10
101.20000000000002
 20
23.0
 30
0.0
 11
101.20000000000002
 21
38.0
 31
0.0
  0
LINE
  5
3F
330
17
100
AcDbEntity
  8
BORDER
100
AcDbLine
 10
127.80000000000001
 20
23.0
 30
0.0
 11
127.80000000000001
 21
38.0
 31
0.0
  0
LINE
  5
40
330
17
100
AcDbEntity
  8
BORDER
100
AcDbLine
 10
154.4
 20
23.0
 30
0.0
 11
154.4
 21
38.0
 31
0.0
  0
LINE
  5
41
330
17
100
AcDbEntity
  8
BORDER
100
AcDbLine
 10
177.20000000000002
 20
23.0
 30
0.0
 11
177.20000000000002
 21
38.0
 31
0.0
  0
LINE
  5
42
330
17
100
AcDbEntity
  8
BORDER
100
AcDbLine
 10
188.60000000000002
 20
23.0
 30
0.0
 11
188.60000000000002
 21
38.0
 31
0.0
  0
TEXT
  5
43
330
17
100
AcDbEntity
  8
BORDER
100
AcDbText
 10
42.300000000000004
 20
26.75
 30
0.0
 40
1.8
  1
ORGANISATION / PROJECT / PART NO.
 72
4
 11
42.300000000000004
 21
26.75
 31
0.0
100
AcDbText
 73
2
  0
TEXT
  5
44
330
17
100
AcDbEntity
  8
BORDER
100
AcDbText
 10
42.300000000000004
 20
33.5
 30
0.0
 40
2.5
  1
5-Element Photographic Objective   OPT-003
 72
4
 11
42.300000000000004
 21
33.5
 31
0.0
100
AcDbText
 73
2
  0
TEXT
  5
45
330
17
100
AcDbEntity
  8
BORDER
100
AcDbText
 10
87.9
 20
26.75
 30
0.0
 40
1.8
  1
DRAWN BY
 72
4
 11
87.9
 21
26.75
 31
0.0
100
AcDbText
 73
2
  0
TEXT
  5
46
330
17
100
AcDbEntity
  8
BORDER
100
AcDbText
 10
87.9
 20
33.5
 30
0.0
 40
2.5
  1
B. Lutzer
 72
4
 11
87.9
 21
33.5
 31
0.0
100
AcDbText
 73
2
  0
TEXT
  5
47
330
17
100
AcDbEntity
  8
BORDER
100
AcDbText
 10
114.50000000000001
 20
26.75
 30
0.0
 40
1.8
  1
APPROVED
 72
4
 11
114.50000000000001
 21
26.75
 31
0.0
100
AcDbText
 73
2
  0
TEXT
  5
48
330
17
100
AcDbEntity
  8
BORDER
100
AcDbText
 10
114.50000000000001
 20
33.5
 30
0.0
 40
2.5
  1
K. Harrison
 72
4
 11
114.50000000000001
 21
33.5
 31
0.0
100
AcDbText
 73
2
  0
TEXT
  5
49
330
17
100
AcDbEntity
  8
BORDER
100
AcDbText
 10
141.10000000000002
 20
26.75
 30
0.0
 40
1.8
  1
DATE
 72
4
 11
141.10000000000002
 21
26.75
 31
0.0
100
AcDbText
 73
2
  0
TEXT
  5
4A
330
17
100
AcDbEntity
  8
BORDER
100
AcDbText
 10
141.10000000000002
 20
33.5
 30
0.0
 40
2.5
  1
2026-07-16
 72
4
 11
141.10000000000002
 21
33.5
 31
0.0
100
AcDbText
 73
2
  0
TEXT
  5
4B
330
17
100
AcDbEntity
  8
BORDER
100
AcDbText
 10
165.8
 20
26.75
 30
0.0
 40
1.8
  1
SCALE
 72
4
 11
165.8
 21
26.75
 31
0.0
100
AcDbText
 73
2
  0
TEXT
  5
4C
330
17
100
AcDbEntity
  8
BORDER
100
AcDbText
 10
165.8
 20
33.5
 30
0.0
 40
2.5
  1
10:1
 72
4
 11
165.8
 21
33.5
 31
0.0
100
AcDbText
 73
2
  0
TEXT
  5
4D
330
17
100
AcDbEntity
  8
BORDER
100
AcDbText
 10
182.90000000000003
 20
26.75
 30
0.0
 40
1.8
  1
SHEET
 72
4
 11
182.90000000000003
 21
26.75
 31
0.0
100
AcDbText
 73
2
  0
TEXT
  5
4E
330
17
100
AcDbEntity
  8
BORDER
100
AcDbText
 10
182.90000000000003
 20
33.5
 30
0.0
 40
2.5
  1
3 / 5
 72
4
 11
182.90000000000003
 21
33.5
 31
0.0
100
AcDbText
 73
2
  0
TEXT
  5
4F
330
17
100
AcDbEntity
  8
BORDER
100
AcDbText
 10
194.3
 20
26.75
 30
0.0
 40
1.8
  1
REV
 72
4
 11
194.3
 21
26.75
 31
0.0
100
AcDbText
 73
2
  0
TEXT
  5
50
330
17
100
AcDbEntity
  8
BORDER
100
AcDbText
 10
194.3
 20
33.5
 30
0.0
 40
2.5
  1
A
 72
4
 11
194.3
 21
33.5
 31
0.0
100
AcDbText
 73
2
  0
LINE
  5
51
330
17
100
AcDbEntity
  8
BORDER
100
AcDbLine
 10
124.0
 20
10.0
 30
0.0
 11
124.0
 21
23.0
 31
0.0
  0
TEXT
  5
52
330
17
100
AcDbEntity
  8
BORDER
100
AcDbText
 10
12.0
 20
21.5
 30
0.0
 40
1.8
  1
NOTES
100
AcDbText
 73
3
  0
TEXT
  5
53
330
17
100
AcDbEntity
  8
BORDER
100
AcDbText
 10
12.0
 20
16.5
 30
0.0
 40
2.0
  1
Cement with NOA-61 or equivalent UV adhesive.
100
AcDbText
 73
2
  0
TEXT
  5
54
330
17
100
AcDbEntity
  8
BORDER
100
AcDbText
 10
146.8
 20
21.5
 30
0.0
 40
1.8
  1
DIM. IN mm
 72
4
 11
146.8
 21
21.5
 31
0.0
100
AcDbText
 73
3
  0
TEXT
  5
55
330
17
100
AcDbEntity
  8
BORDER
100
AcDbText
 10
146.8
 20
17.7
 30
0.0
 40
1.8
  1
GENERAL TOL. PER ISO 10110-11
 72
4
 11
146.8
 21
17.7
 31
0.0
100
AcDbText
 73
1
  0
TEXT
  5
56
330
17
100
AcDbEntity
  8
BORDER
100
AcDbText
 10
146.8
 20
15.3
 30
0.0
 40
1.8
  1
Ø±0.10  CT±0.15  3/ 5  4/ 3′  5/ 2×0.063
 72
4
 11
146.8
 21
15.3
 31
0.0
100
AcDbText
 73
3
  0
CIRCLE
  5
57
330
17
100
AcDbEntity
  8
BORDER
100
AcDbCircle
 10
180.61400000000003
 20
16.5
 30
0.0
 40
3.6400000000000006
  0
CIRCLE
  5
58
330
17
100
AcDbEntity
  8
BORDER
100
AcDbCircle
 10
180.61400000000003
 20
16.5
 30
0.0
 40
2.184
  0
LWPOLYLINE
  5
59
330
17
100
AcDbEntity
  8
BORDER
100
AcDbPolyline
 90
4
 70
1
 10
186.074
 20
20.14
 10
192.626
 20
18.684
 10
192.626
 20
14.315999999999999
 10
186.074
 20
12.86
  0
LINE
  5
5A
330
17
100
AcDbEntity
  8
AXIS
100
AcDbLine
 10
175.88200000000003
 20
16.5
 30
0.0
 11
194.446
 21
16.5
 31
0.0
  0
LWPOLYLINE
  5
5B
330
17
100
AcDbEntity
  8
TABLE
100
AcDbPolyline
 90
4
 70
1
 10
10.0
 20
38.0
 10
200.0
 20
38.0
 10
200.0
 20
110.0
 10
10.0
 20
110.0
  0
LINE
  5
5C
330
17
100
AcDbEntity
  8
TABLE
100
AcDbLine
 10
48.0
 20
38.0
 30
0.0
 11
48.0
 21
110.0
 31
0.0
  0
LINE
  5
5D
330
17
100
AcDbEntity
  8
TABLE
100
AcDbLine
 10
86.0
 20
38.0
 30
0.0
 11
86.0
 21
110.0
 31
0.0
  0
LINE
  5
5E
330
17
100
AcDbEntity
  8
TABLE
100
AcDbLine
 10
124.0
 20
38.0
 30
0.0
 11
124.0
 21
110.0
 31
0.0
  0
LINE
  5
5F
330
17
100
AcDbEntity
  8
TABLE
100
AcDbLine
 10
162.0
 20
38.0
 30
0.0
 11
162.0
 21
110.0
 31
0.0
  0
LINE
  5
60
330
17
100
AcDbEntity
  8
TABLE
100
AcDbLine
 10
10.0
 20
103.0
 30
0.0
 11
200.0
 21
103.0
 31
0.0
  0
TEXT
  5
61
330
17
100
AcDbEntity
  8
TABLE
100
AcDbText
 10
29.0
 20
106.5
 30
0.0
 40
2.0
  1
SURFACE 1 (FRONT)
 72
4
 11
29.0
 21
106.5
 31
0.0
100
AcDbText
 73
2
  0
TEXT
  5
62
330
17
100
AcDbEntity
  8
TABLE
100
AcDbText
 10
12.0
 20
101.0
 30
0.0
 40
2.0
  1
R +58.000 CX
100
AcDbText
 73
3
  0
TEXT
  5
63
330
17
100
AcDbEntity
  8
TABLE
100
AcDbText
 10
12.0
 20
94.5
 30
0.0
 40
2.0
  1
Øₑ 12.91
100
AcDbText
 73
3
  0
TEXT
  5
64
330
17
100
AcDbEntity
  8
TABLE
100
AcDbText
 10
12.0
 20
88.0
 30
0.0
 40
2.0
  1
3/ (0.5); λ=546.1 nm
100
AcDbText
 73
3
  0
TEXT
  5
65
330
17
100
AcDbEntity
  8
TABLE
100
AcDbText
 10
12.0
 20
81.5
 30
0.0
 40
2.0
  1
4/ 0.5′
100
AcDbText
 73
3
  0
TEXT
  5
66
330
17
100
AcDbEntity
  8
TABLE
100
AcDbText
 10
12.0
 20
75.0
 30
0.0
 40
2.0
  1
5/ 2×0.04
100
AcDbText
 73
3
  0
TEXT
  5
67
330
17
100
AcDbEntity
  8
TABLE
100
AcDbText
 10
12.0
 20
68.5
 30
0.0
 40
2.0
  1
6/ —
100
AcDbText
 73
3
  0
TEXT
  5
68
330
17
100
AcDbEntity
  8
TABLE
100
AcDbText
 10
12.0
 20
62.0
 30
0.0
 40
2.0
  1

100
AcDbText
 73
3
  0
TEXT
  5
69
330
17
100
AcDbEntity
  8
TABLE
100
AcDbText
 10
12.0
 20
55.5
 30
0.0
 40
2.0
  1
13/ —
100
AcDbText
 73
3
  0
CIRCLE
  5
6A
330
17
100
AcDbEntity
  8
TABLE
100
AcDbCircle
 10
13.5
 20
60.5
 30
0.0
 40
1.5
  0
TEXT
  5
6B
330
17
100
AcDbEntity
  8
TABLE
100
AcDbText
 10
13.5
 20
60.5
 30
0.0
 40
2.0999999999999996
  1
λ
 72
4
 11
13.5
 21
60.5
 31
0.0
100
AcDbText
 73
2
  0
TEXT
  5
6C
330
17
100
AcDbEntity
  8
TABLE
100
AcDbText
 10
16.0
 20
60.5
 30
0.0
 40
2.0
  1
7/ AR 400-700 nm, R<0.3%
100
AcDbText
 73
2
  0
TEXT
  5
6D
330
17
100
AcDbEntity
  8
TABLE
100
AcDbText
 10
105.0
 20
106.5
 30
0.0
 40
2.0
  1
SURFACE 2 (CEMENT)
 72
4
 11
105.0
 21
106.5
 31
0.0
100
AcDbText
 73
2
  0
TEXT
  5
6E
330
17
100
AcDbEntity
  8
TABLE
100
AcDbText
 10
88.0
 20
101.0
 30
0.0
 40
2.0
  1
R -17.000 CC
100
AcDbText
 73
3
  0
TEXT
  5
6F
330
17
100
AcDbEntity
  8
TABLE
100
AcDbText
 10
88.0
 20
94.5
 30
0.0
 40
2.0
  1
Øₑ 13.03
100
AcDbText
 73
3
  0
TEXT
  5
70
330
17
100
AcDbEntity
  8
TABLE
100
AcDbText
 10
88.0
 20
88.0
 30
0.0
 40
2.0
  1
3/ (0.25); λ=546.1 nm
100
AcDbText
 73
3
  0
TEXT
  5
71
330
17
100
AcDbEntity
  8
TABLE
100
AcDbText
 10
88.0
 20
81.5
 30
0.0
 40
2.0
  1
4/ 0.5′
100
AcDbText
 73
3
  0
TEXT
  5
72
330
17
100
AcDbEntity
  8
TABLE
100
AcDbText
 10
88.0
 20
75.0
 30
0.0
 40
2.0
  1
5/ 5×0.016
100
AcDbText
 73
3
  0
TEXT
  5
73
330
17
100
AcDbEntity
  8
TABLE
100
AcDbText
 10
88.0
 20
68.5
 30
0.0
 40
2.0
  1
6/ —
100
AcDbText
 73
3
  0
TEXT
  5
74
330
17
100
AcDbEntity
  8
TABLE
100
AcDbText
 10
88.0
 20
62.0
 30
0.0
 40
2.0
  1

100
AcDbText
 73
3
  0
TEXT
  5
75
330
17
100
AcDbEntity
  8
TABLE
100
AcDbText
 10
88.0
 20
55.5
 30
0.0
 40
2.0
  1
13/ —
100
AcDbText
 73
3
  0
TEXT
  5
76
330
17
100
AcDbEntity
  8
TABLE
100
AcDbText
 10
88.0
 20
49.0
 30
0.0
 40
2.0
  1
15/ —
100
AcDbText
 73
3
  0
CIRCLE
  5
77
330
17
100
AcDbEntity
  8
TABLE
100
AcDbCircle
 10
89.5
 20
60.5
 30
0.0
 40
1.5
  0
TEXT
  5
78
330
17
100
AcDbEntity
  8
TABLE
100
AcDbText
 10
89.5
 20
60.5
 30
0.0
 40
2.0999999999999996
  1
λ
 72
4
 11
89.5
 21
60.5
 31
0.0
100
AcDbText
 73
2
  0
TEXT
  5
79
330
17
100
AcDbEntity
  8
TABLE
100
AcDbText
 10
92.0
 20
60.5
 30
0.0
 40
2.0
  1
7/ —
100
AcDbText
 73
2
  0
TEXT
  5
7A
330
17
100
AcDbEntity
  8
TABLE
100
AcDbText
 10
181.0
 20
106.5
 30
0.0
 40
2.0
  1
SURFACE 3 (REAR)
 72
4
 11
181.0
 21
106.5
 31
0.0
100
AcDbText
 73
2
  0
TEXT
  5
7B
330
17
100
AcDbEntity
  8
TABLE
100
AcDbText
 10
164.0
 20
101.0
 30
0.0
 40
2.0
  1
R -75.000 CX
100
AcDbText
 73
3
  0
TEXT
  5
7C
330
17
100
AcDbEntity
  8
TABLE
100
AcDbText
 10
164.0
 20
94.5
 30
0.0
 40
2.0
  1
Øₑ 13.19
100
AcDbText
 73
3
  0
TEXT
  5
7D
330
17
100
AcDbEntity
  8
TABLE
100
AcDbText
 10
164.0
 20
88.0
 30
0.0
 40
2.0
  1
3/ (0.5); λ=546.1 nm
100
AcDbText
 73
3
  0
TEXT
  5
7E
330
17
100
AcDbEntity
  8
TABLE
100
AcDbText
 10
164.0
 20
81.5
 30
0.0
 40
2.0
  1
4/ 0.5′
100
AcDbText
 73
3
  0
TEXT
  5
7F
330
17
100
AcDbEntity
  8
TABLE
100
AcDbText
 10
164.0
 20
75.0
 30
0.0
 40
2.0
  1
5/ 2×0.04
100
AcDbText
 73
3
  0
TEXT
  5
80
330
17
100
AcDbEntity
  8
TABLE
100
AcDbText
 10
164.0
 20
68.5
 30
0.0
 40
2.0
  1
6/ —
100
AcDbText
 73
3
  0
TEXT
  5
81
330
17
100
AcDbEntity
  8
TABLE
100
AcDbText
 10
164.0
 20
62.0
 30
0.0
 40
2.0
  1

100
AcDbText
 73
3
  0
TEXT
  5
82
330
17
100
AcDbEntity
  8
TABLE
100
AcDbText
 10
164.0
 20
55.5
 30
0.0
 40
2.0
  1
13/ —
100
AcDbText
 73
3
  0
CIRCLE
  5
83
330
17
100
AcDbEntity
  8
TABLE
100
AcDbCircle
 10
165.5
 20
60.5
 30
0.0
 40
1.5
  0
TEXT
  5
84
330
17
100
AcDbEntity
  8
TABLE
100
AcDbText
 10
165.5
 20
60.5
 30
0.0
 40
2.0999999999999996
  1
λ
 72
4
 11
165.5
 21
60.5
 31
0.0
100
AcDbText
 73
2
  0
TEXT
  5
85
330
17
100
AcDbEntity
  8
TABLE
100
AcDbText
 10
168.0
 20
60.5
 30
0.0
 40
2.0
  1
7/ AR 400-700 nm, R<0.3%
100
AcDbText
 73
2
  0
TEXT
  5
86
330
17
100
AcDbEntity
  8
TABLE
100
AcDbText
 10
67.0
 20
106.5
 30
0.0
 40
2.0
  1
GLASS 1
 72
4
 11
67.0
 21
106.5
 31
0.0
100
AcDbText
 73
2
  0
TEXT
  5
87
330
17
100
AcDbEntity
  8
TABLE
100
AcDbText
 10
50.0
 20
101.0
 30
0.0
 40
2.0
  1
N-BAK1 (SCHOTT)
100
AcDbText
 73
3
  0
TEXT
  5
88
330
17
100
AcDbEntity
  8
TABLE
100
AcDbText
 10
50.0
 20
94.5
 30
0.0
 40
2.0
  1
nd = 1.5725  (587.6 nm)
100
AcDbText
 73
3
  0
TEXT
  5
89
330
17
100
AcDbEntity
  8
TABLE
100
AcDbText
 10
50.0
 20
88.0
 30
0.0
 40
2.0
  1
νd = 57.55  (587.6 nm)
100
AcDbText
 73
3
  0
TEXT
  5
8A
330
17
100
AcDbEntity
  8
TABLE
100
AcDbText
 10
50.0
 20
81.5
 30
0.0
 40
2.0
  1
0/ 6 nm/cm
100
AcDbText
 73
3
  0
TEXT
  5
8B
330
17
100
AcDbEntity
  8
TABLE
100
AcDbText
 10
50.0
 20
75.0
 30
0.0
 40
2.0
  1
1/ 1×0.10
100
AcDbText
 73
3
  0
TEXT
  5
8C
330
17
100
AcDbEntity
  8
TABLE
100
AcDbText
 10
50.0
 20
68.5
 30
0.0
 40
2.0
  1
2/ NH010; A
100
AcDbText
 73
3
  0
TEXT
  5
8D
330
17
100
AcDbEntity
  8
TABLE
100
AcDbText
 10
143.0
 20
106.5
 30
0.0
 40
2.0
  1
GLASS 2
 72
4
 11
143.0
 21
106.5
 31
0.0
100
AcDbText
 73
2
  0
TEXT
  5
8E
330
17
100
AcDbEntity
  8
TABLE
100
AcDbText
 10
126.0
 20
101.0
 30
0.0
 40
2.0
  1
N-SF5 (SCHOTT)
100
AcDbText
 73
3
  0
TEXT
  5
8F
330
17
100
AcDbEntity
  8
TABLE
100
AcDbText
 10
126.0
 20
94.5
 30
0.0
 40
2.0
  1
nd = 1.6727  (587.6 nm)
100
AcDbText
 73
3
  0
TEXT
  5
90
330
17
100
AcDbEntity
  8
TABLE
100
AcDbText
 10
126.0
 20
88.0
 30
0.0
 40
2.0
  1
νd = 32.25  (587.6 nm)
100
AcDbText
 73
3
  0
TEXT
  5
91
330
17
100
AcDbEntity
  8
TABLE
100
AcDbText
 10
126.0
 20
81.5
 30
0.0
 40
2.0
  1
0/ 6 nm/cm
100
AcDbText
 73
3
  0
TEXT
  5
92
330
17
100
AcDbEntity
  8
TABLE
100
AcDbText
 10
126.0
 20
75.0
 30
0.0
 40
2.0
  1
1/ 1×0.10
100
AcDbText
 73
3
  0
TEXT
  5
93
330
17
100
AcDbEntity
  8
TABLE
100
AcDbText
 10
126.0
 20
68.5
 30
0.0
 40
2.0
  1
2/ NH010; A
100
AcDbText
 73
3
  0
LINE
  5
94
330
17
100
AcDbEntity
  8
AXIS
100
AcDbLine
 10
50.00008201118655
 20
198.5
 30
0.0
 11
159.99991798881345
 21
198.5
 31
0.0
  0
TEXT
  5
95
330
17
100
AcDbEntity
  8
AXIS
100
AcDbText
 10
49.00008201118655
 20
198.5
 30
0.0
 40
2.0
  1
opt./rot. axis
 72
2
 11
49.00008201118655
 21
198.5
 31
0.0
100
AcDbText
 73
2
  0
TEXT
  5
96
330
17
100
AcDbEntity
  8
AXIS
100
AcDbText
 10
119.9999912502773
 20
196.0
 30
0.0
 40
2.0
  1
S2
 72
4
 11
119.9999912502773
 21
196.0
 31
0.0
100
AcDbText
 73
3
  0
LWPOLYLINE
  5
97
330
17
100
AcDbEntity
  8
OUTLINE
370
50
100
AcDbPolyline
 90
402
 70
1
 10
68.7637902301957
 20
132.53151787448735
 10
68.688275265871
 20
133.19451769484428
 10
68.61353282311885
 20
133.85751751520118
 10
68.53956260144943
 20
134.5205173355581
 10
68.46636430363105
 20
135.183517155915
 10
68.39393763568384
 20
135.84651697627191
 10
68.32228230687403
 20
136.50951679662882
 10
68.25139802970767
 20
137.17251661698575
 10
68.1812845199251
 20
137.83551643734265
 10
68.11194149649495
 20
138.49851625769958
 10
68.0433686816086
 20
139.16151607805648
 10
67.97556580067427
 20
139.82451589841338
 10
67.90853258231184
 20
140.48751571877028
 10
67.84226875834693
 20
141.1505155391272
 10
67.77677406380573
 20
141.81351535948411
 10
67.71204823690945
 20
142.47651517984104
 10
67.64809101906937
 20
143.13951500019795
 10
67.58490215488106
 20
143.80251482055485
 10
67.52248139211974
 20
144.46551464091175
 10
67.46082848173481
 20
145.12851446126865
 10
67.39994317784519
 20
145.79151428162558
 10
67.33982523773383
 20
146.4545141019825
 10
67.28047442184351
 20
147.1175139223394
 10
67.22189049377133
 20
147.78051374269631
 10
67.16407322026444
 20
148.44351356305322
 10
67.1070223712151
 20
149.10651338341015
 10
67.05073771965618
 20
149.76951320376705
 10
66.99521904175654
 20
150.43251302412395
 10
66.94046611681648
 20
151.09551284448088
 10
66.8864787272635
 20
151.75851266483778
 10
66.83325665864763
 20
152.42151248519468
 10
66.78079969963758
 20
153.0845123055516
 10
66.72910764201598
 20
153.74751212590851
 10
66.67818028067572
 20
154.41051194626544
 10
66.6280174136154
 20
155.07351176662235
 10
66.57861884193568
 20
155.73651158697925
 10
66.52998436983498
 20
156.39951140733615
 10
66.48211380460586
 20
157.06251122769305
 10
66.43500695663093
 20
157.72551104804998
 10
66.38866363937919
 20
158.38851086840688
 10
66.34308366940232
 20
159.0515106887638
 10
66.29826686633103
 20
159.71451050912071
 10
66.25421305287145
 20
160.37751032947762
 10
66.21092205480144
 20
161.04051014983452
 10
66.16839370096744
 20
161.70350997019145
 10
66.1266278232809
 20
162.36650979054835
 10
66.08562425671482
 20
163.02950961090528
 10
66.04538283930071
 20
163.69250943126218
 10
66.00590341212526
 20
164.35550925161908
 10
65.96718581932709
 20
165.01850907197598
 10
65.92922990809387
 20
165.68150889233291
 10
65.89203552865911
 20
166.34450871268982
 10
65.85560253429924
 20
167.00750853304672
 10
65.81993078133087
 20
167.67050835340365
 10
65.78502012910764
 20
168.33350817376055
 10
65.75087044001762
 20
168.99650799411745
 10
65.71748157948065
 20
169.65950781447438
 10
65.68485341594547
 20
170.32250763483128
 10
65.65298582088744
 20
170.98550745518818
 10
65.62187866880555
 20
171.64850727554511
 10
65.5915318372204
 20
172.31150709590202
 10
65.56194520667148
 20
172.97450691625892
 10
65.53311866071488
 20
173.63750673661585
 10
65.50505208592114
 20
174.30050655697275
 10
65.47774537187271
 20
174.96350637732965
 10
65.45119841116221
 20
175.62650619768658
 10
65.42541109938983
 20
176.28950601804348
 10
65.40038333516159
 20
176.95250583840038
 10
65.37611502008733
 20
177.61550565875731
 10
65.35260605877852
 20
178.27850547911422
 10
65.32985635884668
 20
178.94150529947112
 10
65.30786583090142
 20
179.60450511982805
 10
65.28663438854878
 20
180.26750494018495
 10
65.26616194838925
 20
180.93050476054185
 10
65.24644843001656
 20
181.59350458089875
 10
65.22749375601569
 20
182.25650440125568
 10
65.20929785196165
 20
182.91950422161258
 10
65.19186064641787
 20
183.58250404196951
 10
65.17518207093471
 20
184.24550386232642
 10
65.1592620600484
 20
184.90850368268332
 10
65.14410055127948
 20
185.57150350304025
 10
65.12969748513171
 20
186.23450332339715
 10
65.11605280509085
 20
186.89750314375405
 10
65.10316645762353
 20
187.56050296411095
 10
65.09103839217633
 20
188.22350278446788
 10
65.07966856117466
 20
188.88650260482478
 10
65.06905692002178
 20
189.5495024251817
 10
65.05920342709805
 20
190.21250224553862
 10
65.05010804376019
 20
190.87550206589552
 10
65.04177073434025
 20
191.53850188625242
 10
65.03419146614507
 20
192.20150170660935
 10
65.02737020945574
 20
192.86450152696625
 10
65.02130693752679
 20
193.52750134732315
 10
65.01600162658585
 20
194.19050116768008
 10
65.01145425583312
 20
194.85350098803698
 10
65.00766480744093
 20
195.5165008083939
 10
65.00463326655341
 20
196.17950062875082
 10
65.00235962128627
 20
196.84250044910772
 10
65.00084386272644
 20
197.50550026946462
 10
65.00008598493199
 20
198.16850008982155
 10
65.00008598493199
 20
198.83149991017845
 10
65.00084386272644
 20
199.49449973053535
 10
65.00235962128627
 20
200.15749955089228
 10
65.00463326655341
 20
200.82049937124918
 10
65.00766480744093
 20
201.48349919160609
 10
65.01145425583312
 20
202.14649901196302
 10
65.01600162658585
 20
202.80949883231992
 10
65.02130693752679
 20
203.47249865267682
 10
65.02737020945574
 20
204.13549847303372
 10
65.03419146614507
 20
204.79849829339065
 10
65.04177073434025
 20
205.46149811374755
 10
65.05010804376019
 20
206.12449793410445
 10
65.05920342709805
 20
206.78749775446138
 10
65.06905692002178
 20
207.45049757481829
 10
65.07966856117466
 20
208.11349739517522
 10
65.09103839217633
 20
208.77649721553212
 10
65.10316645762353
 20
209.43949703588902
 10
65.11605280509085
 20
210.10249685624592
 10
65.12969748513171
 20
210.76549667660285
 10
65.14410055127948
 20
211.42849649695975
 10
65.1592620600484
 20
212.09149631731665
 10
65.17518207093471
 20
212.75449613767358
 10
65.19186064641787
 20
213.41749595803049
 10
65.20929785196165
 20
214.0804957783874
 10
65.22749375601569
 20
214.74349559874432
 10
65.24644843001656
 20
215.40649541910122
 10
65.26616194838925
 20
216.06949523945815
 10
65.28663438854878
 20
216.73249505981505
 10
65.30786583090142
 20
217.39549488017195
 10
65.32985635884668
 20
218.05849470052885
 10
65.35260605877852
 20
218.72149452088576
 10
65.37611502008733
 20
219.38449434124269
 10
65.40038333516159
 20
220.0474941615996
 10
65.42541109938983
 20
220.71049398195652
 10
65.45119841116221
 20
221.37349380231342
 10
65.47774537187271
 20
222.03649362267032
 10
65.50505208592114
 20
222.69949344302725
 10
65.53311866071488
 20
223.36249326338415
 10
65.56194520667148
 20
224.02549308374105
 10
65.5915318372204
 20
224.68849290409796
 10
65.62187866880555
 20
225.35149272445489
 10
65.65298582088744
 20
226.0144925448118
 10
65.68485341594547
 20
226.67749236516872
 10
65.71748157948065
 20
227.34049218552562
 10
65.75087044001762
 20
228.00349200588252
 10
65.78502012910764
 20
228.66649182623945
 10
65.81993078133087
 20
229.32949164659635
 10
65.85560253429924
 20
229.99249146695325
 10
65.89203552865911
 20
230.65549128731016
 10
65.92922990809387
 20
231.31849110766706
 10
65.96718581932709
 20
231.98149092802402
 10
66.00590341212526
 20
232.64449074838092
 10
66.04538283930071
 20
233.30749056873782
 10
66.08562425671482
 20
233.97049038909472
 10
66.1266278232809
 20
234.63349020945162
 10
66.16839370096744
 20
235.29649002980852
 10
66.21092205480144
 20
235.95948985016545
 10
66.25421305287145
 20
236.62248967052236
 10
66.29826686633103
 20
237.28548949087929
 10
66.34308366940232
 20
237.9484893112362
 10
66.38866363937919
 20
238.6114891315931
 10
66.43500695663087
 20
239.27448895195002
 10
66.48211380460583
 20
239.93748877230692
 10
66.52998436983498
 20
240.60048859266382
 10
66.57861884193568
 20
241.26348841302075
 10
66.6280174136154
 20
241.92648823337765
 10
66.67818028067572
 20
242.58948805373456
 10
66.72910764201598
 20
243.25248787409149
 10
66.78079969963758
 20
243.9154876944484
 10
66.83325665864763
 20
244.57848751480532
 10
66.8864787272635
 20
245.24148733516222
 10
66.94046611681648
 20
245.90448715551912
 10
66.99521904175654
 20
246.56748697587602
 10
67.05073771965618
 20
247.23048679623292
 10
67.1070223712151
 20
247.89348661658983
 10
67.16407322026444
 20
248.55648643694678
 10
67.22189049377133
 20
249.21948625730369
 10
67.28047442184351
 20
249.8824860776606
 10
67.33982523773383
 20
250.5454858980175
 10
67.39994317784519
 20
251.2084857183744
 10
67.46082848173481
 20
251.87148553873132
 10
67.52248139211974
 20
252.53448535908822
 10
67.58490215488106
 20
253.19748517944512
 10
67.64809101906937
 20
253.86048499980205
 10
67.71204823690945
 20
254.52348482015896
 10
67.77677406380573
 20
255.18648464051586
 10
67.84226875834693
 20
255.8494844608728
 10
67.90853258231184
 20
256.5124842812297
 10
67.97556580067427
 20
257.1754841015866
 10
68.0433686816086
 20
257.8384839219435
 10
68.11194149649495
 20
258.5014837423004
 10
68.1812845199251
 20
259.1644835626573
 10
68.25139802970767
 20
259.8274833830142
 10
68.32228230687403
 20
260.4904832033712
 10
68.39393763568384
 20
261.1534830237281
 10
68.46636430363105
 20
261.816482844085
 10
68.53956260144943
 20
262.4794826644419
 10
68.61353282311885
 20
263.1424824847988
 10
68.688275265871
 20
263.8054823051557
 10
68.7637902301957
 20
264.46848212551265
 10
142.09313093639165
 20
264.46848212551265
 10
142.09313093639165
 20
264.46848212551265
 10
142.15137750402104
 20
263.8054823051557
 10
142.2090312505991
 20
263.1424824847988
 10
142.26609231333933
 20
262.4794826644419
 10
142.322560828003
 20
261.816482844085
 10
142.37843692890098
 20
261.1534830237281
 10
142.43372074889484
 20
260.4904832033712
 10
142.48841241939894
 20
259.8274833830142
 10
142.5425120703816
 20
259.1644835626573
 10
142.5960198303671
 20
258.5014837423004
 10
142.64893582643683
 20
257.8384839219435
 10
142.70126018423096
 20
257.1754841015866
 10
142.75299302794994
 20
256.5124842812297
 10
142.80413448035605
 20
255.8494844608728
 10
142.85468466277476
 20
255.18648464051586
 10
142.9046436950962
 20
254.52348482015896
 10
142.9540116957768
 20
253.86048499980205
 10
143.00278878184028
 20
253.19748517944512
 10
143.0509750688794
 20
252.53448535908822
 10
143.09857067105722
 20
251.87148553873132
 10
143.14557570110858
 20
251.2084857183744
 10
143.19199027034122
 20
250.5454858980175
 10
143.23781448863716
 20
249.8824860776606
 10
143.2830484644542
 20
249.21948625730369
 10
143.3276923048272
 20
248.55648643694678
 10
143.3717461153689
 20
247.89348661658983
 10
143.41521000027186
 20
247.23048679623292
 10
143.4580840623091
 20
246.56748697587602
 10
143.50036840283573
 20
245.90448715551912
 10
143.54206312179
 20
245.24148733516222
 10
143.58316831769437
 20
244.57848751480532
 10
143.62368408765698
 20
243.9154876944484
 10
143.66361052737247
 20
243.25248787409149
 10
143.70294773112332
 20
242.58948805373456
 10
143.74169579178093
 20
241.92648823337765
 10
143.7798548008067
 20
241.26348841302075
 10
143.81742484825318
 20
240.60048859266382
 10
143.85440602276495
 20
239.93748877230692
 10
143.89079841157988
 20
239.27448895195002
 10
143.92660210053018
 20
238.6114891315931
 10
143.96181717404315
 20
237.9484893112362
 10
143.99644371514236
 20
237.28548949087929
 10
144.03048180544883
 20
236.62248967052236
 10
144.06393152518157
 20
235.95948985016545
 10
144.09679295315883
 20
235.29649002980852
 10
144.12906616679894
 20
234.63349020945162
 10
144.16075124212122
 20
233.97049038909472
 10
144.19184825374688
 20
233.30749056873782
 10
144.22235727490002
 20
232.64449074838092
 10
144.2522783774082
 20
231.98149092802402
 10
144.28161163170373
 20
231.31849110766706
 10
144.3103571068239
 20
230.65549128731016
 10
144.33851487041247
 20
229.99249146695325
 10
144.36608498871996
 20
229.32949164659635
 10
144.3930675266047
 20
228.66649182623945
 10
144.4194625475334
 20
228.00349200588252
 10
144.4452701135821
 20
227.34049218552562
 10
144.47049028543668
 20
226.67749236516872
 10
144.49512312239395
 20
226.0144925448118
 10
144.51916868236177
 20
225.35149272445489
 10
144.54262702186034
 20
224.68849290409796
 10
144.56549819602245
 20
224.02549308374105
 10
144.58778225859422
 20
223.36249326338415
 10
144.60947926193583
 20
222.69949344302725
 10
144.63058925702225
 20
222.03649362267032
 10
144.65111229344328
 20
221.37349380231342
 10
144.67104841940497
 20
220.71049398195652
 10
144.69039768172942
 20
220.0474941615996
 10
144.70916012585573
 20
219.38449434124269
 10
144.72733579584062
 20
218.72149452088576
 10
144.74492473435853
 20
218.05849470052885
 10
144.7619269827026
 20
217.39549488017195
 10
144.7783425807847
 20
216.73249505981505
 10
144.79417156713643
 20
216.06949523945815
 10
144.80941397890902
 20
215.40649541910122
 10
144.8240698518741
 20
214.74349559874432
 10
144.83813922042404
 20
214.0804957783874
 10
144.85162211757236
 20
213.41749595803049
 10
144.8645185749542
 20
212.75449613767358
 10
144.87682862282637
 20
212.09149631731665
 10
144.88855229006813
 20
211.42849649695975
 10
144.8996896041813
 20
210.76549667660285
 10
144.91024059129066
 20
210.10249685624592
 10
144.920205276144
 20
209.43949703588902
 10
144.92958368211296
 20
208.77649721553212
 10
144.9383758311927
 20
208.11349739517522
 10
144.94658174400254
 20
207.45049757481829
 10
144.95420143978603
 20
206.78749775446138
 10
144.96123493641127
 20
206.12449793410445
 10
144.96768225037115
 20
205.46149811374755
 10
144.97354339678347
 20
204.79849829339065
 10
144.9788183893909
 20
204.13549847303372
 10
144.98350724056164
 20
203.47249865267682
 10
144.98760996128922
 20
202.80949883231992
 10
144.99112656119266
 20
202.14649901196302
 10
144.99405704851662
 20
201.48349919160609
 10
144.99640143013144
 20
200.82049937124918
 10
144.99815971153348
 20
200.15749955089228
 10
144.99933189684478
 20
199.49449973053535
 10
144.99991798881345
 20
198.83149991017845
 10
144.99991798881345
 20
198.16850008982155
 10
144.99933189684478
 20
197.50550026946462
 10
144.99815971153348
 20
196.84250044910772
 10
144.99640143013144
 20
196.17950062875082
 10
144.99405704851662
 20
195.5165008083939
 10
144.99112656119266
 20
194.85350098803698
 10
144.98760996128922
 20
194.19050116768008
 10
144.98350724056164
 20
193.52750134732315
 10
144.9788183893909
 20
192.86450152696625
 10
144.97354339678347
 20
192.20150170660935
 10
144.96768225037115
 20
191.53850188625242
 10
144.96123493641127
 20
190.87550206589552
 10
144.95420143978603
 20
190.21250224553862
 10
144.94658174400254
 20
189.5495024251817
 10
144.9383758311927
 20
188.88650260482478
 10
144.92958368211296
 20
188.22350278446788
 10
144.920205276144
 20
187.56050296411095
 10
144.91024059129066
 20
186.89750314375405
 10
144.8996896041813
 20
186.23450332339715
 10
144.88855229006813
 20
185.57150350304025
 10
144.87682862282637
 20
184.90850368268332
 10
144.8645185749542
 20
184.24550386232642
 10
144.85162211757236
 20
183.58250404196951
 10
144.83813922042404
 20
182.91950422161258
 10
144.8240698518741
 20
182.25650440125568
 10
144.80941397890902
 20
181.59350458089875
 10
144.79417156713643
 20
180.93050476054185
 10
144.7783425807847
 20
180.26750494018495
 10
144.7619269827026
 20
179.60450511982805
 10
144.74492473435853
 20
178.94150529947112
 10
144.72733579584062
 20
178.27850547911422
 10
144.70916012585573
 20
177.61550565875731
 10
144.69039768172942
 20
176.95250583840038
 10
144.67104841940497
 20
176.28950601804348
 10
144.65111229344328
 20
175.62650619768658
 10
144.63058925702225
 20
174.96350637732965
 10
144.60947926193583
 20
174.30050655697275
 10
144.58778225859422
 20
173.63750673661585
 10
144.56549819602245
 20
172.97450691625892
 10
144.54262702186034
 20
172.31150709590202
 10
144.51916868236177
 20
171.64850727554511
 10
144.49512312239395
 20
170.98550745518818
 10
144.47049028543668
 20
170.32250763483128
 10
144.4452701135821
 20
169.65950781447438
 10
144.4194625475334
 20
168.99650799411745
 10
144.39306752660465
 20
168.33350817376055
 10
144.36608498871996
 20
167.67050835340365
 10
144.33851487041247
 20
167.00750853304672
 10
144.3103571068239
 20
166.34450871268982
 10
144.28161163170367
 20
165.68150889233291
 10
144.2522783774082
 20
165.01850907197598
 10
144.22235727490002
 20
164.35550925161908
 10
144.19184825374688
 20
163.69250943126218
 10
144.16075124212122
 20
163.02950961090528
 10
144.12906616679894
 20
162.36650979054835
 10
144.09679295315883
 20
161.70350997019145
 10
144.06393152518157
 20
161.04051014983452
 10
144.03048180544883
 20
160.37751032947762
 10
143.99644371514236
 20
159.71451050912071
 10
143.96181717404315
 20
159.0515106887638
 10
143.92660210053018
 20
158.38851086840688
 10
143.89079841157988
 20
157.72551104804998
 10
143.85440602276495
 20
157.06251122769305
 10
143.81742484825318
 20
156.39951140733615
 10
143.7798548008067
 20
155.73651158697925
 10
143.74169579178093
 20
155.07351176662235
 10
143.70294773112332
 20
154.41051194626544
 10
143.66361052737247
 20
153.74751212590851
 10
143.62368408765698
 20
153.0845123055516
 10
143.58316831769437
 20
152.42151248519468
 10
143.54206312179
 20
151.75851266483778
 10
143.50036840283573
 20
151.09551284448088
 10
143.4580840623091
 20
150.43251302412395
 10
143.41521000027186
 20
149.76951320376705
 10
143.3717461153689
 20
149.10651338341015
 10
143.3276923048272
 20
148.44351356305322
 10
143.2830484644542
 20
147.78051374269631
 10
143.2378144886371
 20
147.1175139223394
 10
143.19199027034122
 20
146.4545141019825
 10
143.14557570110858
 20
145.79151428162558
 10
143.09857067105722
 20
145.12851446126865
 10
143.0509750688794
 20
144.46551464091175
 10
143.00278878184028
 20
143.80251482055485
 10
142.9540116957768
 20
143.13951500019795
 10
142.9046436950962
 20
142.47651517984104
 10
142.85468466277476
 20
141.81351535948411
 10
142.80413448035605
 20
141.1505155391272
 10
142.75299302794994
 20
140.48751571877028
 10
142.70126018423096
 20
139.82451589841338
 10
142.64893582643683
 20
139.16151607805648
 10
142.5960198303671
 20
138.49851625769958
 10
142.5425120703816
 20
137.83551643734265
 10
142.48841241939888
 20
137.17251661698575
 10
142.43372074889479
 20
136.50951679662882
 10
142.37843692890098
 20
135.84651697627191
 10
142.322560828003
 20
135.183517155915
 10
142.26609231333933
 20
134.5205173355581
 10
142.2090312505991
 20
133.85751751520118
 10
142.15137750402104
 20
133.19451769484428
 10
142.09313093639165
 20
132.53151787448735
 10
68.7637902301957
 20
132.53151787448735
  0
LWPOLYLINE
  5
98
330
17
100
AcDbEntity
  8
CEMENT
370
25
100
AcDbPolyline
 90
200
 70
0
 10
107.0215633229879
 20
133.35227629598603
 10
107.29161998737013
 20
134.00702728798615
 10
107.55849291751954
 20
134.66177827998632
 10
107.82219826425319
 20
135.31652927198644
 10
108.08275187955999
 20
135.97128026398659
 10
108.34016932225268
 20
136.62603125598673
 10
108.5944658634605
 20
137.28078224798685
 10
108.84565649196804
 20
137.93553323998702
 10
109.09375591940542
 20
138.59028423198714
 10
109.33877858529343
 20
139.2450352239873
 10
109.58073866194982
 20
139.89978621598743
 10
109.81965005925957
 20
140.55453720798758
 10
110.05552642931426
 20
141.20928819998772
 10
110.28838117092411
 20
141.86403919198784
 10
110.518227434007
 20
142.518790183988
 10
110.74507812385775
 20
143.17354117598813
 10
110.96894590530124
 20
143.82829216798828
 10
111.18984320673368
 20
144.48304315998843
 10
111.40778222405419
 20
145.13779415198854
 10
111.62277492449053
 20
145.7925451439887
 10
111.83483305032217
 20
146.44729613598884
 10
112.04396812250337
 20
147.10204712798898
 10
112.25019144418911
 20
147.75679811998913
 10
112.45351410416723
 20
148.41154911198925
 10
112.6539469801985
 20
149.0663001039894
 10
112.85150074226803
 20
149.72105109598954
 10
113.04618585574994
 20
150.37580208798968
 10
113.23801258448836
 20
151.03055307998983
 10
113.42699099379567
 20
151.68530407198995
 10
113.61313095337246
 20
152.3400550639901
 10
113.79644214014868
 20
152.99480605599024
 10
113.97693404105058
 20
153.64955704799036
 10
114.15461595569326
 20
154.30430803999053
 10
114.32949699900254
 20
154.95905903199065
 10
114.50158610376693
 20
155.6138100239908
 10
114.67089202312155
 20
156.26856101599094
 10
114.83742333296638
 20
156.9233120079911
 10
115.00118843431991
 20
157.57806299999123
 10
115.16219555560994
 20
158.23281399199135
 10
115.32045275490324
 20
158.8875649839915
 10
115.47596792207557
 20
159.54231597599164
 10
115.62874878092322
 20
160.1970669679918
 10
115.77880289121774
 20
160.85181795999193
 10
115.92613765070533
 20
161.50656895199205
 10
116.07076029705175
 20
162.1613199439922
 10
116.2126779097344
 20
162.81607093599234
 10
116.35189741188276
 20
163.4708219279925
 10
116.48842557206811
 20
164.12557291999263
 10
116.62226900604401
 20
164.78032391199275
 10
116.75343417843831
 20
165.4350749039929
 10
116.8819274043978
 20
166.08982589599304
 10
117.00775485118726
 20
166.7445768879932
 10
117.13092253974222
 20
167.39932787999334
 10
117.25143634617837
 20
168.05407887199345
 10
117.3693020032571
 20
168.7088298639936
 10
117.48452510180874
 20
169.36358085599375
 10
117.59711109211409
 20
170.0183318479939
 10
117.70706528524508
 20
170.67308283999404
 10
117.81439285436576
 20
171.32783383199418
 10
117.91909883599354
 20
171.9825848239943
 10
118.02118813122252
 20
172.63733581599445
 10
118.12066550690858
 20
173.2920868079946
 10
118.21753559681756
 20
173.94683779999474
 10
118.3118029027371
 20
174.60158879199489
 10
118.40347179555258
 20
175.256339783995
 10
118.492546516288
 20
175.91109077599515
 10
118.57903117711217
 20
176.5658417679953
 10
118.66292976231094
 20
177.22059275999544
 10
118.74424612922616
 20
177.8753437519956
 10
118.82298400916133
 20
178.53009474399573
 10
118.89914700825534
 20
179.18484573599585
 10
118.97273860832374
 20
179.839596727996
 10
119.04376216766897
 20
180.49434771999614
 10
119.11222092185943
 20
181.14909871199626
 10
119.17811798447795
 20
181.80384970399643
 10
119.24145634783997
 20
182.45860069599655
 10
119.3022388836821
 20
183.1133516879967
 10
119.36046834382142
 20
183.76810267999684
 10
119.41614736078523
 20
184.422853671997
 10
119.46927844841255
 20
185.07760466399714
 10
119.51986400242708
 20
185.73235565599725
 10
119.56790630098203
 20
186.3871066479974
 10
119.61340750517712
 20
187.04185763999754
 10
119.65636965954835
 20
187.6966086319977
 10
119.69679469253009
 20
188.35135962399784
 10
119.73468441689053
 20
189.00611061599795
 10
119.77004053014011
 20
189.6608616079981
 10
119.80286461491355
 20
190.31561259999825
 10
119.83315813932549
 20
190.9703635919984
 10
119.86092245729989
 20
191.6251145839985
 10
119.88615880887329
 20
192.27986557599866
 10
119.9088683204728
 20
192.9346165679988
 10
119.92905200516762
 20
193.58936755999895
 10
119.94671076289563
 20
194.2441185519991
 10
119.96184538066404
 20
194.8988695439992
 10
119.97445653272527
 20
195.55362053599936
 10
119.98454478072702
 20
196.2083715279995
 10
119.99211057383732
 20
196.86312251999965
 10
119.99715424884491
 20
197.5178735119998
 10
119.99967603023393
 20
198.17262450399994
 10
119.99967603023393
 20
198.82737549600006
 10
119.99715424884491
 20
199.4821264880002
 10
119.99211057383732
 20
200.13687748000035
 10
119.98454478072702
 20
200.7916284720005
 10
119.97445653272527
 20
201.44637946400064
 10
119.96184538066404
 20
202.10113045600076
 10
119.94671076289563
 20
202.7558814480009
 10
119.92905200516762
 20
203.41063244000105
 10
119.9088683204728
 20
204.0653834320012
 10
119.88615880887329
 20
204.72013442400134
 10
119.86092245729989
 20
205.37488541600146
 10
119.83315813932549
 20
206.0296364080016
 10
119.80286461491355
 20
206.68438740000175
 10
119.77004053014011
 20
207.3391383920019
 10
119.73468441689053
 20
207.99388938400205
 10
119.69679469253009
 20
208.64864037600216
 10
119.65636965954835
 20
209.3033913680023
 10
119.61340750517712
 20
209.95814236000246
 10
119.56790630098203
 20
210.6128933520026
 10
119.51986400242708
 20
211.26764434400275
 10
119.46927844841255
 20
211.92239533600286
 10
119.41614736078523
 20
212.577146328003
 10
119.36046834382142
 20
213.23189732000316
 10
119.3022388836821
 20
213.8866483120033
 10
119.24145634783997
 20
214.54139930400345
 10
119.17811798447795
 20
215.19615029600357
 10
119.11222092185943
 20
215.85090128800374
 10
119.04376216766897
 20
216.50565228000386
 10
118.97273860832374
 20
217.160403272004
 10
118.89914700825534
 20
217.81515426400415
 10
118.82298400916133
 20
218.46990525600427
 10
118.74424612922616
 20
219.1246562480044
 10
118.66292976231094
 20
219.77940724000456
 10
118.57903117711217
 20
220.4341582320047
 10
118.492546516288
 20
221.08890922400485
 10
118.40347179555258
 20
221.743660216005
 10
118.31180290273707
 20
222.39841120800514
 10
118.21753559681756
 20
223.05316220000526
 10
118.12066550690858
 20
223.7079131920054
 10
118.02118813122252
 20
224.36266418400555
 10
117.91909883599354
 20
225.01741517600567
 10
117.81439285436576
 20
225.67216616800582
 10
117.70706528524508
 20
226.32691716000596
 10
117.59711109211409
 20
226.9816681520061
 10
117.48452510180874
 20
227.63641914400625
 10
117.3693020032571
 20
228.2911701360064
 10
117.25143634617837
 20
228.94592112800652
 10
117.13092253974222
 20
229.60067212000666
 10
117.00775485118726
 20
230.2554231120068
 10
116.88192740439783
 20
230.91017410400696
 10
116.75343417843831
 20
231.56492509600707
 10
116.62226900604401
 20
232.21967608800725
 10
116.48842557206811
 20
232.87442708000737
 10
116.35189741188276
 20
233.5291780720075
 10
116.2126779097344
 20
234.18392906400766
 10
116.07076029705175
 20
234.8386800560078
 10
115.92613765070533
 20
235.49343104800792
 10
115.77880289121774
 20
236.14818204000807
 10
115.62874878092322
 20
236.8029330320082
 10
115.47596792207557
 20
237.45768402400836
 10
115.32045275490324
 20
238.11243501600848
 10
115.16219555560994
 20
238.76718600800865
 10
115.00118843431991
 20
239.42193700000877
 10
114.83742333296638
 20
240.0766879920089
 10
114.67089202312155
 20
240.73143898400906
 10
114.50158610376695
 20
241.38618997600918
 10
114.32949699900254
 20
242.04094096800935
 10
114.15461595569326
 20
242.69569196000947
 10
113.97693404105058
 20
243.35044295200964
 10
113.79644214014874
 20
244.00519394400976
 10
113.61313095337246
 20
244.6599449360099
 10
113.42699099379567
 20
245.31469592801005
 10
113.23801258448836
 20
245.96944692001017
 10
113.04618585574994
 20
246.62419791201032
 10
112.85150074226803
 20
247.27894890401046
 10
112.6539469801985
 20
247.93369989601058
 10
112.45351410416723
 20
248.58845088801075
 10
112.25019144418911
 20
249.24320188001087
 10
112.04396812250337
 20
249.89795287201102
 10
111.83483305032217
 20
250.55270386401116
 10
111.62277492449053
 20
251.2074548560113
 10
111.40778222405419
 20
251.86220584801143
 10
111.18984320673368
 20
252.51695684001157
 10
110.96894590530124
 20
253.17170783201172
 10
110.74507812385775
 20
253.82645882401187
 10
110.51822743400706
 20
254.48120981601198
 10
110.28838117092411
 20
255.13596080801216
 10
110.05552642931426
 20
255.79071180001228
 10
109.81965005925957
 20
256.44546279201245
 10
109.58073866194982
 20
257.10021378401257
 10
109.33877858529343
 20
257.7549647760127
 10
109.09375591940542
 20
258.40971576801286
 10
108.84565649196804
 20
259.064466760013
 10
108.5944658634605
 20
259.71921775201315
 10
108.34016932225268
 20
260.37396874401327
 10
108.08275187955999
 20
261.0287197360134
 10
107.82219826425319
 20
261.68347072801356
 10
107.55849291751954
 20
262.3382217200137
 10
107.29161998737013
 20
262.99297271201385
 10
107.0215633229879
 20
263.64772370401397
  0
HATCH
  5
99
330
17
100
AcDbEntity
  8
OUTLINE
 62
7
100
AcDbHatch
 10
0.0
 20
0.0
 30
0.0
210
0.0
220
0.0
230
1.0
  2
ANSI31
 70
0
 71
0
 91
1
 92
3
 72
0
 73
1
 93
402
 10
68.7637902301957
 20
132.53151787448735
 10
68.688275265871
 20
133.19451769484428
 10
68.61353282311885
 20
133.85751751520118
 10
68.53956260144943
 20
134.5205173355581
 10
68.46636430363105
 20
135.183517155915
 10
68.39393763568384
 20
135.84651697627191
 10
68.32228230687403
 20
136.50951679662882
 10
68.25139802970767
 20
137.17251661698575
 10
68.1812845199251
 20
137.83551643734265
 10
68.11194149649495
 20
138.49851625769958
 10
68.0433686816086
 20
139.16151607805648
 10
67.97556580067427
 20
139.82451589841338
 10
67.90853258231184
 20
140.48751571877028
 10
67.84226875834693
 20
141.1505155391272
 10
67.77677406380573
 20
141.81351535948411
 10
67.71204823690945
 20
142.47651517984104
 10
67.64809101906937
 20
143.13951500019795
 10
67.58490215488106
 20
143.80251482055485
 10
67.52248139211974
 20
144.46551464091175
 10
67.46082848173481
 20
145.12851446126865
 10
67.39994317784519
 20
145.79151428162558
 10
67.33982523773383
 20
146.4545141019825
 10
67.28047442184351
 20
147.1175139223394
 10
67.22189049377133
 20
147.78051374269631
 10
67.16407322026444
 20
148.44351356305322
 10
67.1070223712151
 20
149.10651338341015
 10
67.05073771965618
 20
149.76951320376705
 10
66.99521904175654
 20
150.43251302412395
 10
66.94046611681648
 20
151.09551284448088
 10
66.8864787272635
 20
151.75851266483778
 10
66.83325665864763
 20
152.42151248519468
 10
66.78079969963758
 20
153.0845123055516
 10
66.72910764201598
 20
153.74751212590851
 10
66.67818028067572
 20
154.41051194626544
 10
66.6280174136154
 20
155.07351176662235
 10
66.57861884193568
 20
155.73651158697925
 10
66.52998436983498
 20
156.39951140733615
 10
66.48211380460586
 20
157.06251122769305
 10
66.43500695663093
 20
157.72551104804998
 10
66.38866363937919
 20
158.38851086840688
 10
66.34308366940232
 20
159.0515106887638
 10
66.29826686633103
 20
159.71451050912071
 10
66.25421305287145
 20
160.37751032947762
 10
66.21092205480144
 20
161.04051014983452
 10
66.16839370096744
 20
161.70350997019145
 10
66.1266278232809
 20
162.36650979054835
 10
66.08562425671482
 20
163.02950961090528
 10
66.04538283930071
 20
163.69250943126218
 10
66.00590341212526
 20
164.35550925161908
 10
65.96718581932709
 20
165.01850907197598
 10
65.92922990809387
 20
165.68150889233291
 10
65.89203552865911
 20
166.34450871268982
 10
65.85560253429924
 20
167.00750853304672
 10
65.81993078133087
 20
167.67050835340365
 10
65.78502012910764
 20
168.33350817376055
 10
65.75087044001762
 20
168.99650799411745
 10
65.71748157948065
 20
169.65950781447438
 10
65.68485341594547
 20
170.32250763483128
 10
65.65298582088744
 20
170.98550745518818
 10
65.62187866880555
 20
171.64850727554511
 10
65.5915318372204
 20
172.31150709590202
 10
65.56194520667148
 20
172.97450691625892
 10
65.53311866071488
 20
173.63750673661585
 10
65.50505208592114
 20
174.30050655697275
 10
65.47774537187271
 20
174.96350637732965
 10
65.45119841116221
 20
175.62650619768658
 10
65.42541109938983
 20
176.28950601804348
 10
65.40038333516159
 20
176.95250583840038
 10
65.37611502008733
 20
177.61550565875731
 10
65.35260605877852
 20
178.27850547911422
 10
65.32985635884668
 20
178.94150529947112
 10
65.30786583090142
 20
179.60450511982805
 10
65.28663438854878
 20
180.26750494018495
 10
65.26616194838925
 20
180.93050476054185
 10
65.24644843001656
 20
181.59350458089875
 10
65.22749375601569
 20
182.25650440125568
 10
65.20929785196165
 20
182.91950422161258
 10
65.19186064641787
 20
183.58250404196951
 10
65.17518207093471
 20
184.24550386232642
 10
65.1592620600484
 20
184.90850368268332
 10
65.14410055127948
 20
185.57150350304025
 10
65.12969748513171
 20
186.23450332339715
 10
65.11605280509085
 20
186.89750314375405
 10
65.10316645762353
 20
187.56050296411095
 10
65.09103839217633
 20
188.22350278446788
 10
65.07966856117466
 20
188.88650260482478
 10
65.06905692002178
 20
189.5495024251817
 10
65.05920342709805
 20
190.21250224553862
 10
65.05010804376019
 20
190.87550206589552
 10
65.04177073434025
 20
191.53850188625242
 10
65.03419146614507
 20
192.20150170660935
 10
65.02737020945574
 20
192.86450152696625
 10
65.02130693752679
 20
193.52750134732315
 10
65.01600162658585
 20
194.19050116768008
 10
65.01145425583312
 20
194.85350098803698
 10
65.00766480744093
 20
195.5165008083939
 10
65.00463326655341
 20
196.17950062875082
 10
65.00235962128627
 20
196.84250044910772
 10
65.00084386272644
 20
197.50550026946462
 10
65.00008598493199
 20
198.16850008982155
 10
65.00008598493199
 20
198.83149991017845
 10
65.00084386272644
 20
199.49449973053535
 10
65.00235962128627
 20
200.15749955089228
 10
65.00463326655341
 20
200.82049937124918
 10
65.00766480744093
 20
201.48349919160609
 10
65.01145425583312
 20
202.14649901196302
 10
65.01600162658585
 20
202.80949883231992
 10
65.02130693752679
 20
203.47249865267682
 10
65.02737020945574
 20
204.13549847303372
 10
65.03419146614507
 20
204.79849829339065
 10
65.04177073434025
 20
205.46149811374755
 10
65.05010804376019
 20
206.12449793410445
 10
65.05920342709805
 20
206.78749775446138
 10
65.06905692002178
 20
207.45049757481829
 10
65.07966856117466
 20
208.11349739517522
 10
65.09103839217633
 20
208.77649721553212
 10
65.10316645762353
 20
209.43949703588902
 10
65.11605280509085
 20
210.10249685624592
 10
65.12969748513171
 20
210.76549667660285
 10
65.14410055127948
 20
211.42849649695975
 10
65.1592620600484
 20
212.09149631731665
 10
65.17518207093471
 20
212.75449613767358
 10
65.19186064641787
 20
213.41749595803049
 10
65.20929785196165
 20
214.0804957783874
 10
65.22749375601569
 20
214.74349559874432
 10
65.24644843001656
 20
215.40649541910122
 10
65.26616194838925
 20
216.06949523945815
 10
65.28663438854878
 20
216.73249505981505
 10
65.30786583090142
 20
217.39549488017195
 10
65.32985635884668
 20
218.05849470052885
 10
65.35260605877852
 20
218.72149452088576
 10
65.37611502008733
 20
219.38449434124269
 10
65.40038333516159
 20
220.0474941615996
 10
65.42541109938983
 20
220.71049398195652
 10
65.45119841116221
 20
221.37349380231342
 10
65.47774537187271
 20
222.03649362267032
 10
65.50505208592114
 20
222.69949344302725
 10
65.53311866071488
 20
223.36249326338415
 10
65.56194520667148
 20
224.02549308374105
 10
65.5915318372204
 20
224.68849290409796
 10
65.62187866880555
 20
225.35149272445489
 10
65.65298582088744
 20
226.0144925448118
 10
65.68485341594547
 20
226.67749236516872
 10
65.71748157948065
 20
227.34049218552562
 10
65.75087044001762
 20
228.00349200588252
 10
65.78502012910764
 20
228.66649182623945
 10
65.81993078133087
 20
229.32949164659635
 10
65.85560253429924
 20
229.99249146695325
 10
65.89203552865911
 20
230.65549128731016
 10
65.92922990809387
 20
231.31849110766706
 10
65.96718581932709
 20
231.98149092802402
 10
66.00590341212526
 20
232.64449074838092
 10
66.04538283930071
 20
233.30749056873782
 10
66.08562425671482
 20
233.97049038909472
 10
66.1266278232809
 20
234.63349020945162
 10
66.16839370096744
 20
235.29649002980852
 10
66.21092205480144
 20
235.95948985016545
 10
66.25421305287145
 20
236.62248967052236
 10
66.29826686633103
 20
237.28548949087929
 10
66.34308366940232
 20
237.9484893112362
 10
66.38866363937919
 20
238.6114891315931
 10
66.43500695663087
 20
239.27448895195002
 10
66.48211380460583
 20
239.93748877230692
 10
66.52998436983498
 20
240.60048859266382
 10
66.57861884193568
 20
241.26348841302075
 10
66.6280174136154
 20
241.92648823337765
 10
66.67818028067572
 20
242.58948805373456
 10
66.72910764201598
 20
243.25248787409149
 10
66.78079969963758
 20
243.9154876944484
 10
66.83325665864763
 20
244.57848751480532
 10
66.8864787272635
 20
245.24148733516222
 10
66.94046611681648
 20
245.90448715551912
 10
66.99521904175654
 20
246.56748697587602
 10
67.05073771965618
 20
247.23048679623292
 10
67.1070223712151
 20
247.89348661658983
 10
67.16407322026444
 20
248.55648643694678
 10
67.22189049377133
 20
249.21948625730369
 10
67.28047442184351
 20
249.8824860776606
 10
67.33982523773383
 20
250.5454858980175
 10
67.39994317784519
 20
251.2084857183744
 10
67.46082848173481
 20
251.87148553873132
 10
67.52248139211974
 20
252.53448535908822
 10
67.58490215488106
 20
253.19748517944512
 10
67.64809101906937
 20
253.86048499980205
 10
67.71204823690945
 20
254.52348482015896
 10
67.77677406380573
 20
255.18648464051586
 10
67.84226875834693
 20
255.8494844608728
 10
67.90853258231184
 20
256.5124842812297
 10
67.97556580067427
 20
257.1754841015866
 10
68.0433686816086
 20
257.8384839219435
 10
68.11194149649495
 20
258.5014837423004
 10
68.1812845199251
 20
259.1644835626573
 10
68.25139802970767
 20
259.8274833830142
 10
68.32228230687403
 20
260.4904832033712
 10
68.39393763568384
 20
261.1534830237281
 10
68.46636430363105
 20
261.816482844085
 10
68.53956260144943
 20
262.4794826644419
 10
68.61353282311885
 20
263.1424824847988
 10
68.688275265871
 20
263.8054823051557
 10
68.7637902301957
 20
264.46848212551265
 10
106.67851360115961
 20
264.46848212551265
 10
106.67851360115961
 20
264.46848212551265
 10
106.95601687812947
 20
263.8054823051557
 10
107.23023470936019
 20
263.1424824847988
 10
107.5011842552523
 20
262.4794826644419
 10
107.76888235449562
 20
261.816482844085
 10
108.0333455303008
 20
261.1534830237281
 10
108.29458999645232
 20
260.4904832033712
 10
108.55263166318909
 20
259.8274833830142
 10
108.80748614291792
 20
259.1644835626573
 10
109.05916875576568
 20
258.5014837423004
 10
109.3076945349749
 20
257.8384839219435
 10
109.55307823214818
 20
257.1754841015866
 10
109.79533432234581
 20
256.5124842812297
 10
110.03447700904152
 20
255.8494844608728
 10
110.2705202289406
 20
255.18648464051586
 10
110.50347765666478
 20
254.52348482015896
 10
110.73336270930784
 20
253.86048499980205
 10
110.96018855086584
 20
253.19748517944512
 10
111.18396809654601
 20
252.53448535908822
 10
111.4047140169578
 20
251.87148553873132
 10
111.6224387421895
 20
251.2084857183744
 10
111.83715446577384
 20
250.5454858980175
 10
112.04887314854594
 20
249.8824860776606
 10
112.25760652239691
 20
249.21948625730369
 10
112.46336609392557
 20
248.55648643694678
 10
112.66616314799168
 20
247.89348661658983
 10
112.86600875117333
 20
247.23048679623292
 10
113.06291375513123
 20
246.56748697587602
 10
113.25688879988232
 20
245.90448715551912
 10
113.4479443169856
 20
245.24148733516222
 10
113.63609053264204
 20
244.57848751480532
 10
113.8213374707116
 20
243.9154876944484
 10
114.00369495564885
 20
243.25248787409149
 10
114.1831726153599
 20
242.58948805373456
 10
114.3597798839827
 20
241.92648823337765
 10
114.53352600459246
 20
241.26348841302075
 10
114.7044200318343
 20
240.60048859266382
 10
114.87247083448486
 20
239.93748877230692
 10
115.03768709794511
 20
239.27448895195002
 10
115.20007732666556
 20
238.6114891315931
 10
115.35964984650593
 20
237.9484893112362
 10
115.51641280703069
 20
237.28548949087929
 10
115.67037418374227
 20
236.62248967052236
 10
115.8215417802532
 20
235.95948985016545
 10
115.96992323039896
 20
235.29649002980852
 10
116.11552600029236
 20
234.63349020945162
 10
116.25835739032195
 20
233.97049038909472
 10
116.39842453709412
 20
233.30749056873782
 10
116.53573441532197
 20
232.64449074838092
 10
116.67029383966079
 20
231.98149092802402
 10
116.80210946649174
 20
231.31849110766706
 10
116.93118779565563
 20
230.65549128731016
 10
117.0575351721364
 20
229.99249146695325
 10
117.18115778769695
 20
229.32949164659635
 10
117.30206168246721
 20
228.66649182623945
 10
117.42025274648577
 20
228.00349200588252
 10
117.53573672119651
 20
227.34049218552562
 10
117.64851920090041
 20
226.67749236516872
 10
117.75860563416367
 20
226.0144925448118
 10
117.86600132518362
 20
225.35149272445489
 10
117.97071143511192
 20
224.68849290409796
 10
118.0727409833375
 20
224.02549308374105
 10
118.17209484872845
 20
223.36249326338415
 10
118.26877777083459
 20
222.69949344302725
 10
118.36279435105132
 20
222.03649362267032
 10
118.45414905374477
 20
221.37349380231342
 10
118.54284620733998
 20
220.71049398195652
 10
118.62889000537157
 20
220.0474941615996
 10
118.71228450749848
 20
219.38449434124269
 10
118.79303364048303
 20
218.72149452088576
 10
118.8711411991344
 20
218.05849470052885
 10
118.94661084721804
 20
217.39549488017195
 10
119.01944611833034
 20
216.73249505981505
 10
119.0896504167404
 20
216.06949523945815
 10
119.15722701819797
 20
215.40649541910122
 10
119.22217907070933
 20
214.74349559874432
 10
119.28450959528027
 20
214.0804957783874
 10
119.34422148662796
 20
213.41749595803049
 10
119.40131751386076
 20
212.75449613767358
 10
119.4558003211273
 20
212.09149631731665
 10
119.50767242823483
 20
211.42849649695975
 10
119.55693623123713
 20
210.76549667660285
 10
119.60359400299245
 20
210.10249685624592
 10
119.64764789369156
 20
209.43949703588902
 10
119.68909993135668
 20
208.77649721553212
 10
119.72795202231086
 20
208.11349739517522
 10
119.76420595161878
 20
207.45049757481829
 10
119.79786338349868
 20
206.78749775446138
 10
119.82892586170576
 20
206.12449793410445
 10
119.85739480988755
 20
205.46149811374755
 10
119.88327153191113
 20
204.79849829339065
 10
119.90655721216245
 20
204.13549847303372
 10
119.92725291581797
 20
203.47249865267682
 10
119.94535958908858
 20
202.80949883231992
 10
119.96087805943631
 20
202.14649901196302
 10
119.97380903576357
 20
201.48349919160609
 10
119.98415310857524
 20
200.82049937124918
 10
119.99191075011348
 20
200.15749955089228
 10
119.9970823144657
 20
199.49449973053535
 10
119.99966803764522
 20
198.83149991017845
 10
119.99966803764522
 20
198.16850008982155
 10
119.9970823144657
 20
197.50550026946462
 10
119.99191075011348
 20
196.84250044910772
 10
119.98415310857524
 20
196.17950062875082
 10
119.97380903576357
 20
195.5165008083939
 10
119.96087805943631
 20
194.85350098803698
 10
119.94535958908858
 20
194.19050116768008
 10
119.92725291581797
 20
193.52750134732315
 10
119.90655721216245
 20
192.86450152696625
 10
119.88327153191113
 20
192.20150170660935
 10
119.85739480988755
 20
191.53850188625242
 10
119.82892586170576
 20
190.87550206589552
 10
119.79786338349868
 20
190.21250224553862
 10
119.76420595161878
 20
189.5495024251817
 10
119.72795202231086
 20
188.88650260482478
 10
119.68909993135668
 20
188.22350278446788
 10
119.64764789369156
 20
187.56050296411095
 10
119.60359400299245
 20
186.89750314375405
 10
119.55693623123713
 20
186.23450332339715
 10
119.50767242823483
 20
185.57150350304025
 10
119.4558003211273
 20
184.90850368268332
 10
119.40131751386076
 20
184.24550386232642
 10
119.34422148662796
 20
183.58250404196951
 10
119.28450959528027
 20
182.91950422161258
 10
119.22217907070933
 20
182.25650440125568
 10
119.15722701819797
 20
181.59350458089875
 10
119.0896504167404
 20
180.93050476054185
 10
119.01944611833034
 20
180.26750494018495
 10
118.94661084721804
 20
179.60450511982805
 10
118.8711411991344
 20
178.94150529947112
 10
118.79303364048303
 20
178.27850547911422
 10
118.71228450749848
 20
177.61550565875731
 10
118.62889000537157
 20
176.95250583840038
 10
118.54284620733998
 20
176.28950601804348
 10
118.45414905374477
 20
175.62650619768658
 10
118.36279435105132
 20
174.96350637732965
 10
118.26877777083459
 20
174.30050655697275
 10
118.17209484872845
 20
173.63750673661585
 10
118.0727409833375
 20
172.97450691625892
 10
117.97071143511192
 20
172.31150709590202
 10
117.86600132518362
 20
171.64850727554511
 10
117.75860563416367
 20
170.98550745518818
 10
117.64851920090041
 20
170.32250763483128
 10
117.53573672119651
 20
169.65950781447438
 10
117.42025274648577
 20
168.99650799411745
 10
117.30206168246721
 20
168.33350817376055
 10
117.18115778769695
 20
167.67050835340365
 10
117.0575351721364
 20
167.00750853304672
 10
116.93118779565563
 20
166.34450871268982
 10
116.80210946649174
 20
165.68150889233291
 10
116.67029383966079
 20
165.01850907197598
 10
116.53573441532197
 20
164.35550925161908
 10
116.39842453709412
 20
163.69250943126218
 10
116.25835739032195
 20
163.02950961090528
 10
116.11552600029236
 20
162.36650979054835
 10
115.96992323039896
 20
161.70350997019145
 10
115.8215417802532
 20
161.04051014983452
 10
115.67037418374227
 20
160.37751032947762
 10
115.51641280703069
 20
159.71451050912071
 10
115.35964984650593
 20
159.0515106887638
 10
115.20007732666556
 20
158.38851086840688
 10
115.03768709794511
 20
157.72551104804998
 10
114.87247083448486
 20
157.06251122769305
 10
114.7044200318343
 20
156.39951140733615
 10
114.53352600459246
 20
155.73651158697925
 10
114.3597798839827
 20
155.07351176662235
 10
114.1831726153599
 20
154.41051194626544
 10
114.00369495564885
 20
153.74751212590851
 10
113.8213374707116
 20
153.0845123055516
 10
113.63609053264204
 20
152.42151248519468
 10
113.4479443169856
 20
151.75851266483778
 10
113.25688879988232
 20
151.09551284448088
 10
113.06291375513118
 20
150.43251302412395
 10
112.86600875117333
 20
149.76951320376705
 10
112.66616314799168
 20
149.10651338341015
 10
112.46336609392557
 20
148.44351356305322
 10
112.25760652239691
 20
147.78051374269631
 10
112.04887314854594
 20
147.1175139223394
 10
111.83715446577384
 20
146.4545141019825
 10
111.6224387421895
 20
145.79151428162558
 10
111.4047140169578
 20
145.12851446126865
 10
111.18396809654598
 20
144.46551464091175
 10
110.96018855086581
 20
143.80251482055485
 10
110.73336270930784
 20
143.13951500019795
 10
110.50347765666478
 20
142.47651517984104
 10
110.2705202289406
 20
141.81351535948411
 10
110.03447700904152
 20
141.1505155391272
 10
109.79533432234581
 20
140.48751571877028
 10
109.55307823214818
 20
139.82451589841338
 10
109.3076945349749
 20
139.16151607805648
 10
109.05916875576568
 20
138.49851625769958
 10
108.80748614291792
 20
137.83551643734265
 10
108.55263166318909
 20
137.17251661698575
 10
108.29458999645232
 20
136.50951679662882
 10
108.0333455303008
 20
135.84651697627191
 10
107.76888235449562
 20
135.183517155915
 10
107.5011842552523
 20
134.5205173355581
 10
107.23023470936019
 20
133.85751751520118
 10
106.95601687812947
 20
133.19451769484428
 10
106.67851360115961
 20
132.53151787448735
 10
68.7637902301957
 20
132.53151787448735
 97
0
 75
1
 76
1
 52
0.0
 41
1.0
 77
0
 78
1
 53
45.0
 43
0.0
 44
0.0
 45
-2.2450640303
 46
2.2450640303
 79
0
 98
0
  0
HATCH
  5
9A
330
17
100
AcDbEntity
  8
OUTLINE
 62
7
100
AcDbHatch
 10
0.0
 20
0.0
 30
0.0
210
0.0
220
0.0
230
1.0
  2
ANSI31
 70
0
 71
0
 91
1
 92
3
 72
0
 73
1
 93
402
 10
106.67851360115961
 20
132.53151787448735
 10
106.95601687812947
 20
133.19451769484428
 10
107.23023470936019
 20
133.85751751520118
 10
107.5011842552523
 20
134.5205173355581
 10
107.76888235449562
 20
135.183517155915
 10
108.0333455303008
 20
135.84651697627191
 10
108.29458999645232
 20
136.50951679662882
 10
108.55263166318909
 20
137.17251661698575
 10
108.80748614291792
 20
137.83551643734265
 10
109.05916875576568
 20
138.49851625769958
 10
109.3076945349749
 20
139.16151607805648
 10
109.55307823214818
 20
139.82451589841338
 10
109.79533432234581
 20
140.48751571877028
 10
110.03447700904152
 20
141.1505155391272
 10
110.2705202289406
 20
141.81351535948411
 10
110.50347765666478
 20
142.47651517984104
 10
110.73336270930784
 20
143.13951500019795
 10
110.96018855086581
 20
143.80251482055485
 10
111.18396809654598
 20
144.46551464091175
 10
111.4047140169578
 20
145.12851446126865
 10
111.6224387421895
 20
145.79151428162558
 10
111.83715446577384
 20
146.4545141019825
 10
112.04887314854594
 20
147.1175139223394
 10
112.25760652239691
 20
147.78051374269631
 10
112.46336609392557
 20
148.44351356305322
 10
112.66616314799168
 20
149.10651338341015
 10
112.86600875117333
 20
149.76951320376705
 10
113.06291375513118
 20
150.43251302412395
 10
113.25688879988232
 20
151.09551284448088
 10
113.4479443169856
 20
151.75851266483778
 10
113.63609053264204
 20
152.42151248519468
 10
113.8213374707116
 20
153.0845123055516
 10
114.00369495564885
 20
153.74751212590851
 10
114.1831726153599
 20
154.41051194626544
 10
114.3597798839827
 20
155.07351176662235
 10
114.53352600459246
 20
155.73651158697925
 10
114.7044200318343
 20
156.39951140733615
 10
114.87247083448486
 20
157.06251122769305
 10
115.03768709794511
 20
157.72551104804998
 10
115.20007732666556
 20
158.38851086840688
 10
115.35964984650593
 20
159.0515106887638
 10
115.51641280703069
 20
159.71451050912071
 10
115.67037418374227
 20
160.37751032947762
 10
115.8215417802532
 20
161.04051014983452
 10
115.96992323039896
 20
161.70350997019145
 10
116.11552600029236
 20
162.36650979054835
 10
116.25835739032195
 20
163.02950961090528
 10
116.39842453709412
 20
163.69250943126218
 10
116.53573441532197
 20
164.35550925161908
 10
116.67029383966079
 20
165.01850907197598
 10
116.80210946649174
 20
165.68150889233291
 10
116.93118779565563
 20
166.34450871268982
 10
117.0575351721364
 20
167.00750853304672
 10
117.18115778769695
 20
167.67050835340365
 10
117.30206168246721
 20
168.33350817376055
 10
117.42025274648577
 20
168.99650799411745
 10
117.53573672119651
 20
169.65950781447438
 10
117.64851920090041
 20
170.32250763483128
 10
117.75860563416367
 20
170.98550745518818
 10
117.86600132518362
 20
171.64850727554511
 10
117.97071143511192
 20
172.31150709590202
 10
118.0727409833375
 20
172.97450691625892
 10
118.17209484872845
 20
173.63750673661585
 10
118.26877777083459
 20
174.30050655697275
 10
118.36279435105132
 20
174.96350637732965
 10
118.45414905374477
 20
175.62650619768658
 10
118.54284620733998
 20
176.28950601804348
 10
118.62889000537157
 20
176.95250583840038
 10
118.71228450749848
 20
177.61550565875731
 10
118.79303364048303
 20
178.27850547911422
 10
118.8711411991344
 20
178.94150529947112
 10
118.94661084721804
 20
179.60450511982805
 10
119.01944611833034
 20
180.26750494018495
 10
119.0896504167404
 20
180.93050476054185
 10
119.15722701819797
 20
181.59350458089875
 10
119.22217907070933
 20
182.25650440125568
 10
119.28450959528027
 20
182.91950422161258
 10
119.34422148662796
 20
183.58250404196951
 10
119.40131751386076
 20
184.24550386232642
 10
119.4558003211273
 20
184.90850368268332
 10
119.50767242823483
 20
185.57150350304025
 10
119.55693623123713
 20
186.23450332339715
 10
119.60359400299245
 20
186.89750314375405
 10
119.64764789369156
 20
187.56050296411095
 10
119.68909993135668
 20
188.22350278446788
 10
119.72795202231086
 20
188.88650260482478
 10
119.76420595161878
 20
189.5495024251817
 10
119.79786338349868
 20
190.21250224553862
 10
119.82892586170576
 20
190.87550206589552
 10
119.85739480988755
 20
191.53850188625242
 10
119.88327153191113
 20
192.20150170660935
 10
119.90655721216245
 20
192.86450152696625
 10
119.92725291581797
 20
193.52750134732315
 10
119.94535958908858
 20
194.19050116768008
 10
119.96087805943631
 20
194.85350098803698
 10
119.97380903576357
 20
195.5165008083939
 10
119.98415310857524
 20
196.17950062875082
 10
119.99191075011348
 20
196.84250044910772
 10
119.9970823144657
 20
197.50550026946462
 10
119.99966803764522
 20
198.16850008982155
 10
119.99966803764522
 20
198.83149991017845
 10
119.9970823144657
 20
199.49449973053535
 10
119.99191075011348
 20
200.15749955089228
 10
119.98415310857524
 20
200.82049937124918
 10
119.97380903576357
 20
201.48349919160609
 10
119.96087805943631
 20
202.14649901196302
 10
119.94535958908858
 20
202.80949883231992
 10
119.92725291581797
 20
203.47249865267682
 10
119.90655721216245
 20
204.13549847303372
 10
119.88327153191113
 20
204.79849829339065
 10
119.85739480988755
 20
205.46149811374755
 10
119.82892586170576
 20
206.12449793410445
 10
119.79786338349868
 20
206.78749775446138
 10
119.76420595161878
 20
207.45049757481829
 10
119.72795202231086
 20
208.11349739517522
 10
119.68909993135668
 20
208.77649721553212
 10
119.64764789369156
 20
209.43949703588902
 10
119.60359400299245
 20
210.10249685624592
 10
119.55693623123713
 20
210.76549667660285
 10
119.50767242823483
 20
211.42849649695975
 10
119.4558003211273
 20
212.09149631731665
 10
119.40131751386076
 20
212.75449613767358
 10
119.34422148662796
 20
213.41749595803049
 10
119.28450959528027
 20
214.0804957783874
 10
119.22217907070933
 20
214.74349559874432
 10
119.15722701819797
 20
215.40649541910122
 10
119.0896504167404
 20
216.06949523945815
 10
119.01944611833034
 20
216.73249505981505
 10
118.94661084721804
 20
217.39549488017195
 10
118.8711411991344
 20
218.05849470052885
 10
118.79303364048303
 20
218.72149452088576
 10
118.71228450749848
 20
219.38449434124269
 10
118.62889000537157
 20
220.0474941615996
 10
118.54284620733998
 20
220.71049398195652
 10
118.45414905374477
 20
221.37349380231342
 10
118.36279435105132
 20
222.03649362267032
 10
118.26877777083459
 20
222.69949344302725
 10
118.17209484872845
 20
223.36249326338415
 10
118.0727409833375
 20
224.02549308374105
 10
117.97071143511192
 20
224.68849290409796
 10
117.86600132518362
 20
225.35149272445489
 10
117.75860563416367
 20
226.0144925448118
 10
117.64851920090041
 20
226.67749236516872
 10
117.53573672119651
 20
227.34049218552562
 10
117.42025274648577
 20
228.00349200588252
 10
117.30206168246721
 20
228.66649182623945
 10
117.18115778769695
 20
229.32949164659635
 10
117.0575351721364
 20
229.99249146695325
 10
116.93118779565563
 20
230.65549128731016
 10
116.80210946649174
 20
231.31849110766706
 10
116.67029383966079
 20
231.98149092802402
 10
116.53573441532197
 20
232.64449074838092
 10
116.39842453709412
 20
233.30749056873782
 10
116.25835739032195
 20
233.97049038909472
 10
116.11552600029236
 20
234.63349020945162
 10
115.96992323039896
 20
235.29649002980852
 10
115.8215417802532
 20
235.95948985016545
 10
115.67037418374227
 20
236.62248967052236
 10
115.51641280703069
 20
237.28548949087929
 10
115.35964984650593
 20
237.9484893112362
 10
115.20007732666556
 20
238.6114891315931
 10
115.03768709794511
 20
239.27448895195002
 10
114.87247083448486
 20
239.93748877230692
 10
114.7044200318343
 20
240.60048859266382
 10
114.53352600459246
 20
241.26348841302075
 10
114.3597798839827
 20
241.92648823337765
 10
114.1831726153599
 20
242.58948805373456
 10
114.00369495564885
 20
243.25248787409149
 10
113.8213374707116
 20
243.9154876944484
 10
113.63609053264204
 20
244.57848751480532
 10
113.4479443169856
 20
245.24148733516222
 10
113.25688879988232
 20
245.90448715551912
 10
113.06291375513123
 20
246.56748697587602
 10
112.86600875117333
 20
247.23048679623292
 10
112.66616314799168
 20
247.89348661658983
 10
112.46336609392557
 20
248.55648643694678
 10
112.25760652239691
 20
249.21948625730369
 10
112.04887314854594
 20
249.8824860776606
 10
111.83715446577384
 20
250.5454858980175
 10
111.6224387421895
 20
251.2084857183744
 10
111.4047140169578
 20
251.87148553873132
 10
111.18396809654601
 20
252.53448535908822
 10
110.96018855086584
 20
253.19748517944512
 10
110.73336270930784
 20
253.86048499980205
 10
110.50347765666478
 20
254.52348482015896
 10
110.2705202289406
 20
255.18648464051586
 10
110.03447700904152
 20
255.8494844608728
 10
109.79533432234581
 20
256.5124842812297
 10
109.55307823214818
 20
257.1754841015866
 10
109.3076945349749
 20
257.8384839219435
 10
109.05916875576568
 20
258.5014837423004
 10
108.80748614291792
 20
259.1644835626573
 10
108.55263166318909
 20
259.8274833830142
 10
108.29458999645232
 20
260.4904832033712
 10
108.0333455303008
 20
261.1534830237281
 10
107.76888235449562
 20
261.816482844085
 10
107.5011842552523
 20
262.4794826644419
 10
107.23023470936019
 20
263.1424824847988
 10
106.95601687812947
 20
263.8054823051557
 10
106.67851360115961
 20
264.46848212551265
 10
142.09313093639165
 20
264.46848212551265
 10
142.09313093639165
 20
264.46848212551265
 10
142.15137750402104
 20
263.8054823051557
 10
142.2090312505991
 20
263.1424824847988
 10
142.26609231333933
 20
262.4794826644419
 10
142.322560828003
 20
261.816482844085
 10
142.37843692890098
 20
261.1534830237281
 10
142.43372074889484
 20
260.4904832033712
 10
142.48841241939894
 20
259.8274833830142
 10
142.5425120703816
 20
259.1644835626573
 10
142.5960198303671
 20
258.5014837423004
 10
142.64893582643683
 20
257.8384839219435
 10
142.70126018423096
 20
257.1754841015866
 10
142.75299302794994
 20
256.5124842812297
 10
142.80413448035605
 20
255.8494844608728
 10
142.85468466277476
 20
255.18648464051586
 10
142.9046436950962
 20
254.52348482015896
 10
142.9540116957768
 20
253.86048499980205
 10
143.00278878184028
 20
253.19748517944512
 10
143.0509750688794
 20
252.53448535908822
 10
143.09857067105722
 20
251.87148553873132
 10
143.14557570110858
 20
251.2084857183744
 10
143.19199027034122
 20
250.5454858980175
 10
143.23781448863716
 20
249.8824860776606
 10
143.2830484644542
 20
249.21948625730369
 10
143.3276923048272
 20
248.55648643694678
 10
143.3717461153689
 20
247.89348661658983
 10
143.41521000027186
 20
247.23048679623292
 10
143.4580840623091
 20
246.56748697587602
 10
143.50036840283573
 20
245.90448715551912
 10
143.54206312179
 20
245.24148733516222
 10
143.58316831769437
 20
244.57848751480532
 10
143.62368408765698
 20
243.9154876944484
 10
143.66361052737247
 20
243.25248787409149
 10
143.70294773112332
 20
242.58948805373456
 10
143.74169579178093
 20
241.92648823337765
 10
143.7798548008067
 20
241.26348841302075
 10
143.81742484825318
 20
240.60048859266382
 10
143.85440602276495
 20
239.93748877230692
 10
143.89079841157988
 20
239.27448895195002
 10
143.92660210053018
 20
238.6114891315931
 10
143.96181717404315
 20
237.9484893112362
 10
143.99644371514236
 20
237.28548949087929
 10
144.03048180544883
 20
236.62248967052236
 10
144.06393152518157
 20
235.95948985016545
 10
144.09679295315883
 20
235.29649002980852
 10
144.12906616679894
 20
234.63349020945162
 10
144.16075124212122
 20
233.97049038909472
 10
144.19184825374688
 20
233.30749056873782
 10
144.22235727490002
 20
232.64449074838092
 10
144.2522783774082
 20
231.98149092802402
 10
144.28161163170373
 20
231.31849110766706
 10
144.3103571068239
 20
230.65549128731016
 10
144.33851487041247
 20
229.99249146695325
 10
144.36608498871996
 20
229.32949164659635
 10
144.3930675266047
 20
228.66649182623945
 10
144.4194625475334
 20
228.00349200588252
 10
144.4452701135821
 20
227.34049218552562
 10
144.47049028543668
 20
226.67749236516872
 10
144.49512312239395
 20
226.0144925448118
 10
144.51916868236177
 20
225.35149272445489
 10
144.54262702186034
 20
224.68849290409796
 10
144.56549819602245
 20
224.02549308374105
 10
144.58778225859422
 20
223.36249326338415
 10
144.60947926193583
 20
222.69949344302725
 10
144.63058925702225
 20
222.03649362267032
 10
144.65111229344328
 20
221.37349380231342
 10
144.67104841940497
 20
220.71049398195652
 10
144.69039768172942
 20
220.0474941615996
 10
144.70916012585573
 20
219.38449434124269
 10
144.72733579584062
 20
218.72149452088576
 10
144.74492473435853
 20
218.05849470052885
 10
144.7619269827026
 20
217.39549488017195
 10
144.7783425807847
 20
216.73249505981505
 10
144.79417156713643
 20
216.06949523945815
 10
144.80941397890902
 20
215.40649541910122
 10
144.8240698518741
 20
214.74349559874432
 10
144.83813922042404
 20
214.0804957783874
 10
144.85162211757236
 20
213.41749595803049
 10
144.8645185749542
 20
212.75449613767358
 10
144.87682862282637
 20
212.09149631731665
 10
144.88855229006813
 20
211.42849649695975
 10
144.8996896041813
 20
210.76549667660285
 10
144.91024059129066
 20
210.10249685624592
 10
144.920205276144
 20
209.43949703588902
 10
144.92958368211296
 20
208.77649721553212
 10
144.9383758311927
 20
208.11349739517522
 10
144.94658174400254
 20
207.45049757481829
 10
144.95420143978603
 20
206.78749775446138
 10
144.96123493641127
 20
206.12449793410445
 10
144.96768225037115
 20
205.46149811374755
 10
144.97354339678347
 20
204.79849829339065
 10
144.9788183893909
 20
204.13549847303372
 10
144.98350724056164
 20
203.47249865267682
 10
144.98760996128922
 20
202.80949883231992
 10
144.99112656119266
 20
202.14649901196302
 10
144.99405704851662
 20
201.48349919160609
 10
144.99640143013144
 20
200.82049937124918
 10
144.99815971153348
 20
200.15749955089228
 10
144.99933189684478
 20
199.49449973053535
 10
144.99991798881345
 20
198.83149991017845
 10
144.99991798881345
 20
198.16850008982155
 10
144.99933189684478
 20
197.50550026946462
 10
144.99815971153348
 20
196.84250044910772
 10
144.99640143013144
 20
196.17950062875082
 10
144.99405704851662
 20
195.5165008083939
 10
144.99112656119266
 20
194.85350098803698
 10
144.98760996128922
 20
194.19050116768008
 10
144.98350724056164
 20
193.52750134732315
 10
144.9788183893909
 20
192.86450152696625
 10
144.97354339678347
 20
192.20150170660935
 10
144.96768225037115
 20
191.53850188625242
 10
144.96123493641127
 20
190.87550206589552
 10
144.95420143978603
 20
190.21250224553862
 10
144.94658174400254
 20
189.5495024251817
 10
144.9383758311927
 20
188.88650260482478
 10
144.92958368211296
 20
188.22350278446788
 10
144.920205276144
 20
187.56050296411095
 10
144.91024059129066
 20
186.89750314375405
 10
144.8996896041813
 20
186.23450332339715
 10
144.88855229006813
 20
185.57150350304025
 10
144.87682862282637
 20
184.90850368268332
 10
144.8645185749542
 20
184.24550386232642
 10
144.85162211757236
 20
183.58250404196951
 10
144.83813922042404
 20
182.91950422161258
 10
144.8240698518741
 20
182.25650440125568
 10
144.80941397890902
 20
181.59350458089875
 10
144.79417156713643
 20
180.93050476054185
 10
144.7783425807847
 20
180.26750494018495
 10
144.7619269827026
 20
179.60450511982805
 10
144.74492473435853
 20
178.94150529947112
 10
144.72733579584062
 20
178.27850547911422
 10
144.70916012585573
 20
177.61550565875731
 10
144.69039768172942
 20
176.95250583840038
 10
144.67104841940497
 20
176.28950601804348
 10
144.65111229344328
 20
175.62650619768658
 10
144.63058925702225
 20
174.96350637732965
 10
144.60947926193583
 20
174.30050655697275
 10
144.58778225859422
 20
173.63750673661585
 10
144.56549819602245
 20
172.97450691625892
 10
144.54262702186034
 20
172.31150709590202
 10
144.51916868236177
 20
171.64850727554511
 10
144.49512312239395
 20
170.98550745518818
 10
144.47049028543668
 20
170.32250763483128
 10
144.4452701135821
 20
169.65950781447438
 10
144.4194625475334
 20
168.99650799411745
 10
144.39306752660465
 20
168.33350817376055
 10
144.36608498871996
 20
167.67050835340365
 10
144.33851487041247
 20
167.00750853304672
 10
144.3103571068239
 20
166.34450871268982
 10
144.28161163170367
 20
165.68150889233291
 10
144.2522783774082
 20
165.01850907197598
 10
144.22235727490002
 20
164.35550925161908
 10
144.19184825374688
 20
163.69250943126218
 10
144.16075124212122
 20
163.02950961090528
 10
144.12906616679894
 20
162.36650979054835
 10
144.09679295315883
 20
161.70350997019145
 10
144.06393152518157
 20
161.04051014983452
 10
144.03048180544883
 20
160.37751032947762
 10
143.99644371514236
 20
159.71451050912071
 10
143.96181717404315
 20
159.0515106887638
 10
143.92660210053018
 20
158.38851086840688
 10
143.89079841157988
 20
157.72551104804998
 10
143.85440602276495
 20
157.06251122769305
 10
143.81742484825318
 20
156.39951140733615
 10
143.7798548008067
 20
155.73651158697925
 10
143.74169579178093
 20
155.07351176662235
 10
143.70294773112332
 20
154.41051194626544
 10
143.66361052737247
 20
153.74751212590851
 10
143.62368408765698
 20
153.0845123055516
 10
143.58316831769437
 20
152.42151248519468
 10
143.54206312179
 20
151.75851266483778
 10
143.50036840283573
 20
151.09551284448088
 10
143.4580840623091
 20
150.43251302412395
 10
143.41521000027186
 20
149.76951320376705
 10
143.3717461153689
 20
149.10651338341015
 10
143.3276923048272
 20
148.44351356305322
 10
143.2830484644542
 20
147.78051374269631
 10
143.2378144886371
 20
147.1175139223394
 10
143.19199027034122
 20
146.4545141019825
 10
143.14557570110858
 20
145.79151428162558
 10
143.09857067105722
 20
145.12851446126865
 10
143.0509750688794
 20
144.46551464091175
 10
143.00278878184028
 20
143.80251482055485
 10
142.9540116957768
 20
143.13951500019795
 10
142.9046436950962
 20
142.47651517984104
 10
142.85468466277476
 20
141.81351535948411
 10
142.80413448035605
 20
141.1505155391272
 10
142.75299302794994
 20
140.48751571877028
 10
142.70126018423096
 20
139.82451589841338
 10
142.64893582643683
 20
139.16151607805648
 10
142.5960198303671
 20
138.49851625769958
 10
142.5425120703816
 20
137.83551643734265
 10
142.48841241939888
 20
137.17251661698575
 10
142.43372074889479
 20
136.50951679662882
 10
142.37843692890098
 20
135.84651697627191
 10
142.322560828003
 20
135.183517155915
 10
142.26609231333933
 20
134.5205173355581
 10
142.2090312505991
 20
133.85751751520118
 10
142.15137750402104
 20
133.19451769484428
 10
142.09313093639165
 20
132.53151787448735
 10
106.67851360115961
 20
132.53151787448735
 97
0
 75
1
 76
1
 52
90.0
 41
1.0
 77
0
 78
1
 53
135.0
 43
0.0
 44
0.0
 45
-2.2450640303
 46
-2.2450640303
 79
0
 98
0
  0
LINE
  5
9B
330
17
100
AcDbEntity
  8
DIMS
100
AcDbLine
 10
64.9999912502773
 20
131.03151787448735
 30
0.0
 11
64.9999912502773
 21
124.53151787448736
 31
0.0
  0
LINE
  5
9C
330
17
100
AcDbEntity
  8
DIMS
100
AcDbLine
 10
144.9999912502773
 20
131.03151787448735
 30
0.0
 11
144.9999912502773
 21
124.53151787448736
 31
0.0
  0
LINE
  5
9D
330
17
100
AcDbEntity
  8
DIMS
100
AcDbLine
 10
64.9999912502773
 20
124.53151787448736
 30
0.0
 11
144.9999912502773
 21
124.53151787448736
 31
0.0
  0
SOLID
  5
9E
330
17
100
AcDbEntity
  8
DIMS
100
AcDbTrace
 10
64.9999912502773
 20
124.53151787448736
 30
0.0
 11
67.4999912502773
 21
123.73151787448737
 31
0.0
 12
67.4999912502773
 22
125.33151787448736
 32
0.0
 13
67.4999912502773
 23
125.33151787448736
 33
0.0
  0
SOLID
  5
9F
330
17
100
AcDbEntity
  8
DIMS
100
AcDbTrace
 10
144.9999912502773
 20
124.53151787448736
 30
0.0
 11
142.4999912502773
 21
125.33151787448736
 31
0.0
 12
142.4999912502773
 22
123.73151787448737
 32
0.0
 13
142.4999912502773
 23
123.73151787448737
 33
0.0
  0
TEXT
  5
A0
330
17
100
AcDbEntity
  8
DIMS
100
AcDbText
 10
104.9999912502773
 20
120.53151787448736
 30
0.0
 40
2.5
  1
8.00
 72
4
 11
104.9999912502773
 21
120.53151787448736
 31
0.0
100
AcDbText
 73
3
  0
LINE
  5
A1
330
17
100
AcDbEntity
  8
DIMS
100
AcDbLine
 10
142.09313093639165
 20
264.46848212551265
 30
0.0
 11
156.99991798881345
 21
264.46848212551265
 31
0.0
  0
LINE
  5
A2
330
17
100
AcDbEntity
  8
DIMS
100
AcDbLine
 10
68.7637902301957
 20
132.53151787448735
 30
0.0
 11
156.99991798881345
 21
132.53151787448735
 31
0.0
  0
LINE
  5
A3
330
17
100
AcDbEntity
  8
DIMS
100
AcDbLine
 10
154.99991798881345
 20
264.46848212551265
 30
0.0
 11
154.99991798881345
 21
132.53151787448735
 31
0.0
  0
SOLID
  5
A4
330
17
100
AcDbEntity
  8
DIMS
100
AcDbTrace
 10
154.99991798881345
 20
264.46848212551265
 30
0.0
 11
154.19991798881344
 21
261.96848212551265
 31
0.0
 12
155.79991798881346
 22
261.96848212551265
 32
0.0
 13
155.79991798881346
 23
261.96848212551265
 33
0.0
  0
SOLID
  5
A5
330
17
100
AcDbEntity
  8
DIMS
100
AcDbTrace
 10
154.99991798881345
 20
132.53151787448735
 30
0.0
 11
155.79991798881346
 21
135.03151787448735
 31
0.0
 12
154.19991798881344
 22
135.03151787448735
 32
0.0
 13
154.19991798881344
 23
135.03151787448735
 33
0.0
  0
TEXT
  5
A6
330
17
100
AcDbEntity
  8
DIMS
100
AcDbText
 10
157.99991798881345
 20
198.5
 30
0.0
 40
2.5
  1
Ø 13.19
100
AcDbText
 73
2
  0
LINE
  5
A7
330
17
100
AcDbEntity
  8
DIMS
100
AcDbLine
 10
68.7637902301957
 20
265.96848212551265
 30
0.0
 11
68.7637902301957
 21
272.46848212551265
 31
0.0
  0
LINE
  5
A8
330
17
100
AcDbEntity
  8
DIMS
100
AcDbLine
 10
142.09313093639165
 20
265.96848212551265
 30
0.0
 11
142.09313093639165
 21
272.46848212551265
 31
0.0
  0
LINE
  5
A9
330
17
100
AcDbEntity
  8
DIMS
100
AcDbLine
 10
68.7637902301957
 20
272.46848212551265
 30
0.0
 11
142.09313093639165
 21
272.46848212551265
 31
0.0
  0
SOLID
  5
AA
330
17
100
AcDbEntity
  8
DIMS
100
AcDbTrace
 10
68.7637902301957
 20
272.46848212551265
 30
0.0
 11
71.2637902301957
 21
271.66848212551264
 31
0.0
 12
71.2637902301957
 22
273.26848212551266
 32
0.0
 13
71.2637902301957
 23
273.26848212551266
 33
0.0
  0
SOLID
  5
AB
330
17
100
AcDbEntity
  8
DIMS
100
AcDbTrace
 10
142.09313093639165
 20
272.46848212551265
 30
0.0
 11
139.59313093639165
 21
273.26848212551266
 31
0.0
 12
139.59313093639165
 22
271.66848212551264
 32
0.0
 13
139.59313093639165
 23
271.66848212551264
 33
0.0
  0
TEXT
  5
AC
330
17
100
AcDbEntity
  8
DIMS
100
AcDbText
 10
105.42846058329367
 20
274.46848212551265
 30
0.0
 40
2.5
  1
(7.33)
 72
4
 11
105.42846058329367
 21
274.46848212551265
 31
0.0
100
AcDbText
 73
1
  0
LINE
  5
AD
330
17
100
AcDbEntity
  8
DIMS
100
AcDbLine
 10
64.9999912502773
 20
265.96848212551265
 30
0.0
 11
64.9999912502773
 21
272.46848212551265
 31
0.0
  0
LINE
  5
AE
330
17
100
AcDbEntity
  8
DIMS
100
AcDbLine
 10
119.9999912502773
 20
265.96848212551265
 30
0.0
 11
119.9999912502773
 21
272.46848212551265
 31
0.0
  0
LINE
  5
AF
330
17
100
AcDbEntity
  8
DIMS
100
AcDbLine
 10
64.9999912502773
 20
272.46848212551265
 30
0.0
 11
119.9999912502773
 21
272.46848212551265
 31
0.0
  0
SOLID
  5
B0
330
17
100
AcDbEntity
  8
DIMS
100
AcDbTrace
 10
64.9999912502773
 20
272.46848212551265
 30
0.0
 11
67.4999912502773
 21
271.66848212551264
 31
0.0
 12
67.4999912502773
 22
273.26848212551266
 32
0.0
 13
67.4999912502773
 23
273.26848212551266
 33
0.0
  0
SOLID
  5
B1
330
17
100
AcDbEntity
  8
DIMS
100
AcDbTrace
 10
119.9999912502773
 20
272.46848212551265
 30
0.0
 11
117.4999912502773
 21
273.26848212551266
 31
0.0
 12
117.4999912502773
 22
271.66848212551264
 32
0.0
 13
117.4999912502773
 23
271.66848212551264
 33
0.0
  0
TEXT
  5
B2
330
17
100
AcDbEntity
  8
DIMS
100
AcDbText
 10
92.4999912502773
 20
274.46848212551265
 30
0.0
 40
2.0
  1
t1 = 5.50
 72
4
 11
92.4999912502773
 21
274.46848212551265
 31
0.0
100
AcDbText
 73
1
  0
LINE
  5
B3
330
17
100
AcDbEntity
  8
DIMS
100
AcDbLine
 10
119.9999912502773
 20
265.96848212551265
 30
0.0
 11
119.9999912502773
 21
272.46848212551265
 31
0.0
  0
LINE
  5
B4
330
17
100
AcDbEntity
  8
DIMS
100
AcDbLine
 10
144.9999912502773
 20
265.96848212551265
 30
0.0
 11
144.9999912502773
 21
272.46848212551265
 31
0.0
  0
LINE
  5
B5
330
17
100
AcDbEntity
  8
DIMS
100
AcDbLine
 10
119.9999912502773
 20
272.46848212551265
 30
0.0
 11
144.9999912502773
 21
272.46848212551265
 31
0.0
  0
SOLID
  5
B6
330
17
100
AcDbEntity
  8
DIMS
100
AcDbTrace
 10
119.9999912502773
 20
272.46848212551265
 30
0.0
 11
122.4999912502773
 21
271.66848212551264
 31
0.0
 12
122.4999912502773
 22
273.26848212551266
 32
0.0
 13
122.4999912502773
 23
273.26848212551266
 33
0.0
  0
SOLID
  5
B7
330
17
100
AcDbEntity
  8
DIMS
100
AcDbTrace
 10
144.9999912502773
 20
272.46848212551265
 30
0.0
 11
142.4999912502773
 21
273.26848212551266
 31
0.0
 12
142.4999912502773
 22
271.66848212551264
 32
0.0
 13
142.4999912502773
 23
271.66848212551264
 33
0.0
  0
TEXT
  5
B8
330
17
100
AcDbEntity
  8
DIMS
100
AcDbText
 10
132.4999912502773
 20
274.46848212551265
 30
0.0
 40
2.0
  1
t2 = 2.50
 72
4
 11
132.4999912502773
 21
274.46848212551265
 31
0.0
100
AcDbText
 73
1
  0
LINE
  5
B9
330
17
100
AcDbEntity
  8
DIMS
100
AcDbLine
 10
68.60541987073944
 20
263.07010209221306
 30
0.0
 11
65.60541987073944
 21
263.07010209221306
 31
0.0
  0
LINE
  5
BA
330
17
100
AcDbEntity
  8
DIMS
100
AcDbLine
 10
68.60541987073944
 20
133.92989790778694
 30
0.0
 11
65.60541987073944
 21
133.92989790778694
 31
0.0
  0
LINE
  5
BB
330
17
100
AcDbEntity
  8
DIMS
100
AcDbLine
 10
65.60541987073944
 20
133.92989790778694
 30
0.0
 11
65.60541987073944
 21
263.07010209221306
 31
0.0
  0
TEXT
  5
BC
330
17
100
AcDbEntity
  8
DIMS
100
AcDbText
 10
64.60541987073944
 20
198.5
 30
0.0
 40
2.0
  1
Øₑ 12.91
 72
2
 11
64.60541987073944
 21
198.5
 31
0.0
100
AcDbText
 73
2
  0
LINE
  5
BD
330
17
100
AcDbEntity
  8
DIMS
100
AcDbLine
 10
142.09313093639165
 20
264.46848212551265
 30
0.0
 11
145.09313093639165
 21
264.46848212551265
 31
0.0
  0
LINE
  5
BE
330
17
100
AcDbEntity
  8
DIMS
100
AcDbLine
 10
142.09313093639165
 20
132.53151787448735
 30
0.0
 11
145.09313093639165
 21
132.53151787448735
 31
0.0
  0
LINE
  5
BF
330
17
100
AcDbEntity
  8
DIMS
100
AcDbLine
 10
145.09313093639165
 20
132.53151787448735
 30
0.0
 11
145.09313093639165
 21
264.46848212551265
 31
0.0
  0
TEXT
  5
C0
330
17
100
AcDbEntity
  8
DIMS
100
AcDbText
 10
146.09313093639165
 20
198.5
 30
0.0
 40
2.0
  1
Øₑ 13.19
 11
146.09313093639165
 21
198.5
 31
0.0
100
AcDbText
 73
2
  0
LWPOLYLINE
  5
C1
330
17
100
AcDbEntity
  8
CALLOUT
100
AcDbPolyline
 90
3
 70
1
 10
67.71687600960493
 20
254.57320980668572
 10
63.685356777568934
 20
252.74000989398579
 10
64.11351857727561
 20
257.1480075530078
  0
LINE
  5
C2
330
17
100
AcDbEntity
  8
CALLOUT
100
AcDbLine
 10
67.71687600960493
 20
254.57320980668572
 30
0.0
 11
60.467817265527
 21
259.7368381927592
 31
0.0
  0
LINE
  5
C3
330
17
100
AcDbEntity
  8
CALLOUT
100
AcDbLine
 10
60.49181445901631
 20
259.68257218594516
 30
0.0
 11
60.75542090770145
 21
262.39644486095546
 31
0.0
  0
TEXT
  5
C4
330
17
100
AcDbEntity
  8
CALLOUT
100
AcDbText
 10
60.90043782961529
 20
263.8894184348537
 30
0.0
 40
2.0
  1
S1
 72
4
 11
60.90043782961529
 21
263.8894184348537
 31
0.0
100
AcDbText
 73
2
  0
LWPOLYLINE
  5
C5
330
17
100
AcDbEntity
  8
CALLOUT
100
AcDbPolyline
 90
3
 70
1
 10
143.77321949241914
 20
241.37951338158322
 10
147.47574880893083
 20
243.80954340167986
 10
147.72895194381618
 20
239.38804432770547
  0
LINE
  5
C6
330
17
100
AcDbEntity
  8
CALLOUT
100
AcDbLine
 10
143.77321949241914
 20
241.37951338158322
 30
0.0
 11
151.72867992992286
 21
237.3892051213269
 31
0.0
  0
LINE
  5
C7
330
17
100
AcDbEntity
  8
CALLOUT
100
AcDbLine
 10
151.69664111000876
 20
237.43914687549534
 30
0.0
 11
151.85253072750567
 21
234.7169617820249
 31
0.0
  0
TEXT
  5
C8
330
17
100
AcDbEntity
  8
CALLOUT
100
AcDbText
 10
151.93828975426882
 20
233.2194153255406
 30
0.0
 40
2.0
  1
S3
 72
4
 11
151.93828975426882
 21
233.2194153255406
 31
0.0
100
AcDbText
 73
2
  0
ENDSEC
  0
SECTION
  2
OBJECTS
  0
DICTIONARY
  5
A
330
0
100
AcDbDictionary
281
1
  3
ACAD_COLOR
350
B
  3
ACAD_GROUP
350
C
  3
ACAD_LAYOUT
350
D
  3
ACAD_MATERIAL
350
E
  3
ACAD_MLEADERSTYLE
350
F
  3
ACAD_MLINESTYLE
350
10
  3
ACAD_PLOTSETTINGS
350
11
  3
ACAD_PLOTSTYLENAME
350
12
  3
ACAD_SCALELIST
350
14
  3
ACAD_TABLESTYLE
350
15
  3
ACAD_VISUALSTYLE
350
16
  3
EZDXF_META
350
2D
  0
DICTIONARY
  5
B
330
A
100
AcDbDictionary
281
1
  0
DICTIONARY
  5
C
330
A
100
AcDbDictionary
281
1
  0
DICTIONARY
  5
D
330
A
100
AcDbDictionary
281
1
  3
Model
350
1A
  3
Layout1
350
1E
  0
DICTIONARY
  5
E
330
A
100
AcDbDictionary
281
1
  3
ByBlock
350
1F
  3
ByLayer
350
20
  3
Global
350
21
  0
DICTIONARY
  5
F
330
A
100
AcDbDictionary
281
1
  3
Standard
350
2C
  0
DICTIONARY
  5
10
330
A
100
AcDbDictionary
281
1
  3
Standard
350
22
  0
DICTIONARY
  5
11
330
A
100
AcDbDictionary
281
1
  0
ACDBDICTIONARYWDFLT
  5
12
330
A
100
AcDbDictionary
281
1
  3
Normal
350
13
100
AcDbDictionaryWithDefault
340
13
  0
ACDBPLACEHOLDER
  5
13
330
12
  0
DICTIONARY
  5
14
330
A
100
AcDbDictionary
281
1
  0
DICTIONARY
  5
15
330
A
100
AcDbDictionary
281
1
  0
DICTIONARY
  5
16
330
A
100
AcDbDictionary
281
1
  0
LAYOUT
  5
1A
330
D
100
AcDbPlotSettings
  1

  4
A3
  6

 40
7.5
 41
20.0
 42
7.5
 43
20.0
 44
420.0
 45
297.0
 46
0.0
 47
0.0
 48
0.0
 49
0.0
140
0.0
141
0.0
142
1.0
143
1.0
 70
1024
 72
1
 73
0
 74
5
  7

 75
16
 76
0
 77
2
 78
300
147
1.0
148
0.0
149
0.0
100
AcDbLayout
  1
Model
 70
1
 71
0
 10
0.0
 20
0.0
 11
420.0
 21
297.0
 12
0.0
 22
0.0
 32
0.0
 14
1e+20
 24
1e+20
 34
1e+20
 15
-1e+20
 25
-1e+20
 35
-1e+20
146
0.0
 13
0.0
 23
0.0
 33
0.0
 16
1.0
 26
0.0
 36
0.0
 17
0.0
 27
1.0
 37
0.0
 76
1
330
17
  0
LAYOUT
  5
1E
330
D
100
AcDbPlotSettings
  1

  4
A3
  6

 40
7.5
 41
20.0
 42
7.5
 43
20.0
 44
420.0
 45
297.0
 46
0.0
 47
0.0
 48
0.0
 49
0.0
140
0.0
141
0.0
142
1.0
143
1.0
 70
0
 72
1
 73
0
 74
5
  7

 75
16
 76
0
 77
2
 78
300
147
1.0
148
0.0
149
0.0
100
AcDbLayout
  1
Layout1
 70
1
 71
1
 10
0.0
 20
0.0
 11
420.0
 21
297.0
 12
0.0
 22
0.0
 32
0.0
 14
1e+20
 24
1e+20
 34
1e+20
 15
-1e+20
 25
-1e+20
 35
-1e+20
146
0.0
 13
0.0
 23
0.0
 33
0.0
 16
1.0
 26
0.0
 36
0.0
 17
0.0
 27
1.0
 37
0.0
 76
1
330
1B
  0
MATERIAL
  5
1F
102
{ACAD_REACTORS
330
E
102
}
330
E
100
AcDbMaterial
  1
ByBlock
  2

 70
0
 40
1.0
 71
1
 41
1.0
 91
-1023410177
 42
1.0
 72
1
  3

 73
1
 74
1
 75
1
 44
0.5
 73
0
 45
1.0
 46
1.0
 77
1
  4

 78
1
 79
1
170
1
 48
1.0
171
1
  6

172
1
173
1
174
1
140
1.0
141
1.0
175
1
  7

176
1
177
1
178
1
143
1.0
179
1
  8

270
1
271
1
272
1
145
1.0
146
1.0
273
1
  9

274
1
275
1
276
1
 42
1.0
 72
1
  3

 73
1
 74
1
 75
1
 94
63
  0
MATERIAL
  5
20
102
{ACAD_REACTORS
330
E
102
}
330
E
100
AcDbMaterial
  1
ByLayer
  2

 70
0
 40
1.0
 71
1
 41
1.0
 91
-1023410177
 42
1.0
 72
1
  3

 73
1
 74
1
 75
1
 44
0.5
 73
0
 45
1.0
 46
1.0
 77
1
  4

 78
1
 79
1
170
1
 48
1.0
171
1
  6

172
1
173
1
174
1
140
1.0
141
1.0
175
1
  7

176
1
177
1
178
1
143
1.0
179
1
  8

270
1
271
1
272
1
145
1.0
146
1.0
273
1
  9

274
1
275
1
276
1
 42
1.0
 72
1
  3

 73
1
 74
1
 75
1
 94
63
  0
MATERIAL
  5
21
102
{ACAD_REACTORS
330
E
102
}
330
E
100
AcDbMaterial
  1
Global
  2

 70
0
 40
1.0
 71
1
 41
1.0
 91
-1023410177
 42
1.0
 72
1
  3

 73
1
 74
1
 75
1
 44
0.5
 73
0
 45
1.0
 46
1.0
 77
1
  4

 78
1
 79
1
170
1
 48
1.0
171
1
  6

172
1
173
1
174
1
140
1.0
141
1.0
175
1
  7

176
1
177
1
178
1
143
1.0
179
1
  8

270
1
271
1
272
1
145
1.0
146
1.0
273
1
  9

274
1
275
1
276
1
 42
1.0
 72
1
  3

 73
1
 74
1
 75
1
 94
63
  0
MLINESTYLE
  5
22
102
{ACAD_REACTORS
330
10
102
}
330
10
100
AcDbMlineStyle
  2
Standard
 70
0
  3

 62
256
 51
90.0
 52
90.0
 71
2
 49
0.5
 62
256
  6
BYLAYER
 49
-0.5
 62
256
  6
BYLAYER
  0
MLEADERSTYLE
  5
2C
102
{ACAD_REACTORS
330
F
102
}
330
F
100
AcDbMLeaderStyle
179
2
170
2
171
1
172
0
 90
2
 40
0.0
 41
0.0
173
1
 91
-1056964608
 92
-2
290
1
 42
2.0
291
1
 43
8.0
  3
Standard
 44
4.0
300

342
29
174
1
175
1
176
0
178
1
 93
-1056964608
 45
4.0
292
0
297
0
 46
4.0
 94
-1056964608
 47
1.0
 49
1.0
140
1.0
294
1
141
0.0
177
0
142
1.0
295
0
296
0
143
3.75
271
0
272
9
273
9
  0
DICTIONARY
  5
2D
330
A
100
AcDbDictionary
280
1
281
1
  3
CREATED_BY_EZDXF
350
2E
  3
WRITTEN_BY_EZDXF
350
CB
  0
DICTIONARYVAR
  5
2E
330
2D
100
DictionaryVariables
280
0
  1
1.4.3 @ 2026-07-16T08:03:01.285407+00:00
  0
DICTIONARYVAR
  5
CB
330
2D
100
DictionaryVariables
280
0
  1
1.4.3 @ 2026-07-16T08:03:01.328819+00:00
  0
ENDSEC
  0
EOF
