  0
SECTION
  2
HEADER
  9
$ACADVER
  1
AC1024
  9
$ACADMAINTVER
 70
6
  9
$DWGCODEPAGE
  3
ANSI_1252
  9
$LASTSAVEDBY
  1
ezdxf
  9
$INSBASE
 10
0.0
 20
0.0
 30
0.0
  9
$EXTMIN
 10
0.0
 20
0.0
 30
0.0
  9
$EXTMAX
 10
210.0
 20
297.0
 30
0.0
  9
$LIMMIN
 10
0.0
 20
0.0
  9
$LIMMAX
 10
420.0
 20
297.0
  9
$ORTHOMODE
 70
0
  9
$REGENMODE
 70
1
  9
$FILLMODE
 70
1
  9
$QTEXTMODE
 70
0
  9
$MIRRTEXT
 70
1
  9
$LTSCALE
 40
1.0
  9
$ATTMODE
 70
1
  9
$TEXTSIZE
 40
2.5
  9
$TRACEWID
 40
1.0
  9
$TEXTSTYLE
  7
Standard
  9
$CLAYER
  8
0
  9
$CELTYPE
  6
ByLayer
  9
$CECOLOR
 62
256
  9
$CELTSCALE
 40
1.0
  9
$DISPSILH
 70
0
  9
$DIMSCALE
 40
1.0
  9
$DIMASZ
 40
2.5
  9
$DIMEXO
 40
0.625
  9
$DIMDLI
 40
3.75
  9
$DIMRND
 40
0.0
  9
$DIMDLE
 40
0.0
  9
$DIMEXE
 40
1.25
  9
$DIMTP
 40
0.0
  9
$DIMTM
 40
0.0
  9
$DIMTXT
 40
2.5
  9
$DIMCEN
 40
2.5
  9
$DIMTSZ
 40
0.0
  9
$DIMTOL
 70
0
  9
$DIMLIM
 70
0
  9
$DIMTIH
 70
0
  9
$DIMTOH
 70
0
  9
$DIMSE1
 70
0
  9
$DIMSE2
 70
0
  9
$DIMTAD
 70
1
  9
$DIMZIN
 70
8
  9
$DIMBLK
  1

  9
$DIMASO
 70
1
  9
$DIMSHO
 70
1
  9
$DIMPOST
  1

  9
$DIMAPOST
  1

  9
$DIMALT
 70
0
  9
$DIMALTD
 70
3
  9
$DIMALTF
 40
0.03937007874
  9
$DIMLFAC
 40
1.0
  9
$DIMTOFL
 70
1
  9
$DIMTVP
 40
0.0
  9
$DIMTIX
 70
0
  9
$DIMSOXD
 70
0
  9
$DIMSAH
 70
0
  9
$DIMBLK1
  1

  9
$DIMBLK2
  1

  9
$DIMSTYLE
  2
ISO-25
  9
$DIMCLRD
 70
0
  9
$DIMCLRE
 70
0
  9
$DIMCLRT
 70
0
  9
$DIMTFAC
 40
1.0
  9
$DIMGAP
 40
0.625
  9
$DIMJUST
 70
0
  9
$DIMSD1
 70
0
  9
$DIMSD2
 70
0
  9
$DIMTOLJ
 70
0
  9
$DIMTZIN
 70
8
  9
$DIMALTZ
 70
0
  9
$DIMALTTZ
 70
0
  9
$DIMUPT
 70
0
  9
$DIMDEC
 70
2
  9
$DIMTDEC
 70
2
  9
$DIMALTU
 70
2
  9
$DIMALTTD
 70
3
  9
$DIMTXSTY
  7
Standard
  9
$DIMAUNIT
 70
0
  9
$DIMADEC
 70
0
  9
$DIMALTRND
 40
0.0
  9
$DIMAZIN
 70
0
  9
$DIMDSEP
 70
44
  9
$DIMATFIT
 70
3
  9
$DIMFRAC
 70
0
  9
$DIMLDRBLK
  1

  9
$DIMLUNIT
 70
2
  9
$DIMLWD
 70
-2
  9
$DIMLWE
 70
-2
  9
$DIMTMOVE
 70
0
  9
$DIMFXL
 40
1.0
  9
$DIMFXLON
 70
0
  9
$DIMJOGANG
 40
0.785398163397
  9
$DIMTFILL
 70
0
  9
$DIMTFILLCLR
 70
0
  9
$DIMARCSYM
 70
0
  9
$DIMLTYPE
  6

  9
$DIMLTEX1
  6

  9
$DIMLTEX2
  6

  9
$DIMTXTDIRECTION
 70
0
  9
$LUNITS
 70
2
  9
$LUPREC
 70
4
  9
$SKETCHINC
 40
1.0
  9
$FILLETRAD
 40
10.0
  9
$AUNITS
 70
0
  9
$AUPREC
 70
2
  9
$MENU
  1
.
  9
$ELEVATION
 40
0.0
  9
$PELEVATION
 40
0.0
  9
$THICKNESS
 40
0.0
  9
$LIMCHECK
 70
0
  9
$CHAMFERA
 40
0.0
  9
$CHAMFERB
 40
0.0
  9
$CHAMFERC
 40
0.0
  9
$CHAMFERD
 40
0.0
  9
$SKPOLY
 70
0
  9
$TDCREATE
 40
2461248.513900463
  9
$TDUCREATE
 40
2458532.153996898
  9
$TDUPDATE
 40
2461248.513900463
  9
$TDUUPDATE
 40
2458532.1544311
  9
$TDINDWG
 40
0.0
  9
$TDUSRTIMER
 40
0.0
  9
$USRTIMER
 70
1
  9
$ANGBASE
 50
0.0
  9
$ANGDIR
 70
0
  9
$PDMODE
 70
0
  9
$PDSIZE
 40
0.0
  9
$PLINEWID
 40
0.0
  9
$SPLFRAME
 70
0
  9
$SPLINETYPE
 70
6
  9
$SPLINESEGS
 70
8
  9
$HANDSEED
  5
CC
  9
$SURFTAB1
 70
6
  9
$SURFTAB2
 70
6
  9
$SURFTYPE
 70
6
  9
$SURFU
 70
6
  9
$SURFV
 70
6
  9
$UCSBASE
  2

  9
$UCSNAME
  2

  9
$UCSORG
 10
0.0
 20
0.0
 30
0.0
  9
$UCSXDIR
 10
1.0
 20
0.0
 30
0.0
  9
$UCSYDIR
 10
0.0
 20
1.0
 30
0.0
  9
$UCSORTHOREF
  2

  9
$UCSORTHOVIEW
 70
0
  9
$UCSORGTOP
 10
0.0
 20
0.0
 30
0.0
  9
$UCSORGBOTTOM
 10
0.0
 20
0.0
 30
0.0
  9
$UCSORGLEFT
 10
0.0
 20
0.0
 30
0.0
  9
$UCSORGRIGHT
 10
0.0
 20
0.0
 30
0.0
  9
$UCSORGFRONT
 10
0.0
 20
0.0
 30
0.0
  9
$UCSORGBACK
 10
0.0
 20
0.0
 30
0.0
  9
$PUCSBASE
  2

  9
$PUCSNAME
  2

  9
$PUCSORG
 10
0.0
 20
0.0
 30
0.0
  9
$PUCSXDIR
 10
1.0
 20
0.0
 30
0.0
  9
$PUCSYDIR
 10
0.0
 20
1.0
 30
0.0
  9
$PUCSORTHOREF
  2

  9
$PUCSORTHOVIEW
 70
0
  9
$PUCSORGTOP
 10
0.0
 20
0.0
 30
0.0
  9
$PUCSORGBOTTOM
 10
0.0
 20
0.0
 30
0.0
  9
$PUCSORGLEFT
 10
0.0
 20
0.0
 30
0.0
  9
$PUCSORGRIGHT
 10
0.0
 20
0.0
 30
0.0
  9
$PUCSORGFRONT
 10
0.0
 20
0.0
 30
0.0
  9
$PUCSORGBACK
 10
0.0
 20
0.0
 30
0.0
  9
$USERI1
 70
0
  9
$USERI2
 70
0
  9
$USERI3
 70
0
  9
$USERI4
 70
0
  9
$USERI5
 70
0
  9
$USERR1
 40
0.0
  9
$USERR2
 40
0.0
  9
$USERR3
 40
0.0
  9
$USERR4
 40
0.0
  9
$USERR5
 40
0.0
  9
$WORLDVIEW
 70
1
  9
$SHADEDGE
 70
3
  9
$SHADEDIF
 70
70
  9
$TILEMODE
 70
1
  9
$MAXACTVP
 70
64
  9
$PINSBASE
 10
0.0
 20
0.0
 30
0.0
  9
$PLIMCHECK
 70
0
  9
$PEXTMIN
 10
1e+20
 20
1e+20
 30
1e+20
  9
$PEXTMAX
 10
-1e+20
 20
-1e+20
 30
-1e+20
  9
$PLIMMIN
 10
0.0
 20
0.0
  9
$PLIMMAX
 10
420.0
 20
297.0
  9
$UNITMODE
 70
0
  9
$VISRETAIN
 70
1
  9
$PLINEGEN
 70
0
  9
$PSLTSCALE
 70
1
  9
$TREEDEPTH
 70
3020
  9
$CMLSTYLE
  2
Standard
  9
$CMLJUST
 70
0
  9
$CMLSCALE
 40
20.0
  9
$PROXYGRAPHICS
 70
1
  9
$MEASUREMENT
 70
1
  9
$CELWEIGHT
370
-1
  9
$ENDCAPS
280
0
  9
$JOINSTYLE
280
0
  9
$LWDISPLAY
290
0
  9
$INSUNITS
 70
4
  9
$HYPERLINKBASE
  1

  9
$STYLESHEET
  1

  9
$XEDIT
290
1
  9
$CEPSNTYPE
380
0
  9
$PSTYLEMODE
290
1
  9
$FINGERPRINTGUID
  2
{6E2C5DF2-E43F-4EA2-BDD2-AD1AFC34ED02}
  9
$VERSIONGUID
  2
{C2511BC4-DD63-4549-8719-EC2749EC430A}
  9
$EXTNAMES
290
1
  9
$PSVPSCALE
 40
0.0
  9
$OLESTARTUP
290
0
  9
$SORTENTS
280
127
  9
$INDEXCTL
280
0
  9
$HIDETEXT
280
1
  9
$XCLIPFRAME
280
1
  9
$HALOGAP
280
0
  9
$OBSCOLOR
 70
257
  9
$OBSLTYPE
280
0
  9
$INTERSECTIONDISPLAY
280
0
  9
$INTERSECTIONCOLOR
 70
257
  9
$DIMASSOC
280
2
  9
$PROJECTNAME
  1

  9
$CAMERADISPLAY
290
0
  9
$LENSLENGTH
 40
50.0
  9
$CAMERAHEIGHT
 40
0.0
  9
$STEPSPERSEC
 40
24.0
  9
$STEPSIZE
 40
100.0
  9
$3DDWFPREC
 40
2.0
  9
$PSOLWIDTH
 40
0.005
  9
$PSOLHEIGHT
 40
0.08
  9
$LOFTANG1
 40
1.570796326795
  9
$LOFTANG2
 40
1.570796326795
  9
$LOFTMAG1
 40
0.0
  9
$LOFTMAG2
 40
0.0
  9
$LOFTPARAM
 70
7
  9
$LOFTNORMALS
280
1
  9
$LATITUDE
 40
37.795
  9
$LONGITUDE
 40
-122.394
  9
$NORTHDIRECTION
 40
0.0
  9
$TIMEZONE
 70
-8000
  9
$LIGHTGLYPHDISPLAY
280
1
  9
$TILEMODELIGHTSYNCH
280
1
  9
$CMATERIAL
347
20
  9
$SOLIDHIST
280
0
  9
$SHOWHIST
280
1
  9
$DWFFRAME
280
2
  9
$DGNFRAME
280
2
  9
$REALWORLDSCALE
290
1
  9
$INTERFERECOLOR
 62
256
  9
$CSHADOW
280
0
  9
$SHADOWPLANELOCATION
 40
0.0
  0
ENDSEC
  0
SECTION
  2
CLASSES
  0
CLASS
  1
ACDBDICTIONARYWDFLT
  2
AcDbDictionaryWithDefault
  3
ObjectDBX Classes
 90
0
 91
0
280
0
281
0
  0
CLASS
  1
SUN
  2
AcDbSun
  3
SCENEOE
 90
1153
 91
0
280
0
281
0
  0
CLASS
  1
VISUALSTYLE
  2
AcDbVisualStyle
  3
ObjectDBX Classes
 90
4095
 91
0
280
0
281
0
  0
CLASS
  1
MATERIAL
  2
AcDbMaterial
  3
ObjectDBX Classes
 90
1153
 91
0
280
0
281
0
  0
CLASS
  1
SCALE
  2
AcDbScale
  3
ObjectDBX Classes
 90
1153
 91
0
280
0
281
0
  0
CLASS
  1
TABLESTYLE
  2
AcDbTableStyle
  3
ObjectDBX Classes
 90
4095
 91
0
280
0
281
0
  0
CLASS
  1
MLEADERSTYLE
  2
AcDbMLeaderStyle
  3
ACDB_MLEADERSTYLE_CLASS
 90
4095
 91
0
280
0
281
0
  0
CLASS
  1
DICTIONARYVAR
  2
AcDbDictionaryVar
  3
ObjectDBX Classes
 90
0
 91
0
280
0
281
0
  0
CLASS
  1
CELLSTYLEMAP
  2
AcDbCellStyleMap
  3
ObjectDBX Classes
 90
1152
 91
0
280
0
281
0
  0
CLASS
  1
MENTALRAYRENDERSETTINGS
  2
AcDbMentalRayRenderSettings
  3
SCENEOE
 90
1024
 91
0
280
0
281
0
  0
CLASS
  1
ACDBDETAILVIEWSTYLE
  2
AcDbDetailViewStyle
  3
ObjectDBX Classes
 90
1025
 91
0
280
0
281
0
  0
CLASS
  1
ACDBSECTIONVIEWSTYLE
  2
AcDbSectionViewStyle
  3
ObjectDBX Classes
 90
1025
 91
0
280
0
281
0
  0
CLASS
  1
RASTERVARIABLES
  2
AcDbRasterVariables
  3
ISM
 90
0
 91
0
280
0
281
0
  0
CLASS
  1
ACDBPLACEHOLDER
  2
AcDbPlaceHolder
  3
ObjectDBX Classes
 90
0
 91
0
280
0
281
0
  0
CLASS
  1
LAYOUT
  2
AcDbLayout
  3
ObjectDBX Classes
 90
0
 91
0
280
0
281
0
  0
ENDSEC
  0
SECTION
  2
TABLES
  0
TABLE
  2
VPORT
  5
8
330
0
100
AcDbSymbolTable
 70
1
  0
VPORT
  5
23
330
8
100
AcDbSymbolTableRecord
100
AcDbViewportTableRecord
  2
*Active
 70
0
 10
0.0
 20
0.0
 11
1.0
 21
1.0
 12
0.0
 22
0.0
 13
0.0
 23
0.0
 14
0.5
 24
0.5
 15
0.5
 25
0.5
 16
0.0
 26
0.0
 36
1.0
 17
0.0
 27
0.0
 37
0.0
 40
1000.0
 41
1.34
 42
50.0
 43
0.0
 44
0.0
 50
0.0
 51
0.0
 71
0
 72
1000
 73
1
 74
3
 75
0
 76
0
 77
0
 78
0
281
0
 65
0
146
0.0
  0
ENDTAB
  0
TABLE
  2
LTYPE
  5
2
330
0
100
AcDbSymbolTable
 70
4
  0
LTYPE
  5
24
330
2
100
AcDbSymbolTableRecord
100
AcDbLinetypeTableRecord
  2
ByBlock
 70
0
  3

 72
65
 73
0
 40
0.0
  0
LTYPE
  5
25
330
2
100
AcDbSymbolTableRecord
100
AcDbLinetypeTableRecord
  2
ByLayer
 70
0
  3

 72
65
 73
0
 40
0.0
  0
LTYPE
  5
26
330
2
100
AcDbSymbolTableRecord
100
AcDbLinetypeTableRecord
  2
Continuous
 70
0
  3

 72
65
 73
0
 40
0.0
  0
LTYPE
  5
36
330
2
100
AcDbSymbolTableRecord
100
AcDbLinetypeTableRecord
  2
OPTICAL
 70
0
  3

 72
65
 73
5
 40
8.0
 49
-2.0
 74
0
 49
1.0
 74
0
 49
-2.0
 74
0
 49
1.0
 74
0
 49
-2.0
 74
0
  0
ENDTAB
  0
TABLE
  2
LAYER
  5
1
330
0
100
AcDbSymbolTable
 70
9
  0
LAYER
  5
27
330
1
100
AcDbSymbolTableRecord
100
AcDbLayerTableRecord
  2
0
 70
0
 62
7
  6
Continuous
370
-3
390
13
347
21
  0
LAYER
  5
28
330
1
100
AcDbSymbolTableRecord
100
AcDbLayerTableRecord
  2
Defpoints
 70
0
 62
7
  6
Continuous
290
0
370
-3
390
13
347
21
  0
LAYER
  5
2F
330
1
100
AcDbSymbolTableRecord
100
AcDbLayerTableRecord
  2
BORDER
 70
0
 62
7
  6
Continuous
370
25
390
13
347
21
  0
LAYER
  5
30
330
1
100
AcDbSymbolTableRecord
100
AcDbLayerTableRecord
  2
OUTLINE
 70
0
 62
7
  6
Continuous
370
50
390
13
347
21
  0
LAYER
  5
31
330
1
100
AcDbSymbolTableRecord
100
AcDbLayerTableRecord
  2
AXIS
 70
0
 62
8
  6
OPTICAL
370
13
390
13
347
21
  0
LAYER
  5
32
330
1
100
AcDbSymbolTableRecord
100
AcDbLayerTableRecord
  2
CEMENT
 70
0
 62
7
  6
Continuous
370
13
390
13
347
21
  0
LAYER
  5
33
330
1
100
AcDbSymbolTableRecord
100
AcDbLayerTableRecord
  2
DIMS
 70
0
 62
7
  6
Continuous
370
13
390
13
347
21
  0
LAYER
  5
34
330
1
100
AcDbSymbolTableRecord
100
AcDbLayerTableRecord
  2
CALLOUT
 70
0
 62
7
  6
Continuous
370
13
390
13
347
21
  0
LAYER
  5
35
330
1
100
AcDbSymbolTableRecord
100
AcDbLayerTableRecord
  2
TABLE
 70
0
 62
7
  6
Continuous
370
13
390
13
347
21
  0
ENDTAB
  0
TABLE
  2
STYLE
  5
5
330
0
100
AcDbSymbolTable
 70
1
  0
STYLE
  5
29
330
5
100
AcDbSymbolTableRecord
100
AcDbTextStyleTableRecord
  2
Standard
 70
0
 40
0.0
 41
1.0
 50
0.0
 71
0
 42
2.5
  3
txt
  4

  0
ENDTAB
  0
TABLE
  2
VIEW
  5
7
330
0
100
AcDbSymbolTable
 70
0
  0
ENDTAB
  0
TABLE
  2
UCS
  5
6
330
0
100
AcDbSymbolTable
 70
0
  0
ENDTAB
  0
TABLE
  2
APPID
  5
3
330
0
100
AcDbSymbolTable
 70
3
  0
APPID
  5
2A
330
3
100
AcDbSymbolTableRecord
100
AcDbRegAppTableRecord
  2
ACAD
 70
0
  0
APPID
  5
C9
330
3
100
AcDbSymbolTableRecord
100
AcDbRegAppTableRecord
  2
HATCHBACKGROUNDCOLOR
 70
0
  0
APPID
  5
CA
330
3
100
AcDbSymbolTableRecord
100
AcDbRegAppTableRecord
  2
EZDXF
 70
0
  0
ENDTAB
  0
TABLE
  2
DIMSTYLE
  5
4
330
0
100
AcDbSymbolTable
 70
1
100
AcDbDimStyleTable
  0
DIMSTYLE
105
2B
330
4
100
AcDbSymbolTableRecord
100
AcDbDimStyleTableRecord
  2
Standard
 70
0
 40
1.0
 41
2.5
 42
0.625
 43
3.75
 44
1.25
 45
0.0
 46
0.0
 47
0.0
 48
0.0
 49
2.5
140
2.5
141
2.5
142
0.0
143
0.03937007874
144
1.0
145
0.0
146
1.0
147
0.625
148
0.0
 69
0
 70
0
 71
0
 72
0
 73
0
 74
0
 75
0
 76
0
 77
1
 78
8
 79
3
170
0
171
3
172
1
173
0
174
0
175
0
176
0
177
0
178
0
179
2
271
2
272
2
273
2
274
3
275
0
276
0
277
2
278
44
279
0
280
0
281
0
282
0
283
0
284
8
285
0
286
0
288
0
289
3
290
0
371
-2
372
-2
  0
ENDTAB
  0
TABLE
  2
BLOCK_RECORD
  5
9
330
0
100
AcDbSymbolTable
 70
2
  0
BLOCK_RECORD
  5
17
330
9
100
AcDbSymbolTableRecord
100
AcDbBlockTableRecord
  2
*Model_Space
340
1A
 70
0
280
1
281
0
  0
BLOCK_RECORD
  5
1B
330
9
100
AcDbSymbolTableRecord
100
AcDbBlockTableRecord
  2
*Paper_Space
340
1E
 70
0
280
1
281
0
  0
ENDTAB
  0
ENDSEC
  0
SECTION
  2
BLOCKS
  0
BLOCK
  5
18
330
17
100
AcDbEntity
  8
0
100
AcDbBlockBegin
  2
*Model_Space
 70
0
 10
0.0
 20
0.0
 30
0.0
  3
*Model_Space
  1

  0
ENDBLK
  5
19
330
17
100
AcDbEntity
  8
0
100
AcDbBlockEnd
  0
BLOCK
  5
1C
330
1B
100
AcDbEntity
  8
0
100
AcDbBlockBegin
  2
*Paper_Space
 70
0
 10
0.0
 20
0.0
 30
0.0
  3
*Paper_Space
  1

  0
ENDBLK
  5
1D
330
1B
100
AcDbEntity
  8
0
100
AcDbBlockEnd
  0
ENDSEC
  0
SECTION
  2
ENTITIES
  0
LWPOLYLINE
  5
37
330
17
100
AcDbEntity
  8
BORDER
100
AcDbPolyline
 90
4
 70
1
 10
0.0
 20
0.0
 10
210.0
 20
0.0
 10
210.0
 20
297.0
 10
0.0
 20
297.0
  0
LWPOLYLINE
  5
38
330
17
100
AcDbEntity
  8
BORDER
370
50
100
AcDbPolyline
 90
4
 70
1
 10
10.0
 20
10.0
 10
200.0
 20
10.0
 10
200.0
 20
287.0
 10
10.0
 20
287.0
  0
TEXT
  5
39
330
17
100
AcDbEntity
  8
BORDER
100
AcDbText
 10
12.0
 20
113.0
 30
0.0
 40
1.8
  1
Ang. nach ISO 10110; λ = 546.07 nm
100
AcDbText
 73
1
  0
TEXT
  5
3A
330
17
100
AcDbEntity
  8
BORDER
100
AcDbText
 10
12.0
 20
282.0
 30
0.0
 40
2.5
  1
f′ = 18.85 mm
100
AcDbText
 73
3
  0
LWPOLYLINE
  5
3B
330
17
100
AcDbEntity
  8
BORDER
100
AcDbPolyline
 90
4
 70
1
 10
10.0
 20
10.0
 10
200.0
 20
10.0
 10
200.0
 20
38.0
 10
10.0
 20
38.0
  0
LINE
  5
3C
330
17
100
AcDbEntity
  8
BORDER
100
AcDbLine
 10
10.0
 20
23.0
 30
0.0
 11
200.0
 21
23.0
 31
0.0
  0
LINE
  5
3D
330
17
100
AcDbEntity
  8
BORDER
100
AcDbLine
 10
74.60000000000001
 20
23.0
 30
0.0
 11
74.60000000000001
 21
38.0
 31
0.0
  0
LINE
  5
3E
330
17
100
AcDbEntity
  8
BORDER
100
AcDbLine
 10
101.20000000000002
 20
23.0
 30
0.0
 11
101.20000000000002
 21
38.0
 31
0.0
  0
LINE
  5
3F
330
17
100
AcDbEntity
  8
BORDER
100
AcDbLine
 10
127.80000000000001
 20
23.0
 30
0.0
 11
127.80000000000001
 21
38.0
 31
0.0
  0
LINE
  5
40
330
17
100
AcDbEntity
  8
BORDER
100
AcDbLine
 10
154.4
 20
23.0
 30
0.0
 11
154.4
 21
38.0
 31
0.0
  0
LINE
  5
41
330
17
100
AcDbEntity
  8
BORDER
100
AcDbLine
 10
177.20000000000002
 20
23.0
 30
0.0
 11
177.20000000000002
 21
38.0
 31
0.0
  0
LINE
  5
42
330
17
100
AcDbEntity
  8
BORDER
100
AcDbLine
 10
188.60000000000002
 20
23.0
 30
0.0
 11
188.60000000000002
 21
38.0
 31
0.0
  0
TEXT
  5
43
330
17
100
AcDbEntity
  8
BORDER
100
AcDbText
 10
42.300000000000004
 20
26.75
 30
0.0
 40
1.8
  1
ORGANISATION / PROJECT / PART NO.
 72
4
 11
42.300000000000004
 21
26.75
 31
0.0
100
AcDbText
 73
2
  0
TEXT
  5
44
330
17
100
AcDbEntity
  8
BORDER
100
AcDbText
 10
42.300000000000004
 20
33.5
 30
0.0
 40
2.5
  1
5-Element Photographic Objective   OPT-003
 72
4
 11
42.300000000000004
 21
33.5
 31
0.0
100
AcDbText
 73
2
  0
TEXT
  5
45
330
17
100
AcDbEntity
  8
BORDER
100
AcDbText
 10
87.9
 20
26.75
 30
0.0
 40
1.8
  1
DRAWN BY
 72
4
 11
87.9
 21
26.75
 31
0.0
100
AcDbText
 73
2
  0
TEXT
  5
46
330
17
100
AcDbEntity
  8
BORDER
100
AcDbText
 10
87.9
 20
33.5
 30
0.0
 40
2.5
  1
B. Lutzer
 72
4
 11
87.9
 21
33.5
 31
0.0
100
AcDbText
 73
2
  0
TEXT
  5
47
330
17
100
AcDbEntity
  8
BORDER
100
AcDbText
 10
114.50000000000001
 20
26.75
 30
0.0
 40
1.8
  1
APPROVED
 72
4
 11
114.50000000000001
 21
26.75
 31
0.0
100
AcDbText
 73
2
  0
TEXT
  5
48
330
17
100
AcDbEntity
  8
BORDER
100
AcDbText
 10
114.50000000000001
 20
33.5
 30
0.0
 40
2.5
  1
K. Harrison
 72
4
 11
114.50000000000001
 21
33.5
 31
0.0
100
AcDbText
 73
2
  0
TEXT
  5
49
330
17
100
AcDbEntity
  8
BORDER
100
AcDbText
 10
141.10000000000002
 20
26.75
 30
0.0
 40
1.8
  1
DATE
 72
4
 11
141.10000000000002
 21
26.75
 31
0.0
100
AcDbText
 73
2
  0
TEXT
  5
4A
330
17
100
AcDbEntity
  8
BORDER
100
AcDbText
 10
141.10000000000002
 20
33.5
 30
0.0
 40
2.5
  1
2026-07-26
 72
4
 11
141.10000000000002
 21
33.5
 31
0.0
100
AcDbText
 73
2
  0
TEXT
  5
4B
330
17
100
AcDbEntity
  8
BORDER
100
AcDbText
 10
165.8
 20
26.75
 30
0.0
 40
1.8
  1
SCALE
 72
4
 11
165.8
 21
26.75
 31
0.0
100
AcDbText
 73
2
  0
TEXT
  5
4C
330
17
100
AcDbEntity
  8
BORDER
100
AcDbText
 10
165.8
 20
33.5
 30
0.0
 40
2.5
  1
6:1
 72
4
 11
165.8
 21
33.5
 31
0.0
100
AcDbText
 73
2
  0
TEXT
  5
4D
330
17
100
AcDbEntity
  8
BORDER
100
AcDbText
 10
182.90000000000003
 20
26.75
 30
0.0
 40
1.8
  1
SHEET
 72
4
 11
182.90000000000003
 21
26.75
 31
0.0
100
AcDbText
 73
2
  0
TEXT
  5
4E
330
17
100
AcDbEntity
  8
BORDER
100
AcDbText
 10
182.90000000000003
 20
33.5
 30
0.0
 40
2.5
  1
3 / 5
 72
4
 11
182.90000000000003
 21
33.5
 31
0.0
100
AcDbText
 73
2
  0
TEXT
  5
4F
330
17
100
AcDbEntity
  8
BORDER
100
AcDbText
 10
194.3
 20
26.75
 30
0.0
 40
1.8
  1
REV
 72
4
 11
194.3
 21
26.75
 31
0.0
100
AcDbText
 73
2
  0
TEXT
  5
50
330
17
100
AcDbEntity
  8
BORDER
100
AcDbText
 10
194.3
 20
33.5
 30
0.0
 40
2.5
  1
A
 72
4
 11
194.3
 21
33.5
 31
0.0
100
AcDbText
 73
2
  0
LINE
  5
51
330
17
100
AcDbEntity
  8
BORDER
100
AcDbLine
 10
124.0
 20
10.0
 30
0.0
 11
124.0
 21
23.0
 31
0.0
  0
TEXT
  5
52
330
17
100
AcDbEntity
  8
BORDER
100
AcDbText
 10
12.0
 20
21.5
 30
0.0
 40
1.8
  1
NOTES
100
AcDbText
 73
3
  0
TEXT
  5
53
330
17
100
AcDbEntity
  8
BORDER
100
AcDbText
 10
12.0
 20
16.5
 30
0.0
 40
2.0
  1
Cement with NOA-61 or equivalent UV adhesive.
100
AcDbText
 73
2
  0
TEXT
  5
54
330
17
100
AcDbEntity
  8
BORDER
100
AcDbText
 10
146.8
 20
21.5
 30
0.0
 40
1.8
  1
DIM. IN mm
 72
4
 11
146.8
 21
21.5
 31
0.0
100
AcDbText
 73
3
  0
TEXT
  5
55
330
17
100
AcDbEntity
  8
BORDER
100
AcDbText
 10
146.8
 20
17.7
 30
0.0
 40
1.8
  1
GENERAL TOL. PER ISO 10110-11
 72
4
 11
146.8
 21
17.7
 31
0.0
100
AcDbText
 73
1
  0
TEXT
  5
56
330
17
100
AcDbEntity
  8
BORDER
100
AcDbText
 10
146.8
 20
15.3
 30
0.0
 40
1.8
  1
Ø±0.10  CT±0.15  3/ 5  4/ 3′  5/ 2×0.063
 72
4
 11
146.8
 21
15.3
 31
0.0
100
AcDbText
 73
3
  0
CIRCLE
  5
57
330
17
100
AcDbEntity
  8
BORDER
100
AcDbCircle
 10
180.61400000000003
 20
16.5
 30
0.0
 40
3.6400000000000006
  0
CIRCLE
  5
58
330
17
100
AcDbEntity
  8
BORDER
100
AcDbCircle
 10
180.61400000000003
 20
16.5
 30
0.0
 40
2.184
  0
LWPOLYLINE
  5
59
330
17
100
AcDbEntity
  8
BORDER
100
AcDbPolyline
 90
4
 70
1
 10
186.074
 20
20.14
 10
192.626
 20
18.684
 10
192.626
 20
14.315999999999999
 10
186.074
 20
12.86
  0
LINE
  5
5A
330
17
100
AcDbEntity
  8
AXIS
100
AcDbLine
 10
175.88200000000003
 20
16.5
 30
0.0
 11
194.446
 21
16.5
 31
0.0
  0
LWPOLYLINE
  5
5B
330
17
100
AcDbEntity
  8
TABLE
100
AcDbPolyline
 90
4
 70
1
 10
10.0
 20
38.0
 10
200.0
 20
38.0
 10
200.0
 20
110.0
 10
10.0
 20
110.0
  0
LINE
  5
5C
330
17
100
AcDbEntity
  8
TABLE
100
AcDbLine
 10
48.0
 20
38.0
 30
0.0
 11
48.0
 21
110.0
 31
0.0
  0
LINE
  5
5D
330
17
100
AcDbEntity
  8
TABLE
100
AcDbLine
 10
86.0
 20
38.0
 30
0.0
 11
86.0
 21
110.0
 31
0.0
  0
LINE
  5
5E
330
17
100
AcDbEntity
  8
TABLE
100
AcDbLine
 10
124.0
 20
38.0
 30
0.0
 11
124.0
 21
110.0
 31
0.0
  0
LINE
  5
5F
330
17
100
AcDbEntity
  8
TABLE
100
AcDbLine
 10
162.0
 20
38.0
 30
0.0
 11
162.0
 21
110.0
 31
0.0
  0
LINE
  5
60
330
17
100
AcDbEntity
  8
TABLE
100
AcDbLine
 10
10.0
 20
103.0
 30
0.0
 11
200.0
 21
103.0
 31
0.0
  0
TEXT
  5
61
330
17
100
AcDbEntity
  8
TABLE
100
AcDbText
 10
29.0
 20
106.5
 30
0.0
 40
2.0
  1
SURFACE 1 (FRONT)
 72
4
 11
29.0
 21
106.5
 31
0.0
100
AcDbText
 73
2
  0
TEXT
  5
62
330
17
100
AcDbEntity
  8
TABLE
100
AcDbText
 10
12.0
 20
101.0
 30
0.0
 40
2.0
  1
R +58.000 CX
100
AcDbText
 73
3
  0
TEXT
  5
63
330
17
100
AcDbEntity
  8
TABLE
100
AcDbText
 10
12.0
 20
94.5
 30
0.0
 40
2.0
  1
Øₑ 16.55
100
AcDbText
 73
3
  0
TEXT
  5
64
330
17
100
AcDbEntity
  8
TABLE
100
AcDbText
 10
12.0
 20
88.0
 30
0.0
 40
2.0
  1
3/ (0.5); λ=546.1 nm
100
AcDbText
 73
3
  0
TEXT
  5
65
330
17
100
AcDbEntity
  8
TABLE
100
AcDbText
 10
12.0
 20
81.5
 30
0.0
 40
2.0
  1
4/ 0.5′
100
AcDbText
 73
3
  0
TEXT
  5
66
330
17
100
AcDbEntity
  8
TABLE
100
AcDbText
 10
12.0
 20
75.0
 30
0.0
 40
2.0
  1
5/ 2×0.04
100
AcDbText
 73
3
  0
TEXT
  5
67
330
17
100
AcDbEntity
  8
TABLE
100
AcDbText
 10
12.0
 20
68.5
 30
0.0
 40
2.0
  1
6/ —
100
AcDbText
 73
3
  0
TEXT
  5
68
330
17
100
AcDbEntity
  8
TABLE
100
AcDbText
 10
12.0
 20
62.0
 30
0.0
 40
2.0
  1

100
AcDbText
 73
3
  0
TEXT
  5
69
330
17
100
AcDbEntity
  8
TABLE
100
AcDbText
 10
12.0
 20
55.5
 30
0.0
 40
2.0
  1
13/ —
100
AcDbText
 73
3
  0
CIRCLE
  5
6A
330
17
100
AcDbEntity
  8
TABLE
100
AcDbCircle
 10
13.5
 20
60.5
 30
0.0
 40
1.5
  0
TEXT
  5
6B
330
17
100
AcDbEntity
  8
TABLE
100
AcDbText
 10
13.5
 20
60.5
 30
0.0
 40
2.0999999999999996
  1
λ
 72
4
 11
13.5
 21
60.5
 31
0.0
100
AcDbText
 73
2
  0
TEXT
  5
6C
330
17
100
AcDbEntity
  8
TABLE
100
AcDbText
 10
16.0
 20
60.5
 30
0.0
 40
2.0
  1
7/ —
100
AcDbText
 73
2
  0
TEXT
  5
6D
330
17
100
AcDbEntity
  8
TABLE
100
AcDbText
 10
105.0
 20
106.5
 30
0.0
 40
2.0
  1
SURFACE 2 (CEMENT)
 72
4
 11
105.0
 21
106.5
 31
0.0
100
AcDbText
 73
2
  0
TEXT
  5
6E
330
17
100
AcDbEntity
  8
TABLE
100
AcDbText
 10
88.0
 20
101.0
 30
0.0
 40
2.0
  1
R -17.000 CC
100
AcDbText
 73
3
  0
TEXT
  5
6F
330
17
100
AcDbEntity
  8
TABLE
100
AcDbText
 10
88.0
 20
94.5
 30
0.0
 40
2.0
  1
Øₑ 18.03
100
AcDbText
 73
3
  0
TEXT
  5
70
330
17
100
AcDbEntity
  8
TABLE
100
AcDbText
 10
88.0
 20
88.0
 30
0.0
 40
2.0
  1
3/ (0.25); λ=546.1 nm
100
AcDbText
 73
3
  0
TEXT
  5
71
330
17
100
AcDbEntity
  8
TABLE
100
AcDbText
 10
88.0
 20
81.5
 30
0.0
 40
2.0
  1
4/ 0.5′
100
AcDbText
 73
3
  0
TEXT
  5
72
330
17
100
AcDbEntity
  8
TABLE
100
AcDbText
 10
88.0
 20
75.0
 30
0.0
 40
2.0
  1
5/ 5×0.016
100
AcDbText
 73
3
  0
TEXT
  5
73
330
17
100
AcDbEntity
  8
TABLE
100
AcDbText
 10
88.0
 20
68.5
 30
0.0
 40
2.0
  1
6/ —
100
AcDbText
 73
3
  0
TEXT
  5
74
330
17
100
AcDbEntity
  8
TABLE
100
AcDbText
 10
88.0
 20
62.0
 30
0.0
 40
2.0
  1

100
AcDbText
 73
3
  0
TEXT
  5
75
330
17
100
AcDbEntity
  8
TABLE
100
AcDbText
 10
88.0
 20
55.5
 30
0.0
 40
2.0
  1
13/ —
100
AcDbText
 73
3
  0
TEXT
  5
76
330
17
100
AcDbEntity
  8
TABLE
100
AcDbText
 10
88.0
 20
49.0
 30
0.0
 40
2.0
  1
15/ —
100
AcDbText
 73
3
  0
CIRCLE
  5
77
330
17
100
AcDbEntity
  8
TABLE
100
AcDbCircle
 10
89.5
 20
60.5
 30
0.0
 40
1.5
  0
TEXT
  5
78
330
17
100
AcDbEntity
  8
TABLE
100
AcDbText
 10
89.5
 20
60.5
 30
0.0
 40
2.0999999999999996
  1
λ
 72
4
 11
89.5
 21
60.5
 31
0.0
100
AcDbText
 73
2
  0
TEXT
  5
79
330
17
100
AcDbEntity
  8
TABLE
100
AcDbText
 10
92.0
 20
60.5
 30
0.0
 40
2.0
  1
7/ —
100
AcDbText
 73
2
  0
TEXT
  5
7A
330
17
100
AcDbEntity
  8
TABLE
100
AcDbText
 10
181.0
 20
106.5
 30
0.0
 40
2.0
  1
SURFACE 3 (REAR)
 72
4
 11
181.0
 21
106.5
 31
0.0
100
AcDbText
 73
2
  0
TEXT
  5
7B
330
17
100
AcDbEntity
  8
TABLE
100
AcDbText
 10
164.0
 20
101.0
 30
0.0
 40
2.0
  1
R -75.000 CX
100
AcDbText
 73
3
  0
TEXT
  5
7C
330
17
100
AcDbEntity
  8
TABLE
100
AcDbText
 10
164.0
 20
94.5
 30
0.0
 40
2.0
  1
Øₑ 18.83
100
AcDbText
 73
3
  0
TEXT
  5
7D
330
17
100
AcDbEntity
  8
TABLE
100
AcDbText
 10
164.0
 20
88.0
 30
0.0
 40
2.0
  1
3/ (0.5); λ=546.1 nm
100
AcDbText
 73
3
  0
TEXT
  5
7E
330
17
100
AcDbEntity
  8
TABLE
100
AcDbText
 10
164.0
 20
81.5
 30
0.0
 40
2.0
  1
4/ 0.5′
100
AcDbText
 73
3
  0
TEXT
  5
7F
330
17
100
AcDbEntity
  8
TABLE
100
AcDbText
 10
164.0
 20
75.0
 30
0.0
 40
2.0
  1
5/ 2×0.04
100
AcDbText
 73
3
  0
TEXT
  5
80
330
17
100
AcDbEntity
  8
TABLE
100
AcDbText
 10
164.0
 20
68.5
 30
0.0
 40
2.0
  1
6/ —
100
AcDbText
 73
3
  0
TEXT
  5
81
330
17
100
AcDbEntity
  8
TABLE
100
AcDbText
 10
164.0
 20
62.0
 30
0.0
 40
2.0
  1

100
AcDbText
 73
3
  0
TEXT
  5
82
330
17
100
AcDbEntity
  8
TABLE
100
AcDbText
 10
164.0
 20
55.5
 30
0.0
 40
2.0
  1
13/ —
100
AcDbText
 73
3
  0
CIRCLE
  5
83
330
17
100
AcDbEntity
  8
TABLE
100
AcDbCircle
 10
165.5
 20
60.5
 30
0.0
 40
1.5
  0
TEXT
  5
84
330
17
100
AcDbEntity
  8
TABLE
100
AcDbText
 10
165.5
 20
60.5
 30
0.0
 40
2.0999999999999996
  1
λ
 72
4
 11
165.5
 21
60.5
 31
0.0
100
AcDbText
 73
2
  0
TEXT
  5
85
330
17
100
AcDbEntity
  8
TABLE
100
AcDbText
 10
168.0
 20
60.5
 30
0.0
 40
2.0
  1
7/ —
100
AcDbText
 73
2
  0
TEXT
  5
86
330
17
100
AcDbEntity
  8
TABLE
100
AcDbText
 10
67.0
 20
106.5
 30
0.0
 40
2.0
  1
GLASS 1
 72
4
 11
67.0
 21
106.5
 31
0.0
100
AcDbText
 73
2
  0
TEXT
  5
87
330
17
100
AcDbEntity
  8
TABLE
100
AcDbText
 10
50.0
 20
101.0
 30
0.0
 40
2.0
  1
N-BAK1 (SCHOTT)
100
AcDbText
 73
3
  0
TEXT
  5
88
330
17
100
AcDbEntity
  8
TABLE
100
AcDbText
 10
50.0
 20
94.5
 30
0.0
 40
2.0
  1
nd = 1.5725  (587.6 nm)
100
AcDbText
 73
3
  0
TEXT
  5
89
330
17
100
AcDbEntity
  8
TABLE
100
AcDbText
 10
50.0
 20
88.0
 30
0.0
 40
2.0
  1
νd = 57.55  (587.6 nm)
100
AcDbText
 73
3
  0
TEXT
  5
8A
330
17
100
AcDbEntity
  8
TABLE
100
AcDbText
 10
50.0
 20
81.5
 30
0.0
 40
2.0
  1
0/ 6 nm/cm
100
AcDbText
 73
3
  0
TEXT
  5
8B
330
17
100
AcDbEntity
  8
TABLE
100
AcDbText
 10
50.0
 20
75.0
 30
0.0
 40
2.0
  1
1/ 1×0.10
100
AcDbText
 73
3
  0
TEXT
  5
8C
330
17
100
AcDbEntity
  8
TABLE
100
AcDbText
 10
50.0
 20
68.5
 30
0.0
 40
2.0
  1
2/ NH010; A
100
AcDbText
 73
3
  0
TEXT
  5
8D
330
17
100
AcDbEntity
  8
TABLE
100
AcDbText
 10
143.0
 20
106.5
 30
0.0
 40
2.0
  1
GLASS 2
 72
4
 11
143.0
 21
106.5
 31
0.0
100
AcDbText
 73
2
  0
TEXT
  5
8E
330
17
100
AcDbEntity
  8
TABLE
100
AcDbText
 10
126.0
 20
101.0
 30
0.0
 40
2.0
  1
N-SF5 (SCHOTT)
100
AcDbText
 73
3
  0
TEXT
  5
8F
330
17
100
AcDbEntity
  8
TABLE
100
AcDbText
 10
126.0
 20
94.5
 30
0.0
 40
2.0
  1
nd = 1.6727  (587.6 nm)
100
AcDbText
 73
3
  0
TEXT
  5
90
330
17
100
AcDbEntity
  8
TABLE
100
AcDbText
 10
126.0
 20
88.0
 30
0.0
 40
2.0
  1
νd = 32.25  (587.6 nm)
100
AcDbText
 73
3
  0
TEXT
  5
91
330
17
100
AcDbEntity
  8
TABLE
100
AcDbText
 10
126.0
 20
81.5
 30
0.0
 40
2.0
  1
0/ 6 nm/cm
100
AcDbText
 73
3
  0
TEXT
  5
92
330
17
100
AcDbEntity
  8
TABLE
100
AcDbText
 10
126.0
 20
75.0
 30
0.0
 40
2.0
  1
1/ 1×0.10
100
AcDbText
 73
3
  0
TEXT
  5
93
330
17
100
AcDbEntity
  8
TABLE
100
AcDbText
 10
126.0
 20
68.5
 30
0.0
 40
2.0
  1
2/ NH010; A
100
AcDbText
 73
3
  0
LINE
  5
94
330
17
100
AcDbEntity
  8
AXIS
100
AcDbLine
 10
66.00008945523018
 20
198.5
 30
0.0
 11
143.99991054476982
 21
198.5
 31
0.0
  0
TEXT
  5
95
330
17
100
AcDbEntity
  8
AXIS
100
AcDbText
 10
65.00008945523018
 20
198.5
 30
0.0
 40
2.0
  1
opt./rot. axis
 72
2
 11
65.00008945523018
 21
198.5
 31
0.0
100
AcDbText
 73
2
  0
TEXT
  5
96
330
17
100
AcDbEntity
  8
AXIS
100
AcDbText
 10
114.0000000440761
 20
196.0
 30
0.0
 40
2.0
  1
S2
 72
4
 11
114.0000000440761
 21
196.0
 31
0.0
100
AcDbText
 73
3
  0
LWPOLYLINE
  5
97
330
17
100
AcDbEntity
  8
OUTLINE
370
50
100
AcDbPolyline
 90
402
 70
1
 10
85.61368043812581
 20
142.0213712322957
 10
85.52080185052887
 20
142.5889956420214
 10
85.42888615947822
 20
143.15662005174704
 10
85.33793259236637
 20
143.72424446147272
 10
85.24794038548634
 20
144.2918688711984
 10
85.15890878399884
 20
144.85949328092408
 10
85.07083704189938
 20
145.42711769064974
 10
84.98372442198593
 20
145.9947421003754
 10
84.89757019582738
 20
146.56236651010107
 10
84.8123736437319
 20
147.12999091982675
 10
84.72813405471608
 20
147.69761532955243
 10
84.64485072647435
 20
148.2652397392781
 10
84.56252296534896
 20
148.83286414900377
 10
84.48115008630015
 20
149.40048855872942
 10
84.40073141287692
 20
149.9681129684551
 10
84.32126627718824
 20
150.53573737818078
 10
84.24275401987444
 20
151.10336178790644
 10
84.16519399007923
 20
151.67098619763212
 10
84.08858554542206
 20
152.23861060735777
 10
84.01292805197087
 20
152.80623501708345
 10
83.93822088421521
 20
153.37385942680913
 10
83.8644634250397
 20
153.94148383653481
 10
83.7916550656982
 20
154.50910824626047
 10
83.71979520578785
 20
155.07673265598615
 10
83.64888325322397
 20
155.6443570657118
 10
83.57891862421508
 20
156.21198147543748
 10
83.5099007432384
 20
156.77960588516316
 10
83.44182904301573
 20
157.34723029488885
 10
83.37470296448956
 20
157.9148547046145
 10
83.30852195679988
 20
158.48247911434018
 10
83.24328547726097
 20
159.05010352406583
 10
83.17899299133886
 20
159.6177279337915
 10
83.11564397262904
 20
160.1853523435172
 10
83.05323790283452
 20
160.75297675324288
 10
82.99177427174429
 20
161.32060116296853
 10
82.93125257721212
 20
161.8882255726942
 10
82.87167232513573
 20
162.45584998241986
 10
82.81303302943638
 20
163.02347439214554
 10
82.75533421203866
 20
163.59109880187123
 10
82.69857540285075
 20
164.15872321159688
 10
82.64275613974507
 20
164.72634762132256
 10
82.58787596853917
 20
165.2939720310482
 10
82.53393444297703
 20
165.8615964407739
 10
82.48093112471062
 20
166.42922085049958
 10
82.42886558328202
 20
166.99684526022526
 10
82.37773739610566
 20
167.5644696699509
 10
82.32754614845089
 20
168.1320940796766
 10
82.27829143342518
 20
168.69971848940224
 10
82.22997285195726
 20
169.26734289912793
 10
82.18259001278093
 20
169.8349673088536
 10
82.13614253241903
 20
170.4025917185793
 10
82.09063003516764
 20
170.97021612830494
 10
82.04605215308102
 20
171.53784053803062
 10
82.00240852595637
 20
172.10546494775627
 10
81.9596988013193
 20
172.67308935748196
 10
81.91792263440941
 20
173.24071376720764
 10
81.87707968816629
 20
173.8083381769333
 10
81.83716963321584
 20
174.37596258665897
 10
81.7981921478569
 20
174.94358699638462
 10
81.76014691804818
 20
175.5112114061103
 10
81.7230336373955
 20
176.078835815836
 10
81.68685200713949
 20
176.64646022556167
 10
81.65160173614336
 20
177.21408463528732
 10
81.6172825408812
 20
177.781709045013
 10
81.58389414542654
 20
178.34933345473866
 10
81.5514362814411
 20
178.91695786446434
 10
81.5199086881641
 20
179.48458227419002
 10
81.4893111124016
 20
180.05220668391567
 10
81.45964330851643
 20
180.61983109364135
 10
81.43090503841813
 20
181.18745550336703
 10
81.40309607155352
 20
181.7550799130927
 10
81.37621618489732
 20
182.32270432281837
 10
81.35026516294326
 20
182.89032873254405
 10
81.32524279769525
 20
183.4579531422697
 10
81.30114888865928
 20
184.02557755199538
 10
81.2779832428351
 20
184.59320196172106
 10
81.25574567470869
 20
185.16082637144672
 10
81.23443600624462
 20
185.7284507811724
 10
81.2140540668791
 20
186.29607519089805
 10
81.194599693513
 20
186.86369960062373
 10
81.17607273050538
 20
187.4313240103494
 10
81.15847302966722
 20
187.99894842007507
 10
81.14180045025549
 20
188.56657282980075
 10
81.12605485896755
 20
189.13419723952643
 10
81.11123612993583
 20
189.70182164925208
 10
81.09734414472265
 20
190.26944605897776
 10
81.08437879231572
 20
190.83707046870342
 10
81.07233996912345
 20
191.4046948784291
 10
81.06122757897097
 20
191.97231928815478
 10
81.05104153309627
 20
192.53994369788046
 10
81.0417817501466
 20
193.1075681076061
 10
81.03344815617527
 20
193.6751925173318
 10
81.02604068463862
 20
194.24281692705748
 10
81.01955927639347
 20
194.81044133678313
 10
81.01400387969468
 20
195.3780657465088
 10
81.00937445019314
 20
195.9456901562345
 10
81.00567095093388
 20
196.51331456596014
 10
81.00289335235479
 20
197.08093897568583
 10
81.00104163228525
 20
197.64856338541148
 10
81.0001157759454
 20
198.21618779513716
 10
81.0001157759454
 20
198.78381220486284
 10
81.00104163228525
 20
199.3514366145885
 10
81.00289335235479
 20
199.91906102431417
 10
81.00567095093388
 20
200.48668543403986
 10
81.00937445019314
 20
201.0543098437655
 10
81.01400387969468
 20
201.6219342534912
 10
81.01955927639347
 20
202.18955866321687
 10
81.02604068463862
 20
202.75718307294252
 10
81.03344815617527
 20
203.3248074826682
 10
81.0417817501466
 20
203.89243189239386
 10
81.05104153309627
 20
204.46005630211954
 10
81.06122757897097
 20
205.02768071184522
 10
81.07233996912345
 20
205.59530512157087
 10
81.08437879231572
 20
206.16292953129656
 10
81.09734414472265
 20
206.73055394102224
 10
81.11123612993583
 20
207.29817835074792
 10
81.12605485896755
 20
207.86580276047357
 10
81.14180045025549
 20
208.43342717019925
 10
81.15847302966722
 20
209.00105157992493
 10
81.17607273050538
 20
209.5686759896506
 10
81.194599693513
 20
210.13630039937627
 10
81.2140540668791
 20
210.70392480910192
 10
81.23443600624462
 20
211.2715492188276
 10
81.25574567470869
 20
211.83917362855328
 10
81.2779832428351
 20
212.40679803827894
 10
81.30114888865928
 20
212.97442244800462
 10
81.32524279769525
 20
213.5420468577303
 10
81.35026516294326
 20
214.10967126745595
 10
81.37621618489732
 20
214.67729567718163
 10
81.40309607155352
 20
215.2449200869073
 10
81.43090503841813
 20
215.81254449663297
 10
81.45964330851643
 20
216.38016890635865
 10
81.4893111124016
 20
216.9477933160843
 10
81.5199086881641
 20
217.51541772580998
 10
81.5514362814411
 20
218.08304213553566
 10
81.58389414542654
 20
218.65066654526132
 10
81.6172825408812
 20
219.218290954987
 10
81.65160173614336
 20
219.78591536471268
 10
81.68685200713949
 20
220.35353977443833
 10
81.7230336373955
 20
220.921164184164
 10
81.76014691804818
 20
221.4887885938897
 10
81.7981921478569
 20
222.05641300361535
 10
81.83716963321584
 20
222.62403741334103
 10
81.87707968816629
 20
223.1916618230667
 10
81.91792263440941
 20
223.75928623279236
 10
81.9596988013193
 20
224.32691064251804
 10
82.00240852595637
 20
224.89453505224373
 10
82.04605215308102
 20
225.46215946196938
 10
82.09063003516764
 20
226.02978387169506
 10
82.13614253241903
 20
226.5974082814207
 10
82.18259001278093
 20
227.1650326911464
 10
82.22997285195726
 20
227.73265710087207
 10
82.27829143342518
 20
228.30028151059773
 10
82.32754614845089
 20
228.8679059203234
 10
82.37773739610566
 20
229.4355303300491
 10
82.42886558328202
 20
230.00315473977474
 10
82.48093112471062
 20
230.57077914950042
 10
82.53393444297703
 20
231.1384035592261
 10
82.58787596853917
 20
231.7060279689518
 10
82.64275613974507
 20
232.27365237867744
 10
82.69857540285075
 20
232.8412767884031
 10
82.75533421203866
 20
233.40890119812877
 10
82.81303302943638
 20
233.97652560785446
 10
82.87167232513573
 20
234.54415001758014
 10
82.93125257721212
 20
235.1117744273058
 10
82.99177427174429
 20
235.67939883703147
 10
83.05323790283452
 20
236.24702324675712
 10
83.11564397262904
 20
236.8146476564828
 10
83.17899299133886
 20
237.3822720662085
 10
83.24328547726097
 20
237.94989647593417
 10
83.30852195679988
 20
238.51752088565982
 10
83.37470296448956
 20
239.0851452953855
 10
83.44182904301573
 20
239.65276970511115
 10
83.5099007432384
 20
240.22039411483684
 10
83.57891862421508
 20
240.78801852456252
 10
83.64888325322397
 20
241.35564293428817
 10
83.71979520578785
 20
241.92326734401385
 10
83.7916550656982
 20
242.49089175373953
 10
83.8644634250397
 20
243.05851616346519
 10
83.93822088421521
 20
243.62614057319087
 10
84.01292805197087
 20
244.19376498291652
 10
84.08858554542206
 20
244.7613893926422
 10
84.16519399007923
 20
245.32901380236788
 10
84.24275401987444
 20
245.89663821209354
 10
84.32126627718824
 20
246.46426262181922
 10
84.40073141287692
 20
247.0318870315449
 10
84.48115008630015
 20
247.59951144127058
 10
84.56252296534896
 20
248.16713585099623
 10
84.64485072647435
 20
248.73476026072188
 10
84.72813405471608
 20
249.30238467044757
 10
84.8123736437319
 20
249.87000908017325
 10
84.89757019582738
 20
250.43763348989893
 10
84.98372442198593
 20
251.0052578996246
 10
85.07083704189938
 20
251.57288230935026
 10
85.15890878399884
 20
252.14050671907592
 10
85.24794038548634
 20
252.7081311288016
 10
85.33793259236637
 20
253.27575553852728
 10
85.42888615947822
 20
253.84337994825296
 10
85.52080185052887
 20
254.4110043579786
 10
85.61368043812581
 20
254.9786287677043
 10
125.44166979783
 20
254.9786287677043
 10
125.44166979783
 20
254.9786287677043
 10
125.51311249619894
 20
254.4110043579786
 10
125.58382229461768
 20
253.84337994825296
 10
125.65379954116256
 20
253.27575553852728
 10
125.72304458008685
 20
252.7081311288016
 10
125.79155775182954
 20
252.14050671907592
 10
125.85933939302365
 20
251.57288230935026
 10
125.9263898365048
 20
251.0052578996246
 10
125.99270941131951
 20
250.43763348989893
 10
126.05829844273342
 20
249.87000908017325
 10
126.12315725223937
 20
249.30238467044757
 10
126.18728615756547
 20
248.73476026072188
 10
126.25068547268299
 20
248.16713585099623
 10
126.31335550781424
 20
247.59951144127058
 10
126.37529656944011
 20
247.0318870315449
 10
126.43650896030789
 20
246.46426262181922
 10
126.49699297943866
 20
245.89663821209354
 10
126.55674892213474
 20
245.32901380236788
 10
126.61577707998703
 20
244.7613893926422
 10
126.67407774088221
 20
244.19376498291652
 10
126.73165118900982
 20
243.62614057319087
 10
126.78849770486931
 20
243.05851616346519
 10
126.84461756527705
 20
242.49089175373953
 10
126.90001104337301
 20
241.92326734401385
 10
126.95467840862761
 20
241.35564293428817
 10
127.00861992684827
 20
240.78801852456252
 10
127.06183586018608
 20
240.22039411483684
 10
127.11432646714204
 20
239.65276970511115
 10
127.16609200257363
 20
239.0851452953855
 10
127.2171327177009
 20
238.51752088565982
 10
127.26744886011278
 20
237.94989647593417
 10
127.31704067377305
 20
237.3822720662085
 10
127.36590839902627
 20
236.8146476564828
 10
127.41405227260381
 20
236.24702324675712
 10
127.46147252762952
 20
235.67939883703147
 10
127.50816939362551
 20
235.1117744273058
 10
127.55414309651763
 20
234.54415001758014
 10
127.59939385864118
 20
233.97652560785446
 10
127.64392189874616
 20
233.40890119812877
 10
127.68772743200265
 20
232.8412767884031
 10
127.73081067000612
 20
232.27365237867744
 10
127.77317182078247
 20
231.7060279689518
 10
127.81481108879319
 20
231.1384035592261
 10
127.85572867494028
 20
230.57077914950042
 10
127.89592477657109
 20
230.00315473977474
 10
127.93539958748326
 20
229.4355303300491
 10
127.9741532979292
 20
228.8679059203234
 10
128.01218609462097
 20
228.30028151059773
 10
128.04949816073454
 20
227.73265710087207
 10
128.08608967591442
 20
227.1650326911464
 10
128.12196081627786
 20
226.5974082814207
 10
128.15711175441936
 20
226.02978387169506
 10
128.19154265941444
 20
225.46215946196938
 10
128.2252536968242
 20
224.89453505224373
 10
128.25824502869892
 20
224.32691064251804
 10
128.29051681358223
 20
223.75928623279236
 10
128.32206920651475
 20
223.1916618230667
 10
128.35290235903804
 20
222.62403741334103
 10
128.38301641919804
 20
222.05641300361535
 10
128.41241153154877
 20
221.4887885938897
 10
128.44108783715578
 20
220.921164184164
 10
128.46904547359958
 20
220.35353977443833
 10
128.49628457497886
 20
219.78591536471268
 10
128.5228052719138
 20
219.218290954987
 10
128.5486076915492
 20
218.65066654526132
 10
128.57369195755746
 20
218.08304213553566
 10
128.59805819014167
 20
217.51541772580998
 10
128.62170650603846
 20
216.9477933160843
 10
128.6446370185207
 20
216.38016890635865
 10
128.66684983740043
 20
215.81254449663297
 10
128.68834506903124
 20
215.2449200869073
 10
128.70912281631098
 20
214.67729567718163
 10
128.7291831786843
 20
214.10967126745595
 10
128.74852625214479
 20
213.5420468577303
 10
128.7671521292375
 20
212.97442244800462
 10
128.78506089906105
 20
212.40679803827894
 10
128.80225264726982
 20
211.83917362855328
 10
128.818727456076
 20
211.2715492188276
 10
128.8344854042514
 20
210.70392480910192
 10
128.84952656712966
 20
210.13630039937627
 10
128.86385101660773
 20
209.5686759896506
 10
128.87745882114768
 20
209.00105157992493
 10
128.89035004577858
 20
208.43342717019925
 10
128.9025247520976
 20
207.86580276047357
 10
128.91398299827196
 20
207.29817835074792
 10
128.92472483903992
 20
206.73055394102224
 10
128.93475032571237
 20
206.16292953129656
 10
128.94405950617391
 20
205.59530512157087
 10
128.95265242488406
 20
205.02768071184522
 10
128.96052912287826
 20
204.46005630211954
 10
128.96768963776893
 20
203.89243189239386
 10
128.97413400374626
 20
203.3248074826682
 10
128.97986225157916
 20
202.75718307294252
 10
128.98487440861592
 20
202.18955866321687
 10
128.9891704987848
 20
201.6219342534912
 10
128.99275054259473
 20
201.0543098437655
 10
128.99561455713575
 20
200.48668543403986
 10
128.99776255607935
 20
199.91906102431417
 10
128.99919454967892
 20
199.3514366145885
 10
128.99991054476982
 20
198.78381220486284
 10
128.99991054476982
 20
198.21618779513716
 10
128.99919454967892
 20
197.64856338541148
 10
128.99776255607935
 20
197.08093897568583
 10
128.99561455713575
 20
196.51331456596014
 10
128.99275054259473
 20
195.9456901562345
 10
128.9891704987848
 20
195.3780657465088
 10
128.98487440861592
 20
194.81044133678313
 10
128.97986225157916
 20
194.24281692705748
 10
128.97413400374626
 20
193.6751925173318
 10
128.96768963776893
 20
193.1075681076061
 10
128.96052912287826
 20
192.53994369788046
 10
128.95265242488406
 20
191.97231928815478
 10
128.94405950617391
 20
191.4046948784291
 10
128.93475032571237
 20
190.83707046870342
 10
128.92472483903992
 20
190.26944605897776
 10
128.91398299827196
 20
189.70182164925208
 10
128.9025247520976
 20
189.13419723952643
 10
128.89035004577858
 20
188.56657282980075
 10
128.87745882114768
 20
187.99894842007507
 10
128.86385101660773
 20
187.4313240103494
 10
128.84952656712966
 20
186.86369960062373
 10
128.8344854042514
 20
186.29607519089805
 10
128.818727456076
 20
185.7284507811724
 10
128.80225264726982
 20
185.16082637144672
 10
128.78506089906105
 20
184.59320196172106
 10
128.7671521292375
 20
184.02557755199538
 10
128.74852625214479
 20
183.4579531422697
 10
128.7291831786843
 20
182.89032873254405
 10
128.70912281631098
 20
182.32270432281837
 10
128.68834506903124
 20
181.7550799130927
 10
128.66684983740043
 20
181.18745550336703
 10
128.6446370185207
 20
180.61983109364135
 10
128.62170650603846
 20
180.05220668391567
 10
128.59805819014167
 20
179.48458227419002
 10
128.57369195755746
 20
178.91695786446434
 10
128.5486076915492
 20
178.34933345473866
 10
128.5228052719138
 20
177.781709045013
 10
128.49628457497886
 20
177.21408463528732
 10
128.46904547359958
 20
176.64646022556167
 10
128.44108783715578
 20
176.078835815836
 10
128.41241153154877
 20
175.5112114061103
 10
128.38301641919804
 20
174.94358699638462
 10
128.352902359038
 20
174.37596258665897
 10
128.32206920651475
 20
173.8083381769333
 10
128.29051681358223
 20
173.24071376720764
 10
128.25824502869892
 20
172.67308935748196
 10
128.2252536968242
 20
172.10546494775627
 10
128.19154265941444
 20
171.53784053803062
 10
128.15711175441936
 20
170.97021612830494
 10
128.12196081627786
 20
170.4025917185793
 10
128.08608967591442
 20
169.8349673088536
 10
128.04949816073454
 20
169.26734289912793
 10
128.01218609462097
 20
168.69971848940224
 10
127.9741532979292
 20
168.1320940796766
 10
127.93539958748326
 20
167.5644696699509
 10
127.89592477657109
 20
166.99684526022526
 10
127.85572867494028
 20
166.42922085049958
 10
127.81481108879319
 20
165.8615964407739
 10
127.77317182078247
 20
165.2939720310482
 10
127.73081067000612
 20
164.72634762132256
 10
127.68772743200265
 20
164.15872321159688
 10
127.64392189874616
 20
163.59109880187123
 10
127.59939385864118
 20
163.02347439214554
 10
127.55414309651763
 20
162.45584998241986
 10
127.50816939362551
 20
161.8882255726942
 10
127.46147252762952
 20
161.32060116296853
 10
127.41405227260381
 20
160.75297675324288
 10
127.36590839902627
 20
160.1853523435172
 10
127.31704067377305
 20
159.6177279337915
 10
127.26744886011278
 20
159.05010352406583
 10
127.2171327177009
 20
158.48247911434018
 10
127.16609200257363
 20
157.9148547046145
 10
127.11432646714204
 20
157.34723029488885
 10
127.06183586018608
 20
156.77960588516316
 10
127.00861992684827
 20
156.21198147543748
 10
126.95467840862761
 20
155.6443570657118
 10
126.90001104337301
 20
155.07673265598615
 10
126.84461756527705
 20
154.50910824626047
 10
126.78849770486931
 20
153.94148383653481
 10
126.73165118900982
 20
153.37385942680913
 10
126.67407774088221
 20
152.80623501708345
 10
126.61577707998703
 20
152.23861060735777
 10
126.55674892213474
 20
151.67098619763212
 10
126.49699297943866
 20
151.10336178790644
 10
126.43650896030789
 20
150.53573737818078
 10
126.37529656944011
 20
149.9681129684551
 10
126.31335550781424
 20
149.40048855872942
 10
126.25068547268299
 20
148.83286414900377
 10
126.18728615756547
 20
148.2652397392781
 10
126.12315725223937
 20
147.69761532955243
 10
126.05829844273342
 20
147.12999091982675
 10
125.99270941131951
 20
146.56236651010107
 10
125.9263898365048
 20
145.9947421003754
 10
125.85933939302365
 20
145.42711769064974
 10
125.79155775182954
 20
144.85949328092408
 10
125.72304458008685
 20
144.2918688711984
 10
125.65379954116256
 20
143.72424446147272
 10
125.58382229461768
 20
143.15662005174704
 10
125.51311249619894
 20
142.5889956420214
 10
125.44166979783
 20
142.0213712322957
 10
85.61368043812581
 20
142.0213712322957
  0
LWPOLYLINE
  5
98
330
17
100
AcDbEntity
  8
CEMENT
370
25
100
AcDbPolyline
 90
200
 70
0
 10
98.47194053099463
 20
144.4019084585526
 10
98.80971772416336
 20
144.94560787102947
 10
99.14279353681127
 20
145.48930728350632
 10
99.47122167517173
 20
146.03300669598318
 10
99.79505429801895
 20
146.57670610846003
 10
100.11434207286862
 20
147.1204055209369
 10
100.42913422947359
 20
147.66410493341374
 10
100.7394786107703
 20
148.20780434589062
 10
101.04542172142163
 20
148.75150375836748
 10
101.34700877409185
 20
149.29520317084433
 10
101.64428373358135
 20
149.8389025833212
 10
101.93728935893827
 20
150.38260199579804
 10
102.22606724365923
 20
150.9263014082749
 10
102.51065785408161
 20
151.47000082075175
 10
102.7911005660649
 20
152.01370023322863
 10
103.06743370005205
 20
152.55739964570546
 10
103.33969455459561
 20
153.10109905818234
 10
103.60791943842881
 20
153.6447984706592
 10
103.8721437011562
 20
154.18849788313605
 10
104.13240176263463
 20
154.7321972956129
 10
104.38872714111037
 20
155.27589670808976
 10
104.64115248017467
 20
155.81959612056664
 10
104.88970957459605
 20
156.36329553304347
 10
105.1344293950848
 20
156.90699494552035
 10
105.3753421120409
 20
157.4506943579972
 10
105.61247711833468
 20
157.99439377047406
 10
105.84586305116602
 20
158.53809318295092
 10
106.07552781304548
 20
159.08179259542777
 10
106.30149859193858
 20
159.62549200790463
 10
106.52380188061164
 20
160.16919142038148
 10
106.7424634952157
 20
160.71289083285836
 10
106.95750859314313
 20
161.25659024533522
 10
107.16896169019003
 20
161.80028965781207
 10
107.37684667705415
 20
162.34398907028893
 10
107.58118683519871
 20
162.88768848276578
 10
107.78200485210914
 20
163.43138789524264
 10
107.97932283596919
 20
163.9750873077195
 10
108.17316232978081
 20
164.51878672019637
 10
108.36354432495199
 20
165.0624861326732
 10
108.55048927437417
 20
165.60618554515008
 10
108.7340171050109
 20
166.14988495762694
 10
108.91414723001742
 20
166.6935843701038
 10
109.0908985604103
 20
167.23728378258065
 10
109.26428951630564
 20
167.7809831950575
 10
109.43433803774218
 20
168.32468260753436
 10
109.60106159510642
 20
168.8683820200112
 10
109.7644771991747
 20
169.4120814324881
 10
109.92460141078746
 20
169.95578084496495
 10
110.08145035016918
 20
170.4994802574418
 10
110.23503970590772
 20
171.04317966991866
 10
110.38538474360553
 20
171.5868790823955
 10
110.53250031421496
 20
172.13057849487237
 10
110.6764008620689
 20
172.67427790734922
 10
110.81710043261802
 20
173.2179773198261
 10
110.95461267988463
 20
173.76167673230296
 10
111.08895087364343
 20
174.3053761447798
 10
111.22012790633823
 20
174.84907555725667
 10
111.34815629974412
 20
175.39277496973352
 10
111.47304821138297
 20
175.93647438221038
 10
111.59481544070115
 20
176.48017379468723
 10
111.71346943501663
 20
177.02387320716412
 10
111.82902129524331
 20
177.56757261964097
 10
111.94148178139926
 20
178.11127203211782
 10
112.05086131790597
 20
178.65497144459468
 10
112.15716999868465
 20
179.19867085707153
 10
112.26041759205603
 20
179.7423702695484
 10
112.36061354544904
 20
180.28606968202524
 10
112.4577669899245
 20
180.8297690945021
 10
112.55188674451827
 20
181.37346850697895
 10
112.64298132040989
 20
181.91716791945584
 10
112.73105892492046
 20
182.4608673319327
 10
112.81612746534506
 20
183.00456674440954
 10
112.89819455262364
 20
183.5482661568864
 10
112.97726750485455
 20
184.09196556936325
 10
113.05335335065485
 20
184.6356649818401
 10
113.12645883237053
 20
185.17936439431696
 10
113.19659040914098
 20
185.72306380679385
 10
113.2637542598201
 20
186.2667632192707
 10
113.32795628575815
 20
186.81046263174755
 10
113.38920211344634
 20
187.3541620442244
 10
113.44749709702808
 20
187.89786145670126
 10
113.50284632067837
 20
188.44156086917812
 10
113.55525460085494
 20
188.98526028165497
 10
113.60472648842261
 20
189.52895969413183
 10
113.65126627065379
 20
190.0726591066087
 10
113.69487797310654
 20
190.61635851908557
 10
113.73556536138281
 20
191.16005793156242
 10
113.77333194276801
 20
191.70375734403927
 10
113.80818096775414
 20
192.24745675651613
 10
113.84011543144777
 20
192.79115616899298
 10
113.86913807486405
 20
193.33485558146984
 10
113.89525138610884
 20
193.8785549939467
 10
113.91845760144923
 20
194.42225440642358
 10
113.93875870627414
 20
194.96595381890043
 10
113.95615643594579
 20
195.50965323137729
 10
113.97065227654281
 20
196.05335264385414
 10
113.9822474654959
 20
196.597052056331
 10
113.9909429921166
 20
197.14075146880785
 10
113.99673959801953
 20
197.6844508812847
 10
113.99963777743875
 20
198.2281502937616
 10
113.99963777743875
 20
198.7718497062384
 10
113.99673959801953
 20
199.3155491187153
 10
113.9909429921166
 20
199.85924853119215
 10
113.9822474654959
 20
200.402947943669
 10
113.97065227654281
 20
200.94664735614586
 10
113.95615643594579
 20
201.49034676862271
 10
113.93875870627414
 20
202.03404618109957
 10
113.91845760144923
 20
202.57774559357645
 10
113.89525138610884
 20
203.1214450060533
 10
113.86913807486405
 20
203.66514441853016
 10
113.84011543144777
 20
204.20884383100702
 10
113.80818096775414
 20
204.75254324348387
 10
113.77333194276801
 20
205.29624265596073
 10
113.73556536138281
 20
205.83994206843758
 10
113.69487797310654
 20
206.38364148091443
 10
113.65126627065379
 20
206.92734089339132
 10
113.60472648842261
 20
207.47104030586817
 10
113.55525460085494
 20
208.01473971834503
 10
113.50284632067837
 20
208.55843913082188
 10
113.44749709702808
 20
209.10213854329874
 10
113.38920211344634
 20
209.6458379557756
 10
113.32795628575815
 20
210.18953736825245
 10
113.2637542598201
 20
210.73323678072933
 10
113.19659040914098
 20
211.27693619320615
 10
113.12645883237053
 20
211.82063560568304
 10
113.05335335065485
 20
212.3643350181599
 10
112.97726750485455
 20
212.90803443063675
 10
112.89819455262364
 20
213.4517338431136
 10
112.81612746534506
 20
213.99543325559046
 10
112.73105892492046
 20
214.5391326680673
 10
112.64298132040989
 20
215.0828320805442
 10
112.55188674451827
 20
215.62653149302105
 10
112.4577669899245
 20
216.1702309054979
 10
112.36061354544904
 20
216.71393031797476
 10
112.26041759205603
 20
217.2576297304516
 10
112.15716999868465
 20
217.80132914292847
 10
112.05086131790597
 20
218.34502855540532
 10
111.94148178139926
 20
218.88872796788218
 10
111.82902129524331
 20
219.43242738035903
 10
111.71346943501663
 20
219.9761267928359
 10
111.59481544070115
 20
220.51982620531277
 10
111.47304821138297
 20
221.06352561778962
 10
111.34815629974412
 20
221.60722503026648
 10
111.22012790633823
 20
222.15092444274333
 10
111.08895087364343
 20
222.6946238552202
 10
110.95461267988463
 20
223.23832326769707
 10
110.81710043261802
 20
223.7820226801739
 10
110.6764008620689
 20
224.32572209265078
 10
110.53250031421496
 20
224.86942150512763
 10
110.38538474360553
 20
225.4131209176045
 10
110.23503970590772
 20
225.95682033008134
 10
110.08145035016918
 20
226.5005197425582
 10
109.92460141078746
 20
227.04421915503505
 10
109.7644771991747
 20
227.58791856751193
 10
109.60106159510642
 20
228.1316179799888
 10
109.43433803774218
 20
228.67531739246564
 10
109.26428951630564
 20
229.2190168049425
 10
109.0908985604103
 20
229.76271621741935
 10
108.91414723001742
 20
230.3064156298962
 10
108.7340171050109
 20
230.8501150423731
 10
108.55048927437417
 20
231.39381445484992
 10
108.36354432495199
 20
231.9375138673268
 10
108.17316232978081
 20
232.48121327980365
 10
107.97932283596919
 20
233.0249126922805
 10
107.78200485210914
 20
233.56861210475736
 10
107.58118683519871
 20
234.11231151723422
 10
107.37684667705415
 20
234.65601092971107
 10
107.16896169019003
 20
235.19971034218793
 10
106.95750859314313
 20
235.7434097546648
 10
106.7424634952157
 20
236.28710916714164
 10
106.52380188061164
 20
236.83080857961852
 10
106.30149859193858
 20
237.37450799209537
 10
106.07552781304548
 20
237.91820740457223
 10
105.84586305116602
 20
238.46190681704908
 10
105.61247711833468
 20
239.00560622952594
 10
105.3753421120409
 20
239.5493056420028
 10
105.1344293950848
 20
240.09300505447965
 10
104.88970957459605
 20
240.6367044669565
 10
104.64115248017464
 20
241.18040387943338
 10
104.38872714111037
 20
241.72410329191024
 10
104.13240176263463
 20
242.2678027043871
 10
103.8721437011562
 20
242.81150211686395
 10
103.60791943842881
 20
243.3552015293408
 10
103.33969455459561
 20
243.89890094181766
 10
103.06743370005202
 20
244.44260035429454
 10
102.79110056606487
 20
244.9862997667714
 10
102.51065785408161
 20
245.52999917924825
 10
102.22606724365923
 20
246.0736985917251
 10
101.93728935893827
 20
246.61739800420196
 10
101.64428373358135
 20
247.1610974166788
 10
101.34700877409185
 20
247.70479682915567
 10
101.04542172142163
 20
248.24849624163255
 10
100.7394786107703
 20
248.79219565410938
 10
100.42913422947359
 20
249.33589506658626
 10
100.11434207286862
 20
249.8795944790631
 10
99.79505429801895
 20
250.42329389153997
 10
99.47122167517173
 20
250.96699330401682
 10
99.14279353681124
 20
251.51069271649368
 10
98.80971772416336
 20
252.05439212897053
 10
98.47194053099463
 20
252.5980915414474
  0
HATCH
  5
99
330
17
100
AcDbEntity
  8
OUTLINE
 62
7
100
AcDbHatch
 10
0.0
 20
0.0
 30
0.0
210
0.0
220
0.0
230
1.0
  2
ANSI31
 70
0
 71
0
 91
1
 92
3
 72
0
 73
1
 93
402
 10
85.61368043812581
 20
142.0213712322957
 10
85.52080185052887
 20
142.5889956420214
 10
85.42888615947822
 20
143.15662005174704
 10
85.33793259236637
 20
143.72424446147272
 10
85.24794038548634
 20
144.2918688711984
 10
85.15890878399884
 20
144.85949328092408
 10
85.07083704189938
 20
145.42711769064974
 10
84.98372442198593
 20
145.9947421003754
 10
84.89757019582738
 20
146.56236651010107
 10
84.8123736437319
 20
147.12999091982675
 10
84.72813405471608
 20
147.69761532955243
 10
84.64485072647435
 20
148.2652397392781
 10
84.56252296534896
 20
148.83286414900377
 10
84.48115008630015
 20
149.40048855872942
 10
84.40073141287692
 20
149.9681129684551
 10
84.32126627718824
 20
150.53573737818078
 10
84.24275401987444
 20
151.10336178790644
 10
84.16519399007923
 20
151.67098619763212
 10
84.08858554542206
 20
152.23861060735777
 10
84.01292805197087
 20
152.80623501708345
 10
83.93822088421521
 20
153.37385942680913
 10
83.8644634250397
 20
153.94148383653481
 10
83.7916550656982
 20
154.50910824626047
 10
83.71979520578785
 20
155.07673265598615
 10
83.64888325322397
 20
155.6443570657118
 10
83.57891862421508
 20
156.21198147543748
 10
83.5099007432384
 20
156.77960588516316
 10
83.44182904301573
 20
157.34723029488885
 10
83.37470296448956
 20
157.9148547046145
 10
83.30852195679988
 20
158.48247911434018
 10
83.24328547726097
 20
159.05010352406583
 10
83.17899299133886
 20
159.6177279337915
 10
83.11564397262904
 20
160.1853523435172
 10
83.05323790283452
 20
160.75297675324288
 10
82.99177427174429
 20
161.32060116296853
 10
82.93125257721212
 20
161.8882255726942
 10
82.87167232513573
 20
162.45584998241986
 10
82.81303302943638
 20
163.02347439214554
 10
82.75533421203866
 20
163.59109880187123
 10
82.69857540285075
 20
164.15872321159688
 10
82.64275613974507
 20
164.72634762132256
 10
82.58787596853917
 20
165.2939720310482
 10
82.53393444297703
 20
165.8615964407739
 10
82.48093112471062
 20
166.42922085049958
 10
82.42886558328202
 20
166.99684526022526
 10
82.37773739610566
 20
167.5644696699509
 10
82.32754614845089
 20
168.1320940796766
 10
82.27829143342518
 20
168.69971848940224
 10
82.22997285195726
 20
169.26734289912793
 10
82.18259001278093
 20
169.8349673088536
 10
82.13614253241903
 20
170.4025917185793
 10
82.09063003516764
 20
170.97021612830494
 10
82.04605215308102
 20
171.53784053803062
 10
82.00240852595637
 20
172.10546494775627
 10
81.9596988013193
 20
172.67308935748196
 10
81.91792263440941
 20
173.24071376720764
 10
81.87707968816629
 20
173.8083381769333
 10
81.83716963321584
 20
174.37596258665897
 10
81.7981921478569
 20
174.94358699638462
 10
81.76014691804818
 20
175.5112114061103
 10
81.7230336373955
 20
176.078835815836
 10
81.68685200713949
 20
176.64646022556167
 10
81.65160173614336
 20
177.21408463528732
 10
81.6172825408812
 20
177.781709045013
 10
81.58389414542654
 20
178.34933345473866
 10
81.5514362814411
 20
178.91695786446434
 10
81.5199086881641
 20
179.48458227419002
 10
81.4893111124016
 20
180.05220668391567
 10
81.45964330851643
 20
180.61983109364135
 10
81.43090503841813
 20
181.18745550336703
 10
81.40309607155352
 20
181.7550799130927
 10
81.37621618489732
 20
182.32270432281837
 10
81.35026516294326
 20
182.89032873254405
 10
81.32524279769525
 20
183.4579531422697
 10
81.30114888865928
 20
184.02557755199538
 10
81.2779832428351
 20
184.59320196172106
 10
81.25574567470869
 20
185.16082637144672
 10
81.23443600624462
 20
185.7284507811724
 10
81.2140540668791
 20
186.29607519089805
 10
81.194599693513
 20
186.86369960062373
 10
81.17607273050538
 20
187.4313240103494
 10
81.15847302966722
 20
187.99894842007507
 10
81.14180045025549
 20
188.56657282980075
 10
81.12605485896755
 20
189.13419723952643
 10
81.11123612993583
 20
189.70182164925208
 10
81.09734414472265
 20
190.26944605897776
 10
81.08437879231572
 20
190.83707046870342
 10
81.07233996912345
 20
191.4046948784291
 10
81.06122757897097
 20
191.97231928815478
 10
81.05104153309627
 20
192.53994369788046
 10
81.0417817501466
 20
193.1075681076061
 10
81.03344815617527
 20
193.6751925173318
 10
81.02604068463862
 20
194.24281692705748
 10
81.01955927639347
 20
194.81044133678313
 10
81.01400387969468
 20
195.3780657465088
 10
81.00937445019314
 20
195.9456901562345
 10
81.00567095093388
 20
196.51331456596014
 10
81.00289335235479
 20
197.08093897568583
 10
81.00104163228525
 20
197.64856338541148
 10
81.0001157759454
 20
198.21618779513716
 10
81.0001157759454
 20
198.78381220486284
 10
81.00104163228525
 20
199.3514366145885
 10
81.00289335235479
 20
199.91906102431417
 10
81.00567095093388
 20
200.48668543403986
 10
81.00937445019314
 20
201.0543098437655
 10
81.01400387969468
 20
201.6219342534912
 10
81.01955927639347
 20
202.18955866321687
 10
81.02604068463862
 20
202.75718307294252
 10
81.03344815617527
 20
203.3248074826682
 10
81.0417817501466
 20
203.89243189239386
 10
81.05104153309627
 20
204.46005630211954
 10
81.06122757897097
 20
205.02768071184522
 10
81.07233996912345
 20
205.59530512157087
 10
81.08437879231572
 20
206.16292953129656
 10
81.09734414472265
 20
206.73055394102224
 10
81.11123612993583
 20
207.29817835074792
 10
81.12605485896755
 20
207.86580276047357
 10
81.14180045025549
 20
208.43342717019925
 10
81.15847302966722
 20
209.00105157992493
 10
81.17607273050538
 20
209.5686759896506
 10
81.194599693513
 20
210.13630039937627
 10
81.2140540668791
 20
210.70392480910192
 10
81.23443600624462
 20
211.2715492188276
 10
81.25574567470869
 20
211.83917362855328
 10
81.2779832428351
 20
212.40679803827894
 10
81.30114888865928
 20
212.97442244800462
 10
81.32524279769525
 20
213.5420468577303
 10
81.35026516294326
 20
214.10967126745595
 10
81.37621618489732
 20
214.67729567718163
 10
81.40309607155352
 20
215.2449200869073
 10
81.43090503841813
 20
215.81254449663297
 10
81.45964330851643
 20
216.38016890635865
 10
81.4893111124016
 20
216.9477933160843
 10
81.5199086881641
 20
217.51541772580998
 10
81.5514362814411
 20
218.08304213553566
 10
81.58389414542654
 20
218.65066654526132
 10
81.6172825408812
 20
219.218290954987
 10
81.65160173614336
 20
219.78591536471268
 10
81.68685200713949
 20
220.35353977443833
 10
81.7230336373955
 20
220.921164184164
 10
81.76014691804818
 20
221.4887885938897
 10
81.7981921478569
 20
222.05641300361535
 10
81.83716963321584
 20
222.62403741334103
 10
81.87707968816629
 20
223.1916618230667
 10
81.91792263440941
 20
223.75928623279236
 10
81.9596988013193
 20
224.32691064251804
 10
82.00240852595637
 20
224.89453505224373
 10
82.04605215308102
 20
225.46215946196938
 10
82.09063003516764
 20
226.02978387169506
 10
82.13614253241903
 20
226.5974082814207
 10
82.18259001278093
 20
227.1650326911464
 10
82.22997285195726
 20
227.73265710087207
 10
82.27829143342518
 20
228.30028151059773
 10
82.32754614845089
 20
228.8679059203234
 10
82.37773739610566
 20
229.4355303300491
 10
82.42886558328202
 20
230.00315473977474
 10
82.48093112471062
 20
230.57077914950042
 10
82.53393444297703
 20
231.1384035592261
 10
82.58787596853917
 20
231.7060279689518
 10
82.64275613974507
 20
232.27365237867744
 10
82.69857540285075
 20
232.8412767884031
 10
82.75533421203866
 20
233.40890119812877
 10
82.81303302943638
 20
233.97652560785446
 10
82.87167232513573
 20
234.54415001758014
 10
82.93125257721212
 20
235.1117744273058
 10
82.99177427174429
 20
235.67939883703147
 10
83.05323790283452
 20
236.24702324675712
 10
83.11564397262904
 20
236.8146476564828
 10
83.17899299133886
 20
237.3822720662085
 10
83.24328547726097
 20
237.94989647593417
 10
83.30852195679988
 20
238.51752088565982
 10
83.37470296448956
 20
239.0851452953855
 10
83.44182904301573
 20
239.65276970511115
 10
83.5099007432384
 20
240.22039411483684
 10
83.57891862421508
 20
240.78801852456252
 10
83.64888325322397
 20
241.35564293428817
 10
83.71979520578785
 20
241.92326734401385
 10
83.7916550656982
 20
242.49089175373953
 10
83.8644634250397
 20
243.05851616346519
 10
83.93822088421521
 20
243.62614057319087
 10
84.01292805197087
 20
244.19376498291652
 10
84.08858554542206
 20
244.7613893926422
 10
84.16519399007923
 20
245.32901380236788
 10
84.24275401987444
 20
245.89663821209354
 10
84.32126627718824
 20
246.46426262181922
 10
84.40073141287692
 20
247.0318870315449
 10
84.48115008630015
 20
247.59951144127058
 10
84.56252296534896
 20
248.16713585099623
 10
84.64485072647435
 20
248.73476026072188
 10
84.72813405471608
 20
249.30238467044757
 10
84.8123736437319
 20
249.87000908017325
 10
84.89757019582738
 20
250.43763348989893
 10
84.98372442198593
 20
251.0052578996246
 10
85.07083704189938
 20
251.57288230935026
 10
85.15890878399884
 20
252.14050671907592
 10
85.24794038548634
 20
252.7081311288016
 10
85.33793259236637
 20
253.27575553852728
 10
85.42888615947822
 20
253.84337994825296
 10
85.52080185052887
 20
254.4110043579786
 10
85.61368043812581
 20
254.9786287677043
 10
96.93623784938416
 20
254.9786287677043
 10
96.93623784938416
 20
254.9786287677043
 10
97.31095825978304
 20
254.4110043579786
 10
97.68027954819138
 20
253.84337994825296
 10
98.04427123736065
 20
253.27575553852728
 10
98.40300068365258
 20
252.7081311288016
 10
98.75653316360996
 20
252.14050671907592
 10
99.10493195598252
 20
251.57288230935026
 10
99.44825841949435
 20
251.0052578996246
 10
99.78657206661796
 20
250.43763348989893
 10
100.11993063360234
 20
249.87000908017325
 10
100.44839014698229
 20
249.30238467044757
 10
100.77200498678195
 20
248.73476026072188
 10
101.09082794660873
 20
248.16713585099623
 10
101.40491029082116
 20
247.59951144127058
 10
101.71430180894168
 20
247.0318870315449
 10
102.01905086747212
 20
246.46426262181922
 10
102.31920445926076
 20
245.89663821209354
 10
102.61480825055878
 20
245.32901380236788
 10
102.90590662589472
 20
244.7613893926422
 10
103.19254273088791
 20
244.19376498291652
 10
103.47475851311287
 20
243.62614057319087
 10
103.75259476112052
 20
243.05851616346519
 10
104.02609114171412
 20
242.49089175373953
 10
104.29528623557292
 20
241.92326734401385
 10
104.56021757130969
 20
241.35564293428817
 10
104.82092165804337
 20
240.78801852456252
 10
105.07743401656316
 20
240.22039411483684
 10
105.32978920915502
 20
239.65276970511115
 10
105.57802086815877
 20
239.0851452953855
 10
105.82216172331786
 20
238.51752088565982
 10
106.06224362798218
 20
237.94989647593417
 10
106.29829758421911
 20
237.3822720662085
 10
106.5303537668861
 20
236.8146476564828
 10
106.75844154671361
 20
236.24702324675712
 10
106.98258951244628
 20
235.67939883703147
 10
107.20282549208514
 20
235.1117744273058
 10
107.41917657327372
 20
234.54415001758014
 10
107.63166912286636
 20
233.97652560785446
 10
107.84032880571633
 20
233.40890119812877
 10
108.04518060271886
 20
232.8412767884031
 10
108.24624882814174
 20
232.27365237867744
 10
108.44355714627548
 20
231.7060279689518
 10
108.63712858743202
 20
231.1384035592261
 10
108.82698556332053
 20
230.57077914950042
 10
109.01314988182651
 20
230.00315473977474
 10
109.1956427612196
 20
229.4355303300491
 10
109.374484843814
 20
228.8679059203234
 10
109.54969620910333
 20
228.30028151059773
 10
109.72129638639257
 20
227.73265710087207
 10
109.88930436694639
 20
227.1650326911464
 10
110.05373861567341
 20
226.5974082814207
 10
110.21461708236507
 20
226.02978387169506
 10
110.37195721250563
 20
225.46215946196938
 10
110.52577595767082
 20
224.89453505224373
 10
110.6760897855296
 20
224.32691064251804
 10
110.82291468946525
 20
223.75928623279236
 10
110.96626619782825
 20
223.1916618230667
 10
111.1061593828363
 20
222.62403741334103
 10
111.2426088691322
 20
222.05641300361535
 10
111.3756288420135
 20
221.4887885938897
 10
111.5052330553442
 20
220.921164184164
 10
111.63143483915994
 20
220.35353977443833
 10
111.75424710697709
 20
219.78591536471268
 10
111.87368236281563
 20
219.218290954987
 10
111.98975270794506
 20
218.65066654526132
 10
112.10246984736233
 20
218.08304213553566
 10
112.2118450960107
 20
217.51541772580998
 10
112.3178893847467
 20
216.9477933160843
 10
112.42061326606398
 20
216.38016890635865
 10
112.52002691958037
 20
215.81254449663297
 10
112.61614015729594
 20
215.2449200869073
 10
112.70896242862776
 20
214.67729567718163
 10
112.79850282522835
 20
214.10967126745595
 10
112.88477008559352
 20
213.5420468577303
 10
112.96777259946481
 20
212.97442244800462
 10
113.04751841203267
 20
212.40679803827894
 10
113.12401522794482
 20
211.83917362855328
 10
113.19727041512448
 20
211.2715492188276
 10
113.2672910084037
 20
210.70392480910192
 10
113.33408371297537
 20
210.13630039937627
 10
113.39765490766814
 20
209.5686759896506
 10
113.4580106480484
 20
209.00105157992493
 10
113.51515666935225
 20
208.43342717019925
 10
113.56909838925148
 20
207.86580276047357
 10
113.61984091045628
 20
207.29817835074792
 10
113.66738902315791
 20
206.73055394102224
 10
113.71174720731375
 20
206.16292953129656
 10
113.75291963477781
 20
205.59530512157087
 10
113.79091017127854
 20
205.02768071184522
 10
113.8257223782465
 20
204.46005630211954
 10
113.8573595144938
 20
203.89243189239386
 10
113.8858245377474
 20
203.3248074826682
 10
113.9111201060372
 20
202.75718307294252
 10
113.93324857894169
 20
202.18955866321687
 10
113.95221201869134
 20
201.6219342534912
 10
113.96801219113152
 20
201.0543098437655
 10
113.98065056654616
 20
200.48668543403986
 10
113.9901283203425
 20
199.91906102431417
 10
113.99644633359807
 20
199.3514366145885
 10
113.99960519347053
 20
198.78381220486284
 10
113.99960519347053
 20
198.21618779513716
 10
113.99644633359807
 20
197.64856338541148
 10
113.9901283203425
 20
197.08093897568583
 10
113.98065056654616
 20
196.51331456596014
 10
113.96801219113152
 20
195.9456901562345
 10
113.95221201869134
 20
195.3780657465088
 10
113.93324857894169
 20
194.81044133678313
 10
113.9111201060372
 20
194.24281692705748
 10
113.8858245377474
 20
193.6751925173318
 10
113.8573595144938
 20
193.1075681076061
 10
113.8257223782465
 20
192.53994369788046
 10
113.79091017127854
 20
191.97231928815478
 10
113.75291963477781
 20
191.4046948784291
 10
113.71174720731375
 20
190.83707046870342
 10
113.66738902315791
 20
190.26944605897776
 10
113.61984091045628
 20
189.70182164925208
 10
113.56909838925148
 20
189.13419723952643
 10
113.51515666935225
 20
188.56657282980075
 10
113.4580106480484
 20
187.99894842007507
 10
113.39765490766814
 20
187.4313240103494
 10
113.33408371297537
 20
186.86369960062373
 10
113.2672910084037
 20
186.29607519089805
 10
113.19727041512448
 20
185.7284507811724
 10
113.12401522794482
 20
185.16082637144672
 10
113.04751841203267
 20
184.59320196172106
 10
112.96777259946481
 20
184.02557755199538
 10
112.88477008559352
 20
183.4579531422697
 10
112.79850282522835
 20
182.89032873254405
 10
112.70896242862776
 20
182.32270432281837
 10
112.61614015729594
 20
181.7550799130927
 10
112.52002691958037
 20
181.18745550336703
 10
112.42061326606398
 20
180.61983109364135
 10
112.3178893847467
 20
180.05220668391567
 10
112.2118450960107
 20
179.48458227419002
 10
112.10246984736233
 20
178.91695786446434
 10
111.98975270794506
 20
178.34933345473866
 10
111.87368236281563
 20
177.781709045013
 10
111.75424710697709
 20
177.21408463528732
 10
111.63143483915994
 20
176.64646022556167
 10
111.5052330553442
 20
176.078835815836
 10
111.3756288420135
 20
175.5112114061103
 10
111.2426088691322
 20
174.94358699638462
 10
111.1061593828363
 20
174.37596258665897
 10
110.96626619782825
 20
173.8083381769333
 10
110.82291468946525
 20
173.24071376720764
 10
110.6760897855296
 20
172.67308935748196
 10
110.52577595767079
 20
172.10546494775627
 10
110.37195721250563
 20
171.53784053803062
 10
110.21461708236507
 20
170.97021612830494
 10
110.05373861567341
 20
170.4025917185793
 10
109.88930436694636
 20
169.8349673088536
 10
109.72129638639257
 20
169.26734289912793
 10
109.54969620910333
 20
168.69971848940224
 10
109.374484843814
 20
168.1320940796766
 10
109.1956427612196
 20
167.5644696699509
 10
109.01314988182651
 20
166.99684526022526
 10
108.82698556332053
 20
166.42922085049958
 10
108.63712858743202
 20
165.8615964407739
 10
108.44355714627548
 20
165.2939720310482
 10
108.24624882814174
 20
164.72634762132256
 10
108.04518060271886
 20
164.15872321159688
 10
107.84032880571633
 20
163.59109880187123
 10
107.63166912286636
 20
163.02347439214554
 10
107.41917657327372
 20
162.45584998241986
 10
107.20282549208514
 20
161.8882255726942
 10
106.98258951244628
 20
161.32060116296853
 10
106.75844154671361
 20
160.75297675324288
 10
106.5303537668861
 20
160.1853523435172
 10
106.29829758421911
 20
159.6177279337915
 10
106.06224362798218
 20
159.05010352406583
 10
105.82216172331786
 20
158.48247911434018
 10
105.57802086815877
 20
157.9148547046145
 10
105.32978920915502
 20
157.34723029488885
 10
105.07743401656316
 20
156.77960588516316
 10
104.82092165804337
 20
156.21198147543748
 10
104.56021757130969
 20
155.6443570657118
 10
104.29528623557292
 20
155.07673265598615
 10
104.02609114171412
 20
154.50910824626047
 10
103.75259476112052
 20
153.94148383653481
 10
103.4747585131129
 20
153.37385942680913
 10
103.19254273088788
 20
152.80623501708345
 10
102.90590662589472
 20
152.23861060735777
 10
102.61480825055878
 20
151.67098619763212
 10
102.31920445926076
 20
151.10336178790644
 10
102.01905086747212
 20
150.53573737818078
 10
101.71430180894168
 20
149.9681129684551
 10
101.40491029082116
 20
149.40048855872942
 10
101.09082794660873
 20
148.83286414900377
 10
100.77200498678195
 20
148.2652397392781
 10
100.44839014698229
 20
147.69761532955243
 10
100.11993063360234
 20
147.12999091982675
 10
99.78657206661796
 20
146.56236651010107
 10
99.44825841949435
 20
145.9947421003754
 10
99.10493195598252
 20
145.42711769064974
 10
98.75653316360993
 20
144.85949328092408
 10
98.40300068365258
 20
144.2918688711984
 10
98.04427123736065
 20
143.72424446147272
 10
97.68027954819138
 20
143.15662005174704
 10
97.31095825978304
 20
142.5889956420214
 10
96.93623784938416
 20
142.0213712322957
 10
85.61368043812581
 20
142.0213712322957
 97
0
 75
1
 76
1
 52
0.0
 41
1.0
 77
0
 78
1
 53
45.0
 43
0.0
 44
0.0
 45
-2.2450640303
 46
2.2450640303
 79
0
 98
0
  0
HATCH
  5
9A
330
17
100
AcDbEntity
  8
OUTLINE
 62
7
100
AcDbHatch
 10
0.0
 20
0.0
 30
0.0
210
0.0
220
0.0
230
1.0
  2
ANSI31
 70
0
 71
0
 91
1
 92
3
 72
0
 73
1
 93
402
 10
96.93623784938416
 20
142.0213712322957
 10
97.31095825978304
 20
142.5889956420214
 10
97.68027954819138
 20
143.15662005174704
 10
98.04427123736065
 20
143.72424446147272
 10
98.40300068365258
 20
144.2918688711984
 10
98.75653316360993
 20
144.85949328092408
 10
99.10493195598252
 20
145.42711769064974
 10
99.44825841949435
 20
145.9947421003754
 10
99.78657206661796
 20
146.56236651010107
 10
100.11993063360234
 20
147.12999091982675
 10
100.44839014698229
 20
147.69761532955243
 10
100.77200498678195
 20
148.2652397392781
 10
101.09082794660873
 20
148.83286414900377
 10
101.40491029082116
 20
149.40048855872942
 10
101.71430180894168
 20
149.9681129684551
 10
102.01905086747212
 20
150.53573737818078
 10
102.31920445926076
 20
151.10336178790644
 10
102.61480825055878
 20
151.67098619763212
 10
102.90590662589472
 20
152.23861060735777
 10
103.19254273088788
 20
152.80623501708345
 10
103.4747585131129
 20
153.37385942680913
 10
103.75259476112052
 20
153.94148383653481
 10
104.02609114171412
 20
154.50910824626047
 10
104.29528623557292
 20
155.07673265598615
 10
104.56021757130969
 20
155.6443570657118
 10
104.82092165804337
 20
156.21198147543748
 10
105.07743401656316
 20
156.77960588516316
 10
105.32978920915502
 20
157.34723029488885
 10
105.57802086815877
 20
157.9148547046145
 10
105.82216172331786
 20
158.48247911434018
 10
106.06224362798218
 20
159.05010352406583
 10
106.29829758421911
 20
159.6177279337915
 10
106.5303537668861
 20
160.1853523435172
 10
106.75844154671361
 20
160.75297675324288
 10
106.98258951244628
 20
161.32060116296853
 10
107.20282549208514
 20
161.8882255726942
 10
107.41917657327372
 20
162.45584998241986
 10
107.63166912286636
 20
163.02347439214554
 10
107.84032880571633
 20
163.59109880187123
 10
108.04518060271886
 20
164.15872321159688
 10
108.24624882814174
 20
164.72634762132256
 10
108.44355714627548
 20
165.2939720310482
 10
108.63712858743202
 20
165.8615964407739
 10
108.82698556332053
 20
166.42922085049958
 10
109.01314988182651
 20
166.99684526022526
 10
109.1956427612196
 20
167.5644696699509
 10
109.374484843814
 20
168.1320940796766
 10
109.54969620910333
 20
168.69971848940224
 10
109.72129638639257
 20
169.26734289912793
 10
109.88930436694636
 20
169.8349673088536
 10
110.05373861567341
 20
170.4025917185793
 10
110.21461708236507
 20
170.97021612830494
 10
110.37195721250563
 20
171.53784053803062
 10
110.52577595767079
 20
172.10546494775627
 10
110.6760897855296
 20
172.67308935748196
 10
110.82291468946525
 20
173.24071376720764
 10
110.96626619782825
 20
173.8083381769333
 10
111.1061593828363
 20
174.37596258665897
 10
111.2426088691322
 20
174.94358699638462
 10
111.3756288420135
 20
175.5112114061103
 10
111.5052330553442
 20
176.078835815836
 10
111.63143483915994
 20
176.64646022556167
 10
111.75424710697709
 20
177.21408463528732
 10
111.87368236281563
 20
177.781709045013
 10
111.98975270794506
 20
178.34933345473866
 10
112.10246984736233
 20
178.91695786446434
 10
112.2118450960107
 20
179.48458227419002
 10
112.3178893847467
 20
180.05220668391567
 10
112.42061326606398
 20
180.61983109364135
 10
112.52002691958037
 20
181.18745550336703
 10
112.61614015729594
 20
181.7550799130927
 10
112.70896242862776
 20
182.32270432281837
 10
112.79850282522835
 20
182.89032873254405
 10
112.88477008559352
 20
183.4579531422697
 10
112.96777259946481
 20
184.02557755199538
 10
113.04751841203267
 20
184.59320196172106
 10
113.12401522794482
 20
185.16082637144672
 10
113.19727041512448
 20
185.7284507811724
 10
113.2672910084037
 20
186.29607519089805
 10
113.33408371297537
 20
186.86369960062373
 10
113.39765490766814
 20
187.4313240103494
 10
113.4580106480484
 20
187.99894842007507
 10
113.51515666935225
 20
188.56657282980075
 10
113.56909838925148
 20
189.13419723952643
 10
113.61984091045628
 20
189.70182164925208
 10
113.66738902315791
 20
190.26944605897776
 10
113.71174720731375
 20
190.83707046870342
 10
113.75291963477781
 20
191.4046948784291
 10
113.79091017127854
 20
191.97231928815478
 10
113.8257223782465
 20
192.53994369788046
 10
113.8573595144938
 20
193.1075681076061
 10
113.8858245377474
 20
193.6751925173318
 10
113.9111201060372
 20
194.24281692705748
 10
113.93324857894169
 20
194.81044133678313
 10
113.95221201869134
 20
195.3780657465088
 10
113.96801219113152
 20
195.9456901562345
 10
113.98065056654616
 20
196.51331456596014
 10
113.9901283203425
 20
197.08093897568583
 10
113.99644633359807
 20
197.64856338541148
 10
113.99960519347053
 20
198.21618779513716
 10
113.99960519347053
 20
198.78381220486284
 10
113.99644633359807
 20
199.3514366145885
 10
113.9901283203425
 20
199.91906102431417
 10
113.98065056654616
 20
200.48668543403986
 10
113.96801219113152
 20
201.0543098437655
 10
113.95221201869134
 20
201.6219342534912
 10
113.93324857894169
 20
202.18955866321687
 10
113.9111201060372
 20
202.75718307294252
 10
113.8858245377474
 20
203.3248074826682
 10
113.8573595144938
 20
203.89243189239386
 10
113.8257223782465
 20
204.46005630211954
 10
113.79091017127854
 20
205.02768071184522
 10
113.75291963477781
 20
205.59530512157087
 10
113.71174720731375
 20
206.16292953129656
 10
113.66738902315791
 20
206.73055394102224
 10
113.61984091045628
 20
207.29817835074792
 10
113.56909838925148
 20
207.86580276047357
 10
113.51515666935225
 20
208.43342717019925
 10
113.4580106480484
 20
209.00105157992493
 10
113.39765490766814
 20
209.5686759896506
 10
113.33408371297537
 20
210.13630039937627
 10
113.2672910084037
 20
210.70392480910192
 10
113.19727041512448
 20
211.2715492188276
 10
113.12401522794482
 20
211.83917362855328
 10
113.04751841203267
 20
212.40679803827894
 10
112.96777259946481
 20
212.97442244800462
 10
112.88477008559352
 20
213.5420468577303
 10
112.79850282522835
 20
214.10967126745595
 10
112.70896242862776
 20
214.67729567718163
 10
112.61614015729594
 20
215.2449200869073
 10
112.52002691958037
 20
215.81254449663297
 10
112.42061326606398
 20
216.38016890635865
 10
112.3178893847467
 20
216.9477933160843
 10
112.2118450960107
 20
217.51541772580998
 10
112.10246984736233
 20
218.08304213553566
 10
111.98975270794506
 20
218.65066654526132
 10
111.87368236281563
 20
219.218290954987
 10
111.75424710697709
 20
219.78591536471268
 10
111.63143483915994
 20
220.35353977443833
 10
111.5052330553442
 20
220.921164184164
 10
111.3756288420135
 20
221.4887885938897
 10
111.2426088691322
 20
222.05641300361535
 10
111.1061593828363
 20
222.62403741334103
 10
110.96626619782825
 20
223.1916618230667
 10
110.82291468946525
 20
223.75928623279236
 10
110.6760897855296
 20
224.32691064251804
 10
110.52577595767082
 20
224.89453505224373
 10
110.37195721250563
 20
225.46215946196938
 10
110.21461708236507
 20
226.02978387169506
 10
110.05373861567341
 20
226.5974082814207
 10
109.88930436694639
 20
227.1650326911464
 10
109.72129638639257
 20
227.73265710087207
 10
109.54969620910333
 20
228.30028151059773
 10
109.374484843814
 20
228.8679059203234
 10
109.1956427612196
 20
229.4355303300491
 10
109.01314988182651
 20
230.00315473977474
 10
108.82698556332053
 20
230.57077914950042
 10
108.63712858743202
 20
231.1384035592261
 10
108.44355714627548
 20
231.7060279689518
 10
108.24624882814174
 20
232.27365237867744
 10
108.04518060271886
 20
232.8412767884031
 10
107.84032880571633
 20
233.40890119812877
 10
107.63166912286636
 20
233.97652560785446
 10
107.41917657327372
 20
234.54415001758014
 10
107.20282549208514
 20
235.1117744273058
 10
106.98258951244628
 20
235.67939883703147
 10
106.75844154671361
 20
236.24702324675712
 10
106.5303537668861
 20
236.8146476564828
 10
106.29829758421911
 20
237.3822720662085
 10
106.06224362798218
 20
237.94989647593417
 10
105.82216172331786
 20
238.51752088565982
 10
105.57802086815877
 20
239.0851452953855
 10
105.32978920915502
 20
239.65276970511115
 10
105.07743401656316
 20
240.22039411483684
 10
104.82092165804337
 20
240.78801852456252
 10
104.56021757130969
 20
241.35564293428817
 10
104.29528623557292
 20
241.92326734401385
 10
104.02609114171412
 20
242.49089175373953
 10
103.75259476112052
 20
243.05851616346519
 10
103.47475851311287
 20
243.62614057319087
 10
103.19254273088791
 20
244.19376498291652
 10
102.90590662589472
 20
244.7613893926422
 10
102.61480825055878
 20
245.32901380236788
 10
102.31920445926076
 20
245.89663821209354
 10
102.01905086747212
 20
246.46426262181922
 10
101.71430180894168
 20
247.0318870315449
 10
101.40491029082116
 20
247.59951144127058
 10
101.09082794660873
 20
248.16713585099623
 10
100.77200498678195
 20
248.73476026072188
 10
100.44839014698229
 20
249.30238467044757
 10
100.11993063360234
 20
249.87000908017325
 10
99.78657206661796
 20
250.43763348989893
 10
99.44825841949435
 20
251.0052578996246
 10
99.10493195598252
 20
251.57288230935026
 10
98.75653316360996
 20
252.14050671907592
 10
98.40300068365258
 20
252.7081311288016
 10
98.04427123736065
 20
253.27575553852728
 10
97.68027954819138
 20
253.84337994825296
 10
97.31095825978304
 20
254.4110043579786
 10
96.93623784938416
 20
254.9786287677043
 10
125.44166979783
 20
254.9786287677043
 10
125.44166979783
 20
254.9786287677043
 10
125.51311249619894
 20
254.4110043579786
 10
125.58382229461768
 20
253.84337994825296
 10
125.65379954116256
 20
253.27575553852728
 10
125.72304458008685
 20
252.7081311288016
 10
125.79155775182954
 20
252.14050671907592
 10
125.85933939302365
 20
251.57288230935026
 10
125.9263898365048
 20
251.0052578996246
 10
125.99270941131951
 20
250.43763348989893
 10
126.05829844273342
 20
249.87000908017325
 10
126.12315725223937
 20
249.30238467044757
 10
126.18728615756547
 20
248.73476026072188
 10
126.25068547268299
 20
248.16713585099623
 10
126.31335550781424
 20
247.59951144127058
 10
126.37529656944011
 20
247.0318870315449
 10
126.43650896030789
 20
246.46426262181922
 10
126.49699297943866
 20
245.89663821209354
 10
126.55674892213474
 20
245.32901380236788
 10
126.61577707998703
 20
244.7613893926422
 10
126.67407774088221
 20
244.19376498291652
 10
126.73165118900982
 20
243.62614057319087
 10
126.78849770486931
 20
243.05851616346519
 10
126.84461756527705
 20
242.49089175373953
 10
126.90001104337301
 20
241.92326734401385
 10
126.95467840862761
 20
241.35564293428817
 10
127.00861992684827
 20
240.78801852456252
 10
127.06183586018608
 20
240.22039411483684
 10
127.11432646714204
 20
239.65276970511115
 10
127.16609200257363
 20
239.0851452953855
 10
127.2171327177009
 20
238.51752088565982
 10
127.26744886011278
 20
237.94989647593417
 10
127.31704067377305
 20
237.3822720662085
 10
127.36590839902627
 20
236.8146476564828
 10
127.41405227260381
 20
236.24702324675712
 10
127.46147252762952
 20
235.67939883703147
 10
127.50816939362551
 20
235.1117744273058
 10
127.55414309651763
 20
234.54415001758014
 10
127.59939385864118
 20
233.97652560785446
 10
127.64392189874616
 20
233.40890119812877
 10
127.68772743200265
 20
232.8412767884031
 10
127.73081067000612
 20
232.27365237867744
 10
127.77317182078247
 20
231.7060279689518
 10
127.81481108879319
 20
231.1384035592261
 10
127.85572867494028
 20
230.57077914950042
 10
127.89592477657109
 20
230.00315473977474
 10
127.93539958748326
 20
229.4355303300491
 10
127.9741532979292
 20
228.8679059203234
 10
128.01218609462097
 20
228.30028151059773
 10
128.04949816073454
 20
227.73265710087207
 10
128.08608967591442
 20
227.1650326911464
 10
128.12196081627786
 20
226.5974082814207
 10
128.15711175441936
 20
226.02978387169506
 10
128.19154265941444
 20
225.46215946196938
 10
128.2252536968242
 20
224.89453505224373
 10
128.25824502869892
 20
224.32691064251804
 10
128.29051681358223
 20
223.75928623279236
 10
128.32206920651475
 20
223.1916618230667
 10
128.35290235903804
 20
222.62403741334103
 10
128.38301641919804
 20
222.05641300361535
 10
128.41241153154877
 20
221.4887885938897
 10
128.44108783715578
 20
220.921164184164
 10
128.46904547359958
 20
220.35353977443833
 10
128.49628457497886
 20
219.78591536471268
 10
128.5228052719138
 20
219.218290954987
 10
128.5486076915492
 20
218.65066654526132
 10
128.57369195755746
 20
218.08304213553566
 10
128.59805819014167
 20
217.51541772580998
 10
128.62170650603846
 20
216.9477933160843
 10
128.6446370185207
 20
216.38016890635865
 10
128.66684983740043
 20
215.81254449663297
 10
128.68834506903124
 20
215.2449200869073
 10
128.70912281631098
 20
214.67729567718163
 10
128.7291831786843
 20
214.10967126745595
 10
128.74852625214479
 20
213.5420468577303
 10
128.7671521292375
 20
212.97442244800462
 10
128.78506089906105
 20
212.40679803827894
 10
128.80225264726982
 20
211.83917362855328
 10
128.818727456076
 20
211.2715492188276
 10
128.8344854042514
 20
210.70392480910192
 10
128.84952656712966
 20
210.13630039937627
 10
128.86385101660773
 20
209.5686759896506
 10
128.87745882114768
 20
209.00105157992493
 10
128.89035004577858
 20
208.43342717019925
 10
128.9025247520976
 20
207.86580276047357
 10
128.91398299827196
 20
207.29817835074792
 10
128.92472483903992
 20
206.73055394102224
 10
128.93475032571237
 20
206.16292953129656
 10
128.94405950617391
 20
205.59530512157087
 10
128.95265242488406
 20
205.02768071184522
 10
128.96052912287826
 20
204.46005630211954
 10
128.96768963776893
 20
203.89243189239386
 10
128.97413400374626
 20
203.3248074826682
 10
128.97986225157916
 20
202.75718307294252
 10
128.98487440861592
 20
202.18955866321687
 10
128.9891704987848
 20
201.6219342534912
 10
128.99275054259473
 20
201.0543098437655
 10
128.99561455713575
 20
200.48668543403986
 10
128.99776255607935
 20
199.91906102431417
 10
128.99919454967892
 20
199.3514366145885
 10
128.99991054476982
 20
198.78381220486284
 10
128.99991054476982
 20
198.21618779513716
 10
128.99919454967892
 20
197.64856338541148
 10
128.99776255607935
 20
197.08093897568583
 10
128.99561455713575
 20
196.51331456596014
 10
128.99275054259473
 20
195.9456901562345
 10
128.9891704987848
 20
195.3780657465088
 10
128.98487440861592
 20
194.81044133678313
 10
128.97986225157916
 20
194.24281692705748
 10
128.97413400374626
 20
193.6751925173318
 10
128.96768963776893
 20
193.1075681076061
 10
128.96052912287826
 20
192.53994369788046
 10
128.95265242488406
 20
191.97231928815478
 10
128.94405950617391
 20
191.4046948784291
 10
128.93475032571237
 20
190.83707046870342
 10
128.92472483903992
 20
190.26944605897776
 10
128.91398299827196
 20
189.70182164925208
 10
128.9025247520976
 20
189.13419723952643
 10
128.89035004577858
 20
188.56657282980075
 10
128.87745882114768
 20
187.99894842007507
 10
128.86385101660773
 20
187.4313240103494
 10
128.84952656712966
 20
186.86369960062373
 10
128.8344854042514
 20
186.29607519089805
 10
128.818727456076
 20
185.7284507811724
 10
128.80225264726982
 20
185.16082637144672
 10
128.78506089906105
 20
184.59320196172106
 10
128.7671521292375
 20
184.02557755199538
 10
128.74852625214479
 20
183.4579531422697
 10
128.7291831786843
 20
182.89032873254405
 10
128.70912281631098
 20
182.32270432281837
 10
128.68834506903124
 20
181.7550799130927
 10
128.66684983740043
 20
181.18745550336703
 10
128.6446370185207
 20
180.61983109364135
 10
128.62170650603846
 20
180.05220668391567
 10
128.59805819014167
 20
179.48458227419002
 10
128.57369195755746
 20
178.91695786446434
 10
128.5486076915492
 20
178.34933345473866
 10
128.5228052719138
 20
177.781709045013
 10
128.49628457497886
 20
177.21408463528732
 10
128.46904547359958
 20
176.64646022556167
 10
128.44108783715578
 20
176.078835815836
 10
128.41241153154877
 20
175.5112114061103
 10
128.38301641919804
 20
174.94358699638462
 10
128.352902359038
 20
174.37596258665897
 10
128.32206920651475
 20
173.8083381769333
 10
128.29051681358223
 20
173.24071376720764
 10
128.25824502869892
 20
172.67308935748196
 10
128.2252536968242
 20
172.10546494775627
 10
128.19154265941444
 20
171.53784053803062
 10
128.15711175441936
 20
170.97021612830494
 10
128.12196081627786
 20
170.4025917185793
 10
128.08608967591442
 20
169.8349673088536
 10
128.04949816073454
 20
169.26734289912793
 10
128.01218609462097
 20
168.69971848940224
 10
127.9741532979292
 20
168.1320940796766
 10
127.93539958748326
 20
167.5644696699509
 10
127.89592477657109
 20
166.99684526022526
 10
127.85572867494028
 20
166.42922085049958
 10
127.81481108879319
 20
165.8615964407739
 10
127.77317182078247
 20
165.2939720310482
 10
127.73081067000612
 20
164.72634762132256
 10
127.68772743200265
 20
164.15872321159688
 10
127.64392189874616
 20
163.59109880187123
 10
127.59939385864118
 20
163.02347439214554
 10
127.55414309651763
 20
162.45584998241986
 10
127.50816939362551
 20
161.8882255726942
 10
127.46147252762952
 20
161.32060116296853
 10
127.41405227260381
 20
160.75297675324288
 10
127.36590839902627
 20
160.1853523435172
 10
127.31704067377305
 20
159.6177279337915
 10
127.26744886011278
 20
159.05010352406583
 10
127.2171327177009
 20
158.48247911434018
 10
127.16609200257363
 20
157.9148547046145
 10
127.11432646714204
 20
157.34723029488885
 10
127.06183586018608
 20
156.77960588516316
 10
127.00861992684827
 20
156.21198147543748
 10
126.95467840862761
 20
155.6443570657118
 10
126.90001104337301
 20
155.07673265598615
 10
126.84461756527705
 20
154.50910824626047
 10
126.78849770486931
 20
153.94148383653481
 10
126.73165118900982
 20
153.37385942680913
 10
126.67407774088221
 20
152.80623501708345
 10
126.61577707998703
 20
152.23861060735777
 10
126.55674892213474
 20
151.67098619763212
 10
126.49699297943866
 20
151.10336178790644
 10
126.43650896030789
 20
150.53573737818078
 10
126.37529656944011
 20
149.9681129684551
 10
126.31335550781424
 20
149.40048855872942
 10
126.25068547268299
 20
148.83286414900377
 10
126.18728615756547
 20
148.2652397392781
 10
126.12315725223937
 20
147.69761532955243
 10
126.05829844273342
 20
147.12999091982675
 10
125.99270941131951
 20
146.56236651010107
 10
125.9263898365048
 20
145.9947421003754
 10
125.85933939302365
 20
145.42711769064974
 10
125.79155775182954
 20
144.85949328092408
 10
125.72304458008685
 20
144.2918688711984
 10
125.65379954116256
 20
143.72424446147272
 10
125.58382229461768
 20
143.15662005174704
 10
125.51311249619894
 20
142.5889956420214
 10
125.44166979783
 20
142.0213712322957
 10
96.93623784938416
 20
142.0213712322957
 97
0
 75
1
 76
1
 52
90.0
 41
1.0
 77
0
 78
1
 53
135.0
 43
0.0
 44
0.0
 45
-2.2450640303
 46
-2.2450640303
 79
0
 98
0
  0
LINE
  5
9B
330
17
100
AcDbEntity
  8
DIMS
100
AcDbLine
 10
81.0000000440761
 20
140.5213712322957
 30
0.0
 11
81.0000000440761
 21
134.0213712322957
 31
0.0
  0
LINE
  5
9C
330
17
100
AcDbEntity
  8
DIMS
100
AcDbLine
 10
129.0000000440761
 20
140.5213712322957
 30
0.0
 11
129.0000000440761
 21
134.0213712322957
 31
0.0
  0
LINE
  5
9D
330
17
100
AcDbEntity
  8
DIMS
100
AcDbLine
 10
81.0000000440761
 20
134.0213712322957
 30
0.0
 11
129.0000000440761
 21
134.0213712322957
 31
0.0
  0
SOLID
  5
9E
330
17
100
AcDbEntity
  8
DIMS
100
AcDbTrace
 10
81.0000000440761
 20
134.0213712322957
 30
0.0
 11
83.5000000440761
 21
133.2213712322957
 31
0.0
 12
83.5000000440761
 22
134.82137123229572
 32
0.0
 13
83.5000000440761
 23
134.82137123229572
 33
0.0
  0
SOLID
  5
9F
330
17
100
AcDbEntity
  8
DIMS
100
AcDbTrace
 10
129.0000000440761
 20
134.0213712322957
 30
0.0
 11
126.5000000440761
 21
134.82137123229572
 31
0.0
 12
126.5000000440761
 22
133.2213712322957
 32
0.0
 13
126.5000000440761
 23
133.2213712322957
 33
0.0
  0
TEXT
  5
A0
330
17
100
AcDbEntity
  8
DIMS
100
AcDbText
 10
105.0000000440761
 20
130.0213712322957
 30
0.0
 40
2.5
  1
8.00
 72
4
 11
105.0000000440761
 21
130.0213712322957
 31
0.0
100
AcDbText
 73
3
  0
LINE
  5
A1
330
17
100
AcDbEntity
  8
DIMS
100
AcDbLine
 10
125.44166979783
 20
254.9786287677043
 30
0.0
 11
140.99991054476985
 21
254.9786287677043
 31
0.0
  0
LINE
  5
A2
330
17
100
AcDbEntity
  8
DIMS
100
AcDbLine
 10
85.61368043812581
 20
142.0213712322957
 30
0.0
 11
140.99991054476985
 21
142.0213712322957
 31
0.0
  0
LINE
  5
A3
330
17
100
AcDbEntity
  8
DIMS
100
AcDbLine
 10
138.99991054476985
 20
254.9786287677043
 30
0.0
 11
138.99991054476985
 21
142.0213712322957
 31
0.0
  0
SOLID
  5
A4
330
17
100
AcDbEntity
  8
DIMS
100
AcDbTrace
 10
138.99991054476985
 20
254.9786287677043
 30
0.0
 11
138.19991054476984
 21
252.4786287677043
 31
0.0
 12
139.79991054476986
 22
252.4786287677043
 32
0.0
 13
139.79991054476986
 23
252.4786287677043
 33
0.0
  0
SOLID
  5
A5
330
17
100
AcDbEntity
  8
DIMS
100
AcDbTrace
 10
138.99991054476985
 20
142.0213712322957
 30
0.0
 11
139.79991054476986
 21
144.5213712322957
 31
0.0
 12
138.19991054476984
 22
144.5213712322957
 32
0.0
 13
138.19991054476984
 23
144.5213712322957
 33
0.0
  0
TEXT
  5
A6
330
17
100
AcDbEntity
  8
DIMS
100
AcDbText
 10
141.99991054476985
 20
198.5
 30
0.0
 40
2.5
  1
Ø 18.83
100
AcDbText
 73
2
  0
LINE
  5
A7
330
17
100
AcDbEntity
  8
DIMS
100
AcDbLine
 10
85.61368043812581
 20
256.4786287677043
 30
0.0
 11
85.61368043812581
 21
262.9786287677043
 31
0.0
  0
LINE
  5
A8
330
17
100
AcDbEntity
  8
DIMS
100
AcDbLine
 10
125.44166979783
 20
256.4786287677043
 30
0.0
 11
125.44166979783
 21
262.9786287677043
 31
0.0
  0
LINE
  5
A9
330
17
100
AcDbEntity
  8
DIMS
100
AcDbLine
 10
85.61368043812581
 20
262.9786287677043
 30
0.0
 11
125.44166979783
 21
262.9786287677043
 31
0.0
  0
SOLID
  5
AA
330
17
100
AcDbEntity
  8
DIMS
100
AcDbTrace
 10
85.61368043812581
 20
262.9786287677043
 30
0.0
 11
88.11368043812581
 21
262.1786287677043
 31
0.0
 12
88.11368043812581
 22
263.77862876770433
 32
0.0
 13
88.11368043812581
 23
263.77862876770433
 33
0.0
  0
SOLID
  5
AB
330
17
100
AcDbEntity
  8
DIMS
100
AcDbTrace
 10
125.44166979783
 20
262.9786287677043
 30
0.0
 11
122.94166979783
 21
263.77862876770433
 31
0.0
 12
122.94166979783
 22
262.1786287677043
 32
0.0
 13
122.94166979783
 23
262.1786287677043
 33
0.0
  0
TEXT
  5
AC
330
17
100
AcDbEntity
  8
DIMS
100
AcDbText
 10
105.5276751179779
 20
264.9786287677043
 30
0.0
 40
2.5
  1
(6.64)
 72
4
 11
105.5276751179779
 21
264.9786287677043
 31
0.0
100
AcDbText
 73
1
  0
LINE
  5
AD
330
17
100
AcDbEntity
  8
DIMS
100
AcDbLine
 10
81.0000000440761
 20
256.4786287677043
 30
0.0
 11
81.0000000440761
 21
262.9786287677043
 31
0.0
  0
LINE
  5
AE
330
17
100
AcDbEntity
  8
DIMS
100
AcDbLine
 10
114.0000000440761
 20
256.4786287677043
 30
0.0
 11
114.0000000440761
 21
262.9786287677043
 31
0.0
  0
LINE
  5
AF
330
17
100
AcDbEntity
  8
DIMS
100
AcDbLine
 10
81.0000000440761
 20
262.9786287677043
 30
0.0
 11
114.0000000440761
 21
262.9786287677043
 31
0.0
  0
SOLID
  5
B0
330
17
100
AcDbEntity
  8
DIMS
100
AcDbTrace
 10
81.0000000440761
 20
262.9786287677043
 30
0.0
 11
83.5000000440761
 21
262.1786287677043
 31
0.0
 12
83.5000000440761
 22
263.77862876770433
 32
0.0
 13
83.5000000440761
 23
263.77862876770433
 33
0.0
  0
SOLID
  5
B1
330
17
100
AcDbEntity
  8
DIMS
100
AcDbTrace
 10
114.0000000440761
 20
262.9786287677043
 30
0.0
 11
111.5000000440761
 21
263.77862876770433
 31
0.0
 12
111.5000000440761
 22
262.1786287677043
 32
0.0
 13
111.5000000440761
 23
262.1786287677043
 33
0.0
  0
TEXT
  5
B2
330
17
100
AcDbEntity
  8
DIMS
100
AcDbText
 10
97.5000000440761
 20
264.9786287677043
 30
0.0
 40
2.0
  1
t1 = 5.50
 72
4
 11
97.5000000440761
 21
264.9786287677043
 31
0.0
100
AcDbText
 73
1
  0
LINE
  5
B3
330
17
100
AcDbEntity
  8
DIMS
100
AcDbLine
 10
114.0000000440761
 20
256.4786287677043
 30
0.0
 11
114.0000000440761
 21
262.9786287677043
 31
0.0
  0
LINE
  5
B4
330
17
100
AcDbEntity
  8
DIMS
100
AcDbLine
 10
129.0000000440761
 20
256.4786287677043
 30
0.0
 11
129.0000000440761
 21
262.9786287677043
 31
0.0
  0
LINE
  5
B5
330
17
100
AcDbEntity
  8
DIMS
100
AcDbLine
 10
114.0000000440761
 20
262.9786287677043
 30
0.0
 11
129.0000000440761
 21
262.9786287677043
 31
0.0
  0
SOLID
  5
B6
330
17
100
AcDbEntity
  8
DIMS
100
AcDbTrace
 10
114.0000000440761
 20
262.9786287677043
 30
0.0
 11
116.5000000440761
 21
262.1786287677043
 31
0.0
 12
116.5000000440761
 22
263.77862876770433
 32
0.0
 13
116.5000000440761
 23
263.77862876770433
 33
0.0
  0
SOLID
  5
B7
330
17
100
AcDbEntity
  8
DIMS
100
AcDbTrace
 10
129.0000000440761
 20
262.9786287677043
 30
0.0
 11
126.5000000440761
 21
263.77862876770433
 31
0.0
 12
126.5000000440761
 22
262.1786287677043
 32
0.0
 13
126.5000000440761
 23
262.1786287677043
 33
0.0
  0
TEXT
  5
B8
330
17
100
AcDbEntity
  8
DIMS
100
AcDbText
 10
121.5000000440761
 20
264.9786287677043
 30
0.0
 40
2.0
  1
t2 = 2.50
 72
4
 11
121.5000000440761
 21
264.9786287677043
 31
0.0
100
AcDbText
 73
1
  0
LINE
  5
B9
330
17
100
AcDbEntity
  8
DIMS
100
AcDbLine
 10
84.55896935509003
 20
248.1424856137255
 30
0.0
 11
81.55896935509003
 21
248.1424856137255
 31
0.0
  0
LINE
  5
BA
330
17
100
AcDbEntity
  8
DIMS
100
AcDbLine
 10
84.55896935509003
 20
148.8575143862745
 30
0.0
 11
81.55896935509003
 21
148.8575143862745
 31
0.0
  0
LINE
  5
BB
330
17
100
AcDbEntity
  8
DIMS
100
AcDbLine
 10
81.55896935509003
 20
148.8575143862745
 30
0.0
 11
81.55896935509003
 21
248.1424856137255
 31
0.0
  0
TEXT
  5
BC
330
17
100
AcDbEntity
  8
DIMS
100
AcDbText
 10
80.55896935509003
 20
198.5
 30
0.0
 40
2.0
  1
Øₑ 16.55
 72
2
 11
80.55896935509003
 21
198.5
 31
0.0
100
AcDbText
 73
2
  0
LINE
  5
BD
330
17
100
AcDbEntity
  8
DIMS
100
AcDbLine
 10
125.44166979783
 20
254.9786287677043
 30
0.0
 11
128.44166979783
 21
254.9786287677043
 31
0.0
  0
LINE
  5
BE
330
17
100
AcDbEntity
  8
DIMS
100
AcDbLine
 10
125.44166979783
 20
142.0213712322957
 30
0.0
 11
128.44166979783
 21
142.0213712322957
 31
0.0
  0
LINE
  5
BF
330
17
100
AcDbEntity
  8
DIMS
100
AcDbLine
 10
128.44166979783
 20
142.0213712322957
 30
0.0
 11
128.44166979783
 21
254.9786287677043
 31
0.0
  0
TEXT
  5
C0
330
17
100
AcDbEntity
  8
DIMS
100
AcDbText
 10
129.44166979783
 20
198.5
 30
0.0
 40
2.0
  1
Øₑ 18.83
 11
129.44166979783
 21
198.5
 31
0.0
100
AcDbText
 73
2
  0
LWPOLYLINE
  5
C1
330
17
100
AcDbEntity
  8
CALLOUT
100
AcDbPolyline
 90
3
 70
1
 10
84.32719310125158
 20
246.50683445254865
 10
80.22298450654648
 20
244.84273077508502
 10
80.83393260779621
 20
249.2291311565198
  0
LINE
  5
C2
330
17
100
AcDbEntity
  8
CALLOUT
100
AcDbLine
 10
84.32719310125158
 20
246.50683445254865
 30
0.0
 11
77.29894788220685
 21
251.96720805932057
 31
0.0
  0
LINE
  5
C3
330
17
100
AcDbEntity
  8
CALLOUT
100
AcDbLine
 10
77.3206695525742
 20
251.91199181327505
 30
0.0
 11
77.696812074891
 21
254.61256768868776
 31
0.0
  0
TEXT
  5
C4
330
17
100
AcDbEntity
  8
CALLOUT
100
AcDbText
 10
77.90373808546234
 20
256.0982263393034
 30
0.0
 40
2.0
  1
S1
 72
4
 11
77.90373808546234
 21
256.0982263393034
 31
0.0
100
AcDbText
 73
2
  0
LWPOLYLINE
  5
C5
330
17
100
AcDbEntity
  8
CALLOUT
100
AcDbPolyline
 90
3
 70
1
 10
127.50004965175413
 20
235.21110869900778
 10
131.14202086072393
 20
237.73099261522975
 10
131.50331879667868
 20
233.31701145417495
  0
LINE
  5
C6
330
17
100
AcDbEntity
  8
CALLOUT
100
AcDbLine
 10
127.50004965175413
 20
235.21110869900778
 30
0.0
 11
135.55075061668572
 21
231.41662259970445
 31
0.0
  0
LINE
  5
C7
330
17
100
AcDbEntity
  8
CALLOUT
100
AcDbLine
 10
135.5174995768282
 20
231.46576558637906
 30
0.0
 11
135.73993993904534
 21
228.74820904764567
 31
0.0
  0
TEXT
  5
C8
330
17
100
AcDbEntity
  8
CALLOUT
100
AcDbText
 10
135.86231030137537
 20
227.25320888228674
 30
0.0
 40
2.0
  1
S3
 72
4
 11
135.86231030137537
 21
227.25320888228674
 31
0.0
100
AcDbText
 73
2
  0
ENDSEC
  0
SECTION
  2
OBJECTS
  0
DICTIONARY
  5
A
330
0
100
AcDbDictionary
281
1
  3
ACAD_COLOR
350
B
  3
ACAD_GROUP
350
C
  3
ACAD_LAYOUT
350
D
  3
ACAD_MATERIAL
350
E
  3
ACAD_MLEADERSTYLE
350
F
  3
ACAD_MLINESTYLE
350
10
  3
ACAD_PLOTSETTINGS
350
11
  3
ACAD_PLOTSTYLENAME
350
12
  3
ACAD_SCALELIST
350
14
  3
ACAD_TABLESTYLE
350
15
  3
ACAD_VISUALSTYLE
350
16
  3
EZDXF_META
350
2D
  0
DICTIONARY
  5
B
330
A
100
AcDbDictionary
281
1
  0
DICTIONARY
  5
C
330
A
100
AcDbDictionary
281
1
  0
DICTIONARY
  5
D
330
A
100
AcDbDictionary
281
1
  3
Model
350
1A
  3
Layout1
350
1E
  0
DICTIONARY
  5
E
330
A
100
AcDbDictionary
281
1
  3
ByBlock
350
1F
  3
ByLayer
350
20
  3
Global
350
21
  0
DICTIONARY
  5
F
330
A
100
AcDbDictionary
281
1
  3
Standard
350
2C
  0
DICTIONARY
  5
10
330
A
100
AcDbDictionary
281
1
  3
Standard
350
22
  0
DICTIONARY
  5
11
330
A
100
AcDbDictionary
281
1
  0
ACDBDICTIONARYWDFLT
  5
12
330
A
100
AcDbDictionary
281
1
  3
Normal
350
13
100
AcDbDictionaryWithDefault
340
13
  0
ACDBPLACEHOLDER
  5
13
330
12
  0
DICTIONARY
  5
14
330
A
100
AcDbDictionary
281
1
  0
DICTIONARY
  5
15
330
A
100
AcDbDictionary
281
1
  0
DICTIONARY
  5
16
330
A
100
AcDbDictionary
281
1
  0
LAYOUT
  5
1A
330
D
100
AcDbPlotSettings
  1

  4
A3
  6

 40
7.5
 41
20.0
 42
7.5
 43
20.0
 44
420.0
 45
297.0
 46
0.0
 47
0.0
 48
0.0
 49
0.0
140
0.0
141
0.0
142
1.0
143
1.0
 70
1024
 72
1
 73
0
 74
5
  7

 75
16
 76
0
 77
2
 78
300
147
1.0
148
0.0
149
0.0
100
AcDbLayout
  1
Model
 70
1
 71
0
 10
0.0
 20
0.0
 11
420.0
 21
297.0
 12
0.0
 22
0.0
 32
0.0
 14
1e+20
 24
1e+20
 34
1e+20
 15
-1e+20
 25
-1e+20
 35
-1e+20
146
0.0
 13
0.0
 23
0.0
 33
0.0
 16
1.0
 26
0.0
 36
0.0
 17
0.0
 27
1.0
 37
0.0
 76
1
330
17
  0
LAYOUT
  5
1E
330
D
100
AcDbPlotSettings
  1

  4
A3
  6

 40
7.5
 41
20.0
 42
7.5
 43
20.0
 44
420.0
 45
297.0
 46
0.0
 47
0.0
 48
0.0
 49
0.0
140
0.0
141
0.0
142
1.0
143
1.0
 70
0
 72
1
 73
0
 74
5
  7

 75
16
 76
0
 77
2
 78
300
147
1.0
148
0.0
149
0.0
100
AcDbLayout
  1
Layout1
 70
1
 71
1
 10
0.0
 20
0.0
 11
420.0
 21
297.0
 12
0.0
 22
0.0
 32
0.0
 14
1e+20
 24
1e+20
 34
1e+20
 15
-1e+20
 25
-1e+20
 35
-1e+20
146
0.0
 13
0.0
 23
0.0
 33
0.0
 16
1.0
 26
0.0
 36
0.0
 17
0.0
 27
1.0
 37
0.0
 76
1
330
1B
  0
MATERIAL
  5
1F
102
{ACAD_REACTORS
330
E
102
}
330
E
100
AcDbMaterial
  1
ByBlock
  2

 70
0
 40
1.0
 71
1
 41
1.0
 91
-1023410177
 42
1.0
 72
1
  3

 73
1
 74
1
 75
1
 44
0.5
 73
0
 45
1.0
 46
1.0
 77
1
  4

 78
1
 79
1
170
1
 48
1.0
171
1
  6

172
1
173
1
174
1
140
1.0
141
1.0
175
1
  7

176
1
177
1
178
1
143
1.0
179
1
  8

270
1
271
1
272
1
145
1.0
146
1.0
273
1
  9

274
1
275
1
276
1
 42
1.0
 72
1
  3

 73
1
 74
1
 75
1
 94
63
  0
MATERIAL
  5
20
102
{ACAD_REACTORS
330
E
102
}
330
E
100
AcDbMaterial
  1
ByLayer
  2

 70
0
 40
1.0
 71
1
 41
1.0
 91
-1023410177
 42
1.0
 72
1
  3

 73
1
 74
1
 75
1
 44
0.5
 73
0
 45
1.0
 46
1.0
 77
1
  4

 78
1
 79
1
170
1
 48
1.0
171
1
  6

172
1
173
1
174
1
140
1.0
141
1.0
175
1
  7

176
1
177
1
178
1
143
1.0
179
1
  8

270
1
271
1
272
1
145
1.0
146
1.0
273
1
  9

274
1
275
1
276
1
 42
1.0
 72
1
  3

 73
1
 74
1
 75
1
 94
63
  0
MATERIAL
  5
21
102
{ACAD_REACTORS
330
E
102
}
330
E
100
AcDbMaterial
  1
Global
  2

 70
0
 40
1.0
 71
1
 41
1.0
 91
-1023410177
 42
1.0
 72
1
  3

 73
1
 74
1
 75
1
 44
0.5
 73
0
 45
1.0
 46
1.0
 77
1
  4

 78
1
 79
1
170
1
 48
1.0
171
1
  6

172
1
173
1
174
1
140
1.0
141
1.0
175
1
  7

176
1
177
1
178
1
143
1.0
179
1
  8

270
1
271
1
272
1
145
1.0
146
1.0
273
1
  9

274
1
275
1
276
1
 42
1.0
 72
1
  3

 73
1
 74
1
 75
1
 94
63
  0
MLINESTYLE
  5
22
102
{ACAD_REACTORS
330
10
102
}
330
10
100
AcDbMlineStyle
  2
Standard
 70
0
  3

 62
256
 51
90.0
 52
90.0
 71
2
 49
0.5
 62
256
  6
BYLAYER
 49
-0.5
 62
256
  6
BYLAYER
  0
MLEADERSTYLE
  5
2C
102
{ACAD_REACTORS
330
F
102
}
330
F
100
AcDbMLeaderStyle
179
2
170
2
171
1
172
0
 90
2
 40
0.0
 41
0.0
173
1
 91
-1056964608
 92
-2
290
1
 42
2.0
291
1
 43
8.0
  3
Standard
 44
4.0
300

342
29
174
1
175
1
176
0
178
1
 93
-1056964608
 45
4.0
292
0
297
0
 46
4.0
 94
-1056964608
 47
1.0
 49
1.0
140
1.0
294
1
141
0.0
177
0
142
1.0
295
0
296
0
143
3.75
271
0
272
9
273
9
  0
DICTIONARY
  5
2D
330
A
100
AcDbDictionary
280
1
281
1
  3
CREATED_BY_EZDXF
350
2E
  3
WRITTEN_BY_EZDXF
350
CB
  0
DICTIONARYVAR
  5
2E
330
2D
100
DictionaryVariables
280
0
  1
1.4.3 @ 2026-07-26T12:20:01.967230+00:00
  0
DICTIONARYVAR
  5
CB
330
2D
100
DictionaryVariables
280
0
  1
1.4.3 @ 2026-07-26T12:20:01.976938+00:00
  0
ENDSEC
  0
EOF
