  0
SECTION
  2
HEADER
  9
$ACADVER
  1
AC1024
  9
$ACADMAINTVER
 70
6
  9
$DWGCODEPAGE
  3
ANSI_1252
  9
$LASTSAVEDBY
  1
ezdxf
  9
$INSBASE
 10
0.0
 20
0.0
 30
0.0
  9
$EXTMIN
 10
0.0
 20
0.0
 30
0.0
  9
$EXTMAX
 10
210.0
 20
297.0
 30
0.0
  9
$LIMMIN
 10
0.0
 20
0.0
  9
$LIMMAX
 10
420.0
 20
297.0
  9
$ORTHOMODE
 70
0
  9
$REGENMODE
 70
1
  9
$FILLMODE
 70
1
  9
$QTEXTMODE
 70
0
  9
$MIRRTEXT
 70
1
  9
$LTSCALE
 40
1.0
  9
$ATTMODE
 70
1
  9
$TEXTSIZE
 40
2.5
  9
$TRACEWID
 40
1.0
  9
$TEXTSTYLE
  7
Standard
  9
$CLAYER
  8
0
  9
$CELTYPE
  6
ByLayer
  9
$CECOLOR
 62
256
  9
$CELTSCALE
 40
1.0
  9
$DISPSILH
 70
0
  9
$DIMSCALE
 40
1.0
  9
$DIMASZ
 40
2.5
  9
$DIMEXO
 40
0.625
  9
$DIMDLI
 40
3.75
  9
$DIMRND
 40
0.0
  9
$DIMDLE
 40
0.0
  9
$DIMEXE
 40
1.25
  9
$DIMTP
 40
0.0
  9
$DIMTM
 40
0.0
  9
$DIMTXT
 40
2.5
  9
$DIMCEN
 40
2.5
  9
$DIMTSZ
 40
0.0
  9
$DIMTOL
 70
0
  9
$DIMLIM
 70
0
  9
$DIMTIH
 70
0
  9
$DIMTOH
 70
0
  9
$DIMSE1
 70
0
  9
$DIMSE2
 70
0
  9
$DIMTAD
 70
1
  9
$DIMZIN
 70
8
  9
$DIMBLK
  1

  9
$DIMASO
 70
1
  9
$DIMSHO
 70
1
  9
$DIMPOST
  1

  9
$DIMAPOST
  1

  9
$DIMALT
 70
0
  9
$DIMALTD
 70
3
  9
$DIMALTF
 40
0.03937007874
  9
$DIMLFAC
 40
1.0
  9
$DIMTOFL
 70
1
  9
$DIMTVP
 40
0.0
  9
$DIMTIX
 70
0
  9
$DIMSOXD
 70
0
  9
$DIMSAH
 70
0
  9
$DIMBLK1
  1

  9
$DIMBLK2
  1

  9
$DIMSTYLE
  2
ISO-25
  9
$DIMCLRD
 70
0
  9
$DIMCLRE
 70
0
  9
$DIMCLRT
 70
0
  9
$DIMTFAC
 40
1.0
  9
$DIMGAP
 40
0.625
  9
$DIMJUST
 70
0
  9
$DIMSD1
 70
0
  9
$DIMSD2
 70
0
  9
$DIMTOLJ
 70
0
  9
$DIMTZIN
 70
8
  9
$DIMALTZ
 70
0
  9
$DIMALTTZ
 70
0
  9
$DIMUPT
 70
0
  9
$DIMDEC
 70
2
  9
$DIMTDEC
 70
2
  9
$DIMALTU
 70
2
  9
$DIMALTTD
 70
3
  9
$DIMTXSTY
  7
Standard
  9
$DIMAUNIT
 70
0
  9
$DIMADEC
 70
0
  9
$DIMALTRND
 40
0.0
  9
$DIMAZIN
 70
0
  9
$DIMDSEP
 70
44
  9
$DIMATFIT
 70
3
  9
$DIMFRAC
 70
0
  9
$DIMLDRBLK
  1

  9
$DIMLUNIT
 70
2
  9
$DIMLWD
 70
-2
  9
$DIMLWE
 70
-2
  9
$DIMTMOVE
 70
0
  9
$DIMFXL
 40
1.0
  9
$DIMFXLON
 70
0
  9
$DIMJOGANG
 40
0.785398163397
  9
$DIMTFILL
 70
0
  9
$DIMTFILLCLR
 70
0
  9
$DIMARCSYM
 70
0
  9
$DIMLTYPE
  6

  9
$DIMLTEX1
  6

  9
$DIMLTEX2
  6

  9
$DIMTXTDIRECTION
 70
0
  9
$LUNITS
 70
2
  9
$LUPREC
 70
4
  9
$SKETCHINC
 40
1.0
  9
$FILLETRAD
 40
10.0
  9
$AUNITS
 70
0
  9
$AUPREC
 70
2
  9
$MENU
  1
.
  9
$ELEVATION
 40
0.0
  9
$PELEVATION
 40
0.0
  9
$THICKNESS
 40
0.0
  9
$LIMCHECK
 70
0
  9
$CHAMFERA
 40
0.0
  9
$CHAMFERB
 40
0.0
  9
$CHAMFERC
 40
0.0
  9
$CHAMFERD
 40
0.0
  9
$SKPOLY
 70
0
  9
$TDCREATE
 40
2461248.513900463
  9
$TDUCREATE
 40
2458532.153996898
  9
$TDUPDATE
 40
2461248.513900463
  9
$TDUUPDATE
 40
2458532.1544311
  9
$TDINDWG
 40
0.0
  9
$TDUSRTIMER
 40
0.0
  9
$USRTIMER
 70
1
  9
$ANGBASE
 50
0.0
  9
$ANGDIR
 70
0
  9
$PDMODE
 70
0
  9
$PDSIZE
 40
0.0
  9
$PLINEWID
 40
0.0
  9
$SPLFRAME
 70
0
  9
$SPLINETYPE
 70
6
  9
$SPLINESEGS
 70
8
  9
$HANDSEED
  5
A6
  9
$SURFTAB1
 70
6
  9
$SURFTAB2
 70
6
  9
$SURFTYPE
 70
6
  9
$SURFU
 70
6
  9
$SURFV
 70
6
  9
$UCSBASE
  2

  9
$UCSNAME
  2

  9
$UCSORG
 10
0.0
 20
0.0
 30
0.0
  9
$UCSXDIR
 10
1.0
 20
0.0
 30
0.0
  9
$UCSYDIR
 10
0.0
 20
1.0
 30
0.0
  9
$UCSORTHOREF
  2

  9
$UCSORTHOVIEW
 70
0
  9
$UCSORGTOP
 10
0.0
 20
0.0
 30
0.0
  9
$UCSORGBOTTOM
 10
0.0
 20
0.0
 30
0.0
  9
$UCSORGLEFT
 10
0.0
 20
0.0
 30
0.0
  9
$UCSORGRIGHT
 10
0.0
 20
0.0
 30
0.0
  9
$UCSORGFRONT
 10
0.0
 20
0.0
 30
0.0
  9
$UCSORGBACK
 10
0.0
 20
0.0
 30
0.0
  9
$PUCSBASE
  2

  9
$PUCSNAME
  2

  9
$PUCSORG
 10
0.0
 20
0.0
 30
0.0
  9
$PUCSXDIR
 10
1.0
 20
0.0
 30
0.0
  9
$PUCSYDIR
 10
0.0
 20
1.0
 30
0.0
  9
$PUCSORTHOREF
  2

  9
$PUCSORTHOVIEW
 70
0
  9
$PUCSORGTOP
 10
0.0
 20
0.0
 30
0.0
  9
$PUCSORGBOTTOM
 10
0.0
 20
0.0
 30
0.0
  9
$PUCSORGLEFT
 10
0.0
 20
0.0
 30
0.0
  9
$PUCSORGRIGHT
 10
0.0
 20
0.0
 30
0.0
  9
$PUCSORGFRONT
 10
0.0
 20
0.0
 30
0.0
  9
$PUCSORGBACK
 10
0.0
 20
0.0
 30
0.0
  9
$USERI1
 70
0
  9
$USERI2
 70
0
  9
$USERI3
 70
0
  9
$USERI4
 70
0
  9
$USERI5
 70
0
  9
$USERR1
 40
0.0
  9
$USERR2
 40
0.0
  9
$USERR3
 40
0.0
  9
$USERR4
 40
0.0
  9
$USERR5
 40
0.0
  9
$WORLDVIEW
 70
1
  9
$SHADEDGE
 70
3
  9
$SHADEDIF
 70
70
  9
$TILEMODE
 70
1
  9
$MAXACTVP
 70
64
  9
$PINSBASE
 10
0.0
 20
0.0
 30
0.0
  9
$PLIMCHECK
 70
0
  9
$PEXTMIN
 10
1e+20
 20
1e+20
 30
1e+20
  9
$PEXTMAX
 10
-1e+20
 20
-1e+20
 30
-1e+20
  9
$PLIMMIN
 10
0.0
 20
0.0
  9
$PLIMMAX
 10
420.0
 20
297.0
  9
$UNITMODE
 70
0
  9
$VISRETAIN
 70
1
  9
$PLINEGEN
 70
0
  9
$PSLTSCALE
 70
1
  9
$TREEDEPTH
 70
3020
  9
$CMLSTYLE
  2
Standard
  9
$CMLJUST
 70
0
  9
$CMLSCALE
 40
20.0
  9
$PROXYGRAPHICS
 70
1
  9
$MEASUREMENT
 70
1
  9
$CELWEIGHT
370
-1
  9
$ENDCAPS
280
0
  9
$JOINSTYLE
280
0
  9
$LWDISPLAY
290
0
  9
$INSUNITS
 70
4
  9
$HYPERLINKBASE
  1

  9
$STYLESHEET
  1

  9
$XEDIT
290
1
  9
$CEPSNTYPE
380
0
  9
$PSTYLEMODE
290
1
  9
$FINGERPRINTGUID
  2
{537D8AFD-B712-4EDE-9577-3743D5064466}
  9
$VERSIONGUID
  2
{F15042E6-8BEA-4386-8038-996E99BEDB4C}
  9
$EXTNAMES
290
1
  9
$PSVPSCALE
 40
0.0
  9
$OLESTARTUP
290
0
  9
$SORTENTS
280
127
  9
$INDEXCTL
280
0
  9
$HIDETEXT
280
1
  9
$XCLIPFRAME
280
1
  9
$HALOGAP
280
0
  9
$OBSCOLOR
 70
257
  9
$OBSLTYPE
280
0
  9
$INTERSECTIONDISPLAY
280
0
  9
$INTERSECTIONCOLOR
 70
257
  9
$DIMASSOC
280
2
  9
$PROJECTNAME
  1

  9
$CAMERADISPLAY
290
0
  9
$LENSLENGTH
 40
50.0
  9
$CAMERAHEIGHT
 40
0.0
  9
$STEPSPERSEC
 40
24.0
  9
$STEPSIZE
 40
100.0
  9
$3DDWFPREC
 40
2.0
  9
$PSOLWIDTH
 40
0.005
  9
$PSOLHEIGHT
 40
0.08
  9
$LOFTANG1
 40
1.570796326795
  9
$LOFTANG2
 40
1.570796326795
  9
$LOFTMAG1
 40
0.0
  9
$LOFTMAG2
 40
0.0
  9
$LOFTPARAM
 70
7
  9
$LOFTNORMALS
280
1
  9
$LATITUDE
 40
37.795
  9
$LONGITUDE
 40
-122.394
  9
$NORTHDIRECTION
 40
0.0
  9
$TIMEZONE
 70
-8000
  9
$LIGHTGLYPHDISPLAY
280
1
  9
$TILEMODELIGHTSYNCH
280
1
  9
$CMATERIAL
347
20
  9
$SOLIDHIST
280
0
  9
$SHOWHIST
280
1
  9
$DWFFRAME
280
2
  9
$DGNFRAME
280
2
  9
$REALWORLDSCALE
290
1
  9
$INTERFERECOLOR
 62
256
  9
$CSHADOW
280
0
  9
$SHADOWPLANELOCATION
 40
0.0
  0
ENDSEC
  0
SECTION
  2
CLASSES
  0
CLASS
  1
ACDBDICTIONARYWDFLT
  2
AcDbDictionaryWithDefault
  3
ObjectDBX Classes
 90
0
 91
0
280
0
281
0
  0
CLASS
  1
SUN
  2
AcDbSun
  3
SCENEOE
 90
1153
 91
0
280
0
281
0
  0
CLASS
  1
VISUALSTYLE
  2
AcDbVisualStyle
  3
ObjectDBX Classes
 90
4095
 91
0
280
0
281
0
  0
CLASS
  1
MATERIAL
  2
AcDbMaterial
  3
ObjectDBX Classes
 90
1153
 91
0
280
0
281
0
  0
CLASS
  1
SCALE
  2
AcDbScale
  3
ObjectDBX Classes
 90
1153
 91
0
280
0
281
0
  0
CLASS
  1
TABLESTYLE
  2
AcDbTableStyle
  3
ObjectDBX Classes
 90
4095
 91
0
280
0
281
0
  0
CLASS
  1
MLEADERSTYLE
  2
AcDbMLeaderStyle
  3
ACDB_MLEADERSTYLE_CLASS
 90
4095
 91
0
280
0
281
0
  0
CLASS
  1
DICTIONARYVAR
  2
AcDbDictionaryVar
  3
ObjectDBX Classes
 90
0
 91
0
280
0
281
0
  0
CLASS
  1
CELLSTYLEMAP
  2
AcDbCellStyleMap
  3
ObjectDBX Classes
 90
1152
 91
0
280
0
281
0
  0
CLASS
  1
MENTALRAYRENDERSETTINGS
  2
AcDbMentalRayRenderSettings
  3
SCENEOE
 90
1024
 91
0
280
0
281
0
  0
CLASS
  1
ACDBDETAILVIEWSTYLE
  2
AcDbDetailViewStyle
  3
ObjectDBX Classes
 90
1025
 91
0
280
0
281
0
  0
CLASS
  1
ACDBSECTIONVIEWSTYLE
  2
AcDbSectionViewStyle
  3
ObjectDBX Classes
 90
1025
 91
0
280
0
281
0
  0
CLASS
  1
RASTERVARIABLES
  2
AcDbRasterVariables
  3
ISM
 90
0
 91
0
280
0
281
0
  0
CLASS
  1
ACDBPLACEHOLDER
  2
AcDbPlaceHolder
  3
ObjectDBX Classes
 90
0
 91
0
280
0
281
0
  0
CLASS
  1
LAYOUT
  2
AcDbLayout
  3
ObjectDBX Classes
 90
0
 91
0
280
0
281
0
  0
ENDSEC
  0
SECTION
  2
TABLES
  0
TABLE
  2
VPORT
  5
8
330
0
100
AcDbSymbolTable
 70
1
  0
VPORT
  5
23
330
8
100
AcDbSymbolTableRecord
100
AcDbViewportTableRecord
  2
*Active
 70
0
 10
0.0
 20
0.0
 11
1.0
 21
1.0
 12
0.0
 22
0.0
 13
0.0
 23
0.0
 14
0.5
 24
0.5
 15
0.5
 25
0.5
 16
0.0
 26
0.0
 36
1.0
 17
0.0
 27
0.0
 37
0.0
 40
1000.0
 41
1.34
 42
50.0
 43
0.0
 44
0.0
 50
0.0
 51
0.0
 71
0
 72
1000
 73
1
 74
3
 75
0
 76
0
 77
0
 78
0
281
0
 65
0
146
0.0
  0
ENDTAB
  0
TABLE
  2
LTYPE
  5
2
330
0
100
AcDbSymbolTable
 70
4
  0
LTYPE
  5
24
330
2
100
AcDbSymbolTableRecord
100
AcDbLinetypeTableRecord
  2
ByBlock
 70
0
  3

 72
65
 73
0
 40
0.0
  0
LTYPE
  5
25
330
2
100
AcDbSymbolTableRecord
100
AcDbLinetypeTableRecord
  2
ByLayer
 70
0
  3

 72
65
 73
0
 40
0.0
  0
LTYPE
  5
26
330
2
100
AcDbSymbolTableRecord
100
AcDbLinetypeTableRecord
  2
Continuous
 70
0
  3

 72
65
 73
0
 40
0.0
  0
LTYPE
  5
36
330
2
100
AcDbSymbolTableRecord
100
AcDbLinetypeTableRecord
  2
OPTICAL
 70
0
  3

 72
65
 73
5
 40
8.0
 49
-2.0
 74
0
 49
1.0
 74
0
 49
-2.0
 74
0
 49
1.0
 74
0
 49
-2.0
 74
0
  0
ENDTAB
  0
TABLE
  2
LAYER
  5
1
330
0
100
AcDbSymbolTable
 70
9
  0
LAYER
  5
27
330
1
100
AcDbSymbolTableRecord
100
AcDbLayerTableRecord
  2
0
 70
0
 62
7
  6
Continuous
370
-3
390
13
347
21
  0
LAYER
  5
28
330
1
100
AcDbSymbolTableRecord
100
AcDbLayerTableRecord
  2
Defpoints
 70
0
 62
7
  6
Continuous
290
0
370
-3
390
13
347
21
  0
LAYER
  5
2F
330
1
100
AcDbSymbolTableRecord
100
AcDbLayerTableRecord
  2
BORDER
 70
0
 62
7
  6
Continuous
370
25
390
13
347
21
  0
LAYER
  5
30
330
1
100
AcDbSymbolTableRecord
100
AcDbLayerTableRecord
  2
OUTLINE
 70
0
 62
7
  6
Continuous
370
50
390
13
347
21
  0
LAYER
  5
31
330
1
100
AcDbSymbolTableRecord
100
AcDbLayerTableRecord
  2
AXIS
 70
0
 62
8
  6
OPTICAL
370
13
390
13
347
21
  0
LAYER
  5
32
330
1
100
AcDbSymbolTableRecord
100
AcDbLayerTableRecord
  2
CEMENT
 70
0
 62
7
  6
Continuous
370
13
390
13
347
21
  0
LAYER
  5
33
330
1
100
AcDbSymbolTableRecord
100
AcDbLayerTableRecord
  2
DIMS
 70
0
 62
7
  6
Continuous
370
13
390
13
347
21
  0
LAYER
  5
34
330
1
100
AcDbSymbolTableRecord
100
AcDbLayerTableRecord
  2
CALLOUT
 70
0
 62
7
  6
Continuous
370
13
390
13
347
21
  0
LAYER
  5
35
330
1
100
AcDbSymbolTableRecord
100
AcDbLayerTableRecord
  2
TABLE
 70
0
 62
7
  6
Continuous
370
13
390
13
347
21
  0
ENDTAB
  0
TABLE
  2
STYLE
  5
5
330
0
100
AcDbSymbolTable
 70
1
  0
STYLE
  5
29
330
5
100
AcDbSymbolTableRecord
100
AcDbTextStyleTableRecord
  2
Standard
 70
0
 40
0.0
 41
1.0
 50
0.0
 71
0
 42
2.5
  3
txt
  4

  0
ENDTAB
  0
TABLE
  2
VIEW
  5
7
330
0
100
AcDbSymbolTable
 70
0
  0
ENDTAB
  0
TABLE
  2
UCS
  5
6
330
0
100
AcDbSymbolTable
 70
0
  0
ENDTAB
  0
TABLE
  2
APPID
  5
3
330
0
100
AcDbSymbolTable
 70
3
  0
APPID
  5
2A
330
3
100
AcDbSymbolTableRecord
100
AcDbRegAppTableRecord
  2
ACAD
 70
0
  0
APPID
  5
A3
330
3
100
AcDbSymbolTableRecord
100
AcDbRegAppTableRecord
  2
HATCHBACKGROUNDCOLOR
 70
0
  0
APPID
  5
A4
330
3
100
AcDbSymbolTableRecord
100
AcDbRegAppTableRecord
  2
EZDXF
 70
0
  0
ENDTAB
  0
TABLE
  2
DIMSTYLE
  5
4
330
0
100
AcDbSymbolTable
 70
1
100
AcDbDimStyleTable
  0
DIMSTYLE
105
2B
330
4
100
AcDbSymbolTableRecord
100
AcDbDimStyleTableRecord
  2
Standard
 70
0
 40
1.0
 41
2.5
 42
0.625
 43
3.75
 44
1.25
 45
0.0
 46
0.0
 47
0.0
 48
0.0
 49
2.5
140
2.5
141
2.5
142
0.0
143
0.03937007874
144
1.0
145
0.0
146
1.0
147
0.625
148
0.0
 69
0
 70
0
 71
0
 72
0
 73
0
 74
0
 75
0
 76
0
 77
1
 78
8
 79
3
170
0
171
3
172
1
173
0
174
0
175
0
176
0
177
0
178
0
179
2
271
2
272
2
273
2
274
3
275
0
276
0
277
2
278
44
279
0
280
0
281
0
282
0
283
0
284
8
285
0
286
0
288
0
289
3
290
0
371
-2
372
-2
  0
ENDTAB
  0
TABLE
  2
BLOCK_RECORD
  5
9
330
0
100
AcDbSymbolTable
 70
2
  0
BLOCK_RECORD
  5
17
330
9
100
AcDbSymbolTableRecord
100
AcDbBlockTableRecord
  2
*Model_Space
340
1A
 70
0
280
1
281
0
  0
BLOCK_RECORD
  5
1B
330
9
100
AcDbSymbolTableRecord
100
AcDbBlockTableRecord
  2
*Paper_Space
340
1E
 70
0
280
1
281
0
  0
ENDTAB
  0
ENDSEC
  0
SECTION
  2
BLOCKS
  0
BLOCK
  5
18
330
17
100
AcDbEntity
  8
0
100
AcDbBlockBegin
  2
*Model_Space
 70
0
 10
0.0
 20
0.0
 30
0.0
  3
*Model_Space
  1

  0
ENDBLK
  5
19
330
17
100
AcDbEntity
  8
0
100
AcDbBlockEnd
  0
BLOCK
  5
1C
330
1B
100
AcDbEntity
  8
0
100
AcDbBlockBegin
  2
*Paper_Space
 70
0
 10
0.0
 20
0.0
 30
0.0
  3
*Paper_Space
  1

  0
ENDBLK
  5
1D
330
1B
100
AcDbEntity
  8
0
100
AcDbBlockEnd
  0
ENDSEC
  0
SECTION
  2
ENTITIES
  0
LWPOLYLINE
  5
37
330
17
100
AcDbEntity
  8
BORDER
100
AcDbPolyline
 90
4
 70
1
 10
0.0
 20
0.0
 10
210.0
 20
0.0
 10
210.0
 20
297.0
 10
0.0
 20
297.0
  0
LWPOLYLINE
  5
38
330
17
100
AcDbEntity
  8
BORDER
370
50
100
AcDbPolyline
 90
4
 70
1
 10
10.0
 20
10.0
 10
200.0
 20
10.0
 10
200.0
 20
287.0
 10
10.0
 20
287.0
  0
TEXT
  5
39
330
17
100
AcDbEntity
  8
BORDER
100
AcDbText
 10
12.0
 20
113.0
 30
0.0
 40
1.8
  1
Ang. nach ISO 10110; λ = 546.07 nm
100
AcDbText
 73
1
  0
TEXT
  5
3A
330
17
100
AcDbEntity
  8
BORDER
100
AcDbText
 10
12.0
 20
282.0
 30
0.0
 40
2.5
  1
f′ = 18.85 mm
100
AcDbText
 73
3
  0
LWPOLYLINE
  5
3B
330
17
100
AcDbEntity
  8
BORDER
100
AcDbPolyline
 90
4
 70
1
 10
10.0
 20
10.0
 10
200.0
 20
10.0
 10
200.0
 20
38.0
 10
10.0
 20
38.0
  0
LINE
  5
3C
330
17
100
AcDbEntity
  8
BORDER
100
AcDbLine
 10
10.0
 20
23.0
 30
0.0
 11
200.0
 21
23.0
 31
0.0
  0
LINE
  5
3D
330
17
100
AcDbEntity
  8
BORDER
100
AcDbLine
 10
74.60000000000001
 20
23.0
 30
0.0
 11
74.60000000000001
 21
38.0
 31
0.0
  0
LINE
  5
3E
330
17
100
AcDbEntity
  8
BORDER
100
AcDbLine
 10
101.20000000000002
 20
23.0
 30
0.0
 11
101.20000000000002
 21
38.0
 31
0.0
  0
LINE
  5
3F
330
17
100
AcDbEntity
  8
BORDER
100
AcDbLine
 10
127.80000000000001
 20
23.0
 30
0.0
 11
127.80000000000001
 21
38.0
 31
0.0
  0
LINE
  5
40
330
17
100
AcDbEntity
  8
BORDER
100
AcDbLine
 10
154.4
 20
23.0
 30
0.0
 11
154.4
 21
38.0
 31
0.0
  0
LINE
  5
41
330
17
100
AcDbEntity
  8
BORDER
100
AcDbLine
 10
177.20000000000002
 20
23.0
 30
0.0
 11
177.20000000000002
 21
38.0
 31
0.0
  0
LINE
  5
42
330
17
100
AcDbEntity
  8
BORDER
100
AcDbLine
 10
188.60000000000002
 20
23.0
 30
0.0
 11
188.60000000000002
 21
38.0
 31
0.0
  0
TEXT
  5
43
330
17
100
AcDbEntity
  8
BORDER
100
AcDbText
 10
42.300000000000004
 20
26.75
 30
0.0
 40
1.8
  1
ORGANISATION / PROJECT / PART NO.
 72
4
 11
42.300000000000004
 21
26.75
 31
0.0
100
AcDbText
 73
2
  0
TEXT
  5
44
330
17
100
AcDbEntity
  8
BORDER
100
AcDbText
 10
42.300000000000004
 20
33.5
 30
0.0
 40
2.5
  1
5-Element Photographic Objective   OPT-002
 72
4
 11
42.300000000000004
 21
33.5
 31
0.0
100
AcDbText
 73
2
  0
TEXT
  5
45
330
17
100
AcDbEntity
  8
BORDER
100
AcDbText
 10
87.9
 20
26.75
 30
0.0
 40
1.8
  1
DRAWN BY
 72
4
 11
87.9
 21
26.75
 31
0.0
100
AcDbText
 73
2
  0
TEXT
  5
46
330
17
100
AcDbEntity
  8
BORDER
100
AcDbText
 10
87.9
 20
33.5
 30
0.0
 40
2.5
  1
B. Lutzer
 72
4
 11
87.9
 21
33.5
 31
0.0
100
AcDbText
 73
2
  0
TEXT
  5
47
330
17
100
AcDbEntity
  8
BORDER
100
AcDbText
 10
114.50000000000001
 20
26.75
 30
0.0
 40
1.8
  1
APPROVED
 72
4
 11
114.50000000000001
 21
26.75
 31
0.0
100
AcDbText
 73
2
  0
TEXT
  5
48
330
17
100
AcDbEntity
  8
BORDER
100
AcDbText
 10
114.50000000000001
 20
33.5
 30
0.0
 40
2.5
  1
K. Harrison
 72
4
 11
114.50000000000001
 21
33.5
 31
0.0
100
AcDbText
 73
2
  0
TEXT
  5
49
330
17
100
AcDbEntity
  8
BORDER
100
AcDbText
 10
141.10000000000002
 20
26.75
 30
0.0
 40
1.8
  1
DATE
 72
4
 11
141.10000000000002
 21
26.75
 31
0.0
100
AcDbText
 73
2
  0
TEXT
  5
4A
330
17
100
AcDbEntity
  8
BORDER
100
AcDbText
 10
141.10000000000002
 20
33.5
 30
0.0
 40
2.5
  1
2026-07-26
 72
4
 11
141.10000000000002
 21
33.5
 31
0.0
100
AcDbText
 73
2
  0
TEXT
  5
4B
330
17
100
AcDbEntity
  8
BORDER
100
AcDbText
 10
165.8
 20
26.75
 30
0.0
 40
1.8
  1
SCALE
 72
4
 11
165.8
 21
26.75
 31
0.0
100
AcDbText
 73
2
  0
TEXT
  5
4C
330
17
100
AcDbEntity
  8
BORDER
100
AcDbText
 10
165.8
 20
33.5
 30
0.0
 40
2.5
  1
10:1
 72
4
 11
165.8
 21
33.5
 31
0.0
100
AcDbText
 73
2
  0
TEXT
  5
4D
330
17
100
AcDbEntity
  8
BORDER
100
AcDbText
 10
182.90000000000003
 20
26.75
 30
0.0
 40
1.8
  1
SHEET
 72
4
 11
182.90000000000003
 21
26.75
 31
0.0
100
AcDbText
 73
2
  0
TEXT
  5
4E
330
17
100
AcDbEntity
  8
BORDER
100
AcDbText
 10
182.90000000000003
 20
33.5
 30
0.0
 40
2.5
  1
2 / 5
 72
4
 11
182.90000000000003
 21
33.5
 31
0.0
100
AcDbText
 73
2
  0
TEXT
  5
4F
330
17
100
AcDbEntity
  8
BORDER
100
AcDbText
 10
194.3
 20
26.75
 30
0.0
 40
1.8
  1
REV
 72
4
 11
194.3
 21
26.75
 31
0.0
100
AcDbText
 73
2
  0
TEXT
  5
50
330
17
100
AcDbEntity
  8
BORDER
100
AcDbText
 10
194.3
 20
33.5
 30
0.0
 40
2.5
  1
A
 72
4
 11
194.3
 21
33.5
 31
0.0
100
AcDbText
 73
2
  0
LINE
  5
51
330
17
100
AcDbEntity
  8
BORDER
100
AcDbLine
 10
124.0
 20
10.0
 30
0.0
 11
124.0
 21
23.0
 31
0.0
  0
TEXT
  5
52
330
17
100
AcDbEntity
  8
BORDER
100
AcDbText
 10
12.0
 20
21.5
 30
0.0
 40
1.8
  1
NOTES
100
AcDbText
 73
3
  0
TEXT
  5
53
330
17
100
AcDbEntity
  8
BORDER
100
AcDbText
 10
146.8
 20
21.5
 30
0.0
 40
1.8
  1
DIM. IN mm
 72
4
 11
146.8
 21
21.5
 31
0.0
100
AcDbText
 73
3
  0
TEXT
  5
54
330
17
100
AcDbEntity
  8
BORDER
100
AcDbText
 10
146.8
 20
17.7
 30
0.0
 40
1.8
  1
GENERAL TOL. PER ISO 10110-11
 72
4
 11
146.8
 21
17.7
 31
0.0
100
AcDbText
 73
1
  0
TEXT
  5
55
330
17
100
AcDbEntity
  8
BORDER
100
AcDbText
 10
146.8
 20
15.3
 30
0.0
 40
1.8
  1
Ø±0.10  CT±0.15  3/ 5  4/ 3′  5/ 2×0.063
 72
4
 11
146.8
 21
15.3
 31
0.0
100
AcDbText
 73
3
  0
CIRCLE
  5
56
330
17
100
AcDbEntity
  8
BORDER
100
AcDbCircle
 10
180.61400000000003
 20
16.5
 30
0.0
 40
3.6400000000000006
  0
CIRCLE
  5
57
330
17
100
AcDbEntity
  8
BORDER
100
AcDbCircle
 10
180.61400000000003
 20
16.5
 30
0.0
 40
2.184
  0
LWPOLYLINE
  5
58
330
17
100
AcDbEntity
  8
BORDER
100
AcDbPolyline
 90
4
 70
1
 10
186.074
 20
20.14
 10
192.626
 20
18.684
 10
192.626
 20
14.315999999999999
 10
186.074
 20
12.86
  0
LINE
  5
59
330
17
100
AcDbEntity
  8
AXIS
100
AcDbLine
 10
175.88200000000003
 20
16.5
 30
0.0
 11
194.446
 21
16.5
 31
0.0
  0
LWPOLYLINE
  5
5A
330
17
100
AcDbEntity
  8
TABLE
100
AcDbPolyline
 90
4
 70
1
 10
10.0
 20
38.0
 10
200.0
 20
38.0
 10
200.0
 20
110.0
 10
10.0
 20
110.0
  0
LINE
  5
5B
330
17
100
AcDbEntity
  8
TABLE
100
AcDbLine
 10
73.33333333333334
 20
38.0
 30
0.0
 11
73.33333333333334
 21
110.0
 31
0.0
  0
LINE
  5
5C
330
17
100
AcDbEntity
  8
TABLE
100
AcDbLine
 10
136.66666666666669
 20
38.0
 30
0.0
 11
136.66666666666669
 21
110.0
 31
0.0
  0
LINE
  5
5D
330
17
100
AcDbEntity
  8
TABLE
100
AcDbLine
 10
10.0
 20
103.0
 30
0.0
 11
200.0
 21
103.0
 31
0.0
  0
TEXT
  5
5E
330
17
100
AcDbEntity
  8
TABLE
100
AcDbText
 10
41.66666666666667
 20
106.5
 30
0.0
 40
2.0
  1
SURFACE 1 (FRONT)
 72
4
 11
41.66666666666667
 21
106.5
 31
0.0
100
AcDbText
 73
2
  0
TEXT
  5
5F
330
17
100
AcDbEntity
  8
TABLE
100
AcDbText
 10
12.0
 20
101.0
 30
0.0
 40
2.0
  1
R -28.000 CC
100
AcDbText
 73
3
  0
TEXT
  5
60
330
17
100
AcDbEntity
  8
TABLE
100
AcDbText
 10
12.0
 20
94.5
 30
0.0
 40
2.0
  1
Øₑ 12.22
100
AcDbText
 73
3
  0
TEXT
  5
61
330
17
100
AcDbEntity
  8
TABLE
100
AcDbText
 10
12.0
 20
88.0
 30
0.0
 40
2.0
  1
3/ (0.5); λ=546.1 nm
100
AcDbText
 73
3
  0
TEXT
  5
62
330
17
100
AcDbEntity
  8
TABLE
100
AcDbText
 10
12.0
 20
81.5
 30
0.0
 40
2.0
  1
4/ 1′
100
AcDbText
 73
3
  0
TEXT
  5
63
330
17
100
AcDbEntity
  8
TABLE
100
AcDbText
 10
12.0
 20
75.0
 30
0.0
 40
2.0
  1
5/ 2×0.04
100
AcDbText
 73
3
  0
TEXT
  5
64
330
17
100
AcDbEntity
  8
TABLE
100
AcDbText
 10
12.0
 20
68.5
 30
0.0
 40
2.0
  1
6/ —
100
AcDbText
 73
3
  0
TEXT
  5
65
330
17
100
AcDbEntity
  8
TABLE
100
AcDbText
 10
12.0
 20
62.0
 30
0.0
 40
2.0
  1

100
AcDbText
 73
3
  0
TEXT
  5
66
330
17
100
AcDbEntity
  8
TABLE
100
AcDbText
 10
12.0
 20
55.5
 30
0.0
 40
2.0
  1
13/ —
100
AcDbText
 73
3
  0
CIRCLE
  5
67
330
17
100
AcDbEntity
  8
TABLE
100
AcDbCircle
 10
13.5
 20
60.5
 30
0.0
 40
1.5
  0
TEXT
  5
68
330
17
100
AcDbEntity
  8
TABLE
100
AcDbText
 10
13.5
 20
60.5
 30
0.0
 40
2.0999999999999996
  1
λ
 72
4
 11
13.5
 21
60.5
 31
0.0
100
AcDbText
 73
2
  0
TEXT
  5
69
330
17
100
AcDbEntity
  8
TABLE
100
AcDbText
 10
16.0
 20
60.5
 30
0.0
 40
2.0
  1
7/ —
100
AcDbText
 73
2
  0
TEXT
  5
6A
330
17
100
AcDbEntity
  8
TABLE
100
AcDbText
 10
168.33333333333334
 20
106.5
 30
0.0
 40
2.0
  1
SURFACE 2 (REAR)
 72
4
 11
168.33333333333334
 21
106.5
 31
0.0
100
AcDbText
 73
2
  0
TEXT
  5
6B
330
17
100
AcDbEntity
  8
TABLE
100
AcDbText
 10
138.66666666666669
 20
101.0
 30
0.0
 40
2.0
  1
R +26.000 CC
100
AcDbText
 73
3
  0
TEXT
  5
6C
330
17
100
AcDbEntity
  8
TABLE
100
AcDbText
 10
138.66666666666669
 20
94.5
 30
0.0
 40
2.0
  1
Øₑ 11.55
100
AcDbText
 73
3
  0
TEXT
  5
6D
330
17
100
AcDbEntity
  8
TABLE
100
AcDbText
 10
138.66666666666669
 20
88.0
 30
0.0
 40
2.0
  1
3/ (0.5); λ=546.1 nm
100
AcDbText
 73
3
  0
TEXT
  5
6E
330
17
100
AcDbEntity
  8
TABLE
100
AcDbText
 10
138.66666666666669
 20
81.5
 30
0.0
 40
2.0
  1
4/ 1′
100
AcDbText
 73
3
  0
TEXT
  5
6F
330
17
100
AcDbEntity
  8
TABLE
100
AcDbText
 10
138.66666666666669
 20
75.0
 30
0.0
 40
2.0
  1
5/ 2×0.04
100
AcDbText
 73
3
  0
TEXT
  5
70
330
17
100
AcDbEntity
  8
TABLE
100
AcDbText
 10
138.66666666666669
 20
68.5
 30
0.0
 40
2.0
  1
6/ —
100
AcDbText
 73
3
  0
TEXT
  5
71
330
17
100
AcDbEntity
  8
TABLE
100
AcDbText
 10
138.66666666666669
 20
62.0
 30
0.0
 40
2.0
  1

100
AcDbText
 73
3
  0
TEXT
  5
72
330
17
100
AcDbEntity
  8
TABLE
100
AcDbText
 10
138.66666666666669
 20
55.5
 30
0.0
 40
2.0
  1
13/ —
100
AcDbText
 73
3
  0
CIRCLE
  5
73
330
17
100
AcDbEntity
  8
TABLE
100
AcDbCircle
 10
140.16666666666669
 20
60.5
 30
0.0
 40
1.5
  0
TEXT
  5
74
330
17
100
AcDbEntity
  8
TABLE
100
AcDbText
 10
140.16666666666669
 20
60.5
 30
0.0
 40
2.0999999999999996
  1
λ
 72
4
 11
140.16666666666669
 21
60.5
 31
0.0
100
AcDbText
 73
2
  0
TEXT
  5
75
330
17
100
AcDbEntity
  8
TABLE
100
AcDbText
 10
142.66666666666669
 20
60.5
 30
0.0
 40
2.0
  1
7/ —
100
AcDbText
 73
2
  0
TEXT
  5
76
330
17
100
AcDbEntity
  8
TABLE
100
AcDbText
 10
105.0
 20
106.5
 30
0.0
 40
2.0
  1
MATERIAL
 72
4
 11
105.0
 21
106.5
 31
0.0
100
AcDbText
 73
2
  0
TEXT
  5
77
330
17
100
AcDbEntity
  8
TABLE
100
AcDbText
 10
75.33333333333334
 20
101.0
 30
0.0
 40
2.0
  1
N-SF2
100
AcDbText
 73
3
  0
TEXT
  5
78
330
17
100
AcDbEntity
  8
TABLE
100
AcDbText
 10
75.33333333333334
 20
94.5
 30
0.0
 40
2.0
  1
nd = 1.6477  (587.6 nm)
100
AcDbText
 73
3
  0
TEXT
  5
79
330
17
100
AcDbEntity
  8
TABLE
100
AcDbText
 10
75.33333333333334
 20
88.0
 30
0.0
 40
2.0
  1
νd = 33.82  (587.6 nm)
100
AcDbText
 73
3
  0
TEXT
  5
7A
330
17
100
AcDbEntity
  8
TABLE
100
AcDbText
 10
75.33333333333334
 20
81.5
 30
0.0
 40
2.0
  1
0/ 10 nm/cm
100
AcDbText
 73
3
  0
TEXT
  5
7B
330
17
100
AcDbEntity
  8
TABLE
100
AcDbText
 10
75.33333333333334
 20
75.0
 30
0.0
 40
2.0
  1
1/ 1×0.16
100
AcDbText
 73
3
  0
TEXT
  5
7C
330
17
100
AcDbEntity
  8
TABLE
100
AcDbText
 10
75.33333333333334
 20
68.5
 30
0.0
 40
2.0
  1
2/ NH010; B
100
AcDbText
 73
3
  0
LINE
  5
7D
330
17
100
AcDbEntity
  8
AXIS
100
AcDbLine
 10
73.37718666760456
 20
198.5
 30
0.0
 11
136.6228133323954
 21
198.5
 31
0.0
  0
TEXT
  5
7E
330
17
100
AcDbEntity
  8
AXIS
100
AcDbText
 10
72.37718666760456
 20
198.5
 30
0.0
 40
2.0
  1
opt./rot. axis
 72
2
 11
72.37718666760456
 21
198.5
 31
0.0
100
AcDbText
 73
2
  0
LWPOLYLINE
  5
7F
330
17
100
AcDbEntity
  8
OUTLINE
370
50
100
AcDbPolyline
 90
402
 70
1
 10
88.37718666760456
 20
137.38467054680473
 10
88.51384070651649
 20
137.99889496341976
 10
88.64904715866885
 20
138.6131193800348
 10
88.78280816972102
 20
139.22734379664982
 10
88.91512585822322
 20
139.84156821326485
 10
89.04600231579438
 20
140.45579262987988
 10
89.1754396072973
 20
141.0700170464949
 10
89.30343977101091
 20
141.6842414631099
 10
89.43000481879993
 20
142.29846587972497
 10
89.5551367362817
 20
142.91269029633997
 10
89.67883748299039
 20
143.52691471295503
 10
89.80110899253867
 20
144.14113912957004
 10
89.92195317277658
 20
144.75536354618507
 10
90.04137190594804
 20
145.3695879628001
 10
90.15936704884463
 20
145.98381237941513
 10
90.27594043295707
 20
146.59803679603016
 10
90.39109386462397
 20
147.2122612126452
 10
90.50482912517845
 20
147.82648562926022
 10
90.61714797109194
 20
148.44071004587525
 10
90.728052134116
 20
149.05493446249028
 10
90.83754332142149
 20
149.66915887910528
 10
90.94562321573548
 20
150.2833832957203
 10
91.05229347547595
 20
150.89760771233534
 10
91.15755573488406
 20
151.51183212895037
 10
91.26141160415426
 20
152.1260565455654
 10
91.36386266956211
 20
152.74028096218044
 10
91.46491049358991
 20
153.35450537879547
 10
91.56455661505018
 20
153.9687297954105
 10
91.6628025492069
 20
154.58295421202553
 10
91.75964978789476
 20
155.19717862864053
 10
91.85509979963606
 20
155.81140304525556
 10
91.94915402975576
 20
156.4256274618706
 10
92.04181390049428
 20
157.03985187848565
 10
92.13308081111836
 20
157.65407629510065
 10
92.22295613802986
 20
158.26830071171568
 10
92.31144123487249
 20
158.8825251283307
 10
92.39853743263662
 20
159.49674954494574
 10
92.4842460397621
 20
160.11097396156077
 10
92.5685683422392
 20
160.7251983781758
 10
92.65150560370739
 20
161.33942279479083
 10
92.73305906555251
 20
161.95364721140584
 10
92.81322994700179
 20
162.5678716280209
 10
92.89201944521719
 20
163.1820960446359
 10
92.96942873538666
 20
163.79632046125093
 10
93.0454589708138
 20
164.41054487786596
 10
93.12011128300551
 20
165.024769294481
 10
93.19338678175785
 20
165.63899371109602
 10
93.2652865552402
 20
166.25321812771105
 10
93.33581167007753
 20
166.86744254432608
 10
93.40496317143096
 20
167.48166696094108
 10
93.47274208307655
 20
168.09589137755611
 10
93.53914940748236
 20
168.71011579417114
 10
93.6041861258837
 20
169.32434021078618
 10
93.66785319835687
 20
169.9385646274012
 10
93.73015156389097
 20
170.55278904401624
 10
93.79108214045817
 20
171.16701346063127
 10
93.8506458250823
 20
171.7812378772463
 10
93.90884349390556
 20
172.39546229386133
 10
93.96567600225404
 20
173.00968671047636
 10
94.0211441847011
 20
173.6239111270914
 10
94.07524885512939
 20
174.2381355437064
 10
94.1279908067913
 20
174.85235996032142
 10
94.17937081236755
 20
175.46658437693645
 10
94.22938962402452
 20
176.08080879355148
 10
94.27804797346967
 20
176.6950332101665
 10
94.32534657200559
 20
177.30925762678154
 10
94.37128611058245
 20
177.92348204339658
 10
94.41586725984881
 20
178.5377064600116
 10
94.459090670201
 20
179.15193087662664
 10
94.50095697183083
 20
179.76615529324164
 10
94.54146677477186
 20
180.3803797098567
 10
94.58062066894414
 20
180.9946041264717
 10
94.61841922419737
 20
181.60882854308673
 10
94.65486299035264
 20
182.22305295970176
 10
94.68995249724259
 20
182.8372773763168
 10
94.72368825475012
 20
183.45150179293182
 10
94.75607075284555
 20
184.06572620954685
 10
94.78710046162243
 20
184.67995062616188
 10
94.81677783133173
 20
185.2941750427769
 10
94.84510329241462
 20
185.90839945939194
 10
94.8720772555338
 20
186.52262387600697
 10
94.89770011160334
 20
187.13684829262198
 10
94.92197223181708
 20
187.751072709237
 10
94.9448939676756
 20
188.36529712585204
 10
94.96646565101169
 20
188.97952154246707
 10
94.98668759401448
 20
189.5937459590821
 10
95.00556008925197
 20
190.20797037569713
 10
95.02308340969232
 20
190.82219479231216
 10
95.03925780872352
 20
191.4364192089272
 10
95.05408352017186
 20
192.05064362554222
 10
95.06756075831868
 20
192.66486804215725
 10
95.07968971791604
 20
193.27909245877225
 10
95.09047057420068
 20
193.89331687538728
 10
95.09990348290674
 20
194.50754129200232
 10
95.107988580277
 20
195.12176570861735
 10
95.11472598307267
 20
195.73599012523238
 10
95.12011578858196
 20
196.3502145418474
 10
95.12415807462696
 20
196.96443895846244
 10
95.12685289956931
 20
197.57866337507747
 10
95.1282003023145
 20
198.1928877916925
 10
95.1282003023145
 20
198.8071122083075
 10
95.12685289956931
 20
199.42133662492253
 10
95.12415807462696
 20
200.03556104153756
 10
95.12011578858196
 20
200.6497854581526
 10
95.11472598307267
 20
201.26400987476762
 10
95.107988580277
 20
201.87823429138265
 10
95.09990348290674
 20
202.49245870799768
 10
95.09047057420068
 20
203.10668312461272
 10
95.07968971791604
 20
203.72090754122775
 10
95.06756075831868
 20
204.33513195784278
 10
95.05408352017186
 20
204.94935637445778
 10
95.03925780872352
 20
205.5635807910728
 10
95.02308340969232
 20
206.17780520768784
 10
95.00556008925197
 20
206.79202962430287
 10
94.98668759401448
 20
207.4062540409179
 10
94.96646565101169
 20
208.02047845753293
 10
94.9448939676756
 20
208.63470287414796
 10
94.92197223181708
 20
209.248927290763
 10
94.89770011160334
 20
209.86315170737802
 10
94.8720772555338
 20
210.47737612399305
 10
94.84510329241462
 20
211.09160054060806
 10
94.81677783133173
 20
211.70582495722311
 10
94.78710046162243
 20
212.32004937383812
 10
94.75607075284555
 20
212.93427379045315
 10
94.72368825475012
 20
213.54849820706818
 10
94.68995249724259
 20
214.1627226236832
 10
94.65486299035264
 20
214.77694704029824
 10
94.61841922419737
 20
215.39117145691327
 10
94.58062066894414
 20
216.0053958735283
 10
94.54146677477186
 20
216.6196202901433
 10
94.50095697183083
 20
217.23384470675836
 10
94.459090670201
 20
217.8480691233734
 10
94.41586725984881
 20
218.4622935399884
 10
94.37128611058245
 20
219.07651795660342
 10
94.32534657200559
 20
219.69074237321846
 10
94.27804797346967
 20
220.3049667898335
 10
94.22938962402452
 20
220.91919120644852
 10
94.17937081236755
 20
221.53341562306355
 10
94.1279908067913
 20
222.14764003967855
 10
94.07524885512939
 20
222.7618644562936
 10
94.0211441847011
 20
223.37608887290864
 10
93.96567600225404
 20
223.99031328952364
 10
93.90884349390556
 20
224.60453770613867
 10
93.85064582508227
 20
225.21876212275373
 10
93.79108214045817
 20
225.83298653936873
 10
93.73015156389097
 20
226.44721095598376
 10
93.66785319835687
 20
227.0614353725988
 10
93.6041861258837
 20
227.67565978921382
 10
93.53914940748236
 20
228.28988420582886
 10
93.47274208307655
 20
228.90410862244389
 10
93.40496317143096
 20
229.5183330390589
 10
93.33581167007753
 20
230.13255745567395
 10
93.2652865552402
 20
230.74678187228898
 10
93.19338678175785
 20
231.36100628890398
 10
93.12011128300551
 20
231.975230705519
 10
93.0454589708138
 20
232.58945512213404
 10
92.96942873538666
 20
233.20367953874907
 10
92.89201944521719
 20
233.8179039553641
 10
92.81322994700179
 20
234.4321283719791
 10
92.73305906555251
 20
235.04635278859416
 10
92.65150560370739
 20
235.6605772052092
 10
92.5685683422392
 20
236.27480162182422
 10
92.4842460397621
 20
236.88902603843923
 10
92.39853743263662
 20
237.50325045505426
 10
92.31144123487249
 20
238.1174748716693
 10
92.22295613802986
 20
238.73169928828432
 10
92.13308081111836
 20
239.34592370489935
 10
92.04181390049428
 20
239.96014812151435
 10
91.94915402975576
 20
240.5743725381294
 10
91.85509979963606
 20
241.18859695474444
 10
91.75964978789476
 20
241.80282137135947
 10
91.6628025492069
 20
242.41704578797447
 10
91.56455661505017
 20
243.03127020458953
 10
91.46491049358991
 20
243.64549462120453
 10
91.36386266956211
 20
244.25971903781956
 10
91.26141160415426
 20
244.8739434544346
 10
91.15755573488406
 20
245.48816787104963
 10
91.05229347547595
 20
246.10239228766466
 10
90.94562321573548
 20
246.7166167042797
 10
90.83754332142149
 20
247.33084112089472
 10
90.728052134116
 20
247.94506553750975
 10
90.61714797109194
 20
248.55928995412478
 10
90.50482912517845
 20
249.17351437073978
 10
90.39109386462397
 20
249.7877387873548
 10
90.27594043295704
 20
250.40196320396984
 10
90.15936704884463
 20
251.01618762058487
 10
90.04137190594804
 20
251.6304120371999
 10
89.92195317277658
 20
252.24463645381493
 10
89.80110899253867
 20
252.85886087042996
 10
89.67883748299039
 20
253.473085287045
 10
89.5551367362817
 20
254.08730970366003
 10
89.43000481879993
 20
254.70153412027503
 10
89.30343977101091
 20
255.31575853689006
 10
89.17543960729729
 20
255.9299829535051
 10
89.04600231579438
 20
256.54420737012015
 10
88.91512585822322
 20
257.15843178673515
 10
88.78280816972102
 20
257.77265620335015
 10
88.64904715866885
 20
258.3868806199652
 10
88.51384070651649
 20
259.00110503658027
 10
88.37718666760456
 20
259.6153294531953
 10
122.41327913849634
 20
259.6153294531953
 10
122.41327913849634
 20
259.6153294531953
 10
122.26552786411114
 20
259.00110503658027
 10
122.11935400715262
 20
258.3868806199652
 10
121.97475483516295
 20
257.77265620335015
 10
121.83172765132616
 20
257.15843178673515
 10
121.690269794199
 20
256.54420737012015
 10
121.55037863744629
 20
255.9299829535051
 10
121.41205158958088
 20
255.31575853689006
 10
121.2752860937077
 20
254.70153412027503
 10
121.1400796272722
 20
254.08730970366003
 10
121.00642970181323
 20
253.473085287045
 10
120.87433386271972
 20
252.85886087042996
 10
120.74378968899184
 20
252.24463645381493
 10
120.61479479300591
 20
251.6304120371999
 10
120.48734682028368
 20
251.01618762058487
 10
120.36144344926508
 20
250.40196320396984
 10
120.23708239108538
 20
249.7877387873548
 10
120.11426138935578
 20
249.17351437073978
 10
119.99297821994801
 20
248.55928995412478
 10
119.87323069078266
 20
247.94506553750975
 10
119.7550166416211
 20
247.33084112089472
 10
119.63833394386117
 20
246.7166167042797
 10
119.52318050033635
 20
246.10239228766466
 10
119.4095542451186
 20
245.48816787104963
 10
119.29745314332455
 20
244.8739434544346
 10
119.18687519092535
 20
244.25971903781956
 10
119.07781841455977
 20
243.64549462120453
 10
118.97028087135084
 20
243.03127020458953
 10
118.86426064872549
 20
242.41704578797447
 10
118.75975586423809
 20
241.80282137135947
 10
118.65676466539654
 20
241.18859695474444
 10
118.55528522949206
 20
240.5743725381294
 10
118.45531576343211
 20
239.96014812151435
 10
118.35685450357619
 20
239.34592370489935
 10
118.25989971557496
 20
238.73169928828432
 10
118.16444969421251
 20
238.1174748716693
 10
118.07050276325131
 20
237.50325045505426
 10
117.97805727528062
 20
236.88902603843923
 10
117.88711161156755
 20
236.27480162182422
 10
117.79766418191106
 20
235.6605772052092
 10
117.70971342449914
 20
235.04635278859416
 10
117.62325780576855
 20
234.4321283719791
 10
117.53829582026755
 20
233.8179039553641
 10
117.45482599052144
 20
233.20367953874907
 10
117.37284686690093
 20
232.58945512213404
 10
117.29235702749313
 20
231.975230705519
 10
117.2133550779754
 20
231.36100628890398
 10
117.13583965149185
 20
230.74678187228898
 10
117.05980940853254
 20
230.13255745567395
 10
116.9852630368153
 20
229.5183330390589
 10
116.91219925117022
 20
228.90410862244389
 10
116.84061679342672
 20
228.28988420582886
 10
116.77051443230314
 20
227.67565978921382
 10
116.7018909632991
 20
227.0614353725988
 10
116.63474520859009
 20
226.44721095598376
 10
116.56907601692477
 20
225.83298653936873
 10
116.50488226352479
 20
225.21876212275373
 10
116.44216284998691
 20
224.60453770613867
 10
116.38091670418774
 20
223.99031328952364
 10
116.32114278019084
 20
223.37608887290864
 10
116.26284005815621
 20
222.7618644562936
 10
116.20600754425217
 20
222.14764003967855
 10
116.15064427056974
 20
221.53341562306355
 10
116.09674929503916
 20
220.91919120644852
 10
116.04432170134903
 20
220.3049667898335
 10
115.99336059886744
 20
219.69074237321846
 10
115.94386512256574
 20
219.07651795660342
 10
115.89583443294434
 20
218.4622935399884
 10
115.84926771596103
 20
217.8480691233734
 10
115.80416418296129
 20
217.23384470675836
 10
115.7605230706111
 20
216.6196202901433
 10
115.71834364083185
 20
216.0053958735283
 10
115.67762518073751
 20
215.39117145691327
 10
115.63836700257397
 20
214.77694704029824
 10
115.6005684436607
 20
214.1627226236832
 10
115.56422886633447
 20
213.54849820706818
 10
115.52934765789526
 20
212.93427379045315
 10
115.49592423055438
 20
212.32004937383812
 10
115.4639580213848
 20
211.70582495722311
 10
115.43344849227347
 20
211.09160054060806
 10
115.40439512987592
 20
210.47737612399305
 10
115.3767974455729
 20
209.86315170737802
 10
115.35065497542918
 20
209.248927290763
 10
115.32596728015443
 20
208.63470287414796
 10
115.30273394506627
 20
208.02047845753293
 10
115.28095458005532
 20
207.4062540409179
 10
115.26062881955241
 20
206.79202962430287
 10
115.24175632249784
 20
206.17780520768784
 10
115.22433677231271
 20
205.5635807910728
 10
115.20836987687234
 20
204.94935637445778
 10
115.19385536848179
 20
204.33513195784278
 10
115.18079300385334
 20
203.72090754122775
 10
115.16918256408611
 20
203.10668312461272
 10
115.15902385464771
 20
202.49245870799768
 10
115.15031670535794
 20
201.87823429138265
 10
115.14306097037449
 20
201.26400987476762
 10
115.13725652818077
 20
200.6497854581526
 10
115.13290328157572
 20
200.03556104153756
 10
115.13000115766569
 20
199.42133662492253
 10
115.12855010785827
 20
198.8071122083075
 10
115.12855010785827
 20
198.1928877916925
 10
115.13000115766569
 20
197.57866337507747
 10
115.13290328157572
 20
196.96443895846244
 10
115.13725652818077
 20
196.3502145418474
 10
115.14306097037449
 20
195.73599012523238
 10
115.15031670535794
 20
195.12176570861735
 10
115.15902385464771
 20
194.50754129200232
 10
115.16918256408611
 20
193.89331687538728
 10
115.18079300385334
 20
193.27909245877225
 10
115.19385536848179
 20
192.66486804215725
 10
115.20836987687234
 20
192.05064362554222
 10
115.22433677231271
 20
191.4364192089272
 10
115.24175632249784
 20
190.82219479231216
 10
115.26062881955241
 20
190.20797037569713
 10
115.28095458005532
 20
189.5937459590821
 10
115.30273394506627
 20
188.97952154246707
 10
115.32596728015443
 20
188.36529712585204
 10
115.35065497542918
 20
187.751072709237
 10
115.3767974455729
 20
187.13684829262198
 10
115.40439512987592
 20
186.52262387600697
 10
115.43344849227347
 20
185.90839945939194
 10
115.4639580213848
 20
185.2941750427769
 10
115.49592423055438
 20
184.67995062616188
 10
115.52934765789526
 20
184.06572620954685
 10
115.56422886633447
 20
183.45150179293182
 10
115.6005684436607
 20
182.8372773763168
 10
115.63836700257397
 20
182.22305295970176
 10
115.67762518073751
 20
181.60882854308673
 10
115.71834364083185
 20
180.9946041264717
 10
115.7605230706111
 20
180.3803797098567
 10
115.80416418296129
 20
179.76615529324164
 10
115.84926771596103
 20
179.15193087662664
 10
115.89583443294434
 20
178.5377064600116
 10
115.94386512256574
 20
177.92348204339658
 10
115.99336059886744
 20
177.30925762678154
 10
116.04432170134903
 20
176.6950332101665
 10
116.09674929503916
 20
176.08080879355148
 10
116.15064427056974
 20
175.46658437693645
 10
116.20600754425217
 20
174.85235996032142
 10
116.26284005815621
 20
174.2381355437064
 10
116.32114278019084
 20
173.6239111270914
 10
116.38091670418774
 20
173.00968671047636
 10
116.44216284998691
 20
172.39546229386133
 10
116.50488226352479
 20
171.7812378772463
 10
116.56907601692477
 20
171.16701346063127
 10
116.63474520859009
 20
170.55278904401624
 10
116.7018909632991
 20
169.9385646274012
 10
116.77051443230314
 20
169.32434021078618
 10
116.84061679342672
 20
168.71011579417114
 10
116.91219925117022
 20
168.09589137755611
 10
116.9852630368153
 20
167.48166696094108
 10
117.05980940853254
 20
166.86744254432608
 10
117.13583965149185
 20
166.25321812771105
 10
117.2133550779754
 20
165.63899371109602
 10
117.29235702749313
 20
165.024769294481
 10
117.37284686690093
 20
164.41054487786596
 10
117.45482599052144
 20
163.79632046125093
 10
117.53829582026755
 20
163.1820960446359
 10
117.62325780576855
 20
162.5678716280209
 10
117.70971342449914
 20
161.95364721140584
 10
117.79766418191106
 20
161.33942279479083
 10
117.88711161156755
 20
160.7251983781758
 10
117.97805727528062
 20
160.11097396156077
 10
118.07050276325131
 20
159.49674954494574
 10
118.16444969421251
 20
158.8825251283307
 10
118.25989971557496
 20
158.26830071171568
 10
118.35685450357619
 20
157.65407629510065
 10
118.45531576343211
 20
157.03985187848565
 10
118.55528522949206
 20
156.4256274618706
 10
118.65676466539654
 20
155.81140304525556
 10
118.75975586423809
 20
155.19717862864053
 10
118.86426064872549
 20
154.58295421202553
 10
118.97028087135084
 20
153.9687297954105
 10
119.07781841455977
 20
153.35450537879547
 10
119.18687519092535
 20
152.74028096218044
 10
119.29745314332455
 20
152.1260565455654
 10
119.40955424511858
 20
151.51183212895037
 10
119.52318050033635
 20
150.89760771233534
 10
119.63833394386117
 20
150.2833832957203
 10
119.7550166416211
 20
149.66915887910528
 10
119.87323069078263
 20
149.05493446249028
 10
119.99297821994801
 20
148.44071004587525
 10
120.11426138935578
 20
147.82648562926022
 10
120.23708239108538
 20
147.2122612126452
 10
120.36144344926508
 20
146.59803679603016
 10
120.48734682028368
 20
145.98381237941513
 10
120.61479479300591
 20
145.3695879628001
 10
120.74378968899184
 20
144.75536354618507
 10
120.87433386271972
 20
144.14113912957004
 10
121.00642970181323
 20
143.52691471295503
 10
121.1400796272722
 20
142.91269029633997
 10
121.2752860937077
 20
142.29846587972497
 10
121.4120515895809
 20
141.6842414631099
 10
121.55037863744629
 20
141.0700170464949
 10
121.690269794199
 20
140.45579262987988
 10
121.83172765132616
 20
139.84156821326485
 10
121.97475483516295
 20
139.22734379664982
 10
122.11935400715262
 20
138.6131193800348
 10
122.26552786411114
 20
137.99889496341976
 10
122.41327913849634
 20
137.38467054680473
 10
88.37718666760456
 20
137.38467054680473
  0
HATCH
  5
80
330
17
100
AcDbEntity
  8
OUTLINE
 62
7
100
AcDbHatch
 10
0.0
 20
0.0
 30
0.0
210
0.0
220
0.0
230
1.0
  2
ANSI31
 70
0
 71
0
 91
1
 92
3
 72
0
 73
1
 93
402
 10
88.37718666760456
 20
137.38467054680473
 10
88.51384070651649
 20
137.99889496341976
 10
88.64904715866885
 20
138.6131193800348
 10
88.78280816972102
 20
139.22734379664982
 10
88.91512585822322
 20
139.84156821326485
 10
89.04600231579438
 20
140.45579262987988
 10
89.1754396072973
 20
141.0700170464949
 10
89.30343977101091
 20
141.6842414631099
 10
89.43000481879993
 20
142.29846587972497
 10
89.5551367362817
 20
142.91269029633997
 10
89.67883748299039
 20
143.52691471295503
 10
89.80110899253867
 20
144.14113912957004
 10
89.92195317277658
 20
144.75536354618507
 10
90.04137190594804
 20
145.3695879628001
 10
90.15936704884463
 20
145.98381237941513
 10
90.27594043295707
 20
146.59803679603016
 10
90.39109386462397
 20
147.2122612126452
 10
90.50482912517845
 20
147.82648562926022
 10
90.61714797109194
 20
148.44071004587525
 10
90.728052134116
 20
149.05493446249028
 10
90.83754332142149
 20
149.66915887910528
 10
90.94562321573548
 20
150.2833832957203
 10
91.05229347547595
 20
150.89760771233534
 10
91.15755573488406
 20
151.51183212895037
 10
91.26141160415426
 20
152.1260565455654
 10
91.36386266956211
 20
152.74028096218044
 10
91.46491049358991
 20
153.35450537879547
 10
91.56455661505018
 20
153.9687297954105
 10
91.6628025492069
 20
154.58295421202553
 10
91.75964978789476
 20
155.19717862864053
 10
91.85509979963606
 20
155.81140304525556
 10
91.94915402975576
 20
156.4256274618706
 10
92.04181390049428
 20
157.03985187848565
 10
92.13308081111836
 20
157.65407629510065
 10
92.22295613802986
 20
158.26830071171568
 10
92.31144123487249
 20
158.8825251283307
 10
92.39853743263662
 20
159.49674954494574
 10
92.4842460397621
 20
160.11097396156077
 10
92.5685683422392
 20
160.7251983781758
 10
92.65150560370739
 20
161.33942279479083
 10
92.73305906555251
 20
161.95364721140584
 10
92.81322994700179
 20
162.5678716280209
 10
92.89201944521719
 20
163.1820960446359
 10
92.96942873538666
 20
163.79632046125093
 10
93.0454589708138
 20
164.41054487786596
 10
93.12011128300551
 20
165.024769294481
 10
93.19338678175785
 20
165.63899371109602
 10
93.2652865552402
 20
166.25321812771105
 10
93.33581167007753
 20
166.86744254432608
 10
93.40496317143096
 20
167.48166696094108
 10
93.47274208307655
 20
168.09589137755611
 10
93.53914940748236
 20
168.71011579417114
 10
93.6041861258837
 20
169.32434021078618
 10
93.66785319835687
 20
169.9385646274012
 10
93.73015156389097
 20
170.55278904401624
 10
93.79108214045817
 20
171.16701346063127
 10
93.8506458250823
 20
171.7812378772463
 10
93.90884349390556
 20
172.39546229386133
 10
93.96567600225404
 20
173.00968671047636
 10
94.0211441847011
 20
173.6239111270914
 10
94.07524885512939
 20
174.2381355437064
 10
94.1279908067913
 20
174.85235996032142
 10
94.17937081236755
 20
175.46658437693645
 10
94.22938962402452
 20
176.08080879355148
 10
94.27804797346967
 20
176.6950332101665
 10
94.32534657200559
 20
177.30925762678154
 10
94.37128611058245
 20
177.92348204339658
 10
94.41586725984881
 20
178.5377064600116
 10
94.459090670201
 20
179.15193087662664
 10
94.50095697183083
 20
179.76615529324164
 10
94.54146677477186
 20
180.3803797098567
 10
94.58062066894414
 20
180.9946041264717
 10
94.61841922419737
 20
181.60882854308673
 10
94.65486299035264
 20
182.22305295970176
 10
94.68995249724259
 20
182.8372773763168
 10
94.72368825475012
 20
183.45150179293182
 10
94.75607075284555
 20
184.06572620954685
 10
94.78710046162243
 20
184.67995062616188
 10
94.81677783133173
 20
185.2941750427769
 10
94.84510329241462
 20
185.90839945939194
 10
94.8720772555338
 20
186.52262387600697
 10
94.89770011160334
 20
187.13684829262198
 10
94.92197223181708
 20
187.751072709237
 10
94.9448939676756
 20
188.36529712585204
 10
94.96646565101169
 20
188.97952154246707
 10
94.98668759401448
 20
189.5937459590821
 10
95.00556008925197
 20
190.20797037569713
 10
95.02308340969232
 20
190.82219479231216
 10
95.03925780872352
 20
191.4364192089272
 10
95.05408352017186
 20
192.05064362554222
 10
95.06756075831868
 20
192.66486804215725
 10
95.07968971791604
 20
193.27909245877225
 10
95.09047057420068
 20
193.89331687538728
 10
95.09990348290674
 20
194.50754129200232
 10
95.107988580277
 20
195.12176570861735
 10
95.11472598307267
 20
195.73599012523238
 10
95.12011578858196
 20
196.3502145418474
 10
95.12415807462696
 20
196.96443895846244
 10
95.12685289956931
 20
197.57866337507747
 10
95.1282003023145
 20
198.1928877916925
 10
95.1282003023145
 20
198.8071122083075
 10
95.12685289956931
 20
199.42133662492253
 10
95.12415807462696
 20
200.03556104153756
 10
95.12011578858196
 20
200.6497854581526
 10
95.11472598307267
 20
201.26400987476762
 10
95.107988580277
 20
201.87823429138265
 10
95.09990348290674
 20
202.49245870799768
 10
95.09047057420068
 20
203.10668312461272
 10
95.07968971791604
 20
203.72090754122775
 10
95.06756075831868
 20
204.33513195784278
 10
95.05408352017186
 20
204.94935637445778
 10
95.03925780872352
 20
205.5635807910728
 10
95.02308340969232
 20
206.17780520768784
 10
95.00556008925197
 20
206.79202962430287
 10
94.98668759401448
 20
207.4062540409179
 10
94.96646565101169
 20
208.02047845753293
 10
94.9448939676756
 20
208.63470287414796
 10
94.92197223181708
 20
209.248927290763
 10
94.89770011160334
 20
209.86315170737802
 10
94.8720772555338
 20
210.47737612399305
 10
94.84510329241462
 20
211.09160054060806
 10
94.81677783133173
 20
211.70582495722311
 10
94.78710046162243
 20
212.32004937383812
 10
94.75607075284555
 20
212.93427379045315
 10
94.72368825475012
 20
213.54849820706818
 10
94.68995249724259
 20
214.1627226236832
 10
94.65486299035264
 20
214.77694704029824
 10
94.61841922419737
 20
215.39117145691327
 10
94.58062066894414
 20
216.0053958735283
 10
94.54146677477186
 20
216.6196202901433
 10
94.50095697183083
 20
217.23384470675836
 10
94.459090670201
 20
217.8480691233734
 10
94.41586725984881
 20
218.4622935399884
 10
94.37128611058245
 20
219.07651795660342
 10
94.32534657200559
 20
219.69074237321846
 10
94.27804797346967
 20
220.3049667898335
 10
94.22938962402452
 20
220.91919120644852
 10
94.17937081236755
 20
221.53341562306355
 10
94.1279908067913
 20
222.14764003967855
 10
94.07524885512939
 20
222.7618644562936
 10
94.0211441847011
 20
223.37608887290864
 10
93.96567600225404
 20
223.99031328952364
 10
93.90884349390556
 20
224.60453770613867
 10
93.85064582508227
 20
225.21876212275373
 10
93.79108214045817
 20
225.83298653936873
 10
93.73015156389097
 20
226.44721095598376
 10
93.66785319835687
 20
227.0614353725988
 10
93.6041861258837
 20
227.67565978921382
 10
93.53914940748236
 20
228.28988420582886
 10
93.47274208307655
 20
228.90410862244389
 10
93.40496317143096
 20
229.5183330390589
 10
93.33581167007753
 20
230.13255745567395
 10
93.2652865552402
 20
230.74678187228898
 10
93.19338678175785
 20
231.36100628890398
 10
93.12011128300551
 20
231.975230705519
 10
93.0454589708138
 20
232.58945512213404
 10
92.96942873538666
 20
233.20367953874907
 10
92.89201944521719
 20
233.8179039553641
 10
92.81322994700179
 20
234.4321283719791
 10
92.73305906555251
 20
235.04635278859416
 10
92.65150560370739
 20
235.6605772052092
 10
92.5685683422392
 20
236.27480162182422
 10
92.4842460397621
 20
236.88902603843923
 10
92.39853743263662
 20
237.50325045505426
 10
92.31144123487249
 20
238.1174748716693
 10
92.22295613802986
 20
238.73169928828432
 10
92.13308081111836
 20
239.34592370489935
 10
92.04181390049428
 20
239.96014812151435
 10
91.94915402975576
 20
240.5743725381294
 10
91.85509979963606
 20
241.18859695474444
 10
91.75964978789476
 20
241.80282137135947
 10
91.6628025492069
 20
242.41704578797447
 10
91.56455661505017
 20
243.03127020458953
 10
91.46491049358991
 20
243.64549462120453
 10
91.36386266956211
 20
244.25971903781956
 10
91.26141160415426
 20
244.8739434544346
 10
91.15755573488406
 20
245.48816787104963
 10
91.05229347547595
 20
246.10239228766466
 10
90.94562321573548
 20
246.7166167042797
 10
90.83754332142149
 20
247.33084112089472
 10
90.728052134116
 20
247.94506553750975
 10
90.61714797109194
 20
248.55928995412478
 10
90.50482912517845
 20
249.17351437073978
 10
90.39109386462397
 20
249.7877387873548
 10
90.27594043295704
 20
250.40196320396984
 10
90.15936704884463
 20
251.01618762058487
 10
90.04137190594804
 20
251.6304120371999
 10
89.92195317277658
 20
252.24463645381493
 10
89.80110899253867
 20
252.85886087042996
 10
89.67883748299039
 20
253.473085287045
 10
89.5551367362817
 20
254.08730970366003
 10
89.43000481879993
 20
254.70153412027503
 10
89.30343977101091
 20
255.31575853689006
 10
89.17543960729729
 20
255.9299829535051
 10
89.04600231579438
 20
256.54420737012015
 10
88.91512585822322
 20
257.15843178673515
 10
88.78280816972102
 20
257.77265620335015
 10
88.64904715866885
 20
258.3868806199652
 10
88.51384070651649
 20
259.00110503658027
 10
88.37718666760456
 20
259.6153294531953
 10
122.41327913849634
 20
259.6153294531953
 10
122.41327913849634
 20
259.6153294531953
 10
122.26552786411114
 20
259.00110503658027
 10
122.11935400715262
 20
258.3868806199652
 10
121.97475483516295
 20
257.77265620335015
 10
121.83172765132616
 20
257.15843178673515
 10
121.690269794199
 20
256.54420737012015
 10
121.55037863744629
 20
255.9299829535051
 10
121.41205158958088
 20
255.31575853689006
 10
121.2752860937077
 20
254.70153412027503
 10
121.1400796272722
 20
254.08730970366003
 10
121.00642970181323
 20
253.473085287045
 10
120.87433386271972
 20
252.85886087042996
 10
120.74378968899184
 20
252.24463645381493
 10
120.61479479300591
 20
251.6304120371999
 10
120.48734682028368
 20
251.01618762058487
 10
120.36144344926508
 20
250.40196320396984
 10
120.23708239108538
 20
249.7877387873548
 10
120.11426138935578
 20
249.17351437073978
 10
119.99297821994801
 20
248.55928995412478
 10
119.87323069078266
 20
247.94506553750975
 10
119.7550166416211
 20
247.33084112089472
 10
119.63833394386117
 20
246.7166167042797
 10
119.52318050033635
 20
246.10239228766466
 10
119.4095542451186
 20
245.48816787104963
 10
119.29745314332455
 20
244.8739434544346
 10
119.18687519092535
 20
244.25971903781956
 10
119.07781841455977
 20
243.64549462120453
 10
118.97028087135084
 20
243.03127020458953
 10
118.86426064872549
 20
242.41704578797447
 10
118.75975586423809
 20
241.80282137135947
 10
118.65676466539654
 20
241.18859695474444
 10
118.55528522949206
 20
240.5743725381294
 10
118.45531576343211
 20
239.96014812151435
 10
118.35685450357619
 20
239.34592370489935
 10
118.25989971557496
 20
238.73169928828432
 10
118.16444969421251
 20
238.1174748716693
 10
118.07050276325131
 20
237.50325045505426
 10
117.97805727528062
 20
236.88902603843923
 10
117.88711161156755
 20
236.27480162182422
 10
117.79766418191106
 20
235.6605772052092
 10
117.70971342449914
 20
235.04635278859416
 10
117.62325780576855
 20
234.4321283719791
 10
117.53829582026755
 20
233.8179039553641
 10
117.45482599052144
 20
233.20367953874907
 10
117.37284686690093
 20
232.58945512213404
 10
117.29235702749313
 20
231.975230705519
 10
117.2133550779754
 20
231.36100628890398
 10
117.13583965149185
 20
230.74678187228898
 10
117.05980940853254
 20
230.13255745567395
 10
116.9852630368153
 20
229.5183330390589
 10
116.91219925117022
 20
228.90410862244389
 10
116.84061679342672
 20
228.28988420582886
 10
116.77051443230314
 20
227.67565978921382
 10
116.7018909632991
 20
227.0614353725988
 10
116.63474520859009
 20
226.44721095598376
 10
116.56907601692477
 20
225.83298653936873
 10
116.50488226352479
 20
225.21876212275373
 10
116.44216284998691
 20
224.60453770613867
 10
116.38091670418774
 20
223.99031328952364
 10
116.32114278019084
 20
223.37608887290864
 10
116.26284005815621
 20
222.7618644562936
 10
116.20600754425217
 20
222.14764003967855
 10
116.15064427056974
 20
221.53341562306355
 10
116.09674929503916
 20
220.91919120644852
 10
116.04432170134903
 20
220.3049667898335
 10
115.99336059886744
 20
219.69074237321846
 10
115.94386512256574
 20
219.07651795660342
 10
115.89583443294434
 20
218.4622935399884
 10
115.84926771596103
 20
217.8480691233734
 10
115.80416418296129
 20
217.23384470675836
 10
115.7605230706111
 20
216.6196202901433
 10
115.71834364083185
 20
216.0053958735283
 10
115.67762518073751
 20
215.39117145691327
 10
115.63836700257397
 20
214.77694704029824
 10
115.6005684436607
 20
214.1627226236832
 10
115.56422886633447
 20
213.54849820706818
 10
115.52934765789526
 20
212.93427379045315
 10
115.49592423055438
 20
212.32004937383812
 10
115.4639580213848
 20
211.70582495722311
 10
115.43344849227347
 20
211.09160054060806
 10
115.40439512987592
 20
210.47737612399305
 10
115.3767974455729
 20
209.86315170737802
 10
115.35065497542918
 20
209.248927290763
 10
115.32596728015443
 20
208.63470287414796
 10
115.30273394506627
 20
208.02047845753293
 10
115.28095458005532
 20
207.4062540409179
 10
115.26062881955241
 20
206.79202962430287
 10
115.24175632249784
 20
206.17780520768784
 10
115.22433677231271
 20
205.5635807910728
 10
115.20836987687234
 20
204.94935637445778
 10
115.19385536848179
 20
204.33513195784278
 10
115.18079300385334
 20
203.72090754122775
 10
115.16918256408611
 20
203.10668312461272
 10
115.15902385464771
 20
202.49245870799768
 10
115.15031670535794
 20
201.87823429138265
 10
115.14306097037449
 20
201.26400987476762
 10
115.13725652818077
 20
200.6497854581526
 10
115.13290328157572
 20
200.03556104153756
 10
115.13000115766569
 20
199.42133662492253
 10
115.12855010785827
 20
198.8071122083075
 10
115.12855010785827
 20
198.1928877916925
 10
115.13000115766569
 20
197.57866337507747
 10
115.13290328157572
 20
196.96443895846244
 10
115.13725652818077
 20
196.3502145418474
 10
115.14306097037449
 20
195.73599012523238
 10
115.15031670535794
 20
195.12176570861735
 10
115.15902385464771
 20
194.50754129200232
 10
115.16918256408611
 20
193.89331687538728
 10
115.18079300385334
 20
193.27909245877225
 10
115.19385536848179
 20
192.66486804215725
 10
115.20836987687234
 20
192.05064362554222
 10
115.22433677231271
 20
191.4364192089272
 10
115.24175632249784
 20
190.82219479231216
 10
115.26062881955241
 20
190.20797037569713
 10
115.28095458005532
 20
189.5937459590821
 10
115.30273394506627
 20
188.97952154246707
 10
115.32596728015443
 20
188.36529712585204
 10
115.35065497542918
 20
187.751072709237
 10
115.3767974455729
 20
187.13684829262198
 10
115.40439512987592
 20
186.52262387600697
 10
115.43344849227347
 20
185.90839945939194
 10
115.4639580213848
 20
185.2941750427769
 10
115.49592423055438
 20
184.67995062616188
 10
115.52934765789526
 20
184.06572620954685
 10
115.56422886633447
 20
183.45150179293182
 10
115.6005684436607
 20
182.8372773763168
 10
115.63836700257397
 20
182.22305295970176
 10
115.67762518073751
 20
181.60882854308673
 10
115.71834364083185
 20
180.9946041264717
 10
115.7605230706111
 20
180.3803797098567
 10
115.80416418296129
 20
179.76615529324164
 10
115.84926771596103
 20
179.15193087662664
 10
115.89583443294434
 20
178.5377064600116
 10
115.94386512256574
 20
177.92348204339658
 10
115.99336059886744
 20
177.30925762678154
 10
116.04432170134903
 20
176.6950332101665
 10
116.09674929503916
 20
176.08080879355148
 10
116.15064427056974
 20
175.46658437693645
 10
116.20600754425217
 20
174.85235996032142
 10
116.26284005815621
 20
174.2381355437064
 10
116.32114278019084
 20
173.6239111270914
 10
116.38091670418774
 20
173.00968671047636
 10
116.44216284998691
 20
172.39546229386133
 10
116.50488226352479
 20
171.7812378772463
 10
116.56907601692477
 20
171.16701346063127
 10
116.63474520859009
 20
170.55278904401624
 10
116.7018909632991
 20
169.9385646274012
 10
116.77051443230314
 20
169.32434021078618
 10
116.84061679342672
 20
168.71011579417114
 10
116.91219925117022
 20
168.09589137755611
 10
116.9852630368153
 20
167.48166696094108
 10
117.05980940853254
 20
166.86744254432608
 10
117.13583965149185
 20
166.25321812771105
 10
117.2133550779754
 20
165.63899371109602
 10
117.29235702749313
 20
165.024769294481
 10
117.37284686690093
 20
164.41054487786596
 10
117.45482599052144
 20
163.79632046125093
 10
117.53829582026755
 20
163.1820960446359
 10
117.62325780576855
 20
162.5678716280209
 10
117.70971342449914
 20
161.95364721140584
 10
117.79766418191106
 20
161.33942279479083
 10
117.88711161156755
 20
160.7251983781758
 10
117.97805727528062
 20
160.11097396156077
 10
118.07050276325131
 20
159.49674954494574
 10
118.16444969421251
 20
158.8825251283307
 10
118.25989971557496
 20
158.26830071171568
 10
118.35685450357619
 20
157.65407629510065
 10
118.45531576343211
 20
157.03985187848565
 10
118.55528522949206
 20
156.4256274618706
 10
118.65676466539654
 20
155.81140304525556
 10
118.75975586423809
 20
155.19717862864053
 10
118.86426064872549
 20
154.58295421202553
 10
118.97028087135084
 20
153.9687297954105
 10
119.07781841455977
 20
153.35450537879547
 10
119.18687519092535
 20
152.74028096218044
 10
119.29745314332455
 20
152.1260565455654
 10
119.40955424511858
 20
151.51183212895037
 10
119.52318050033635
 20
150.89760771233534
 10
119.63833394386117
 20
150.2833832957203
 10
119.7550166416211
 20
149.66915887910528
 10
119.87323069078263
 20
149.05493446249028
 10
119.99297821994801
 20
148.44071004587525
 10
120.11426138935578
 20
147.82648562926022
 10
120.23708239108538
 20
147.2122612126452
 10
120.36144344926508
 20
146.59803679603016
 10
120.48734682028368
 20
145.98381237941513
 10
120.61479479300591
 20
145.3695879628001
 10
120.74378968899184
 20
144.75536354618507
 10
120.87433386271972
 20
144.14113912957004
 10
121.00642970181323
 20
143.52691471295503
 10
121.1400796272722
 20
142.91269029633997
 10
121.2752860937077
 20
142.29846587972497
 10
121.4120515895809
 20
141.6842414631099
 10
121.55037863744629
 20
141.0700170464949
 10
121.690269794199
 20
140.45579262987988
 10
121.83172765132616
 20
139.84156821326485
 10
121.97475483516295
 20
139.22734379664982
 10
122.11935400715262
 20
138.6131193800348
 10
122.26552786411114
 20
137.99889496341976
 10
122.41327913849634
 20
137.38467054680473
 10
88.37718666760456
 20
137.38467054680473
 97
0
 75
1
 76
1
 52
0.0
 41
1.0
 77
0
 78
1
 53
45.0
 43
0.0
 44
0.0
 45
-2.2450640303
 46
2.2450640303
 79
0
 98
0
  0
LINE
  5
81
330
17
100
AcDbEntity
  8
DIMS
100
AcDbLine
 10
95.12836872720175
 20
135.88467054680473
 30
0.0
 11
95.12836872720175
 21
129.38467054680473
 31
0.0
  0
LINE
  5
82
330
17
100
AcDbEntity
  8
DIMS
100
AcDbLine
 10
115.12836872720175
 20
135.88467054680473
 30
0.0
 11
115.12836872720175
 21
129.38467054680473
 31
0.0
  0
LINE
  5
83
330
17
100
AcDbEntity
  8
DIMS
100
AcDbLine
 10
95.12836872720175
 20
129.38467054680473
 30
0.0
 11
115.12836872720175
 21
129.38467054680473
 31
0.0
  0
SOLID
  5
84
330
17
100
AcDbEntity
  8
DIMS
100
AcDbTrace
 10
95.12836872720175
 20
129.38467054680473
 30
0.0
 11
97.62836872720175
 21
128.58467054680472
 31
0.0
 12
97.62836872720175
 22
130.18467054680474
 32
0.0
 13
97.62836872720175
 23
130.18467054680474
 33
0.0
  0
SOLID
  5
85
330
17
100
AcDbEntity
  8
DIMS
100
AcDbTrace
 10
115.12836872720175
 20
129.38467054680473
 30
0.0
 11
112.62836872720175
 21
130.18467054680474
 31
0.0
 12
112.62836872720175
 22
128.58467054680472
 32
0.0
 13
112.62836872720175
 23
128.58467054680472
 33
0.0
  0
TEXT
  5
86
330
17
100
AcDbEntity
  8
DIMS
100
AcDbText
 10
105.12836872720175
 20
125.38467054680473
 30
0.0
 40
2.5
  1
2.00
 72
4
 11
105.12836872720175
 21
125.38467054680473
 31
0.0
100
AcDbText
 73
3
  0
LINE
  5
87
330
17
100
AcDbEntity
  8
DIMS
100
AcDbLine
 10
122.41327913849634
 20
259.6153294531953
 30
0.0
 11
133.6228133323954
 21
259.6153294531953
 31
0.0
  0
LINE
  5
88
330
17
100
AcDbEntity
  8
DIMS
100
AcDbLine
 10
88.37718666760456
 20
137.38467054680473
 30
0.0
 11
133.6228133323954
 21
137.38467054680473
 31
0.0
  0
LINE
  5
89
330
17
100
AcDbEntity
  8
DIMS
100
AcDbLine
 10
131.6228133323954
 20
259.6153294531953
 30
0.0
 11
131.6228133323954
 21
137.38467054680473
 31
0.0
  0
SOLID
  5
8A
330
17
100
AcDbEntity
  8
DIMS
100
AcDbTrace
 10
131.6228133323954
 20
259.6153294531953
 30
0.0
 11
130.82281333239538
 21
257.1153294531953
 31
0.0
 12
132.4228133323954
 22
257.1153294531953
 32
0.0
 13
132.4228133323954
 23
257.1153294531953
 33
0.0
  0
SOLID
  5
8B
330
17
100
AcDbEntity
  8
DIMS
100
AcDbTrace
 10
131.6228133323954
 20
137.38467054680473
 30
0.0
 11
132.4228133323954
 21
139.88467054680473
 31
0.0
 12
130.82281333239538
 22
139.88467054680473
 32
0.0
 13
130.82281333239538
 23
139.88467054680473
 33
0.0
  0
TEXT
  5
8C
330
17
100
AcDbEntity
  8
DIMS
100
AcDbText
 10
134.6228133323954
 20
198.5
 30
0.0
 40
2.5
  1
Ø 12.22
100
AcDbText
 73
2
  0
LINE
  5
8D
330
17
100
AcDbEntity
  8
DIMS
100
AcDbLine
 10
88.37718666760456
 20
261.1153294531953
 30
0.0
 11
88.37718666760456
 21
267.6153294531953
 31
0.0
  0
LINE
  5
8E
330
17
100
AcDbEntity
  8
DIMS
100
AcDbLine
 10
122.41327913849634
 20
261.1153294531953
 30
0.0
 11
122.41327913849634
 21
267.6153294531953
 31
0.0
  0
LINE
  5
8F
330
17
100
AcDbEntity
  8
DIMS
100
AcDbLine
 10
88.37718666760456
 20
267.6153294531953
 30
0.0
 11
122.41327913849634
 21
267.6153294531953
 31
0.0
  0
SOLID
  5
90
330
17
100
AcDbEntity
  8
DIMS
100
AcDbTrace
 10
88.37718666760456
 20
267.6153294531953
 30
0.0
 11
90.87718666760456
 21
266.81532945319526
 31
0.0
 12
90.87718666760456
 22
268.4153294531953
 32
0.0
 13
90.87718666760456
 23
268.4153294531953
 33
0.0
  0
SOLID
  5
91
330
17
100
AcDbEntity
  8
DIMS
100
AcDbTrace
 10
122.41327913849634
 20
267.6153294531953
 30
0.0
 11
119.91327913849634
 21
268.4153294531953
 31
0.0
 12
119.91327913849634
 22
266.81532945319526
 32
0.0
 13
119.91327913849634
 23
266.81532945319526
 33
0.0
  0
TEXT
  5
92
330
17
100
AcDbEntity
  8
DIMS
100
AcDbText
 10
105.39523290305044
 20
269.6153294531953
 30
0.0
 40
2.5
  1
(3.40)
 72
4
 11
105.39523290305044
 21
269.6153294531953
 31
0.0
100
AcDbText
 73
1
  0
LINE
  5
93
330
17
100
AcDbEntity
  8
DIMS
100
AcDbLine
 10
88.37718666760456
 20
259.6153294531953
 30
0.0
 11
85.37718666760456
 21
259.6153294531953
 31
0.0
  0
LINE
  5
94
330
17
100
AcDbEntity
  8
DIMS
100
AcDbLine
 10
88.37718666760456
 20
137.38467054680473
 30
0.0
 11
85.37718666760456
 21
137.38467054680473
 31
0.0
  0
LINE
  5
95
330
17
100
AcDbEntity
  8
DIMS
100
AcDbLine
 10
85.37718666760456
 20
137.38467054680473
 30
0.0
 11
85.37718666760456
 21
259.6153294531953
 31
0.0
  0
TEXT
  5
96
330
17
100
AcDbEntity
  8
DIMS
100
AcDbText
 10
84.37718666760456
 20
198.5
 30
0.0
 40
2.0
  1
Øₑ 12.22
 72
2
 11
84.37718666760456
 21
198.5
 31
0.0
100
AcDbText
 73
2
  0
LINE
  5
97
330
17
100
AcDbEntity
  8
DIMS
100
AcDbLine
 10
121.6228133323954
 20
256.2488821014811
 30
0.0
 11
124.6228133323954
 21
256.2488821014811
 31
0.0
  0
LINE
  5
98
330
17
100
AcDbEntity
  8
DIMS
100
AcDbLine
 10
121.6228133323954
 20
140.75111789851886
 30
0.0
 11
124.6228133323954
 21
140.75111789851886
 31
0.0
  0
LINE
  5
99
330
17
100
AcDbEntity
  8
DIMS
100
AcDbLine
 10
124.6228133323954
 20
140.75111789851886
 30
0.0
 11
124.6228133323954
 21
256.2488821014811
 31
0.0
  0
TEXT
  5
9A
330
17
100
AcDbEntity
  8
DIMS
100
AcDbText
 10
125.6228133323954
 20
198.5
 30
0.0
 40
2.0
  1
Øₑ 11.55
 11
125.6228133323954
 21
198.5
 31
0.0
100
AcDbText
 73
2
  0
LWPOLYLINE
  5
9B
330
17
100
AcDbEntity
  8
CALLOUT
100
AcDbPolyline
 90
3
 70
1
 10
90.26724670605137
 20
250.448030035216
 10
86.90925874701158
 20
247.56052486549888
 10
86.08759988210281
 20
251.91237994102573
  0
LINE
  5
9C
330
17
100
AcDbEntity
  8
CALLOUT
100
AcDbLine
 10
90.26724670605137
 20
250.448030035216
 30
0.0
 11
81.86337430009966
 21
253.37836096687545
 31
0.0
  0
LINE
  5
9D
330
17
100
AcDbEntity
  8
CALLOUT
100
AcDbLine
 10
81.90158997373585
 20
253.3329712424938
 30
0.0
 11
81.39571911940544
 21
256.0122786034912
 31
0.0
  0
TEXT
  5
9E
330
17
100
AcDbEntity
  8
CALLOUT
100
AcDbText
 10
81.11742610135964
 20
257.4862368783779
 30
0.0
 40
2.0
  1
S1
 72
4
 11
81.11742610135964
 21
257.4862368783779
 31
0.0
100
AcDbText
 73
2
  0
LWPOLYLINE
  5
9F
330
17
100
AcDbEntity
  8
CALLOUT
100
AcDbPolyline
 90
3
 70
1
 10
118.1810448965923
 20
238.22496414457692
 10
122.30974775789534
 20
239.82733174324687
 10
121.63308751620576
 20
235.45058674199439
  0
LINE
  5
A0
330
17
100
AcDbEntity
  8
CALLOUT
100
AcDbLine
 10
118.1810448965923
 20
238.22496414457692
 30
0.0
 11
125.12661302743753
 21
232.6598051958726
 31
0.0
  0
LINE
  5
A1
330
17
100
AcDbEntity
  8
CALLOUT
100
AcDbLine
 10
125.10572185260716
 20
232.71534098257914
 30
0.0
 11
124.68912232551153
 21
230.02070963673987
 31
0.0
  0
TEXT
  5
A2
330
17
100
AcDbEntity
  8
CALLOUT
100
AcDbText
 10
124.45993984006205
 20
228.53832123002482
 30
0.0
 40
2.0
  1
S2
 72
4
 11
124.45993984006205
 21
228.53832123002482
 31
0.0
100
AcDbText
 73
2
  0
ENDSEC
  0
SECTION
  2
OBJECTS
  0
DICTIONARY
  5
A
330
0
100
AcDbDictionary
281
1
  3
ACAD_COLOR
350
B
  3
ACAD_GROUP
350
C
  3
ACAD_LAYOUT
350
D
  3
ACAD_MATERIAL
350
E
  3
ACAD_MLEADERSTYLE
350
F
  3
ACAD_MLINESTYLE
350
10
  3
ACAD_PLOTSETTINGS
350
11
  3
ACAD_PLOTSTYLENAME
350
12
  3
ACAD_SCALELIST
350
14
  3
ACAD_TABLESTYLE
350
15
  3
ACAD_VISUALSTYLE
350
16
  3
EZDXF_META
350
2D
  0
DICTIONARY
  5
B
330
A
100
AcDbDictionary
281
1
  0
DICTIONARY
  5
C
330
A
100
AcDbDictionary
281
1
  0
DICTIONARY
  5
D
330
A
100
AcDbDictionary
281
1
  3
Model
350
1A
  3
Layout1
350
1E
  0
DICTIONARY
  5
E
330
A
100
AcDbDictionary
281
1
  3
ByBlock
350
1F
  3
ByLayer
350
20
  3
Global
350
21
  0
DICTIONARY
  5
F
330
A
100
AcDbDictionary
281
1
  3
Standard
350
2C
  0
DICTIONARY
  5
10
330
A
100
AcDbDictionary
281
1
  3
Standard
350
22
  0
DICTIONARY
  5
11
330
A
100
AcDbDictionary
281
1
  0
ACDBDICTIONARYWDFLT
  5
12
330
A
100
AcDbDictionary
281
1
  3
Normal
350
13
100
AcDbDictionaryWithDefault
340
13
  0
ACDBPLACEHOLDER
  5
13
330
12
  0
DICTIONARY
  5
14
330
A
100
AcDbDictionary
281
1
  0
DICTIONARY
  5
15
330
A
100
AcDbDictionary
281
1
  0
DICTIONARY
  5
16
330
A
100
AcDbDictionary
281
1
  0
LAYOUT
  5
1A
330
D
100
AcDbPlotSettings
  1

  4
A3
  6

 40
7.5
 41
20.0
 42
7.5
 43
20.0
 44
420.0
 45
297.0
 46
0.0
 47
0.0
 48
0.0
 49
0.0
140
0.0
141
0.0
142
1.0
143
1.0
 70
1024
 72
1
 73
0
 74
5
  7

 75
16
 76
0
 77
2
 78
300
147
1.0
148
0.0
149
0.0
100
AcDbLayout
  1
Model
 70
1
 71
0
 10
0.0
 20
0.0
 11
420.0
 21
297.0
 12
0.0
 22
0.0
 32
0.0
 14
1e+20
 24
1e+20
 34
1e+20
 15
-1e+20
 25
-1e+20
 35
-1e+20
146
0.0
 13
0.0
 23
0.0
 33
0.0
 16
1.0
 26
0.0
 36
0.0
 17
0.0
 27
1.0
 37
0.0
 76
1
330
17
  0
LAYOUT
  5
1E
330
D
100
AcDbPlotSettings
  1

  4
A3
  6

 40
7.5
 41
20.0
 42
7.5
 43
20.0
 44
420.0
 45
297.0
 46
0.0
 47
0.0
 48
0.0
 49
0.0
140
0.0
141
0.0
142
1.0
143
1.0
 70
0
 72
1
 73
0
 74
5
  7

 75
16
 76
0
 77
2
 78
300
147
1.0
148
0.0
149
0.0
100
AcDbLayout
  1
Layout1
 70
1
 71
1
 10
0.0
 20
0.0
 11
420.0
 21
297.0
 12
0.0
 22
0.0
 32
0.0
 14
1e+20
 24
1e+20
 34
1e+20
 15
-1e+20
 25
-1e+20
 35
-1e+20
146
0.0
 13
0.0
 23
0.0
 33
0.0
 16
1.0
 26
0.0
 36
0.0
 17
0.0
 27
1.0
 37
0.0
 76
1
330
1B
  0
MATERIAL
  5
1F
102
{ACAD_REACTORS
330
E
102
}
330
E
100
AcDbMaterial
  1
ByBlock
  2

 70
0
 40
1.0
 71
1
 41
1.0
 91
-1023410177
 42
1.0
 72
1
  3

 73
1
 74
1
 75
1
 44
0.5
 73
0
 45
1.0
 46
1.0
 77
1
  4

 78
1
 79
1
170
1
 48
1.0
171
1
  6

172
1
173
1
174
1
140
1.0
141
1.0
175
1
  7

176
1
177
1
178
1
143
1.0
179
1
  8

270
1
271
1
272
1
145
1.0
146
1.0
273
1
  9

274
1
275
1
276
1
 42
1.0
 72
1
  3

 73
1
 74
1
 75
1
 94
63
  0
MATERIAL
  5
20
102
{ACAD_REACTORS
330
E
102
}
330
E
100
AcDbMaterial
  1
ByLayer
  2

 70
0
 40
1.0
 71
1
 41
1.0
 91
-1023410177
 42
1.0
 72
1
  3

 73
1
 74
1
 75
1
 44
0.5
 73
0
 45
1.0
 46
1.0
 77
1
  4

 78
1
 79
1
170
1
 48
1.0
171
1
  6

172
1
173
1
174
1
140
1.0
141
1.0
175
1
  7

176
1
177
1
178
1
143
1.0
179
1
  8

270
1
271
1
272
1
145
1.0
146
1.0
273
1
  9

274
1
275
1
276
1
 42
1.0
 72
1
  3

 73
1
 74
1
 75
1
 94
63
  0
MATERIAL
  5
21
102
{ACAD_REACTORS
330
E
102
}
330
E
100
AcDbMaterial
  1
Global
  2

 70
0
 40
1.0
 71
1
 41
1.0
 91
-1023410177
 42
1.0
 72
1
  3

 73
1
 74
1
 75
1
 44
0.5
 73
0
 45
1.0
 46
1.0
 77
1
  4

 78
1
 79
1
170
1
 48
1.0
171
1
  6

172
1
173
1
174
1
140
1.0
141
1.0
175
1
  7

176
1
177
1
178
1
143
1.0
179
1
  8

270
1
271
1
272
1
145
1.0
146
1.0
273
1
  9

274
1
275
1
276
1
 42
1.0
 72
1
  3

 73
1
 74
1
 75
1
 94
63
  0
MLINESTYLE
  5
22
102
{ACAD_REACTORS
330
10
102
}
330
10
100
AcDbMlineStyle
  2
Standard
 70
0
  3

 62
256
 51
90.0
 52
90.0
 71
2
 49
0.5
 62
256
  6
BYLAYER
 49
-0.5
 62
256
  6
BYLAYER
  0
MLEADERSTYLE
  5
2C
102
{ACAD_REACTORS
330
F
102
}
330
F
100
AcDbMLeaderStyle
179
2
170
2
171
1
172
0
 90
2
 40
0.0
 41
0.0
173
1
 91
-1056964608
 92
-2
290
1
 42
2.0
291
1
 43
8.0
  3
Standard
 44
4.0
300

342
29
174
1
175
1
176
0
178
1
 93
-1056964608
 45
4.0
292
0
297
0
 46
4.0
 94
-1056964608
 47
1.0
 49
1.0
140
1.0
294
1
141
0.0
177
0
142
1.0
295
0
296
0
143
3.75
271
0
272
9
273
9
  0
DICTIONARY
  5
2D
330
A
100
AcDbDictionary
280
1
281
1
  3
CREATED_BY_EZDXF
350
2E
  3
WRITTEN_BY_EZDXF
350
A5
  0
DICTIONARYVAR
  5
2E
330
2D
100
DictionaryVariables
280
0
  1
1.4.3 @ 2026-07-26T12:20:01.951902+00:00
  0
DICTIONARYVAR
  5
A5
330
2D
100
DictionaryVariables
280
0
  1
1.4.3 @ 2026-07-26T12:20:01.958166+00:00
  0
ENDSEC
  0
EOF
