  0
SECTION
  2
HEADER
  9
$ACADVER
  1
AC1024
  9
$ACADMAINTVER
 70
6
  9
$DWGCODEPAGE
  3
ANSI_1252
  9
$LASTSAVEDBY
  1
ezdxf
  9
$INSBASE
 10
0.0
 20
0.0
 30
0.0
  9
$EXTMIN
 10
0.0
 20
0.0
 30
0.0
  9
$EXTMAX
 10
210.0
 20
297.0
 30
0.0
  9
$LIMMIN
 10
0.0
 20
0.0
  9
$LIMMAX
 10
420.0
 20
297.0
  9
$ORTHOMODE
 70
0
  9
$REGENMODE
 70
1
  9
$FILLMODE
 70
1
  9
$QTEXTMODE
 70
0
  9
$MIRRTEXT
 70
1
  9
$LTSCALE
 40
1.0
  9
$ATTMODE
 70
1
  9
$TEXTSIZE
 40
2.5
  9
$TRACEWID
 40
1.0
  9
$TEXTSTYLE
  7
Standard
  9
$CLAYER
  8
0
  9
$CELTYPE
  6
ByLayer
  9
$CECOLOR
 62
256
  9
$CELTSCALE
 40
1.0
  9
$DISPSILH
 70
0
  9
$DIMSCALE
 40
1.0
  9
$DIMASZ
 40
2.5
  9
$DIMEXO
 40
0.625
  9
$DIMDLI
 40
3.75
  9
$DIMRND
 40
0.0
  9
$DIMDLE
 40
0.0
  9
$DIMEXE
 40
1.25
  9
$DIMTP
 40
0.0
  9
$DIMTM
 40
0.0
  9
$DIMTXT
 40
2.5
  9
$DIMCEN
 40
2.5
  9
$DIMTSZ
 40
0.0
  9
$DIMTOL
 70
0
  9
$DIMLIM
 70
0
  9
$DIMTIH
 70
0
  9
$DIMTOH
 70
0
  9
$DIMSE1
 70
0
  9
$DIMSE2
 70
0
  9
$DIMTAD
 70
1
  9
$DIMZIN
 70
8
  9
$DIMBLK
  1

  9
$DIMASO
 70
1
  9
$DIMSHO
 70
1
  9
$DIMPOST
  1

  9
$DIMAPOST
  1

  9
$DIMALT
 70
0
  9
$DIMALTD
 70
3
  9
$DIMALTF
 40
0.03937007874
  9
$DIMLFAC
 40
1.0
  9
$DIMTOFL
 70
1
  9
$DIMTVP
 40
0.0
  9
$DIMTIX
 70
0
  9
$DIMSOXD
 70
0
  9
$DIMSAH
 70
0
  9
$DIMBLK1
  1

  9
$DIMBLK2
  1

  9
$DIMSTYLE
  2
ISO-25
  9
$DIMCLRD
 70
0
  9
$DIMCLRE
 70
0
  9
$DIMCLRT
 70
0
  9
$DIMTFAC
 40
1.0
  9
$DIMGAP
 40
0.625
  9
$DIMJUST
 70
0
  9
$DIMSD1
 70
0
  9
$DIMSD2
 70
0
  9
$DIMTOLJ
 70
0
  9
$DIMTZIN
 70
8
  9
$DIMALTZ
 70
0
  9
$DIMALTTZ
 70
0
  9
$DIMUPT
 70
0
  9
$DIMDEC
 70
2
  9
$DIMTDEC
 70
2
  9
$DIMALTU
 70
2
  9
$DIMALTTD
 70
3
  9
$DIMTXSTY
  7
Standard
  9
$DIMAUNIT
 70
0
  9
$DIMADEC
 70
0
  9
$DIMALTRND
 40
0.0
  9
$DIMAZIN
 70
0
  9
$DIMDSEP
 70
44
  9
$DIMATFIT
 70
3
  9
$DIMFRAC
 70
0
  9
$DIMLDRBLK
  1

  9
$DIMLUNIT
 70
2
  9
$DIMLWD
 70
-2
  9
$DIMLWE
 70
-2
  9
$DIMTMOVE
 70
0
  9
$DIMFXL
 40
1.0
  9
$DIMFXLON
 70
0
  9
$DIMJOGANG
 40
0.785398163397
  9
$DIMTFILL
 70
0
  9
$DIMTFILLCLR
 70
0
  9
$DIMARCSYM
 70
0
  9
$DIMLTYPE
  6

  9
$DIMLTEX1
  6

  9
$DIMLTEX2
  6

  9
$DIMTXTDIRECTION
 70
0
  9
$LUNITS
 70
2
  9
$LUPREC
 70
4
  9
$SKETCHINC
 40
1.0
  9
$FILLETRAD
 40
10.0
  9
$AUNITS
 70
0
  9
$AUPREC
 70
2
  9
$MENU
  1
.
  9
$ELEVATION
 40
0.0
  9
$PELEVATION
 40
0.0
  9
$THICKNESS
 40
0.0
  9
$LIMCHECK
 70
0
  9
$CHAMFERA
 40
0.0
  9
$CHAMFERB
 40
0.0
  9
$CHAMFERC
 40
0.0
  9
$CHAMFERD
 40
0.0
  9
$SKPOLY
 70
0
  9
$TDCREATE
 40
2461248.513900463
  9
$TDUCREATE
 40
2458532.153996898
  9
$TDUPDATE
 40
2461248.513900463
  9
$TDUUPDATE
 40
2458532.1544311
  9
$TDINDWG
 40
0.0
  9
$TDUSRTIMER
 40
0.0
  9
$USRTIMER
 70
1
  9
$ANGBASE
 50
0.0
  9
$ANGDIR
 70
0
  9
$PDMODE
 70
0
  9
$PDSIZE
 40
0.0
  9
$PLINEWID
 40
0.0
  9
$SPLFRAME
 70
0
  9
$SPLINETYPE
 70
6
  9
$SPLINESEGS
 70
8
  9
$HANDSEED
  5
A6
  9
$SURFTAB1
 70
6
  9
$SURFTAB2
 70
6
  9
$SURFTYPE
 70
6
  9
$SURFU
 70
6
  9
$SURFV
 70
6
  9
$UCSBASE
  2

  9
$UCSNAME
  2

  9
$UCSORG
 10
0.0
 20
0.0
 30
0.0
  9
$UCSXDIR
 10
1.0
 20
0.0
 30
0.0
  9
$UCSYDIR
 10
0.0
 20
1.0
 30
0.0
  9
$UCSORTHOREF
  2

  9
$UCSORTHOVIEW
 70
0
  9
$UCSORGTOP
 10
0.0
 20
0.0
 30
0.0
  9
$UCSORGBOTTOM
 10
0.0
 20
0.0
 30
0.0
  9
$UCSORGLEFT
 10
0.0
 20
0.0
 30
0.0
  9
$UCSORGRIGHT
 10
0.0
 20
0.0
 30
0.0
  9
$UCSORGFRONT
 10
0.0
 20
0.0
 30
0.0
  9
$UCSORGBACK
 10
0.0
 20
0.0
 30
0.0
  9
$PUCSBASE
  2

  9
$PUCSNAME
  2

  9
$PUCSORG
 10
0.0
 20
0.0
 30
0.0
  9
$PUCSXDIR
 10
1.0
 20
0.0
 30
0.0
  9
$PUCSYDIR
 10
0.0
 20
1.0
 30
0.0
  9
$PUCSORTHOREF
  2

  9
$PUCSORTHOVIEW
 70
0
  9
$PUCSORGTOP
 10
0.0
 20
0.0
 30
0.0
  9
$PUCSORGBOTTOM
 10
0.0
 20
0.0
 30
0.0
  9
$PUCSORGLEFT
 10
0.0
 20
0.0
 30
0.0
  9
$PUCSORGRIGHT
 10
0.0
 20
0.0
 30
0.0
  9
$PUCSORGFRONT
 10
0.0
 20
0.0
 30
0.0
  9
$PUCSORGBACK
 10
0.0
 20
0.0
 30
0.0
  9
$USERI1
 70
0
  9
$USERI2
 70
0
  9
$USERI3
 70
0
  9
$USERI4
 70
0
  9
$USERI5
 70
0
  9
$USERR1
 40
0.0
  9
$USERR2
 40
0.0
  9
$USERR3
 40
0.0
  9
$USERR4
 40
0.0
  9
$USERR5
 40
0.0
  9
$WORLDVIEW
 70
1
  9
$SHADEDGE
 70
3
  9
$SHADEDIF
 70
70
  9
$TILEMODE
 70
1
  9
$MAXACTVP
 70
64
  9
$PINSBASE
 10
0.0
 20
0.0
 30
0.0
  9
$PLIMCHECK
 70
0
  9
$PEXTMIN
 10
1e+20
 20
1e+20
 30
1e+20
  9
$PEXTMAX
 10
-1e+20
 20
-1e+20
 30
-1e+20
  9
$PLIMMIN
 10
0.0
 20
0.0
  9
$PLIMMAX
 10
420.0
 20
297.0
  9
$UNITMODE
 70
0
  9
$VISRETAIN
 70
1
  9
$PLINEGEN
 70
0
  9
$PSLTSCALE
 70
1
  9
$TREEDEPTH
 70
3020
  9
$CMLSTYLE
  2
Standard
  9
$CMLJUST
 70
0
  9
$CMLSCALE
 40
20.0
  9
$PROXYGRAPHICS
 70
1
  9
$MEASUREMENT
 70
1
  9
$CELWEIGHT
370
-1
  9
$ENDCAPS
280
0
  9
$JOINSTYLE
280
0
  9
$LWDISPLAY
290
0
  9
$INSUNITS
 70
4
  9
$HYPERLINKBASE
  1

  9
$STYLESHEET
  1

  9
$XEDIT
290
1
  9
$CEPSNTYPE
380
0
  9
$PSTYLEMODE
290
1
  9
$FINGERPRINTGUID
  2
{4978F418-DFB4-4047-88D9-97003FE745C1}
  9
$VERSIONGUID
  2
{B2F898E8-321A-45D2-BB9D-DC57ED87B7A8}
  9
$EXTNAMES
290
1
  9
$PSVPSCALE
 40
0.0
  9
$OLESTARTUP
290
0
  9
$SORTENTS
280
127
  9
$INDEXCTL
280
0
  9
$HIDETEXT
280
1
  9
$XCLIPFRAME
280
1
  9
$HALOGAP
280
0
  9
$OBSCOLOR
 70
257
  9
$OBSLTYPE
280
0
  9
$INTERSECTIONDISPLAY
280
0
  9
$INTERSECTIONCOLOR
 70
257
  9
$DIMASSOC
280
2
  9
$PROJECTNAME
  1

  9
$CAMERADISPLAY
290
0
  9
$LENSLENGTH
 40
50.0
  9
$CAMERAHEIGHT
 40
0.0
  9
$STEPSPERSEC
 40
24.0
  9
$STEPSIZE
 40
100.0
  9
$3DDWFPREC
 40
2.0
  9
$PSOLWIDTH
 40
0.005
  9
$PSOLHEIGHT
 40
0.08
  9
$LOFTANG1
 40
1.570796326795
  9
$LOFTANG2
 40
1.570796326795
  9
$LOFTMAG1
 40
0.0
  9
$LOFTMAG2
 40
0.0
  9
$LOFTPARAM
 70
7
  9
$LOFTNORMALS
280
1
  9
$LATITUDE
 40
37.795
  9
$LONGITUDE
 40
-122.394
  9
$NORTHDIRECTION
 40
0.0
  9
$TIMEZONE
 70
-8000
  9
$LIGHTGLYPHDISPLAY
280
1
  9
$TILEMODELIGHTSYNCH
280
1
  9
$CMATERIAL
347
20
  9
$SOLIDHIST
280
0
  9
$SHOWHIST
280
1
  9
$DWFFRAME
280
2
  9
$DGNFRAME
280
2
  9
$REALWORLDSCALE
290
1
  9
$INTERFERECOLOR
 62
256
  9
$CSHADOW
280
0
  9
$SHADOWPLANELOCATION
 40
0.0
  0
ENDSEC
  0
SECTION
  2
CLASSES
  0
CLASS
  1
ACDBDICTIONARYWDFLT
  2
AcDbDictionaryWithDefault
  3
ObjectDBX Classes
 90
0
 91
0
280
0
281
0
  0
CLASS
  1
SUN
  2
AcDbSun
  3
SCENEOE
 90
1153
 91
0
280
0
281
0
  0
CLASS
  1
VISUALSTYLE
  2
AcDbVisualStyle
  3
ObjectDBX Classes
 90
4095
 91
0
280
0
281
0
  0
CLASS
  1
MATERIAL
  2
AcDbMaterial
  3
ObjectDBX Classes
 90
1153
 91
0
280
0
281
0
  0
CLASS
  1
SCALE
  2
AcDbScale
  3
ObjectDBX Classes
 90
1153
 91
0
280
0
281
0
  0
CLASS
  1
TABLESTYLE
  2
AcDbTableStyle
  3
ObjectDBX Classes
 90
4095
 91
0
280
0
281
0
  0
CLASS
  1
MLEADERSTYLE
  2
AcDbMLeaderStyle
  3
ACDB_MLEADERSTYLE_CLASS
 90
4095
 91
0
280
0
281
0
  0
CLASS
  1
DICTIONARYVAR
  2
AcDbDictionaryVar
  3
ObjectDBX Classes
 90
0
 91
0
280
0
281
0
  0
CLASS
  1
CELLSTYLEMAP
  2
AcDbCellStyleMap
  3
ObjectDBX Classes
 90
1152
 91
0
280
0
281
0
  0
CLASS
  1
MENTALRAYRENDERSETTINGS
  2
AcDbMentalRayRenderSettings
  3
SCENEOE
 90
1024
 91
0
280
0
281
0
  0
CLASS
  1
ACDBDETAILVIEWSTYLE
  2
AcDbDetailViewStyle
  3
ObjectDBX Classes
 90
1025
 91
0
280
0
281
0
  0
CLASS
  1
ACDBSECTIONVIEWSTYLE
  2
AcDbSectionViewStyle
  3
ObjectDBX Classes
 90
1025
 91
0
280
0
281
0
  0
CLASS
  1
RASTERVARIABLES
  2
AcDbRasterVariables
  3
ISM
 90
0
 91
0
280
0
281
0
  0
CLASS
  1
ACDBPLACEHOLDER
  2
AcDbPlaceHolder
  3
ObjectDBX Classes
 90
0
 91
0
280
0
281
0
  0
CLASS
  1
LAYOUT
  2
AcDbLayout
  3
ObjectDBX Classes
 90
0
 91
0
280
0
281
0
  0
ENDSEC
  0
SECTION
  2
TABLES
  0
TABLE
  2
VPORT
  5
8
330
0
100
AcDbSymbolTable
 70
1
  0
VPORT
  5
23
330
8
100
AcDbSymbolTableRecord
100
AcDbViewportTableRecord
  2
*Active
 70
0
 10
0.0
 20
0.0
 11
1.0
 21
1.0
 12
0.0
 22
0.0
 13
0.0
 23
0.0
 14
0.5
 24
0.5
 15
0.5
 25
0.5
 16
0.0
 26
0.0
 36
1.0
 17
0.0
 27
0.0
 37
0.0
 40
1000.0
 41
1.34
 42
50.0
 43
0.0
 44
0.0
 50
0.0
 51
0.0
 71
0
 72
1000
 73
1
 74
3
 75
0
 76
0
 77
0
 78
0
281
0
 65
0
146
0.0
  0
ENDTAB
  0
TABLE
  2
LTYPE
  5
2
330
0
100
AcDbSymbolTable
 70
4
  0
LTYPE
  5
24
330
2
100
AcDbSymbolTableRecord
100
AcDbLinetypeTableRecord
  2
ByBlock
 70
0
  3

 72
65
 73
0
 40
0.0
  0
LTYPE
  5
25
330
2
100
AcDbSymbolTableRecord
100
AcDbLinetypeTableRecord
  2
ByLayer
 70
0
  3

 72
65
 73
0
 40
0.0
  0
LTYPE
  5
26
330
2
100
AcDbSymbolTableRecord
100
AcDbLinetypeTableRecord
  2
Continuous
 70
0
  3

 72
65
 73
0
 40
0.0
  0
LTYPE
  5
36
330
2
100
AcDbSymbolTableRecord
100
AcDbLinetypeTableRecord
  2
OPTICAL
 70
0
  3

 72
65
 73
5
 40
8.0
 49
-2.0
 74
0
 49
1.0
 74
0
 49
-2.0
 74
0
 49
1.0
 74
0
 49
-2.0
 74
0
  0
ENDTAB
  0
TABLE
  2
LAYER
  5
1
330
0
100
AcDbSymbolTable
 70
9
  0
LAYER
  5
27
330
1
100
AcDbSymbolTableRecord
100
AcDbLayerTableRecord
  2
0
 70
0
 62
7
  6
Continuous
370
-3
390
13
347
21
  0
LAYER
  5
28
330
1
100
AcDbSymbolTableRecord
100
AcDbLayerTableRecord
  2
Defpoints
 70
0
 62
7
  6
Continuous
290
0
370
-3
390
13
347
21
  0
LAYER
  5
2F
330
1
100
AcDbSymbolTableRecord
100
AcDbLayerTableRecord
  2
BORDER
 70
0
 62
7
  6
Continuous
370
25
390
13
347
21
  0
LAYER
  5
30
330
1
100
AcDbSymbolTableRecord
100
AcDbLayerTableRecord
  2
OUTLINE
 70
0
 62
7
  6
Continuous
370
50
390
13
347
21
  0
LAYER
  5
31
330
1
100
AcDbSymbolTableRecord
100
AcDbLayerTableRecord
  2
AXIS
 70
0
 62
8
  6
OPTICAL
370
13
390
13
347
21
  0
LAYER
  5
32
330
1
100
AcDbSymbolTableRecord
100
AcDbLayerTableRecord
  2
CEMENT
 70
0
 62
7
  6
Continuous
370
13
390
13
347
21
  0
LAYER
  5
33
330
1
100
AcDbSymbolTableRecord
100
AcDbLayerTableRecord
  2
DIMS
 70
0
 62
7
  6
Continuous
370
13
390
13
347
21
  0
LAYER
  5
34
330
1
100
AcDbSymbolTableRecord
100
AcDbLayerTableRecord
  2
CALLOUT
 70
0
 62
7
  6
Continuous
370
13
390
13
347
21
  0
LAYER
  5
35
330
1
100
AcDbSymbolTableRecord
100
AcDbLayerTableRecord
  2
TABLE
 70
0
 62
7
  6
Continuous
370
13
390
13
347
21
  0
ENDTAB
  0
TABLE
  2
STYLE
  5
5
330
0
100
AcDbSymbolTable
 70
1
  0
STYLE
  5
29
330
5
100
AcDbSymbolTableRecord
100
AcDbTextStyleTableRecord
  2
Standard
 70
0
 40
0.0
 41
1.0
 50
0.0
 71
0
 42
2.5
  3
txt
  4

  0
ENDTAB
  0
TABLE
  2
VIEW
  5
7
330
0
100
AcDbSymbolTable
 70
0
  0
ENDTAB
  0
TABLE
  2
UCS
  5
6
330
0
100
AcDbSymbolTable
 70
0
  0
ENDTAB
  0
TABLE
  2
APPID
  5
3
330
0
100
AcDbSymbolTable
 70
3
  0
APPID
  5
2A
330
3
100
AcDbSymbolTableRecord
100
AcDbRegAppTableRecord
  2
ACAD
 70
0
  0
APPID
  5
A3
330
3
100
AcDbSymbolTableRecord
100
AcDbRegAppTableRecord
  2
HATCHBACKGROUNDCOLOR
 70
0
  0
APPID
  5
A4
330
3
100
AcDbSymbolTableRecord
100
AcDbRegAppTableRecord
  2
EZDXF
 70
0
  0
ENDTAB
  0
TABLE
  2
DIMSTYLE
  5
4
330
0
100
AcDbSymbolTable
 70
1
100
AcDbDimStyleTable
  0
DIMSTYLE
105
2B
330
4
100
AcDbSymbolTableRecord
100
AcDbDimStyleTableRecord
  2
Standard
 70
0
 40
1.0
 41
2.5
 42
0.625
 43
3.75
 44
1.25
 45
0.0
 46
0.0
 47
0.0
 48
0.0
 49
2.5
140
2.5
141
2.5
142
0.0
143
0.03937007874
144
1.0
145
0.0
146
1.0
147
0.625
148
0.0
 69
0
 70
0
 71
0
 72
0
 73
0
 74
0
 75
0
 76
0
 77
1
 78
8
 79
3
170
0
171
3
172
1
173
0
174
0
175
0
176
0
177
0
178
0
179
2
271
2
272
2
273
2
274
3
275
0
276
0
277
2
278
44
279
0
280
0
281
0
282
0
283
0
284
8
285
0
286
0
288
0
289
3
290
0
371
-2
372
-2
  0
ENDTAB
  0
TABLE
  2
BLOCK_RECORD
  5
9
330
0
100
AcDbSymbolTable
 70
2
  0
BLOCK_RECORD
  5
17
330
9
100
AcDbSymbolTableRecord
100
AcDbBlockTableRecord
  2
*Model_Space
340
1A
 70
0
280
1
281
0
  0
BLOCK_RECORD
  5
1B
330
9
100
AcDbSymbolTableRecord
100
AcDbBlockTableRecord
  2
*Paper_Space
340
1E
 70
0
280
1
281
0
  0
ENDTAB
  0
ENDSEC
  0
SECTION
  2
BLOCKS
  0
BLOCK
  5
18
330
17
100
AcDbEntity
  8
0
100
AcDbBlockBegin
  2
*Model_Space
 70
0
 10
0.0
 20
0.0
 30
0.0
  3
*Model_Space
  1

  0
ENDBLK
  5
19
330
17
100
AcDbEntity
  8
0
100
AcDbBlockEnd
  0
BLOCK
  5
1C
330
1B
100
AcDbEntity
  8
0
100
AcDbBlockBegin
  2
*Paper_Space
 70
0
 10
0.0
 20
0.0
 30
0.0
  3
*Paper_Space
  1

  0
ENDBLK
  5
1D
330
1B
100
AcDbEntity
  8
0
100
AcDbBlockEnd
  0
ENDSEC
  0
SECTION
  2
ENTITIES
  0
LWPOLYLINE
  5
37
330
17
100
AcDbEntity
  8
BORDER
100
AcDbPolyline
 90
4
 70
1
 10
0.0
 20
0.0
 10
210.0
 20
0.0
 10
210.0
 20
297.0
 10
0.0
 20
297.0
  0
LWPOLYLINE
  5
38
330
17
100
AcDbEntity
  8
BORDER
370
50
100
AcDbPolyline
 90
4
 70
1
 10
10.0
 20
10.0
 10
200.0
 20
10.0
 10
200.0
 20
287.0
 10
10.0
 20
287.0
  0
TEXT
  5
39
330
17
100
AcDbEntity
  8
BORDER
100
AcDbText
 10
12.0
 20
113.0
 30
0.0
 40
1.8
  1
Ang. nach ISO 10110; λ = 546.07 nm
100
AcDbText
 73
1
  0
TEXT
  5
3A
330
17
100
AcDbEntity
  8
BORDER
100
AcDbText
 10
12.0
 20
282.0
 30
0.0
 40
2.5
  1
f′ = 18.85 mm
100
AcDbText
 73
3
  0
LWPOLYLINE
  5
3B
330
17
100
AcDbEntity
  8
BORDER
100
AcDbPolyline
 90
4
 70
1
 10
10.0
 20
10.0
 10
200.0
 20
10.0
 10
200.0
 20
38.0
 10
10.0
 20
38.0
  0
LINE
  5
3C
330
17
100
AcDbEntity
  8
BORDER
100
AcDbLine
 10
10.0
 20
23.0
 30
0.0
 11
200.0
 21
23.0
 31
0.0
  0
LINE
  5
3D
330
17
100
AcDbEntity
  8
BORDER
100
AcDbLine
 10
74.60000000000001
 20
23.0
 30
0.0
 11
74.60000000000001
 21
38.0
 31
0.0
  0
LINE
  5
3E
330
17
100
AcDbEntity
  8
BORDER
100
AcDbLine
 10
101.20000000000002
 20
23.0
 30
0.0
 11
101.20000000000002
 21
38.0
 31
0.0
  0
LINE
  5
3F
330
17
100
AcDbEntity
  8
BORDER
100
AcDbLine
 10
127.80000000000001
 20
23.0
 30
0.0
 11
127.80000000000001
 21
38.0
 31
0.0
  0
LINE
  5
40
330
17
100
AcDbEntity
  8
BORDER
100
AcDbLine
 10
154.4
 20
23.0
 30
0.0
 11
154.4
 21
38.0
 31
0.0
  0
LINE
  5
41
330
17
100
AcDbEntity
  8
BORDER
100
AcDbLine
 10
177.20000000000002
 20
23.0
 30
0.0
 11
177.20000000000002
 21
38.0
 31
0.0
  0
LINE
  5
42
330
17
100
AcDbEntity
  8
BORDER
100
AcDbLine
 10
188.60000000000002
 20
23.0
 30
0.0
 11
188.60000000000002
 21
38.0
 31
0.0
  0
TEXT
  5
43
330
17
100
AcDbEntity
  8
BORDER
100
AcDbText
 10
42.300000000000004
 20
26.75
 30
0.0
 40
1.8
  1
ORGANISATION / PROJECT / PART NO.
 72
4
 11
42.300000000000004
 21
26.75
 31
0.0
100
AcDbText
 73
2
  0
TEXT
  5
44
330
17
100
AcDbEntity
  8
BORDER
100
AcDbText
 10
42.300000000000004
 20
33.5
 30
0.0
 40
2.5
  1
5-Element Photographic Objective   OPT-001
 72
4
 11
42.300000000000004
 21
33.5
 31
0.0
100
AcDbText
 73
2
  0
TEXT
  5
45
330
17
100
AcDbEntity
  8
BORDER
100
AcDbText
 10
87.9
 20
26.75
 30
0.0
 40
1.8
  1
DRAWN BY
 72
4
 11
87.9
 21
26.75
 31
0.0
100
AcDbText
 73
2
  0
TEXT
  5
46
330
17
100
AcDbEntity
  8
BORDER
100
AcDbText
 10
87.9
 20
33.5
 30
0.0
 40
2.5
  1
B. Lutzer
 72
4
 11
87.9
 21
33.5
 31
0.0
100
AcDbText
 73
2
  0
TEXT
  5
47
330
17
100
AcDbEntity
  8
BORDER
100
AcDbText
 10
114.50000000000001
 20
26.75
 30
0.0
 40
1.8
  1
APPROVED
 72
4
 11
114.50000000000001
 21
26.75
 31
0.0
100
AcDbText
 73
2
  0
TEXT
  5
48
330
17
100
AcDbEntity
  8
BORDER
100
AcDbText
 10
114.50000000000001
 20
33.5
 30
0.0
 40
2.5
  1
K. Harrison
 72
4
 11
114.50000000000001
 21
33.5
 31
0.0
100
AcDbText
 73
2
  0
TEXT
  5
49
330
17
100
AcDbEntity
  8
BORDER
100
AcDbText
 10
141.10000000000002
 20
26.75
 30
0.0
 40
1.8
  1
DATE
 72
4
 11
141.10000000000002
 21
26.75
 31
0.0
100
AcDbText
 73
2
  0
TEXT
  5
4A
330
17
100
AcDbEntity
  8
BORDER
100
AcDbText
 10
141.10000000000002
 20
33.5
 30
0.0
 40
2.5
  1
2026-07-26
 72
4
 11
141.10000000000002
 21
33.5
 31
0.0
100
AcDbText
 73
2
  0
TEXT
  5
4B
330
17
100
AcDbEntity
  8
BORDER
100
AcDbText
 10
165.8
 20
26.75
 30
0.0
 40
1.8
  1
SCALE
 72
4
 11
165.8
 21
26.75
 31
0.0
100
AcDbText
 73
2
  0
TEXT
  5
4C
330
17
100
AcDbEntity
  8
BORDER
100
AcDbText
 10
165.8
 20
33.5
 30
0.0
 40
2.5
  1
8:1
 72
4
 11
165.8
 21
33.5
 31
0.0
100
AcDbText
 73
2
  0
TEXT
  5
4D
330
17
100
AcDbEntity
  8
BORDER
100
AcDbText
 10
182.90000000000003
 20
26.75
 30
0.0
 40
1.8
  1
SHEET
 72
4
 11
182.90000000000003
 21
26.75
 31
0.0
100
AcDbText
 73
2
  0
TEXT
  5
4E
330
17
100
AcDbEntity
  8
BORDER
100
AcDbText
 10
182.90000000000003
 20
33.5
 30
0.0
 40
2.5
  1
1 / 5
 72
4
 11
182.90000000000003
 21
33.5
 31
0.0
100
AcDbText
 73
2
  0
TEXT
  5
4F
330
17
100
AcDbEntity
  8
BORDER
100
AcDbText
 10
194.3
 20
26.75
 30
0.0
 40
1.8
  1
REV
 72
4
 11
194.3
 21
26.75
 31
0.0
100
AcDbText
 73
2
  0
TEXT
  5
50
330
17
100
AcDbEntity
  8
BORDER
100
AcDbText
 10
194.3
 20
33.5
 30
0.0
 40
2.5
  1
A
 72
4
 11
194.3
 21
33.5
 31
0.0
100
AcDbText
 73
2
  0
LINE
  5
51
330
17
100
AcDbEntity
  8
BORDER
100
AcDbLine
 10
124.0
 20
10.0
 30
0.0
 11
124.0
 21
23.0
 31
0.0
  0
TEXT
  5
52
330
17
100
AcDbEntity
  8
BORDER
100
AcDbText
 10
12.0
 20
21.5
 30
0.0
 40
1.8
  1
NOTES
100
AcDbText
 73
3
  0
TEXT
  5
53
330
17
100
AcDbEntity
  8
BORDER
100
AcDbText
 10
146.8
 20
21.5
 30
0.0
 40
1.8
  1
DIM. IN mm
 72
4
 11
146.8
 21
21.5
 31
0.0
100
AcDbText
 73
3
  0
TEXT
  5
54
330
17
100
AcDbEntity
  8
BORDER
100
AcDbText
 10
146.8
 20
17.7
 30
0.0
 40
1.8
  1
GENERAL TOL. PER ISO 10110-11
 72
4
 11
146.8
 21
17.7
 31
0.0
100
AcDbText
 73
1
  0
TEXT
  5
55
330
17
100
AcDbEntity
  8
BORDER
100
AcDbText
 10
146.8
 20
15.3
 30
0.0
 40
1.8
  1
Ø±0.10  CT±0.15  3/ 5  4/ 3′  5/ 2×0.063
 72
4
 11
146.8
 21
15.3
 31
0.0
100
AcDbText
 73
3
  0
CIRCLE
  5
56
330
17
100
AcDbEntity
  8
BORDER
100
AcDbCircle
 10
180.61400000000003
 20
16.5
 30
0.0
 40
3.6400000000000006
  0
CIRCLE
  5
57
330
17
100
AcDbEntity
  8
BORDER
100
AcDbCircle
 10
180.61400000000003
 20
16.5
 30
0.0
 40
2.184
  0
LWPOLYLINE
  5
58
330
17
100
AcDbEntity
  8
BORDER
100
AcDbPolyline
 90
4
 70
1
 10
186.074
 20
20.14
 10
192.626
 20
18.684
 10
192.626
 20
14.315999999999999
 10
186.074
 20
12.86
  0
LINE
  5
59
330
17
100
AcDbEntity
  8
AXIS
100
AcDbLine
 10
175.88200000000003
 20
16.5
 30
0.0
 11
194.446
 21
16.5
 31
0.0
  0
LWPOLYLINE
  5
5A
330
17
100
AcDbEntity
  8
TABLE
100
AcDbPolyline
 90
4
 70
1
 10
10.0
 20
38.0
 10
200.0
 20
38.0
 10
200.0
 20
110.0
 10
10.0
 20
110.0
  0
LINE
  5
5B
330
17
100
AcDbEntity
  8
TABLE
100
AcDbLine
 10
73.33333333333334
 20
38.0
 30
0.0
 11
73.33333333333334
 21
110.0
 31
0.0
  0
LINE
  5
5C
330
17
100
AcDbEntity
  8
TABLE
100
AcDbLine
 10
136.66666666666669
 20
38.0
 30
0.0
 11
136.66666666666669
 21
110.0
 31
0.0
  0
LINE
  5
5D
330
17
100
AcDbEntity
  8
TABLE
100
AcDbLine
 10
10.0
 20
103.0
 30
0.0
 11
200.0
 21
103.0
 31
0.0
  0
TEXT
  5
5E
330
17
100
AcDbEntity
  8
TABLE
100
AcDbText
 10
41.66666666666667
 20
106.5
 30
0.0
 40
2.0
  1
SURFACE 1 (FRONT)
 72
4
 11
41.66666666666667
 21
106.5
 31
0.0
100
AcDbText
 73
2
  0
TEXT
  5
5F
330
17
100
AcDbEntity
  8
TABLE
100
AcDbText
 10
12.0
 20
101.0
 30
0.0
 40
2.0
  1
R +22.000 CX
100
AcDbText
 73
3
  0
TEXT
  5
60
330
17
100
AcDbEntity
  8
TABLE
100
AcDbText
 10
12.0
 20
94.5
 30
0.0
 40
2.0
  1
Øₑ 17.32
100
AcDbText
 73
3
  0
TEXT
  5
61
330
17
100
AcDbEntity
  8
TABLE
100
AcDbText
 10
12.0
 20
88.0
 30
0.0
 40
2.0
  1
3/ (0.5/0.25); λ=546.1 nm
100
AcDbText
 73
3
  0
TEXT
  5
62
330
17
100
AcDbEntity
  8
TABLE
100
AcDbText
 10
12.0
 20
81.5
 30
0.0
 40
2.0
  1
4/ 0.5′
100
AcDbText
 73
3
  0
TEXT
  5
63
330
17
100
AcDbEntity
  8
TABLE
100
AcDbText
 10
12.0
 20
75.0
 30
0.0
 40
2.0
  1
5/ 2×0.04
100
AcDbText
 73
3
  0
TEXT
  5
64
330
17
100
AcDbEntity
  8
TABLE
100
AcDbText
 10
12.0
 20
68.5
 30
0.0
 40
2.0
  1
6/ —
100
AcDbText
 73
3
  0
TEXT
  5
65
330
17
100
AcDbEntity
  8
TABLE
100
AcDbText
 10
12.0
 20
62.0
 30
0.0
 40
2.0
  1

100
AcDbText
 73
3
  0
TEXT
  5
66
330
17
100
AcDbEntity
  8
TABLE
100
AcDbText
 10
12.0
 20
55.5
 30
0.0
 40
2.0
  1
13/ —
100
AcDbText
 73
3
  0
CIRCLE
  5
67
330
17
100
AcDbEntity
  8
TABLE
100
AcDbCircle
 10
13.5
 20
60.5
 30
0.0
 40
1.5
  0
TEXT
  5
68
330
17
100
AcDbEntity
  8
TABLE
100
AcDbText
 10
13.5
 20
60.5
 30
0.0
 40
2.0999999999999996
  1
λ
 72
4
 11
13.5
 21
60.5
 31
0.0
100
AcDbText
 73
2
  0
TEXT
  5
69
330
17
100
AcDbEntity
  8
TABLE
100
AcDbText
 10
16.0
 20
60.5
 30
0.0
 40
2.0
  1
7/ —
100
AcDbText
 73
2
  0
TEXT
  5
6A
330
17
100
AcDbEntity
  8
TABLE
100
AcDbText
 10
168.33333333333334
 20
106.5
 30
0.0
 40
2.0
  1
SURFACE 2 (REAR)
 72
4
 11
168.33333333333334
 21
106.5
 31
0.0
100
AcDbText
 73
2
  0
TEXT
  5
6B
330
17
100
AcDbEntity
  8
TABLE
100
AcDbText
 10
138.66666666666669
 20
101.0
 30
0.0
 40
2.0
  1
R -95.000 CX
100
AcDbText
 73
3
  0
TEXT
  5
6C
330
17
100
AcDbEntity
  8
TABLE
100
AcDbText
 10
138.66666666666669
 20
94.5
 30
0.0
 40
2.0
  1
Øₑ 14.32
100
AcDbText
 73
3
  0
TEXT
  5
6D
330
17
100
AcDbEntity
  8
TABLE
100
AcDbText
 10
138.66666666666669
 20
88.0
 30
0.0
 40
2.0
  1
3/ (1); λ=546.1 nm
100
AcDbText
 73
3
  0
TEXT
  5
6E
330
17
100
AcDbEntity
  8
TABLE
100
AcDbText
 10
138.66666666666669
 20
81.5
 30
0.0
 40
2.0
  1
4/ 0.5′
100
AcDbText
 73
3
  0
TEXT
  5
6F
330
17
100
AcDbEntity
  8
TABLE
100
AcDbText
 10
138.66666666666669
 20
75.0
 30
0.0
 40
2.0
  1
5/ 2×0.063
100
AcDbText
 73
3
  0
TEXT
  5
70
330
17
100
AcDbEntity
  8
TABLE
100
AcDbText
 10
138.66666666666669
 20
68.5
 30
0.0
 40
2.0
  1
6/ —
100
AcDbText
 73
3
  0
TEXT
  5
71
330
17
100
AcDbEntity
  8
TABLE
100
AcDbText
 10
138.66666666666669
 20
62.0
 30
0.0
 40
2.0
  1

100
AcDbText
 73
3
  0
TEXT
  5
72
330
17
100
AcDbEntity
  8
TABLE
100
AcDbText
 10
138.66666666666669
 20
55.5
 30
0.0
 40
2.0
  1
13/ —
100
AcDbText
 73
3
  0
CIRCLE
  5
73
330
17
100
AcDbEntity
  8
TABLE
100
AcDbCircle
 10
140.16666666666669
 20
60.5
 30
0.0
 40
1.5
  0
TEXT
  5
74
330
17
100
AcDbEntity
  8
TABLE
100
AcDbText
 10
140.16666666666669
 20
60.5
 30
0.0
 40
2.0999999999999996
  1
λ
 72
4
 11
140.16666666666669
 21
60.5
 31
0.0
100
AcDbText
 73
2
  0
TEXT
  5
75
330
17
100
AcDbEntity
  8
TABLE
100
AcDbText
 10
142.66666666666669
 20
60.5
 30
0.0
 40
2.0
  1
7/ —
100
AcDbText
 73
2
  0
TEXT
  5
76
330
17
100
AcDbEntity
  8
TABLE
100
AcDbText
 10
105.0
 20
106.5
 30
0.0
 40
2.0
  1
MATERIAL
 72
4
 11
105.0
 21
106.5
 31
0.0
100
AcDbText
 73
2
  0
TEXT
  5
77
330
17
100
AcDbEntity
  8
TABLE
100
AcDbText
 10
75.33333333333334
 20
101.0
 30
0.0
 40
2.0
  1
N-BK7 (SCHOTT)
100
AcDbText
 73
3
  0
TEXT
  5
78
330
17
100
AcDbEntity
  8
TABLE
100
AcDbText
 10
75.33333333333334
 20
94.5
 30
0.0
 40
2.0
  1
nd = 1.5168  (587.6 nm)
100
AcDbText
 73
3
  0
TEXT
  5
79
330
17
100
AcDbEntity
  8
TABLE
100
AcDbText
 10
75.33333333333334
 20
88.0
 30
0.0
 40
2.0
  1
νd = 64.17  (587.6 nm)
100
AcDbText
 73
3
  0
TEXT
  5
7A
330
17
100
AcDbEntity
  8
TABLE
100
AcDbText
 10
75.33333333333334
 20
81.5
 30
0.0
 40
2.0
  1
0/ 10 nm/cm
100
AcDbText
 73
3
  0
TEXT
  5
7B
330
17
100
AcDbEntity
  8
TABLE
100
AcDbText
 10
75.33333333333334
 20
75.0
 30
0.0
 40
2.0
  1
1/ 1×0.16
100
AcDbText
 73
3
  0
TEXT
  5
7C
330
17
100
AcDbEntity
  8
TABLE
100
AcDbText
 10
75.33333333333334
 20
68.5
 30
0.0
 40
2.0
  1
2/ NH010; A
100
AcDbText
 73
3
  0
LINE
  5
7D
330
17
100
AcDbEntity
  8
AXIS
100
AcDbLine
 10
66.00019942577825
 20
198.5
 30
0.0
 11
143.99980057422175
 21
198.5
 31
0.0
  0
TEXT
  5
7E
330
17
100
AcDbEntity
  8
AXIS
100
AcDbText
 10
65.00019942577825
 20
198.5
 30
0.0
 40
2.0
  1
opt./rot. axis
 72
2
 11
65.00019942577825
 21
198.5
 31
0.0
100
AcDbText
 73
2
  0
LWPOLYLINE
  5
7F
330
17
100
AcDbEntity
  8
OUTLINE
370
50
100
AcDbPolyline
 90
402
 70
1
 10
95.21096489611573
 20
129.21540560257046
 10
94.91453907943509
 20
129.91173318445414
 10
94.62164042399927
 20
130.60806076633787
 10
94.33224987682883
 20
131.30438834822158
 10
94.04634874768286
 20
132.0007159301053
 10
93.76391870183744
 20
132.69704351198902
 10
93.48494175307499
 20
133.39337109387273
 10
93.20940025687756
 20
134.08969867575644
 10
92.93727690381725
 20
134.78602625764015
 10
92.66855471313715
 20
135.48235383952385
 10
92.40321702651676
 20
136.1786814214076
 10
92.14124750201547
 20
136.8750090032913
 10
91.88263010818889
 20
137.571336585175
 10
91.62734911837191
 20
138.26766416705874
 10
91.37538910512353
 20
138.96399174894245
 10
91.12673493482829
 20
139.66031933082616
 10
90.88137176244928
 20
140.35664691270986
 10
90.63928502642796
 20
141.05297449459357
 10
90.40046044372654
 20
141.7493020764773
 10
90.16488400500813
 20
142.445629658361
 10
89.93254196995078
 20
143.14195724024472
 10
89.70342086269117
 20
143.83828482212843
 10
89.47750746739426
 20
144.53461240401214
 10
89.25478882394479
 20
145.23093998589587
 10
89.03525222375754
 20
145.92726756777958
 10
88.81888520570233
 20
146.6235951496633
 10
88.60567555214087
 20
147.31992273154702
 10
88.39561128507191
 20
148.01625031343073
 10
88.1886806623818
 20
148.71257789531444
 10
87.98487217419742
 20
149.40890547719815
 10
87.78417453933841
 20
150.10523305908185
 10
87.58657670186636
 20
150.8015606409656
 10
87.39206782772779
 20
151.4978882228493
 10
87.20063730148863
 20
152.194215804733
 10
87.01227472315776
 20
152.89054338661674
 10
86.82696990509695
 20
153.58687096850042
 10
86.64471286901522
 20
154.28319855038416
 10
86.4654938430451
 20
154.97952613226786
 10
86.28930325889881
 20
155.67585371415157
 10
86.11613174910228
 20
156.3721812960353
 10
85.945970144305
 20
157.06850887791902
 10
85.7788094706636
 20
157.76483645980272
 10
85.61464094729779
 20
158.46116404168643
 10
85.45345598381611
 20
159.15749162357014
 10
85.29524617791058
 20
159.85381920545387
 10
85.14000331301794
 20
160.55014678733758
 10
84.98771935604628
 20
161.2464743692213
 10
84.83838645516518
 20
161.942801951105
 10
84.69199693765826
 20
162.6391295329887
 10
84.54854330783625
 20
163.33545711487244
 10
84.40801824500959
 20
164.03178469675615
 10
84.27041460151885
 20
164.72811227863986
 10
84.13572540082205
 20
165.4244398605236
 10
84.00394383563732
 20
166.1207674424073
 10
83.87506326613976
 20
166.817095024291
 10
83.74907721821155
 20
167.51342260617471
 10
83.62597938174389
 20
168.20975018805842
 10
83.50576360898987
 20
168.90607776994216
 10
83.38842391296716
 20
169.60240535182587
 10
83.27395446590961
 20
170.29873293370957
 10
83.16234959776662
 20
170.99506051559328
 10
83.05360379474952
 20
171.691388097477
 10
82.94771169792392
 20
172.38771567936072
 10
82.84466810184733
 20
173.08404326124443
 10
82.74446795325106
 20
173.78037084312814
 10
82.64710634976562
 20
174.47669842501188
 10
82.55257853868902
 20
175.17302600689558
 10
82.46087991579694
 20
175.8693535887793
 10
82.37200602419435
 20
176.565681170663
 10
82.28595255320774
 20
177.2620087525467
 10
82.2027153373172
 20
177.95833633443044
 10
82.12229035512809
 20
178.65466391631415
 10
82.04467372838116
 20
179.35099149819786
 10
81.96986172100112
 20
180.04731908008156
 10
81.89785073818264
 20
180.74364666196527
 10
81.82863732551347
 20
181.439974243849
 10
81.76221816813413
 20
182.13630182573272
 10
81.69859008993377
 20
182.83262940761642
 10
81.63775005278158
 20
183.52895698950016
 10
81.57969515579337
 20
184.22528457138387
 10
81.52442263463301
 20
184.92161215326757
 10
81.47192986084815
 20
185.61793973515128
 10
81.42221434124004
 20
186.314267317035
 10
81.37527371726696
 20
187.01059489891873
 10
81.33110576448088
 20
187.70692248080243
 10
81.28970839199725
 20
188.40325006268614
 10
81.25107964199739
 20
189.09957764456985
 10
81.21521768926333
 20
189.79590522645356
 10
81.1821208407448
 20
190.4922328083373
 10
81.15178753515819
 20
191.188560390221
 10
81.12421634261713
 20
191.8848879721047
 10
81.09940596429463
 20
192.58121555398844
 10
81.07735523211646
 20
193.27754313587212
 10
81.05806310848575
 20
193.97387071775586
 10
81.04152868603849
 20
194.67019829963957
 10
81.02775118742994
 20
195.36652588152327
 10
81.01672996515174
 20
196.062853463407
 10
81.00846450137969
 20
196.75918104529072
 10
81.00295440785203
 20
197.45550862717442
 10
81.00019942577825
 20
198.15183620905816
 10
81.00019942577825
 20
198.84816379094184
 10
81.00295440785203
 20
199.54449137282558
 10
81.00846450137969
 20
200.24081895470928
 10
81.01672996515174
 20
200.937146536593
 10
81.02775118742994
 20
201.63347411847673
 10
81.04152868603849
 20
202.3298017003604
 10
81.05806310848575
 20
203.02612928224414
 10
81.07735523211646
 20
203.72245686412785
 10
81.09940596429463
 20
204.41878444601156
 10
81.12421634261713
 20
205.1151120278953
 10
81.15178753515819
 20
205.811439609779
 10
81.1821208407448
 20
206.5077671916627
 10
81.21521768926333
 20
207.20409477354644
 10
81.25107964199739
 20
207.90042235543012
 10
81.28970839199725
 20
208.59674993731386
 10
81.33110576448088
 20
209.29307751919757
 10
81.37527371726696
 20
209.98940510108127
 10
81.42221434124004
 20
210.685732682965
 10
81.47192986084815
 20
211.3820602648487
 10
81.52442263463301
 20
212.07838784673243
 10
81.57969515579337
 20
212.77471542861613
 10
81.63775005278158
 20
213.47104301049984
 10
81.69859008993377
 20
214.16737059238358
 10
81.76221816813413
 20
214.86369817426728
 10
81.82863732551345
 20
215.560025756151
 10
81.89785073818264
 20
216.25635333803473
 10
81.96986172100112
 20
216.9526809199184
 10
82.04467372838116
 20
217.64900850180214
 10
82.12229035512809
 20
218.34533608368585
 10
82.2027153373172
 20
219.04166366556956
 10
82.28595255320774
 20
219.7379912474533
 10
82.37200602419435
 20
220.43431882933697
 10
82.46087991579694
 20
221.1306464112207
 10
82.55257853868902
 20
221.82697399310442
 10
82.64710634976562
 20
222.52330157498812
 10
82.74446795325106
 20
223.21962915687186
 10
82.84466810184733
 20
223.91595673875557
 10
82.94771169792392
 20
224.61228432063928
 10
83.05360379474952
 20
225.308611902523
 10
83.16234959776662
 20
226.0049394844067
 10
83.27395446590961
 20
226.70126706629043
 10
83.38842391296716
 20
227.39759464817413
 10
83.50576360898987
 20
228.09392223005784
 10
83.62597938174389
 20
228.79024981194158
 10
83.74907721821155
 20
229.48657739382526
 10
83.87506326613976
 20
230.182904975709
 10
84.00394383563732
 20
230.8792325575927
 10
84.13572540082205
 20
231.5755601394764
 10
84.27041460151884
 20
232.27188772136014
 10
84.40801824500959
 20
232.96821530324385
 10
84.54854330783625
 20
233.66454288512756
 10
84.69199693765826
 20
234.3608704670113
 10
84.83838645516518
 20
235.05719804889497
 10
84.98771935604628
 20
235.7535256307787
 10
85.14000331301794
 20
236.44985321266242
 10
85.29524617791057
 20
237.14618079454613
 10
85.45345598381611
 20
237.84250837642986
 10
85.61464094729779
 20
238.53883595831354
 10
85.7788094706636
 20
239.23516354019728
 10
85.945970144305
 20
239.93149112208098
 10
86.11613174910228
 20
240.6278187039647
 10
86.28930325889881
 20
241.32414628584843
 10
86.4654938430451
 20
242.02047386773214
 10
86.64471286901522
 20
242.71680144961584
 10
86.82696990509695
 20
243.41312903149958
 10
87.01227472315776
 20
244.10945661338326
 10
87.20063730148863
 20
244.805784195267
 10
87.39206782772779
 20
245.5021117771507
 10
87.58657670186636
 20
246.1984393590344
 10
87.78417453933841
 20
246.89476694091815
 10
87.9848721741974
 20
247.59109452280182
 10
88.1886806623818
 20
248.28742210468556
 10
88.39561128507191
 20
248.98374968656927
 10
88.60567555214087
 20
249.68007726845298
 10
88.81888520570233
 20
250.3764048503367
 10
89.03525222375754
 20
251.07273243222042
 10
89.25478882394479
 20
251.76906001410413
 10
89.47750746739426
 20
252.46538759598786
 10
89.70342086269117
 20
253.16171517787154
 10
89.93254196995078
 20
253.85804275975528
 10
90.16488400500813
 20
254.554370341639
 10
90.40046044372654
 20
255.2506979235227
 10
90.63928502642796
 20
255.94702550540643
 10
90.88137176244926
 20
256.6433530872901
 10
91.12673493482829
 20
257.33968066917384
 10
91.37538910512353
 20
258.0360082510576
 10
91.62734911837191
 20
258.73233583294126
 10
91.88263010818889
 20
259.428663414825
 10
92.14124750201546
 20
260.1249909967087
 10
92.40321702651676
 20
260.8213185785924
 10
92.66855471313715
 20
261.51764616047615
 10
92.93727690381724
 20
262.2139737423598
 10
93.20940025687756
 20
262.91030132424356
 10
93.48494175307498
 20
263.60662890612724
 10
93.76391870183744
 20
264.302956488011
 10
94.04634874768286
 20
264.9992840698947
 10
94.33224987682883
 20
265.6956116517784
 10
94.62164042399927
 20
266.39193923366213
 10
94.91453907943509
 20
267.08826681554586
 10
95.21096489611573
 20
267.78459439742954
 10
125.83513765008018
 20
267.78459439742954
 10
125.83513765008018
 20
267.78459439742954
 10
125.89856007227695
 20
267.08826681554586
 10
125.96133663030724
 20
266.39193923366213
 10
126.02346748484685
 20
265.6956116517784
 10
126.08495279486647
 20
264.9992840698947
 10
126.1457927176337
 20
264.302956488011
 10
126.20598740871503
 20
263.60662890612724
 10
126.26553702197799
 20
262.91030132424356
 10
126.32444170959297
 20
262.2139737423598
 10
126.38270162203533
 20
261.51764616047615
 10
126.44031690808721
 20
260.8213185785924
 10
126.49728771483956
 20
260.1249909967087
 10
126.55361418769394
 20
259.428663414825
 10
126.60929647036448
 20
258.73233583294126
 10
126.66433470487968
 20
258.0360082510576
 10
126.71872903158422
 20
257.33968066917384
 10
126.77247958914077
 20
256.6433530872901
 10
126.82558651453184
 20
255.94702550540643
 10
126.87804994306146
 20
255.2506979235227
 10
126.92987000835694
 20
254.554370341639
 10
126.98104684237062
 20
253.85804275975528
 10
127.03158057538147
 20
253.16171517787154
 10
127.0814713359969
 20
252.46538759598786
 10
127.13071925115426
 20
251.76906001410413
 10
127.17932444612258
 20
251.07273243222042
 10
127.22728704450412
 20
250.3764048503367
 10
127.27460716823593
 20
249.68007726845298
 10
127.3212849375915
 20
248.98374968656927
 10
127.36732047118218
 20
248.28742210468556
 10
127.4127138859588
 20
247.59109452280182
 10
127.45746529721309
 20
246.89476694091815
 10
127.50157481857919
 20
246.1984393590344
 10
127.54504256203509
 20
245.5021117771507
 10
127.58786863790407
 20
244.805784195267
 10
127.63005315485609
 20
244.10945661338326
 10
127.67159621990916
 20
243.41312903149958
 10
127.7124979384308
 20
242.71680144961584
 10
127.75275841413924
 20
242.02047386773214
 10
127.79237774910482
 20
241.32414628584843
 10
127.8313560437513
 20
240.6278187039647
 10
127.86969339685714
 20
239.93149112208098
 10
127.9073899055567
 20
239.23516354019728
 10
127.94444566534152
 20
238.53883595831354
 10
127.98086077006153
 20
237.84250837642986
 10
128.01663531192622
 20
237.14618079454613
 10
128.0517693815059
 20
236.44985321266242
 10
128.08626306773266
 20
235.7535256307787
 10
128.12011645790173
 20
235.05719804889497
 10
128.15332963767244
 20
234.3608704670113
 10
128.18590269106934
 20
233.66454288512756
 10
128.21783570048328
 20
232.96821530324385
 10
128.24912874667243
 20
232.27188772136014
 10
128.27978190876334
 20
231.5755601394764
 10
128.30979526425193
 20
230.8792325575927
 10
128.3391688890044
 20
230.182904975709
 10
128.3679028572584
 20
229.48657739382526
 10
128.39599724162366
 20
228.79024981194158
 10
128.42345211308321
 20
228.09392223005784
 10
128.45026754099405
 20
227.39759464817413
 10
128.4764435930882
 20
226.70126706629043
 10
128.5019803354734
 20
226.0049394844067
 10
128.52687783263414
 20
225.308611902523
 10
128.55113614743223
 20
224.61228432063928
 10
128.57475534110785
 20
223.91595673875557
 10
128.5977354732801
 20
223.21962915687186
 10
128.62007660194791
 20
222.52330157498812
 10
128.64177878349074
 20
221.82697399310442
 10
128.6628420726692
 20
221.1306464112207
 10
128.6832665226259
 20
220.43431882933697
 10
128.70305218488593
 20
219.7379912474533
 10
128.72219910935772
 20
219.04166366556956
 10
128.7407073443335
 20
218.34533608368585
 10
128.75857693649
 20
217.64900850180214
 10
128.77580793088896
 20
216.9526809199184
 10
128.79240037097787
 20
216.25635333803473
 10
128.80835429859027
 20
215.560025756151
 10
128.8236697539465
 20
214.86369817426728
 10
128.83834677565403
 20
214.16737059238358
 10
128.85238540070813
 20
213.47104301049984
 10
128.8657856644922
 20
212.77471542861613
 10
128.87854760077818
 20
212.07838784673243
 10
128.8906712417272
 20
211.3820602648487
 10
128.90215661788972
 20
210.685732682965
 10
128.91300375820603
 20
209.98940510108127
 10
128.9232126900067
 20
209.29307751919757
 10
128.93278343901275
 20
208.59674993731386
 10
128.94171602933616
 20
207.90042235543012
 10
128.95001048347996
 20
207.20409477354644
 10
128.95766682233875
 20
206.5077671916627
 10
128.96468506519878
 20
205.811439609779
 10
128.97106522973826
 20
205.1151120278953
 10
128.9768073320276
 20
204.41878444601156
 10
128.98191138652953
 20
203.72245686412785
 10
128.98637740609948
 20
203.02612928224414
 10
128.9902054019855
 20
202.3298017003604
 10
128.9933953838285
 20
201.63347411847673
 10
128.99594735966247
 20
200.937146536593
 10
128.99786133591437
 20
200.24081895470928
 10
128.99913731740446
 20
199.54449137282558
 10
128.99977530734617
 20
198.84816379094184
 10
128.99977530734617
 20
198.15183620905816
 10
128.99913731740446
 20
197.45550862717442
 10
128.99786133591437
 20
196.75918104529072
 10
128.99594735966247
 20
196.062853463407
 10
128.9933953838285
 20
195.36652588152327
 10
128.9902054019855
 20
194.67019829963957
 10
128.98637740609948
 20
193.97387071775586
 10
128.98191138652953
 20
193.27754313587212
 10
128.9768073320276
 20
192.58121555398844
 10
128.97106522973826
 20
191.8848879721047
 10
128.96468506519878
 20
191.188560390221
 10
128.95766682233875
 20
190.4922328083373
 10
128.95001048347996
 20
189.79590522645356
 10
128.94171602933613
 20
189.09957764456985
 10
128.93278343901275
 20
188.40325006268614
 10
128.9232126900067
 20
187.70692248080243
 10
128.91300375820603
 20
187.01059489891873
 10
128.90215661788972
 20
186.314267317035
 10
128.8906712417272
 20
185.61793973515128
 10
128.87854760077818
 20
184.92161215326757
 10
128.8657856644922
 20
184.22528457138387
 10
128.85238540070813
 20
183.52895698950016
 10
128.83834677565403
 20
182.83262940761642
 10
128.8236697539465
 20
182.13630182573272
 10
128.80835429859027
 20
181.439974243849
 10
128.79240037097787
 20
180.74364666196527
 10
128.77580793088896
 20
180.04731908008156
 10
128.75857693649
 20
179.35099149819786
 10
128.7407073443335
 20
178.65466391631415
 10
128.72219910935772
 20
177.95833633443044
 10
128.70305218488593
 20
177.2620087525467
 10
128.6832665226259
 20
176.565681170663
 10
128.6628420726692
 20
175.8693535887793
 10
128.64177878349074
 20
175.17302600689558
 10
128.62007660194791
 20
174.47669842501188
 10
128.5977354732801
 20
173.78037084312814
 10
128.57475534110785
 20
173.08404326124443
 10
128.55113614743223
 20
172.38771567936072
 10
128.52687783263414
 20
171.691388097477
 10
128.5019803354734
 20
170.99506051559328
 10
128.4764435930882
 20
170.29873293370957
 10
128.45026754099405
 20
169.60240535182587
 10
128.42345211308321
 20
168.90607776994216
 10
128.39599724162366
 20
168.20975018805842
 10
128.3679028572584
 20
167.51342260617471
 10
128.3391688890044
 20
166.817095024291
 10
128.30979526425193
 20
166.1207674424073
 10
128.27978190876334
 20
165.4244398605236
 10
128.24912874667243
 20
164.72811227863986
 10
128.21783570048328
 20
164.03178469675615
 10
128.18590269106934
 20
163.33545711487244
 10
128.15332963767244
 20
162.6391295329887
 10
128.12011645790173
 20
161.942801951105
 10
128.08626306773266
 20
161.2464743692213
 10
128.0517693815059
 20
160.55014678733758
 10
128.01663531192622
 20
159.85381920545387
 10
127.98086077006153
 20
159.15749162357014
 10
127.94444566534152
 20
158.46116404168643
 10
127.9073899055567
 20
157.76483645980272
 10
127.86969339685714
 20
157.06850887791902
 10
127.8313560437513
 20
156.3721812960353
 10
127.79237774910482
 20
155.67585371415157
 10
127.75275841413924
 20
154.97952613226786
 10
127.7124979384308
 20
154.28319855038416
 10
127.67159621990916
 20
153.58687096850042
 10
127.63005315485609
 20
152.89054338661674
 10
127.58786863790407
 20
152.194215804733
 10
127.54504256203509
 20
151.4978882228493
 10
127.50157481857919
 20
150.8015606409656
 10
127.45746529721309
 20
150.10523305908185
 10
127.4127138859588
 20
149.40890547719815
 10
127.36732047118218
 20
148.71257789531444
 10
127.3212849375915
 20
148.01625031343073
 10
127.27460716823593
 20
147.31992273154702
 10
127.22728704450412
 20
146.6235951496633
 10
127.17932444612258
 20
145.92726756777958
 10
127.13071925115426
 20
145.23093998589587
 10
127.0814713359969
 20
144.53461240401214
 10
127.03158057538147
 20
143.83828482212843
 10
126.98104684237062
 20
143.14195724024472
 10
126.92987000835694
 20
142.445629658361
 10
126.87804994306146
 20
141.7493020764773
 10
126.82558651453184
 20
141.05297449459357
 10
126.77247958914077
 20
140.35664691270986
 10
126.71872903158422
 20
139.66031933082616
 10
126.66433470487968
 20
138.96399174894245
 10
126.60929647036448
 20
138.26766416705874
 10
126.55361418769394
 20
137.571336585175
 10
126.49728771483956
 20
136.8750090032913
 10
126.44031690808721
 20
136.1786814214076
 10
126.38270162203533
 20
135.48235383952385
 10
126.32444170959297
 20
134.78602625764015
 10
126.26553702197799
 20
134.08969867575644
 10
126.20598740871503
 20
133.39337109387273
 10
126.1457927176337
 20
132.69704351198902
 10
126.08495279486647
 20
132.0007159301053
 10
126.02346748484685
 20
131.30438834822158
 10
125.96133663030723
 20
130.60806076633787
 10
125.89856007227695
 20
129.91173318445414
 10
125.83513765008018
 20
129.21540560257046
 10
95.21096489611573
 20
129.21540560257046
  0
HATCH
  5
80
330
17
100
AcDbEntity
  8
OUTLINE
 62
7
100
AcDbHatch
 10
0.0
 20
0.0
 30
0.0
210
0.0
220
0.0
230
1.0
  2
ANSI31
 70
0
 71
0
 91
1
 92
3
 72
0
 73
1
 93
402
 10
95.21096489611573
 20
129.21540560257046
 10
94.91453907943509
 20
129.91173318445414
 10
94.62164042399927
 20
130.60806076633787
 10
94.33224987682883
 20
131.30438834822158
 10
94.04634874768286
 20
132.0007159301053
 10
93.76391870183744
 20
132.69704351198902
 10
93.48494175307499
 20
133.39337109387273
 10
93.20940025687756
 20
134.08969867575644
 10
92.93727690381725
 20
134.78602625764015
 10
92.66855471313715
 20
135.48235383952385
 10
92.40321702651676
 20
136.1786814214076
 10
92.14124750201547
 20
136.8750090032913
 10
91.88263010818889
 20
137.571336585175
 10
91.62734911837191
 20
138.26766416705874
 10
91.37538910512353
 20
138.96399174894245
 10
91.12673493482829
 20
139.66031933082616
 10
90.88137176244928
 20
140.35664691270986
 10
90.63928502642796
 20
141.05297449459357
 10
90.40046044372654
 20
141.7493020764773
 10
90.16488400500813
 20
142.445629658361
 10
89.93254196995078
 20
143.14195724024472
 10
89.70342086269117
 20
143.83828482212843
 10
89.47750746739426
 20
144.53461240401214
 10
89.25478882394479
 20
145.23093998589587
 10
89.03525222375754
 20
145.92726756777958
 10
88.81888520570233
 20
146.6235951496633
 10
88.60567555214087
 20
147.31992273154702
 10
88.39561128507191
 20
148.01625031343073
 10
88.1886806623818
 20
148.71257789531444
 10
87.98487217419742
 20
149.40890547719815
 10
87.78417453933841
 20
150.10523305908185
 10
87.58657670186636
 20
150.8015606409656
 10
87.39206782772779
 20
151.4978882228493
 10
87.20063730148863
 20
152.194215804733
 10
87.01227472315776
 20
152.89054338661674
 10
86.82696990509695
 20
153.58687096850042
 10
86.64471286901522
 20
154.28319855038416
 10
86.4654938430451
 20
154.97952613226786
 10
86.28930325889881
 20
155.67585371415157
 10
86.11613174910228
 20
156.3721812960353
 10
85.945970144305
 20
157.06850887791902
 10
85.7788094706636
 20
157.76483645980272
 10
85.61464094729779
 20
158.46116404168643
 10
85.45345598381611
 20
159.15749162357014
 10
85.29524617791058
 20
159.85381920545387
 10
85.14000331301794
 20
160.55014678733758
 10
84.98771935604628
 20
161.2464743692213
 10
84.83838645516518
 20
161.942801951105
 10
84.69199693765826
 20
162.6391295329887
 10
84.54854330783625
 20
163.33545711487244
 10
84.40801824500959
 20
164.03178469675615
 10
84.27041460151885
 20
164.72811227863986
 10
84.13572540082205
 20
165.4244398605236
 10
84.00394383563732
 20
166.1207674424073
 10
83.87506326613976
 20
166.817095024291
 10
83.74907721821155
 20
167.51342260617471
 10
83.62597938174389
 20
168.20975018805842
 10
83.50576360898987
 20
168.90607776994216
 10
83.38842391296716
 20
169.60240535182587
 10
83.27395446590961
 20
170.29873293370957
 10
83.16234959776662
 20
170.99506051559328
 10
83.05360379474952
 20
171.691388097477
 10
82.94771169792392
 20
172.38771567936072
 10
82.84466810184733
 20
173.08404326124443
 10
82.74446795325106
 20
173.78037084312814
 10
82.64710634976562
 20
174.47669842501188
 10
82.55257853868902
 20
175.17302600689558
 10
82.46087991579694
 20
175.8693535887793
 10
82.37200602419435
 20
176.565681170663
 10
82.28595255320774
 20
177.2620087525467
 10
82.2027153373172
 20
177.95833633443044
 10
82.12229035512809
 20
178.65466391631415
 10
82.04467372838116
 20
179.35099149819786
 10
81.96986172100112
 20
180.04731908008156
 10
81.89785073818264
 20
180.74364666196527
 10
81.82863732551347
 20
181.439974243849
 10
81.76221816813413
 20
182.13630182573272
 10
81.69859008993377
 20
182.83262940761642
 10
81.63775005278158
 20
183.52895698950016
 10
81.57969515579337
 20
184.22528457138387
 10
81.52442263463301
 20
184.92161215326757
 10
81.47192986084815
 20
185.61793973515128
 10
81.42221434124004
 20
186.314267317035
 10
81.37527371726696
 20
187.01059489891873
 10
81.33110576448088
 20
187.70692248080243
 10
81.28970839199725
 20
188.40325006268614
 10
81.25107964199739
 20
189.09957764456985
 10
81.21521768926333
 20
189.79590522645356
 10
81.1821208407448
 20
190.4922328083373
 10
81.15178753515819
 20
191.188560390221
 10
81.12421634261713
 20
191.8848879721047
 10
81.09940596429463
 20
192.58121555398844
 10
81.07735523211646
 20
193.27754313587212
 10
81.05806310848575
 20
193.97387071775586
 10
81.04152868603849
 20
194.67019829963957
 10
81.02775118742994
 20
195.36652588152327
 10
81.01672996515174
 20
196.062853463407
 10
81.00846450137969
 20
196.75918104529072
 10
81.00295440785203
 20
197.45550862717442
 10
81.00019942577825
 20
198.15183620905816
 10
81.00019942577825
 20
198.84816379094184
 10
81.00295440785203
 20
199.54449137282558
 10
81.00846450137969
 20
200.24081895470928
 10
81.01672996515174
 20
200.937146536593
 10
81.02775118742994
 20
201.63347411847673
 10
81.04152868603849
 20
202.3298017003604
 10
81.05806310848575
 20
203.02612928224414
 10
81.07735523211646
 20
203.72245686412785
 10
81.09940596429463
 20
204.41878444601156
 10
81.12421634261713
 20
205.1151120278953
 10
81.15178753515819
 20
205.811439609779
 10
81.1821208407448
 20
206.5077671916627
 10
81.21521768926333
 20
207.20409477354644
 10
81.25107964199739
 20
207.90042235543012
 10
81.28970839199725
 20
208.59674993731386
 10
81.33110576448088
 20
209.29307751919757
 10
81.37527371726696
 20
209.98940510108127
 10
81.42221434124004
 20
210.685732682965
 10
81.47192986084815
 20
211.3820602648487
 10
81.52442263463301
 20
212.07838784673243
 10
81.57969515579337
 20
212.77471542861613
 10
81.63775005278158
 20
213.47104301049984
 10
81.69859008993377
 20
214.16737059238358
 10
81.76221816813413
 20
214.86369817426728
 10
81.82863732551345
 20
215.560025756151
 10
81.89785073818264
 20
216.25635333803473
 10
81.96986172100112
 20
216.9526809199184
 10
82.04467372838116
 20
217.64900850180214
 10
82.12229035512809
 20
218.34533608368585
 10
82.2027153373172
 20
219.04166366556956
 10
82.28595255320774
 20
219.7379912474533
 10
82.37200602419435
 20
220.43431882933697
 10
82.46087991579694
 20
221.1306464112207
 10
82.55257853868902
 20
221.82697399310442
 10
82.64710634976562
 20
222.52330157498812
 10
82.74446795325106
 20
223.21962915687186
 10
82.84466810184733
 20
223.91595673875557
 10
82.94771169792392
 20
224.61228432063928
 10
83.05360379474952
 20
225.308611902523
 10
83.16234959776662
 20
226.0049394844067
 10
83.27395446590961
 20
226.70126706629043
 10
83.38842391296716
 20
227.39759464817413
 10
83.50576360898987
 20
228.09392223005784
 10
83.62597938174389
 20
228.79024981194158
 10
83.74907721821155
 20
229.48657739382526
 10
83.87506326613976
 20
230.182904975709
 10
84.00394383563732
 20
230.8792325575927
 10
84.13572540082205
 20
231.5755601394764
 10
84.27041460151884
 20
232.27188772136014
 10
84.40801824500959
 20
232.96821530324385
 10
84.54854330783625
 20
233.66454288512756
 10
84.69199693765826
 20
234.3608704670113
 10
84.83838645516518
 20
235.05719804889497
 10
84.98771935604628
 20
235.7535256307787
 10
85.14000331301794
 20
236.44985321266242
 10
85.29524617791057
 20
237.14618079454613
 10
85.45345598381611
 20
237.84250837642986
 10
85.61464094729779
 20
238.53883595831354
 10
85.7788094706636
 20
239.23516354019728
 10
85.945970144305
 20
239.93149112208098
 10
86.11613174910228
 20
240.6278187039647
 10
86.28930325889881
 20
241.32414628584843
 10
86.4654938430451
 20
242.02047386773214
 10
86.64471286901522
 20
242.71680144961584
 10
86.82696990509695
 20
243.41312903149958
 10
87.01227472315776
 20
244.10945661338326
 10
87.20063730148863
 20
244.805784195267
 10
87.39206782772779
 20
245.5021117771507
 10
87.58657670186636
 20
246.1984393590344
 10
87.78417453933841
 20
246.89476694091815
 10
87.9848721741974
 20
247.59109452280182
 10
88.1886806623818
 20
248.28742210468556
 10
88.39561128507191
 20
248.98374968656927
 10
88.60567555214087
 20
249.68007726845298
 10
88.81888520570233
 20
250.3764048503367
 10
89.03525222375754
 20
251.07273243222042
 10
89.25478882394479
 20
251.76906001410413
 10
89.47750746739426
 20
252.46538759598786
 10
89.70342086269117
 20
253.16171517787154
 10
89.93254196995078
 20
253.85804275975528
 10
90.16488400500813
 20
254.554370341639
 10
90.40046044372654
 20
255.2506979235227
 10
90.63928502642796
 20
255.94702550540643
 10
90.88137176244926
 20
256.6433530872901
 10
91.12673493482829
 20
257.33968066917384
 10
91.37538910512353
 20
258.0360082510576
 10
91.62734911837191
 20
258.73233583294126
 10
91.88263010818889
 20
259.428663414825
 10
92.14124750201546
 20
260.1249909967087
 10
92.40321702651676
 20
260.8213185785924
 10
92.66855471313715
 20
261.51764616047615
 10
92.93727690381724
 20
262.2139737423598
 10
93.20940025687756
 20
262.91030132424356
 10
93.48494175307498
 20
263.60662890612724
 10
93.76391870183744
 20
264.302956488011
 10
94.04634874768286
 20
264.9992840698947
 10
94.33224987682883
 20
265.6956116517784
 10
94.62164042399927
 20
266.39193923366213
 10
94.91453907943509
 20
267.08826681554586
 10
95.21096489611573
 20
267.78459439742954
 10
125.83513765008018
 20
267.78459439742954
 10
125.83513765008018
 20
267.78459439742954
 10
125.89856007227695
 20
267.08826681554586
 10
125.96133663030724
 20
266.39193923366213
 10
126.02346748484685
 20
265.6956116517784
 10
126.08495279486647
 20
264.9992840698947
 10
126.1457927176337
 20
264.302956488011
 10
126.20598740871503
 20
263.60662890612724
 10
126.26553702197799
 20
262.91030132424356
 10
126.32444170959297
 20
262.2139737423598
 10
126.38270162203533
 20
261.51764616047615
 10
126.44031690808721
 20
260.8213185785924
 10
126.49728771483956
 20
260.1249909967087
 10
126.55361418769394
 20
259.428663414825
 10
126.60929647036448
 20
258.73233583294126
 10
126.66433470487968
 20
258.0360082510576
 10
126.71872903158422
 20
257.33968066917384
 10
126.77247958914077
 20
256.6433530872901
 10
126.82558651453184
 20
255.94702550540643
 10
126.87804994306146
 20
255.2506979235227
 10
126.92987000835694
 20
254.554370341639
 10
126.98104684237062
 20
253.85804275975528
 10
127.03158057538147
 20
253.16171517787154
 10
127.0814713359969
 20
252.46538759598786
 10
127.13071925115426
 20
251.76906001410413
 10
127.17932444612258
 20
251.07273243222042
 10
127.22728704450412
 20
250.3764048503367
 10
127.27460716823593
 20
249.68007726845298
 10
127.3212849375915
 20
248.98374968656927
 10
127.36732047118218
 20
248.28742210468556
 10
127.4127138859588
 20
247.59109452280182
 10
127.45746529721309
 20
246.89476694091815
 10
127.50157481857919
 20
246.1984393590344
 10
127.54504256203509
 20
245.5021117771507
 10
127.58786863790407
 20
244.805784195267
 10
127.63005315485609
 20
244.10945661338326
 10
127.67159621990916
 20
243.41312903149958
 10
127.7124979384308
 20
242.71680144961584
 10
127.75275841413924
 20
242.02047386773214
 10
127.79237774910482
 20
241.32414628584843
 10
127.8313560437513
 20
240.6278187039647
 10
127.86969339685714
 20
239.93149112208098
 10
127.9073899055567
 20
239.23516354019728
 10
127.94444566534152
 20
238.53883595831354
 10
127.98086077006153
 20
237.84250837642986
 10
128.01663531192622
 20
237.14618079454613
 10
128.0517693815059
 20
236.44985321266242
 10
128.08626306773266
 20
235.7535256307787
 10
128.12011645790173
 20
235.05719804889497
 10
128.15332963767244
 20
234.3608704670113
 10
128.18590269106934
 20
233.66454288512756
 10
128.21783570048328
 20
232.96821530324385
 10
128.24912874667243
 20
232.27188772136014
 10
128.27978190876334
 20
231.5755601394764
 10
128.30979526425193
 20
230.8792325575927
 10
128.3391688890044
 20
230.182904975709
 10
128.3679028572584
 20
229.48657739382526
 10
128.39599724162366
 20
228.79024981194158
 10
128.42345211308321
 20
228.09392223005784
 10
128.45026754099405
 20
227.39759464817413
 10
128.4764435930882
 20
226.70126706629043
 10
128.5019803354734
 20
226.0049394844067
 10
128.52687783263414
 20
225.308611902523
 10
128.55113614743223
 20
224.61228432063928
 10
128.57475534110785
 20
223.91595673875557
 10
128.5977354732801
 20
223.21962915687186
 10
128.62007660194791
 20
222.52330157498812
 10
128.64177878349074
 20
221.82697399310442
 10
128.6628420726692
 20
221.1306464112207
 10
128.6832665226259
 20
220.43431882933697
 10
128.70305218488593
 20
219.7379912474533
 10
128.72219910935772
 20
219.04166366556956
 10
128.7407073443335
 20
218.34533608368585
 10
128.75857693649
 20
217.64900850180214
 10
128.77580793088896
 20
216.9526809199184
 10
128.79240037097787
 20
216.25635333803473
 10
128.80835429859027
 20
215.560025756151
 10
128.8236697539465
 20
214.86369817426728
 10
128.83834677565403
 20
214.16737059238358
 10
128.85238540070813
 20
213.47104301049984
 10
128.8657856644922
 20
212.77471542861613
 10
128.87854760077818
 20
212.07838784673243
 10
128.8906712417272
 20
211.3820602648487
 10
128.90215661788972
 20
210.685732682965
 10
128.91300375820603
 20
209.98940510108127
 10
128.9232126900067
 20
209.29307751919757
 10
128.93278343901275
 20
208.59674993731386
 10
128.94171602933616
 20
207.90042235543012
 10
128.95001048347996
 20
207.20409477354644
 10
128.95766682233875
 20
206.5077671916627
 10
128.96468506519878
 20
205.811439609779
 10
128.97106522973826
 20
205.1151120278953
 10
128.9768073320276
 20
204.41878444601156
 10
128.98191138652953
 20
203.72245686412785
 10
128.98637740609948
 20
203.02612928224414
 10
128.9902054019855
 20
202.3298017003604
 10
128.9933953838285
 20
201.63347411847673
 10
128.99594735966247
 20
200.937146536593
 10
128.99786133591437
 20
200.24081895470928
 10
128.99913731740446
 20
199.54449137282558
 10
128.99977530734617
 20
198.84816379094184
 10
128.99977530734617
 20
198.15183620905816
 10
128.99913731740446
 20
197.45550862717442
 10
128.99786133591437
 20
196.75918104529072
 10
128.99594735966247
 20
196.062853463407
 10
128.9933953838285
 20
195.36652588152327
 10
128.9902054019855
 20
194.67019829963957
 10
128.98637740609948
 20
193.97387071775586
 10
128.98191138652953
 20
193.27754313587212
 10
128.9768073320276
 20
192.58121555398844
 10
128.97106522973826
 20
191.8848879721047
 10
128.96468506519878
 20
191.188560390221
 10
128.95766682233875
 20
190.4922328083373
 10
128.95001048347996
 20
189.79590522645356
 10
128.94171602933613
 20
189.09957764456985
 10
128.93278343901275
 20
188.40325006268614
 10
128.9232126900067
 20
187.70692248080243
 10
128.91300375820603
 20
187.01059489891873
 10
128.90215661788972
 20
186.314267317035
 10
128.8906712417272
 20
185.61793973515128
 10
128.87854760077818
 20
184.92161215326757
 10
128.8657856644922
 20
184.22528457138387
 10
128.85238540070813
 20
183.52895698950016
 10
128.83834677565403
 20
182.83262940761642
 10
128.8236697539465
 20
182.13630182573272
 10
128.80835429859027
 20
181.439974243849
 10
128.79240037097787
 20
180.74364666196527
 10
128.77580793088896
 20
180.04731908008156
 10
128.75857693649
 20
179.35099149819786
 10
128.7407073443335
 20
178.65466391631415
 10
128.72219910935772
 20
177.95833633443044
 10
128.70305218488593
 20
177.2620087525467
 10
128.6832665226259
 20
176.565681170663
 10
128.6628420726692
 20
175.8693535887793
 10
128.64177878349074
 20
175.17302600689558
 10
128.62007660194791
 20
174.47669842501188
 10
128.5977354732801
 20
173.78037084312814
 10
128.57475534110785
 20
173.08404326124443
 10
128.55113614743223
 20
172.38771567936072
 10
128.52687783263414
 20
171.691388097477
 10
128.5019803354734
 20
170.99506051559328
 10
128.4764435930882
 20
170.29873293370957
 10
128.45026754099405
 20
169.60240535182587
 10
128.42345211308321
 20
168.90607776994216
 10
128.39599724162366
 20
168.20975018805842
 10
128.3679028572584
 20
167.51342260617471
 10
128.3391688890044
 20
166.817095024291
 10
128.30979526425193
 20
166.1207674424073
 10
128.27978190876334
 20
165.4244398605236
 10
128.24912874667243
 20
164.72811227863986
 10
128.21783570048328
 20
164.03178469675615
 10
128.18590269106934
 20
163.33545711487244
 10
128.15332963767244
 20
162.6391295329887
 10
128.12011645790173
 20
161.942801951105
 10
128.08626306773266
 20
161.2464743692213
 10
128.0517693815059
 20
160.55014678733758
 10
128.01663531192622
 20
159.85381920545387
 10
127.98086077006153
 20
159.15749162357014
 10
127.94444566534152
 20
158.46116404168643
 10
127.9073899055567
 20
157.76483645980272
 10
127.86969339685714
 20
157.06850887791902
 10
127.8313560437513
 20
156.3721812960353
 10
127.79237774910482
 20
155.67585371415157
 10
127.75275841413924
 20
154.97952613226786
 10
127.7124979384308
 20
154.28319855038416
 10
127.67159621990916
 20
153.58687096850042
 10
127.63005315485609
 20
152.89054338661674
 10
127.58786863790407
 20
152.194215804733
 10
127.54504256203509
 20
151.4978882228493
 10
127.50157481857919
 20
150.8015606409656
 10
127.45746529721309
 20
150.10523305908185
 10
127.4127138859588
 20
149.40890547719815
 10
127.36732047118218
 20
148.71257789531444
 10
127.3212849375915
 20
148.01625031343073
 10
127.27460716823593
 20
147.31992273154702
 10
127.22728704450412
 20
146.6235951496633
 10
127.17932444612258
 20
145.92726756777958
 10
127.13071925115426
 20
145.23093998589587
 10
127.0814713359969
 20
144.53461240401214
 10
127.03158057538147
 20
143.83828482212843
 10
126.98104684237062
 20
143.14195724024472
 10
126.92987000835694
 20
142.445629658361
 10
126.87804994306146
 20
141.7493020764773
 10
126.82558651453184
 20
141.05297449459357
 10
126.77247958914077
 20
140.35664691270986
 10
126.71872903158422
 20
139.66031933082616
 10
126.66433470487968
 20
138.96399174894245
 10
126.60929647036448
 20
138.26766416705874
 10
126.55361418769394
 20
137.571336585175
 10
126.49728771483956
 20
136.8750090032913
 10
126.44031690808721
 20
136.1786814214076
 10
126.38270162203533
 20
135.48235383952385
 10
126.32444170959297
 20
134.78602625764015
 10
126.26553702197799
 20
134.08969867575644
 10
126.20598740871503
 20
133.39337109387273
 10
126.1457927176337
 20
132.69704351198902
 10
126.08495279486647
 20
132.0007159301053
 10
126.02346748484685
 20
131.30438834822158
 10
125.96133663030723
 20
130.60806076633787
 10
125.89856007227695
 20
129.91173318445414
 10
125.83513765008018
 20
129.21540560257046
 10
95.21096489611573
 20
129.21540560257046
 97
0
 75
1
 76
1
 52
0.0
 41
1.0
 77
0
 78
1
 53
45.0
 43
0.0
 44
0.0
 45
-2.2450640303
 46
2.2450640303
 79
0
 98
0
  0
LINE
  5
81
330
17
100
AcDbEntity
  8
DIMS
100
AcDbLine
 10
80.99985505605122
 20
127.71540560257044
 30
0.0
 11
80.99985505605122
 21
121.21540560257044
 31
0.0
  0
LINE
  5
82
330
17
100
AcDbEntity
  8
DIMS
100
AcDbLine
 10
128.99985505605122
 20
127.71540560257044
 30
0.0
 11
128.99985505605122
 21
121.21540560257044
 31
0.0
  0
LINE
  5
83
330
17
100
AcDbEntity
  8
DIMS
100
AcDbLine
 10
80.99985505605122
 20
121.21540560257044
 30
0.0
 11
128.99985505605122
 21
121.21540560257044
 31
0.0
  0
SOLID
  5
84
330
17
100
AcDbEntity
  8
DIMS
100
AcDbTrace
 10
80.99985505605122
 20
121.21540560257044
 30
0.0
 11
83.49985505605122
 21
120.41540560257044
 31
0.0
 12
83.49985505605122
 22
122.01540560257044
 32
0.0
 13
83.49985505605122
 23
122.01540560257044
 33
0.0
  0
SOLID
  5
85
330
17
100
AcDbEntity
  8
DIMS
100
AcDbTrace
 10
128.99985505605122
 20
121.21540560257044
 30
0.0
 11
126.49985505605122
 21
122.01540560257044
 31
0.0
 12
126.49985505605122
 22
120.41540560257044
 32
0.0
 13
126.49985505605122
 23
120.41540560257044
 33
0.0
  0
TEXT
  5
86
330
17
100
AcDbEntity
  8
DIMS
100
AcDbText
 10
104.99985505605122
 20
117.21540560257044
 30
0.0
 40
2.5
  1
6.00
 72
4
 11
104.99985505605122
 21
117.21540560257044
 31
0.0
100
AcDbText
 73
3
  0
LINE
  5
87
330
17
100
AcDbEntity
  8
DIMS
100
AcDbLine
 10
125.83513765008018
 20
267.78459439742954
 30
0.0
 11
140.99980057422175
 21
267.78459439742954
 31
0.0
  0
LINE
  5
88
330
17
100
AcDbEntity
  8
DIMS
100
AcDbLine
 10
95.21096489611573
 20
129.21540560257046
 30
0.0
 11
140.99980057422175
 21
129.21540560257046
 31
0.0
  0
LINE
  5
89
330
17
100
AcDbEntity
  8
DIMS
100
AcDbLine
 10
138.99980057422175
 20
267.78459439742954
 30
0.0
 11
138.99980057422175
 21
129.21540560257046
 31
0.0
  0
SOLID
  5
8A
330
17
100
AcDbEntity
  8
DIMS
100
AcDbTrace
 10
138.99980057422175
 20
267.78459439742954
 30
0.0
 11
138.19980057422174
 21
265.28459439742954
 31
0.0
 12
139.79980057422176
 22
265.28459439742954
 32
0.0
 13
139.79980057422176
 23
265.28459439742954
 33
0.0
  0
SOLID
  5
8B
330
17
100
AcDbEntity
  8
DIMS
100
AcDbTrace
 10
138.99980057422175
 20
129.21540560257046
 30
0.0
 11
139.79980057422176
 21
131.71540560257046
 31
0.0
 12
138.19980057422174
 22
131.71540560257046
 32
0.0
 13
138.19980057422174
 23
131.71540560257046
 33
0.0
  0
TEXT
  5
8C
330
17
100
AcDbEntity
  8
DIMS
100
AcDbText
 10
141.99980057422175
 20
198.5
 30
0.0
 40
2.5
  1
Ø 17.32
100
AcDbText
 73
2
  0
LINE
  5
8D
330
17
100
AcDbEntity
  8
DIMS
100
AcDbLine
 10
95.21096489611573
 20
269.28459439742954
 30
0.0
 11
95.21096489611573
 21
275.78459439742954
 31
0.0
  0
LINE
  5
8E
330
17
100
AcDbEntity
  8
DIMS
100
AcDbLine
 10
125.83513765008018
 20
269.28459439742954
 30
0.0
 11
125.83513765008018
 21
275.78459439742954
 31
0.0
  0
LINE
  5
8F
330
17
100
AcDbEntity
  8
DIMS
100
AcDbLine
 10
95.21096489611573
 20
275.78459439742954
 30
0.0
 11
125.83513765008018
 21
275.78459439742954
 31
0.0
  0
SOLID
  5
90
330
17
100
AcDbEntity
  8
DIMS
100
AcDbTrace
 10
95.21096489611573
 20
275.78459439742954
 30
0.0
 11
97.71096489611573
 21
274.98459439742953
 31
0.0
 12
97.71096489611573
 22
276.58459439742956
 32
0.0
 13
97.71096489611573
 23
276.58459439742956
 33
0.0
  0
SOLID
  5
91
330
17
100
AcDbEntity
  8
DIMS
100
AcDbTrace
 10
125.83513765008018
 20
275.78459439742954
 30
0.0
 11
123.33513765008018
 21
276.58459439742956
 31
0.0
 12
123.33513765008018
 22
274.98459439742953
 32
0.0
 13
123.33513765008018
 23
274.98459439742953
 33
0.0
  0
TEXT
  5
92
330
17
100
AcDbEntity
  8
DIMS
100
AcDbText
 10
110.52305127309796
 20
277.78459439742954
 30
0.0
 40
2.5
  1
(3.83)
 72
4
 11
110.52305127309796
 21
277.78459439742954
 31
0.0
100
AcDbText
 73
1
  0
LINE
  5
93
330
17
100
AcDbEntity
  8
DIMS
100
AcDbLine
 10
95.21096489611573
 20
267.78459439742954
 30
0.0
 11
92.21096489611573
 21
267.78459439742954
 31
0.0
  0
LINE
  5
94
330
17
100
AcDbEntity
  8
DIMS
100
AcDbLine
 10
95.21096489611573
 20
129.21540560257046
 30
0.0
 11
92.21096489611573
 21
129.21540560257046
 31
0.0
  0
LINE
  5
95
330
17
100
AcDbEntity
  8
DIMS
100
AcDbLine
 10
92.21096489611573
 20
129.21540560257046
 30
0.0
 11
92.21096489611573
 21
267.78459439742954
 31
0.0
  0
TEXT
  5
96
330
17
100
AcDbEntity
  8
DIMS
100
AcDbText
 10
91.21096489611573
 20
198.5
 30
0.0
 40
2.0
  1
Øₑ 17.32
 72
2
 11
91.21096489611573
 21
198.5
 31
0.0
100
AcDbText
 73
2
  0
LINE
  5
97
330
17
100
AcDbEntity
  8
DIMS
100
AcDbLine
 10
126.83924900850973
 20
255.76650830782683
 30
0.0
 11
129.83924900850974
 21
255.76650830782683
 31
0.0
  0
LINE
  5
98
330
17
100
AcDbEntity
  8
DIMS
100
AcDbLine
 10
126.83924900850973
 20
141.23349169217317
 30
0.0
 11
129.83924900850974
 21
141.23349169217317
 31
0.0
  0
LINE
  5
99
330
17
100
AcDbEntity
  8
DIMS
100
AcDbLine
 10
129.83924900850974
 20
141.23349169217317
 30
0.0
 11
129.83924900850974
 21
255.76650830782683
 31
0.0
  0
TEXT
  5
9A
330
17
100
AcDbEntity
  8
DIMS
100
AcDbText
 10
130.83924900850974
 20
198.5
 30
0.0
 40
2.0
  1
Øₑ 14.32
 11
130.83924900850974
 21
198.5
 31
0.0
100
AcDbText
 73
2
  0
LWPOLYLINE
  5
9B
330
17
100
AcDbEntity
  8
CALLOUT
100
AcDbPolyline
 90
3
 70
1
 10
91.14526965829924
 20
257.39190523781514
 10
86.78999703450975
 20
256.58855624100926
 10
88.27191249992124
 20
260.76200714428415
  0
LINE
  5
9C
330
17
100
AcDbEntity
  8
CALLOUT
100
AcDbLine
 10
91.14526965829924
 20
257.39190523781514
 30
0.0
 11
85.36086458215667
 21
264.15596974812644
 31
0.0
  0
LINE
  5
9D
330
17
100
AcDbEntity
  8
CALLOUT
100
AcDbLine
 10
85.37101969008356
 20
264.0975100305946
 30
0.0
 11
86.28339083892571
 21
266.66697926425286
 31
0.0
  0
TEXT
  5
9E
330
17
100
AcDbEntity
  8
CALLOUT
100
AcDbText
 10
86.7853104858389
 20
268.08051266252915
 30
0.0
 40
2.0
  1
S1
 72
4
 11
86.7853104858389
 21
268.08051266252915
 31
0.0
100
AcDbText
 73
2
  0
LWPOLYLINE
  5
9F
330
17
100
AcDbEntity
  8
CALLOUT
100
AcDbPolyline
 90
3
 70
1
 10
127.66437248368544
 20
243.5349863583292
 10
131.36182125152007
 20
245.9727398010378
 10
131.62425334013162
 20
241.55177890010924
  0
LINE
  5
A0
330
17
100
AcDbEntity
  8
CALLOUT
100
AcDbLine
 10
127.66437248368544
 20
243.5349863583292
 30
0.0
 11
135.62814502000643
 21
239.56129314240323
 31
0.0
  0
LINE
  5
A1
330
17
100
AcDbEntity
  8
CALLOUT
100
AcDbLine
 10
135.5960020207058
 20
239.61116790943896
 30
0.0
 11
135.75757362972678
 21
236.88931415305998
 31
0.0
  0
TEXT
  5
A2
330
17
100
AcDbEntity
  8
CALLOUT
100
AcDbText
 10
135.84645847122349
 20
235.3919499739265
 30
0.0
 40
2.0
  1
S2
 72
4
 11
135.84645847122349
 21
235.3919499739265
 31
0.0
100
AcDbText
 73
2
  0
ENDSEC
  0
SECTION
  2
OBJECTS
  0
DICTIONARY
  5
A
330
0
100
AcDbDictionary
281
1
  3
ACAD_COLOR
350
B
  3
ACAD_GROUP
350
C
  3
ACAD_LAYOUT
350
D
  3
ACAD_MATERIAL
350
E
  3
ACAD_MLEADERSTYLE
350
F
  3
ACAD_MLINESTYLE
350
10
  3
ACAD_PLOTSETTINGS
350
11
  3
ACAD_PLOTSTYLENAME
350
12
  3
ACAD_SCALELIST
350
14
  3
ACAD_TABLESTYLE
350
15
  3
ACAD_VISUALSTYLE
350
16
  3
EZDXF_META
350
2D
  0
DICTIONARY
  5
B
330
A
100
AcDbDictionary
281
1
  0
DICTIONARY
  5
C
330
A
100
AcDbDictionary
281
1
  0
DICTIONARY
  5
D
330
A
100
AcDbDictionary
281
1
  3
Model
350
1A
  3
Layout1
350
1E
  0
DICTIONARY
  5
E
330
A
100
AcDbDictionary
281
1
  3
ByBlock
350
1F
  3
ByLayer
350
20
  3
Global
350
21
  0
DICTIONARY
  5
F
330
A
100
AcDbDictionary
281
1
  3
Standard
350
2C
  0
DICTIONARY
  5
10
330
A
100
AcDbDictionary
281
1
  3
Standard
350
22
  0
DICTIONARY
  5
11
330
A
100
AcDbDictionary
281
1
  0
ACDBDICTIONARYWDFLT
  5
12
330
A
100
AcDbDictionary
281
1
  3
Normal
350
13
100
AcDbDictionaryWithDefault
340
13
  0
ACDBPLACEHOLDER
  5
13
330
12
  0
DICTIONARY
  5
14
330
A
100
AcDbDictionary
281
1
  0
DICTIONARY
  5
15
330
A
100
AcDbDictionary
281
1
  0
DICTIONARY
  5
16
330
A
100
AcDbDictionary
281
1
  0
LAYOUT
  5
1A
330
D
100
AcDbPlotSettings
  1

  4
A3
  6

 40
7.5
 41
20.0
 42
7.5
 43
20.0
 44
420.0
 45
297.0
 46
0.0
 47
0.0
 48
0.0
 49
0.0
140
0.0
141
0.0
142
1.0
143
1.0
 70
1024
 72
1
 73
0
 74
5
  7

 75
16
 76
0
 77
2
 78
300
147
1.0
148
0.0
149
0.0
100
AcDbLayout
  1
Model
 70
1
 71
0
 10
0.0
 20
0.0
 11
420.0
 21
297.0
 12
0.0
 22
0.0
 32
0.0
 14
1e+20
 24
1e+20
 34
1e+20
 15
-1e+20
 25
-1e+20
 35
-1e+20
146
0.0
 13
0.0
 23
0.0
 33
0.0
 16
1.0
 26
0.0
 36
0.0
 17
0.0
 27
1.0
 37
0.0
 76
1
330
17
  0
LAYOUT
  5
1E
330
D
100
AcDbPlotSettings
  1

  4
A3
  6

 40
7.5
 41
20.0
 42
7.5
 43
20.0
 44
420.0
 45
297.0
 46
0.0
 47
0.0
 48
0.0
 49
0.0
140
0.0
141
0.0
142
1.0
143
1.0
 70
0
 72
1
 73
0
 74
5
  7

 75
16
 76
0
 77
2
 78
300
147
1.0
148
0.0
149
0.0
100
AcDbLayout
  1
Layout1
 70
1
 71
1
 10
0.0
 20
0.0
 11
420.0
 21
297.0
 12
0.0
 22
0.0
 32
0.0
 14
1e+20
 24
1e+20
 34
1e+20
 15
-1e+20
 25
-1e+20
 35
-1e+20
146
0.0
 13
0.0
 23
0.0
 33
0.0
 16
1.0
 26
0.0
 36
0.0
 17
0.0
 27
1.0
 37
0.0
 76
1
330
1B
  0
MATERIAL
  5
1F
102
{ACAD_REACTORS
330
E
102
}
330
E
100
AcDbMaterial
  1
ByBlock
  2

 70
0
 40
1.0
 71
1
 41
1.0
 91
-1023410177
 42
1.0
 72
1
  3

 73
1
 74
1
 75
1
 44
0.5
 73
0
 45
1.0
 46
1.0
 77
1
  4

 78
1
 79
1
170
1
 48
1.0
171
1
  6

172
1
173
1
174
1
140
1.0
141
1.0
175
1
  7

176
1
177
1
178
1
143
1.0
179
1
  8

270
1
271
1
272
1
145
1.0
146
1.0
273
1
  9

274
1
275
1
276
1
 42
1.0
 72
1
  3

 73
1
 74
1
 75
1
 94
63
  0
MATERIAL
  5
20
102
{ACAD_REACTORS
330
E
102
}
330
E
100
AcDbMaterial
  1
ByLayer
  2

 70
0
 40
1.0
 71
1
 41
1.0
 91
-1023410177
 42
1.0
 72
1
  3

 73
1
 74
1
 75
1
 44
0.5
 73
0
 45
1.0
 46
1.0
 77
1
  4

 78
1
 79
1
170
1
 48
1.0
171
1
  6

172
1
173
1
174
1
140
1.0
141
1.0
175
1
  7

176
1
177
1
178
1
143
1.0
179
1
  8

270
1
271
1
272
1
145
1.0
146
1.0
273
1
  9

274
1
275
1
276
1
 42
1.0
 72
1
  3

 73
1
 74
1
 75
1
 94
63
  0
MATERIAL
  5
21
102
{ACAD_REACTORS
330
E
102
}
330
E
100
AcDbMaterial
  1
Global
  2

 70
0
 40
1.0
 71
1
 41
1.0
 91
-1023410177
 42
1.0
 72
1
  3

 73
1
 74
1
 75
1
 44
0.5
 73
0
 45
1.0
 46
1.0
 77
1
  4

 78
1
 79
1
170
1
 48
1.0
171
1
  6

172
1
173
1
174
1
140
1.0
141
1.0
175
1
  7

176
1
177
1
178
1
143
1.0
179
1
  8

270
1
271
1
272
1
145
1.0
146
1.0
273
1
  9

274
1
275
1
276
1
 42
1.0
 72
1
  3

 73
1
 74
1
 75
1
 94
63
  0
MLINESTYLE
  5
22
102
{ACAD_REACTORS
330
10
102
}
330
10
100
AcDbMlineStyle
  2
Standard
 70
0
  3

 62
256
 51
90.0
 52
90.0
 71
2
 49
0.5
 62
256
  6
BYLAYER
 49
-0.5
 62
256
  6
BYLAYER
  0
MLEADERSTYLE
  5
2C
102
{ACAD_REACTORS
330
F
102
}
330
F
100
AcDbMLeaderStyle
179
2
170
2
171
1
172
0
 90
2
 40
0.0
 41
0.0
173
1
 91
-1056964608
 92
-2
290
1
 42
2.0
291
1
 43
8.0
  3
Standard
 44
4.0
300

342
29
174
1
175
1
176
0
178
1
 93
-1056964608
 45
4.0
292
0
297
0
 46
4.0
 94
-1056964608
 47
1.0
 49
1.0
140
1.0
294
1
141
0.0
177
0
142
1.0
295
0
296
0
143
3.75
271
0
272
9
273
9
  0
DICTIONARY
  5
2D
330
A
100
AcDbDictionary
280
1
281
1
  3
CREATED_BY_EZDXF
350
2E
  3
WRITTEN_BY_EZDXF
350
A5
  0
DICTIONARYVAR
  5
2E
330
2D
100
DictionaryVariables
280
0
  1
1.4.3 @ 2026-07-26T12:20:01.934346+00:00
  0
DICTIONARYVAR
  5
A5
330
2D
100
DictionaryVariables
280
0
  1
1.4.3 @ 2026-07-26T12:20:01.940847+00:00
  0
ENDSEC
  0
EOF
