  0
SECTION
  2
HEADER
  9
$ACADVER
  1
AC1024
  9
$ACADMAINTVER
 70
6
  9
$DWGCODEPAGE
  3
ANSI_1252
  9
$LASTSAVEDBY
  1
ezdxf
  9
$INSBASE
 10
0.0
 20
0.0
 30
0.0
  9
$EXTMIN
 10
0.0
 20
0.0
 30
0.0
  9
$EXTMAX
 10
210.0
 20
297.0
 30
0.0
  9
$LIMMIN
 10
0.0
 20
0.0
  9
$LIMMAX
 10
420.0
 20
297.0
  9
$ORTHOMODE
 70
0
  9
$REGENMODE
 70
1
  9
$FILLMODE
 70
1
  9
$QTEXTMODE
 70
0
  9
$MIRRTEXT
 70
1
  9
$LTSCALE
 40
1.0
  9
$ATTMODE
 70
1
  9
$TEXTSIZE
 40
2.5
  9
$TRACEWID
 40
1.0
  9
$TEXTSTYLE
  7
Standard
  9
$CLAYER
  8
0
  9
$CELTYPE
  6
ByLayer
  9
$CECOLOR
 62
256
  9
$CELTSCALE
 40
1.0
  9
$DISPSILH
 70
0
  9
$DIMSCALE
 40
1.0
  9
$DIMASZ
 40
2.5
  9
$DIMEXO
 40
0.625
  9
$DIMDLI
 40
3.75
  9
$DIMRND
 40
0.0
  9
$DIMDLE
 40
0.0
  9
$DIMEXE
 40
1.25
  9
$DIMTP
 40
0.0
  9
$DIMTM
 40
0.0
  9
$DIMTXT
 40
2.5
  9
$DIMCEN
 40
2.5
  9
$DIMTSZ
 40
0.0
  9
$DIMTOL
 70
0
  9
$DIMLIM
 70
0
  9
$DIMTIH
 70
0
  9
$DIMTOH
 70
0
  9
$DIMSE1
 70
0
  9
$DIMSE2
 70
0
  9
$DIMTAD
 70
1
  9
$DIMZIN
 70
8
  9
$DIMBLK
  1

  9
$DIMASO
 70
1
  9
$DIMSHO
 70
1
  9
$DIMPOST
  1

  9
$DIMAPOST
  1

  9
$DIMALT
 70
0
  9
$DIMALTD
 70
3
  9
$DIMALTF
 40
0.03937007874
  9
$DIMLFAC
 40
1.0
  9
$DIMTOFL
 70
1
  9
$DIMTVP
 40
0.0
  9
$DIMTIX
 70
0
  9
$DIMSOXD
 70
0
  9
$DIMSAH
 70
0
  9
$DIMBLK1
  1

  9
$DIMBLK2
  1

  9
$DIMSTYLE
  2
ISO-25
  9
$DIMCLRD
 70
0
  9
$DIMCLRE
 70
0
  9
$DIMCLRT
 70
0
  9
$DIMTFAC
 40
1.0
  9
$DIMGAP
 40
0.625
  9
$DIMJUST
 70
0
  9
$DIMSD1
 70
0
  9
$DIMSD2
 70
0
  9
$DIMTOLJ
 70
0
  9
$DIMTZIN
 70
8
  9
$DIMALTZ
 70
0
  9
$DIMALTTZ
 70
0
  9
$DIMUPT
 70
0
  9
$DIMDEC
 70
2
  9
$DIMTDEC
 70
2
  9
$DIMALTU
 70
2
  9
$DIMALTTD
 70
3
  9
$DIMTXSTY
  7
Standard
  9
$DIMAUNIT
 70
0
  9
$DIMADEC
 70
0
  9
$DIMALTRND
 40
0.0
  9
$DIMAZIN
 70
0
  9
$DIMDSEP
 70
44
  9
$DIMATFIT
 70
3
  9
$DIMFRAC
 70
0
  9
$DIMLDRBLK
  1

  9
$DIMLUNIT
 70
2
  9
$DIMLWD
 70
-2
  9
$DIMLWE
 70
-2
  9
$DIMTMOVE
 70
0
  9
$DIMFXL
 40
1.0
  9
$DIMFXLON
 70
0
  9
$DIMJOGANG
 40
0.785398163397
  9
$DIMTFILL
 70
0
  9
$DIMTFILLCLR
 70
0
  9
$DIMARCSYM
 70
0
  9
$DIMLTYPE
  6

  9
$DIMLTEX1
  6

  9
$DIMLTEX2
  6

  9
$DIMTXTDIRECTION
 70
0
  9
$LUNITS
 70
2
  9
$LUPREC
 70
4
  9
$SKETCHINC
 40
1.0
  9
$FILLETRAD
 40
10.0
  9
$AUNITS
 70
0
  9
$AUPREC
 70
2
  9
$MENU
  1
.
  9
$ELEVATION
 40
0.0
  9
$PELEVATION
 40
0.0
  9
$THICKNESS
 40
0.0
  9
$LIMCHECK
 70
0
  9
$CHAMFERA
 40
0.0
  9
$CHAMFERB
 40
0.0
  9
$CHAMFERC
 40
0.0
  9
$CHAMFERD
 40
0.0
  9
$SKPOLY
 70
0
  9
$TDCREATE
 40
2461248.513912037
  9
$TDUCREATE
 40
2458532.153996898
  9
$TDUPDATE
 40
2461248.513912037
  9
$TDUUPDATE
 40
2458532.1544311
  9
$TDINDWG
 40
0.0
  9
$TDUSRTIMER
 40
0.0
  9
$USRTIMER
 70
1
  9
$ANGBASE
 50
0.0
  9
$ANGDIR
 70
0
  9
$PDMODE
 70
0
  9
$PDSIZE
 40
0.0
  9
$PLINEWID
 40
0.0
  9
$SPLFRAME
 70
0
  9
$SPLINETYPE
 70
6
  9
$SPLINESEGS
 70
8
  9
$HANDSEED
  5
A6
  9
$SURFTAB1
 70
6
  9
$SURFTAB2
 70
6
  9
$SURFTYPE
 70
6
  9
$SURFU
 70
6
  9
$SURFV
 70
6
  9
$UCSBASE
  2

  9
$UCSNAME
  2

  9
$UCSORG
 10
0.0
 20
0.0
 30
0.0
  9
$UCSXDIR
 10
1.0
 20
0.0
 30
0.0
  9
$UCSYDIR
 10
0.0
 20
1.0
 30
0.0
  9
$UCSORTHOREF
  2

  9
$UCSORTHOVIEW
 70
0
  9
$UCSORGTOP
 10
0.0
 20
0.0
 30
0.0
  9
$UCSORGBOTTOM
 10
0.0
 20
0.0
 30
0.0
  9
$UCSORGLEFT
 10
0.0
 20
0.0
 30
0.0
  9
$UCSORGRIGHT
 10
0.0
 20
0.0
 30
0.0
  9
$UCSORGFRONT
 10
0.0
 20
0.0
 30
0.0
  9
$UCSORGBACK
 10
0.0
 20
0.0
 30
0.0
  9
$PUCSBASE
  2

  9
$PUCSNAME
  2

  9
$PUCSORG
 10
0.0
 20
0.0
 30
0.0
  9
$PUCSXDIR
 10
1.0
 20
0.0
 30
0.0
  9
$PUCSYDIR
 10
0.0
 20
1.0
 30
0.0
  9
$PUCSORTHOREF
  2

  9
$PUCSORTHOVIEW
 70
0
  9
$PUCSORGTOP
 10
0.0
 20
0.0
 30
0.0
  9
$PUCSORGBOTTOM
 10
0.0
 20
0.0
 30
0.0
  9
$PUCSORGLEFT
 10
0.0
 20
0.0
 30
0.0
  9
$PUCSORGRIGHT
 10
0.0
 20
0.0
 30
0.0
  9
$PUCSORGFRONT
 10
0.0
 20
0.0
 30
0.0
  9
$PUCSORGBACK
 10
0.0
 20
0.0
 30
0.0
  9
$USERI1
 70
0
  9
$USERI2
 70
0
  9
$USERI3
 70
0
  9
$USERI4
 70
0
  9
$USERI5
 70
0
  9
$USERR1
 40
0.0
  9
$USERR2
 40
0.0
  9
$USERR3
 40
0.0
  9
$USERR4
 40
0.0
  9
$USERR5
 40
0.0
  9
$WORLDVIEW
 70
1
  9
$SHADEDGE
 70
3
  9
$SHADEDIF
 70
70
  9
$TILEMODE
 70
1
  9
$MAXACTVP
 70
64
  9
$PINSBASE
 10
0.0
 20
0.0
 30
0.0
  9
$PLIMCHECK
 70
0
  9
$PEXTMIN
 10
1e+20
 20
1e+20
 30
1e+20
  9
$PEXTMAX
 10
-1e+20
 20
-1e+20
 30
-1e+20
  9
$PLIMMIN
 10
0.0
 20
0.0
  9
$PLIMMAX
 10
420.0
 20
297.0
  9
$UNITMODE
 70
0
  9
$VISRETAIN
 70
1
  9
$PLINEGEN
 70
0
  9
$PSLTSCALE
 70
1
  9
$TREEDEPTH
 70
3020
  9
$CMLSTYLE
  2
Standard
  9
$CMLJUST
 70
0
  9
$CMLSCALE
 40
20.0
  9
$PROXYGRAPHICS
 70
1
  9
$MEASUREMENT
 70
1
  9
$CELWEIGHT
370
-1
  9
$ENDCAPS
280
0
  9
$JOINSTYLE
280
0
  9
$LWDISPLAY
290
0
  9
$INSUNITS
 70
4
  9
$HYPERLINKBASE
  1

  9
$STYLESHEET
  1

  9
$XEDIT
290
1
  9
$CEPSNTYPE
380
0
  9
$PSTYLEMODE
290
1
  9
$FINGERPRINTGUID
  2
{60E54ED7-0DF6-465D-A938-FDA6B5063940}
  9
$VERSIONGUID
  2
{08867266-0A0F-4495-8448-6D7B14124627}
  9
$EXTNAMES
290
1
  9
$PSVPSCALE
 40
0.0
  9
$OLESTARTUP
290
0
  9
$SORTENTS
280
127
  9
$INDEXCTL
280
0
  9
$HIDETEXT
280
1
  9
$XCLIPFRAME
280
1
  9
$HALOGAP
280
0
  9
$OBSCOLOR
 70
257
  9
$OBSLTYPE
280
0
  9
$INTERSECTIONDISPLAY
280
0
  9
$INTERSECTIONCOLOR
 70
257
  9
$DIMASSOC
280
2
  9
$PROJECTNAME
  1

  9
$CAMERADISPLAY
290
0
  9
$LENSLENGTH
 40
50.0
  9
$CAMERAHEIGHT
 40
0.0
  9
$STEPSPERSEC
 40
24.0
  9
$STEPSIZE
 40
100.0
  9
$3DDWFPREC
 40
2.0
  9
$PSOLWIDTH
 40
0.005
  9
$PSOLHEIGHT
 40
0.08
  9
$LOFTANG1
 40
1.570796326795
  9
$LOFTANG2
 40
1.570796326795
  9
$LOFTMAG1
 40
0.0
  9
$LOFTMAG2
 40
0.0
  9
$LOFTPARAM
 70
7
  9
$LOFTNORMALS
280
1
  9
$LATITUDE
 40
37.795
  9
$LONGITUDE
 40
-122.394
  9
$NORTHDIRECTION
 40
0.0
  9
$TIMEZONE
 70
-8000
  9
$LIGHTGLYPHDISPLAY
280
1
  9
$TILEMODELIGHTSYNCH
280
1
  9
$CMATERIAL
347
20
  9
$SOLIDHIST
280
0
  9
$SHOWHIST
280
1
  9
$DWFFRAME
280
2
  9
$DGNFRAME
280
2
  9
$REALWORLDSCALE
290
1
  9
$INTERFERECOLOR
 62
256
  9
$CSHADOW
280
0
  9
$SHADOWPLANELOCATION
 40
0.0
  0
ENDSEC
  0
SECTION
  2
CLASSES
  0
CLASS
  1
ACDBDICTIONARYWDFLT
  2
AcDbDictionaryWithDefault
  3
ObjectDBX Classes
 90
0
 91
0
280
0
281
0
  0
CLASS
  1
SUN
  2
AcDbSun
  3
SCENEOE
 90
1153
 91
0
280
0
281
0
  0
CLASS
  1
VISUALSTYLE
  2
AcDbVisualStyle
  3
ObjectDBX Classes
 90
4095
 91
0
280
0
281
0
  0
CLASS
  1
MATERIAL
  2
AcDbMaterial
  3
ObjectDBX Classes
 90
1153
 91
0
280
0
281
0
  0
CLASS
  1
SCALE
  2
AcDbScale
  3
ObjectDBX Classes
 90
1153
 91
0
280
0
281
0
  0
CLASS
  1
TABLESTYLE
  2
AcDbTableStyle
  3
ObjectDBX Classes
 90
4095
 91
0
280
0
281
0
  0
CLASS
  1
MLEADERSTYLE
  2
AcDbMLeaderStyle
  3
ACDB_MLEADERSTYLE_CLASS
 90
4095
 91
0
280
0
281
0
  0
CLASS
  1
DICTIONARYVAR
  2
AcDbDictionaryVar
  3
ObjectDBX Classes
 90
0
 91
0
280
0
281
0
  0
CLASS
  1
CELLSTYLEMAP
  2
AcDbCellStyleMap
  3
ObjectDBX Classes
 90
1152
 91
0
280
0
281
0
  0
CLASS
  1
MENTALRAYRENDERSETTINGS
  2
AcDbMentalRayRenderSettings
  3
SCENEOE
 90
1024
 91
0
280
0
281
0
  0
CLASS
  1
ACDBDETAILVIEWSTYLE
  2
AcDbDetailViewStyle
  3
ObjectDBX Classes
 90
1025
 91
0
280
0
281
0
  0
CLASS
  1
ACDBSECTIONVIEWSTYLE
  2
AcDbSectionViewStyle
  3
ObjectDBX Classes
 90
1025
 91
0
280
0
281
0
  0
CLASS
  1
RASTERVARIABLES
  2
AcDbRasterVariables
  3
ISM
 90
0
 91
0
280
0
281
0
  0
CLASS
  1
ACDBPLACEHOLDER
  2
AcDbPlaceHolder
  3
ObjectDBX Classes
 90
0
 91
0
280
0
281
0
  0
CLASS
  1
LAYOUT
  2
AcDbLayout
  3
ObjectDBX Classes
 90
0
 91
0
280
0
281
0
  0
ENDSEC
  0
SECTION
  2
TABLES
  0
TABLE
  2
VPORT
  5
8
330
0
100
AcDbSymbolTable
 70
1
  0
VPORT
  5
23
330
8
100
AcDbSymbolTableRecord
100
AcDbViewportTableRecord
  2
*Active
 70
0
 10
0.0
 20
0.0
 11
1.0
 21
1.0
 12
0.0
 22
0.0
 13
0.0
 23
0.0
 14
0.5
 24
0.5
 15
0.5
 25
0.5
 16
0.0
 26
0.0
 36
1.0
 17
0.0
 27
0.0
 37
0.0
 40
1000.0
 41
1.34
 42
50.0
 43
0.0
 44
0.0
 50
0.0
 51
0.0
 71
0
 72
1000
 73
1
 74
3
 75
0
 76
0
 77
0
 78
0
281
0
 65
0
146
0.0
  0
ENDTAB
  0
TABLE
  2
LTYPE
  5
2
330
0
100
AcDbSymbolTable
 70
4
  0
LTYPE
  5
24
330
2
100
AcDbSymbolTableRecord
100
AcDbLinetypeTableRecord
  2
ByBlock
 70
0
  3

 72
65
 73
0
 40
0.0
  0
LTYPE
  5
25
330
2
100
AcDbSymbolTableRecord
100
AcDbLinetypeTableRecord
  2
ByLayer
 70
0
  3

 72
65
 73
0
 40
0.0
  0
LTYPE
  5
26
330
2
100
AcDbSymbolTableRecord
100
AcDbLinetypeTableRecord
  2
Continuous
 70
0
  3

 72
65
 73
0
 40
0.0
  0
LTYPE
  5
36
330
2
100
AcDbSymbolTableRecord
100
AcDbLinetypeTableRecord
  2
OPTICAL
 70
0
  3

 72
65
 73
5
 40
8.0
 49
-2.0
 74
0
 49
1.0
 74
0
 49
-2.0
 74
0
 49
1.0
 74
0
 49
-2.0
 74
0
  0
ENDTAB
  0
TABLE
  2
LAYER
  5
1
330
0
100
AcDbSymbolTable
 70
9
  0
LAYER
  5
27
330
1
100
AcDbSymbolTableRecord
100
AcDbLayerTableRecord
  2
0
 70
0
 62
7
  6
Continuous
370
-3
390
13
347
21
  0
LAYER
  5
28
330
1
100
AcDbSymbolTableRecord
100
AcDbLayerTableRecord
  2
Defpoints
 70
0
 62
7
  6
Continuous
290
0
370
-3
390
13
347
21
  0
LAYER
  5
2F
330
1
100
AcDbSymbolTableRecord
100
AcDbLayerTableRecord
  2
BORDER
 70
0
 62
7
  6
Continuous
370
25
390
13
347
21
  0
LAYER
  5
30
330
1
100
AcDbSymbolTableRecord
100
AcDbLayerTableRecord
  2
OUTLINE
 70
0
 62
7
  6
Continuous
370
50
390
13
347
21
  0
LAYER
  5
31
330
1
100
AcDbSymbolTableRecord
100
AcDbLayerTableRecord
  2
AXIS
 70
0
 62
8
  6
OPTICAL
370
13
390
13
347
21
  0
LAYER
  5
32
330
1
100
AcDbSymbolTableRecord
100
AcDbLayerTableRecord
  2
CEMENT
 70
0
 62
7
  6
Continuous
370
13
390
13
347
21
  0
LAYER
  5
33
330
1
100
AcDbSymbolTableRecord
100
AcDbLayerTableRecord
  2
DIMS
 70
0
 62
7
  6
Continuous
370
13
390
13
347
21
  0
LAYER
  5
34
330
1
100
AcDbSymbolTableRecord
100
AcDbLayerTableRecord
  2
CALLOUT
 70
0
 62
7
  6
Continuous
370
13
390
13
347
21
  0
LAYER
  5
35
330
1
100
AcDbSymbolTableRecord
100
AcDbLayerTableRecord
  2
TABLE
 70
0
 62
7
  6
Continuous
370
13
390
13
347
21
  0
ENDTAB
  0
TABLE
  2
STYLE
  5
5
330
0
100
AcDbSymbolTable
 70
1
  0
STYLE
  5
29
330
5
100
AcDbSymbolTableRecord
100
AcDbTextStyleTableRecord
  2
Standard
 70
0
 40
0.0
 41
1.0
 50
0.0
 71
0
 42
2.5
  3
txt
  4

  0
ENDTAB
  0
TABLE
  2
VIEW
  5
7
330
0
100
AcDbSymbolTable
 70
0
  0
ENDTAB
  0
TABLE
  2
UCS
  5
6
330
0
100
AcDbSymbolTable
 70
0
  0
ENDTAB
  0
TABLE
  2
APPID
  5
3
330
0
100
AcDbSymbolTable
 70
3
  0
APPID
  5
2A
330
3
100
AcDbSymbolTableRecord
100
AcDbRegAppTableRecord
  2
ACAD
 70
0
  0
APPID
  5
A3
330
3
100
AcDbSymbolTableRecord
100
AcDbRegAppTableRecord
  2
HATCHBACKGROUNDCOLOR
 70
0
  0
APPID
  5
A4
330
3
100
AcDbSymbolTableRecord
100
AcDbRegAppTableRecord
  2
EZDXF
 70
0
  0
ENDTAB
  0
TABLE
  2
DIMSTYLE
  5
4
330
0
100
AcDbSymbolTable
 70
1
100
AcDbDimStyleTable
  0
DIMSTYLE
105
2B
330
4
100
AcDbSymbolTableRecord
100
AcDbDimStyleTableRecord
  2
Standard
 70
0
 40
1.0
 41
2.5
 42
0.625
 43
3.75
 44
1.25
 45
0.0
 46
0.0
 47
0.0
 48
0.0
 49
2.5
140
2.5
141
2.5
142
0.0
143
0.03937007874
144
1.0
145
0.0
146
1.0
147
0.625
148
0.0
 69
0
 70
0
 71
0
 72
0
 73
0
 74
0
 75
0
 76
0
 77
1
 78
8
 79
3
170
0
171
3
172
1
173
0
174
0
175
0
176
0
177
0
178
0
179
2
271
2
272
2
273
2
274
3
275
0
276
0
277
2
278
44
279
0
280
0
281
0
282
0
283
0
284
8
285
0
286
0
288
0
289
3
290
0
371
-2
372
-2
  0
ENDTAB
  0
TABLE
  2
BLOCK_RECORD
  5
9
330
0
100
AcDbSymbolTable
 70
2
  0
BLOCK_RECORD
  5
17
330
9
100
AcDbSymbolTableRecord
100
AcDbBlockTableRecord
  2
*Model_Space
340
1A
 70
0
280
1
281
0
  0
BLOCK_RECORD
  5
1B
330
9
100
AcDbSymbolTableRecord
100
AcDbBlockTableRecord
  2
*Paper_Space
340
1E
 70
0
280
1
281
0
  0
ENDTAB
  0
ENDSEC
  0
SECTION
  2
BLOCKS
  0
BLOCK
  5
18
330
17
100
AcDbEntity
  8
0
100
AcDbBlockBegin
  2
*Model_Space
 70
0
 10
0.0
 20
0.0
 30
0.0
  3
*Model_Space
  1

  0
ENDBLK
  5
19
330
17
100
AcDbEntity
  8
0
100
AcDbBlockEnd
  0
BLOCK
  5
1C
330
1B
100
AcDbEntity
  8
0
100
AcDbBlockBegin
  2
*Paper_Space
 70
0
 10
0.0
 20
0.0
 30
0.0
  3
*Paper_Space
  1

  0
ENDBLK
  5
1D
330
1B
100
AcDbEntity
  8
0
100
AcDbBlockEnd
  0
ENDSEC
  0
SECTION
  2
ENTITIES
  0
LWPOLYLINE
  5
37
330
17
100
AcDbEntity
  8
BORDER
100
AcDbPolyline
 90
4
 70
1
 10
0.0
 20
0.0
 10
210.0
 20
0.0
 10
210.0
 20
297.0
 10
0.0
 20
297.0
  0
LWPOLYLINE
  5
38
330
17
100
AcDbEntity
  8
BORDER
370
50
100
AcDbPolyline
 90
4
 70
1
 10
10.0
 20
10.0
 10
200.0
 20
10.0
 10
200.0
 20
287.0
 10
10.0
 20
287.0
  0
TEXT
  5
39
330
17
100
AcDbEntity
  8
BORDER
100
AcDbText
 10
12.0
 20
113.0
 30
0.0
 40
1.8
  1
Ang. nach ISO 10110; λ = 546.07 nm
100
AcDbText
 73
1
  0
TEXT
  5
3A
330
17
100
AcDbEntity
  8
BORDER
100
AcDbText
 10
12.0
 20
282.0
 30
0.0
 40
2.5
  1
f′ = 18.85 mm
100
AcDbText
 73
3
  0
LWPOLYLINE
  5
3B
330
17
100
AcDbEntity
  8
BORDER
100
AcDbPolyline
 90
4
 70
1
 10
10.0
 20
10.0
 10
200.0
 20
10.0
 10
200.0
 20
38.0
 10
10.0
 20
38.0
  0
LINE
  5
3C
330
17
100
AcDbEntity
  8
BORDER
100
AcDbLine
 10
10.0
 20
23.0
 30
0.0
 11
200.0
 21
23.0
 31
0.0
  0
LINE
  5
3D
330
17
100
AcDbEntity
  8
BORDER
100
AcDbLine
 10
74.60000000000001
 20
23.0
 30
0.0
 11
74.60000000000001
 21
38.0
 31
0.0
  0
LINE
  5
3E
330
17
100
AcDbEntity
  8
BORDER
100
AcDbLine
 10
101.20000000000002
 20
23.0
 30
0.0
 11
101.20000000000002
 21
38.0
 31
0.0
  0
LINE
  5
3F
330
17
100
AcDbEntity
  8
BORDER
100
AcDbLine
 10
127.80000000000001
 20
23.0
 30
0.0
 11
127.80000000000001
 21
38.0
 31
0.0
  0
LINE
  5
40
330
17
100
AcDbEntity
  8
BORDER
100
AcDbLine
 10
154.4
 20
23.0
 30
0.0
 11
154.4
 21
38.0
 31
0.0
  0
LINE
  5
41
330
17
100
AcDbEntity
  8
BORDER
100
AcDbLine
 10
177.20000000000002
 20
23.0
 30
0.0
 11
177.20000000000002
 21
38.0
 31
0.0
  0
LINE
  5
42
330
17
100
AcDbEntity
  8
BORDER
100
AcDbLine
 10
188.60000000000002
 20
23.0
 30
0.0
 11
188.60000000000002
 21
38.0
 31
0.0
  0
TEXT
  5
43
330
17
100
AcDbEntity
  8
BORDER
100
AcDbText
 10
42.300000000000004
 20
26.75
 30
0.0
 40
1.8
  1
ORGANISATION / PROJECT / PART NO.
 72
4
 11
42.300000000000004
 21
26.75
 31
0.0
100
AcDbText
 73
2
  0
TEXT
  5
44
330
17
100
AcDbEntity
  8
BORDER
100
AcDbText
 10
42.300000000000004
 20
33.5
 30
0.0
 40
2.5
  1
5-Element Photographic Objective   OPT-005
 72
4
 11
42.300000000000004
 21
33.5
 31
0.0
100
AcDbText
 73
2
  0
TEXT
  5
45
330
17
100
AcDbEntity
  8
BORDER
100
AcDbText
 10
87.9
 20
26.75
 30
0.0
 40
1.8
  1
DRAWN BY
 72
4
 11
87.9
 21
26.75
 31
0.0
100
AcDbText
 73
2
  0
TEXT
  5
46
330
17
100
AcDbEntity
  8
BORDER
100
AcDbText
 10
87.9
 20
33.5
 30
0.0
 40
2.5
  1
B. Lutzer
 72
4
 11
87.9
 21
33.5
 31
0.0
100
AcDbText
 73
2
  0
TEXT
  5
47
330
17
100
AcDbEntity
  8
BORDER
100
AcDbText
 10
114.50000000000001
 20
26.75
 30
0.0
 40
1.8
  1
APPROVED
 72
4
 11
114.50000000000001
 21
26.75
 31
0.0
100
AcDbText
 73
2
  0
TEXT
  5
48
330
17
100
AcDbEntity
  8
BORDER
100
AcDbText
 10
114.50000000000001
 20
33.5
 30
0.0
 40
2.5
  1
—
 72
4
 11
114.50000000000001
 21
33.5
 31
0.0
100
AcDbText
 73
2
  0
TEXT
  5
49
330
17
100
AcDbEntity
  8
BORDER
100
AcDbText
 10
141.10000000000002
 20
26.75
 30
0.0
 40
1.8
  1
DATE
 72
4
 11
141.10000000000002
 21
26.75
 31
0.0
100
AcDbText
 73
2
  0
TEXT
  5
4A
330
17
100
AcDbEntity
  8
BORDER
100
AcDbText
 10
141.10000000000002
 20
33.5
 30
0.0
 40
2.5
  1
2026-07-26
 72
4
 11
141.10000000000002
 21
33.5
 31
0.0
100
AcDbText
 73
2
  0
TEXT
  5
4B
330
17
100
AcDbEntity
  8
BORDER
100
AcDbText
 10
165.8
 20
26.75
 30
0.0
 40
1.8
  1
SCALE
 72
4
 11
165.8
 21
26.75
 31
0.0
100
AcDbText
 73
2
  0
TEXT
  5
4C
330
17
100
AcDbEntity
  8
BORDER
100
AcDbText
 10
165.8
 20
33.5
 30
0.0
 40
2.5
  1
6:1
 72
4
 11
165.8
 21
33.5
 31
0.0
100
AcDbText
 73
2
  0
TEXT
  5
4D
330
17
100
AcDbEntity
  8
BORDER
100
AcDbText
 10
182.90000000000003
 20
26.75
 30
0.0
 40
1.8
  1
SHEET
 72
4
 11
182.90000000000003
 21
26.75
 31
0.0
100
AcDbText
 73
2
  0
TEXT
  5
4E
330
17
100
AcDbEntity
  8
BORDER
100
AcDbText
 10
182.90000000000003
 20
33.5
 30
0.0
 40
2.5
  1
5 / 5
 72
4
 11
182.90000000000003
 21
33.5
 31
0.0
100
AcDbText
 73
2
  0
TEXT
  5
4F
330
17
100
AcDbEntity
  8
BORDER
100
AcDbText
 10
194.3
 20
26.75
 30
0.0
 40
1.8
  1
REV
 72
4
 11
194.3
 21
26.75
 31
0.0
100
AcDbText
 73
2
  0
TEXT
  5
50
330
17
100
AcDbEntity
  8
BORDER
100
AcDbText
 10
194.3
 20
33.5
 30
0.0
 40
2.5
  1
A
 72
4
 11
194.3
 21
33.5
 31
0.0
100
AcDbText
 73
2
  0
LINE
  5
51
330
17
100
AcDbEntity
  8
BORDER
100
AcDbLine
 10
124.0
 20
10.0
 30
0.0
 11
124.0
 21
23.0
 31
0.0
  0
TEXT
  5
52
330
17
100
AcDbEntity
  8
BORDER
100
AcDbText
 10
12.0
 20
21.5
 30
0.0
 40
1.8
  1
NOTES
100
AcDbText
 73
3
  0
TEXT
  5
53
330
17
100
AcDbEntity
  8
BORDER
100
AcDbText
 10
146.8
 20
21.5
 30
0.0
 40
1.8
  1
DIM. IN mm
 72
4
 11
146.8
 21
21.5
 31
0.0
100
AcDbText
 73
3
  0
TEXT
  5
54
330
17
100
AcDbEntity
  8
BORDER
100
AcDbText
 10
146.8
 20
17.7
 30
0.0
 40
1.8
  1
GENERAL TOL. PER ISO 10110-11
 72
4
 11
146.8
 21
17.7
 31
0.0
100
AcDbText
 73
1
  0
TEXT
  5
55
330
17
100
AcDbEntity
  8
BORDER
100
AcDbText
 10
146.8
 20
15.3
 30
0.0
 40
1.8
  1
Ø±0.10  CT±0.15  3/ 5  4/ 3′  5/ 2×0.063
 72
4
 11
146.8
 21
15.3
 31
0.0
100
AcDbText
 73
3
  0
CIRCLE
  5
56
330
17
100
AcDbEntity
  8
BORDER
100
AcDbCircle
 10
180.61400000000003
 20
16.5
 30
0.0
 40
3.6400000000000006
  0
CIRCLE
  5
57
330
17
100
AcDbEntity
  8
BORDER
100
AcDbCircle
 10
180.61400000000003
 20
16.5
 30
0.0
 40
2.184
  0
LWPOLYLINE
  5
58
330
17
100
AcDbEntity
  8
BORDER
100
AcDbPolyline
 90
4
 70
1
 10
186.074
 20
20.14
 10
192.626
 20
18.684
 10
192.626
 20
14.315999999999999
 10
186.074
 20
12.86
  0
LINE
  5
59
330
17
100
AcDbEntity
  8
AXIS
100
AcDbLine
 10
175.88200000000003
 20
16.5
 30
0.0
 11
194.446
 21
16.5
 31
0.0
  0
LWPOLYLINE
  5
5A
330
17
100
AcDbEntity
  8
TABLE
100
AcDbPolyline
 90
4
 70
1
 10
10.0
 20
38.0
 10
200.0
 20
38.0
 10
200.0
 20
110.0
 10
10.0
 20
110.0
  0
LINE
  5
5B
330
17
100
AcDbEntity
  8
TABLE
100
AcDbLine
 10
73.33333333333334
 20
38.0
 30
0.0
 11
73.33333333333334
 21
110.0
 31
0.0
  0
LINE
  5
5C
330
17
100
AcDbEntity
  8
TABLE
100
AcDbLine
 10
136.66666666666669
 20
38.0
 30
0.0
 11
136.66666666666669
 21
110.0
 31
0.0
  0
LINE
  5
5D
330
17
100
AcDbEntity
  8
TABLE
100
AcDbLine
 10
10.0
 20
103.0
 30
0.0
 11
200.0
 21
103.0
 31
0.0
  0
TEXT
  5
5E
330
17
100
AcDbEntity
  8
TABLE
100
AcDbText
 10
41.66666666666667
 20
106.5
 30
0.0
 40
2.0
  1
SURFACE 1 (FRONT)
 72
4
 11
41.66666666666667
 21
106.5
 31
0.0
100
AcDbText
 73
2
  0
TEXT
  5
5F
330
17
100
AcDbEntity
  8
TABLE
100
AcDbText
 10
12.0
 20
101.0
 30
0.0
 40
2.0
  1
R +40.000 CX
100
AcDbText
 73
3
  0
TEXT
  5
60
330
17
100
AcDbEntity
  8
TABLE
100
AcDbText
 10
12.0
 20
94.5
 30
0.0
 40
2.0
  1
Øₑ 18.71
100
AcDbText
 73
3
  0
TEXT
  5
61
330
17
100
AcDbEntity
  8
TABLE
100
AcDbText
 10
12.0
 20
88.0
 30
0.0
 40
2.0
  1
3/ (0.5); λ=546.1 nm
100
AcDbText
 73
3
  0
TEXT
  5
62
330
17
100
AcDbEntity
  8
TABLE
100
AcDbText
 10
12.0
 20
81.5
 30
0.0
 40
2.0
  1
4/ 0.5′
100
AcDbText
 73
3
  0
TEXT
  5
63
330
17
100
AcDbEntity
  8
TABLE
100
AcDbText
 10
12.0
 20
75.0
 30
0.0
 40
2.0
  1
5/ 2×0.04
100
AcDbText
 73
3
  0
TEXT
  5
64
330
17
100
AcDbEntity
  8
TABLE
100
AcDbText
 10
12.0
 20
68.5
 30
0.0
 40
2.0
  1
6/ —
100
AcDbText
 73
3
  0
TEXT
  5
65
330
17
100
AcDbEntity
  8
TABLE
100
AcDbText
 10
12.0
 20
62.0
 30
0.0
 40
2.0
  1

100
AcDbText
 73
3
  0
TEXT
  5
66
330
17
100
AcDbEntity
  8
TABLE
100
AcDbText
 10
12.0
 20
55.5
 30
0.0
 40
2.0
  1
13/ —
100
AcDbText
 73
3
  0
CIRCLE
  5
67
330
17
100
AcDbEntity
  8
TABLE
100
AcDbCircle
 10
13.5
 20
60.5
 30
0.0
 40
1.5
  0
TEXT
  5
68
330
17
100
AcDbEntity
  8
TABLE
100
AcDbText
 10
13.5
 20
60.5
 30
0.0
 40
2.0999999999999996
  1
λ
 72
4
 11
13.5
 21
60.5
 31
0.0
100
AcDbText
 73
2
  0
TEXT
  5
69
330
17
100
AcDbEntity
  8
TABLE
100
AcDbText
 10
16.0
 20
60.5
 30
0.0
 40
2.0
  1
7/ —
100
AcDbText
 73
2
  0
TEXT
  5
6A
330
17
100
AcDbEntity
  8
TABLE
100
AcDbText
 10
168.33333333333334
 20
106.5
 30
0.0
 40
2.0
  1
SURFACE 2 (REAR)
 72
4
 11
168.33333333333334
 21
106.5
 31
0.0
100
AcDbText
 73
2
  0
TEXT
  5
6B
330
17
100
AcDbEntity
  8
TABLE
100
AcDbText
 10
138.66666666666669
 20
101.0
 30
0.0
 40
2.0
  1
R -48.000 CX
100
AcDbText
 73
3
  0
TEXT
  5
6C
330
17
100
AcDbEntity
  8
TABLE
100
AcDbText
 10
138.66666666666669
 20
94.5
 30
0.0
 40
2.0
  1
Øₑ 17.20
100
AcDbText
 73
3
  0
TEXT
  5
6D
330
17
100
AcDbEntity
  8
TABLE
100
AcDbText
 10
138.66666666666669
 20
88.0
 30
0.0
 40
2.0
  1
3/ (0.5); λ=546.1 nm
100
AcDbText
 73
3
  0
TEXT
  5
6E
330
17
100
AcDbEntity
  8
TABLE
100
AcDbText
 10
138.66666666666669
 20
81.5
 30
0.0
 40
2.0
  1
4/ 0.5′
100
AcDbText
 73
3
  0
TEXT
  5
6F
330
17
100
AcDbEntity
  8
TABLE
100
AcDbText
 10
138.66666666666669
 20
75.0
 30
0.0
 40
2.0
  1
5/ 2×0.04
100
AcDbText
 73
3
  0
TEXT
  5
70
330
17
100
AcDbEntity
  8
TABLE
100
AcDbText
 10
138.66666666666669
 20
68.5
 30
0.0
 40
2.0
  1
6/ —
100
AcDbText
 73
3
  0
TEXT
  5
71
330
17
100
AcDbEntity
  8
TABLE
100
AcDbText
 10
138.66666666666669
 20
62.0
 30
0.0
 40
2.0
  1

100
AcDbText
 73
3
  0
TEXT
  5
72
330
17
100
AcDbEntity
  8
TABLE
100
AcDbText
 10
138.66666666666669
 20
55.5
 30
0.0
 40
2.0
  1
13/ —
100
AcDbText
 73
3
  0
CIRCLE
  5
73
330
17
100
AcDbEntity
  8
TABLE
100
AcDbCircle
 10
140.16666666666669
 20
60.5
 30
0.0
 40
1.5
  0
TEXT
  5
74
330
17
100
AcDbEntity
  8
TABLE
100
AcDbText
 10
140.16666666666669
 20
60.5
 30
0.0
 40
2.0999999999999996
  1
λ
 72
4
 11
140.16666666666669
 21
60.5
 31
0.0
100
AcDbText
 73
2
  0
TEXT
  5
75
330
17
100
AcDbEntity
  8
TABLE
100
AcDbText
 10
142.66666666666669
 20
60.5
 30
0.0
 40
2.0
  1
7/ —
100
AcDbText
 73
2
  0
TEXT
  5
76
330
17
100
AcDbEntity
  8
TABLE
100
AcDbText
 10
105.0
 20
106.5
 30
0.0
 40
2.0
  1
MATERIAL
 72
4
 11
105.0
 21
106.5
 31
0.0
100
AcDbText
 73
2
  0
TEXT
  5
77
330
17
100
AcDbEntity
  8
TABLE
100
AcDbText
 10
75.33333333333334
 20
101.0
 30
0.0
 40
2.0
  1
N-LAK22
100
AcDbText
 73
3
  0
TEXT
  5
78
330
17
100
AcDbEntity
  8
TABLE
100
AcDbText
 10
75.33333333333334
 20
94.5
 30
0.0
 40
2.0
  1
nd = 1.6511  (587.6 nm)
100
AcDbText
 73
3
  0
TEXT
  5
79
330
17
100
AcDbEntity
  8
TABLE
100
AcDbText
 10
75.33333333333334
 20
88.0
 30
0.0
 40
2.0
  1
νd = 55.89  (587.6 nm)
100
AcDbText
 73
3
  0
TEXT
  5
7A
330
17
100
AcDbEntity
  8
TABLE
100
AcDbText
 10
75.33333333333334
 20
81.5
 30
0.0
 40
2.0
  1
0/ 10 nm/cm
100
AcDbText
 73
3
  0
TEXT
  5
7B
330
17
100
AcDbEntity
  8
TABLE
100
AcDbText
 10
75.33333333333334
 20
75.0
 30
0.0
 40
2.0
  1
1/ 1×0.16
100
AcDbText
 73
3
  0
TEXT
  5
7C
330
17
100
AcDbEntity
  8
TABLE
100
AcDbText
 10
75.33333333333334
 20
68.5
 30
0.0
 40
2.0
  1
2/ NH010; A
100
AcDbText
 73
3
  0
LINE
  5
7D
330
17
100
AcDbEntity
  8
AXIS
100
AcDbLine
 10
76.50014124624678
 20
198.5
 30
0.0
 11
133.49985875375327
 21
198.5
 31
0.0
  0
TEXT
  5
7E
330
17
100
AcDbEntity
  8
AXIS
100
AcDbText
 10
75.50014124624678
 20
198.5
 30
0.0
 40
2.0
  1
opt./rot. axis
 72
2
 11
75.50014124624678
 21
198.5
 31
0.0
100
AcDbText
 73
2
  0
LWPOLYLINE
  5
7F
330
17
100
AcDbEntity
  8
OUTLINE
370
50
100
AcDbPolyline
 90
402
 70
1
 10
98.15733904994659
 20
142.36432480117728
 10
98.02233486906238
 20
142.92850244136645
 10
97.88877120770314
 20
143.49268008155565
 10
97.75664559648001
 20
144.0568577217448
 10
97.6259555981417
 20
144.621035361934
 10
97.49669880733404
 20
145.18521300212313
 10
97.36887285036377
 20
145.74939064231233
 10
97.24247538496607
 20
146.31356828250148
 10
97.11750410007585
 20
146.87774592269068
 10
96.99395671560305
 20
147.44192356287982
 10
96.87183098221172
 20
148.00610120306902
 10
96.75112468110277
 20
148.5702788432582
 10
96.63183562380027
 20
149.13445648344737
 10
96.51396165194154
 20
149.69863412363654
 10
96.39750063707086
 20
150.2628117638257
 10
96.28245048043632
 20
150.82698940401488
 10
96.16880911279063
 20
151.39116704420405
 10
96.05657449419496
 20
151.95534468439322
 10
95.94574461382646
 20
152.5195223245824
 10
95.83631748978897
 20
153.08369996477157
 10
95.72829116892689
 20
153.64787760496074
 10
95.62166372664262
 20
154.2120552451499
 10
95.51643326671689
 20
154.77623288533908
 10
95.41259792113243
 20
155.34041052552826
 10
95.31015584990084
 20
155.90458816571743
 10
95.20910524089223
 20
156.4687658059066
 10
95.10944430966836
 20
157.03294344609577
 10
95.01117129931836
 20
157.59712108628497
 10
94.91428448029771
 20
158.16129872647412
 10
94.81878215026998
 20
158.72547636666332
 10
94.72466263395174
 20
159.28965400685246
 10
94.63192428295989
 20
159.85383164704166
 10
94.54056547566236
 20
160.4180092872308
 10
94.45058461703124
 20
160.98218692742
 10
94.3619801384987
 20
161.54636456760915
 10
94.274750497816
 20
162.11054220779835
 10
94.1888941789147
 20
162.67471984798752
 10
94.10440969177088
 20
163.2388974881767
 10
94.02129557227207
 20
163.80307512836586
 10
93.93955038208648
 20
164.36725276855503
 10
93.85917270853523
 20
164.9314304087442
 10
93.78016116446665
 20
165.49560804893338
 10
93.7025143881337
 20
166.05978568912255
 10
93.62623104307337
 20
166.62396332931172
 10
93.55130981798905
 20
167.1881409695009
 10
93.47774942663486
 20
167.75231860969006
 10
93.40554860770294
 20
168.31649624987924
 10
93.33470612471265
 20
168.8806738900684
 10
93.26522076590274
 20
169.44485153025758
 10
93.19709134412511
 20
170.00902917044675
 10
93.13031669674186
 20
170.57320681063595
 10
93.06489568552385
 20
171.1373844508251
 10
93.00082719655208
 20
171.70156209101427
 10
92.93811014012104
 20
172.26573973120344
 10
92.8767434506446
 20
172.82991737139264
 10
92.81672608656388
 20
173.39409501158178
 10
92.75805703025762
 20
173.95827265177098
 10
92.70073528795447
 20
174.52245029196015
 10
92.64475988964782
 20
175.08662793214933
 10
92.59012988901227
 20
175.6508055723385
 10
92.53684436332301
 20
176.21498321252767
 10
92.48490241337663
 20
176.77916085271684
 10
92.43430316341451
 20
177.343338492906
 10
92.38504576104799
 20
177.90751613309519
 10
92.33712937718607
 20
178.47169377328436
 10
92.29055320596467
 20
179.03587141347353
 10
92.24531646467838
 20
179.6000490536627
 10
92.201418393714
 20
180.16422669385187
 10
92.1588582564863
 20
180.72840433404104
 10
92.11763533937565
 20
181.29258197423022
 10
92.07774895166787
 20
181.8567596144194
 10
92.03919842549575
 20
182.42093725460856
 10
92.00198311578296
 20
182.98511489479773
 10
91.96610240018953
 20
183.5492925349869
 10
91.93155567905981
 20
184.11347017517608
 10
91.89834237537181
 20
184.67764781536525
 10
91.86646193468894
 20
185.24182545555442
 10
91.83591382511335
 20
185.80600309574362
 10
91.80669753724163
 20
186.37018073593276
 10
91.77881258412194
 20
186.93435837612196
 10
91.75225850121336
 20
187.49853601631114
 10
91.7270348463471
 20
188.0627136565003
 10
91.7031411996895
 20
188.62689129668948
 10
91.68057716370711
 20
189.19106893687865
 10
91.6593423631335
 20
189.75524657706782
 10
91.6394364449379
 20
190.319424217257
 10
91.62085907829581
 20
190.88360185744617
 10
91.60360995456162
 20
191.44777949763534
 10
91.58768878724285
 20
192.0119571378245
 10
91.5730953119762
 20
192.57613477801368
 10
91.55982928650573
 20
193.14031241820285
 10
91.54789049066278
 20
193.70449005839203
 10
91.53727872634741
 20
194.2686676985812
 10
91.52799381751234
 20
194.83284533877037
 10
91.52003561014794
 20
195.39702297895954
 10
91.51340397226986
 20
195.9612006191487
 10
91.50809879390772
 20
196.52537825933788
 10
91.50411998709617
 20
197.08955589952706
 10
91.50146748586769
 20
197.65373353971626
 10
91.50014124624678
 20
198.2179111799054
 10
91.50014124624678
 20
198.7820888200946
 10
91.50146748586769
 20
199.34626646028374
 10
91.50411998709617
 20
199.91044410047292
 10
91.50809879390772
 20
200.47462174066212
 10
91.51340397226986
 20
201.0387993808513
 10
91.52003561014794
 20
201.60297702104046
 10
91.52799381751234
 20
202.16715466122963
 10
91.53727872634741
 20
202.7313323014188
 10
91.54789049066278
 20
203.29550994160797
 10
91.55982928650573
 20
203.85968758179715
 10
91.5730953119762
 20
204.42386522198632
 10
91.58768878724285
 20
204.9880428621755
 10
91.60360995456162
 20
205.55222050236466
 10
91.62085907829581
 20
206.11639814255383
 10
91.6394364449379
 20
206.680575782743
 10
91.6593423631335
 20
207.24475342293218
 10
91.68057716370711
 20
207.80893106312135
 10
91.7031411996895
 20
208.37310870331052
 10
91.7270348463471
 20
208.9372863434997
 10
91.75225850121336
 20
209.50146398368886
 10
91.77881258412194
 20
210.06564162387804
 10
91.80669753724163
 20
210.6298192640672
 10
91.83591382511335
 20
211.19399690425638
 10
91.86646193468894
 20
211.75817454444558
 10
91.89834237537181
 20
212.32235218463472
 10
91.93155567905981
 20
212.88652982482392
 10
91.96610240018953
 20
213.45070746501307
 10
92.00198311578296
 20
214.01488510520227
 10
92.03919842549575
 20
214.57906274539144
 10
92.07774895166787
 20
215.1432403855806
 10
92.11763533937565
 20
215.70741802576978
 10
92.1588582564863
 20
216.27159566595896
 10
92.201418393714
 20
216.83577330614813
 10
92.24531646467838
 20
217.3999509463373
 10
92.29055320596467
 20
217.96412858652647
 10
92.33712937718607
 20
218.52830622671564
 10
92.38504576104799
 20
219.09248386690481
 10
92.43430316341451
 20
219.656661507094
 10
92.48490241337663
 20
220.22083914728316
 10
92.53684436332301
 20
220.78501678747233
 10
92.59012988901227
 20
221.3491944276615
 10
92.64475988964782
 20
221.91337206785067
 10
92.70073528795447
 20
222.47754970803985
 10
92.75805703025762
 20
223.04172734822902
 10
92.81672608656388
 20
223.6059049884182
 10
92.8767434506446
 20
224.17008262860736
 10
92.93811014012104
 20
224.73426026879653
 10
93.00082719655208
 20
225.2984379089857
 10
93.06489568552385
 20
225.8626155491749
 10
93.13031669674186
 20
226.42679318936405
 10
93.19709134412511
 20
226.99097082955325
 10
93.26522076590274
 20
227.5551484697424
 10
93.33470612471265
 20
228.1193261099316
 10
93.40554860770294
 20
228.68350375012076
 10
93.47774942663486
 20
229.24768139030994
 10
93.55130981798905
 20
229.8118590304991
 10
93.62623104307337
 20
230.37603667068828
 10
93.7025143881337
 20
230.94021431087745
 10
93.78016116446665
 20
231.50439195106662
 10
93.85917270853523
 20
232.0685695912558
 10
93.93955038208648
 20
232.63274723144497
 10
94.02129557227207
 20
233.19692487163414
 10
94.10440969177088
 20
233.7611025118233
 10
94.1888941789147
 20
234.32528015201248
 10
94.274750497816
 20
234.88945779220165
 10
94.3619801384987
 20
235.45363543239083
 10
94.45058461703124
 20
236.01781307258
 10
94.54056547566236
 20
236.58199071276917
 10
94.63192428295989
 20
237.14616835295834
 10
94.72466263395174
 20
237.7103459931475
 10
94.81878215026998
 20
238.27452363333668
 10
94.91428448029771
 20
238.83870127352588
 10
95.01117129931836
 20
239.40287891371503
 10
95.10944430966836
 20
239.96705655390423
 10
95.20910524089223
 20
240.5312341940934
 10
95.31015584990084
 20
241.09541183428254
 10
95.41259792113243
 20
241.65958947447172
 10
95.51643326671689
 20
242.22376711466092
 10
95.62166372664262
 20
242.7879447548501
 10
95.72829116892689
 20
243.35212239503926
 10
95.83631748978897
 20
243.91630003522843
 10
95.94574461382646
 20
244.4804776754176
 10
96.05657449419496
 20
245.04465531560678
 10
96.16880911279063
 20
245.60883295579595
 10
96.28245048043632
 20
246.17301059598512
 10
96.39750063707086
 20
246.7371882361743
 10
96.51396165194154
 20
247.30136587636346
 10
96.63183562380027
 20
247.86554351655263
 10
96.75112468110277
 20
248.4297211567418
 10
96.87183098221172
 20
248.99389879693098
 10
96.99395671560305
 20
249.55807643712015
 10
97.11750410007585
 20
250.12225407730932
 10
97.24247538496607
 20
250.68643171749852
 10
97.36887285036377
 20
251.25060935768767
 10
97.49669880733404
 20
251.81478699787684
 10
97.6259555981417
 20
252.378964638066
 10
97.75664559648001
 20
252.9431422782552
 10
97.88877120770314
 20
253.50731991844435
 10
98.02233486906238
 20
254.07149755863355
 10
98.15733904994659
 20
254.63567519882272
 10
112.9761443199931
 20
254.63567519882272
 10
112.9761443199931
 20
254.63567519882272
 10
113.08767629451856
 20
254.07149755863355
 10
113.19803834554577
 20
253.50731991844435
 10
113.30723184271946
 20
252.9431422782552
 10
113.41525813907876
 20
252.378964638066
 10
113.52211857114511
 20
251.81478699787684
 10
113.62781445900865
 20
251.25060935768767
 10
113.7323471064137
 20
250.68643171749852
 10
113.83571780084284
 20
250.12225407730932
 10
113.93792781359952
 20
249.55807643712015
 10
114.03897839988977
 20
248.99389879693098
 10
114.1388707989025
 20
248.4297211567418
 10
114.23760623388867
 20
247.86554351655263
 10
114.3351859122391
 20
247.30136587636346
 10
114.43161102556135
 20
246.7371882361743
 10
114.52688274975529
 20
246.17301059598512
 10
114.62100224508742
 20
245.60883295579595
 10
114.71397065626414
 20
245.04465531560678
 10
114.8057891125041
 20
244.4804776754176
 10
114.89645872760886
 20
243.91630003522843
 10
114.98598060003292
 20
243.35212239503926
 10
115.07435581295266
 20
242.7879447548501
 10
115.16158543433377
 20
242.22376711466092
 10
115.24767051699789
 20
241.65958947447172
 10
115.33261209868826
 20
241.09541183428254
 10
115.41641120213396
 20
240.5312341940934
 10
115.49906883511358
 20
239.96705655390423
 10
115.58058599051728
 20
239.40287891371503
 10
115.66096364640822
 20
238.83870127352588
 10
115.74020276608289
 20
238.27452363333668
 10
115.81830429813024
 20
237.7103459931475
 10
115.89526917649002
 20
237.14616835295834
 10
115.97109832050998
 20
236.58199071276917
 10
116.04579263500221
 20
236.01781307258
 10
116.11935301029823
 20
235.45363543239083
 10
116.19178032230334
 20
234.88945779220165
 10
116.26307543255004
 20
234.32528015201248
 10
116.33323918825025
 20
233.7611025118233
 10
116.40227242234673
 20
233.19692487163414
 10
116.47017595356348
 20
232.63274723144497
 10
116.53695058645556
 20
232.0685695912558
 10
116.60259711145707
 20
231.50439195106662
 10
116.66711630492941
 20
230.94021431087745
 10
116.7305089292075
 20
230.37603667068828
 10
116.79277573264599
 20
229.8118590304991
 10
116.85391744966401
 20
229.24768139030994
 10
116.91393480078898
 20
228.68350375012076
 10
116.97282849270013
 20
228.1193261099316
 10
117.03059921827037
 20
227.5551484697424
 10
117.08724765660784
 20
226.99097082955325
 10
117.14277447309624
 20
226.42679318936405
 10
117.19718031943452
 20
225.8626155491749
 10
117.25046583367569
 20
225.2984379089857
 10
117.30263164026448
 20
224.73426026879653
 10
117.35367835007449
 20
224.17008262860736
 10
117.40360656044436
 20
223.6059049884182
 10
117.4524168552131
 20
223.04172734822902
 10
117.50010980475449
 20
222.47754970803985
 10
117.54668596601098
 20
221.91337206785067
 10
117.59214588252618
 20
221.3491944276615
 10
117.63649008447717
 20
220.78501678747233
 10
117.67971908870535
 20
220.22083914728316
 10
117.7218333987473
 20
219.656661507094
 10
117.76283350486369
 20
219.09248386690481
 10
117.80271988406858
 20
218.52830622671564
 10
117.84149300015721
 20
217.96412858652647
 10
117.87915330373292
 20
217.3999509463373
 10
117.91570123223372
 20
216.83577330614813
 10
117.95113720995792
 20
216.27159566595896
 10
117.9854616480886
 20
215.70741802576978
 10
118.01867494471787
 20
215.1432403855806
 10
118.05077748486988
 20
214.57906274539144
 10
118.08176964052345
 20
214.01488510520227
 10
118.11165177063347
 20
213.45070746501307
 10
118.14042422115185
 20
212.88652982482392
 10
118.16808732504782
 20
212.32235218463472
 10
118.194641402327
 20
211.75817454444558
 10
118.22008676005007
 20
211.19399690425638
 10
118.24442369235052
 20
210.6298192640672
 10
118.26765248045191
 20
210.06564162387804
 10
118.28977339268386
 20
209.50146398368886
 10
118.31078668449777
 20
208.9372863434997
 10
118.33069259848153
 20
208.37310870331052
 10
118.34949136437368
 20
207.80893106312135
 10
118.36718319907641
 20
207.24475342293218
 10
118.38376830666843
 20
206.680575782743
 10
118.39924687841645
 20
206.11639814255383
 10
118.41361909278638
 20
205.55222050236466
 10
118.42688511545381
 20
204.9880428621755
 10
118.43904509931306
 20
204.42386522198632
 10
118.45009918448659
 20
203.85968758179715
 10
118.46004749833256
 20
203.29550994160797
 10
118.46889015545256
 20
202.7313323014188
 10
118.47662725769797
 20
202.16715466122963
 10
118.48325889417598
 20
201.60297702104046
 10
118.48878514125465
 20
201.0387993808513
 10
118.49320606256728
 20
200.47462174066212
 10
118.4965217090161
 20
199.91044410047292
 10
118.49873211877528
 20
199.34626646028374
 10
118.49983731729301
 20
198.7820888200946
 10
118.49983731729301
 20
198.2179111799054
 10
118.49873211877528
 20
197.65373353971626
 10
118.4965217090161
 20
197.08955589952706
 10
118.49320606256728
 20
196.52537825933788
 10
118.48878514125465
 20
195.9612006191487
 10
118.48325889417598
 20
195.39702297895954
 10
118.47662725769797
 20
194.83284533877037
 10
118.46889015545256
 20
194.2686676985812
 10
118.46004749833256
 20
193.70449005839203
 10
118.45009918448659
 20
193.14031241820285
 10
118.43904509931306
 20
192.57613477801368
 10
118.42688511545381
 20
192.0119571378245
 10
118.41361909278638
 20
191.44777949763534
 10
118.39924687841645
 20
190.88360185744617
 10
118.38376830666843
 20
190.319424217257
 10
118.36718319907641
 20
189.75524657706782
 10
118.34949136437368
 20
189.19106893687865
 10
118.33069259848153
 20
188.62689129668948
 10
118.31078668449777
 20
188.0627136565003
 10
118.28977339268386
 20
187.49853601631114
 10
118.26765248045191
 20
186.93435837612196
 10
118.24442369235052
 20
186.37018073593276
 10
118.22008676005007
 20
185.80600309574362
 10
118.194641402327
 20
185.24182545555442
 10
118.16808732504782
 20
184.67764781536525
 10
118.14042422115185
 20
184.11347017517608
 10
118.11165177063347
 20
183.5492925349869
 10
118.08176964052345
 20
182.98511489479773
 10
118.05077748486988
 20
182.42093725460856
 10
118.01867494471787
 20
181.8567596144194
 10
117.9854616480886
 20
181.29258197423022
 10
117.95113720995792
 20
180.72840433404104
 10
117.91570123223372
 20
180.16422669385187
 10
117.87915330373292
 20
179.6000490536627
 10
117.84149300015721
 20
179.03587141347353
 10
117.80271988406858
 20
178.47169377328436
 10
117.76283350486369
 20
177.90751613309519
 10
117.7218333987473
 20
177.343338492906
 10
117.67971908870535
 20
176.77916085271684
 10
117.63649008447717
 20
176.21498321252767
 10
117.59214588252618
 20
175.6508055723385
 10
117.54668596601098
 20
175.08662793214933
 10
117.50010980475449
 20
174.52245029196015
 10
117.4524168552131
 20
173.95827265177098
 10
117.40360656044436
 20
173.39409501158178
 10
117.35367835007449
 20
172.82991737139264
 10
117.30263164026448
 20
172.26573973120344
 10
117.25046583367569
 20
171.70156209101427
 10
117.19718031943452
 20
171.1373844508251
 10
117.14277447309624
 20
170.57320681063595
 10
117.08724765660784
 20
170.00902917044675
 10
117.03059921827037
 20
169.44485153025758
 10
116.97282849270013
 20
168.8806738900684
 10
116.91393480078898
 20
168.31649624987924
 10
116.85391744966401
 20
167.75231860969006
 10
116.79277573264599
 20
167.1881409695009
 10
116.7305089292075
 20
166.62396332931172
 10
116.66711630492941
 20
166.05978568912255
 10
116.60259711145707
 20
165.49560804893338
 10
116.53695058645556
 20
164.9314304087442
 10
116.47017595356348
 20
164.36725276855503
 10
116.40227242234673
 20
163.80307512836586
 10
116.33323918825025
 20
163.2388974881767
 10
116.26307543255004
 20
162.67471984798752
 10
116.19178032230334
 20
162.11054220779835
 10
116.11935301029823
 20
161.54636456760915
 10
116.04579263500221
 20
160.98218692742
 10
115.97109832050998
 20
160.4180092872308
 10
115.89526917649002
 20
159.85383164704166
 10
115.81830429813024
 20
159.28965400685246
 10
115.74020276608289
 20
158.72547636666332
 10
115.66096364640822
 20
158.16129872647412
 10
115.58058599051728
 20
157.59712108628497
 10
115.49906883511358
 20
157.03294344609577
 10
115.41641120213396
 20
156.4687658059066
 10
115.33261209868826
 20
155.90458816571743
 10
115.24767051699789
 20
155.34041052552826
 10
115.16158543433377
 20
154.77623288533908
 10
115.07435581295266
 20
154.2120552451499
 10
114.98598060003292
 20
153.64787760496074
 10
114.89645872760886
 20
153.08369996477157
 10
114.8057891125041
 20
152.5195223245824
 10
114.71397065626414
 20
151.95534468439322
 10
114.62100224508742
 20
151.39116704420405
 10
114.52688274975529
 20
150.82698940401488
 10
114.43161102556135
 20
150.2628117638257
 10
114.3351859122391
 20
149.69863412363654
 10
114.23760623388867
 20
149.13445648344737
 10
114.1388707989025
 20
148.5702788432582
 10
114.03897839988977
 20
148.00610120306902
 10
113.93792781359952
 20
147.44192356287982
 10
113.83571780084284
 20
146.87774592269068
 10
113.7323471064137
 20
146.31356828250148
 10
113.62781445900865
 20
145.74939064231233
 10
113.52211857114509
 20
145.18521300212313
 10
113.41525813907876
 20
144.621035361934
 10
113.30723184271946
 20
144.0568577217448
 10
113.19803834554577
 20
143.49268008155565
 10
113.08767629451856
 20
142.92850244136645
 10
112.9761443199931
 20
142.36432480117728
 10
98.15733904994659
 20
142.36432480117728
  0
HATCH
  5
80
330
17
100
AcDbEntity
  8
OUTLINE
 62
7
100
AcDbHatch
 10
0.0
 20
0.0
 30
0.0
210
0.0
220
0.0
230
1.0
  2
ANSI31
 70
0
 71
0
 91
1
 92
3
 72
0
 73
1
 93
402
 10
98.15733904994659
 20
142.36432480117728
 10
98.02233486906238
 20
142.92850244136645
 10
97.88877120770314
 20
143.49268008155565
 10
97.75664559648001
 20
144.0568577217448
 10
97.6259555981417
 20
144.621035361934
 10
97.49669880733404
 20
145.18521300212313
 10
97.36887285036377
 20
145.74939064231233
 10
97.24247538496607
 20
146.31356828250148
 10
97.11750410007585
 20
146.87774592269068
 10
96.99395671560305
 20
147.44192356287982
 10
96.87183098221172
 20
148.00610120306902
 10
96.75112468110277
 20
148.5702788432582
 10
96.63183562380027
 20
149.13445648344737
 10
96.51396165194154
 20
149.69863412363654
 10
96.39750063707086
 20
150.2628117638257
 10
96.28245048043632
 20
150.82698940401488
 10
96.16880911279063
 20
151.39116704420405
 10
96.05657449419496
 20
151.95534468439322
 10
95.94574461382646
 20
152.5195223245824
 10
95.83631748978897
 20
153.08369996477157
 10
95.72829116892689
 20
153.64787760496074
 10
95.62166372664262
 20
154.2120552451499
 10
95.51643326671689
 20
154.77623288533908
 10
95.41259792113243
 20
155.34041052552826
 10
95.31015584990084
 20
155.90458816571743
 10
95.20910524089223
 20
156.4687658059066
 10
95.10944430966836
 20
157.03294344609577
 10
95.01117129931836
 20
157.59712108628497
 10
94.91428448029771
 20
158.16129872647412
 10
94.81878215026998
 20
158.72547636666332
 10
94.72466263395174
 20
159.28965400685246
 10
94.63192428295989
 20
159.85383164704166
 10
94.54056547566236
 20
160.4180092872308
 10
94.45058461703124
 20
160.98218692742
 10
94.3619801384987
 20
161.54636456760915
 10
94.274750497816
 20
162.11054220779835
 10
94.1888941789147
 20
162.67471984798752
 10
94.10440969177088
 20
163.2388974881767
 10
94.02129557227207
 20
163.80307512836586
 10
93.93955038208648
 20
164.36725276855503
 10
93.85917270853523
 20
164.9314304087442
 10
93.78016116446665
 20
165.49560804893338
 10
93.7025143881337
 20
166.05978568912255
 10
93.62623104307337
 20
166.62396332931172
 10
93.55130981798905
 20
167.1881409695009
 10
93.47774942663486
 20
167.75231860969006
 10
93.40554860770294
 20
168.31649624987924
 10
93.33470612471265
 20
168.8806738900684
 10
93.26522076590274
 20
169.44485153025758
 10
93.19709134412511
 20
170.00902917044675
 10
93.13031669674186
 20
170.57320681063595
 10
93.06489568552385
 20
171.1373844508251
 10
93.00082719655208
 20
171.70156209101427
 10
92.93811014012104
 20
172.26573973120344
 10
92.8767434506446
 20
172.82991737139264
 10
92.81672608656388
 20
173.39409501158178
 10
92.75805703025762
 20
173.95827265177098
 10
92.70073528795447
 20
174.52245029196015
 10
92.64475988964782
 20
175.08662793214933
 10
92.59012988901227
 20
175.6508055723385
 10
92.53684436332301
 20
176.21498321252767
 10
92.48490241337663
 20
176.77916085271684
 10
92.43430316341451
 20
177.343338492906
 10
92.38504576104799
 20
177.90751613309519
 10
92.33712937718607
 20
178.47169377328436
 10
92.29055320596467
 20
179.03587141347353
 10
92.24531646467838
 20
179.6000490536627
 10
92.201418393714
 20
180.16422669385187
 10
92.1588582564863
 20
180.72840433404104
 10
92.11763533937565
 20
181.29258197423022
 10
92.07774895166787
 20
181.8567596144194
 10
92.03919842549575
 20
182.42093725460856
 10
92.00198311578296
 20
182.98511489479773
 10
91.96610240018953
 20
183.5492925349869
 10
91.93155567905981
 20
184.11347017517608
 10
91.89834237537181
 20
184.67764781536525
 10
91.86646193468894
 20
185.24182545555442
 10
91.83591382511335
 20
185.80600309574362
 10
91.80669753724163
 20
186.37018073593276
 10
91.77881258412194
 20
186.93435837612196
 10
91.75225850121336
 20
187.49853601631114
 10
91.7270348463471
 20
188.0627136565003
 10
91.7031411996895
 20
188.62689129668948
 10
91.68057716370711
 20
189.19106893687865
 10
91.6593423631335
 20
189.75524657706782
 10
91.6394364449379
 20
190.319424217257
 10
91.62085907829581
 20
190.88360185744617
 10
91.60360995456162
 20
191.44777949763534
 10
91.58768878724285
 20
192.0119571378245
 10
91.5730953119762
 20
192.57613477801368
 10
91.55982928650573
 20
193.14031241820285
 10
91.54789049066278
 20
193.70449005839203
 10
91.53727872634741
 20
194.2686676985812
 10
91.52799381751234
 20
194.83284533877037
 10
91.52003561014794
 20
195.39702297895954
 10
91.51340397226986
 20
195.9612006191487
 10
91.50809879390772
 20
196.52537825933788
 10
91.50411998709617
 20
197.08955589952706
 10
91.50146748586769
 20
197.65373353971626
 10
91.50014124624678
 20
198.2179111799054
 10
91.50014124624678
 20
198.7820888200946
 10
91.50146748586769
 20
199.34626646028374
 10
91.50411998709617
 20
199.91044410047292
 10
91.50809879390772
 20
200.47462174066212
 10
91.51340397226986
 20
201.0387993808513
 10
91.52003561014794
 20
201.60297702104046
 10
91.52799381751234
 20
202.16715466122963
 10
91.53727872634741
 20
202.7313323014188
 10
91.54789049066278
 20
203.29550994160797
 10
91.55982928650573
 20
203.85968758179715
 10
91.5730953119762
 20
204.42386522198632
 10
91.58768878724285
 20
204.9880428621755
 10
91.60360995456162
 20
205.55222050236466
 10
91.62085907829581
 20
206.11639814255383
 10
91.6394364449379
 20
206.680575782743
 10
91.6593423631335
 20
207.24475342293218
 10
91.68057716370711
 20
207.80893106312135
 10
91.7031411996895
 20
208.37310870331052
 10
91.7270348463471
 20
208.9372863434997
 10
91.75225850121336
 20
209.50146398368886
 10
91.77881258412194
 20
210.06564162387804
 10
91.80669753724163
 20
210.6298192640672
 10
91.83591382511335
 20
211.19399690425638
 10
91.86646193468894
 20
211.75817454444558
 10
91.89834237537181
 20
212.32235218463472
 10
91.93155567905981
 20
212.88652982482392
 10
91.96610240018953
 20
213.45070746501307
 10
92.00198311578296
 20
214.01488510520227
 10
92.03919842549575
 20
214.57906274539144
 10
92.07774895166787
 20
215.1432403855806
 10
92.11763533937565
 20
215.70741802576978
 10
92.1588582564863
 20
216.27159566595896
 10
92.201418393714
 20
216.83577330614813
 10
92.24531646467838
 20
217.3999509463373
 10
92.29055320596467
 20
217.96412858652647
 10
92.33712937718607
 20
218.52830622671564
 10
92.38504576104799
 20
219.09248386690481
 10
92.43430316341451
 20
219.656661507094
 10
92.48490241337663
 20
220.22083914728316
 10
92.53684436332301
 20
220.78501678747233
 10
92.59012988901227
 20
221.3491944276615
 10
92.64475988964782
 20
221.91337206785067
 10
92.70073528795447
 20
222.47754970803985
 10
92.75805703025762
 20
223.04172734822902
 10
92.81672608656388
 20
223.6059049884182
 10
92.8767434506446
 20
224.17008262860736
 10
92.93811014012104
 20
224.73426026879653
 10
93.00082719655208
 20
225.2984379089857
 10
93.06489568552385
 20
225.8626155491749
 10
93.13031669674186
 20
226.42679318936405
 10
93.19709134412511
 20
226.99097082955325
 10
93.26522076590274
 20
227.5551484697424
 10
93.33470612471265
 20
228.1193261099316
 10
93.40554860770294
 20
228.68350375012076
 10
93.47774942663486
 20
229.24768139030994
 10
93.55130981798905
 20
229.8118590304991
 10
93.62623104307337
 20
230.37603667068828
 10
93.7025143881337
 20
230.94021431087745
 10
93.78016116446665
 20
231.50439195106662
 10
93.85917270853523
 20
232.0685695912558
 10
93.93955038208648
 20
232.63274723144497
 10
94.02129557227207
 20
233.19692487163414
 10
94.10440969177088
 20
233.7611025118233
 10
94.1888941789147
 20
234.32528015201248
 10
94.274750497816
 20
234.88945779220165
 10
94.3619801384987
 20
235.45363543239083
 10
94.45058461703124
 20
236.01781307258
 10
94.54056547566236
 20
236.58199071276917
 10
94.63192428295989
 20
237.14616835295834
 10
94.72466263395174
 20
237.7103459931475
 10
94.81878215026998
 20
238.27452363333668
 10
94.91428448029771
 20
238.83870127352588
 10
95.01117129931836
 20
239.40287891371503
 10
95.10944430966836
 20
239.96705655390423
 10
95.20910524089223
 20
240.5312341940934
 10
95.31015584990084
 20
241.09541183428254
 10
95.41259792113243
 20
241.65958947447172
 10
95.51643326671689
 20
242.22376711466092
 10
95.62166372664262
 20
242.7879447548501
 10
95.72829116892689
 20
243.35212239503926
 10
95.83631748978897
 20
243.91630003522843
 10
95.94574461382646
 20
244.4804776754176
 10
96.05657449419496
 20
245.04465531560678
 10
96.16880911279063
 20
245.60883295579595
 10
96.28245048043632
 20
246.17301059598512
 10
96.39750063707086
 20
246.7371882361743
 10
96.51396165194154
 20
247.30136587636346
 10
96.63183562380027
 20
247.86554351655263
 10
96.75112468110277
 20
248.4297211567418
 10
96.87183098221172
 20
248.99389879693098
 10
96.99395671560305
 20
249.55807643712015
 10
97.11750410007585
 20
250.12225407730932
 10
97.24247538496607
 20
250.68643171749852
 10
97.36887285036377
 20
251.25060935768767
 10
97.49669880733404
 20
251.81478699787684
 10
97.6259555981417
 20
252.378964638066
 10
97.75664559648001
 20
252.9431422782552
 10
97.88877120770314
 20
253.50731991844435
 10
98.02233486906238
 20
254.07149755863355
 10
98.15733904994659
 20
254.63567519882272
 10
112.9761443199931
 20
254.63567519882272
 10
112.9761443199931
 20
254.63567519882272
 10
113.08767629451856
 20
254.07149755863355
 10
113.19803834554577
 20
253.50731991844435
 10
113.30723184271946
 20
252.9431422782552
 10
113.41525813907876
 20
252.378964638066
 10
113.52211857114511
 20
251.81478699787684
 10
113.62781445900865
 20
251.25060935768767
 10
113.7323471064137
 20
250.68643171749852
 10
113.83571780084284
 20
250.12225407730932
 10
113.93792781359952
 20
249.55807643712015
 10
114.03897839988977
 20
248.99389879693098
 10
114.1388707989025
 20
248.4297211567418
 10
114.23760623388867
 20
247.86554351655263
 10
114.3351859122391
 20
247.30136587636346
 10
114.43161102556135
 20
246.7371882361743
 10
114.52688274975529
 20
246.17301059598512
 10
114.62100224508742
 20
245.60883295579595
 10
114.71397065626414
 20
245.04465531560678
 10
114.8057891125041
 20
244.4804776754176
 10
114.89645872760886
 20
243.91630003522843
 10
114.98598060003292
 20
243.35212239503926
 10
115.07435581295266
 20
242.7879447548501
 10
115.16158543433377
 20
242.22376711466092
 10
115.24767051699789
 20
241.65958947447172
 10
115.33261209868826
 20
241.09541183428254
 10
115.41641120213396
 20
240.5312341940934
 10
115.49906883511358
 20
239.96705655390423
 10
115.58058599051728
 20
239.40287891371503
 10
115.66096364640822
 20
238.83870127352588
 10
115.74020276608289
 20
238.27452363333668
 10
115.81830429813024
 20
237.7103459931475
 10
115.89526917649002
 20
237.14616835295834
 10
115.97109832050998
 20
236.58199071276917
 10
116.04579263500221
 20
236.01781307258
 10
116.11935301029823
 20
235.45363543239083
 10
116.19178032230334
 20
234.88945779220165
 10
116.26307543255004
 20
234.32528015201248
 10
116.33323918825025
 20
233.7611025118233
 10
116.40227242234673
 20
233.19692487163414
 10
116.47017595356348
 20
232.63274723144497
 10
116.53695058645556
 20
232.0685695912558
 10
116.60259711145707
 20
231.50439195106662
 10
116.66711630492941
 20
230.94021431087745
 10
116.7305089292075
 20
230.37603667068828
 10
116.79277573264599
 20
229.8118590304991
 10
116.85391744966401
 20
229.24768139030994
 10
116.91393480078898
 20
228.68350375012076
 10
116.97282849270013
 20
228.1193261099316
 10
117.03059921827037
 20
227.5551484697424
 10
117.08724765660784
 20
226.99097082955325
 10
117.14277447309624
 20
226.42679318936405
 10
117.19718031943452
 20
225.8626155491749
 10
117.25046583367569
 20
225.2984379089857
 10
117.30263164026448
 20
224.73426026879653
 10
117.35367835007449
 20
224.17008262860736
 10
117.40360656044436
 20
223.6059049884182
 10
117.4524168552131
 20
223.04172734822902
 10
117.50010980475449
 20
222.47754970803985
 10
117.54668596601098
 20
221.91337206785067
 10
117.59214588252618
 20
221.3491944276615
 10
117.63649008447717
 20
220.78501678747233
 10
117.67971908870535
 20
220.22083914728316
 10
117.7218333987473
 20
219.656661507094
 10
117.76283350486369
 20
219.09248386690481
 10
117.80271988406858
 20
218.52830622671564
 10
117.84149300015721
 20
217.96412858652647
 10
117.87915330373292
 20
217.3999509463373
 10
117.91570123223372
 20
216.83577330614813
 10
117.95113720995792
 20
216.27159566595896
 10
117.9854616480886
 20
215.70741802576978
 10
118.01867494471787
 20
215.1432403855806
 10
118.05077748486988
 20
214.57906274539144
 10
118.08176964052345
 20
214.01488510520227
 10
118.11165177063347
 20
213.45070746501307
 10
118.14042422115185
 20
212.88652982482392
 10
118.16808732504782
 20
212.32235218463472
 10
118.194641402327
 20
211.75817454444558
 10
118.22008676005007
 20
211.19399690425638
 10
118.24442369235052
 20
210.6298192640672
 10
118.26765248045191
 20
210.06564162387804
 10
118.28977339268386
 20
209.50146398368886
 10
118.31078668449777
 20
208.9372863434997
 10
118.33069259848153
 20
208.37310870331052
 10
118.34949136437368
 20
207.80893106312135
 10
118.36718319907641
 20
207.24475342293218
 10
118.38376830666843
 20
206.680575782743
 10
118.39924687841645
 20
206.11639814255383
 10
118.41361909278638
 20
205.55222050236466
 10
118.42688511545381
 20
204.9880428621755
 10
118.43904509931306
 20
204.42386522198632
 10
118.45009918448659
 20
203.85968758179715
 10
118.46004749833256
 20
203.29550994160797
 10
118.46889015545256
 20
202.7313323014188
 10
118.47662725769797
 20
202.16715466122963
 10
118.48325889417598
 20
201.60297702104046
 10
118.48878514125465
 20
201.0387993808513
 10
118.49320606256728
 20
200.47462174066212
 10
118.4965217090161
 20
199.91044410047292
 10
118.49873211877528
 20
199.34626646028374
 10
118.49983731729301
 20
198.7820888200946
 10
118.49983731729301
 20
198.2179111799054
 10
118.49873211877528
 20
197.65373353971626
 10
118.4965217090161
 20
197.08955589952706
 10
118.49320606256728
 20
196.52537825933788
 10
118.48878514125465
 20
195.9612006191487
 10
118.48325889417598
 20
195.39702297895954
 10
118.47662725769797
 20
194.83284533877037
 10
118.46889015545256
 20
194.2686676985812
 10
118.46004749833256
 20
193.70449005839203
 10
118.45009918448659
 20
193.14031241820285
 10
118.43904509931306
 20
192.57613477801368
 10
118.42688511545381
 20
192.0119571378245
 10
118.41361909278638
 20
191.44777949763534
 10
118.39924687841645
 20
190.88360185744617
 10
118.38376830666843
 20
190.319424217257
 10
118.36718319907641
 20
189.75524657706782
 10
118.34949136437368
 20
189.19106893687865
 10
118.33069259848153
 20
188.62689129668948
 10
118.31078668449777
 20
188.0627136565003
 10
118.28977339268386
 20
187.49853601631114
 10
118.26765248045191
 20
186.93435837612196
 10
118.24442369235052
 20
186.37018073593276
 10
118.22008676005007
 20
185.80600309574362
 10
118.194641402327
 20
185.24182545555442
 10
118.16808732504782
 20
184.67764781536525
 10
118.14042422115185
 20
184.11347017517608
 10
118.11165177063347
 20
183.5492925349869
 10
118.08176964052345
 20
182.98511489479773
 10
118.05077748486988
 20
182.42093725460856
 10
118.01867494471787
 20
181.8567596144194
 10
117.9854616480886
 20
181.29258197423022
 10
117.95113720995792
 20
180.72840433404104
 10
117.91570123223372
 20
180.16422669385187
 10
117.87915330373292
 20
179.6000490536627
 10
117.84149300015721
 20
179.03587141347353
 10
117.80271988406858
 20
178.47169377328436
 10
117.76283350486369
 20
177.90751613309519
 10
117.7218333987473
 20
177.343338492906
 10
117.67971908870535
 20
176.77916085271684
 10
117.63649008447717
 20
176.21498321252767
 10
117.59214588252618
 20
175.6508055723385
 10
117.54668596601098
 20
175.08662793214933
 10
117.50010980475449
 20
174.52245029196015
 10
117.4524168552131
 20
173.95827265177098
 10
117.40360656044436
 20
173.39409501158178
 10
117.35367835007449
 20
172.82991737139264
 10
117.30263164026448
 20
172.26573973120344
 10
117.25046583367569
 20
171.70156209101427
 10
117.19718031943452
 20
171.1373844508251
 10
117.14277447309624
 20
170.57320681063595
 10
117.08724765660784
 20
170.00902917044675
 10
117.03059921827037
 20
169.44485153025758
 10
116.97282849270013
 20
168.8806738900684
 10
116.91393480078898
 20
168.31649624987924
 10
116.85391744966401
 20
167.75231860969006
 10
116.79277573264599
 20
167.1881409695009
 10
116.7305089292075
 20
166.62396332931172
 10
116.66711630492941
 20
166.05978568912255
 10
116.60259711145707
 20
165.49560804893338
 10
116.53695058645556
 20
164.9314304087442
 10
116.47017595356348
 20
164.36725276855503
 10
116.40227242234673
 20
163.80307512836586
 10
116.33323918825025
 20
163.2388974881767
 10
116.26307543255004
 20
162.67471984798752
 10
116.19178032230334
 20
162.11054220779835
 10
116.11935301029823
 20
161.54636456760915
 10
116.04579263500221
 20
160.98218692742
 10
115.97109832050998
 20
160.4180092872308
 10
115.89526917649002
 20
159.85383164704166
 10
115.81830429813024
 20
159.28965400685246
 10
115.74020276608289
 20
158.72547636666332
 10
115.66096364640822
 20
158.16129872647412
 10
115.58058599051728
 20
157.59712108628497
 10
115.49906883511358
 20
157.03294344609577
 10
115.41641120213396
 20
156.4687658059066
 10
115.33261209868826
 20
155.90458816571743
 10
115.24767051699789
 20
155.34041052552826
 10
115.16158543433377
 20
154.77623288533908
 10
115.07435581295266
 20
154.2120552451499
 10
114.98598060003292
 20
153.64787760496074
 10
114.89645872760886
 20
153.08369996477157
 10
114.8057891125041
 20
152.5195223245824
 10
114.71397065626414
 20
151.95534468439322
 10
114.62100224508742
 20
151.39116704420405
 10
114.52688274975529
 20
150.82698940401488
 10
114.43161102556135
 20
150.2628117638257
 10
114.3351859122391
 20
149.69863412363654
 10
114.23760623388867
 20
149.13445648344737
 10
114.1388707989025
 20
148.5702788432582
 10
114.03897839988977
 20
148.00610120306902
 10
113.93792781359952
 20
147.44192356287982
 10
113.83571780084284
 20
146.87774592269068
 10
113.7323471064137
 20
146.31356828250148
 10
113.62781445900865
 20
145.74939064231233
 10
113.52211857114509
 20
145.18521300212313
 10
113.41525813907876
 20
144.621035361934
 10
113.30723184271946
 20
144.0568577217448
 10
113.19803834554577
 20
143.49268008155565
 10
113.08767629451856
 20
142.92850244136645
 10
112.9761443199931
 20
142.36432480117728
 10
98.15733904994659
 20
142.36432480117728
 97
0
 75
1
 76
1
 52
0.0
 41
1.0
 77
0
 78
1
 53
45.0
 43
0.0
 44
0.0
 45
-2.2450640303
 46
2.2450640303
 79
0
 98
0
  0
LINE
  5
81
330
17
100
AcDbEntity
  8
DIMS
100
AcDbLine
 10
91.4999754668095
 20
140.86432480117728
 30
0.0
 11
91.4999754668095
 21
134.36432480117728
 31
0.0
  0
LINE
  5
82
330
17
100
AcDbEntity
  8
DIMS
100
AcDbLine
 10
118.4999754668095
 20
140.86432480117728
 30
0.0
 11
118.4999754668095
 21
134.36432480117728
 31
0.0
  0
LINE
  5
83
330
17
100
AcDbEntity
  8
DIMS
100
AcDbLine
 10
91.4999754668095
 20
134.36432480117728
 30
0.0
 11
118.4999754668095
 21
134.36432480117728
 31
0.0
  0
SOLID
  5
84
330
17
100
AcDbEntity
  8
DIMS
100
AcDbTrace
 10
91.4999754668095
 20
134.36432480117728
 30
0.0
 11
93.9999754668095
 21
133.56432480117726
 31
0.0
 12
93.9999754668095
 22
135.1643248011773
 32
0.0
 13
93.9999754668095
 23
135.1643248011773
 33
0.0
  0
SOLID
  5
85
330
17
100
AcDbEntity
  8
DIMS
100
AcDbTrace
 10
118.4999754668095
 20
134.36432480117728
 30
0.0
 11
115.9999754668095
 21
135.1643248011773
 31
0.0
 12
115.9999754668095
 22
133.56432480117726
 32
0.0
 13
115.9999754668095
 23
133.56432480117726
 33
0.0
  0
TEXT
  5
86
330
17
100
AcDbEntity
  8
DIMS
100
AcDbText
 10
104.9999754668095
 20
130.36432480117728
 30
0.0
 40
2.5
  1
4.50
 72
4
 11
104.9999754668095
 21
130.36432480117728
 31
0.0
100
AcDbText
 73
3
  0
LINE
  5
87
330
17
100
AcDbEntity
  8
DIMS
100
AcDbLine
 10
112.9761443199931
 20
254.63567519882272
 30
0.0
 11
130.49985875375324
 21
254.63567519882272
 31
0.0
  0
LINE
  5
88
330
17
100
AcDbEntity
  8
DIMS
100
AcDbLine
 10
98.15733904994659
 20
142.36432480117728
 30
0.0
 11
130.49985875375324
 21
142.36432480117728
 31
0.0
  0
LINE
  5
89
330
17
100
AcDbEntity
  8
DIMS
100
AcDbLine
 10
128.49985875375324
 20
254.63567519882272
 30
0.0
 11
128.49985875375324
 21
142.36432480117728
 31
0.0
  0
SOLID
  5
8A
330
17
100
AcDbEntity
  8
DIMS
100
AcDbTrace
 10
128.49985875375324
 20
254.63567519882272
 30
0.0
 11
127.69985875375325
 21
252.13567519882272
 31
0.0
 12
129.29985875375326
 22
252.13567519882272
 32
0.0
 13
129.29985875375326
 23
252.13567519882272
 33
0.0
  0
SOLID
  5
8B
330
17
100
AcDbEntity
  8
DIMS
100
AcDbTrace
 10
128.49985875375324
 20
142.36432480117728
 30
0.0
 11
129.29985875375326
 21
144.86432480117728
 31
0.0
 12
127.69985875375325
 22
144.86432480117728
 32
0.0
 13
127.69985875375325
 23
144.86432480117728
 33
0.0
  0
TEXT
  5
8C
330
17
100
AcDbEntity
  8
DIMS
100
AcDbText
 10
131.49985875375324
 20
198.5
 30
0.0
 40
2.5
  1
Ø 18.71
100
AcDbText
 73
2
  0
LINE
  5
8D
330
17
100
AcDbEntity
  8
DIMS
100
AcDbLine
 10
98.15733904994659
 20
256.1356751988227
 30
0.0
 11
98.15733904994659
 21
262.6356751988227
 31
0.0
  0
LINE
  5
8E
330
17
100
AcDbEntity
  8
DIMS
100
AcDbLine
 10
112.9761443199931
 20
256.1356751988227
 30
0.0
 11
112.9761443199931
 21
262.6356751988227
 31
0.0
  0
LINE
  5
8F
330
17
100
AcDbEntity
  8
DIMS
100
AcDbLine
 10
98.15733904994659
 20
262.6356751988227
 30
0.0
 11
112.9761443199931
 21
262.6356751988227
 31
0.0
  0
SOLID
  5
90
330
17
100
AcDbEntity
  8
DIMS
100
AcDbTrace
 10
98.15733904994659
 20
262.6356751988227
 30
0.0
 11
100.65733904994659
 21
261.8356751988227
 31
0.0
 12
100.65733904994659
 22
263.4356751988227
 32
0.0
 13
100.65733904994659
 23
263.4356751988227
 33
0.0
  0
SOLID
  5
91
330
17
100
AcDbEntity
  8
DIMS
100
AcDbTrace
 10
112.9761443199931
 20
262.6356751988227
 30
0.0
 11
110.4761443199931
 21
263.4356751988227
 31
0.0
 12
110.4761443199931
 22
261.8356751988227
 32
0.0
 13
110.4761443199931
 23
261.8356751988227
 33
0.0
  0
TEXT
  5
92
330
17
100
AcDbEntity
  8
DIMS
100
AcDbText
 10
105.56674168496984
 20
264.6356751988227
 30
0.0
 40
2.5
  1
(2.47)
 72
4
 11
105.56674168496984
 21
264.6356751988227
 31
0.0
100
AcDbText
 73
1
  0
LINE
  5
93
330
17
100
AcDbEntity
  8
DIMS
100
AcDbLine
 10
98.15733904994659
 20
254.63567519882272
 30
0.0
 11
95.15733904994659
 21
254.63567519882272
 31
0.0
  0
LINE
  5
94
330
17
100
AcDbEntity
  8
DIMS
100
AcDbLine
 10
98.15733904994659
 20
142.36432480117728
 30
0.0
 11
95.15733904994659
 21
142.36432480117728
 31
0.0
  0
LINE
  5
95
330
17
100
AcDbEntity
  8
DIMS
100
AcDbLine
 10
95.15733904994659
 20
142.36432480117728
 30
0.0
 11
95.15733904994659
 21
254.63567519882272
 31
0.0
  0
TEXT
  5
96
330
17
100
AcDbEntity
  8
DIMS
100
AcDbText
 10
94.15733904994659
 20
198.5
 30
0.0
 40
2.0
  1
Øₑ 18.71
 72
2
 11
94.15733904994659
 21
198.5
 31
0.0
100
AcDbText
 73
2
  0
LINE
  5
97
330
17
100
AcDbEntity
  8
DIMS
100
AcDbLine
 10
113.84032766722842
 20
250.09694579083703
 30
0.0
 11
116.84032766722842
 21
250.09694579083703
 31
0.0
  0
LINE
  5
98
330
17
100
AcDbEntity
  8
DIMS
100
AcDbLine
 10
113.84032766722842
 20
146.90305420916297
 30
0.0
 11
116.84032766722842
 21
146.90305420916297
 31
0.0
  0
LINE
  5
99
330
17
100
AcDbEntity
  8
DIMS
100
AcDbLine
 10
116.84032766722842
 20
146.90305420916297
 30
0.0
 11
116.84032766722842
 21
250.09694579083703
 31
0.0
  0
TEXT
  5
9A
330
17
100
AcDbEntity
  8
DIMS
100
AcDbText
 10
117.84032766722842
 20
198.5
 30
0.0
 40
2.0
  1
Øₑ 17.20
 11
117.84032766722842
 21
198.5
 31
0.0
100
AcDbText
 73
2
  0
LWPOLYLINE
  5
9B
330
17
100
AcDbEntity
  8
CALLOUT
100
AcDbPolyline
 90
3
 70
1
 10
96.29103034927158
 20
246.2153239189993
 10
92.09194328230083
 20
244.80768865295974
 10
92.97243875711875
 20
249.1480220050765
  0
LINE
  5
9C
330
17
100
AcDbEntity
  8
CALLOUT
100
AcDbLine
 10
96.29103034927158
 20
246.2153239189993
 30
0.0
 11
89.61317636419719
 21
252.09904527020066
 31
0.0
  0
LINE
  5
9D
330
17
100
AcDbEntity
  8
CALLOUT
100
AcDbLine
 10
89.63144889001008
 20
252.04259370165445
 30
0.0
 11
90.17354369005784
 21
254.7148074812232
 31
0.0
  0
TEXT
  5
9E
330
17
100
AcDbEntity
  8
CALLOUT
100
AcDbText
 10
90.47176446455158
 20
256.1848633882078
 30
0.0
 40
2.0
  1
S1
 72
4
 11
90.47176446455158
 21
256.1848633882078
 31
0.0
100
AcDbText
 73
2
  0
LWPOLYLINE
  5
9F
330
17
100
AcDbEntity
  8
CALLOUT
100
AcDbPolyline
 90
3
 70
1
 10
116.17918729769033
 20
234.98818887923477
 10
119.70313488944973
 20
237.67064346575293
 10
120.26423494693174
 20
233.27758842237304
  0
LINE
  5
A0
330
17
100
AcDbEntity
  8
CALLOUT
100
AcDbLine
 10
116.17918729769033
 20
234.98818887923477
 30
0.0
 11
124.39368515920272
 21
231.56270560416755
 31
0.0
  0
LINE
  5
A1
330
17
100
AcDbEntity
  8
CALLOUT
100
AcDbLine
 10
124.35823969714941
 20
231.61029009755288
 30
0.0
 11
124.7036922658073
 21
228.90561714527868
 31
0.0
  0
TEXT
  5
A2
330
17
100
AcDbEntity
  8
CALLOUT
100
AcDbText
 10
124.89373491621998
 20
227.4177045836595
 30
0.0
 40
2.0
  1
S2
 72
4
 11
124.89373491621998
 21
227.4177045836595
 31
0.0
100
AcDbText
 73
2
  0
ENDSEC
  0
SECTION
  2
OBJECTS
  0
DICTIONARY
  5
A
330
0
100
AcDbDictionary
281
1
  3
ACAD_COLOR
350
B
  3
ACAD_GROUP
350
C
  3
ACAD_LAYOUT
350
D
  3
ACAD_MATERIAL
350
E
  3
ACAD_MLEADERSTYLE
350
F
  3
ACAD_MLINESTYLE
350
10
  3
ACAD_PLOTSETTINGS
350
11
  3
ACAD_PLOTSTYLENAME
350
12
  3
ACAD_SCALELIST
350
14
  3
ACAD_TABLESTYLE
350
15
  3
ACAD_VISUALSTYLE
350
16
  3
EZDXF_META
350
2D
  0
DICTIONARY
  5
B
330
A
100
AcDbDictionary
281
1
  0
DICTIONARY
  5
C
330
A
100
AcDbDictionary
281
1
  0
DICTIONARY
  5
D
330
A
100
AcDbDictionary
281
1
  3
Model
350
1A
  3
Layout1
350
1E
  0
DICTIONARY
  5
E
330
A
100
AcDbDictionary
281
1
  3
ByBlock
350
1F
  3
ByLayer
350
20
  3
Global
350
21
  0
DICTIONARY
  5
F
330
A
100
AcDbDictionary
281
1
  3
Standard
350
2C
  0
DICTIONARY
  5
10
330
A
100
AcDbDictionary
281
1
  3
Standard
350
22
  0
DICTIONARY
  5
11
330
A
100
AcDbDictionary
281
1
  0
ACDBDICTIONARYWDFLT
  5
12
330
A
100
AcDbDictionary
281
1
  3
Normal
350
13
100
AcDbDictionaryWithDefault
340
13
  0
ACDBPLACEHOLDER
  5
13
330
12
  0
DICTIONARY
  5
14
330
A
100
AcDbDictionary
281
1
  0
DICTIONARY
  5
15
330
A
100
AcDbDictionary
281
1
  0
DICTIONARY
  5
16
330
A
100
AcDbDictionary
281
1
  0
LAYOUT
  5
1A
330
D
100
AcDbPlotSettings
  1

  4
A3
  6

 40
7.5
 41
20.0
 42
7.5
 43
20.0
 44
420.0
 45
297.0
 46
0.0
 47
0.0
 48
0.0
 49
0.0
140
0.0
141
0.0
142
1.0
143
1.0
 70
1024
 72
1
 73
0
 74
5
  7

 75
16
 76
0
 77
2
 78
300
147
1.0
148
0.0
149
0.0
100
AcDbLayout
  1
Model
 70
1
 71
0
 10
0.0
 20
0.0
 11
420.0
 21
297.0
 12
0.0
 22
0.0
 32
0.0
 14
1e+20
 24
1e+20
 34
1e+20
 15
-1e+20
 25
-1e+20
 35
-1e+20
146
0.0
 13
0.0
 23
0.0
 33
0.0
 16
1.0
 26
0.0
 36
0.0
 17
0.0
 27
1.0
 37
0.0
 76
1
330
17
  0
LAYOUT
  5
1E
330
D
100
AcDbPlotSettings
  1

  4
A3
  6

 40
7.5
 41
20.0
 42
7.5
 43
20.0
 44
420.0
 45
297.0
 46
0.0
 47
0.0
 48
0.0
 49
0.0
140
0.0
141
0.0
142
1.0
143
1.0
 70
0
 72
1
 73
0
 74
5
  7

 75
16
 76
0
 77
2
 78
300
147
1.0
148
0.0
149
0.0
100
AcDbLayout
  1
Layout1
 70
1
 71
1
 10
0.0
 20
0.0
 11
420.0
 21
297.0
 12
0.0
 22
0.0
 32
0.0
 14
1e+20
 24
1e+20
 34
1e+20
 15
-1e+20
 25
-1e+20
 35
-1e+20
146
0.0
 13
0.0
 23
0.0
 33
0.0
 16
1.0
 26
0.0
 36
0.0
 17
0.0
 27
1.0
 37
0.0
 76
1
330
1B
  0
MATERIAL
  5
1F
102
{ACAD_REACTORS
330
E
102
}
330
E
100
AcDbMaterial
  1
ByBlock
  2

 70
0
 40
1.0
 71
1
 41
1.0
 91
-1023410177
 42
1.0
 72
1
  3

 73
1
 74
1
 75
1
 44
0.5
 73
0
 45
1.0
 46
1.0
 77
1
  4

 78
1
 79
1
170
1
 48
1.0
171
1
  6

172
1
173
1
174
1
140
1.0
141
1.0
175
1
  7

176
1
177
1
178
1
143
1.0
179
1
  8

270
1
271
1
272
1
145
1.0
146
1.0
273
1
  9

274
1
275
1
276
1
 42
1.0
 72
1
  3

 73
1
 74
1
 75
1
 94
63
  0
MATERIAL
  5
20
102
{ACAD_REACTORS
330
E
102
}
330
E
100
AcDbMaterial
  1
ByLayer
  2

 70
0
 40
1.0
 71
1
 41
1.0
 91
-1023410177
 42
1.0
 72
1
  3

 73
1
 74
1
 75
1
 44
0.5
 73
0
 45
1.0
 46
1.0
 77
1
  4

 78
1
 79
1
170
1
 48
1.0
171
1
  6

172
1
173
1
174
1
140
1.0
141
1.0
175
1
  7

176
1
177
1
178
1
143
1.0
179
1
  8

270
1
271
1
272
1
145
1.0
146
1.0
273
1
  9

274
1
275
1
276
1
 42
1.0
 72
1
  3

 73
1
 74
1
 75
1
 94
63
  0
MATERIAL
  5
21
102
{ACAD_REACTORS
330
E
102
}
330
E
100
AcDbMaterial
  1
Global
  2

 70
0
 40
1.0
 71
1
 41
1.0
 91
-1023410177
 42
1.0
 72
1
  3

 73
1
 74
1
 75
1
 44
0.5
 73
0
 45
1.0
 46
1.0
 77
1
  4

 78
1
 79
1
170
1
 48
1.0
171
1
  6

172
1
173
1
174
1
140
1.0
141
1.0
175
1
  7

176
1
177
1
178
1
143
1.0
179
1
  8

270
1
271
1
272
1
145
1.0
146
1.0
273
1
  9

274
1
275
1
276
1
 42
1.0
 72
1
  3

 73
1
 74
1
 75
1
 94
63
  0
MLINESTYLE
  5
22
102
{ACAD_REACTORS
330
10
102
}
330
10
100
AcDbMlineStyle
  2
Standard
 70
0
  3

 62
256
 51
90.0
 52
90.0
 71
2
 49
0.5
 62
256
  6
BYLAYER
 49
-0.5
 62
256
  6
BYLAYER
  0
MLEADERSTYLE
  5
2C
102
{ACAD_REACTORS
330
F
102
}
330
F
100
AcDbMLeaderStyle
179
2
170
2
171
1
172
0
 90
2
 40
0.0
 41
0.0
173
1
 91
-1056964608
 92
-2
290
1
 42
2.0
291
1
 43
8.0
  3
Standard
 44
4.0
300

342
29
174
1
175
1
176
0
178
1
 93
-1056964608
 45
4.0
292
0
297
0
 46
4.0
 94
-1056964608
 47
1.0
 49
1.0
140
1.0
294
1
141
0.0
177
0
142
1.0
295
0
296
0
143
3.75
271
0
272
9
273
9
  0
DICTIONARY
  5
2D
330
A
100
AcDbDictionary
280
1
281
1
  3
CREATED_BY_EZDXF
350
2E
  3
WRITTEN_BY_EZDXF
350
A5
  0
DICTIONARYVAR
  5
2E
330
2D
100
DictionaryVariables
280
0
  1
1.4.3 @ 2026-07-26T12:20:02.003728+00:00
  0
DICTIONARYVAR
  5
A5
330
2D
100
DictionaryVariables
280
0
  1
1.4.3 @ 2026-07-26T12:20:02.009780+00:00
  0
ENDSEC
  0
EOF
